<svg width="159" height="54" viewBox="0 0 159 54" fill="none" xmlns="http://www.w3.org/2000/svg">
<path d="M9.2691 0.731949C9.31053 0.731949 9.35195 0.731949 10.8231 0.75266C12.2943 0.773372 15.1939 0.814795 17.2054 0.898269C19.217 0.981744 20.2526 1.10601 22.5879 1.14932C24.9233 1.19263 28.5272 1.1512 30.6529 1.08844C32.7787 1.02568 33.3172 0.942831 36.515 0.817306C39.7127 0.691781 45.5534 0.526087 61.3206 0.502865C77.0878 0.479643 102.605 0.603913 115.936 0.647219C129.267 0.690525 129.64 0.649102 131.22 0.607051C132.8 0.565 135.575 0.523577 137.378 0.564373C140.995 0.646241 141.987 0.94032 142.887 1.00371C144.041 1.085 144.874 1.19137 145.816 1.25476C146.639 1.31011 148.047 1.60811 149.518 1.96523C149.772 2.02862 149.938 2.07005 150.085 2.1121C150.233 2.15415 150.357 2.19557 150.485 2.23825" stroke="#0012D4" stroke-linecap="round"/>
<path d="M9.14355 52.8249C9.2264 52.8249 9.30925 52.8249 12.3137 52.9491C15.3181 53.0734 21.2417 53.322 31.128 53.2636C41.0144 53.2052 54.6841 52.8324 66.4897 52.7232C78.2953 52.614 87.8227 52.7797 92.8964 52.8858C97.9701 52.9918 98.3015 53.0333 99.28 53.0546C100.258 53.0759 101.874 53.0759 102.83 53.0966C103.787 53.1174 104.036 53.1588 108.306 53.2008C112.576 53.2429 120.861 53.2843 127.883 53.2228C134.906 53.1613 140.415 52.9956 143.315 52.9309C146.758 52.8542 147.844 53.0759 148.849 53.1801C150.308 53.3314 151.15 52.9931 151.947 52.8048C152.54 52.6645 153.738 51.8684 154.667 51.2784C155.468 50.7692 155.88 50.0658 156.133 49.5631C156.384 49.0641 156.342 48.3512 156.405 47.4725C156.461 46.706 156.718 46.049 156.865 45.3386C156.887 44.7561 156.928 44.2904 156.991 43.5636C157.012 42.9611 157.012 41.8841 157.012 40.7745" stroke="#0012D4" stroke-linecap="round"/>
<path d="M149.732 1.86168C149.813 1.9031 150.482 2.07005 151.484 2.69517C152.375 3.25106 153.367 4.24038 154.182 5.24395C155.215 6.51506 155.965 8.3438 156.258 8.90991C156.567 9.50945 156.801 10.0183 157.303 11.374C157.982 13.2094 157.932 13.8267 157.995 16.7496C158.054 19.5062 158.016 24.8504 157.975 27.8309C157.917 32.0337 157.64 32.9467 157.411 33.971C157.184 34.9833 157.18 35.751 157.033 36.5242C157.012 37.0037 156.971 37.4669 156.908 38.2778C156.887 38.8815 156.887 39.8757 156.636 41.151" stroke="#0012D4" stroke-linecap="round"/>
<path d="M10.0223 0.73195C9.02057 0.647848 8.26742 0.814796 7.53624 0.898898C6.23455 1.04862 5.25733 1.69096 4.08493 2.61106C3.21276 3.29553 3.16106 4.07594 2.8893 4.72553C2.65364 5.28883 2.40791 5.87597 2.21962 6.44083C1.90143 7.39543 1.52924 8.13542 1.0491 10.5129C0.8639 11.4299 0.858931 12.2338 0.83822 13.0485C0.82908 13.408 0.776085 13.656 0.754745 17.3465C0.733406 21.0369 0.733406 28.1617 0.712694 31.9563C0.690624 35.9999 0.607881 36.7941 0.587169 37.7342C0.572784 38.3873 0.482356 40.4217 0.503068 43.2241C0.515583 44.9175 0.690728 45.8331 0.858304 46.4626C1.08013 47.2959 1.31835 48.2181 1.59012 48.9518C1.88903 49.7588 2.44557 50.6031 3.32424 51.483C3.86915 52.0287 4.5795 52.1947 5.45817 52.5726C6.21258 52.8663 7.04732 53.0332 8.02955 53.1801C8.46701 53.2015 9.1712 53.2015 9.89674 53.2015" stroke="#0012D4" stroke-linecap="round"/>
<path d="M34.956 20.4693C34.956 21.095 34.956 21.7207 35.5973 24.2799C36.2387 26.8391 37.5214 31.3129 38.3229 33.9617C39.1245 36.6105 39.4061 37.2988 39.5824 37.8567C40.0503 39.3371 40.2005 40.0576 40.6266 41.007C40.7067 41.1854 40.8319 41.199 40.9585 41.1682C41.2589 41.095 41.4965 40.7904 41.7795 40.1623C42.3296 38.9413 42.6028 37.5709 42.9323 35.8421C43.1618 34.6375 43.6684 32.7994 44.0666 31.4262C44.4648 30.053 44.7776 29.2083 45.2203 27.8659C45.6631 26.5234 46.2262 24.7089 46.5632 23.6647C47.1034 21.9909 47.4378 21.514 47.7999 20.977C48.0221 20.6476 48.4171 20.6276 48.5906 20.6428C49.1038 20.6877 49.0172 22.6687 49.4434 24.9492C49.528 25.4021 49.6486 25.6778 50.0411 27.1368C50.4336 28.5958 51.1218 31.2238 51.8205 33.2815C52.5192 35.3392 53.2075 36.747 53.5934 37.5974C54.2829 39.117 54.5765 40.6207 55.0529 41.4824C55.1182 41.6007 55.242 41.6408 55.3373 41.5791C56.0122 41.1427 55.9378 39.939 56.2369 38.7606C56.4466 37.9346 56.6299 36.6124 56.9148 35.4037C57.1997 34.1949 57.5438 33.1312 58.1278 31.1442C58.7118 29.1571 59.5252 26.2788 60.0381 24.5615C60.7387 22.3749 61.0259 21.7662 61.2307 21.4515C61.3416 21.2619 61.4668 21.0116 61.5957 20.8485" stroke="#0012D4" stroke-linecap="round"/>
<path d="M68.2319 20.4693C68.2319 20.3442 68.2319 20.219 68.2006 21.0618C68.1693 21.9046 68.1068 23.7192 68.2466 26.6875C68.3864 29.6557 68.7306 33.7228 68.9235 35.8962C69.178 38.7627 69.1487 39.6812 69.1013 40.1528C69.0697 40.4669 69.0851 40.9373 69.0069 40.0685C68.9287 39.1996 68.7723 36.9783 68.7386 35.443C68.705 33.9077 68.7988 33.1255 68.9254 32.2846C69.052 31.4437 69.2084 30.5678 69.3828 29.7254C69.7203 28.0957 69.9697 27.0449 70.1109 26.3684C70.516 24.4288 71.1689 23.7267 71.6742 22.9532C72.1957 22.1548 73.2489 21.423 74.0125 21.0386C74.2017 21.0068 74.4832 20.9756 75.1445 20.9594C75.8057 20.9433 76.8382 20.9433 77.9018 20.9433" stroke="#0012D4" stroke-linecap="round"/>
<path d="M83.4953 20.7537C83.4953 20.7224 83.4953 20.6911 83.4953 23.7566C83.4953 26.8221 83.4953 32.9852 83.4484 36.3948C83.4014 39.8044 83.3076 40.2737 83.2436 40.5624C83.1796 40.8511 83.1483 40.9449 83.1322 41.181C83.1161 41.417 83.1161 41.7925 83.2109 41.9896" stroke="#0012D4" stroke-linecap="round"/>
<path d="M94.9665 14.5915C94.9039 14.5602 94.8413 14.5289 94.7465 17.8134C94.6517 21.0979 94.5266 27.699 94.5247 31.5219C94.5228 35.3449 94.6479 36.1896 94.7437 36.7342C94.9522 37.9201 95.1864 38.6677 95.4552 39.7262C95.6386 40.4488 96.2596 40.7553 97.0806 41.1824C97.7381 41.5245 99.6308 41.0757 100.731 40.7425C101 40.5695 101.223 40.3789 101.38 40.1898C101.444 40.0945 101.476 40.0007 101.508 39.6196" stroke="#0012D4" stroke-linecap="round"/>
<path d="M89.9419 21.4173C90.067 21.3548 90.6633 21.3225 91.61 21.3069C92.3078 21.2954 93.7226 21.1965 95.523 21.1334C96.7658 21.0381 97.6162 20.9756 98.6401 20.8808C99.1947 20.8485 99.8204 20.8485 100.465 20.8485" stroke="#0012D4" stroke-linecap="round"/>
<path d="M105.016 30.9925C105.141 30.9925 105.299 30.9612 107.256 30.9451C109.119 30.9297 112.748 31.0228 114.727 31.0394C116.706 31.056 116.925 31.0247 117.491 31.0086C120.056 30.9356 120.687 30.8977 121.225 30.819C121.759 30.741 122.268 30.6455 122.805 30.5189C122.933 30.4888 123.026 30.4559 123.075 30.3616C123.334 29.8556 122.841 29.0376 122.005 26.5315C121.621 25.3812 121.072 24.5496 120.536 23.84C120.019 23.1549 119.302 22.7152 118.125 22.227C115.957 21.3286 114.182 21.3225 113.537 21.3695C112.48 21.4465 111.091 21.8572 109.875 22.2521C108.871 22.5781 107.615 23.4651 106.741 24.5098C106.113 25.2593 105.901 26.2172 105.806 27.5521C105.736 28.5408 105.774 30.1696 105.899 31.6803C106.024 33.191 106.275 34.5362 106.497 35.4952C107.01 37.7006 107.541 38.6014 108.032 39.475C108.35 40.0408 109.121 40.5012 109.706 40.898C110.099 41.1645 110.606 41.4512 111.596 41.7816C113.396 42.3825 114.716 42.5585 114.999 42.5741C115.348 42.5934 115.914 42.6533 116.843 42.5751C118.132 42.4664 119.264 41.9915 120.068 41.582C120.874 41.171 121.509 40.4453 122.029 39.5475C122.456 38.4933 122.68 37.7567 122.728 37.4571C122.744 37.314 122.744 37.1888 122.554 36.8703" stroke="#0012D4" stroke-linecap="round"/>
</svg>
