<svg width="28" height="48" viewBox="0 0 28 48" fill="none" xmlns="http://www.w3.org/2000/svg">
<path d="M15.2279 8.14494C14.4809 8.0258 12.7284 8.10443 11.4804 8.73765C10.8278 9.06879 10.4243 9.49358 10.1467 9.79083C9.72043 10.2473 9.74756 12.3767 9.90542 13.8802C10.0057 14.8354 10.8174 15.2122 11.1957 15.6095C11.6249 16.0604 12.9571 16.008 14.5869 15.7709C15.51 15.6367 16.2573 15.1359 16.8142 14.8774C17.5969 14.5141 18.1229 13.5514 18.5626 12.7544C19.167 11.6586 18.7234 10.094 18.3666 9.27973C18.0591 8.57794 17.177 8.06631 16.6397 7.80837C15.8272 7.66839 14.9908 7.7077 14.7531 7.76727C14.6334 7.78752 14.5155 7.78752 14.2748 8.0258" stroke="#0012D4" stroke-linecap="round"/>
<path d="M9.03274 14.3401C8.75634 14.4187 7.808 15.0502 6.97046 15.5893C6.12856 16.1312 5.8184 16.7205 4.82717 18.8572C3.77835 21.1181 4.42449 22.3986 4.6437 22.9359C4.88332 23.5232 5.69211 23.7901 6.68572 24.0885C7.98543 24.4789 9.62128 24.0713 10.9145 23.6543C11.9334 23.3258 13.0358 22.6059 13.7965 21.9667C14.4422 21.4241 14.83 20.5376 15.1868 19.8627C15.4401 19.3837 15.4257 18.7125 15.4465 17.7391C15.4513 17.5179 15.3875 17.3614 15.3083 17.2214C15.2291 17.0815 15.1111 16.9635 15.0307 16.9617C14.38 16.9473 15.185 19.6489 15.6038 20.7712C15.9712 21.7559 17.6845 22.2413 18.7782 22.342C19.9486 22.4497 21.9282 22.1269 23.0874 21.6295C24.4075 21.0631 24.4801 20.2994 25.0151 19.4267C25.3215 18.9267 25.4332 18.2359 25.5726 17.2828C25.6585 16.6954 25.5536 16.2475 25.2778 15.8132C24.7073 14.9151 23.9273 14.3413 23.4913 14.1429C23.1482 13.9868 22.2642 13.9827 21.4671 13.9827C20.2006 13.9827 24.311 13.194 25.2337 12.7722C25.8741 12.4795 26.7795 11.4474 27.1607 10.7481C27.4979 10.1296 27.4991 8.51427 27.3216 7.51172C27.1792 6.70788 26.627 6.28162 26.2696 5.76397C25.8045 5.09041 24.8423 4.69233 23.8702 4.47192C21.6364 3.96549 19.6789 5.40239 19.0427 5.87953C18.4347 6.33554 18.2469 6.83323 18.1867 6.89399C17.6812 7.4045 18.5638 4.74236 17.7733 2.41382C17.2438 0.854155 15.0325 0.758399 14.2385 0.620199C13.1597 0.432443 12.2923 0.479616 11.6562 0.658323C11.0139 0.838719 10.6625 1.3517 10.2259 1.94739C9.77414 2.56371 9.2734 3.25553 9.05299 4.16872C8.55836 6.2181 9.23051 6.91067 9.48844 7.42833C9.60335 7.65894 9.62843 7.90547 9.56945 8.06452C9.34835 8.66084 8.12252 7.15371 6.59816 6.77605C4.45233 6.24441 3.9122 6.99169 3.39573 7.23056C2.63502 7.5824 2.20376 8.14256 1.58901 8.81747C1.1409 9.30944 0.852739 9.81049 0.614464 10.8988C0.348691 12.1127 0.613272 13.0677 0.731814 13.3846C0.990914 14.0773 1.87971 14.5355 2.99126 14.7964C4.58037 15.1694 5.3347 14.6975 6.05191 14.5593C6.64879 14.3008 7.20278 14.1423 7.87829 14.0625C8.07725 14.0232 8.31315 13.9446 8.79446 13.8636" stroke="#0012D4" stroke-linecap="round"/>
<path d="M14.5131 21.6075C14.5131 21.5289 14.5131 21.4502 14.5131 21.4884C14.5131 21.6838 14.3165 23.3398 14.0187 25.7803C13.8606 27.075 13.7994 28.2709 13.6011 30.3868C13.319 33.3961 13.4801 35.3072 13.579 35.8004C13.9834 37.8176 13.8769 39.0374 13.937 39.7337C13.9976 40.4345 14.1152 40.9841 14.1753 41.541C14.2494 42.2273 14.3939 42.6925 14.4928 43.3668C14.6431 44.3917 14.7895 45.2706 15.0879 45.9295C15.1481 46.0689 15.1874 46.2261 15.2273 46.3661C15.2672 46.5061 15.3065 46.624 15.347 46.6264" stroke="#0012D4" stroke-linecap="round"/>
<path d="M13.4408 37.4528C13.4408 37.5315 13.4408 37.6101 13.4212 37.5916C12.9063 37.1079 12.1327 36.0661 10.1723 34.4607C9.35744 33.7934 8.63958 33.3259 7.80502 32.7886C6.87008 32.1866 6.17581 32.0535 5.52115 31.8146C5.02163 31.6324 3.76089 31.4959 2.29133 31.5549C1.80148 31.5746 1.84397 31.7318 2.0608 32.0481C3.11556 33.5868 3.62865 34.1146 4.30356 34.8479C5.64568 36.3061 6.76435 36.8548 7.38268 37.2134C7.95235 37.5437 8.5133 37.8484 9.07027 38.0676C9.90363 38.3654 11.2094 38.5251 12.4002 38.5054C12.844 38.4857 12.9619 38.4464 13.0834 38.2868" stroke="#0012D4" stroke-linecap="round"/>
<path d="M13.6791 34.8318C13.56 34.5554 13.7959 33.5284 14.1741 32.6897C14.5949 31.7568 15.3447 30.7049 15.8808 29.9305C16.7114 28.7306 18.0443 28.122 18.8175 27.5674C20.7138 26.2072 21.7781 25.8178 22.4727 25.4414C22.8081 25.2595 23.2077 25.0637 23.6045 25.0619C24.8353 25.0564 23.8463 27.2046 23.7665 27.7604C23.6342 28.6816 23.0529 29.1894 22.6955 29.7267C22.2665 30.3716 20.9179 31.6437 19.1058 33.1001C18.0659 33.936 17.4153 34.1146 16.601 34.4732C16.0143 34.7315 15.3899 34.9104 14.8526 35.1684C14.556 35.2678 14.2367 35.3083 13.9394 35.328C13.7994 35.3477 13.6815 35.387 13.3217 35.6658" stroke="#0012D4" stroke-linecap="round"/>
</svg>
