<svg width="32" height="47" viewBox="0 0 32 47" fill="none" xmlns="http://www.w3.org/2000/svg">
<path d="M21.8737 10.2648C21.5744 10.4643 21.0213 11.0907 20.3669 11.934C20.03 12.3682 19.4601 13.0297 18.6803 14.0608C18.1104 14.8143 17.645 15.5007 17.1542 16.0543C16.8603 16.3858 16.5863 16.836 16.0468 17.651C14.7194 19.656 14.4455 20.3861 14.2169 20.8803C13.9799 21.3927 13.8395 21.7493 13.4371 22.641C13.213 23.1375 12.8345 24.2611 12.293 25.5956C11.9767 26.3754 11.8491 26.8364 11.6227 27.4538C11.4619 27.8925 11.1206 29.2455 10.8542 30.2751C10.7043 30.8547 10.7156 31.5215 10.6774 32.2141C10.646 32.7846 10.5894 33.3102 10.5516 34.9095C10.5191 36.2841 10.5388 38.8031 10.5512 40.1878C10.5678 42.0288 10.6899 42.5285 10.7651 43.0333C10.8733 43.7599 10.8909 44.268 10.9291 45.0222C10.9665 45.3003 11.0171 45.5028 11.0673 45.6913C11.0927 45.7801 11.1176 45.8549 11.1433 45.7053" stroke="#0012D4" stroke-linecap="round"/>
<path d="M19.0777 13.363C18.9016 13.0116 18.851 12.559 18.7883 11.8063C18.6846 10.5622 18.8253 9.43656 19.038 8.65898C19.5715 6.7089 19.9588 6.48797 20.2479 5.99716C20.44 5.67084 21.3115 4.60637 22.2617 3.73018C22.6436 3.378 23.0555 3.13736 23.5089 2.83548C23.8559 2.60441 24.8381 2.15727 26.2837 1.59128C28.2077 0.837976 28.8242 0.920253 29.2523 0.882092C29.6633 0.845452 30.1587 0.643681 30.6877 0.517107C30.8136 0.486982 30.9144 0.466856 30.8536 0.728315C30.4922 2.28154 30.2615 2.73082 30.1988 3.18497C30.1122 3.81161 29.7854 4.71821 29.394 5.83848C28.6901 7.85299 28.726 8.42397 28.4993 8.81465C28.1481 9.41988 27.9703 9.88391 27.7686 10.2761C27.5717 10.6587 27.2404 10.9932 26.9253 11.3843C26.6222 11.7604 26.2081 12.0013 25.8046 12.3666C25.3178 12.8074 24.6711 13.1106 24.3311 13.2867C23.8384 13.5418 23.3124 13.6894 22.6444 13.8787C22.1104 14.0301 21.251 14.0431 20.6657 13.9679C20.3493 13.9272 20.0616 13.7166 19.7589 13.5149C19.683 13.4642 19.6082 13.4144 19.5322 13.3637C19.4563 13.3131 19.3815 13.2632 19.3044 13.2118" stroke="#0012D4" stroke-linecap="round"/>
<path d="M10.6143 35.0505C10.7632 35.0505 11.6677 34.9008 12.5756 34.6609C13.3522 34.4557 13.7851 34.1951 14.2525 34.0058C14.8188 33.8172 15.3735 33.515 15.7762 33.2006C15.9024 33.0873 16.0521 32.9376 16.3573 32.6323" stroke="#0012D4" stroke-linecap="round"/>
<path d="M13.108 34.3704C13.0324 34.1709 13.2319 32.9679 13.6857 31.8295C13.8718 31.3626 14.4153 31.0485 14.7315 30.6314C15.1307 30.1049 15.5246 29.8379 16.1408 29.4098C16.5478 29.1271 17.0344 28.8057 17.4266 28.6152C17.8471 28.4111 18.245 28.1996 18.585 28.0236C19.3859 27.6089 20.512 27.5195 21.0776 27.4311C21.8389 27.3121 23.048 27.3427 24.0114 27.28C25.2713 27.198 25.924 27.1916 26.569 27.1289C26.7571 27.1106 27.0318 27.116 27.1233 27.1784C27.5912 27.4974 26.4847 28.5971 26.2448 29.2175C26.0618 29.6907 25.7034 30.0359 25.3762 30.4269C25.1169 30.7368 24.8223 31.0439 24.4698 31.4342C23.9943 31.9606 23.3638 32.2772 22.8451 32.7064C22.2083 33.2333 21.2963 33.6132 20.7424 33.8656C20.1555 34.133 19.785 34.3447 18.0519 35.01C17.2964 35.3001 16.6626 35.2515 16.0328 35.3399C15.0827 35.4732 14.772 35.2273 14.3439 35.001C13.9906 34.8245 13.7133 34.6477 13.5625 34.5974C13.4866 34.5721 13.4118 34.5472 13.3347 34.5971" stroke="#0012D4" stroke-linecap="round"/>
<path d="M10.312 34.2192C10.1624 33.8218 9.65916 32.1593 9.40601 31.6137C9.14502 31.0512 8.80224 30.5936 8.48713 30.3287C8.03373 29.9476 7.57051 29.2107 7.1394 28.8423C6.83676 28.5525 6.58513 28.3508 6.39659 28.2378C6.3078 28.1747 6.23299 28.0999 6.23148 28.0984" stroke="#0012D4" stroke-linecap="round"/>
<path d="M9.17855 31.1966C9.17855 30.5973 9.12868 29.2349 8.70173 27.6008C8.50917 26.8638 8.17201 26.2863 7.98272 25.9209C7.78133 25.5322 7.64305 24.9518 7.22819 24.3102C6.67936 23.4615 6.15742 22.5851 5.79206 22.0799C5.53512 21.7247 4.75189 20.9513 3.06336 19.8522C2.54427 19.5143 2.00279 19.2843 1.62307 19.0063C1.23251 18.7202 1.11867 18.3511 1.01816 18.3001C0.536226 18.0555 0.665271 19.4068 0.526607 20.7851C0.456249 21.4844 0.53832 22.5851 0.613508 23.5244C0.749092 25.2181 0.991717 26.1072 1.12963 26.5829C1.60752 28.2313 1.74738 28.7513 1.9737 29.205C2.14006 29.5386 2.40178 29.8349 2.67873 30.0873C3.02234 30.4004 3.68187 30.991 4.44056 31.3719C5.0869 31.6964 5.44861 31.8253 5.85175 31.9768C6.54611 32.2378 7.45867 32.2545 8.04393 32.1669C8.19468 32.0792 8.37151 32.0029 8.54758 31.9152C8.6239 31.8525 8.67377 31.7528 8.72516 31.65" stroke="#0012D4" stroke-linecap="round"/>
<path d="M13.4102 22.6576C13.9611 22.6576 14.9684 22.6077 15.6247 22.5069C16.0362 22.4436 16.6309 22.2556 17.1738 22.1668C17.5619 22.0546 17.8679 21.9526 18.0186 21.9023C18.0946 21.877 18.1694 21.8521 18.2465 21.8264" stroke="#0012D4" stroke-linecap="round"/>
<path d="M15.8284 22.4309C15.9281 22.18 16.2304 21.8279 16.708 21.3122C17.1987 20.7822 17.9155 20.1926 18.3209 19.85C18.6281 19.5903 18.9749 19.2843 20.0302 18.4796C20.9478 17.7798 21.5941 17.6718 23.0393 17.1432C23.6697 16.9126 23.988 16.8148 24.466 16.6758C25.1148 16.487 25.8741 16.4113 26.544 16.3732C27.1137 16.3407 27.6152 16.2602 28.7585 16.409C29.7521 16.5384 28.8016 18.243 27.8974 19.8061C27.5555 20.3972 27.0394 20.6657 25.219 21.9598C24.1608 22.712 23.7145 22.7574 23.1855 22.9591C22.9538 23.0475 22.6815 23.1609 22.0554 23.3113C20.8876 23.5918 19.4873 23.7155 18.4301 23.6906C17.4907 23.6684 16.9634 23.1125 16.6607 22.8851C16.5848 22.8344 16.51 22.7846 16.434 22.7339C16.3581 22.6833 16.2833 22.6334 16.0551 22.6576" stroke="#0012D4" stroke-linecap="round"/>
<path d="M13.2591 22.0531C13.1836 21.88 13.0838 20.6732 12.8945 19.952C12.7386 19.3578 12.5292 18.7554 12.2276 18.1762C12.1015 17.974 12.0002 17.8221 11.9122 17.6714C11.874 17.5954 11.8491 17.5206 11.7478 17.4435" stroke="#0012D4" stroke-linecap="round"/>
<path d="M13.0324 20.0884C13.0067 19.7113 13.1579 19.4098 13.309 19.007C13.4872 18.532 13.4601 18.0511 13.6237 17.4333C13.7847 16.8254 13.7881 16.363 13.8508 15.5344C14.0146 13.3704 13.6128 12.8612 13.3483 12.0062C13.1676 11.4219 12.9085 10.6229 12.6931 9.9523C12.5432 9.48526 12.0539 8.65823 11.4372 7.78959C10.7148 6.77187 9.50803 5.88344 9.24241 5.56833C8.95409 5.22628 8.77579 5.02652 8.7006 4.85045C8.66472 4.76641 8.57554 4.72425 8.537 4.83571C8.22673 5.73307 8.27176 6.68444 8.20904 7.38985C8.18456 7.66526 8.1962 8.08997 8.04658 8.98165C7.89696 9.87333 7.59771 11.2199 7.44356 11.976C7.2093 13.1249 7.21384 14.1368 7.3015 14.9601C7.37249 15.6269 7.64154 16.0562 7.98046 16.7604C8.18313 17.1816 8.62164 17.7919 9.21181 18.5963C10.127 19.8438 10.6627 19.9357 11.2661 20.1382C11.8914 20.1639 12.3765 20.139 12.5651 20.0887C12.6538 20.0634 12.7287 20.0385 12.8057 20.0128" stroke="#0012D4" stroke-linecap="round"/>
</svg>
