<svg width="41" height="56" viewBox="0 0 41 56" fill="none" xmlns="http://www.w3.org/2000/svg">
<path d="M21.0806 6.61789C19.9303 6.61789 19.2429 6.76988 18.4731 7.09631C18.159 7.22953 18.0488 7.53788 17.9723 7.78659C17.885 8.07021 17.8566 8.45787 17.8946 8.86029C17.9611 9.5651 18.8905 9.91788 19.3897 10.1862C19.7211 10.3643 20.4231 10.4176 21.3235 10.3416C22.067 10.2789 22.4611 9.84304 22.6718 9.55633C23.1898 8.85151 23.038 7.81307 22.8284 7.09976C22.4669 6.85048 22.118 6.69504 21.7363 6.63746C21.4686 6.61789 21.0506 6.61789 20.62 6.73303" stroke="#0012D4" stroke-linecap="round"/>
<path d="M20.62 6.38756C20.62 5.66216 21.0759 3.21884 21.8641 1.65117C22.2167 0.94979 23.0737 0.746721 23.6097 0.574007C24.4893 0.290557 24.9931 0.897558 25.5308 1.12842C26.0112 1.33467 25.9165 2.76978 25.764 3.7364C25.5727 4.94826 24.8826 5.65526 24.4214 6.23212C24.1917 6.42441 23.9223 6.65469 23.635 6.94198C23.4997 7.07727 23.3857 7.19126 23.3834 7.30871" stroke="#0012D4" stroke-linecap="round"/>
<path d="M23.1531 7.539C23.3823 7.30987 24.7536 6.24249 27.8803 5.23845C29.5422 4.70478 30.6362 5.23499 30.809 5.4837C30.9759 5.72408 30.8297 6.04099 30.6391 6.3467C30.0353 7.31539 29.3731 7.5367 29.0645 8.2074C28.6064 9.20326 29.4077 9.83955 29.6961 10.4153C29.9823 10.9864 29.9465 11.5667 29.8895 11.9501C29.8472 12.2347 29.4871 12.2978 29.2384 12.3554C28.6952 12.4812 28.2217 12.2599 27.3224 11.9927C25.5343 11.531 24.5417 11.0739 23.6931 10.573C23.5009 10.4199 23.2729 10.1919 22.9228 9.957" stroke="#0012D4" stroke-linecap="round"/>
<path d="M20.8503 10.5327C20.582 11.4907 20.4288 12.1032 20.5043 12.8902C20.5686 13.5614 21.0414 14.3669 21.4818 15.2887C21.6269 15.5922 21.7323 15.8661 21.9804 16.2294C22.3458 16.7644 23.1485 17.1327 23.9914 17.363C25.1065 17.6676 25.7599 17.135 26.2602 16.8667C26.5035 16.7362 26.6834 16.4833 26.8175 16.196C27.0443 15.7103 26.8008 14.9887 26.5124 14.4493C26.1851 13.8372 25.4974 12.9161 24.806 12.1666C24.3437 11.5701 23.8094 11.0347 22.9833 10.5914C22.8088 10.5327 22.6948 10.5327 22.5774 10.5327" stroke="#0012D4" stroke-linecap="round"/>
<path d="M19.1231 10.3025C18.3194 10.5316 17.6286 10.915 17.0529 11.2414C16.2291 11.7085 15.5169 12.4879 14.9993 13.0826C14.4358 13.73 14.0591 14.3302 13.8461 14.9243C13.6339 15.5164 13.8646 16.0584 13.9981 16.2882C14.3805 16.9458 15.4731 16.9416 16.2227 16.9427C16.862 16.9437 17.2785 16.4073 18.0454 15.9272C18.7737 15.4712 19.312 14.9105 19.9648 14.0872C20.658 12.7216 20.7731 12.3382 20.8307 11.9559C20.8503 11.7256 20.8503 11.4216 20.9654 10.9933" stroke="#0012D4" stroke-linecap="round"/>
<path d="M17.5111 7.65418C16.8986 7.23276 16.286 7.00247 15.2509 6.77219C14.4202 6.58739 13.0321 6.6179 12.0631 6.86603C11.6729 6.96597 11.3717 7.3076 11.1034 7.55631C10.6363 7.98939 10.7177 8.68701 10.7747 9.26215C10.8619 10.1419 12.4425 10.0722 12.9037 10.2057C13.4727 10.3706 14.6625 10.5327 15.7408 10.6283C16.1605 10.6479 16.8824 10.6479 17.3114 10.6289C17.7403 10.6099 17.8543 10.5719 18.0868 10.3025" stroke="#0012D4" stroke-linecap="round"/>
<path d="M17.5111 7.42385C16.5911 7.00243 15.9797 6.46817 15.3637 5.62302C14.9474 5.05183 14.7108 4.24361 14.6136 3.41574C14.5749 3.0872 14.5174 2.66731 14.5554 2.20731C14.5717 2.01028 14.6694 1.89931 14.7845 1.80259C15.3428 1.3336 16.3551 1.24529 17.0477 1.11058C18.0709 0.911547 18.4691 0.860718 18.7564 0.917714C19.3431 1.03411 19.3143 1.8947 19.468 2.37485C19.6587 2.97046 19.814 3.58269 20.0051 4.19755C20.0443 4.50383 20.0823 4.81242 20.1588 5.1187C20.1974 5.27299 20.2354 5.42498 20.3897 5.81186" stroke="#0012D4" stroke-linecap="round"/>
<path d="M20.5048 11.5689C20.3517 12.7952 20.2745 14.5488 20.3701 16.2063C20.5338 19.0456 20.5048 20.732 20.4093 21.7182C20.3405 22.4282 20.1986 23.1938 20.1974 26.754C20.197 27.9338 20.4657 28.4535 20.696 29.9077C20.8871 31.115 20.7731 31.9481 20.8307 32.5767C20.9608 33.9975 20.8883 35.0949 20.9458 35.7432C21.0637 37.0703 21.0034 38.1646 21.061 39.8019C21.1105 41.2106 21.0805 43.7951 21.0615 45.1831C21.0368 46.995 20.8894 47.6823 20.7933 48.6587C20.575 50.8752 20.4288 52.0946 20.3707 53.9156C20.3517 54.2857 20.3137 54.3997 20.2941 54.5914C20.2745 54.7832 20.2745 55.0491 20.2745 55.0929" stroke="#0012D4" stroke-linecap="round"/>
<path d="M6.45742 18.3624C6.00145 18.3624 5.65257 18.4384 5.44186 18.6675C5.15862 18.9755 5.19084 19.4735 5.22884 19.8184C5.24631 19.9769 5.34283 20.0872 5.47697 20.184C5.77488 20.3988 6.18683 20.435 6.56968 20.416C6.95627 20.3968 7.26226 20.2438 7.47297 20.0717C7.68362 19.8996 7.72399 19.4021 7.66699 18.846C7.6444 18.6255 7.496 18.5558 7.36129 18.4977C7.22657 18.4395 7.07458 18.4015 6.86329 18.382C6.65201 18.3624 6.38603 18.3624 6.11199 18.3624" stroke="#0012D4" stroke-linecap="round"/>
<path d="M5.76656 18.4776C5.192 17.561 4.96056 15.4954 5.1707 14.2587C5.23076 13.9053 5.34399 13.6427 5.51555 13.413C5.77187 13.0698 6.37797 13.0659 6.85696 13.1039C7.54469 13.1584 8.10396 13.8304 8.41427 14.3687C8.52999 15.4781 8.378 17.0153 8.08956 17.5547C8.03142 17.6704 7.99342 17.7844 7.95427 17.9019" stroke="#0012D4" stroke-linecap="round"/>
<path d="M5.42113 18.017C4.80857 17.3653 4.19601 16.983 3.67672 16.751C3.12303 16.5036 2.54486 16.7113 1.91215 16.941C1.37998 17.1342 1.04686 17.5553 0.817146 17.804C0.567883 18.0739 0.469991 18.3993 0.507988 18.6866C0.578576 19.2203 1.1217 19.3976 1.21784 19.6273C1.39963 20.0616 1.0457 20.7758 1.29384 21.3354C1.5208 21.8473 2.53795 21.7016 3.11655 21.568C3.61569 21.2802 4.15226 20.8219 4.49884 20.3216C4.57598 20.2059 4.65197 20.0919 4.84541 19.9744" stroke="#0012D4" stroke-linecap="round"/>
<path d="M4.96056 20.3198C4.50114 20.4338 4.11772 20.8932 3.71472 21.5259C3.2307 22.2858 3.31172 22.8506 3.27142 23.9042C3.25537 24.3238 3.5777 24.6929 3.82641 25.0763C3.93835 25.2489 4.11311 25.3078 4.2674 25.2899C4.59865 25.2516 4.88227 25.2686 6.06881 25.3481C6.47068 25.375 6.91454 24.7758 7.45168 24.1241C7.72399 22.8218 7.648 21.2421 7.53285 20.9934C7.4937 20.8587 7.4937 20.7067 7.4937 20.5501" stroke="#0012D4" stroke-linecap="round"/>
<path d="M7.72398 18.5927C8.1834 18.2093 8.79481 18.0561 9.46782 17.998C9.83417 17.9663 10.2928 17.9778 10.7338 18.15C10.9198 18.2226 10.9848 18.3601 11.024 18.4948C11.1047 18.7727 11.0251 19.0521 11.0625 19.2438C11.118 19.528 11.7137 19.3987 12.0395 19.4557C12.1847 19.4811 12.2514 19.6267 12.2905 19.7804C12.3759 20.1156 12.2917 20.4338 12.1961 20.6635C12.0941 20.9089 11.7943 21.1627 11.4114 21.431C11.0606 21.6768 10.6049 21.7016 10.2024 21.6826C9.914 21.6256 9.49258 21.4344 8.97501 21.1471C8.76142 21.0119 8.64743 20.8979 8.2997 20.6653" stroke="#0012D4" stroke-linecap="round"/>
<path d="M7.83913 20.6652C8.29855 20.5881 8.83396 20.8932 9.71653 21.2398C10.4702 21.5358 11.4039 22.3509 12.4794 23.1379C13.1357 23.6182 13.518 24.0021 14.2842 24.8645C14.7537 25.3928 14.8997 25.9595 15.3027 26.7073C15.594 27.248 16.2399 27.9146 16.8951 28.5888C17.3521 29.0591 17.624 29.8352 17.9705 30.3545C18.3997 30.9975 18.8145 31.7926 19.1985 32.3119C19.5706 32.815 19.6205 33.4438 19.8514 33.9619C20.2015 34.7477 20.3505 35.286 20.5043 35.8428C20.5808 36.092 20.658 36.3995 20.7535 36.8013C20.8111 37.0132 20.8871 37.2412 20.9654 37.4761" stroke="#0012D4" stroke-linecap="round"/>
<path d="M22.3471 55.2081C22.3471 52.6243 22.3851 50.4193 22.5187 48.6772C22.6503 46.9603 22.9228 45.3899 23.0748 43.4601C23.3037 40.5535 23.92 38.6299 24.1111 37.9805C24.4114 36.9603 24.6108 36.1727 24.764 35.8095C24.9587 35.3476 25.4134 34.0322 26.1417 32.3258C26.5751 31.3102 26.9137 30.8382 27.2378 30.1513C28.4584 27.565 28.9471 26.4248 29.2925 25.7345C29.7123 24.8956 30.2897 23.9722 30.6362 23.2198C30.8885 22.6721 31.9339 21.2525 32.7462 20.188C33.2995 19.4631 33.744 19.1316 34.1475 18.6716C34.2817 18.5179 34.4717 18.3279 34.6265 18.192C34.7814 18.0562 34.8954 17.9802 35.2431 17.6716" stroke="#0012D4" stroke-linecap="round"/>
<path d="M36.0491 16.5201C35.934 16.6721 36.0859 17.5127 36.4314 18.207C36.5043 18.3535 36.6985 18.3993 36.8528 18.4384C37.0071 18.4776 37.1591 18.4776 37.2374 18.3446C37.3157 18.2116 37.3157 17.9456 37.2397 17.7136C36.9476 16.8219 36.3945 16.5213 36.3755 16.4436C36.3185 16.6698 36.2794 17.0556 36.2794 17.2484C36.2794 17.2513 36.2794 17.0613 36.2794 16.8656" stroke="#0012D4" stroke-linecap="round"/>
<path d="M36.2794 16.5202C36.5857 14.8333 37.2719 13.6877 37.9087 13.1056C38.6001 12.4736 39.3076 11.8016 39.8471 11.6076C39.956 11.5684 40.0768 11.645 40.1545 11.7216C40.526 12.0876 40.3854 13.0613 40.3865 14.4424C40.3872 15.2845 39.8511 15.7119 39.7527 16.173C39.7033 16.4045 39.8488 16.8241 39.7538 17.3797C39.7085 17.6448 39.4688 17.8213 39.257 17.9191C38.8171 18.017 38.4683 17.979 38.2385 17.9025C38.1228 17.8639 38.0088 17.8259 37.8914 17.7867" stroke="#0012D4" stroke-linecap="round"/>
<path d="M35.934 16.7503C35.2443 16.5592 34.6328 16.2529 33.482 15.5822C32.6776 15.1134 31.9063 15.1384 31.3496 15.2909C31.0469 15.3738 30.8688 15.6749 30.6581 15.8851C30.3981 16.1444 30.4071 16.6709 30.4451 17.1309C30.4721 17.4582 30.7514 17.7083 31.0951 17.9766C32.233 18.8649 34.3519 18.0192 35.1452 17.6726C35.2799 17.5955 35.4319 17.5195 35.5862 17.4424C35.7405 17.3652 35.8925 17.2892 36.2794 16.9806" stroke="#0012D4" stroke-linecap="round"/>
<path d="M35.5885 17.211C33.9005 18.9347 33.7463 19.971 33.8033 20.5461C33.875 21.2697 34.7422 21.3942 35.0871 21.4517C35.2411 21.4774 35.356 21.4713 35.5097 21.3003C36.0491 20.321 36.1251 19.8616 36.1833 18.6169C36.2022 18.3256 36.2402 18.1736 36.2794 17.9019" stroke="#0012D4" stroke-linecap="round"/>
<path d="M36.2794 18.3625C36.2794 18.9716 36.5074 20.8104 36.9685 21.5467C37.2422 21.9838 37.8891 22.0079 38.3692 22.5629C38.4944 22.7076 38.6559 22.7747 38.8482 22.7379C39.3007 22.6512 39.5794 22.2405 39.6945 21.8962C39.9505 21.1307 39.5425 20.4765 39.3698 19.766C38.968 19.0936 38.5062 18.5939 38.3151 18.3832C38.2 18.2865 38.048 18.2105 37.7762 18.1322" stroke="#0012D4" stroke-linecap="round"/>
<path d="M35.4734 16.1747C34.4383 15.3699 34.0548 14.9105 33.6898 13.9341C33.4414 13.2696 33.7071 12.5316 33.8792 12.0141C34.0948 11.366 34.8562 11.1868 35.5281 11.0129C35.9905 10.8932 36.4694 11.0693 36.7762 11.2414C37.2276 11.4947 37.2005 13.5103 36.9904 14.8863C36.9322 15.0602 36.8942 15.2121 36.8367 15.3474C36.7791 15.4827 36.7031 15.5967 36.5097 15.8293" stroke="#0012D4" stroke-linecap="round"/>
</svg>
