<svg width="23" height="40" viewBox="0 0 23 40" fill="none" xmlns="http://www.w3.org/2000/svg">
<path d="M10.5412 17.0847C10.5412 17.3134 10.6063 18.0981 10.6723 19.1174C10.7296 20.0022 10.8369 20.8603 10.8532 21.4671C10.8669 21.9784 10.9355 23.317 10.9193 25.0742C10.908 26.286 10.7068 27.3962 10.378 28.5492C10.1891 29.2117 9.46272 30.7086 8.96489 32.0167C8.71141 32.6828 8.53803 33.5438 8.4217 36.2148C8.50254 37.2208 8.63464 37.7522 8.78202 38.1613C8.86433 38.4078 8.96193 38.7331 9.16106 39.1668" stroke="#0012D4" stroke-linecap="round"/>
<path d="M8.47099 33.942C8.47001 33.9105 9.67664 32.7029 11.4974 31.0782C12.8953 30.0067 13.6613 29.5719 13.9565 29.4901C14.0891 29.4408 14.1867 29.3758 14.2873 29.3087" stroke="#0012D4" stroke-linecap="round"/>
<path d="M11.3298 31.0832C11.2313 30.8554 11.3614 29.8075 11.739 29.0154C11.9152 28.6458 12.7041 27.9995 13.7214 27.1296C15.0505 25.993 16.1584 25.1367 16.7158 24.6779C17.3656 24.143 17.9663 23.7566 18.2123 23.592C18.3127 23.5248 18.4257 23.6225 18.5085 23.7049C19.1059 24.2987 19.1178 26.8304 18.9871 28.2859C18.8608 29.6942 18.1655 30.4897 17.6908 31.1625C17.0518 32.0683 14.9576 32.069 13.093 31.8072C12.5138 31.6096 12.1205 31.4124 11.6276 31.1827C11.4955 31.1167 11.3653 31.0516 11.2313 30.9846" stroke="#0012D4" stroke-linecap="round"/>
<path d="M10.2455 27.5342C10.2129 27.338 9.75649 26.4892 8.88454 25.4507C8.51897 25.0153 8.63464 24.4802 8.53803 23.5136C8.38666 21.9991 7.02974 21.6883 6.22334 21.0466C5.34015 20.3437 4.66182 20.4048 4.11913 20.2234C3.38959 19.9796 2.65668 19.8133 2.26186 19.7133C2.03353 19.6554 1.89957 20.0736 1.80099 20.4985C1.48118 21.8768 2.15983 22.6347 2.70153 23.3253C3.32745 24.1232 3.96583 24.2791 4.42769 24.6576C4.96944 25.1017 5.93746 25.4305 6.74287 25.3492C7.07345 25.3158 7.28703 25.5301 7.51624 25.4482C7.8105 25.3339 8.07568 25.2018 8.27235 25.0707C8.37143 25.0046 8.46902 24.9396 8.76674 24.7739" stroke="#0012D4" stroke-linecap="round"/>
<path d="M11.3298 12.1556C11.2313 11.8953 11.2963 11.1067 11.6236 9.59987C11.8828 8.40673 12.4783 7.62283 12.7736 7.31082C13.1333 6.9307 13.824 6.93079 14.3819 7.02838C15.2332 7.17728 15.2711 8.14531 15.7147 8.24537C16.4461 8.41033 16.9135 7.52425 17.4399 7.24378C17.6825 7.11455 18.2591 7.12795 18.965 7.19301C19.7621 7.26649 20.1016 7.88308 20.3821 8.24339C20.7569 8.72499 20.5965 9.68514 20.4333 10.3136C20.3345 10.6942 19.9074 10.8405 19.7595 11.0042C19.6853 11.0863 19.7092 11.2329 19.758 11.3487C19.9663 11.8431 21.0184 12.0215 21.5483 12.4661C21.7511 12.6363 21.6809 13.1059 21.6321 13.5653C21.5625 14.2199 20.7641 14.5846 20.1879 14.9474C19.5355 15.3581 18.2404 15.5073 17.3941 15.425C16.8435 15.3715 17.3433 16.8165 16.8696 17.8368C16.3562 18.9427 15.0799 18.727 14.2572 18.7443C13.6919 18.7561 13.1063 18.7921 12.6301 18.9409C11.8566 19.1828 11.3653 18.4668 11.0188 18.0719C10.8389 17.8753 10.7058 17.6446 10.6403 17.3824C10.6072 17.2503 10.5747 17.1201 10.4426 16.7889" stroke="#0012D4" stroke-linecap="round"/>
<path d="M10.1469 16.5917C9.98323 17.1142 9.78607 18.1 9.37646 18.6274C9.21113 18.8403 8.93235 18.8916 8.57253 18.9409C8.02241 19.0163 7.48715 18.8275 7.12635 18.549C6.50799 18.0718 6.14054 17.3843 5.90838 16.8564C5.61496 16.1892 5.9069 15.4107 5.94091 15.115C6.01597 14.4623 4.82546 15.2766 3.6627 15.4738C2.77519 15.6243 2.09772 15.3772 1.80247 15.1312C1.3284 14.7363 1.04586 14.0326 0.766382 13.4559C0.55881 13.0275 0.485919 12.4543 0.502185 11.9619C0.523366 11.3206 1.53285 10.6473 2.22538 10.3816C2.69524 10.2013 3.37435 10.2175 3.99984 10.1514C4.53593 10.0948 4.95165 9.16856 6.08385 8.39568C6.61549 8.03277 7.15494 8.11374 7.45019 8.19507C7.77358 8.28415 7.81346 8.7693 7.94408 8.98322C8.22851 9.44905 8.86335 8.64016 9.48687 8.52482C9.90548 8.44739 10.2445 8.54059 10.4899 8.68748C11.0666 9.29573 11.2303 9.68907 11.3944 10.0336C11.461 10.183 11.4935 10.2806 11.7242 10.3811" stroke="#0012D4" stroke-linecap="round"/>
<path d="M8.17525 8.5081C8.20778 8.50908 8.40396 8.05068 8.55282 7.44243C8.77117 6.55023 7.84796 5.35547 7.25746 4.71519C6.89443 4.32155 6.63344 3.81169 5.9759 3.36709C5.71457 3.19039 5.64566 2.88996 5.48201 2.70955C5.04294 2.22552 3.6484 2.29748 2.93566 2.41184C2.3899 2.4994 2.0642 2.7894 1.90007 3.0186C1.32292 3.82453 1.8976 5.31801 1.94837 5.82817C1.99166 6.26319 1.60383 6.63308 1.48849 7.19105C1.53679 8.14433 1.79902 8.80187 2.32396 9.36033C2.45656 9.49292 2.55415 9.59052 2.75329 9.88823" stroke="#0012D4" stroke-linecap="round"/>
<path d="M7.68234 4.66343C7.64981 4.43472 7.58376 3.8452 7.81247 2.76179C8.01435 1.80548 8.99347 1.34715 10.2381 0.967617C12.9167 0.15076 13.5617 0.688632 14.1857 0.539775C14.7259 0.410933 15.1735 0.620611 15.3702 0.817281C15.7339 1.18102 15.766 2.45126 15.6679 3.36363C15.6193 3.81605 15.5038 4.33219 15.3559 4.76053C15.2415 4.9572 15.1094 5.18788 15.0109 5.5965C14.9774 5.87499 14.9774 6.2979 14.8788 6.73363" stroke="#0012D4" stroke-linecap="round"/>
<path d="M15.9632 2.88897C15.9947 2.82391 16.4541 2.62675 17.3724 2.44585C17.6008 2.40085 17.7672 2.46113 17.9161 2.54295C18.5074 2.86798 18.5263 3.54355 18.5751 3.97041C18.6398 4.53665 19.7053 4.95523 20.1189 5.54869C20.4318 6.04258 20.563 6.43592 20.6783 6.8958C20.6951 7.05994 20.6951 7.28766 20.6951 7.62087" stroke="#0012D4" stroke-linecap="round"/>
</svg>
