<svg width="28" height="36" viewBox="0 0 28 36" fill="none" xmlns="http://www.w3.org/2000/svg">
<path d="M7.01888 5.89587C7.47787 6.09918 8.91027 7.12189 9.94221 8.12611C10.8399 8.99969 12.1971 11.6286 13.1505 13.8442C14.0577 15.9524 14.3596 18.0066 14.5136 18.9554C14.7665 20.5132 15.028 23.4913 15.1558 25.6784C15.1992 26.42 15.182 27.539 15.0041 28.9791C14.8262 30.4192 14.4705 32.1473 14.1855 33.3425C13.9006 34.5377 13.6973 35.1477 13.4878 35.468" stroke="#0012D4" stroke-linecap="round"/>
<path d="M9.48323 7.74414C9.48323 7.28515 9.38158 6.05606 8.74162 4.48966C8.50138 3.90165 7.74279 3.38378 6.6423 2.69223C3.83 0.924943 1.11677 0.557485 0.783318 0.505118C0.150003 0.40566 0.703997 1.73421 1.21458 3.44924C1.78109 5.35213 2.90343 6.80768 4.67698 8.1007C5.40892 8.63431 6.55066 8.51424 7.35003 8.64208C7.73354 8.66827 8.0955 8.61744 8.42818 8.51501C8.60839 8.46342 8.8117 8.41259 9.17519 8.36022" stroke="#0012D4" stroke-linecap="round"/>
<path d="M10.7154 8.36024C10.6646 7.95208 10.5614 6.1146 10.8425 4.20704C10.9586 3.41924 11.5872 3.12504 11.8174 2.91942C11.9212 2.82674 12.0985 2.91711 12.2025 3.01954C12.8548 3.66223 13.0257 4.96868 13.179 5.86663C13.2543 6.308 13.3338 7.02025 13.4354 7.73953C13.4808 8.06032 14.1023 7.74415 14.3588 7.82039C15.3814 8.12442 14.3626 10.7168 13.849 11.8219C13.745 12.0552 13.6942 12.2077 13.6172 12.3625C13.5402 12.5173 13.4385 12.6698 13.1797 13.1349" stroke="#0012D4" stroke-linecap="round"/>
<path d="M10.2533 8.82233C9.03195 8.82233 6.35659 9.02564 5.2769 9.20661C5.05848 9.24322 4.96731 9.43533 4.91495 9.61554C4.86258 9.79574 4.86258 9.99905 4.98965 10.2309C5.60059 11.3454 6.60611 11.4407 6.81249 11.4661C7.02514 11.4923 6.14866 11.798 5.83985 12.2077C5.58631 12.5441 6.29806 12.9794 6.75859 13.2612C8.05825 14.0567 10.1948 13.3937 11.2506 13.1103C11.5333 13.0333 11.889 12.9316 12.1486 12.8538C12.4081 12.7761 12.5606 12.7252 12.7177 12.6729" stroke="#0012D4" stroke-linecap="round"/>
<path d="M15.182 29.3072C15.182 29.2055 15.182 28.9498 15.2583 28.5401C15.481 27.3433 17.6895 26.1836 18.9517 25.3303C19.1728 25.1809 19.3375 25.0993 19.289 24.9961C18.9476 24.2699 17.8558 24.2275 17.3907 23.4836C17.0246 22.8982 17.3892 22.2237 17.5424 21.9419C17.9568 21.1798 19.4885 21.144 20.6952 21.0162C22.8707 20.7857 23.4961 21.5014 24.0876 21.938C24.8029 22.4661 24.987 23.6053 25.3459 24.2221C25.7542 24.924 26.4225 25.6076 27.0394 25.9179C27.1851 25.9913 27.3467 26.0204 27.2981 26.1736C26.9915 27.1423 25.9666 27.0985 25.1203 27.2787C23.9857 27.5203 22.0268 27.4589 20.3456 27.0246C20.1123 26.8952 19.9598 26.7935 19.8304 26.6395C19.701 26.4855 19.5994 26.2822 19.3406 25.9187" stroke="#0012D4" stroke-linecap="round"/>
<path d="M15.182 28.229C14.9264 27.8732 14.6183 26.5409 14.0808 25.4351C13.4893 24.2182 12.3111 23.8671 11.4894 23.6346C11.1821 23.6084 10.7246 23.6084 10.3365 23.7609C9.94838 23.9133 9.64341 24.2183 9.32921 24.6865" stroke="#0012D4" stroke-linecap="round"/>
<path d="M10.8725 21.6854C11.6426 22.5364 12.0508 23.5591 12.1016 24.0705C11.7412 24.3816 11.6904 24.5341 11.6126 24.6889C11.5348 24.8436 11.4331 24.9961 11.3299 25.1771C10.9187 25.9218 10.3991 26.8153 9.24681 27.3334C7.93993 27.921 7.38746 28.2347 6.57992 28.3584C5.41398 28.5371 3.52427 28.5558 2.80562 28.1759C1.93309 27.7146 0.295555 27.3938 0.757133 27.2787C1.06595 27.2017 1.47018 27.0332 1.88919 26.8151C3.22687 26.1189 4.34483 25.1927 5.01891 24.3754C5.7405 23.5006 6.37951 22.1817 8.02541 21.6808C9.283 21.2981 10.3207 21.0757 10.8725 21.6854Z" stroke="#0012D4" stroke-linecap="round"/>
</svg>
