<svg width="18" height="41" viewBox="0 0 18 41" fill="none" xmlns="http://www.w3.org/2000/svg">
<path d="M7.97816 12.218C7.91697 13.0802 7.54798 14.3133 7.05289 16.0128C6.22162 18.8662 5.3822 23.2138 5.2283 24.6666C5.14063 25.4942 5.13559 26.1843 4.98169 27.0141C4.70482 28.5068 4.6405 31.3595 4.6711 34.3866C4.70169 35.5167 4.76288 35.8227 4.79441 36.6228C4.82593 37.4229 4.82593 38.7079 5.19678 39.8464" stroke="#0012D4" stroke-linecap="round"/>
<path d="M7.97816 12.7743C7.79274 11.8565 7.67036 9.25867 7.02415 7.83646C5.58403 4.66695 3.53166 3.62915 2.45063 2.21157C1.83808 1.40833 1.6125 0.723534 1.4586 0.598371C0.227221 -0.40305 0.375713 6.50325 0.835568 9.42649C1.5097 13.7118 3.33881 14.254 4.11204 14.8122C4.57375 15.0588 5.31545 15.1849 6.17953 15.1543C6.55409 15.1237 6.79886 15.0625 7.23646 14.6286" stroke="#0012D4" stroke-linecap="round"/>
<path d="M7.97816 12.5889C8.10054 12.0363 8.59377 10.8014 10.5964 8.58C11.837 7.20385 12.9809 7.39699 14.5839 6.53661C16.9204 5.28259 17.1252 4.2466 17.2485 4.06025C17.6278 3.48701 17.2494 6.33635 16.542 8.71722C15.8448 11.0639 13.4853 13.2008 12.2782 14.3161C11.3177 14.6898 10.5778 14.9364 9.21958 14.9688C8.90714 14.9382 8.72357 14.8771 8.34901 14.814" stroke="#0012D4" stroke-linecap="round"/>
</svg>
