<svg width="18" height="37" viewBox="0 0 18 37" fill="none" xmlns="http://www.w3.org/2000/svg">
<path d="M9.13359 12.3389C9.13359 12.5836 9.0724 15.0961 8.9491 18.8343C8.87358 21.1235 8.57732 23.2048 7.9617 27.3129C7.74165 28.7814 7.34238 29.8875 7.24874 30.7238C7.12269 31.8495 6.29287 33.0398 5.95169 33.9994C5.7366 34.4008 5.48813 34.8347 5.27211 35.2973C5.17847 35.5152 5.11728 35.6988 4.8688 36.0733" stroke="#0012D4" stroke-linecap="round"/>
<path d="M9.13359 12.5242C8.88883 12.1553 8.02475 11.6602 7.25152 10.9518C5.99292 9.79888 5.98136 5.81555 6.13526 3.68965C6.23422 2.3226 6.66001 1.58785 6.93815 0.845216C7.01115 0.650297 7.15324 0.475292 7.33867 0.503106C8.35425 0.655442 8.69599 2.19604 9.47107 3.61826C10.2627 5.07093 10.554 6.64626 10.5558 9.97743C10.3722 10.8517 10.185 11.2244 10.0616 11.5943C9.99953 11.7807 9.93834 11.9643 9.68987 12.5242" stroke="#0012D4" stroke-linecap="round"/>
<path d="M7.50766 29.9252C7.56392 29.7565 8.15545 28.6851 9.06406 27.0669C9.55288 26.1963 9.86357 25.5254 10.3311 24.7459C11.1061 23.4538 11.3705 23.0229 11.9518 21.9033C12.3651 21.1074 12.7906 20.0686 13.0612 19.5572C13.4759 18.7735 13.6156 18.1082 13.758 17.7378C13.9094 17.3439 13.5594 16.7171 13.7989 15.6687C14.1393 14.1786 14.7237 13.0793 14.8933 12.5696C15.3191 11.2901 15.8889 10.8333 15.9878 10.7055C16.0386 10.6398 16.171 10.662 16.2993 10.7745C17.0115 11.3992 16.8836 12.9548 16.7003 13.8549C16.3916 15.3713 15.8335 15.7165 15.493 16.285C15.2139 16.7509 14.953 17.1953 14.6837 17.4224C14.5549 17.509 14.4424 17.5371 14.3282 17.5656C14.214 17.5942 14.1015 17.6223 13.9003 17.7365" stroke="#0012D4" stroke-linecap="round"/>
<path d="M9.89426 25.6634C9.92238 25.3804 10.1201 24.9551 10.8676 24.1927C11.4484 23.6003 12.5434 22.6989 13.2628 22.1082C14.2946 21.261 15.3425 20.7513 16.4216 20.2684C16.9277 20.042 17.1384 19.9816 17.2663 19.9667C17.703 19.9158 17.1683 21.0846 16.9697 21.8679C16.8381 22.387 16.3739 22.7347 16.0044 23.1191C15.4788 23.666 14.7271 24.0985 14.1015 24.5255C13.6693 24.8205 13.1929 25.0651 12.7795 25.2509C12.3671 25.4362 12.0269 25.5492 11.4732 25.5923C11.0322 25.6634 10.6622 25.6916 10.4781 25.7342C10.3784 25.7487 10.2659 25.7487 10.15 25.7487" stroke="#0012D4" stroke-linecap="round"/>
<path d="M5.63248 33.8461C5.68873 33.7063 5.85921 32.7994 5.87412 30.2474C5.87953 29.3215 5.57622 28.7064 5.42024 28.2086C5.15079 27.3487 4.97957 26.9727 4.78097 26.3624C4.4778 25.4308 4.32667 24.7293 4.00022 23.3817C3.77863 22.467 3.47431 22.058 3.31748 21.5739C3.21861 21.3471 3.10439 21.1468 3.00509 20.9768C2.96205 20.8911 2.93392 20.8067 2.90494 20.8903" stroke="#0012D4" stroke-linecap="round"/>
<path d="M5.12105 27.4534C5.12105 26.44 5.0648 24.0491 5.02175 23.3928C4.95623 22.3938 4.72385 21.4886 4.61006 20.935C4.51835 20.4888 4.38291 20.0396 4.26912 19.5568C4.1616 19.1005 3.98571 18.3656 3.67332 17.7528C3.25042 16.9231 2.31168 15.667 1.74188 14.9967C1.37919 14.5699 0.86012 14.2709 0.704139 14.2278C0.633955 14.2085 0.576285 14.3254 0.547305 14.4252C0.424334 14.8483 0.60356 16.1069 0.532815 17.1783C0.409992 19.0384 0.659816 19.6646 0.70286 20.2348C0.748153 20.8348 0.830287 21.2295 1.04252 21.9233C1.50294 23.4285 1.96563 23.8139 2.3918 24.2132C2.80388 24.5993 3.15893 24.9799 3.51436 25.4061C3.87064 25.8331 4.04026 26.1169 4.23886 26.3437C4.32495 26.4579 4.38121 26.5704 4.5244 26.8568" stroke="#0012D4" stroke-linecap="round"/>
</svg>
