<svg width="25" height="39" viewBox="0 0 25 39" fill="none" xmlns="http://www.w3.org/2000/svg">
<path d="M11.965 9.89742C11.515 9.89742 10.7768 10.2068 9.86906 10.7881C9.15794 11.2435 8.1652 12.2201 7.01494 13.3418C6.49113 13.8526 6.19966 14.3825 5.81653 15.0917C5.20315 16.227 5.23139 18.0153 5.48582 18.8595C5.6202 19.3054 6.33775 19.3296 7.28685 19.5001C8.36751 19.6942 8.95107 19.2171 9.70328 18.7641C10.5385 18.261 10.9405 17.1459 11.197 16.6191C11.4068 16.1885 11.4527 15.6389 11.5947 15.3401C11.7081 15.1013 11.8781 16.3702 12.4734 17.2106C13.1188 18.1217 13.8947 17.9368 16.0329 17.9526C16.9667 17.9595 17.588 17.6266 18.0559 17.3717C18.4897 17.1355 18.6696 16.7461 18.7549 16.2799C19.0135 14.8654 18.5861 14.4456 18.217 13.9197C17.8211 13.3555 17.1115 12.4869 16.7109 12.0155C16.3526 11.5939 15.9728 11.2919 15.6033 10.9075C14.9171 10.1936 13.7004 9.72865 13.1323 9.5569C12.7645 9.50022 12.4491 9.44311 12.2224 9.41456C12.1082 9.41413 11.9957 9.44226 11.8798 9.55647" stroke="#0012D4" stroke-linecap="round"/>
<path d="M12.0502 9.3008C10.7734 8.96156 10.2057 8.33764 9.76507 7.93874C8.90816 7.16305 8.5283 6.34824 8.30072 5.51122C8.11929 4.84394 8.07314 4.10654 8.10041 3.25205C8.13244 2.24861 9.15052 1.68755 9.50595 1.37516C9.91205 1.01824 10.4001 0.835195 11.35 0.564998C11.8564 0.420978 12.2199 0.549655 12.3758 0.634465C12.7387 0.831758 12.8455 1.20256 12.9303 1.35854C13.3313 2.09608 15.342 1.82563 15.7712 2.36645C16.0343 2.69802 15.9711 3.78094 15.8155 4.51184C15.6587 5.24859 14.7795 6.25789 14.4522 6.65722C14.182 6.99859 13.8419 7.39493 12.5241 8.75572C12.2497 9.04424 12.1934 9.12863 12.0502 9.38604" stroke="#0012D4" stroke-linecap="round"/>
<path d="M12.7321 8.95984C13.1549 8.3095 14.0089 7.45629 15.5104 5.93994C16.1879 5.25569 16.566 4.89922 16.9355 4.47261C17.5028 3.81769 18.015 3.36497 18.3986 3.02318C18.7042 2.75083 19.066 2.48279 19.4909 2.35493C19.9535 2.21573 20.3735 2.36772 20.6288 2.50921C21.0918 2.76586 20.9718 3.2482 20.9714 3.40418C20.97 3.91917 22.1353 3.64625 22.3339 3.77368C22.5114 3.88755 22.5905 4.15681 22.6898 4.42616C22.7768 4.66213 22.7899 5.0927 22.5508 5.82871C22.1804 6.96923 20.7502 7.6779 19.799 8.23151C19.3147 8.51339 18.6756 8.84392 17.7112 9.22706C16.3529 9.76663 15.3199 9.50024 14.8366 9.45719C14.5255 9.415 14.211 9.32977 13.9557 9.2164C13.841 9.1593 13.7566 9.10304 13.4992 9.04508" stroke="#0012D4" stroke-linecap="round"/>
<path d="M14.0959 9.38603C14.095 9.41415 14.4914 9.52752 16.6005 9.47211C18.6477 9.41834 19.0379 8.73312 19.4073 8.54858C19.9345 8.28531 20.5431 8.16545 21.2386 8.03674C21.8414 7.9252 22.5854 8.27626 23.1155 8.68837C23.5134 8.99761 23.1888 9.72526 23.1731 10.7741C23.1645 11.3443 23.811 11.6567 23.9687 12.2389C24.076 12.6348 23.927 12.9651 23.7995 13.1211C23.4882 13.5021 22.6518 13.5626 22.1097 13.6614C21.8664 13.7058 21.6827 13.8745 21.5127 14.0442C21.0344 14.5213 21.1432 15.1803 20.7745 15.5358C20.6326 15.6355 20.4357 15.748 20.1655 15.806C19.8953 15.8639 19.5578 15.8639 19.21 15.7787" stroke="#0012D4" stroke-linecap="round"/>
<path d="M8.21463 4.95379C8.07399 4.72792 7.56343 4.32987 6.82529 4.04561C6.309 3.84678 5.82974 3.87471 5.19132 3.85979C4.52637 3.84426 3.81306 4.44068 3.34384 4.73943C3.03983 4.93299 2.87377 5.20865 2.78853 5.40682C2.5863 5.87702 3.06981 6.37212 3.24241 7.09577C3.34446 7.5236 3.12947 7.85096 2.98798 8.021C2.61343 8.47114 1.96686 8.90021 1.42646 9.49686C0.551969 10.4624 0.516147 11.2305 0.500378 11.7705C0.479683 12.4792 1.28156 12.9353 1.35274 13.6593C1.40214 14.1619 2.07596 14.4968 2.34658 14.9392C2.8141 15.3798 3.74914 15.6083 4.57209 15.5661C4.91686 15.5239 5.11376 15.4395 5.40186 15.2673" stroke="#0012D4" stroke-linecap="round"/>
<path d="M11.3683 16.2049C11.4246 16.3174 11.5942 17.388 11.8073 19.1613C12.031 21.0228 11.965 21.7691 12.0357 23.2697C12.0769 24.1437 12.0502 25.6916 11.9799 26.8824C11.8626 28.8684 11.5678 29.8409 11.4122 30.4201C10.9082 32.2969 10.6319 33.1054 10.2049 34.384C10.0098 34.9681 9.80683 35.3522 9.55112 36.0192C9.1812 36.8311 8.95447 37.565 8.92464 38.3785C8.95276 38.4523 9.00902 38.3679 9.06698 38.2809" stroke="#0012D4" stroke-linecap="round"/>
<path d="M10.6012 32.8258C10.6294 32.6562 10.7427 32.4005 11.2921 31.5694C11.7855 30.823 12.7134 29.4164 13.29 28.5934C14.0245 27.5452 14.3226 27.2864 14.661 26.9757C16.0323 25.7167 16.9342 25.5825 17.6306 25.3259C18.1839 25.1221 18.7532 24.9569 19.4065 24.8C19.8846 24.6853 20.3164 24.5017 21.0255 24.1757C21.4973 23.9588 21.7662 23.8198 21.8941 23.7908C22.3373 23.6904 21.5694 25.7121 21.4973 26.8282C21.477 27.1428 21.3136 27.5668 20.8478 28.3867C19.4568 30.8353 18.7566 31.0342 18.3594 31.3896C17.7676 31.9192 17.0246 32.4269 16.2724 32.6545C15.6302 32.8488 15.1204 32.9673 14.4961 33.0104C13.7296 33.0632 12.5923 33.0253 11.7127 32.9682C11.5115 32.94 11.399 32.8838 11.2989 32.8407C11.1987 32.7977 11.1143 32.7696 11.1126 32.6553" stroke="#0012D4" stroke-linecap="round"/>
<path d="M10.9422 32.5701C11.3087 32.2599 12.4423 31.4655 14.0592 30.5006C14.7113 30.1597 15.6676 29.7096 16.2025 29.4356C16.7373 29.1616 16.8217 29.0772 16.9939 28.9902" stroke="#0012D4" stroke-linecap="round"/>
<path d="M10.175 32.6554C10.3447 32.4858 10.5722 32.0894 10.8275 31.5921C11.3155 30.6414 10.8859 29.2767 10.2488 27.8451C10.0629 27.4276 9.2724 26.9207 8.16562 26.1826C6.96454 25.3816 5.43935 24.6756 4.42505 24.2043C3.32265 23.692 2.87546 23.6494 2.47699 23.4086C2.17767 23.2277 2.0214 22.9394 1.89398 22.8256C1.83654 22.7743 1.73842 22.8243 1.68089 22.9091C1.40817 23.3111 1.33952 23.8727 1.16905 24.7106C0.871529 26.1729 1.59352 27.5668 1.97665 28.6877C2.10668 29.0681 2.61379 29.5264 3.40691 30.207C4.2182 30.9032 5.25524 31.2047 6.33092 31.5307C6.95655 31.688 7.74413 31.8286 8.36081 31.9011C8.97749 31.9735 9.3994 31.9735 9.8341 31.9735" stroke="#0012D4" stroke-linecap="round"/>
<path d="M10.0046 32.0587C9.60738 30.9805 9.15563 30.2449 7.6802 29.2634C7.39125 29.0763 7.335 28.9919 7.26383 28.9203C7.19266 28.8487 7.10827 28.7925 7.10657 28.7345" stroke="#0012D4" stroke-linecap="round"/>
</svg>
