<svg width="32" height="39" viewBox="0 0 32 39" fill="none" xmlns="http://www.w3.org/2000/svg">
<path d="M11.9752 1.82568C11.4127 1.82568 10.9822 1.88194 10.7129 2.02343C10.0099 2.39271 9.78809 3.47073 9.77317 4.37934C9.76185 5.06917 9.92958 6.08235 10.0425 6.69648C10.1489 7.27482 10.7794 7.47851 11.1207 7.69118C11.2774 7.78877 10.8689 8.01891 10.4141 8.5853C9.97867 9.12771 10.3268 10.2896 10.5394 10.83C10.6951 11.2254 10.8944 12.048 11.1915 13.2102C11.6642 15.0596 12.3145 15.4037 13.1788 16.4679C13.9308 17.3939 15.0113 17.4494 15.6242 18.0183C15.8969 18.2715 16.0657 18.5029 16.2498 18.6163C16.4547 18.7424 16.7749 18.7876 17.2138 18.7454C18.6788 18.6046 20.0692 17.313 20.3987 16.9137C20.654 16.6042 20.7255 16.147 20.7264 14.0097C20.7271 12.1177 20.0726 11.0618 20.1574 10.3522C20.2459 9.61229 20.2994 9.15766 20.3143 8.307C20.3178 8.10539 20.2721 7.99334 20.1732 7.89319C19.6778 7.39133 18.7975 7.53647 18.2984 7.70609C17.8675 7.85257 17.5462 8.72466 17.1209 9.4074C16.9798 9.63396 16.7518 9.41507 16.6227 9.24374C16.1513 8.61836 16.237 7.57057 16.11 6.53197C15.9635 5.33372 15.5279 4.81234 15.244 4.24339C14.9513 3.6566 14.6192 3.10592 14.3073 2.82209C13.9017 2.45309 13.4259 2.45131 13.0138 2.26678C12.8293 2.19561 12.6298 2.05412 12.4453 1.92584C12.3733 1.91007 12.3452 1.99445 12.3162 2.08139" stroke="#0012D4" stroke-linecap="round"/>
<path d="M15.129 3.44511C15.1852 3.16298 15.4682 2.42569 16.4314 1.50259C17.0103 0.94773 17.7679 0.690291 18.3637 0.533884C19.0332 0.358122 19.4453 0.915313 19.8157 1.15696C20.1948 1.40435 20.5244 1.93644 20.7682 2.33577C20.9909 2.7006 21.0375 3.1877 21.5054 3.72681C22.0196 4.31912 21.9478 5.36973 21.7641 6.07122C21.5654 6.8301 21.2387 7.36254 21.0251 7.79085C20.954 7.96089 20.8969 8.13222 20.8402 8.31633C20.8116 8.41605 20.7835 8.52856 20.7545 8.64448" stroke="#0012D4" stroke-linecap="round"/>
<path d="M17.3451 18.7023C17.5718 20.0047 17.686 21.1997 17.969 23.0413C18.1991 24.5386 18.1122 25.8519 18.183 27.1496C18.2068 27.5877 18.1975 28.2913 18.1131 29.1458C17.9306 30.9931 17.6017 32.2522 17.3754 33.128C16.7774 35.862 16.5788 36.3717 16.3947 36.9104C16.295 37.1678 16.1825 37.3928 16.0666 37.6247" stroke="#0012D4" stroke-linecap="round"/>
<path d="M20.5679 10.5363C20.5864 10.4025 21.6212 9.36601 22.6026 8.64527C23.3876 8.06885 24.715 8.16091 25.317 8.23768C25.7733 8.29588 26.3187 8.68003 26.795 9.0769C27.0581 9.29619 27.0371 9.68466 26.9995 10.6864C26.9536 11.9062 26.0534 12.5815 25.841 12.9106C25.7366 13.0725 25.6472 13.2009 25.6374 13.24C25.5668 13.5204 26.0128 12.7588 26.562 12.3628C27.1768 11.9196 28.4995 11.9268 29.3332 12.0517C29.8179 12.1243 30.0869 12.6383 30.3103 13.0841C30.4087 13.2806 30.4942 13.49 30.5232 13.7594C30.5602 14.1034 30.4183 14.5126 30.1967 14.879C29.8605 15.435 28.8204 15.921 28.2842 16.2617C28.2136 16.3066 28.1588 16.3486 28.1388 16.4256C28.0132 16.9098 28.62 17.4865 28.7848 17.9986C28.9199 18.4184 28.8911 18.7808 28.8917 19.3118C28.8922 19.7378 28.5447 20.0172 27.6976 20.9421C27.2959 21.3808 26.8842 21.505 26.3645 21.5925C25.7971 21.688 25.3008 21.6406 24.9163 21.6985C23.6921 21.883 23.0221 21.8341 22.3184 21.9302C21.8859 21.9894 21.2295 21.8155 19.7426 21.3723C19.2087 21.2132 18.8506 20.9082 18.5123 20.58C18.4057 20.4447 18.2707 20.1944 18.1067 19.8761C18.0383 19.7489 18.0001 19.6916 17.9607 19.6904" stroke="#0012D4" stroke-linecap="round"/>
<path d="M10.3709 9.26172C10.1977 9.14642 9.89006 8.91525 9.47465 8.55836C9.20472 8.32646 8.82808 8.08502 8.32779 7.7962C7.69511 7.43095 7.01349 7.21538 6.50248 7.08995C5.74024 6.90284 4.94687 7.19452 4.43413 7.43583C3.93679 7.66989 3.15082 8.06242 2.82087 8.42018C2.62023 8.63773 2.49208 9.02765 2.40517 9.53779C2.18913 10.806 2.81826 11.7125 2.94543 11.9743C3.08709 12.266 2.37678 12.1389 1.9718 12.3411C1.29048 12.6812 0.792782 13.432 0.561034 14.3176C0.359798 15.0866 0.694289 15.5363 0.830152 15.8749C0.991347 16.2767 2.25048 16.5977 3.25163 16.7837C4.07806 16.9372 5.01755 16.6777 6.06795 16.6296C6.57678 16.6063 7.41847 16.6197 7.99523 16.6006C9.36723 16.5551 9.98276 16.4656 10.331 16.4364C10.7196 16.4037 10.9492 16.3497 11.2293 16.2628C11.2974 16.2339 11.3547 16.1956 11.4512 16.1377C11.5476 16.0798 11.6815 16.0033 11.9352 15.8086" stroke="#0012D4" stroke-linecap="round"/>
<path d="M6.19948 16.7356C6.08476 16.6974 5.81535 16.8115 5.26727 17.2437C4.40422 17.9243 3.82579 18.7223 3.50772 19.2136C2.99685 20.0027 2.93646 20.4807 2.84897 20.8958C2.73916 21.4169 3.08941 22.0832 3.37852 22.4604C3.69837 22.8776 5.05 22.8572 5.79276 22.8288C5.87096 22.8259 5.94687 22.819 5.97671 22.8763C6.17481 23.2572 5.71744 23.9546 5.6876 24.5745C5.6782 24.7699 5.79334 24.9233 5.91848 25.0678C6.22843 25.4258 7.3895 25.5988 8.11922 25.677C8.58184 25.7266 8.9202 25.8885 9.69192 25.9189C10.0498 25.933 10.5986 25.4679 11.2643 24.947C12.0142 24.3603 12.3593 23.651 12.4755 23.3416C12.6187 22.9602 12.8808 22.6463 13.0355 22.3662C13.1859 22.0938 13.2863 21.7008 13.7006 21.0832C13.8573 20.8495 14.0204 20.753 14.1551 20.6759C14.5692 20.439 15.1589 20.5212 15.824 20.4824C16.317 20.4536 16.5691 20.1933 16.8973 19.9233C17.0326 19.7692 17.1108 19.633 17.1589 19.5174C17.1878 19.4592 17.2261 19.4019 17.3234 19.3428" stroke="#0012D4" stroke-linecap="round"/>
</svg>
