<svg width="26" height="39" viewBox="0 0 26 39" fill="none" xmlns="http://www.w3.org/2000/svg">
<path d="M12.5983 14.0842C12.5763 14.0842 12.5543 14.0842 12.455 14.7552C12.3557 15.4262 12.1797 16.7682 12.089 17.5696C11.9233 19.0344 11.865 19.6822 11.821 20.3783C11.7895 20.8772 11.689 21.6683 11.6217 23.1983C11.5543 24.7283 11.5103 26.9723 11.5207 28.4363C11.531 29.9003 11.597 30.5163 11.631 31.0426C11.6919 31.9856 11.753 33.0336 11.8863 34.044C11.9317 34.5923 11.9537 34.905 11.987 35.6223C11.9983 36.1856 11.9983 37.1536 11.9983 38.0843" stroke="#0012D4" stroke-linecap="round"/>
<path d="M12.7317 14.2843C12.7977 14.0183 13.1077 13.7963 13.508 13.4966C13.678 13.3694 14.1277 13.0203 14.8817 12.5433C15.5243 12.1367 15.953 11.9516 16.4604 11.6426C16.8743 11.3905 17.6277 10.9816 18.321 10.6563C20.3332 9.71209 20.9291 9.72959 21.4631 9.67326C22.1931 9.59624 22.9971 9.70559 23.6954 9.93892C24.0355 10.0526 24.3084 10.1283 24.5191 10.2389C24.735 10.3524 24.8204 10.5503 24.8647 10.7053C25.0303 11.2841 24.8437 12.1923 24.4561 12.7819C24.1552 13.2396 23.6004 13.4389 23.2124 13.5833C22.8616 13.7138 22.5111 13.6403 22.2337 13.5076C21.6271 13.2174 21.7544 12.3523 21.7427 11.5873C21.7401 11.4179 21.7757 11.3523 21.8421 11.2743C22.2197 10.9736 22.4644 10.8403 22.6304 10.7736C22.7304 10.7509 22.8624 10.7509 22.9984 10.7509" stroke="#0012D4" stroke-linecap="round"/>
<path d="M12.3984 13.9509C12.2224 13.5109 11.9557 12.8002 11.678 11.8689C11.4345 11.0521 11.4217 10.1996 11.255 9.51122C11.1645 9.13748 11.1323 8.51155 11.0323 7.62388C10.9624 7.00321 11.0643 6.26687 11.1973 5.44554C11.3419 4.55268 11.7077 3.60153 12.0417 2.75319C12.1917 2.37213 12.5077 1.99752 12.8744 1.63019C13.4798 1.02364 13.9077 0.885519 14.4184 0.629518C14.7283 0.474129 15.0417 0.484184 15.2744 0.528184C15.7834 0.624453 16.085 1.03752 16.4637 1.40485C16.7126 1.64631 16.7317 2.01619 16.7207 2.26019C16.7018 2.6785 16.377 3.10419 16.1107 3.50486C15.7709 4.01599 15.113 4.2602 14.4674 4.32887C14.1519 4.36242 13.9324 4.17353 13.8104 4.05186C13.665 3.57486 13.709 2.95353 13.7757 2.52986C13.8197 2.46219 13.9077 2.44019 14.065 2.41752" stroke="#0012D4" stroke-linecap="round"/>
<path d="M12.1317 14.2176C11.555 14.7276 11.1997 15.0389 10.9217 15.2832C10.604 15.5624 10.2223 15.6176 9.65734 15.6729C8.85675 15.7513 7.91366 15.6402 7.20333 15.5516C6.47218 15.4603 5.91299 15.1962 4.74698 14.6199C4.40467 14.4507 4.17765 14.2629 3.73531 13.9096C2.95539 13.2866 2.40031 12.3989 2.06731 11.8216C1.66857 11.1302 1.31031 10.2869 1.18764 9.63121C1.0209 8.74 1.28497 7.4002 1.82964 6.60886C2.16074 6.12781 2.70631 5.73086 3.08598 5.55119C3.53466 5.33887 4.10765 5.41753 4.39732 5.49486C4.54596 5.53454 4.66432 5.63953 4.80832 5.74986C5.27034 6.10386 5.17565 6.6162 5.25365 7.1372C5.31749 7.5636 5.24299 7.90554 5.17665 8.08287C5.10348 8.27849 4.91032 8.41687 4.74398 8.52787C4.61162 8.6162 4.39965 8.61754 4.16665 8.60654C3.83349 8.59081 3.59965 8.1082 3.48731 7.7522C3.46043 7.66701 3.50898 7.57487 3.60831 7.48553C3.70765 7.3962 3.88365 7.3082 4.05132 7.26287C4.21898 7.21753 4.37298 7.21753 4.53165 7.21753" stroke="#0012D4" stroke-linecap="round"/>
<path d="M11.665 15.0176C11.621 15.1496 11.4003 16.1196 11.0343 17.6733C10.6623 19.2526 10.1783 19.7923 9.61267 20.5913C8.96718 21.503 8.28833 22.0389 7.80266 22.4473C6.78003 23.3071 5.99965 23.9723 5.74465 24.1276C5.34356 24.3719 4.82365 24.3949 4.23365 24.4066C3.783 24.4155 3.26764 23.9749 2.87731 23.6189C2.51726 23.2906 2.37697 22.6869 2.27631 22.1643C2.10933 21.2973 2.73031 20.5749 3.03031 20.2853C3.22269 20.0995 3.59631 20.0843 3.94031 20.1613C4.56368 20.3008 4.39831 21.2809 4.35431 21.8139C4.31031 22.0169 4.22231 22.0829 4.09998 22.1169C3.97765 22.1509 3.82365 22.1509 3.66498 22.1509" stroke="#0012D4" stroke-linecap="round"/>
<path d="M12.7983 14.0842C12.7763 14.4389 12.7317 15.1896 13.174 16.9442C13.4589 18.0743 13.753 18.5269 13.92 19.0156C14.0079 19.2727 14.0423 19.5056 14.307 19.7489C14.8384 20.2375 15.9917 20.4829 17.0577 20.6829C17.9193 20.8446 18.6837 20.8176 19.7497 20.6739C20.6477 20.5529 21.2837 20.0643 22.018 19.5086C22.7576 18.9489 23.2197 17.9309 23.3867 17.5746C23.6804 16.9479 23.421 16.2189 23.2657 15.8966C23.1922 15.744 23.0437 15.6182 22.8774 15.5072C22.745 15.4189 22.489 15.4176 22.1674 15.4286C21.6042 15.4478 21.1557 16.1709 20.9654 16.5162C20.9168 16.6044 20.9757 16.7482 21.042 16.8602C21.1779 17.0897 21.3977 17.1729 21.5747 17.2062C21.8354 17.2553 22.0864 17.1516 22.2637 17.0076C22.3558 16.9328 22.441 16.8416 22.4864 16.7412C22.5317 16.6409 22.5317 16.5309 22.4987 16.4632C22.4657 16.3956 22.3997 16.3736 22.3317 16.3509" stroke="#0012D4" stroke-linecap="round"/>
<path d="M11.865 38.0843C11.621 37.4637 11.3117 36.667 11.0107 36.1747C10.4982 35.3364 9.46634 34.9523 8.68034 34.442C8.00918 34.0062 7.157 34.0843 6.54733 34.1283C5.94658 34.1717 5.37899 34.483 4.75866 34.738C3.56105 35.2303 3.02232 35.1283 2.24732 35.2063C1.28179 35.3035 0.598976 35.1957 0.531975 35.2283C0.354307 35.3149 0.950977 35.925 1.48331 36.5577C1.86423 37.0104 2.74765 37.3703 3.84599 37.8257C4.62184 38.1473 5.48233 38.0843 6.29266 38.0953C6.77409 38.1019 7.59167 38.151 8.64667 38.162C9.46486 38.1705 10.173 38.1737 10.5637 38.0957C10.7957 38.0843 10.9977 38.0623 11.1527 37.996C11.2417 37.9517 11.3517 37.8857 11.465 37.8177" stroke="#0012D4" stroke-linecap="round"/>
<path d="M12.1984 37.8176C12.2424 37.0203 12.3757 36.0883 12.973 35.0663C13.3621 34.4007 13.9737 33.975 14.5164 33.6093C15.6473 32.8473 16.2184 32.5963 16.5747 32.4183C17.3334 32.0393 18.3517 31.7736 18.7194 31.6293C19.0669 31.4929 19.7277 31.087 20.1751 30.6966C20.2529 30.6287 20.2864 30.5523 20.3311 30.5623C20.631 30.6294 20.4211 31.2816 20.3764 33.52C20.3599 34.3467 19.8891 34.771 18.9907 35.681C18.3749 36.3048 17.0264 37.0816 16.4224 37.328C15.7861 37.5875 14.9824 37.883 13.9017 37.929C13.6224 37.863 13.4657 37.7956 13.2337 37.7623C13.0677 37.751 12.8037 37.751 12.5317 37.8176" stroke="#0012D4" stroke-linecap="round"/>
</svg>
