<svg width="23" height="41" viewBox="0 0 23 41" fill="none" xmlns="http://www.w3.org/2000/svg">
<path d="M11.1834 11.2626C11.131 12.4424 11.0786 13.6221 11.0909 16.8908C11.1032 20.1596 11.1819 25.4815 11.2879 28.6295C11.394 31.7774 11.5251 32.5901 11.5926 33.9788C11.6601 35.3675 11.6601 37.3075 11.6732 38.3463C11.6863 39.385 11.7125 39.4636 11.7396 39.5447" stroke="#0012D4" stroke-linecap="round"/>
<path d="M11.3423 11.2626C10.1801 10.7614 9.38483 10.179 8.69685 8.95083C8.37809 8.38178 8.13995 7.19353 7.86189 5.62014C7.66495 4.50575 7.81979 3.74487 8.0041 3.08509C8.42566 1.576 9.32604 1.14943 10.3453 0.671579C11.3004 0.223827 12.6087 0.747448 13.3658 1.15857C13.9281 1.46391 14.2802 2.20286 14.5062 2.8261C14.845 3.76042 14.3898 5.72064 14.0708 6.61279C13.7712 7.45083 13.0663 8.87456 12.7469 9.57883C12.5051 10.1122 12.0605 10.5445 11.7272 10.9437C11.6609 11.0235 11.5822 11.1022 11.5024 11.1689C11.4226 11.2356 11.3439 11.2881 11.2629 11.3421" stroke="#0012D4" stroke-linecap="round"/>
<path d="M10.5479 11.1038C10.3374 11.13 9.80905 11.2881 9.30498 11.553C8.94727 11.741 7.93418 12.3431 7.16 12.8241C6.66754 13.1301 5.94172 13.3806 5.55761 13.5657C5.03589 13.8171 3.72365 14.6199 3.04202 15.2197C2.41476 15.7717 2.39217 16.3185 2.37827 16.7558C2.36223 17.2603 2.65592 17.6166 3.86943 18.8448C4.23912 19.2189 4.53557 19.2333 4.7731 19.273C5.40113 19.378 6.04341 18.9703 6.78462 18.6259C7.49247 18.297 8.52683 17.124 9.18304 16.2299C9.4605 15.8518 9.88214 14.871 10.4931 13.1888C10.6527 12.5131 10.733 12.1373 10.7858 11.9395C10.8124 11.8203 10.8386 11.663 10.9451 11.3421" stroke="#0012D4" stroke-linecap="round"/>
<path d="M9.99178 10.8655C9.43647 10.469 9.11949 10.0996 8.55146 9.09624C7.70968 7.60929 7.21283 7.37151 6.74967 7.04023C6.27289 6.6992 5.80985 6.52305 3.73835 5.90259C2.6798 5.58553 1.86467 5.85969 1.42812 6.00507C0.935154 6.16925 0.671419 6.70577 0.551459 7.15582C0.311417 8.05637 0.960595 8.61242 1.51551 9.34013C1.80663 9.7219 2.28254 9.98998 2.91889 10.361C3.46399 10.6788 3.87301 10.759 4.25712 10.931C4.58779 11.0791 4.95821 11.2357 5.63309 11.2758C6.49173 11.3268 7.76576 11.2897 8.1892 11.1836C8.47917 11.1308 8.87718 11.0251 9.274 10.8929C9.43488 10.8392 9.51353 10.813 9.674 10.786" stroke="#0012D4" stroke-linecap="round"/>
<path d="M11.4218 11.2626C11.7642 10.7089 12.3989 9.9677 12.9678 9.24079C13.6675 8.34652 14.5169 7.6106 15.0591 7.18756C15.9611 6.4838 17.191 5.91447 17.9191 5.67614C18.7734 5.39649 19.6283 5.38379 20.078 5.3969C20.6693 5.41414 21.0599 6.07018 21.3114 6.49402C21.738 7.21323 21.8544 7.60663 21.9215 8.22788C22.0282 9.21502 21.9354 10.3872 21.7372 10.7844C21.4147 11.4307 20.534 11.976 20.0172 12.3204C19.2868 12.8072 18.8117 12.8245 18.3354 12.8646C17.2563 12.9555 15.5036 12.8785 14.5642 12.72C13.2498 12.3224 12.9066 12.1111 12.5368 11.8605C12.3505 11.7147 12.167 11.5312 11.819 11.2626" stroke="#0012D4" stroke-linecap="round"/>
<path d="M11.819 11.501C12.2146 11.5264 12.6913 11.7917 13.3257 12.1747C13.9901 12.5758 14.6504 12.4543 15.0087 12.5465C15.737 12.7338 16.7159 13.1947 17.1533 13.3671C17.7718 13.6109 18.4875 14.4356 18.9547 15.1137C19.321 15.6455 19.3662 16.6617 19.274 17.298C19.1856 17.9084 18.6544 18.4094 17.9521 18.9274C17.4181 19.3212 16.7477 19.207 15.9803 19.273C14.4197 19.4071 13.1473 18.6271 12.5094 18.123C12.1509 17.8397 12.0843 17.3814 11.8464 16.8261C11.6206 16.2991 11.5553 15.899 11.3431 15.3036C11.1136 14.6593 10.9721 14.2307 10.787 13.6086C10.5487 12.9866 10.3628 12.297 10.3231 12.0062C10.3096 11.8728 10.3096 11.7679 10.3096 11.6599" stroke="#0012D4" stroke-linecap="round"/>
<path d="M11.7395 32.3153C11.9509 31.4168 12.1622 30.8344 12.9808 29.0124C13.2255 28.4678 13.4071 28.2382 13.6966 27.9089C14.2182 27.3158 15.1763 26.6255 16.1026 26.0432C16.7615 25.629 17.245 25.3782 18.039 24.9814C18.5359 24.7331 18.9403 24.6632 19.4305 24.5171C19.9373 24.3659 20.5022 24.1596 20.9403 23.9876C21.0349 23.9504 21.1123 23.9212 21.1397 23.9995C21.3323 24.5492 20.9042 25.8962 20.4668 27.3457C20.1734 28.3181 19.765 28.896 19.3812 29.4922C18.7066 30.5406 18.2825 31.0156 17.8984 31.4263C17.1574 32.2187 16.4823 32.3137 15.8992 32.5528C15.3797 32.7659 14.6821 32.7919 13.4404 32.9238C12.9917 32.9715 12.4132 32.9508 12.1816 32.8853C11.9501 32.8197 12.0811 32.6887 12.2011 32.5556C12.7437 31.9466 13.7987 31.0489 15.1513 30.1071C15.3932 29.9327 15.4718 29.8541 15.7117 29.6936" stroke="#0012D4" stroke-linecap="round"/>
<path d="M11.104 31.6003C10.7338 30.8067 10.1554 30.0178 9.53021 29.2984C9.11652 28.8224 8.38225 27.9268 7.54491 27.1403C6.86071 26.4977 6.15464 25.936 5.57192 25.4716C4.64203 24.7306 3.03408 24.4519 2.31393 24.3578C1.78558 24.2887 1.09565 24.239 0.816805 24.1985C0.463525 24.1472 0.908166 25.1352 1.02733 25.7453C1.12968 26.2693 1.40946 27.2245 1.81939 28.2827C2.07114 28.9326 2.52088 29.5832 3.07619 30.324C3.42597 30.7907 4.05573 31.0688 4.78304 31.3993C5.94294 31.9264 7.1032 32.3153 7.89526 32.3812C9.58757 32.5221 10.1221 32.1834 10.6651 32.0774C10.786 32.0537 10.8641 32.0245 10.8128 31.9848C10.0999 31.4322 8.98761 30.9139 8.29963 30.3709C8.13915 30.2506 8.03428 30.1719 7.99337 30.0921C7.95246 30.0122 7.97867 29.9336 8.00568 29.8525" stroke="#0012D4" stroke-linecap="round"/>
</svg>
