<svg width="28" height="37" viewBox="0 0 28 37" fill="none" xmlns="http://www.w3.org/2000/svg">
<path d="M12.8404 9.71533C12.8404 10.7163 12.8928 12.2528 12.9329 13.5505C12.956 14.2971 13.0255 14.7989 13.0652 16.1241C13.1025 17.3701 13.0787 19.7825 13.0656 21.1036C13.048 22.8764 12.9468 23.3511 12.9067 24.4478C12.8789 25.2069 12.7355 26.4176 12.6421 28.2321C12.5711 29.6135 12.3907 30.1308 12.3375 30.7124C12.2514 31.6531 11.9411 32.5396 11.7552 33.4655C11.6757 34.2341 11.4906 35.0556 11.3452 35.4655C11.2785 35.6395 11.2261 35.7443 11.0926 35.9318" stroke="#0012D4" stroke-linecap="round"/>
<path d="M12.8403 9.39756C12.0475 9.18624 11.3087 8.81762 10.6576 8.2345C10.2433 7.86345 10.0344 7.4925 9.79605 7.00352C9.32445 6.03595 9.29238 5.34751 9.19943 4.68773C9.00321 3.29487 9.3178 2.85933 9.43697 2.47402C9.57265 2.03532 10.1107 1.77253 10.548 1.54652C10.974 1.32637 11.3818 1.32129 11.8457 1.33361C11.9473 1.3363 11.9919 1.45158 12.0713 1.47899C12.4432 1.60727 12.7593 1.03053 13.3015 0.765583C13.8045 0.519796 14.4785 0.579287 15.0624 0.513349C15.9622 0.411739 16.4932 0.922485 16.7454 1.21365C17.0223 1.53322 17.1303 2.21583 17.1963 3.0913C17.288 4.30897 17.1303 4.68177 16.9063 5.43569C16.7551 5.94436 16.4439 6.61226 16.1778 7.1056C15.9693 7.49209 15.7019 7.91196 15.265 8.41603C14.9502 8.77921 14.4848 9.15764 14.0074 9.46271C13.8747 9.52944 13.7174 9.58187 13.597 9.59577C13.4767 9.60968 13.398 9.58346 13.317 9.55645" stroke="#0012D4" stroke-linecap="round"/>
<path d="M13.1581 20.2019C13.5529 20.1233 14.6612 19.5965 15.2356 19.3153C15.6243 19.125 15.8584 18.9578 15.9907 18.8259C16.3724 18.4454 16.2024 17.6613 16.4407 16.9876C16.6146 16.496 16.7593 16.0986 16.8384 15.7951C16.9402 15.4041 17.5752 14.2007 18.4483 12.5864C19.1937 11.2081 20.0411 10.6702 20.9531 10.3254C21.5428 10.1025 21.9478 10.2444 22.2668 10.3767C22.5948 10.5127 22.5849 11.0643 22.7434 11.3697C22.9749 11.8158 23.721 10.7242 24.1202 10.4442C24.439 10.2206 25.1764 10.2714 25.7087 10.3636C25.9358 10.4029 26.1329 10.6146 26.3311 10.8784C26.8924 11.6252 26.4268 12.8883 26.1877 13.4738C25.9624 14.0255 25.7643 14.5582 24.8936 16.0247C24.051 17.4439 23.3555 17.6057 22.5095 18.2265C21.9292 18.6523 21.3964 18.7179 20.9321 18.8641C19.7861 19.0102 17.8755 18.9054 17.3833 18.7592C17.29 18.7195 17.2113 18.667 16.9714 18.4541" stroke="#0012D4" stroke-linecap="round"/>
<path d="M12.9198 19.1691C12.7347 18.6138 12.5242 18.1395 12.061 17.3975C11.7278 16.8637 10.6763 16.0517 9.99508 15.5024C9.65797 15.2305 9.42507 15.0388 9.33212 14.8803C9.16038 14.5875 9.60858 14.1403 9.62328 12.9248C9.64111 11.4504 8.58058 10.1173 8.00977 9.55838C7.17115 8.73727 6.48644 8.47119 6.08961 8.18083C5.40042 7.67652 4.79269 7.7562 4.34185 7.66325C3.61374 7.51314 3.07194 8.01836 2.68584 8.37666C2.3082 8.7271 2.35376 9.63108 2.47293 10.1248C2.59989 10.6509 1.34959 10.2174 1.00441 10.4557C0.48545 10.814 0.447109 11.9874 0.539264 12.5077C0.612748 12.9227 0.922184 13.2617 1.18753 13.6859C1.506 14.1951 1.95495 14.5598 2.54999 14.9967C3.31107 15.5556 4.97065 15.5941 5.52993 15.5282C5.9563 15.4779 6.58653 15.1985 7.17164 15.0384C7.51682 14.9062 7.8338 14.7473 8.15198 14.6412C8.23182 14.6146 8.31047 14.5884 8.62983 14.5614" stroke="#0012D4" stroke-linecap="round"/>
<path d="M12.5226 30.4502C12.9182 29.1028 13.3949 28.0446 13.7524 27.394C13.9795 26.9806 14.6628 26.2977 15.4302 25.5036C15.8113 25.1094 16.1746 24.8121 16.8598 24.2711C18.7012 22.8172 19.5915 22.7982 20.0678 22.652C20.8624 22.4081 21.9732 22.188 22.4646 22.1221C23.0842 22.0389 23.6702 21.9497 23.8028 22.0546C24.3321 22.4729 23.3031 24.136 22.9178 25.1255C22.7067 25.6677 22.2179 26.1825 21.7528 26.7938C21.4005 27.2567 20.8944 27.6935 20.3891 28.1185C19.9785 28.4639 18.7287 29.1473 17.8735 29.5755C17.4911 29.767 17.0795 29.9465 16.4578 30.0526C15.7011 30.1586 13.916 30.2119 12.8284 30.2778C12.7355 30.2913 12.6306 30.2913 12.5226 30.2913" stroke="#0012D4" stroke-linecap="round"/>
<path d="M12.2048 29.338C11.8878 29.0488 11.6233 28.2035 11.2666 27.2371C10.9709 26.436 10.6429 25.8178 10.5111 25.4349C10.0635 24.1354 8.79031 22.9841 8.39309 22.5209C7.87531 21.9172 6.70252 21.1854 5.7333 20.7195C5.09043 20.4104 4.57899 20.5729 4.45982 20.5856C3.91475 20.6438 4.26041 22.1308 5.03817 23.8762C5.28832 24.4376 6.18614 25.5676 7.33767 27.1032C7.94618 27.9147 8.38991 28.2766 8.94483 28.7139C9.72343 29.3276 10.3474 29.4428 10.9714 29.7078C11.1704 29.7876 11.3563 29.8409 11.5808 29.8937C11.7003 29.9203 11.8314 29.9465 12.1254 29.9735" stroke="#0012D4" stroke-linecap="round"/>
</svg>
