<svg width="30" height="48" viewBox="0 0 30 48" fill="none" xmlns="http://www.w3.org/2000/svg">
<path d="M17.1202 10.3966C16.7608 10.2165 16.3419 10.157 15.5172 10.1858C14.4393 10.2235 13.8195 11.7136 13.5326 12.5109C13.3308 13.0716 13.4862 13.6378 13.711 14.0882C13.9834 14.6341 14.5654 14.9296 15.2406 15.1404C15.9185 15.3521 16.5455 15.2611 17.1783 15.0819C17.6528 14.9475 17.9291 14.3026 18.1706 13.777C18.4542 13.1594 18.2913 12.2055 18.2017 11.5691C18.0814 11.2083 17.9021 10.8488 17.3481 10.3831C17.1526 10.3065 16.9148 10.3065 16.6698 10.3065" stroke="#0012D4" stroke-linecap="round"/>
<path d="M14.0573 10.847C13.8186 10.6984 13.3385 10.1588 13.0529 9.55885C12.4998 8.39687 12.3458 7.01489 12.4953 5.93974C12.556 5.50334 13.0322 4.42949 13.4407 3.68721C13.8009 3.0328 14.3546 2.44225 15.0158 1.72113C15.6569 1.02197 17.1742 0.579324 18.1233 0.502303C18.6168 0.462247 19.0101 0.966683 19.4457 1.68555C19.7791 2.23589 20.0317 3.24219 20.0781 5.73345C20.0946 6.61831 19.7939 7.38784 19.4038 8.78548C19.2223 9.43588 18.8336 10.1525 18.5336 10.6935C18.4382 10.8654 18.3525 10.7588 18.3814 10.6236C18.5243 9.95341 18.8606 9.52822 19.1759 9.04717C19.5004 8.55206 20.0605 8.02743 20.4817 7.68016C20.9538 7.29086 21.6208 7.15542 22.1482 6.98877C22.5657 6.85684 23.8963 6.88337 24.7755 6.95814C25.2274 6.99657 25.7646 7.2419 26.2321 7.51305C26.747 7.81163 27.2672 8.3229 27.6289 8.68369C27.9057 8.95987 27.8401 9.87955 27.6609 10.5601C27.5261 11.0715 26.5844 11.8326 25.666 12.5717C25.2615 12.8972 24.7791 13.0379 24.2688 13.2784C23.8666 13.4679 23.5179 13.5495 23.0085 13.6243C21.9064 13.7861 21.001 13.7297 20.0506 13.5653C19.5533 13.4595 19.2831 13.4297 19.1034 13.355C19.0128 13.3099 18.9237 13.2505 18.8318 13.1892" stroke="#0012D4" stroke-linecap="round"/>
<path d="M11.9854 14.2702C11.2963 14.5089 10.5189 15.108 9.31851 15.9922C7.44188 17.3745 7.06507 18.6465 6.74617 19.3879C6.34392 20.323 6.99661 21.8895 7.46504 22.5566C7.75348 22.9673 8.25958 23.3074 8.91854 23.4434C10.5979 23.7901 11.944 22.8336 12.8692 22.3638C13.584 22.0008 14.0249 21.8084 14.6704 21.3886C15.2874 20.9873 15.7059 20.3689 16.0532 19.932C16.3932 19.5041 16.459 18.987 16.5644 18.3573C16.5797 18.088 16.5797 17.6718 16.5648 17.4128C16.55 17.1538 16.5202 17.0646 16.3995 16.9727" stroke="#0012D4" stroke-linecap="round"/>
<path d="M16.3995 16.7025C16.3995 16.7908 16.5184 17.3313 16.6693 17.7069C16.8412 18.1348 16.9995 18.5023 17.4035 19.3712C17.816 20.2583 18.2588 20.9922 18.8291 21.4755C19.2395 21.8234 19.8209 21.7769 20.5073 21.8219C22.9687 21.9834 23.7539 21.4481 24.1453 21.2675C24.6477 21.0356 24.9863 20.4878 25.2718 20.1121C25.5752 19.7131 25.4079 18.8987 25.3034 18.3857C25.1761 17.7608 24.6584 17.3349 24.1935 16.8993C23.835 16.5633 23.5179 16.0449 23.1571 15.5931C22.7817 15.1229 22.4369 14.872 22.0013 14.6315C21.6253 14.4207 21.355 14.3008 21.1753 14.181C21.0847 14.1207 20.9956 14.0612 20.7235 14" stroke="#0012D4" stroke-linecap="round"/>
<path d="M12.9763 9.58587C12.7673 9.40661 12.3476 8.98772 11.9868 8.62603C11.7018 8.34038 11.2071 8.2058 9.69415 7.77069C9.06121 7.58867 8.56405 7.60404 8.03886 7.52927C7.57474 7.46319 6.73716 7.42387 6.11648 7.49864C5.6813 7.55106 5.02377 7.84186 4.28553 8.20354C3.88589 8.39934 3.34101 8.8616 2.8433 9.47868C2.37447 10.0599 2.76627 11.2344 3.14057 12.0303C3.37661 12.5322 3.93556 12.7965 4.26707 13.2027C4.74421 13.7875 5.61652 14.0594 6.03856 14.2545C6.4394 14.4397 6.9984 14.5098 7.55421 14.5553C8.4073 14.6306 9.55137 14.5711 11.1688 14.5405C11.4458 14.5405 11.3566 14.5405 11.2648 14.5405" stroke="#0012D4" stroke-linecap="round"/>
<path d="M14.2375 21.6571C14.2681 21.7453 13.7312 22.8209 13.293 23.7853C12.7239 25.0375 12.7061 25.4388 12.5417 25.9041C12.3605 26.4167 12.2268 26.8495 12.0908 27.2558C11.9517 27.6714 11.926 28.289 11.8206 29.0552C11.7089 29.867 11.7755 30.633 11.7305 32.3013C11.6919 33.7314 11.7152 36.3479 11.7003 37.755C11.6842 39.2816 11.6251 39.5819 11.6102 39.9116C11.5979 40.1852 11.535 41.7016 11.5499 43.878C11.6251 45.2553 11.6548 46.0985 11.6999 46.353C11.7152 46.4886 11.7152 46.6372 11.7152 46.7904" stroke="#0012D4" stroke-linecap="round"/>
<path d="M12.0755 35.2597C12.0152 35.021 12.1944 34.3624 12.6584 33.5972C13.2174 32.675 13.8448 31.8095 14.4429 31.1658C15.1997 30.3515 16.2743 29.5889 17.1589 28.839C18.2843 27.8849 19.4876 27.1846 20.3745 26.6738C21.7364 25.8894 22.6729 25.4117 23.4531 25.0965C23.9978 24.8763 24.653 24.6316 25.2259 24.4352C25.9312 24.1935 27.2924 23.6119 28.0181 23.384C28.1901 23.3299 28.4653 23.3687 28.6031 23.4876C29.2664 24.0598 28.532 25.1974 28.3221 26.0658C27.997 27.4107 27.4807 28.4115 27.1226 29.0088C26.4597 30.1145 25.77 30.9339 25.2174 31.5757C23.456 33.6213 23.0675 34.2363 22.7216 34.6277C22.1395 35.2864 20.4623 36.7244 19.5101 37.4645C18.7323 38.069 18.2643 38.3802 17.3941 38.9657C16.4927 39.5722 15.9815 40.0323 14.9172 40.5728C14.3503 40.8607 13.461 40.8449 12.7692 40.9196C12.1761 40.9837 11.7161 40.8755 11.581 40.7259C11.1502 40.2492 12.2539 39.3152 12.5994 38.7905C12.916 38.3096 13.7808 37.4874 14.7713 36.6019C15.687 35.7832 16.668 34.8417 17.5522 33.912C18.1688 33.2202 18.7111 32.6482 18.8458 32.4684C18.921 32.3779 19.0102 32.2887 19.102 32.2869" stroke="#0012D4" stroke-linecap="round"/>
<path d="M11.2648 36.0704C11.0558 35.5642 10.636 34.3624 10.3648 33.581C10.2497 33.2492 9.7973 32.4437 9.18203 31.3784C8.4457 30.1036 7.60377 28.5665 7.22722 28.1444C6.55816 27.3945 5.41114 26.3126 5.08053 25.8333C4.42577 24.8842 3.52119 24.2118 2.94916 23.7457C2.41093 23.307 1.98796 23.2191 1.62718 23.0241C1.4558 22.9314 1.2664 22.9182 1.08668 22.948C0.888741 22.9807 0.755622 23.247 0.650675 23.5614C0.312431 24.5747 0.604282 26.0973 0.932186 27.4112C1.16597 28.3479 1.67628 29.7952 1.93617 30.6199C2.33605 31.8889 2.49604 32.5536 2.93024 33.6044C3.28147 34.4544 4.08511 35.6759 4.53688 36.2186C5.05688 36.8433 5.70481 37.4469 6.18856 38.0054C6.73825 38.6401 7.26866 38.8918 7.82448 39.2968C8.31368 39.6532 8.85954 40.0017 9.29644 40.3183C9.75967 40.654 10.4801 40.6647 11.0657 40.5755C11.2813 40.5427 11.2648 40.308 11.2499 40.1566C11.1974 39.6218 10.7855 39.1657 10.4702 38.6847C10.0012 37.9691 9.22527 36.8253 8.80413 36.2677C8.24881 35.5324 7.87402 35.0219 7.16867 34.167C6.67141 33.6688 6.40116 33.5184 6.25117 33.5179C6.19036 33.5472 6.16063 33.6364 6.13 33.7283" stroke="#0012D4" stroke-linecap="round"/>
</svg>
