<svg width="25" height="40" viewBox="0 0 25 40" fill="none" xmlns="http://www.w3.org/2000/svg">
<path d="M12.5371 10.7627C12.5152 11.091 12.4933 11.4193 12.4492 12.6938C12.4051 13.9683 12.3394 16.179 12.3165 17.3944C12.2937 18.6099 12.3155 18.7631 12.3268 19.7504C12.3381 20.7376 12.3381 22.5543 12.3272 23.5559C12.3148 24.6892 12.2718 25.021 12.2608 25.3852C12.2518 25.6853 12.2054 26.8915 12.1945 28.615C12.1891 29.4636 12.1391 30.038 12.1172 30.7441C12.098 31.3658 12.0065 32.2905 11.9846 33.4055C11.9611 34.6003 11.83 35.0796 11.7965 35.6115C11.7685 36.0565 11.6974 36.6276 11.6639 37.8195C11.5866 38.4205 11.5422 38.6632 11.5203 38.7743C11.4984 38.776 11.4546 38.6665 11.4095 38.5538" stroke="#0012D4" stroke-linecap="round"/>
<path d="M12.4044 11.227C12.0071 10.4768 11.436 9.42154 11.0789 8.18089C10.8267 7.30484 10.658 6.62983 10.6249 6.05842C10.5613 4.96348 10.6793 3.89051 10.8335 3.16257C11.0864 1.9685 11.4533 1.61085 12.0479 0.882907C12.3257 0.542835 12.6903 0.481959 12.9772 0.503847C13.2282 0.523004 13.4424 0.724054 13.6301 0.966479C13.8206 1.21249 13.8411 1.78264 13.8965 2.70757C13.9295 3.25954 13.8862 3.98271 13.7655 5.12088C13.6447 6.25906 13.4259 7.79121 13.3022 8.62428C13.1785 9.45735 13.1566 9.54491 13.0796 9.77606C13.0027 10.0072 12.8714 10.3793 12.7361 10.8953" stroke="#0012D4" stroke-linecap="round"/>
<path d="M12.3381 14.2117C12.691 13.6379 13.2627 12.7591 13.6746 12.124C13.8491 11.8549 14.1926 11.3848 14.6344 10.8877C14.88 10.6112 15.6697 10.0165 16.8291 9.11077C17.5404 8.55512 18.2591 8.37553 19.0862 8.27604C20.3757 8.12094 20.8253 8.39609 21.1367 8.68296C21.6761 9.17985 21.1822 10.2082 20.7527 11.0794C20.6229 11.3427 20.4552 11.5758 20.0042 12.0391C19.5532 12.5024 18.809 13.1809 18.3818 13.5852C17.8537 14.0851 17.2954 14.5838 16.4345 15.2351C15.3544 16.0522 14.2457 16.3766 13.666 16.5328C13.5771 16.555 13.4895 16.5769 13.4007 16.6101C13.3118 16.6432 13.2242 16.687 13.0014 16.7984" stroke="#0012D4" stroke-linecap="round"/>
<path d="M12.0728 14.4107C11.897 14.1467 11.4559 13.5298 11.0792 13.0745C10.9047 12.8636 10.7031 12.643 10.2856 12.2912C9.50721 11.6352 8.7803 11.2057 8.46027 11.0293C8.18918 10.8798 7.13008 10.303 5.60522 9.58469C4.92109 9.26242 4.53603 9.23714 4.10556 9.26997C3.77074 9.29551 3.58357 9.52367 3.46219 9.71105C3.18842 10.1337 3.25127 11.154 3.47114 12.0202C3.57069 12.4124 4.24153 13.0788 5.12402 14.017C6.27678 15.2425 6.87539 15.3379 7.42756 15.6586C7.98026 15.9796 9.10133 16.2439 10.2677 16.3232C10.5672 16.2904 10.8112 16.2459 11.1306 16.2128C11.3186 16.2015 11.5594 16.2015 11.8075 16.2015" stroke="#0012D4" stroke-linecap="round"/>
<path d="M12.4044 24.2934C12.3825 24.2715 12.3606 24.2496 12.82 23.5927C13.2793 22.9357 14.2205 21.6443 14.9899 20.6836C15.7592 19.7228 16.3283 19.1318 17.0045 18.5538C17.6807 17.9757 18.4468 17.4285 19.0385 17.0482C19.9993 16.4304 20.9772 16.1365 21.9157 15.9375C22.5163 15.8102 22.8828 15.9136 23.1146 16.0018C23.2904 16.0688 23.4578 16.2227 23.6455 16.3991C23.8019 16.5461 23.8127 16.9503 23.7361 17.5237C23.5949 18.5803 22.9518 18.8745 21.8275 20.077C21.1973 20.7511 20.4114 21.1959 19.8576 21.6383C19.367 22.0302 18.5556 22.478 17.7494 22.8976C16.9262 23.3259 16.4305 23.6514 15.5145 24.1147C14.6682 24.5427 13.6898 24.6025 13.2129 24.691C13.0252 24.7351 12.8694 24.7796 12.737 24.8237C12.6704 24.8459 12.6047 24.8678 12.4707 24.9567" stroke="#0012D4" stroke-linecap="round"/>
<path d="M12.2386 23.1468C11.7903 22.8106 11.3772 22.3432 10.8841 21.6523C10.5913 21.242 10.1389 20.7652 9.81007 20.4216C9.48127 20.0779 9.27113 19.8958 8.63052 19.4518C7.98991 19.0077 6.9252 18.3072 6.10354 17.8343C5.28187 17.3614 4.7355 17.1372 4.26492 16.9657C3.79433 16.7942 3.41608 16.6821 3.03209 16.5964C2.27542 16.4274 1.69802 16.3969 1.35203 16.4179C1.04218 16.4367 0.833688 16.5943 0.699538 16.7845C0.519537 17.0396 0.507652 17.386 0.500436 17.7174C0.491054 18.1481 0.634161 18.5743 0.838358 19.0253C0.962304 19.2991 1.16864 19.6445 1.44479 20.021C1.72095 20.3976 2.07118 20.7899 2.34266 21.055C2.61415 21.3201 2.79627 21.4462 3.28235 21.7283C3.76843 22.0104 4.55296 22.4447 5.1042 22.7314C5.65545 23.0182 5.94964 23.1443 6.68259 23.3703C7.41553 23.5964 8.57831 23.9186 9.38045 24.1126C10.1826 24.3066 10.5889 24.3627 10.9172 24.3915C11.4838 24.4204 11.8132 24.4064 12.0246 24.3852C12.152 24.3779 12.3201 24.3779 12.4508 24.4628" stroke="#0012D4" stroke-linecap="round"/>
<path d="M12.4508 29.6421C12.661 29.3479 12.8711 29.0537 13.2666 28.5379C13.662 28.0221 14.2364 27.2936 14.6654 26.7992C15.0944 26.3049 15.3605 26.0667 15.7148 25.8109C16.0691 25.5552 16.5034 25.289 17.1264 24.9627C17.7493 24.6365 18.5479 24.2582 19.4005 23.9653C20.2532 23.6724 21.1358 23.4763 21.7516 23.3752C22.6825 23.2225 23.1476 23.3022 23.4297 23.3867C23.7805 23.4917 24.0115 23.6698 24.0964 23.7898C24.1756 23.9016 24.0973 24.122 23.9498 24.4811C23.6998 25.0896 23.1654 25.691 22.7486 26.1928C22.5735 26.4035 22.4578 26.5125 22.1829 26.7383C21.908 26.9642 21.4737 27.3004 20.7106 27.7468C19.9475 28.1932 18.8688 28.7395 18.2221 29.056C17.5753 29.3725 17.3932 29.4425 16.8791 29.5907C16.365 29.7389 15.5244 29.963 14.7692 30.0785C14.0139 30.1939 13.3695 30.1939 13.0165 30.1869C12.6635 30.1799 12.6215 30.1659 12.5508 30.1587C12.4801 30.1515 12.3821 30.1515 12.281 30.1515" stroke="#0012D4" stroke-linecap="round"/>
<path d="M12.0263 29.1751C11.9142 29.049 11.8022 28.9229 10.4766 28.1575C9.151 27.3921 6.61531 25.9912 5.23199 25.2485C3.84868 24.5058 3.69457 24.4637 3.40505 24.4351C2.69742 24.365 2.09411 24.406 1.76935 24.4695C1.46835 24.5283 1.24421 24.6323 1.07483 24.752C0.867104 24.8988 0.804827 25.3374 0.79761 25.818C0.787816 26.4702 1.35544 26.9523 1.92451 27.4163C2.37155 27.7808 3.18005 28.3566 4.10275 28.8419C5.02546 29.3271 6.04814 29.6913 7.13535 29.963C8.22256 30.2347 9.34331 30.4028 10.1938 30.4824C11.0444 30.562 11.5907 30.548 12.1961 30.4911" stroke="#0012D4" stroke-linecap="round"/>
</svg>
