<svg width="25" height="40" viewBox="0 0 25 40" fill="none" xmlns="http://www.w3.org/2000/svg">
<path d="M11.1639 9.6701C11.1639 10.1864 11.1639 10.7026 11.1639 11.3277C11.1639 11.9528 11.1639 12.671 11.2537 15.4652C11.3434 18.2593 11.523 23.1076 11.6043 26.9182C11.6856 30.7289 11.6631 33.355 11.6628 34.7752C11.6624 36.1954 11.6849 36.3301 11.6965 36.8035C11.708 37.2769 11.708 38.0849 11.708 38.7134" stroke="#0012D4" stroke-linecap="round"/>
<path d="M9.53144 7.76563C9.62191 8.58115 9.80215 9.0321 10.097 9.31812C10.7311 9.93321 12.4752 9.21847 12.9197 8.88927C13.3241 8.58977 13.2268 8.21998 13.2945 8.07272C13.4128 7.81519 14.377 8.03769 15.1745 7.84589C15.8829 7.67549 16.4447 7.22285 16.6613 6.75863C16.7164 6.64073 16.7181 6.52091 16.7072 6.41821C16.6861 6.21892 16.4481 6.02099 16.0978 5.8285C15.1435 5.30408 13.8873 5.79177 13.5342 5.92882C13.3708 5.99227 13.205 6.01963 13.1142 6.01997C12.7859 6.0212 13.3853 5.20546 13.3747 3.97401C13.3621 2.49398 13.0017 2.01002 12.7405 1.57743C12.6331 1.39962 12.3453 1.0571 11.9151 0.671783C11.6645 0.447295 11.2795 0.487797 10.8608 0.543911C10.4747 0.595664 10.2579 0.962556 10.0769 1.36862C9.56557 2.51631 9.75862 3.09285 9.74672 4.11141C9.73872 4.79559 9.8484 5.42856 9.82664 5.72443C9.79929 6.09625 8.87712 5.40951 8.01568 5.3619C7.3534 5.3253 7.08419 5.74688 6.4955 6.27843C6.31921 6.43761 6.31219 6.65355 6.28941 6.89093C6.26449 7.1505 6.46931 7.42418 6.72948 7.6619C7.09543 7.99628 7.51134 8.01457 8.17994 8.02647C8.64586 7.94723 9.00907 7.87921 9.17878 7.83398C9.2587 7.8112 9.32603 7.78875 9.39541 7.76563" stroke="#0012D4" stroke-linecap="round"/>
<path d="M11.2999 13.343C11.2999 13.3879 11.861 12.9621 12.8796 12.1697C14.0968 11.2228 14.698 11.1216 15.9431 11.1209C16.5479 11.1206 17.0569 11.731 17.2847 12.1061C17.4537 12.3844 17.5343 12.7513 17.535 14.1759C17.5353 14.7928 16.995 15.6719 16.3151 16.6578C15.7259 17.5123 14.7252 17.99 14.3732 18.2168C14.0893 18.3532 13.773 18.4892 13.084 18.5688C12.7119 18.5803 12.0835 18.5803 11.4359 18.5803" stroke="#0012D4" stroke-linecap="round"/>
<path d="M10.9598 13.6831C10.5762 13.2321 9.76271 12.3717 9.18185 12.0626C8.70585 11.8093 8.15071 11.9378 7.42632 11.9483C6.3331 11.9642 5.815 12.3676 5.23719 12.7179C4.79216 12.9877 4.83827 14.3089 4.93962 15.1883C5.03994 16.0589 5.76331 16.6935 6.27649 17.1734C6.71601 17.5844 7.05835 18.0117 7.54535 18.3861C8.26582 18.9401 9.68109 18.8524 10.482 18.717C10.5959 18.6715 10.7081 18.6266 10.8109 18.5586C10.9136 18.4905 11.0033 18.4008 11.1639 18.3083" stroke="#0012D4" stroke-linecap="round"/>
<path d="M11.708 26.9464C11.8209 26.5859 12.1365 25.5466 12.6014 24.7161C12.9137 24.1583 13.6315 23.6843 14.2767 23.2313C14.7345 22.9099 15.1299 22.7756 15.6486 22.5498C16.5426 22.1605 17.5758 21.9819 18.3006 21.8574C19.0821 21.7232 20.2469 21.2371 21.0587 20.7694C21.4621 20.5371 21.7052 19.8985 21.8874 18.9473C22.0065 18.3259 21.8657 17.811 21.7079 17.4608C21.4985 16.9959 21.1406 16.7445 20.9709 16.6313C20.5412 16.3445 19.2416 16.7194 18.6019 16.9925C18.4429 17.0603 18.3288 17.1513 18.2496 17.287C17.9734 17.7599 18.2594 18.6245 18.4291 18.8282C18.5677 18.9946 18.9824 19.0564 19.5375 19.0115C19.7596 18.9936 19.8456 18.8769 19.903 18.7745C20.0152 18.5748 20.0061 18.3321 19.9724 18.1396C19.9388 18.0593 19.8714 18.0144 19.7806 17.9801C19.6898 17.9457 19.5776 17.9233 19.3259 17.9682" stroke="#0012D4" stroke-linecap="round"/>
<path d="M11.2999 26.6743C11.3224 26.0411 11.3679 25.5425 11.2214 24.8858C11.0634 24.1782 10.5531 23.5469 10.2246 23.218C9.98581 22.979 9.46617 22.9565 8.7775 22.8885C7.00293 22.7132 6.31426 23.0014 5.54499 23.0579C4.27604 23.151 3.46026 22.7089 2.79982 22.2774C2.27787 21.9363 1.91491 21.4846 1.66495 20.6694C1.44368 19.9478 1.61836 19.1503 1.81051 18.7629C2.10606 18.1671 2.84131 17.9464 3.21574 17.8889C3.43045 17.8559 3.6133 17.8545 3.76022 17.911C3.93462 17.978 4.06698 18.1259 4.15744 18.2956C4.43581 18.8179 4.24926 19.7801 4.0231 20.1773C3.97094 20.2689 3.88741 20.3025 3.80783 20.3144C3.63847 20.3038 3.47863 20.2358 3.35416 20.1341C3.29702 20.0773 3.25213 20.01 3.34191 19.9406" stroke="#0012D4" stroke-linecap="round"/>
<path d="M11.9801 36.3328C12.1154 35.722 12.5888 34.9996 13.3907 34.0277C13.8362 33.4877 14.4396 32.921 14.931 32.4857C15.7708 31.7418 16.8032 31.2567 17.8112 30.8601C19.0503 30.3727 20.3224 30.5962 20.5149 30.6979C20.6707 30.7802 20.7311 31.0036 20.7992 31.2859C20.8917 31.6701 20.755 32.1137 20.6305 32.4646C20.5772 32.615 20.5285 32.7034 19.9891 33.1537C19.4497 33.6039 18.4172 34.412 17.414 35.0639C16.4107 35.7159 15.468 36.1872 14.8701 36.4637C14.0478 36.8075 13.6594 36.8994 13.1857 36.9334C12.869 36.9449 12.3977 36.9449 11.912 36.9449" stroke="#0012D4" stroke-linecap="round"/>
<path d="M11.4359 36.4008C11.4359 35.7907 11.391 35.1112 11.0972 34.4762C10.9189 34.091 10.6666 33.6148 10.1705 32.9149C9.40319 31.8326 8.58125 31.1199 8.20783 30.803C7.91723 30.5563 7.58343 30.4159 7.17669 30.2915C6.69198 30.1431 5.70684 30.1432 4.55157 30.1769C3.49285 30.2077 3.02629 30.754 2.68552 31.1053C2.51647 31.2796 2.50324 31.5253 2.48045 31.7399C2.45059 32.0211 2.59302 32.3184 2.76238 32.601C2.96086 32.9322 3.63164 33.3822 4.61551 33.9593C5.09519 34.2407 5.57693 34.4242 6.60535 34.7303C7.63377 35.0363 9.20496 35.4404 10.048 35.6709C10.8911 35.9015 10.9584 35.9464 11.038 35.992C11.1176 36.0376 11.2074 36.0825 11.3679 36.2647" stroke="#0012D4" stroke-linecap="round"/>
<path d="M11.776 29.8032H11.844" stroke="#0012D4" stroke-linecap="round"/>
<path d="M11.776 29.8032L11.9121 29.8712" stroke="#0012D4" stroke-linecap="round"/>
<path d="M12.0481 29.6671C12.9908 28.5449 13.9029 27.5851 14.9082 26.7713C15.4697 26.3168 16.2053 25.8677 17.114 25.3668C18.0227 24.8658 19.1001 24.3496 19.7898 24.0387C20.7373 23.6117 21.2059 23.5007 21.7361 23.399C23.1915 23.1199 23.4511 23.1375 23.6549 23.2048C23.8988 23.2855 23.883 23.7252 23.8494 24.0533C23.8208 24.3316 23.6117 24.5196 23.4423 24.723C23.2228 24.9866 22.6404 25.4467 21.0964 26.4394C20.0064 27.1402 18.1832 28.0606 17.1796 28.5802C16.176 29.0999 16.0189 29.1448 15.5788 29.3138C13.5683 30.0977 13.0262 30.233 12.3453 30.3017C12.1855 30.3242 12.0508 30.3691 11.844 30.4153" stroke="#0012D4" stroke-linecap="round"/>
<path d="M11.64 30.2793C11.1462 29.5161 10.5551 28.6067 9.77564 27.6113C8.95228 26.5598 7.99223 26.1091 7.48346 25.815C7.22759 25.667 6.95225 25.5657 6.26358 25.362C5.5749 25.1583 4.47507 24.8665 3.74014 24.7049C1.80444 24.2795 0.576326 24.9052 0.519531 25.0409C0.368773 25.4011 1.11774 25.9466 2.55222 26.9869C3.08006 27.3697 3.82618 27.7096 4.85834 28.1755C5.8905 28.6414 7.21479 29.1801 7.95312 29.4913C9.28718 30.0536 10.1871 30.3922 10.6293 30.6071C10.7544 30.6643 10.8891 30.7091 11.0146 30.7547C11.1401 30.8003 11.2523 30.8452 11.3679 30.9594" stroke="#0012D4" stroke-linecap="round"/>
</svg>
