<svg width="29" height="40" viewBox="0 0 29 40" fill="none" xmlns="http://www.w3.org/2000/svg">
<path d="M12.4046 0.500122C12.0631 1.41119 11.4511 2.78983 10.7268 4.04757C10.4249 4.57194 10.1137 4.85378 9.8662 5.12023C9.56299 5.4466 8.25263 6.90513 6.38178 8.87167C5.26215 10.0486 4.76763 10.5437 4.07946 11.6118C3.44729 12.5929 3.39014 13.2185 2.8773 14.094C1.51783 16.415 0.642026 16.998 0.505078 18.5628C0.388742 19.8922 2.3129 21.4284 3.21423 22.0238C4.37913 22.7932 4.95329 23.152 6.1331 23.666C7.39458 24.2155 8.84626 24.2224 10.0083 24.09C12.3007 23.8289 13.0509 22.5813 13.5678 22.1235C14.1225 21.4731 14.5041 20.8646 14.79 20.2349C14.9247 19.9833 15.0381 19.8699 15.155 19.753" stroke="#0012D4" stroke-linecap="round"/>
<path d="M15.155 20.0968C15.2306 20.3248 15.7624 20.7821 16.47 21.0508C17.93 21.6052 20.0393 21.7012 21.0718 21.7963C21.7534 21.8591 22.6751 21.7401 23.742 21.5499C24.8245 21.3569 25.8082 20.9013 26.6471 20.3873C27.4408 19.901 27.7599 19.1444 27.9318 18.4219C28.3836 16.5226 27.5341 15.3294 27.3794 14.4647C27.2524 13.7549 26.8076 13.262 25.5699 11.5854C24.4841 10.1146 23.8279 9.32664 23.275 8.79203C22.4868 8.02996 21.9187 7.68328 21.1371 7.30166C19.724 6.61166 18.7489 6.19347 18.0802 5.9637C17.1697 5.65084 16.5715 5.31563 15.7131 4.85723C14.2783 3.90147 13.3649 3.06489 12.8452 2.27987C12.7495 1.99452 12.6361 1.5407 12.5192 0.843933" stroke="#0012D4" stroke-linecap="round"/>
<path d="M14.8112 20.2114C14.8112 20.742 15.1137 23.4775 15.3074 25.2492C15.4709 26.7446 15.6501 27.5802 15.975 28.8958C16.382 30.5441 16.3766 31.2474 16.4345 31.9172C16.4933 32.5977 16.6448 33.4225 16.7399 34.341C16.7594 35.3638 16.7216 36.2153 16.6643 36.7476C16.6448 37.0908 16.6448 37.5825 16.6448 38.089" stroke="#0012D4" stroke-linecap="round"/>
<path d="M16.5302 38.5474C16.6437 38.168 17.6304 36.496 18.5523 35.3603C18.8173 35.0339 19.4285 34.3885 20.0977 33.6247C20.4758 33.1933 19.3585 32.5148 19.2617 31.9218C19.1771 31.4035 19.3929 30.4176 19.8519 29.5157C20.2299 28.7729 20.8827 28.2356 21.4741 27.8151C22.5359 27.0598 23.6652 27.0873 24.4359 26.9544C24.9503 26.8657 25.4278 26.3264 26.0214 25.7706C26.328 25.4835 25.6616 26.7023 25.4885 27.4661C25.2602 28.4741 25.7739 29.4137 25.9079 30.4234C26.1248 32.0559 25.8518 33.3881 25.6616 33.8264C25.308 34.6411 24.4422 35.0681 23.487 35.3191C22.6793 35.5313 22.0322 35.2629 21.7846 35.0916C21.23 34.6143 20.9618 34.1937 20.9045 33.8894C20.885 33.6986 20.885 33.4339 20.885 33.1612" stroke="#0012D4" stroke-linecap="round"/>
<path d="M15.0404 20.5552C15.0404 19.7197 14.6622 17.2088 14.3723 15.6503C14.2212 14.8382 14.2382 14.2178 14.1242 13.5479C13.9661 12.6196 13.9334 11.6186 13.8755 10.9694C13.8272 10.4273 13.7042 9.82399 13.4944 8.73758C13.1818 7.11818 12.8263 6.53955 12.6533 5.86971C12.6338 5.50815 12.596 5.19987 12.5387 4.47961C12.5192 3.8728 12.5192 2.77608 12.5192 1.64612" stroke="#0012D4" stroke-linecap="round"/>
<path d="M14.9258 15.1689C15.1905 15.4348 16.1062 15.8176 16.8322 15.9517C18.2628 16.2159 19.1981 16.0857 20.1367 15.9717C21.15 15.8486 22.6682 15.4784 23.8612 15.0366C25.002 14.6141 25.4667 14.4057 26.0587 13.9868C26.2311 13.8339 26.4202 13.6448 26.5365 13.4906C26.6529 13.3365 26.6907 13.223 26.7296 13.1061" stroke="#0012D4" stroke-linecap="round"/>
<path d="M14.009 15.0543C13.6663 15.358 13.2091 15.8932 12.7123 16.4083C12.0939 17.0496 10.5435 17.8368 9.02903 18.4717C7.13319 19.2665 4.46737 18.419 3.60157 17.9589C3.16093 17.6913 2.93173 17.3475 2.7604 17.1378C2.66471 17.0415 2.55126 16.9659 2.31976 16.6587" stroke="#0012D4" stroke-linecap="round"/>
<path d="M14.1236 10.8141C15.0347 10.8141 17.6991 9.9065 18.8205 8.98282C19.2795 8.40867 19.5854 8.06487 19.719 7.83624C19.7768 7.72107 19.8146 7.60761 19.9682 7.49072" stroke="#0012D4" stroke-linecap="round"/>
<path d="M13.7798 10.585C12.2946 11.7275 10.7681 12.5698 9.04911 12.6288C8.02367 12.6641 7.05965 11.8478 6.50441 11.2938C6.36976 11.0456 6.25516 10.8153 6.14056 10.5678C6.10159 10.4337 6.10159 10.2824 6.10159 10.2411" stroke="#0012D4" stroke-linecap="round"/>
<path d="M16.4156 38.089C16.2632 37.5171 15.8839 36.833 15.367 36.2004C15.0817 35.8016 14.6611 35.3031 14.1843 34.8074C13.9723 34.5765 13.8211 34.3874 13.5506 33.9634" stroke="#0012D4" stroke-linecap="round"/>
</svg>
