<svg width="26" height="39" viewBox="0 0 26 39" fill="none" xmlns="http://www.w3.org/2000/svg">
<path d="M12.001 12.6871C11.7363 13.3678 11.4716 14.0485 11.1839 15.3825C10.8963 16.7164 10.5937 18.683 10.4379 20.5469C10.282 22.4109 10.282 24.1127 10.4144 25.7836C10.5467 27.4545 10.8115 29.0428 11.0613 30.3338C11.4958 32.5788 11.8853 33.809 12.0761 34.3614C12.3059 35.4524 12.6107 36.3658 12.7832 37.1869C12.8044 37.4785 12.6909 37.5164 12.574 37.5553" stroke="#0012D4" stroke-linecap="round"/>
<path d="M11.428 12.9163C11.3146 12.8785 11.2011 12.8406 11.0859 12.8968C9.9695 13.4411 9.71132 15.74 8.92917 16.3904C8.59918 16.6648 7.99346 16.5835 7.40212 16.5268C6.65585 16.4552 6.38791 15.7446 5.796 15.5716C5.11655 15.3729 4.5543 15.6289 4.17269 15.4392C3.97856 15.3427 3.94234 15.0226 3.9601 14.7539C4.02623 13.7534 4.96916 13.3013 5.39146 12.8985C5.46638 12.8271 5.39318 12.6894 5.26024 12.612C4.61764 12.2381 3.94463 12.0774 3.55957 11.5245C3.35176 11.226 3.55843 10.8546 3.59682 10.626C3.67331 10.1705 2.87427 9.59746 2.79405 8.79354C2.70267 7.87784 3.97787 7.79824 4.18758 7.62691C4.84971 7.08599 4.58868 5.6598 4.98807 5.37387C5.50734 5.00211 6.19194 5.00887 6.61195 4.95214C7.20518 4.87202 7.14656 3.56032 7.6445 3.19532C7.84439 3.04879 8.51947 3.06066 9.3784 3.00394C9.712 2.98191 9.82133 2.83376 9.87978 2.56731C10.0265 1.89827 9.97604 1.34281 10.109 1.09527C10.4553 0.450365 11.1965 0.501641 11.5782 0.501068C12.0929 0.500295 12.1145 1.26373 12.4755 1.49293C13.526 2.15996 14.4053 1.03682 14.9594 1.01677C15.6845 0.990525 16.3535 2.14157 17.1741 2.31519C17.7325 2.43335 18.5241 3.9683 20.0758 4.49259C20.3206 4.57532 20.4035 4.66278 20.4425 4.85358C20.6109 5.6783 20.2912 6.03912 20.1955 6.28666C19.9863 6.82782 20.7095 7.18513 20.8814 7.45157C21.2546 8.03002 20.5594 8.59815 20.3302 8.90298C20.2267 9.04062 20.2522 9.20782 20.309 9.34248C20.5402 9.89124 21.0911 10.0501 21.3203 10.3166C21.4323 10.4467 21.3982 10.6587 21.3037 10.8317C20.7935 11.7656 19.3011 11.7703 18.4404 12.1313C18.2641 12.2052 18.304 12.4166 18.3986 12.5702C18.8602 13.32 19.5257 13.5638 19.5836 13.9448C19.6954 14.6815 18.8404 14.9768 18.6673 15.5687C18.5657 15.9162 18.5344 16.2764 18.2868 16.5245C17.6691 17.1436 16.3581 16.5468 15.804 16.2597C15.6739 16.1923 15.5559 16.1641 15.4408 16.1635C15.0131 16.1614 14.6025 16.6591 13.8375 16.7932C13.1563 16.9126 12.7666 16.3566 12.3465 16.1257C12.2402 16.0672 12.1179 16.0495 12.0406 15.9732C11.8864 15.0616 11.8486 13.644 11.7724 13.3008C11.734 13.1466 11.6962 13.0332 11.5426 12.9163" stroke="#0012D4" stroke-linecap="round"/>
<path d="M1.22864 26.5537C1.30427 26.6293 1.37991 26.705 2.42105 28.0298C3.4622 29.3545 5.46655 31.9262 6.74492 33.44C8.96268 36.0664 9.897 36.2924 10.3949 36.5423C11.0052 36.8666 11.7317 37.1347 12.0939 37.192C12.2669 37.2115 12.4182 37.2115 12.8033 37.3261" stroke="#0012D4" stroke-linecap="round"/>
<path d="M12.001 37.2115C12.001 36.3004 11.9254 34.6949 11.6773 33.9099C11.3562 32.8938 10.0208 31.3348 9.46208 30.681C9.03118 30.1767 8.56533 29.7258 7.821 29.0583C7.35527 28.6406 6.73173 28.5408 6.102 28.2738C5.26055 27.917 4.40534 27.663 3.52349 27.3759C2.84782 27.156 2.22564 27.051 1.57472 26.8029C1.27616 26.6891 1.00057 26.5548 0.79085 26.4775C0.093519 26.2203 0.845858 28.1925 1.01776 28.805C1.25801 29.6611 1.53346 30.1796 1.81939 30.7343C2.28572 31.6389 2.75281 33.04 3.44155 34.1139C3.77613 34.6355 4.81217 35.3722 6.44924 36.4018C9.89698 37.5553 10.8138 37.4797 11.616 37.4218C11.8085 37.4029 11.9598 37.3651 12.3448 37.2115" stroke="#0012D4" stroke-linecap="round"/>
<path d="M13.0325 36.9823C13.0325 36.9067 13.0325 35.3172 13.0703 32.8166C13.1067 30.4082 14.8638 28.7334 15.3417 28.3885C15.627 28.236 15.9341 28.0825 16.2201 27.9301C16.3547 27.8533 16.4682 27.7776 16.8143 27.6997" stroke="#0012D4" stroke-linecap="round"/>
<path d="M16.9288 27.5851C16.9288 28.2291 17.0045 29.4175 17.2325 29.6083C17.3636 29.718 17.6119 29.7235 17.7477 29.8375C18.2708 30.2768 17.8846 31.0208 17.8645 31.9554C17.86 32.1687 17.9213 32.2814 17.9975 32.3588C18.3365 32.7029 19.2163 32.3616 19.7354 32.188C19.974 32.1082 19.8695 32.8922 20.1164 33.2933C20.7081 34.2542 22.3884 32.5152 22.7534 31.9995C23.1958 31.3745 23.0027 30.7205 23.0789 30.0324C23.1086 29.7638 22.927 29.5344 22.8881 29.3058C22.7878 28.7176 23.7647 28.6566 24.0512 28.2945C24.4448 27.797 23.8071 26.9777 23.747 26.3646C23.6967 25.8526 24.7572 25.944 25.1772 25.6203C25.361 25.4786 25.3703 25.2587 25.333 25.1046C25.1994 24.5517 24.3435 24.5298 23.8444 24.225C23.1492 23.8004 23.9172 22.0522 24.2432 21.3984C24.3007 21.283 24.3389 21.1698 24.226 21.1113C23.4468 20.7079 22.5855 21.2821 21.0797 20.6925C20.5037 20.4669 20.101 20.5177 19.834 20.6317C19.1639 20.9178 18.1207 21.7771 17.2365 22.1966C16.3665 22.6093 17.3105 23.5729 17.2165 23.7826C17.0255 24.2089 16.1679 24.0703 15.6717 24.1843C15.4688 24.2309 15.4024 24.374 15.3634 24.5837C15.1985 25.4712 15.5926 25.8638 15.7244 26.3228C15.9708 26.5514 16.2023 26.7817 16.3547 27.0104C16.4315 27.1255 16.5071 27.239 16.585 27.4705" stroke="#0012D4" stroke-linecap="round"/>
</svg>
