<svg width="17" height="39" viewBox="0 0 17 39" fill="none" xmlns="http://www.w3.org/2000/svg">
<path d="M6.42908 9.38306C6.42908 9.83687 6.4669 10.2976 6.58092 11.7003C6.67639 12.8747 6.77059 14.9939 6.84794 16.1605C6.96366 17.9057 7.26795 18.9659 7.36479 19.7515C7.42332 20.2263 7.46048 21.2178 7.47939 22.4578C7.49198 23.2836 7.57508 24.8415 7.59399 26.808C7.60716 28.1773 7.76532 29.1676 7.82319 29.7607C7.91421 30.6934 7.99452 32.2229 8.01457 34.4146C8.02532 35.5891 7.99452 36.4264 8.16642 36.9043C8.22372 37.0384 8.29935 37.1897 8.35723 37.3243C8.4151 37.459 8.45292 37.5724 8.49188 37.8039" stroke="#0012D4" stroke-linecap="round"/>
<path d="M8.60643 37.4601C8.94794 35.5933 9.86245 33.9144 10.5707 32.7472C11.6135 31.0286 13.069 30.2082 14.0471 29.4593C14.6943 28.9637 15.2899 28.5981 15.5758 28.5219C15.7111 28.4858 15.824 28.4457 15.8824 28.7287C16.2646 30.5795 15.3335 31.9914 14.0562 33.6709C12.2622 36.0299 11.0153 36.2751 10.4423 36.5233C9.75473 36.8092 9.06713 37.2676 8.60815 37.5736C8.49298 37.6503 8.37953 37.726 8.26263 37.8039" stroke="#0012D4" stroke-linecap="round"/>
<path d="M8.14804 37.3455C7.99563 35.8568 7.84321 35.1726 6.87312 32.3913C6.043 30.0113 4.56106 29.3257 4.02473 28.8668C3.07653 28.0553 1.65938 27.9116 0.94943 27.7763C0.815932 27.7509 0.70132 27.8703 0.642874 27.9849C0.107054 29.0355 1.23077 31.5306 1.51957 32.6245C1.71472 33.3637 2.26218 33.8662 2.85523 34.3641C3.40626 34.8268 4.17142 35.356 5.33575 36.0064C5.85145 36.1605 6.31215 36.2751 6.9774 36.3897C7.41575 36.4287 8.05866 36.4287 8.72104 36.4287" stroke="#0012D4" stroke-linecap="round"/>
<path d="M6.19982 9.38303C5.05726 9.26843 4.13931 9.34406 3.37607 9.3263C2.59152 9.30804 2.34238 8.35392 2.05645 7.70528C1.82597 7.18243 1.73041 6.408 1.78714 5.68259C1.84102 4.99365 2.76067 4.87695 2.89475 4.57211C3.13592 4.0238 2.42031 3.23816 2.34123 2.05262C2.32559 1.81802 2.45469 1.7071 2.60711 1.61084C3.38814 1.11756 4.47624 1.09514 5.03319 0.865365C5.26982 0.767744 5.43429 0.520991 5.73913 0.501509C6.41595 0.458253 6.77053 1.39768 7.22951 1.514C7.78005 1.65353 8.10677 0.751337 8.87115 0.558809C9.15944 0.486197 9.17943 1.43206 9.27397 2.27208C9.32757 2.74824 9.9037 2.77403 10.1707 2.88806C10.7832 3.14961 10.8938 4.26269 11.3752 4.83454C11.4991 4.98181 11.3202 5.25283 11.1488 5.46427C10.4571 6.3179 9.56449 6.32549 9.04764 6.55527C8.32005 6.87873 8.18699 8.0422 7.99618 8.69313C7.61399 9.26728 7.23352 9.6489 6.79345 9.87867C6.69719 9.95488 6.62155 10.0683 6.54362 10.2998" stroke="#0012D4" stroke-linecap="round"/>
<path d="M8.37726 35.3973C8.33944 35.4351 8.30163 35.4729 8.33887 35.4546C9.41003 34.9272 10.8182 32.6538 11.6938 30.9794C12.8671 28.7357 13.5331 27.1862 13.7428 26.7295C14.233 25.6621 14.0683 24.8197 14.0884 22.5707C14.0963 21.6802 13.7658 20.3182 13.4208 19.4696C13.3687 19.3413 13.2684 19.2409 13.116 19.2203C12.2726 19.1062 11.6273 20.0386 11.1105 20.5543C10.4524 21.2109 10.0986 21.6819 9.58228 22.1971C9.46487 22.3142 9.44763 22.4452 9.67396 22.1632C10.4258 21.2268 11.0876 19.8942 11.393 18.8828C11.7785 17.6061 11.3592 15.8832 10.9581 14.4896C10.2446 12.0109 9.52556 11.6773 9.1617 11.1994C8.95255 10.9141 8.68439 10.607 8.39846 10.3021C8.26381 10.1486 8.15035 9.99729 7.80426 9.84143" stroke="#0012D4" stroke-linecap="round"/>
<path d="M7.23126 32.0739C6.69722 31.0058 6.31675 30.4717 5.81996 29.8042C5.03096 28.744 4.52211 27.9895 4.11929 27.3775C3.69928 26.7395 3.41278 26.1169 3.1257 25.5628C2.88528 25.0988 2.53494 24.4002 2.28511 23.6914C2.01486 22.9247 1.57917 22.1839 1.27319 21.4957C0.751867 20.3232 0.967209 19.6237 0.909336 18.9739C0.824223 18.0183 0.851463 17.2916 1.04113 17.1197C1.75463 16.473 2.83519 17.7855 3.71303 18.3952C4.00277 18.5964 4.28374 18.9269 4.32614 19.0071C4.67017 19.658 3.18358 17.9803 2.78248 16.9323C2.27583 15.6085 2.68392 14.0129 2.89478 13.0909C3.03773 12.4659 3.56176 11.6796 3.90671 11.0659C4.25051 10.4534 4.55649 10.0729 4.91862 9.51881C5.01489 9.38416 5.09053 9.2707 5.16845 9.15381" stroke="#0012D4" stroke-linecap="round"/>
</svg>
