<svg width="30" height="39" viewBox="0 0 30 39" fill="none" xmlns="http://www.w3.org/2000/svg">
<path d="M15.8152 11.9984C15.7396 14.2492 15.586 15.5441 15.2628 18.3289C15.1548 19.26 14.9752 19.9024 14.8612 20.645C14.7281 21.5117 14.3655 23.0275 14.079 24.7454C13.8372 26.1956 13.7524 28.1066 13.6573 29.3758C13.6118 29.9824 13.6 30.637 13.5427 31.4736C13.3573 34.1804 13.8281 35.794 14.2853 37.0712C14.4767 37.7766 14.6303 38.2407 14.7449 38.3181C14.7838 38.282 14.7838 38.0929 14.7838 37.8981" stroke="#0012D4" stroke-linecap="round"/>
<path d="M15.9298 11.8838C14.8995 10.8547 14.4044 9.29729 14.0033 7.0494C13.3429 3.34826 14.1328 2.30094 14.4388 1.49588C14.5482 1.20801 14.7826 0.997939 15.0302 0.78822C15.2843 0.572878 15.6605 0.500574 16.0982 0.500001C16.3497 0.499671 16.6495 0.6507 16.8999 0.898236C17.4437 1.4358 17.6476 2.66996 17.8195 4.40214C18.0318 6.54061 17.8023 8.09857 17.5365 9.03027C17.0437 10.4536 16.6942 11.4999 16.6179 11.8809C16.5796 12.0729 16.5417 12.262 16.3882 12.686" stroke="#0012D4" stroke-linecap="round"/>
<path d="M16.3882 12.686C16.4638 12.3078 16.9566 11.1297 18.0035 9.18612C19.7511 5.94141 20.7407 5.62205 21.3326 5.01009C22.0078 4.31201 23.106 4.05432 24.1014 3.57701C24.2961 3.4836 24.4079 3.44235 24.5231 3.51742C24.8158 3.70817 24.8308 4.65712 24.6222 6.02888C24.4041 7.46351 23.3077 8.82054 22.0139 10.3442C20.447 12.1893 19.1397 12.9908 18.8922 13.1244C18.1484 13.2968 17.2695 13.3736 16.8116 13.3547C16.6185 13.3358 16.5051 13.298 16.3882 13.6028" stroke="#0012D4" stroke-linecap="round"/>
<path d="M14.2108 25.4067C14.1351 25.4067 14.0595 25.4067 14.0773 25.3121C14.2113 24.5985 15.123 23.9214 15.908 23.2315C16.2423 22.9377 16.5016 22.6952 16.6357 22.5239C17.0089 22.047 16.5784 21.0175 17.4351 19.0538C17.9512 17.8707 19.0973 16.8529 20.8123 15.5751C21.8665 14.7897 22.7256 14.6365 23.5667 14.2916C24.439 13.9339 25.3637 13.6796 25.6118 13.698C25.8584 13.7162 25.7854 14.3638 25.7665 14.8978C25.7528 15.2845 25.2926 16.155 24.5683 17.4517C23.9895 18.488 23.4189 19.0635 22.5651 19.7282C20.7659 20.9602 18.9919 21.9664 17.9238 22.3102C17.4608 22.4271 17.1583 22.4271 16.8466 22.4271" stroke="#0012D4" stroke-linecap="round"/>
<path d="M13.6378 34.4601C13.9037 32.4007 14.4377 31.3315 15.7528 29.6721C16.3141 28.9637 16.5395 28.1227 17.0735 27.3767C17.3326 27.0147 18.2528 26.367 19.8142 25.3757C21.4822 24.3168 23.1817 23.9948 24.3254 23.7278C26.171 23.2969 27.3486 23.5341 28.5502 23.592C28.8398 23.6059 29.0286 23.6487 29.1828 23.6871C29.3369 23.7255 29.4504 23.7633 29.4521 23.9908C29.4644 25.6193 27.7382 26.8919 26.9916 27.6769C26.5952 28.0937 26.0926 28.2705 25.3528 28.6126C23.8033 29.3292 21.9727 29.6457 20.6193 29.8176C18.7729 30.0522 18.1485 29.6102 17.4414 29.3994C17.2684 29.3421 17.1171 29.2664 16.9635 29.1518C16.81 29.0372 16.6587 28.8859 16.5028 28.8447" stroke="#0012D4" stroke-linecap="round"/>
<path d="M13.867 26.6673C12.7222 25.8662 12.2649 25.4846 11.4255 24.6652C10.8139 24.0682 10.3167 23.5753 9.45835 22.945C8.70587 22.3925 7.45399 22.2758 6.45984 22.1027C5.59147 21.9516 3.9839 21.9687 2.86827 22.1016C1.89371 22.2177 0.997416 23.227 0.593451 23.7811C0.436791 23.9959 0.496613 24.373 0.62955 24.8302C0.931576 25.8691 2.17321 26.3212 2.8442 26.7423C3.32283 27.0427 4.72651 27.1257 6.6793 26.9165C7.83893 26.7923 9.12716 26.4014 10.1196 26.3046C10.3511 26.2856 10.5024 26.2478 10.8072 26.2283C11.112 26.2089 11.5658 26.2089 12.0334 26.3235" stroke="#0012D4" stroke-linecap="round"/>
<path d="M14.6692 19.7912C14.0206 19.1048 13.6401 18.4963 13.2 18.0545C12.8293 17.6823 12.6087 17.0821 12.0546 16.3939C11.6376 15.876 11.0822 15.2874 10.4502 14.7316C9.86007 14.2127 9.24862 13.5295 7.93301 12.9175C6.33241 12.173 5.61808 12.3812 5.06399 12.4368C4.68903 12.4744 4.69899 13.1043 4.7179 13.5043C4.7619 14.435 5.72581 15.3929 7.61384 16.9394C8.97358 18.0699 10.2709 18.6063 11.4134 18.7209C12.0265 18.7598 12.7073 18.7598 13.4086 18.7598" stroke="#0012D4" stroke-linecap="round"/>
<path d="M13.5232 33.3141C13.3719 33.086 12.8379 32.6288 12.2838 32.2838C11.6162 31.9022 10.8885 31.5573 10.5842 31.5C10.3934 31.4805 10.1287 31.4805 9.85596 31.4805" stroke="#0012D4" stroke-linecap="round"/>
<path d="M15.4714 12.2277C15.4336 11.9618 15.2055 11.4277 13.9873 9.50476C12.9493 7.86624 11.9601 7.64594 10.7207 6.93943C10.1848 6.63395 9.47782 6.72685 8.82918 6.78357C8.55389 6.80765 8.40745 6.95376 8.31062 7.10675C8.114 7.41738 8.17481 7.79492 8.32666 8.1943C8.56191 8.81304 9.31623 9.77636 10.2502 10.9396C11.6241 12.6506 12.87 13.2568 13.6539 13.5066C14.4389 13.7931 14.8205 13.9845 15.2199 14.0418C15.468 14.0613 15.8083 14.0613 16.159 14.0613" stroke="#0012D4" stroke-linecap="round"/>
</svg>
