<svg width="34" height="38" viewBox="0 0 34 38" fill="none" xmlns="http://www.w3.org/2000/svg">
<path d="M16.1994 37.1547C15.5885 36.0488 15.5117 35.2867 15.4166 34.5028C15.276 33.3442 15.1679 31.6607 15.0539 30.7777C14.9837 30.2343 14.8631 29.6323 14.729 28.4336C14.6717 25.3142 14.5571 24.8179 14.4998 24.3802C14.4803 24.1315 14.4803 23.8289 14.4803 23.6318" stroke="#0012D4" stroke-linecap="round"/>
<path d="M15.741 36.9255C15.2826 35.8964 15.2069 35.1332 14.8454 33.4755C14.4331 31.5851 12.8782 30.6248 12.5906 30.128C12.1708 29.4029 11.581 28.5276 11.2532 27.8738C10.9674 27.3037 10.1668 26.9186 9.64996 26.6315C9.04674 26.2965 8.14296 26.3067 7.24507 26.1726C6.12896 26.0059 4.67058 26.6092 3.78701 26.992C2.54145 27.5315 1.42051 29.2794 0.787348 30.7125C0.188321 32.0683 0.689365 33.4073 0.785056 33.9642C0.902357 34.647 1.67951 32.7655 2.40665 32.1335C3.33588 31.3258 4.88832 30.4323 5.44413 30.2982C5.99879 30.2409 6.72078 30.0885 8.18422 29.9739C9.15603 29.9349 10.5931 29.9349 12.0738 30.0495" stroke="#0012D4" stroke-linecap="round"/>
<path d="M15.3972 35.2065C15.5874 33.9092 16.7242 32.2406 17.6869 31.1972C17.8404 31.082 17.9917 30.9686 18.1264 30.8534C18.261 30.7382 18.3745 30.6248 18.606 30.5079" stroke="#0012D4" stroke-linecap="round"/>
<path d="M17.8037 30.9663C17.955 29.6048 18.3733 28.0715 19.097 26.4705C20.1811 24.0722 20.9713 23.5975 21.6783 22.9466C22.3663 22.3132 23.1487 21.9518 23.8557 21.6275C24.4699 21.3458 25.2115 22.1787 25.9174 22.4085C27.4349 22.9024 28.6059 23.1712 29.4906 23.4972C30.1903 23.755 31.3586 23.8977 32.5648 24.0324C32.7357 24.0515 32.2456 24.4707 31.4824 25.1383C30.9724 25.5843 30.3364 25.6557 28.7732 25.9038C27.6325 26.0849 25.7959 26.1897 24.7972 26.4768C23.8633 26.7453 22.8117 27.5626 22.3321 28.1374C21.7682 28.8131 21.283 29.3206 20.0436 30.1801C19.4517 30.4299 19.0655 30.5835 18.8368 30.717C18.7217 30.7749 18.6082 30.8127 18.3767 30.8517" stroke="#0012D4" stroke-linecap="round"/>
<path d="M14.5949 23.2881C13.1579 21.4728 12.1528 20.1595 11.6572 19.3407C11.1277 18.4659 10.8532 16.8808 10.5667 15.1824C10.3006 13.6049 10.5816 12.2177 10.8693 10.9926C11.2754 9.263 11.613 7.97749 12.0147 7.30249C12.1824 7.02075 12.8347 7.39532 13.3876 7.71906C14.7851 8.53726 15.6997 10.8287 16.1787 12.0905C16.4425 12.7854 16.6933 13.884 17.0944 15.4637C17.5867 17.4026 17.1551 19.0433 16.9838 19.8443C16.6199 20.8035 16.0893 22.1696 15.2854 23.4754C15.0935 23.7064 14.9044 23.8955 14.7095 23.9757" stroke="#0012D4" stroke-linecap="round"/>
<path d="M11.1569 8.61926C10.9277 7.29218 11.079 4.7664 11.3661 3.92351C11.6427 3.11123 11.691 2.2429 11.483 1.57363C11.4338 1.41544 11.2738 1.36277 11.083 1.3238C10.2205 1.14767 9.66941 1.58968 8.98296 2.1409C7.55074 3.29098 7.45304 4.26215 7.35621 5.06321C7.30091 5.52064 7.26052 6.17025 7.35506 7.33C7.50333 9.14881 7.98479 10.6397 8.25181 11.4212C8.86605 13.2191 9.8161 15.6786 10.1439 16.5055C10.3925 17.0217 10.5828 17.4801 10.8303 17.785C10.9644 17.9385 11.1157 18.0898 11.1569 18.3603" stroke="#0012D4" stroke-linecap="round"/>
<path d="M7.48969 8.27542C6.53851 7.97059 5.01433 7.89266 4.20639 8.23531C3.81525 8.4012 3.82363 9.45351 3.65173 10.5783C3.51009 11.5051 3.89583 12.8124 4.46768 14.2816C4.84107 15.2409 5.38678 15.6843 5.73 16.0086C5.97763 16.2426 7.36248 17.3942 9.44248 19.1882C11.1558 20.4609 11.6886 20.6889 12.4152 21.223C12.5321 21.3765 12.5321 21.5278 12.5321 21.6837" stroke="#0012D4" stroke-linecap="round"/>
<path d="M16.7723 13.2033C17.2663 10.7256 18.1819 9.19684 19.6127 7.86003C20.0837 7.41993 20.5897 7.28301 21.0664 7.18732C21.2752 7.14541 21.4297 7.20509 21.5643 7.3002C21.8499 7.50195 22.005 7.92936 22.1196 8.82152C22.3441 10.5696 22.0451 12.3564 21.7786 13.5952C21.3693 15.4984 20.8246 16.6711 19.9462 18.2027C19.5374 18.9154 19.0666 19.3894 18.4174 19.8484C18.1498 20.077 17.8817 20.2695 17.5957 20.403C17.4611 20.4609 17.3476 20.4987 17.1161 20.4231" stroke="#0012D4" stroke-linecap="round"/>
<path d="M22.2731 8.96306C24.0277 7.55118 24.9433 7.09278 25.5942 7.07158C25.9432 7.06022 26.1306 7.47211 26.283 7.73855C26.8431 8.71762 26.3621 10.9021 26.075 12.1489C25.7827 13.4184 24.8356 14.842 24.1864 15.7772C23.5461 16.6995 22.4702 17.8194 21.4967 18.774C20.481 19.77 19.2202 20.8792 18.532 21.4333C17.9206 21.9117 17.2708 22.1421 16.9087 22.161C16.7356 22.1799 16.5844 22.2177 16.0847 22.2567" stroke="#0012D4" stroke-linecap="round"/>
<path d="M11.1569 5.41045C11.2326 4.38134 11.5374 3.69374 12.4135 2.81648C13.2104 2.01854 13.7904 1.93577 14.4775 1.61088C15.1821 1.27766 15.624 1.09461 16.5397 1.13128C17.2444 1.1595 17.6846 2.88008 18.3555 4.08854C18.6036 4.71597 18.7584 5.21792 18.8157 5.76858C18.8351 6.16796 18.8351 6.81087 18.7205 7.47326" stroke="#0012D4" stroke-linecap="round"/>
<path d="M17.6891 2.5454C17.9161 1.86467 18.1842 1.36273 18.5458 1.03898C18.9905 0.64076 19.5205 0.482596 19.9399 0.501505C20.587 0.53068 20.9346 1.24354 21.2784 1.85493C21.8839 2.93162 21.8904 3.68911 22.1574 4.29993C22.4256 5.1411 22.578 5.82755 22.7121 6.57188C22.7316 6.85781 22.7316 7.27381 22.7316 7.70241" stroke="#0012D4" stroke-linecap="round"/>
</svg>
