<svg width="32" height="39" viewBox="0 0 32 39" fill="none" xmlns="http://www.w3.org/2000/svg">
<path d="M16.9523 38.4795C16.7254 38.2526 16.4194 36.6229 16.1329 33.896C15.9149 31.8212 16.149 30.1973 16.3209 28.9384C16.5084 27.5652 16.4939 26.7192 16.6458 25.7445C16.9526 23.7751 17.028 22.9351 17.0858 22.0378C17.1439 21.1372 17.1059 20.1457 17.048 18.5264C17.0099 17.4601 16.6475 16.3272 16.5134 15.2976C16.2411 13.2064 16.0745 12.4308 15.5599 9.76637C15.1629 7.71063 15.6138 5.93872 15.9754 4.77668C16.6804 2.51077 17.4864 1.61944 17.7534 1.02639C17.817 0.885043 17.9058 0.778276 17.9826 0.663103C18.0594 0.54793 18.135 0.434476 18.3252 0.546211C18.9019 0.884901 19.3188 1.8028 19.6431 2.6984C19.9439 3.52894 19.8941 5.42188 19.6855 8.09092C19.5091 10.3493 18.8249 11.7352 18.5968 12.6302C17.8703 14.2977 17.5643 14.6415 17.4308 14.8701C17.3729 14.9853 17.3351 15.0987 17.1815 15.3302" stroke="#0012D4" stroke-linecap="round"/>
<path d="M15.921 33.3224C15.5015 32.9798 15.2723 32.4469 14.6632 31.816C14.0136 31.1432 13.441 30.8035 12.9431 30.4019C12.3029 29.8854 12.1414 28.9333 10.258 27.0469C7.96355 24.749 6.52833 24.9956 5.07806 24.9755C3.77224 24.9575 2.55857 25.2225 1.50368 25.6047C1.11184 25.7467 0.757058 25.7588 0.622403 25.7777C0.0577077 25.857 1.59364 26.71 2.26119 27.55C3.46926 29.0702 4.03692 29.8432 4.61164 30.5503C5.34104 31.4477 7.27781 31.945 8.88623 32.024C10.4774 32.1023 11.1421 31.5278 11.7931 31.2041C11.9466 31.0706 12.0979 30.8815 12.1191 30.803C12.1403 30.7245 12.0268 30.7623 11.91 30.8012" stroke="#0012D4" stroke-linecap="round"/>
<path d="M12.3683 30.3428C10.9312 29.8134 9.54799 29.2003 8.51716 28.6468C8.12924 28.4336 8.01578 28.358 7.8817 28.319C7.74762 28.28 7.59635 28.28 7.44049 28.28" stroke="#0012D4" stroke-linecap="round"/>
<path d="M17.4108 22.3208C17.7133 21.5988 19.8403 19.8477 20.9806 19.0375C21.3675 18.7626 21.573 18.1597 22.1048 17.4371C22.9805 16.2471 24.1298 15.3336 24.8546 14.7612C25.9301 13.9119 27.2641 13.4599 28.484 12.8686C29.1713 12.5354 29.7097 12.3896 30.0523 12.275C30.2375 12.213 30.4706 12.236 30.5875 12.5764C30.9213 13.5484 30.6288 14.4879 30.136 15.1337C28.3306 17.4995 27.4222 17.8491 25.8597 18.6696C24.5561 18.9974 23.9453 19.0352 23.2422 19.0925C22.766 19.112 22.0475 19.112 21.3072 19.2266" stroke="#0012D4" stroke-linecap="round"/>
<path d="M16.4939 27.1341C15.2734 25.2649 14.6626 24.5005 14.2988 23.8519C13.7739 22.9163 13.5923 22.0962 13.3052 21.5204C13.1946 21.2986 12.9814 20.7588 12.5626 20.1285C12.0449 19.3496 10.7318 20.0288 8.80484 19.288C6.707 18.4814 6.22117 17.0172 5.85617 15.9072C5.31912 14.2742 5.79715 12.1994 5.98739 11.9323C6.0819 11.7997 6.25326 11.741 6.44464 11.702C7.48671 11.4898 8.69654 13.0336 9.78581 14.6174C10.5955 15.7947 11.1444 16.8544 11.7168 17.9615C11.8331 18.2686 11.871 18.5711 11.9094 18.8215C11.9477 19.0719 11.9856 19.261 12.2537 19.685" stroke="#0012D4" stroke-linecap="round"/>
<path d="M16.2648 25.988C16.0378 25.6855 15.3159 23.9413 14.3802 21.4401C13.8579 20.044 13.5923 19.4214 13.3436 18.6949C12.9914 17.6658 12.8267 16.8636 12.7316 15.9834C12.5591 14.3873 12.9413 12.5523 12.5041 10.8849C12.2625 9.9632 11.2659 8.84383 10.0804 7.56031C9.77481 7.22951 9.46667 7.15577 9.16183 7.1741C8.79378 7.19624 8.70114 8.36938 8.81459 10.0082C8.92508 11.6041 9.80474 13.1448 10.4918 14.4237C11.2201 15.4425 11.9455 16.0923 12.4033 16.4355C12.5964 16.5897 12.7099 16.7031 12.9413 16.9346" stroke="#0012D4" stroke-linecap="round"/>
</svg>
