<svg width="33" height="36" viewBox="0 0 33 36" fill="none" xmlns="http://www.w3.org/2000/svg">
<path d="M15.5624 7.34814C15.7137 8.60842 15.8168 9.53491 16.0314 10.8498C16.2013 11.8908 16.5737 13.677 16.7681 15.3047C16.9625 16.9323 16.9877 18.3438 16.9377 20.3565C16.8876 22.3691 16.7616 24.94 16.6589 26.5669C16.5561 28.1938 16.4805 28.7988 16.4164 30.0682C16.3522 31.3376 16.3018 33.2533 16.2758 34.1519C16.2499 35.0505 16.2499 34.874 16.2499 34.6923" stroke="#0012D4" stroke-linecap="round"/>
<path d="M16.7081 13.6877C15.9015 13.4357 15.0071 12.9278 13.9665 12.0146C12.6868 10.8918 11.9993 9.99704 11.6067 9.56702C10.859 8.74808 10.4457 7.88513 10.2555 7.06251C9.90048 5.52687 9.8339 4.32046 9.84651 3.95193C9.86482 3.41635 10.1135 3.07241 10.38 2.62711C10.5279 2.38008 10.8505 2.18105 11.2313 1.9775C11.6222 1.76853 12.1482 1.8488 12.5679 1.88661C13.0236 1.92766 13.0923 2.50872 13.3084 2.99374C13.5579 3.55354 13.575 1.97865 14.0711 1.30383C14.2426 1.07055 14.4412 0.933001 14.6947 0.793225C15.7928 0.187974 17.6216 0.677127 18.0814 0.867696C18.6902 1.12001 19.2516 2.04892 19.5208 2.61069C19.8308 3.25738 19.5602 4.2395 19.1939 5.62962C18.893 6.77172 18.2984 8.78412 17.9115 9.99933C17.1412 12.0822 17.0396 12.5405 17.001 12.8464C16.9884 12.9232 16.9632 12.9988 16.7845 13.2295" stroke="#0012D4" stroke-linecap="round"/>
<path d="M16.7845 13.2294C16.9358 12.6749 17.1901 12.0364 17.6843 11.1992C18.3628 10.0499 19.1752 9.23475 19.595 8.80244C19.8539 8.53572 20.1682 8.16543 20.8147 7.63229C21.6578 6.93714 22.6368 6.6615 23.2975 6.54693C24.2293 6.38535 24.6502 6.63477 25.0829 6.86353C25.2545 6.95428 25.44 7.01667 25.6305 7.14346C25.8323 7.27772 25.9494 7.57577 26.064 7.94354C26.2113 8.41646 26.0525 8.82382 25.9509 9.01439C25.8596 9.18565 25.6714 9.38369 25.5182 9.53683C25.2212 9.83384 26.8362 8.95367 27.4633 8.88837C28.0313 8.82921 28.6724 9.45931 29.042 9.94279C29.3491 10.3444 29.4637 10.935 29.4385 11.4437C29.4096 12.0265 28.5013 12.7406 27.3686 13.4307C26.9794 13.6678 26.3443 13.8359 26.0705 13.978C25.7966 14.12 25.8723 14.1704 25.9868 14.2342C26.2491 14.3802 26.4841 14.5271 26.6617 14.7299C26.9118 15.0156 27.0699 15.4926 27.1463 16.0261C27.2918 17.0427 26.3611 18.1132 25.7867 18.7143C25.5359 18.9768 25.1879 19.1099 24.8831 19.2497C24.5872 19.3855 23.3891 19.391 21.7225 19.3024C20.8729 19.2573 20.075 18.631 19.108 17.9696C18.2129 17.3573 17.6782 15.9852 17.4597 15.205C17.2688 14.5798 17.1412 14.2743 17.0904 14.0837C17.0649 13.994 17.0397 13.9184 17.0137 13.8405" stroke="#0012D4" stroke-linecap="round"/>
<path d="M16.0971 13.4586C15.4624 13.3066 14.6505 12.901 13.5552 12.0868C12.5458 11.3364 11.4654 10.7608 11.0075 10.5573C10.0176 10.1172 9.27941 9.76942 8.38538 9.51279C7.96512 9.39215 7.14076 9.41044 6.50031 9.48644C6.01261 9.54431 5.33055 10.0704 4.88334 10.3262C4.41995 10.5914 4.00459 11.2161 3.88926 11.6617C3.68742 12.4417 4.28261 13.2279 4.30935 13.4823C4.3868 14.2191 3.08956 13.7381 2.45293 14.1567C2.11506 14.3788 1.96753 14.7555 1.85296 15.0981C1.71975 15.4964 1.94003 16.1281 2.23181 16.7891C2.46933 17.3273 2.95818 17.506 3.26294 17.6332C3.87459 17.8884 4.46058 17.4311 4.63893 17.367C4.94077 17.2584 4.4369 18.1911 4.43614 19.1199C4.43583 19.4972 4.63931 19.7462 4.81689 19.9494C5.01787 20.1793 5.32597 20.332 5.83237 20.5096C6.71735 20.82 7.8679 20.8423 8.7711 20.7915C9.69388 20.7396 10.6955 20.2075 11.7652 19.5587C12.271 19.2519 12.6325 18.7823 13.1924 18.3485C13.697 17.9574 13.9569 17.7114 14.3388 17.2795C14.7584 16.805 15.153 16.3381 15.4215 15.9043C15.6892 15.4712 15.842 15.0641 15.9188 14.7582C15.9191 14.6814 15.8939 14.6058 15.868 14.5279" stroke="#0012D4" stroke-linecap="round"/>
<path d="M16.3262 35.0742C16.5538 33.652 17.3146 32.129 17.7759 31.1945C18.0385 30.6627 18.5138 30.2134 18.8823 29.8574C19.1617 29.5876 20.0108 29.1456 21.1684 28.5857C22.2304 28.1755 22.9438 27.9204 23.2997 27.844C23.454 27.8181 23.5549 27.8181 23.7351 27.7417" stroke="#0012D4" stroke-linecap="round"/>
<path d="M18.9232 29.7276C18.8223 29.2739 18.7704 28.6621 18.7956 28.001C18.8134 27.5357 19.3769 26.654 20.1147 25.5343C20.7033 24.641 21.8959 24.0281 22.6883 23.7199C23.6956 23.3282 24.8717 23.3116 25.8081 23.6664C26.256 23.8361 26.3573 24.3038 26.5089 24.3428C27.2767 24.54 27.5526 23.7959 27.9219 23.6305C28.3696 23.43 29.8608 23.388 30.9122 23.5148C31.5458 23.5912 31.8811 23.414 31.9334 23.4384C32.9907 23.9324 30.4841 25.4197 30.3168 26.1354C30.2474 26.4324 30.0266 27.3522 29.4048 28.7751C28.8315 30.0874 28.0651 30.6938 27.4449 31.0738C26.3263 31.7591 25.291 32.171 24.7827 32.2982C23.8146 32.5403 22.4672 32.3001 21.7011 32.0457C20.8002 31.7466 20.4783 31.3575 20.1464 31.1922C19.8153 31.052 19.4089 30.748 19.1531 30.3783C19.1019 30.2638 19.0515 30.1125 18.9232 29.9567" stroke="#0012D4" stroke-linecap="round"/>
<path d="M16.0971 34.845C15.6396 33.9552 15.2844 33.4473 14.7497 32.8992C14.3399 32.4792 13.8087 31.9961 12.7024 31.2326C12.3067 30.9596 11.5716 30.444 10.5664 29.8715C10.0905 29.5763 9.78502 29.3724 9.44169 29.1814C9.30001 29.1165 9.22439 29.1165 9.14648 29.1165" stroke="#0012D4" stroke-linecap="round"/>
<path d="M12.8891 31.026C12.8883 30.7473 13.2435 30.2393 13.5376 29.4511C13.9207 28.4241 13.2725 27.6424 12.9414 27.196C12.5814 26.7105 12.1528 26.4203 11.7957 26.0625C11.3816 25.6474 10.3502 25.2746 9.17588 25.0054C8.27981 24.7999 7.64636 25.1692 7.31449 25.3857C7.14153 25.4986 7.059 25.6787 6.983 25.8058C6.94588 25.868 6.85659 25.8826 6.75463 25.8452C6.25009 25.66 5.76436 25.1219 5.316 24.7766C4.64907 24.2631 3.3431 24.3046 2.92339 24.2412C2.20106 24.1321 1.58636 24.6345 0.824083 25.0035C0.651626 25.0869 0.543004 25.0684 0.528874 25.0936C0.297084 25.5071 1.58178 26.2859 2.16838 26.9252C2.56513 27.3576 3.26214 27.6134 3.74715 27.6779C4.25685 27.7457 4.48652 27.7669 4.56328 27.8303C4.80552 28.0304 3.77847 28.5024 3.41872 28.9496C3.29707 29.1009 3.2652 29.4702 3.32821 30.0289C3.39431 30.615 3.89915 31.1001 4.53311 31.6203C5.38088 32.3159 6.16535 32.7561 6.57208 32.9722C7.27951 33.3482 8.50488 33.3175 9.43595 33.1529C10.2549 33.0081 10.6725 32.656 11.1557 32.2882C11.7426 31.7394 11.997 31.5615 12.2002 31.3965C12.3025 31.3071 12.4033 31.2063 12.66 31.026" stroke="#0012D4" stroke-linecap="round"/>
</svg>
