<svg width="28" height="39" viewBox="0 0 28 39" fill="none" xmlns="http://www.w3.org/2000/svg">
<path d="M15.1739 9.03345C14.0816 9.11147 13.3629 9.19067 12.9704 9.40582C12.3265 9.75881 12.0224 10.3326 11.8846 10.5684C11.7557 10.7892 11.7457 11.393 11.7848 12.1608C11.8216 12.8858 12.5709 13.3648 13.2406 13.7608C13.7427 14.0578 14.5379 14.5067 15.7804 14.6492C16.6492 14.7488 17.2592 13.6863 17.6747 13.1337C17.9233 12.8031 18.0501 12.4628 18.0897 12.188C18.1868 11.5138 17.7368 10.8894 17.1073 10.1783C16.5547 9.86212 16.0038 9.54649 15.5108 9.36917C15.3725 9.31007 15.2165 9.23205 14.8193 9.03345" stroke="#0012D4" stroke-linecap="round"/>
<path d="M11.7457 9.97911C10.3685 9.3112 9.50439 8.05696 8.92988 6.67386C8.3768 5.34238 8.75019 3.83674 9.00612 3.00747C9.22535 2.29713 9.45947 1.82475 9.89154 1.3318C10.1944 0.986233 10.6794 0.759647 11.2096 0.582327C11.8261 0.376154 12.4136 0.600059 12.7677 0.796293C13.108 0.984925 13.3593 1.42637 13.8109 1.7219C14.6552 2.27446 15.5238 1.39209 17.1374 0.936967C17.9348 0.71206 18.5607 0.954699 19.0318 1.18994C19.6931 1.52018 20.2157 2.05645 20.5698 2.56713C21.2388 3.53218 21.0444 4.38052 21.0261 5.40366C21.0011 6.79511 20.0608 7.49426 19.1577 9.047C18.7629 9.50389 18.4461 9.78051 18.1316 10.0364C17.9732 10.1363 17.8172 10.1753 17.6564 10.3337" stroke="#0012D4" stroke-linecap="round"/>
<path d="M17.8928 10.8066C18.6766 10.2959 20.25 9.82309 23.0434 9.80122C24.3168 9.79125 25.0625 10.1754 25.514 10.4691C26.6866 11.2319 26.8345 12.6106 27.0934 13.6408C27.1893 14.0225 27.0745 14.3908 26.9568 14.7053C26.6998 15.3926 25.7398 15.9253 25.1056 16.2243C24.639 16.4444 24.0423 16.3626 23.1179 16.1079C22.1037 15.8284 21.3636 15.5352 21.0645 15.4956C20.1041 15.3684 22.6568 16.2823 23.132 16.735C23.67 17.2475 23.6853 19.1052 23.4701 20.4185C23.2965 21.4786 22.0729 21.4056 21.5592 21.6616C20.9685 21.9559 20.1034 22.4294 19.2552 22.4902C18.5582 22.5403 17.8952 21.6066 17.3041 20.9363C16.6809 20.2295 16.5547 19.597 15.7875 17.2191C15.6468 16.6014 15.6078 16.3248 15.5487 15.9909C15.5286 15.813 15.5286 15.6179 15.5286 15.4169" stroke="#0012D4" stroke-linecap="round"/>
<path d="M14.8193 14.8258C14.701 15.1769 14.7791 16.3579 14.7802 17.9331C14.7808 18.6847 14.1525 19.5095 13.8546 20.1437C13.585 20.7177 12.8522 21.285 12.3385 21.5439C11.9154 21.7572 11.4324 21.4458 11.0784 21.5238C10.422 21.6685 10.0174 22.8194 8.55926 23.0813C7.40597 23.2884 6.31025 22.3537 5.7582 22.0185C5.09653 21.6169 5.24397 19.8381 5.47921 18.1807C5.61341 17.2353 6.42374 16.6794 6.9953 16.1676C7.43219 15.7763 9.20884 14.9913 10.3839 14.2561C10.7953 14.0787 11.1535 13.9203 11.3893 13.7436C11.5081 13.6449 11.6251 13.5279 11.8639 13.4073" stroke="#0012D4" stroke-linecap="round"/>
<path d="M6.66256 16.2445C4.10324 16.4029 2.30285 15.2302 1.16741 14.1586C0.724124 13.7402 0.673866 12.899 0.535557 12.1891C0.400875 11.4979 0.671502 10.887 0.966444 10.6116C1.39508 10.2113 1.81463 10.2156 2.01145 10.1571C2.47088 10.0205 2.24847 9.15402 2.36668 8.44533C2.51083 7.58114 3.58428 7.18458 4.62929 6.82758C5.58126 6.50236 6.42376 6.9056 6.93622 7.04273C7.60708 7.29925 7.96172 7.49549 8.21706 7.67281C8.35537 7.73309 8.51141 7.73309 8.90861 7.73309" stroke="#0012D4" stroke-linecap="round"/>
<path d="M15.1739 15.2987C15.0959 15.2987 15.0557 15.8449 15.1142 17.121C15.1892 18.7559 15.4104 20.2187 15.3518 21.2608C15.2591 22.9118 14.545 23.5713 13.5426 26.2027C13.188 27.1335 12.9693 28.723 12.6542 30.6729C12.4376 32.0135 12.2186 33.1844 12.1205 34.1295C12.1004 34.9907 12.0614 35.6692 12.0023 36.2958C11.9822 36.7663 11.9822 37.5465 11.9822 38.2321" stroke="#0012D4" stroke-linecap="round"/>
<path d="M12.3368 33.8582C12.9267 32.52 13.4764 31.8911 14.0881 31.4951C14.7075 31.0942 15.1715 30.196 15.7425 29.5269C16.6932 28.4128 18.0418 27.6378 19.4255 26.925C20.2724 26.4887 22.0208 26.2926 23.5233 26.763C24.278 26.9994 24.3142 27.9452 24.375 28.8111C24.4226 29.4875 24.5104 30.2692 24.8857 30.998C25.4062 32.0086 25.3001 32.6335 25.1836 33.3434C25.0788 33.9823 24.3189 34.1727 23.6096 34.4481C22.2351 34.9818 20.3422 34.5297 18.8634 34.0373C18.1264 33.7919 17.7368 33.3877 16.9702 32.7967C16.557 32.4822 16.044 32.0093 15.5126 31.5365C15.2933 31.3757 15.1763 31.3757 15.0557 31.3757" stroke="#0012D4" stroke-linecap="round"/>
<path d="M11.5093 33.5036C10.9998 32.5212 9.89921 31.6547 9.42163 31.1411C9.07268 30.7658 9.49965 29.9997 9.36253 29.2314C9.20463 28.3466 8.75254 27.8317 8.28028 27.3388C7.64955 26.6804 6.94152 26.2949 5.95739 25.841C5.0436 25.4195 3.67883 25.3469 2.4299 25.8369C1.91176 26.0402 1.65974 26.7229 1.42332 27.2933C1.12796 28.0058 1.65738 28.6143 1.65856 29.5204C1.65935 30.1226 1.18689 30.7019 1.12601 32.1778C1.10388 32.7143 1.49779 33.3026 2.02857 33.9522C2.79551 34.8908 4.0973 34.882 4.78826 34.9026C6.34132 34.9491 7.96052 32.4822 8.43396 31.9491C8.6698 31.6547 8.9074 31.3769 9.12373 31.1411C9.22303 31.0223 9.30106 30.9053 9.49965 30.9029" stroke="#0012D4" stroke-linecap="round"/>
</svg>
