<svg width="24" height="47" viewBox="0 0 24 47" fill="none" xmlns="http://www.w3.org/2000/svg">
<path d="M9.55132 18.8594C9.41028 18.8594 9.16134 18.8594 8.71794 18.6302C7.27499 17.8844 7.34608 16.5858 6.97053 15.551C6.63347 14.6223 6.55972 12.5023 6.75471 10.7613C6.85765 9.84212 7.12812 9.21154 7.41339 8.24995C7.60035 7.61976 7.87602 7.07468 8.5689 6.06021C9.27123 5.03189 9.87077 4.6141 10.0839 4.56068C10.1896 4.5342 10.2971 4.54251 10.4045 4.61303C10.941 4.96536 10.9039 5.71564 11.2592 6.49773C11.7086 7.4872 12.1134 8.41876 12.7897 10.1988C13.1027 11.0224 13.5387 11.5557 13.8063 12.3922C14.2455 13.7651 13.8613 15.9725 13.7363 16.5778C13.6347 17.0698 13.2588 18.1393 12.8469 18.8931C12.5137 19.5028 12.013 20.1373 11.4232 20.7805C10.8248 21.4331 10.1945 21.5647 9.34137 21.8147C8.34715 22.106 7.45293 21.46 6.88292 21.1581C5.81611 20.5932 5.13871 19.8958 4.74447 19.3952C4.38309 18.9364 3.89079 18.3637 3.53394 17.7931C3.15839 17.1927 2.85656 16.8316 2.58998 16.2979C2.07842 15.2737 1.89497 14.5173 1.64603 13.9292C1.36249 13.2593 1.36076 12.5942 1.34206 11.2255C1.33244 10.5212 1.50179 9.88892 1.87467 8.74944C2.19581 7.76809 2.74758 7.4294 3.24546 6.80651C3.72669 6.20446 4.31389 6.00412 4.88283 5.84279C5.49519 5.66914 6.0597 5.85988 6.32627 5.94856C6.77234 6.25093 7.12812 6.67723 7.37814 7.14039C7.41446 7.28303 7.41446 7.45932 7.62815 7.64095" stroke="#0012D4" stroke-linecap="round"/>
<path d="M12.1156 8.49569C12.045 8.49569 12.0087 8.24888 12.0616 7.78679C12.1517 6.99944 13.1092 6.61099 13.645 6.12913C14.2994 5.54065 14.9982 5.39725 15.6024 5.30857C15.8836 5.2673 16.3444 5.29041 16.6334 5.36093C17.398 5.54749 17.5282 6.42722 18.1142 7.77824C18.4004 8.43787 18.5603 9.09828 18.899 10.2719C19.0599 10.8294 19.1308 11.483 19.1319 12.9243C19.1325 13.6888 18.7761 14.3678 18.6335 14.9575C18.4666 15.6477 18.3487 16.2204 18.2061 16.7562C17.9949 17.5497 17.6009 18.3936 17.3166 19.141C16.9083 20.2147 16.3209 20.6736 14.6151 21.687C13.7415 22.2061 12.5472 22.4557 11.4782 22.4744C10.9414 22.3852 10.6208 22.35 10.4077 22.2966C10.3003 22.2784 10.1945 22.2784 9.9787 22.1715" stroke="#0012D4" stroke-linecap="round"/>
<path d="M2.9271 6.78621C2.785 6.68043 2.71341 5.90155 2.83735 5.0794C2.95974 4.26751 3.60234 3.61939 3.99392 3.08411C4.49906 2.39359 5.84176 1.58938 6.59287 1.14278C7.334 0.702107 8.12392 0.803021 8.64104 0.696713C9.43296 0.533911 10.0834 0.51882 12.9409 0.500122C14.154 0.492185 14.9255 0.873537 15.5676 0.945122C16.5979 1.05998 17.5966 2.04667 18.5582 2.79457C19.1981 3.2923 19.8745 4.10873 20.7314 5.07352C21.3629 5.78455 21.4814 6.3567 21.7303 6.89038C22.151 7.7922 22.193 8.35038 22.3543 8.90329C22.5402 9.5403 22.5861 12.3207 22.4975 13.7294C22.4682 14.1947 22.3019 14.7609 22.248 15.3139C22.2038 15.7666 22.0177 16.1862 21.7683 16.7733C21.391 17.6612 20.8788 17.932 20.3798 18.4123C19.9878 18.7896 19.5262 19.1778 19.0619 19.3044C18.8488 19.3573 18.5988 19.4289 18.2264 19.4823C17.9951 19.5005 17.6778 19.5005 17.3509 19.6073" stroke="#0012D4" stroke-linecap="round"/>
<path d="M11.154 22.2784C10.9403 22.9536 10.8698 23.522 10.9569 26.8561C11.0197 29.2617 11.6166 30.611 11.67 30.8418C11.9244 31.9406 12.1156 33.6016 12.2043 34.2068C12.272 34.6692 12.3293 35.1679 12.4179 36.0573C12.5067 36.9472 12.5429 37.4479 12.6316 38.1942C12.711 38.8623 12.685 39.4779 12.7385 40.2215C12.8372 41.5964 12.8624 42.8595 13.0403 43.5353C13.1477 43.9995 13.184 44.9215 13.184 45.9905C13.184 46.319 13.184 46.2133 13.184 46.1043" stroke="#0012D4" stroke-linecap="round"/>
<path d="M11.3676 30.2916C11.2255 30.079 10.8014 29.1591 10.3008 28.4592C9.86799 27.8541 9.16241 27.409 8.68055 26.9811C8.11549 26.4793 7.34609 26.0563 6.79318 25.6097C6.38829 25.2827 5.92081 25.1995 5.49291 25.1455C4.99054 25.0822 4.14295 24.9153 3.28714 24.7539C2.48794 24.6033 1.78921 24.8063 1.46921 24.9484C1.20681 25.0649 0.969723 25.3042 0.72078 25.5884C0.499671 25.8408 0.469699 26.3705 0.522586 26.9576C0.580008 27.595 1.7454 28.2552 2.39126 28.83C2.89981 29.2826 3.56386 29.9668 4.22468 30.5389C5.10151 31.2981 6.30758 31.6442 7.44332 31.7692C9.97762 31.7521 10.3334 31.6453 10.6 31.5742C10.7255 31.5384 10.8313 31.5032 11.154 31.4669" stroke="#0012D4" stroke-linecap="round"/>
<path d="M12.0087 31.8942C12.0087 31.6111 12.2203 30.8301 12.5061 30.0635C12.7551 29.3956 13.4639 28.1985 14.2823 26.8817C15.1015 25.5636 16.244 24.8084 17.1158 24.2395C17.9311 23.7074 18.7013 23.5968 19.804 23.5781C20.2006 23.5714 20.4482 23.7026 20.6261 23.8089C21.0247 24.0471 21.1609 24.6268 21.3746 25.1428C21.7359 26.0155 21.0925 26.8683 20.241 28.0415C19.1534 29.5398 17.7472 30.5736 16.8588 31.0715C15.6242 31.7635 15.1093 31.6442 14.3625 31.8045C14.1477 31.8579 13.9362 31.9284 13.598 31.9647C13.2599 32.0011 12.8015 32.0011 12.4361 32.0011" stroke="#0012D4" stroke-linecap="round"/>
</svg>
