<svg width="16" height="40" viewBox="0 0 16 40" fill="none" xmlns="http://www.w3.org/2000/svg">
<path d="M2.38514 9.48297C2.32414 9.60497 2.26221 9.75932 2.17025 10.1725C1.97818 11.0353 1.92301 12.5847 1.99927 14.5668C2.07713 16.5908 2.38514 17.7993 2.46139 18.5036C2.61146 19.8897 2.90826 20.9418 3.01594 21.2953C3.1127 21.613 3.36854 22.477 3.86024 23.7991C4.65203 25.9281 5.03403 27.1324 5.23413 27.8727C5.46091 28.7117 5.58673 30.6353 5.72767 31.755C5.76648 32.0633 5.80485 33.3174 5.77435 35.1031C5.75087 36.4776 5.498 37.3897 5.34319 38.1018C5.28173 38.3176 5.2503 38.5644 5.2808 38.6887C5.3113 38.6605 5.3723 38.447 5.43515 38.227" stroke="#0012D4" stroke-linecap="round"/>
<path d="M4.97302 38.5967C5.0026 38.4137 5.3723 37.7372 5.75725 36.4761C6.04301 35.5399 6.14312 34.7186 6.18979 32.7971C6.20673 32.0998 6.26697 30.7517 6.25172 29.0118C6.24474 28.2162 6.17454 27.8773 6.03729 27.1578C5.76008 25.7045 5.31222 24.612 5.26601 23.8157C5.17746 22.29 5.2198 21.0693 5.17358 19.6626C5.1354 18.5004 5.15787 16.4259 5.17312 15.2965C5.19339 13.7955 5.3113 13.2447 5.41943 12.4743C5.61749 11.0633 5.98969 8.9617 6.06641 8.46862C6.19937 7.61396 6.17454 6.44221 6.25126 5.57249C6.26697 5.41814 6.26697 5.23514 6.28222 5.07987C6.29747 4.9246 6.32797 4.80259 6.45182 4.58447" stroke="#0012D4" stroke-linecap="round"/>
<path d="M11.5352 13.4572C11.2588 13.826 11.0121 14.3168 10.7967 14.918C10.4936 15.7642 10.4889 16.4721 10.4108 17.1057C10.3248 17.8033 10.1802 18.413 10.0721 19.8243C9.99971 20.7691 10.0564 22.5407 10.0411 23.5283C10.0196 24.9209 9.87153 25.3467 9.70286 26.2086C9.60554 26.7059 9.47226 27.3782 9.08731 28.503C8.84071 29.2236 8.54801 29.968 8.0406 31.6732C7.7215 32.7456 7.43892 33.1418 7.20739 33.6039C6.87427 34.2689 6.54609 35.3582 6.2679 36.1294C6.06181 36.7008 5.77527 37.3619 5.60521 37.8555C5.559 37.9793 5.498 38.1013 5.46657 38.2252C5.43515 38.349 5.43515 38.471 5.43515 38.5967" stroke="#0012D4" stroke-linecap="round"/>
<path d="M5.15787 38.9664C5.67914 38.5671 6.35754 38.2584 7.60204 37.123C8.438 36.3603 9.30958 34.5448 9.83964 33.3927C10.3019 32.388 10.4556 31.944 10.6257 31.4819C10.8393 30.9014 11.0102 30.1583 11.1803 29.6181C11.417 28.8661 11.5352 27.9401 11.6119 27.0801C11.8422 24.4979 11.72 23.9345 12.0421 22.5971C12.1507 22.1784 12.3346 21.7477 12.581 21.2398C12.6748 21.0369 12.7053 20.9454 12.8291 20.6663" stroke="#0012D4" stroke-linecap="round"/>
<path d="M11.8327 10.5077C11.3476 10.4549 10.9286 10.5077 10.6512 10.5599C10.4073 10.6058 10.231 10.8222 10.0206 11.0062C9.84193 11.1625 9.69187 11.2951 9.63886 11.4922C9.5655 11.7649 10.1617 12.226 10.4263 12.4515C10.6887 12.6749 10.9255 12.885 11.116 13.0294C11.3814 13.2306 11.7531 13.4108 11.9764 13.4569C12.1579 13.4943 12.4744 13.503 12.823 13.5357C13.4717 13.5966 13.7363 13.4376 14.0191 13.3457C14.0812 13.3256 14.1178 13.2933 14.1444 13.1889C14.2158 12.9086 14.1584 12.6367 14.0213 12.3949C13.7829 11.9747 13.5412 11.6774 13.3061 11.4555C12.5165 10.6787 12.2544 10.6259 12.0698 10.5605C12.0302 10.5471 11.9912 10.5471 11.951 10.5471" stroke="#0012D4" stroke-linecap="round"/>
<path d="M13.7245 17.6806C13.2153 17.6412 12.2694 17.7453 11.8012 18.0474C11.6795 18.1259 11.6621 18.258 11.6424 18.4021C11.6193 18.5707 11.6617 18.744 11.7271 18.8882C11.8387 19.1343 12.0944 19.1909 12.2722 19.2634C12.471 19.3445 12.8803 19.4928 13.2699 19.5525C13.8054 19.6346 14.065 19.6772 14.5894 19.6971C14.9592 19.7112 15.1686 19.6906 15.4249 19.573C15.5147 19.5318 15.498 19.3761 15.4785 19.2319C15.4448 18.9823 15.2095 18.8638 15.0324 18.6929C14.8249 18.4928 14.7626 18.2726 14.6058 18.0562C14.3582 17.802 14.1454 17.6282 14.0341 17.6085C13.9748 17.6018 13.9097 17.6018 13.8427 17.6018" stroke="#0012D4" stroke-linecap="round"/>
<path d="M13.0151 19.8089L12.6998 20.7548" stroke="#0012D4" stroke-linecap="round"/>
<path d="M2.33445 9.24651C1.66484 9.04984 1.5336 8.89259 1.36294 8.66282C1.28572 8.55885 1.27033 8.39364 1.28983 8.20998C1.30934 8.13036 1.34836 8.07834 1.41398 8.01903C1.4796 7.95971 1.57064 7.89468 1.70386 7.78827" stroke="#0012D4" stroke-linecap="round"/>
<path d="M1.07327 8.4583C0.76113 8.30223 0.574317 8.13079 0.528402 7.96683C0.46842 7.75265 0.508105 7.59203 0.606438 7.40147C0.704586 7.21127 0.940848 7.1451 1.20353 7.05307C1.53811 6.93585 1.81973 6.73836 2.25425 6.61284C2.46183 6.55287 2.64896 6.54052 3.46104 6.53362C3.67456 6.53181 3.7789 6.57953 3.89694 6.61225C4.10099 6.6688 4.19943 6.97247 4.28495 7.27456C4.417 7.74099 4.48871 7.94516 4.53482 8.14222C4.58298 8.34804 4.60694 8.53634 4.60734 8.98859C4.60743 9.08934 4.56832 9.12751 4.53541 9.16062C4.3883 9.30861 4.10878 9.22053 3.52568 9.21363C3.35995 9.23314 3.17669 9.24654 2.94041 9.24004C2.8472 9.23353 2.80818 9.22053 2.76798 9.20713" stroke="#0012D4" stroke-linecap="round"/>
<path d="M3.95035 2.74357C4.02878 2.822 4.23805 3.00526 4.49463 3.1635C4.68095 3.27842 4.93407 3.34736 5.28247 3.34814C5.46405 3.34856 5.55284 3.17749 5.59225 3.09886C5.61099 3.06148 5.60565 3.02024 5.61215 3.01965C5.75488 3.00667 5.77591 3.33396 5.91385 3.52451C6.035 3.69187 6.19604 3.84631 6.58937 4.05657C6.86266 4.20266 7.28538 4.17501 7.51634 4.21481C7.80545 4.26464 8.035 4.32004 8.27147 4.35275C8.57339 4.39452 8.67899 4.29324 9.48437 4.50331C9.75914 4.57498 9.94017 4.43867 10.0714 4.36005C10.1672 4.30268 10.1904 4.2022 10.2101 4.06505C10.3045 3.40812 10.0592 2.79717 10.0135 2.54099C9.95715 2.22537 9.77149 1.81344 9.59335 1.52258C9.4748 1.32903 9.32456 1.14187 9.18602 0.937909C9.05504 0.74506 8.27856 0.577487 7.55181 0.50359C7.27423 0.475365 6.88259 0.614534 6.38246 0.792085C6.08528 0.897583 5.89572 0.982642 5.14216 1.51963C4.87081 1.71299 4.68735 1.92774 4.4897 2.09268C4.43709 2.13859 4.37206 2.20362 4.32555 2.25663C4.27904 2.30964 4.25303 2.34866 4.22623 2.38886" stroke="#0012D4" stroke-linecap="round"/>
</svg>
