<svg width="23" height="43" viewBox="0 0 23 43" fill="none" xmlns="http://www.w3.org/2000/svg">
<path d="M6.50043 11.2753C6.52105 11.3372 6.54168 11.3991 6.75857 12.1013C6.97545 12.8035 7.38798 14.1442 7.6108 14.8968C7.86902 15.7688 7.97863 16.1894 8.19677 17.0188C8.53907 18.3203 8.60429 19.2539 8.67711 19.472C8.82755 19.9227 8.7918 20.3571 8.83368 20.919C8.8709 21.4183 8.93806 21.8372 8.97931 22.3444C9.06284 23.3713 9.18808 24.191 9.19839 24.5133C9.20809 24.8163 9.25058 25.3349 9.26089 25.9799C9.26792 26.4197 9.31308 27.1456 9.33371 28.0719C9.35326 28.95 9.50059 29.6476 9.55247 30.5326C9.5979 31.3077 9.58372 31.9621 9.62529 33.2025C9.66062 34.2568 9.66685 36.1755 9.68779 37.2152C9.71082 38.3586 9.75061 38.9387 9.76092 39.6988C9.81311 40.3376 9.85436 40.8382 9.92749 41.0989C9.93812 41.172 9.93812 41.2545 9.93812 41.2145" stroke="#0012D4" stroke-linecap="round"/>
<path d="M9.18803 41.7771C9.02302 41.5295 8.85801 41.282 8.74207 41.103C8.62612 40.9239 8.56425 40.8207 8.52206 40.7367C8.47987 40.6526 8.45924 40.5907 8.43799 40.4645" stroke="#0012D4" stroke-linecap="round"/>
<path d="M10.1256 42.3396C10.1669 42.0095 10.2081 41.6795 10.2397 41.4579C10.2712 41.2364 10.2919 41.1332 10.3756 41.027" stroke="#0012D4" stroke-linecap="round"/>
<path d="M11.1257 40.5895C11.1875 40.7545 11.2494 40.9195 11.3432 41.1386C11.4369 41.3576 11.5607 41.6258 11.6882 42.0271" stroke="#0012D4" stroke-linecap="round"/>
<path d="M12.3757 42.2771C12.5201 41.7614 12.6645 41.2458 12.7698 40.9389C12.8751 40.632 12.937 40.5495 13.0008 40.5895" stroke="#0012D4" stroke-linecap="round"/>
<path d="M12.2507 42.2145C12.2507 42.0495 12.2507 41.6139 12.2404 41.0207C12.234 40.6532 12.1882 39.7432 12.1985 38.504C12.2032 37.9447 12.2507 37.2205 12.261 36.2211C12.265 35.8403 12.292 35.7167 12.3026 34.8279C12.3132 33.9391 12.3132 32.289 12.3235 31.3461C12.3389 29.943 12.417 29.5701 12.4589 29.0185C12.528 28.1079 12.6457 27.24 12.6986 26.6734C12.7124 26.5248 12.8126 26.1336 12.9064 25.4892C12.9933 24.8915 12.9795 24.2585 13.0523 23.5419C13.1933 22.1546 13.3333 21.5296 13.6036 20.7168C13.9934 19.5448 14.3533 18.6132 14.6143 17.8001C14.8235 17.1482 15.0834 16.3837 15.2084 15.6353C15.3183 14.977 15.2715 14.5268 15.3028 13.968C15.3685 12.7922 15.2721 11.8397 15.2096 11.3625C15.0576 10.2019 15.1259 9.77774 15.074 9.17365C15.0385 8.76032 15.0427 8.40141 15.0115 7.7395C15.0009 6.25255 15.0215 5.21311 15.0527 5.07811C15.0634 5.00498 15.0634 4.92247 15.1259 4.77496" stroke="#0012D4" stroke-linecap="round"/>
<path d="M11.1882 3.2749C10.2512 3.56617 9.71309 3.73243 9.14806 3.89931C8.79802 4.0027 8.31676 4.33496 7.79392 4.8353C7.14501 5.45629 7.25045 6.02381 7.19857 6.3882C7.1736 6.56363 7.24983 6.83572 7.40546 7.17887C7.67984 7.78383 8.24926 7.8164 8.70709 7.96204C9.01902 8.06126 9.37307 8.27393 9.68715 8.45175C9.92676 8.58741 11.5482 8.6502 12.6029 8.59832C13.3958 8.56707 13.8521 8.52519 14.208 8.47332C14.2915 8.46269 14.3946 8.46269 14.5009 8.46269" stroke="#0012D4" stroke-linecap="round"/>
<path d="M11.0632 3.39992C11.1032 3.35866 12.2632 3.27491 13.3811 3.22303C14.5884 3.167 15.4584 3.23303 15.7278 3.26428C16.5579 3.36058 16.936 3.33741 17.281 3.38929C17.7049 3.45303 18.2886 3.46242 19.0299 3.5868C19.5416 3.67266 19.8949 3.91994 20.3537 4.2009C20.6949 4.40985 21.1437 4.58623 21.5625 4.83656C21.7409 4.94319 21.8756 5.08688 21.99 5.21158C22.0955 5.32654 22.1263 5.50316 22.116 5.70067C22.0947 6.1086 21.6488 6.58509 20.7656 7.42795C19.8875 8.26592 18.8186 8.5027 18.2942 8.59802C17.5569 8.73203 16.6272 8.60895 16.3769 8.52551C16.1266 8.4627 15.9391 8.44207 15.8453 8.35925C15.8134 8.29706 15.8134 8.19393 15.8134 8.08768" stroke="#0012D4" stroke-linecap="round"/>
<path d="M15.1259 4.83746C15.1259 4.87872 15.1052 4.79684 15.074 4.55807C15.0634 4.42244 15.0634 4.25743 15.0737 4.13118C15.084 4.00492 15.1046 3.92241 15.1259 3.7124" stroke="#0012D4" stroke-linecap="round"/>
<path d="M10.2506 3.46241C10.875 3.15051 11.1657 2.90113 11.4476 2.59892C11.7193 2.30757 12.102 1.81982 12.6654 1.26604C13.1407 0.798902 13.8746 0.608499 14.2286 0.525057C14.6341 0.429518 15.1871 0.6285 15.4478 0.76382C15.7349 0.912897 16.1647 1.04477 16.5103 1.22197C16.8684 1.40552 17.1247 1.71106 17.4163 2.05452C17.8548 2.52423 18.0623 2.77362 18.2807 2.98176C18.3754 3.06614 18.4373 3.10739 18.5636 3.21239" stroke="#0012D4" stroke-linecap="round"/>
<path d="M0.500061 12.5879C1.39449 11.9222 1.85264 11.6303 2.32047 11.36C3.27561 10.8081 3.66524 10.7965 3.94713 10.6612C4.23879 10.5212 4.66404 10.3803 4.99937 10.2237C5.26597 10.0992 5.56159 9.984 5.96755 9.89025C6.29086 9.81558 6.80916 9.63023 7.23856 9.55679C7.94262 9.43637 8.56176 9.35897 9.22711 9.3274C9.70911 9.30454 10.2494 9.23396 11.0185 9.22302C11.3824 9.21785 11.6244 9.37897 11.8851 9.41053C12.0426 9.42961 12.1876 9.50398 12.302 9.59742C12.4163 9.69083 12.4589 9.83712 12.4901 9.97213C12.5639 10.2909 12.1895 10.5865 11.7732 10.9925C11.3922 11.364 10.2994 11.6278 9.69963 11.8166C9.42451 11.9032 9.12679 11.9629 8.72083 12.0666C8.42464 12.1423 8.12673 12.1916 7.82453 12.2751C7.50751 12.3626 7.12668 12.3791 6.3057 12.6079C5.94677 12.7079 5.60659 12.7542 5.22064 12.8479C4.70141 12.974 4.29402 13.1292 3.94932 13.1607C3.54234 13.198 3.00145 13.2542 1.09103 13.2548C0.687669 13.2549 0.626318 13.1929 0.584128 13.1407C0.541938 13.0885 0.521312 13.0267 0.521 12.9639C0.520687 12.901 0.541313 12.8392 0.593191 12.7867C0.874457 12.6298 1.06197 12.5466 1.19697 12.4429C1.2701 12.3804 1.35261 12.2979 1.56262 12.0879" stroke="#0012D4" stroke-linecap="round"/>
<path d="M6.06287 10.0878C6.06287 10.129 6.06287 10.2534 6.10412 10.4922C6.22788 10.7928 6.35413 11.0659 6.43726 11.2531C6.47914 11.3372 6.52039 11.3991 6.6254 11.5253" stroke="#0012D4" stroke-linecap="round"/>
<path d="M1.56262 11.5879C2.04077 10.9435 2.41517 10.4441 2.6555 9.86122C2.99862 9.02905 3.37397 8.58896 3.95619 7.69547C4.29749 7.17172 4.60279 6.92262 4.87437 6.66135C5.10444 6.44002 5.37408 6.29633 5.75848 6.22321C6.68728 6.23321 6.87479 6.29571 6.99949 6.33727C7.0623 6.35821 7.12418 6.37884 7.18793 6.40009" stroke="#0012D4" stroke-linecap="round"/>
<path d="M14.9563 8.68181C14.9215 8.68181 14.8867 8.68181 15.0862 8.67312C15.2857 8.66442 15.7204 8.64703 15.9792 8.62938C16.238 8.61172 16.3075 8.59433 16.3792 8.57642" stroke="#0012D4" stroke-linecap="round"/>
</svg>
