<svg width="36" height="53" viewBox="0 0 36 53" fill="none" xmlns="http://www.w3.org/2000/svg">
<path d="M14.8911 9.62001C14.2097 10.1735 13.8975 10.4575 13.6907 10.6428C13.3877 10.9142 13.0438 11.2822 12.6044 11.7785C12.2172 12.2159 11.7364 12.8164 11.6575 13.0307C11.6425 13.0715 11.6503 13.1158 11.6784 13.1657C11.8045 13.3892 12.2584 13.3725 12.5592 13.4149C12.6883 13.4331 12.8434 13.4578 13.0628 13.3733C13.7268 13.1178 13.7389 12.7619 13.9521 12.6267C14.0496 12.5648 14.1798 12.619 14.2862 12.6614C14.5622 12.7715 14.6489 13.2011 14.8405 13.3507C14.9153 13.4091 15.0186 13.3584 15.1177 13.309C15.3843 13.1759 15.445 12.961 15.5301 12.8474C15.5666 12.7986 15.6151 12.79 15.658 12.7968C16.0676 12.862 16.3968 13.6275 16.5812 13.7625C17.0063 14.0735 17.818 13.6718 18.2084 13.6495C18.4233 13.6371 18.6282 13.7563 18.841 13.7352C18.9429 13.7251 19.0256 13.6718 19.0691 13.5516C19.3469 12.7835 18.8005 12.0233 18.6725 11.6683C18.5322 11.2788 18.3459 11.0425 18.2176 10.8219C18.1149 10.6455 18.0329 10.4737 17.4519 9.88524C17.2911 9.72236 17.166 9.64901 17.0313 9.54965C16.3319 9.44944 15.1623 9.47759 14.977 9.49912C14.9341 9.50616 14.8919 9.52023 14.8484 9.57737" stroke="#0012D4" stroke-width="0.5" stroke-linecap="round"/>
<path d="M16.5115 9.49209C16.7085 8.95737 16.9648 8.52711 17.2556 8.25036C17.5042 8.04398 17.6624 7.94292 17.7474 7.91456C17.7903 7.90027 17.8325 7.8862 17.876 7.8717" stroke="#0012D4" stroke-width="0.5" stroke-linecap="round"/>
<path d="M12.759 13.2872C12.6456 13.4569 12.5885 14.2475 12.6803 14.814C12.7349 15.1501 12.9151 15.404 13.0144 15.5893C13.1246 15.7947 13.3552 15.9165 13.5259 15.9735C13.7094 16.0346 13.9095 16.0871 14.1157 16.1865C14.3168 16.2834 14.6191 16.5544 14.763 16.7832C14.8588 16.9356 14.8766 17.1241 15.0041 17.2949C15.1027 17.427 15.3026 17.4376 15.4444 17.4589C15.5848 17.48 15.715 17.4239 15.8213 17.3388C15.9988 17.1969 16.0279 16.9698 16.0495 16.7845C16.0712 16.5975 16.1414 16.4009 16.2834 16.2091C16.5079 15.9056 16.7239 15.8321 16.8876 15.7396C17.092 15.6241 17.1929 15.3494 17.3991 15.2136C17.5877 15.0893 17.8325 15.0074 18.0315 14.894C18.3415 14.7172 18.4867 14.61 18.6289 14.3897C18.6717 14.2552 18.7003 14.1405 18.7216 14.0273C18.7289 13.9563 18.7289 13.8578 18.7289 13.7563" stroke="#0012D4" stroke-width="0.5" stroke-linecap="round"/>
<path d="M14.5073 13.8842C14.5073 13.9968 14.5073 14.1094 14.5073 14.2166C14.5073 14.3239 14.5073 14.4224 14.55 14.5238" stroke="#0012D4" stroke-width="0.5" stroke-linecap="round"/>
<path d="M15.744 14.0547L15.7866 14.3959" stroke="#0012D4" stroke-width="0.5" stroke-linecap="round"/>
<path d="M13.5692 14.1827V14.4812" stroke="#0012D4" stroke-width="0.5" stroke-linecap="round"/>
<path d="M14.55 15.5899C14.5781 15.618 14.6348 15.6466 14.7199 15.6679C14.805 15.6752 14.8907 15.647 14.9758 15.5973C15.0186 15.5758 15.0608 15.5617 15.1896 15.5472" stroke="#0012D4" stroke-width="0.5" stroke-linecap="round"/>
<path d="M19.1126 13.5857C19.0845 13.7827 19.0559 13.9264 19.0417 14.0185C19.0252 14.1243 19.0982 14.2249 19.1689 14.3029C19.3255 14.4756 19.5382 14.5375 19.6525 14.7291C19.6792 14.7739 19.667 14.8215 19.66 14.8643C19.6179 15.1204 19.1706 15.305 18.9643 15.4329C18.8127 15.5269 18.6867 15.6321 18.6157 15.7242C18.5458 15.8149 18.5583 15.9869 18.5372 16.1642C18.5196 16.3125 18.3741 16.3996 18.2607 16.4706C17.9799 16.6464 17.578 16.5139 17.4859 16.5207C17.2351 16.5393 17.1946 16.8964 17.0238 17.0676C16.839 17.139 16.6684 17.1817 16.4846 17.203C16.3571 17.2103 16.1601 17.2103 15.9572 17.2103" stroke="#0012D4" stroke-width="0.5" stroke-linecap="round"/>
<path d="M12.4605 14.6091C12.2477 15.1345 12.1057 15.3332 12.133 15.7869C12.1627 16.2809 12.7428 16.2995 12.9221 16.4988C13.0922 16.6879 13.1138 16.9109 13.27 17.103C13.4006 17.2635 13.8506 17.2529 14.1937 17.1681C14.251 17.1395 14.2932 17.1114 14.3431 17.0828C14.393 17.0542 14.4493 17.0261 14.5926 16.9971" stroke="#0012D4" stroke-width="0.5" stroke-linecap="round"/>
<path d="M16.6821 17.2103C16.6399 17.2103 16.5977 17.2103 16.6181 17.2384C16.8618 17.5735 17.3916 17.7211 17.6756 18.0188C18.238 18.6082 18.3579 18.985 18.4939 19.2703C18.6436 19.5842 18.8696 20.1338 19.034 20.5636C19.199 20.9951 19.4103 21.5 19.567 21.8855C19.6672 22.132 19.7233 22.4817 19.7664 22.7456C19.8308 23.1406 19.9084 23.3925 19.9299 23.5703C19.9551 23.7782 20.0218 24.1157 20.0578 24.3735C20.07 24.4603 20.0934 24.7835 20.1005 25.2451C20.1043 25.4964 20.1361 26.1309 20.1572 27.0893C20.1779 28.0318 20.2921 28.4515 20.3774 28.7651C20.4488 29.0277 20.4346 29.3188 20.47 29.6741C20.5434 30.411 20.5198 30.726 20.5552 31.0038C20.605 31.3946 20.7186 31.7358 20.8109 31.9705C20.9164 32.2387 20.9463 32.5033 21.0171 32.6957C21.1042 32.9324 21.1168 33.2001 21.1522 33.3709C21.1595 33.4137 21.1595 33.456 21.1595 33.4496C21.1595 33.4432 21.1595 33.3869 21.1595 33.3289" stroke="#0012D4" stroke-width="0.5" stroke-linecap="round"/>
<path d="M14.422 17.2529C14.4361 17.2529 14.4502 17.2529 14.4574 17.274C14.4781 17.3343 14.3802 17.5638 14.1327 18.1716C13.961 18.5932 13.7304 19.2579 13.586 19.6409C13.4085 20.1117 13.3278 20.2796 13.243 20.6538C13.0672 21.429 12.9867 22.028 12.93 22.2403C12.7838 22.7879 12.7309 23.1358 12.6385 23.4774C12.5471 23.8156 12.4469 24.4406 12.3543 24.9619C12.2088 25.7816 12.1484 26.2606 12.0769 26.6544C12.0164 26.9883 11.9914 27.2158 11.956 27.5705C11.9051 28.0814 11.9062 28.31 11.8567 28.6795C11.8042 29.0714 11.7356 29.3197 11.6437 29.6741C11.4905 30.265 11.4661 30.5273 11.4017 30.8049C11.3516 31.0211 11.2955 31.3648 11.2595 31.9836C11.2398 32.3218 11.1812 32.6313 11.1459 32.859C11.1086 33.0988 11.096 33.3281 11.0252 33.7534C10.9131 34.4266 11.3501 35.2879 11.6352 35.6094C11.6858 35.6665 11.7347 35.6879 11.7846 35.7024C12.0134 35.7688 12.2464 35.4618 12.3818 35.284C12.4616 35.1793 12.5594 35.0776 12.6799 35.0137C12.7397 34.9819 12.8144 34.9919 12.8718 35.006C13.0712 35.0549 13.1846 35.3177 13.3837 35.503C13.4649 35.5786 13.5543 35.6738 13.7242 35.7377C14.1503 35.8981 14.4638 35.6179 14.8186 35.4192C14.9774 35.3302 15.0753 35.2196 15.1958 35.177C15.4576 35.0843 15.7567 35.3885 16.0697 35.5883C16.3556 35.7708 16.6386 35.9156 16.9933 35.923C17.2792 35.929 17.5477 35.5198 17.7899 35.3051C17.9922 35.1258 18.3724 35.4601 18.593 35.6593C18.7501 35.801 19.0538 35.8021 19.2826 35.7527C19.3787 35.7319 19.4674 35.6461 19.5597 35.5823C19.7561 35.4467 19.7378 35.1203 19.8508 35.0563C19.927 35.0132 20.0763 35.0346 20.184 35.0698C20.5489 35.189 20.7032 35.5173 21.0091 35.5322C21.0752 35.5354 21.1159 35.49 21.1588 35.4474C21.2874 34.8683 21.2733 33.969 21.252 33.8135C21.2447 33.7003 21.2447 33.5174 21.2447 33.3289" stroke="#0012D4" stroke-width="0.5" stroke-linecap="round"/>
<path d="M16.2556 20.5363C16.2415 20.5363 16.2275 20.5363 16.2202 21.2892C16.213 22.042 16.213 23.5477 16.1989 24.4148C16.1848 25.2819 16.1567 25.4649 16.1422 25.9813C16.1277 26.4976 16.1277 27.342 16.1347 27.8121C16.145 28.4963 16.1985 28.779 16.22 29.092C16.2398 29.38 16.2983 29.7171 16.369 30.1717C16.4156 30.4704 16.4688 30.755 16.5396 31.1243C16.5991 31.4345 16.6394 31.7784 16.8021 32.36C16.8928 32.6846 17.1221 32.8163 17.2713 33.0295C17.4084 33.2253 17.4351 33.4696 17.5344 33.7472C17.6205 33.9875 17.7191 34.1809 17.9316 34.2879C18.1728 34.4093 18.4295 34.4376 18.6067 34.4024C18.8209 34.3598 18.9557 34.154 19.048 34.0122C19.2298 33.733 19.0845 33.3724 19.0275 33.1592C18.9974 33.0462 18.9847 32.3967 18.9495 31.3676C18.9251 30.6546 18.7715 30.2318 18.7644 29.9691C18.76 29.8037 18.7288 29.2122 18.7359 28.3669C18.7385 28.0561 18.757 27.9858 18.7642 27.6189C18.7845 26.5908 18.7855 25.8388 18.8069 25.5C18.8529 24.7687 18.8282 24.2044 18.8495 24.0413C18.8689 23.8933 18.8427 23.7494 18.8284 23.3473C18.7956 22.425 18.7864 21.8015 18.6587 21.7802C18.251 21.7121 17.621 21.9435 17.337 22.0284C17.0984 22.0996 16.9387 22.1567 16.7679 22.1991C16.7251 22.2134 16.6829 22.2275 16.633 22.2347C16.5831 22.242 16.5268 22.242 16.4688 22.242" stroke="#0012D4" stroke-width="0.5" stroke-linecap="round"/>
<path d="M19.5817 14.4812C19.7787 14.3968 20.2179 14.1422 20.9266 13.6817C21.3015 13.4381 21.6916 13.1508 22.3168 12.7384C22.9419 12.3261 23.7862 11.7914 24.2986 11.4807C24.8109 11.1701 24.9657 11.0997 25.2987 10.9157C26.145 10.4481 26.7306 10.0755 27.0061 9.89167C27.207 9.75763 27.5489 9.56716 27.9903 9.36014C28.9516 8.90919 29.5736 8.71049 29.7503 8.64695C30.3533 8.4302 30.6533 8.34078 30.9093 8.31243C30.9663 8.30611 31.0089 8.32629 31.0306 8.36168C31.1753 8.59717 30.9108 8.97956 30.7899 9.2352C30.7208 9.38141 30.5138 9.82941 30.1808 10.581C29.8506 11.3261 29.5322 11.8216 29.4115 12.0984C29.2616 12.4422 29.1344 12.6749 29.006 12.8956C28.9062 13.0736 28.8495 13.2015 28.7858 13.2866C28.7501 13.3295 28.7079 13.3717 28.6218 13.4578" stroke="#0012D4" stroke-width="0.5" stroke-linecap="round"/>
<path d="M16.9805 17.5514C17.3464 17.467 17.7037 17.3672 18.044 17.2678C18.3777 17.1704 18.8819 17.041 19.4145 16.842C19.937 16.6469 20.5172 16.5003 21.2387 16.26C21.7113 16.1026 22.3824 15.8227 22.7655 15.6638C23.4189 15.393 23.8442 15.2496 24.4616 15.008C25.001 14.797 25.3793 14.7089 25.9046 14.5317C26.5422 14.3167 26.9152 14.1545 27.5879 13.8641C28.3741 13.5247 28.6772 13.6428 28.99 13.5435C29.4183 13.4074 29.7995 13.4296 30.2618 13.3303C30.4574 13.2882 30.9487 13.1461 31.5952 12.9968C32.1812 12.8615 32.8416 12.7755 33.1266 12.7401C33.4382 12.7014 33.9503 12.6476 34.2494 12.6122C34.505 12.5819 34.8449 12.5623 35.2428 12.5904C35.3897 12.6008 35.4155 12.6749 35.43 12.725C35.4801 12.8982 35.4871 13.1576 35.3952 13.4143C35.3045 13.6676 35.0615 13.8262 34.3181 14.5419C33.5685 15.2635 33.1725 15.4176 32.9222 15.6319C32.6584 15.8577 32.3188 16.1715 32.105 16.3779C31.8475 16.6263 31.6365 16.8111 31.3734 17.0245C30.8908 17.4161 30.5142 17.6495 30.236 17.8846C30.1113 17.99 29.9445 18.1049 29.6688 18.275C28.7412 18.8475 28.012 18.8588 27.7911 18.9157C27.5167 18.9864 26.7242 19.1138 26.2063 19.2072C25.8134 19.278 25.439 19.2997 25.2042 19.3351C24.8736 19.3849 24.4446 19.385 23.857 19.4204C22.8515 19.4809 22.1125 19.4136 21.7807 19.3922C20.5654 19.3141 20.1957 19.4276 19.7898 19.463C19.3037 19.4703 18.9284 19.4562 18.7939 19.4349C18.7156 19.4276 18.6171 19.4276 18.5583 19.385" stroke="#0012D4" stroke-width="0.5" stroke-linecap="round"/>
<path d="M20.2213 16.4427C20.4465 16.3302 21.1675 15.9344 22.1406 15.3805C22.6333 15.1001 22.9201 14.8944 23.4013 14.6044C24.6171 13.8719 24.7686 13.6292 25.0812 13.4514C25.4484 13.2425 26.0726 12.7781 26.5449 12.5205C26.9158 12.3183 27.3689 12.0805 27.9489 11.7477C29.5168 11.0558 29.6588 11.0131 29.7793 10.9778C29.8434 10.9564 29.9138 10.9283 30.0289 10.8993" stroke="#0012D4" stroke-width="0.5" stroke-linecap="round"/>
<path d="M26.3618 12.5197C26.6598 12.1222 26.83 11.9235 26.9867 11.682C27.1092 11.4932 27.1148 11.2413 27.2071 11.0281C27.3145 10.7802 27.583 10.4464 27.8175 10.1967C28.2312 9.75638 28.3796 9.62087 28.5288 9.48548C28.5928 9.40766 28.6499 9.30788 28.7137 9.20852C28.7493 9.16546 28.7915 9.13731 28.8776 9.06567" stroke="#0012D4" stroke-width="0.5" stroke-linecap="round"/>
<path d="M18.2172 18.6174C18.6559 18.249 19.1962 17.9641 19.8066 17.7017C20.3549 17.466 20.8593 17.4098 21.5317 17.2751C21.9201 17.1972 22.5956 17.0567 22.9928 16.9842C23.4857 16.8943 24.0966 16.8414 24.8994 16.7348C25.379 16.6711 25.6633 16.6559 26.4583 16.5143C26.6583 16.4787 27.0406 16.3728 27.6649 16.1459C28.4817 15.8491 28.7335 15.6615 29.1533 15.4839C29.4605 15.3539 30.3488 15.1933 30.9374 15.1138C31.2641 15.0696 31.4916 15.05 32.0453 15.0425C32.3589 15.1063 32.7 15.1916 32.8853 15.2909C32.9282 15.3195 32.9704 15.3476 33.0565 15.4619" stroke="#0012D4" stroke-width="0.5" stroke-linecap="round"/>
<path d="M30.626 13.3298C30.3138 13.4147 30.087 13.5848 29.9584 13.7838C29.7463 14.1119 29.5753 14.3379 29.4678 14.5232C29.2936 14.8235 28.8785 15.1907 28.6015 15.4114C28.3965 15.5748 28.2107 15.7314 27.9901 15.8453C27.9399 15.8738 27.8977 15.902 27.8478 15.9376C27.798 15.9732 27.7417 16.0154 27.5984 16.1016" stroke="#0012D4" stroke-width="0.5" stroke-linecap="round"/>
<path d="M21.2873 19.2571C21.2311 19.2571 21.1748 19.2571 21.188 19.2219C21.3716 18.7332 22.2664 18.6038 22.6576 18.4262C22.9735 18.2828 23.5448 18.0921 24 17.9642C24.8629 17.7217 25.4483 17.7509 26.0257 17.7079C26.5072 17.672 26.7301 17.6085 27.1981 17.5729C27.8181 17.5257 28.151 17.438 28.62 17.4164C28.9072 17.4032 29.1607 17.3527 29.523 17.3311C29.6443 17.31 29.9551 17.2955 30.3954 17.2955C30.5683 17.2955 30.6387 17.2955 30.7112 17.2955" stroke="#0012D4" stroke-width="0.5" stroke-linecap="round"/>
<path d="M19.3259 21.2186C19.3967 21.4028 19.5664 21.6578 19.8222 21.9422C20.1956 22.3574 20.3621 22.6386 20.6043 22.803C20.9251 23.0207 21.5816 23.6176 21.9618 23.9468C22.172 24.1289 22.3381 24.3869 22.6012 24.6575C22.8176 24.88 23.2182 25.0973 23.5604 25.2903C23.9318 25.4997 24.1717 25.7233 24.3924 25.8732C24.5937 26.0099 25.0365 26.3049 25.727 26.7111C25.9998 26.8715 26.233 27.0597 26.4392 27.1951C26.9096 27.504 27.908 28.0959 28.2158 28.2754C28.3665 28.3633 28.5919 28.4251 28.8474 28.3969C29.0624 28.3733 29.1757 28.1982 29.2537 28.0918C29.3911 27.9045 29.3893 27.574 29.3258 27.2678C29.2578 26.9399 29.0491 26.7774 28.7723 26.38C28.4579 25.9285 28.2389 25.7114 28.0327 25.519C27.8334 25.3331 27.7127 25.1144 27.5634 24.9291C27.3895 24.7132 27.1865 24.4603 26.9669 24.1409C26.7784 23.8668 26.5332 23.7072 26.327 23.5149C26.1132 23.3154 25.9081 23.1239 25.7017 22.9819C25.3654 22.7505 25.1687 22.5414 24.9908 22.413C24.7997 22.2751 24.361 22.1013 23.9536 21.8378C23.7624 21.7141 23.5909 21.6314 22.9954 21.3122C22.7329 21.1715 22.5249 21.1052 22.3541 21.0129C22.0835 20.8666 21.6584 20.6361 21.4586 20.5722C21.2669 20.5108 21.1177 20.3803 20.9115 20.2172C20.7589 20.0964 20.5633 20.0536 20.2864 19.9398C20.0798 19.8541 19.9374 19.8119 19.8736 19.7338C19.838 19.698 19.7958 19.6699 19.7523 19.6409" stroke="#0012D4" stroke-width="0.5" stroke-linecap="round"/>
<path d="M18.7715 19.6409C18.8282 19.9389 18.9131 20.1372 19.041 20.3295C19.2055 20.5769 19.5228 20.8613 19.8011 21.2033C20.0613 21.5231 20.5889 21.616 20.8601 21.8077C21.1401 22.0056 21.4571 22.1422 21.6771 22.2627C22.0933 22.4905 22.2954 22.5968 22.5722 22.7175C23.2638 23.0191 23.7145 23.4479 24.0936 23.7266C24.3135 23.8882 24.5546 24.1873 24.762 24.4302C24.9747 24.6792 25.2931 25.0112 25.6217 25.3327C25.7984 25.5056 25.9771 25.7514 26.1479 25.9653C26.3232 26.1848 26.4035 26.4056 26.5248 26.6333C26.5604 26.7467 26.6031 26.8469 26.6457 26.932C26.6602 26.9748 26.6602 27.0171 26.7455 27.1458" stroke="#0012D4" stroke-width="0.5" stroke-linecap="round"/>
<path d="M24.6561 24.2036C24.7972 24.288 25.1379 24.5438 25.6631 24.6935C26.1855 24.8424 26.7711 24.8005 27.0858 24.8359C27.1429 24.8432 27.1992 24.8432 27.2493 24.8502C27.2994 24.8573 27.3417 24.8713 27.4278 24.9285" stroke="#0012D4" stroke-width="0.5" stroke-linecap="round"/>
<path d="M19.8375 23.3507C19.8657 23.5631 19.9791 23.8471 20.2978 24.3148C20.5892 24.7425 20.9441 25.2248 21.285 25.5587C21.6275 25.8941 22.0114 26.2214 22.4016 26.59C22.6553 26.8297 22.8924 27.0171 23.106 27.2232C23.2623 27.374 23.7 27.8102 24.0228 28.0976C24.2674 28.3154 24.5273 28.4532 24.7262 28.482C25.085 28.5339 25.2522 28.1837 25.3876 28.0208C25.5089 27.6447 25.4245 27.1339 25.3315 26.8552C25.3102 26.8051 25.282 26.7629 25.2104 26.6768" stroke="#0012D4" stroke-width="0.5" stroke-linecap="round"/>
<path d="M23.5048 25.3975C23.4621 25.525 23.5465 25.9766 23.5971 26.3278C23.6327 26.5339 23.6467 26.719 23.6681 26.9096C23.6753 27.058 23.6753 27.3113 23.6753 27.5723" stroke="#0012D4" stroke-width="0.5" stroke-linecap="round"/>
<path d="M9.3595 19.5256C9.41893 20.3507 9.54794 20.7679 9.6771 21.2489C9.75236 21.5291 9.78655 21.8974 9.81194 22.1148C9.83732 22.3322 9.83732 22.3913 9.92109 23.1412C10.0049 23.8911 10.1724 25.33 10.2587 26.1057C10.345 26.8814 10.345 26.9504 10.3795 27.2569C10.414 27.5635 10.483 28.1055 10.5185 28.4094C10.5784 28.9212 10.6138 29.3389 10.6534 29.7715C10.7061 30.3486 10.7727 30.9118 10.8324 31.2202C10.865 31.3886 10.8626 31.4906 10.8775 31.9545C10.8908 32.369 10.8826 33.1478 10.7939 34.1254C10.7052 35.103 10.5278 36.256 10.4364 36.9338C10.345 37.6115 10.345 37.7791 10.3401 37.9048C10.3352 38.0305 10.3253 38.1094 10.3202 38.4604C10.3151 38.8115 10.3151 39.4324 10.3201 39.767C10.325 40.1016 10.3349 40.1312 10.3399 40.171C10.345 40.2109 10.345 40.2602 10.345 40.2512" stroke="#0012D4" stroke-width="0.5" stroke-linecap="round"/>
<path d="M9.32963 26.9617C9.40788 26.9223 9.73728 26.8521 9.83165 26.8818C10.0829 26.961 10.2148 27.5662 10.2456 28.08C10.2544 28.2277 10.1563 28.3053 10.0818 28.3649C10.0131 28.4198 9.94722 28.4648 9.85793 28.4797C9.7503 28.4977 9.62887 28.4651 9.51957 28.4204C9.31931 28.3386 9.13193 27.9299 8.98649 27.4415C8.83265 26.9248 9.08057 26.7234 9.19972 26.5245C9.30085 26.3557 9.43834 26.1172 9.5681 25.8923C9.62768 25.8078 9.74683 25.6785 9.89108 25.5293C9.94662 25.4688 9.96633 25.4392 10.0464 25.3491" stroke="#0012D4" stroke-width="0.5" stroke-linecap="round"/>
<path d="M10.4346 27.8876C10.7019 27.5901 11.1794 27.1726 11.4095 26.9673C11.5294 26.8426 11.7074 26.684 11.9172 26.4995C11.9573 26.4642 11.9869 26.4445 12.0472 26.3943" stroke="#0012D4" stroke-width="0.5" stroke-linecap="round"/>
<path d="M9.86719 25.588C10.1351 25.3201 10.3743 25.0415 10.5137 24.8768C10.6169 24.7549 10.7129 24.6132 10.8273 24.4736C10.9685 24.3013 11.0713 24.1653 11.3344 23.763C11.561 23.4165 11.8072 23.0711 11.9521 22.8315C12.1933 22.4331 12.3154 22.1053 12.3805 21.9153C12.4494 21.7143 12.6332 21.2607 12.7637 21.0143C12.8389 20.8724 12.9324 20.6521 13.0523 20.4569C13.1386 20.3164 13.2711 20.1533 13.3758 19.9892C13.5223 19.7595 13.6098 19.6259 13.6647 19.4714C13.6796 19.4363 13.6993 19.4067 13.7144 19.3767C13.7295 19.3467 13.7394 19.3171 13.7495 19.2867" stroke="#0012D4" stroke-width="0.5" stroke-linecap="round"/>
<path d="M13.7197 35.7119C13.6501 35.7911 13.6301 36.1276 13.635 36.5254C13.637 36.6867 13.6498 36.7655 13.6943 37.5896C13.7388 38.4137 13.8176 39.9807 13.8631 40.8175C13.9087 41.6543 13.9185 41.7134 13.9236 42.0099C13.9287 42.3065 13.9287 42.8387 13.9238 43.1473C13.9188 43.456 13.909 43.5249 13.9039 43.8118C13.8988 44.0986 13.8988 44.6013 13.889 44.9538C13.8739 45.4942 13.8391 45.9526 13.8293 46.4297C13.8249 46.6409 13.7997 46.7885 13.7895 47.18C13.7794 47.5715 13.7794 48.2023 13.7745 48.5518C13.7652 49.2088 13.7692 49.7271 13.7843 49.9215C13.8055 50.1948 13.829 50.5538 13.8293 51.0698C13.8295 51.4866 13.6504 51.7782 13.6498 52.339C13.6496 52.4572 13.7089 52.4752 13.7883 52.4854C14.1444 52.5309 14.2865 52.4262 14.4209 52.3664C14.6972 52.2432 15.0026 51.9592 15.2965 51.4969C15.3605 51.3961 15.3717 51.332 15.3819 50.9172C15.392 50.5024 15.392 49.7337 15.397 49.3032C15.4019 48.8727 15.4117 48.8037 15.4168 48.4922C15.4219 48.1808 15.4219 47.6289 15.4465 47.2362C15.4712 46.8434 15.5205 46.6266 15.5803 46.2981C15.6402 45.9696 15.7092 45.536 15.7497 45.1993C15.8171 44.6377 15.8496 44.2644 15.9438 43.873C16.0913 43.2602 16.1386 42.8004 16.1633 42.5332C16.2082 42.0455 16.3077 41.6755 16.3425 41.5365C16.4298 41.1876 16.3973 40.701 16.4173 40.3423C16.4312 40.0934 16.4671 39.8639 16.4721 39.6852C16.477 39.5059 16.497 38.9716 16.5019 38.2602C16.5269 37.7534 16.5367 37.5145 16.5517 37.1684C16.5567 36.9011 16.5567 36.4478 16.5567 35.9807" stroke="#0012D4" stroke-width="0.5" stroke-linecap="round"/>
<path d="M17.4228 35.8313C17.4129 35.9792 17.4031 36.127 17.4029 36.7058C17.4028 37.2845 17.4126 38.2898 17.4029 39.2412C17.3932 40.1927 17.3636 41.0599 17.3533 41.5313C17.342 42.0519 17.363 42.1816 17.3778 42.3898C17.4205 42.9908 17.4723 43.3654 17.4874 43.744C17.4982 44.0141 17.5321 44.2721 17.5472 44.6447C17.551 44.7401 17.5619 44.8091 17.567 45.1649C17.5721 45.5207 17.5721 46.1613 17.5918 46.6047C17.6217 47.2766 17.6915 47.6265 17.6965 47.8352C17.7047 48.1845 17.7411 48.5624 17.7562 48.9848C17.766 49.2604 17.8009 49.4983 17.8159 49.8313C17.8248 50.0277 17.8212 50.1852 17.7913 50.4237C17.7282 50.9276 17.6718 51.2006 17.6369 51.4195C17.6007 51.6465 17.602 51.8869 17.6317 52.0569C17.6616 52.2284 17.7211 52.3259 17.7807 52.3905C17.8073 52.4194 17.8403 52.4256 17.8851 52.4208C18.0888 52.3991 18.1986 52.2572 18.3232 52.1673C18.5145 52.0292 18.7858 51.8295 18.9254 51.6699C19.1002 51.47 19.1937 51.292 19.2791 51.1273C19.354 50.983 19.4529 50.6857 19.4637 49.6777C19.4691 49.1718 19.3639 48.7938 19.359 48.5501C19.3524 48.2255 19.3144 47.8474 19.3141 47.2222C19.3138 46.7189 19.4135 46.5036 19.4335 46.2203C19.4553 45.9125 19.5031 45.7373 19.5182 45.2108C19.5262 44.9293 19.5628 44.732 19.5828 44.488C19.6145 44.1024 19.6524 43.8857 19.6724 43.5578C19.6797 43.4381 19.702 43.2806 19.7122 42.9136C19.7223 42.5466 19.7223 41.975 19.7125 41.6362C19.6955 41.0542 19.5634 40.7213 19.5382 40.461C19.5056 40.1244 19.533 39.6253 19.548 39.282C19.561 38.9869 19.5927 38.7688 19.6078 38.1434C19.6167 37.7724 19.6524 37.5348 19.6576 36.7552C19.6327 36.4194 19.613 36.2202 19.5979 35.8973C19.593 35.8218 19.5831 35.7824 19.573 35.6522" stroke="#0012D4" stroke-width="0.5" stroke-linecap="round"/>
<path d="M3.36938 12.5198C2.55229 12.4503 1.72688 12.4782 1.15969 12.5541C0.998534 12.5756 0.765076 12.6715 0.51579 12.8029C0.354334 12.888 0.306423 13.0321 0.26484 13.1838C0.238968 13.2783 0.250702 13.4179 0.271286 13.5092C0.291869 13.6005 0.333035 13.6417 0.40227 13.6766C0.560001 13.7562 0.735137 13.7672 0.811649 13.7878C1.04717 13.8512 0.472752 14.1822 0.424101 14.4384C0.409763 14.5139 0.417032 14.5972 0.444476 14.6602C0.544485 14.8898 0.790442 14.9448 0.97777 15.0351C1.1521 15.1191 0.999185 15.6351 1.0888 15.922C1.11808 16.0158 1.28943 16.0401 1.48279 16.0817C1.93156 16.1782 2.21755 15.8888 2.41236 15.7913C2.64074 15.6769 2.82798 15.4314 3.41512 14.734C4.11687 13.9006 4.14531 13.5053 4.14572 13.0689C4.14586 12.9302 4.03512 12.8666 3.95216 12.8113C3.73073 12.7277 3.49454 12.7002 3.41159 12.6518C3.3698 12.6308 3.32863 12.6171 3.20305 12.6029" stroke="#0012D4" stroke-width="0.5" stroke-linecap="round"/>
<path d="M3.45254 12.4366C3.56273 12.0911 4.08626 11.5942 4.73952 11.1696C5.14406 10.9067 5.48925 10.8149 5.64144 10.8355C5.77938 10.8541 5.87763 10.9945 5.96079 11.2081C6.24534 11.9386 5.79612 12.4067 5.62917 12.6784C5.43965 12.9869 5.0335 13.3647 4.83245 13.5034C4.65877 13.6232 4.43763 13.6841 4.38814 13.6841C3.89645 13.6841 5.10087 13.67 5.31606 13.7323C5.50398 13.7868 5.68302 13.9328 5.93272 14.182C6.19404 14.4429 6.30759 14.7918 6.40447 15.0276C6.52624 15.3239 6.55708 15.5819 6.51612 15.7902C6.47166 16.0164 6.04562 15.9711 5.79633 16.0056C5.28704 16.0761 5.08922 15.9021 4.79129 15.757C4.48788 15.6092 4.24427 15.3075 4.04218 15.133C4.0049 15.1008 3.97981 15.0571 4.05486 15.1114C4.31913 15.3025 4.62932 15.6368 4.83723 15.9686C5.14144 16.4541 4.78401 16.8427 4.69336 17.0862C4.60791 17.3157 4.43721 17.5504 4.18813 17.8205C4.03103 17.9908 3.91036 18.0777 3.80682 18.1124C3.66949 18.1585 3.5224 18.0507 3.41865 17.954C3.1098 17.6662 2.89866 17.1371 2.78764 16.887C2.73233 16.6805 2.69034 16.4847 2.66954 16.2847C2.66248 16.1533 2.66248 15.9611 2.66248 15.7632" stroke="#0012D4" stroke-width="0.5" stroke-linecap="round"/>
<path d="M1.7061 12.4366C1.26325 12.2848 0.959281 11.926 0.695025 11.4748C0.555914 11.2373 0.514349 10.9413 0.555308 10.5943C0.57064 10.4644 0.707707 10.4132 0.818108 10.3648C1.13711 10.2248 1.41419 10.3849 1.58073 10.4749C1.65984 10.5177 2.10404 10.7845 2.72757 11.2001C2.99432 11.3962 3.16024 11.6445 3.35422 11.9769C3.4247 12.1035 3.43842 12.1447 3.49414 12.2703" stroke="#0012D4" stroke-width="0.5" stroke-linecap="round"/>
<path d="M1.91402 2.99739C1.73439 2.90092 1.48573 2.73459 1.21502 2.72003C1.09053 2.71334 0.972184 2.89925 0.854506 3.10675C0.677425 3.41899 0.818745 3.70346 0.915632 3.87685C1.06689 4.14756 1.71609 4.506 2.18306 4.81225C2.45521 4.99074 2.70326 5.1314 3.04236 5.30459C3.23937 5.4052 3.4376 5.50564 3.83201 5.60294C4.32371 5.72424 4.78155 5.47902 5.33563 5.22995C5.59311 5.1142 5.82111 4.77379 5.97496 4.27459C6.13896 3.74246 5.6581 3.24938 5.43543 2.97057C5.15849 2.62381 4.93623 2.34704 4.81149 2.15264C4.64509 1.89335 4.43808 1.59939 4.06404 1.22452C3.66974 0.82934 3.32866 0.682911 3.12761 0.682496C2.8949 0.682014 2.77395 1.04218 2.7043 1.20872C2.62645 1.39487 2.62093 1.65178 2.59348 1.81125C2.54651 2.08421 1.95644 1.86052 1.79676 1.99879C1.66495 2.19277 1.56764 2.38696 1.54685 2.52501C1.53978 2.60818 1.53978 2.71795 1.53978 2.83106" stroke="#0012D4" stroke-width="0.5" stroke-linecap="round"/>
<path d="M5.86432 4.95178C6.27931 5.4358 6.58369 5.87824 6.77165 6.11547C7.10294 6.53362 7.44362 7.5274 7.58936 7.90933C7.8635 8.6277 7.87358 9.09422 7.90872 9.52418C7.92681 9.74562 7.97088 9.95456 8.08108 10.4637C8.17019 10.8755 8.30105 11.6041 8.37174 12.02C8.48413 12.6811 8.48401 13.072 8.60127 13.8406C8.63723 14.0764 8.77425 14.5806 8.899 15.2939C8.99216 15.8267 8.983 16.1083 9.01751 16.4545C9.07817 17.0629 9.06616 17.424 9.10068 17.7167C9.12839 17.9518 9.14933 18.4211 9.18384 18.7632C9.20463 19.0062 9.25994 19.1996 9.32231 19.4353C9.3431 19.5048 9.37055 19.5871 9.39882 19.6719" stroke="#0012D4" stroke-width="0.5" stroke-linecap="round"/>
<path d="M8.81668 16.0127C8.5676 15.5977 8.45657 15.3482 8.26342 15.0925C7.78828 14.4634 7.51515 14.2122 7.29975 14.0795C6.96401 13.8728 6.60034 13.7398 6.23296 13.5462C6.11465 13.4903 6.01735 13.4624 5.81755 13.4416C5.67263 13.4346 5.43936 13.4346 5.11584 13.4761" stroke="#0012D4" stroke-width="0.5" stroke-linecap="round"/>
<path d="M4.20101 5.65867C4.14612 6.01545 4.07668 6.43252 4.0143 7.03983C3.92419 7.91723 4.03426 8.55447 4.1035 8.74825C4.19985 9.01791 4.40809 9.23393 4.616 9.33851C4.92617 9.49452 5.10168 8.55697 5.19171 8.28627C5.27751 8.02826 5.4202 7.69787 5.60025 7.28891C5.75174 6.94484 5.83603 6.65831 5.94019 6.40113C6.00277 6.15808 6.08552 5.90983 6.14831 5.61813C6.15538 5.54848 6.15538 5.47987 6.15538 5.40918" stroke="#0012D4" stroke-width="0.5" stroke-linecap="round"/>
<path d="M2.91197 5.40918C2.62131 5.46448 2.45539 5.54723 2.28199 5.69963C2.01313 5.93593 1.35013 6.70655 1.08941 7.31324C1.03729 7.43452 1.08234 7.60972 1.10979 7.71513C1.13723 7.82054 1.19212 7.86171 1.24098 7.88978C1.6325 8.11469 2.54937 7.89082 2.86934 7.77293C3.2018 7.59974 3.4937 7.46085 3.57666 7.41241C3.61845 7.39141 3.65962 7.37769 3.7852 7.36355" stroke="#0012D4" stroke-width="0.5" stroke-linecap="round"/>
<path d="M5.94751 3.49637C6.1259 3.31756 6.81741 2.90174 7.4004 2.71399C7.87083 2.56249 8.21999 2.44308 8.46803 2.38113C8.93904 2.26347 9.42463 2.16573 9.74315 2.17945C9.92889 2.18745 10.0222 2.27634 10.1051 2.35909C10.1542 2.40804 10.1881 2.49672 10.2093 2.58717C10.2305 2.67761 10.2305 2.77366 10.155 2.90548C9.96966 3.22922 9.48492 3.56373 8.95225 3.90969C8.05698 4.36876 7.41786 4.59081 7.03801 4.6536C6.82448 4.66067 6.45398 4.66067 6.07226 4.70225" stroke="#0012D4" stroke-width="0.5" stroke-linecap="round"/>
<path d="M5.86432 3.20533C5.46263 2.7762 5.35202 2.58242 5.26865 2.36079C5.10213 1.91811 5.14328 1.34909 5.28154 1.09253C5.41219 0.850083 5.6273 0.614743 5.87035 0.447582C6.1132 0.280554 6.30675 0.225532 6.55646 0.25963C6.82433 0.296208 6.90388 0.736996 6.99349 1.00021C7.1416 1.43528 7.16668 1.8855 7.18809 2.37222C7.18123 2.45643 7.16751 2.49759 7.15358 2.54625C7.13965 2.5949 7.12593 2.64979 7.02862 2.7895" stroke="#0012D4" stroke-width="0.5" stroke-linecap="round"/>
</svg>
