<svg width="38" height="39" viewBox="0 0 38 39" fill="none" xmlns="http://www.w3.org/2000/svg">
<path d="M17.3296 18.5759C17.2759 18.4824 16.8761 18.1346 16.5102 17.9777C16.3747 17.9196 16.2407 17.9841 16.1403 18.0376C15.8329 18.2011 15.7433 18.4807 15.6154 18.8501C15.5514 19.035 15.6082 19.1807 15.6483 19.2612C15.7418 19.4485 15.9838 19.4635 16.1657 19.5371C16.2639 19.5769 16.4009 19.6245 16.5485 19.6916C16.8043 19.9855 16.9798 20.5386 17.0066 20.7659C17.0202 20.9267 17.0335 21.1797 17.0472 21.4403" stroke="#0012D4" stroke-width="0.5" stroke-linecap="round"/>
<path d="M21.1218 18.7373C21.1085 18.8442 21.0282 19.1391 20.9205 19.5694C20.8362 19.9061 20.7861 20.0944 20.6784 20.2764C20.5238 20.5376 20.235 20.7673 20.0267 20.9085C19.8096 21.0556 19.55 21.1571 19.3407 21.2115C19.1055 21.3188 18.8634 21.4265 18.5679 21.6008C18.4999 21.6549 18.46 21.7081 18.3785 21.763" stroke="#0012D4" stroke-width="0.5" stroke-linecap="round"/>
<path d="M19.3467 18.7776C19.3467 18.9108 19.3467 19.219 19.3268 19.6087C19.3068 19.7588 19.2669 19.812 19.2263 19.8528C19.1858 19.8935 19.1458 19.9202 19.1047 19.9476" stroke="#0012D4" stroke-width="0.5" stroke-linecap="round"/>
<path d="M18.2171 19.2618H18.2574" stroke="#0012D4" stroke-width="0.5" stroke-linecap="round"/>
<path d="M20.3553 19.6249L20.3149 19.5845" stroke="#0012D4" stroke-width="0.5" stroke-linecap="round"/>
<path d="M18.2574 20.5527C18.4172 20.5527 18.577 20.5527 18.6792 20.566C18.7815 20.5794 18.8214 20.606 18.8553 20.6397C18.8892 20.6734 18.9158 20.7133 18.9433 20.7948" stroke="#0012D4" stroke-width="0.5" stroke-linecap="round"/>
<path d="M17.4103 18.5356C17.5838 18.4287 18.1736 18.2137 18.7729 18.012C19.4334 17.7896 19.7623 17.7288 20.0311 17.6953C20.5929 17.6253 20.9975 17.8756 21.3025 18.0108C21.5734 18.1308 21.7665 18.1992 21.9347 18.2865C22.12 18.3827 22.2909 18.4945 22.4458 18.6225C22.5883 18.7404 22.6008 18.9649 22.561 19.1803C22.516 19.4244 22.2119 19.4498 22.0436 19.5371C21.9964 19.5575 21.9432 19.5708 21.8092 19.5777C21.6753 19.5845 21.4623 19.5845 21.2428 19.5442" stroke="#0012D4" stroke-width="0.5" stroke-linecap="round"/>
<path d="M17.3699 18.5356C18.0259 18.6163 18.7271 18.5897 19.0764 18.5826C19.3655 18.5768 19.6816 18.697 19.9438 18.7305C20.4852 18.7996 21.0234 18.7777 21.4698 18.7442C21.8687 18.7143 22.1703 18.764 22.2375 18.8243C22.278 18.8979 22.305 18.979 22.3119 19.0595C22.3054 19.1 22.2788 19.14 22.211 19.2618" stroke="#0012D4" stroke-width="0.5" stroke-linecap="round"/>
<path d="M17.1682 14.9048C16.5772 15.3615 16.3622 15.5761 16.1671 15.758C15.9634 15.948 15.7845 16.2482 15.5955 16.4773C15.4408 16.6648 15.3802 16.867 15.306 17.049C15.2252 17.2471 15.1648 17.4318 15.1444 17.7142C15.1144 18.1301 15.1374 18.6962 15.238 18.8444C15.2717 18.8717 15.3117 18.885 15.3389 18.9118C15.3661 18.9386 15.3794 18.9786 15.3931 19.0197" stroke="#0012D4" stroke-width="0.5" stroke-linecap="round"/>
<path d="M16.8858 15.1468C16.952 15.0803 17.541 14.8386 17.8534 14.7771C18.0154 14.7452 18.176 14.7168 18.7059 14.7097C18.9504 14.7065 19.1305 14.8507 19.3392 14.9447C19.5284 15.0299 19.855 15.4131 20.1126 15.6707C20.2677 15.8257 20.4351 15.9262 20.6034 16.0273C20.7931 16.1413 21.0266 16.2619 21.1952 16.4037C21.3735 16.5536 21.4308 16.867 21.4512 17.0556C21.4711 17.1761 21.4849 17.4044 21.4782 17.6664C21.4715 17.7687 21.4582 17.8086 21.4445 17.8094" stroke="#0012D4" stroke-width="0.5" stroke-linecap="round"/>
<path d="M20.3149 16.0344C20.2746 16.3297 20.248 16.5443 20.2276 16.9405C20.2076 17.122 20.1939 17.3108 20.1873 17.4988C20.1806 17.5803 20.1673 17.6335 20.1536 17.6884" stroke="#0012D4" stroke-width="0.5" stroke-linecap="round"/>
<path d="M18.8626 14.9048C18.7424 14.9714 18.5003 15.1598 18.2585 15.4079C17.9751 15.6986 17.9355 15.9924 17.8141 16.2417C17.6338 16.6119 17.5991 16.9066 17.4579 17.3641C17.3566 17.6073 17.303 17.7683 17.2223 17.9498C17.2086 18.0104 17.2086 18.0902 17.2086 18.1725" stroke="#0012D4" stroke-width="0.5" stroke-linecap="round"/>
<path d="M18.8223 14.582C18.7557 14.5425 18.4874 14.1407 18.1578 13.2749C17.7521 12.2092 18.0283 11.7726 18.1159 11.6172C18.1352 11.583 18.2026 11.5967 18.2567 11.61C18.5853 11.6909 18.8884 12.1736 19.0236 12.4828C19.1275 12.7206 19.1047 13.4202 19.098 14.247C19.0956 14.5413 19.078 14.5812 19.0912 14.6018C19.1217 14.6498 19.3185 14.5691 19.6533 14.4618C20.1105 14.3153 20.6752 14.2996 21.172 14.3129C21.7322 14.3279 21.8875 14.4739 22.1094 14.6552C22.1614 14.6978 22.1836 14.7426 22.184 14.7831C22.1863 15.0106 21.6479 15.0524 20.7956 15.0728C20.289 15.0849 19.7518 15.0532 19.5557 14.9389C19.4734 14.8908 19.4278 14.7841 19.3473 14.717C19.2165 14.6078 18.865 14.5828 18.461 14.3611C18.102 14.1642 17.7209 14.058 17.1797 13.9975C16.7737 13.9521 16.0927 13.9769 15.6963 13.9835C15.2064 13.9918 15.0176 14.0439 14.8564 14.0975C14.787 14.1206 14.7485 14.1512 14.7545 14.1915C14.7974 14.4776 15.6304 14.5812 16.6129 14.649C17.6515 14.7837 17.8803 14.797 18.1143 14.8172C18.2817 14.8241 18.5479 14.8241 18.903 14.8644" stroke="#0012D4" stroke-width="0.5" stroke-linecap="round"/>
<path d="M17.0472 21.5613C17.0738 21.5613 17.1541 21.5613 17.3548 21.5813C17.4889 21.6013 17.6886 21.6412 17.8913 21.6951C18.0941 21.7489 18.2938 21.8155 18.5802 21.9244" stroke="#0012D4" stroke-width="0.5" stroke-linecap="round"/>
<path d="M17.3699 21.6823C17.0617 21.6823 16.7123 21.7089 16.5233 21.7628C16.3382 21.8156 15.8143 22.2971 15.4476 22.7167C15.2801 22.9083 15.1785 23.0935 15.0843 23.3152C14.8911 23.7698 14.6403 24.1424 14.5665 24.4442C14.4308 24.999 14.3176 25.1776 14.2571 25.4667C14.1985 25.7465 14.1562 25.9578 14.1023 26.1194C14.0888 26.1599 14.0755 26.1999 14.0886 26.2404C14.1501 26.4306 14.504 26.4556 14.8473 26.5902C15.1305 26.7012 15.4859 26.7655 15.6616 26.8125C15.7558 26.6186 15.8635 26.2959 15.9107 25.9802C15.9176 25.8792 15.9176 25.7593 15.9176 25.6762" stroke="#0012D4" stroke-width="0.5" stroke-linecap="round"/>
<path d="M14.0618 26.241C13.9678 26.3479 13.9142 26.6961 13.8335 27.107C13.8036 27.2594 13.8065 27.4102 13.7863 27.5512C13.772 27.6514 13.6729 28.359 13.5116 29.4009C13.4225 29.9759 13.4164 30.2737 13.3159 30.925C13.2528 31.3342 13.188 31.6865 13.1677 31.8614C13.1363 32.1305 13.1073 32.3723 13.1003 33.1031C13.0974 33.3983 13.1743 33.5826 13.2078 33.8977C13.274 34.5207 13.1743 34.7122 13.1408 34.9339C13.0935 35.2474 13.0936 35.465 13.0601 35.7938C12.9953 36.4303 13.0936 36.9149 13.1872 37.2471C13.2591 37.5023 13.6173 37.5095 13.8993 37.497C14.2614 37.481 14.2765 36.9342 14.3374 36.6438C14.422 36.2405 14.4782 35.9386 14.5123 35.3137C14.5289 35.0081 14.5726 34.7412 14.6599 34.4719C14.7564 34.1744 14.734 33.84 14.761 33.2699C14.7891 32.6765 14.909 32.4143 14.976 31.9247C15.0428 31.4364 15.0704 30.736 15.1039 30.3168C15.1286 30.0073 15.1511 29.6855 15.2247 29.3085C15.31 28.8716 15.5271 28.2614 15.588 27.9231C15.6082 27.4654 15.6352 27.2504 15.6753 27.0553C15.6889 27.0079 15.7022 26.968 15.6756 27.0075" stroke="#0012D4" stroke-width="0.5" stroke-linecap="round"/>
<path d="M18.5399 21.9647C18.6335 22.045 18.8215 22.206 18.9629 22.4141C19.2252 22.8003 19.2386 23.133 19.286 23.6232C19.351 24.2949 19.4403 24.6653 19.4744 25.0027C19.5127 25.3822 19.5888 25.7021 19.7292 26.3183C19.8779 26.971 19.9519 27.4372 19.9785 27.6246C20.0564 28.1728 20.3141 28.3913 20.4354 28.6602C20.7076 29.2639 20.8927 29.4943 21.0942 29.8035C21.2096 29.9806 21.3227 30.2067 21.4107 30.4024C21.4984 30.5976 21.6051 30.8119 21.7731 31.1679C22.1292 31.9224 22.7081 32.2916 22.8692 32.4197C23.1087 32.61 23.3665 32.7491 23.689 32.8568C24.0518 32.978 24.4557 33.0589 24.7381 33.1392C24.9647 33.2036 25.1415 33.3139 25.3168 33.4684C25.4134 33.5535 25.4651 33.677 25.5054 33.7843C25.5251 33.8365 25.5191 33.8916 25.4992 33.939C25.4139 34.1414 25.1972 34.2152 24.9289 34.3225C24.6309 34.4417 24.2834 34.4709 24.0549 34.4909C23.9707 34.4983 23.9595 34.5508 23.9926 34.6246C24.0796 34.8188 24.1878 35.1676 24.1213 35.6108C24.0913 35.8101 23.9216 35.9208 23.8131 35.9826C23.5298 36.1437 23.3011 35.937 22.9051 35.8496C22.7754 35.821 22.6956 35.8022 22.655 35.8155C22.466 35.8776 22.9768 36.2847 23.0046 36.9964C23.0127 37.2034 22.8707 37.3211 22.7365 37.442C22.5166 37.6401 22.2393 37.6443 21.7758 37.7919C21.4841 37.8848 21.15 37.913 20.7609 37.9739C19.8564 38.1155 19.496 37.9404 19.173 37.9069C18.9298 37.8817 18.6351 37.8194 18.0513 37.6721C17.7669 37.6004 17.4797 37.5241 17.022 37.3494C16.6476 37.2065 16.2428 37.0537 15.9456 36.9123C15.5183 36.7089 15.3004 36.6099 14.8971 36.2208C14.7356 36.0193 14.627 35.87 14.5466 35.776C14.506 35.7353 14.4661 35.7086 14.3846 35.6409" stroke="#0012D4" stroke-width="0.5" stroke-linecap="round"/>
<path d="M25.4788 33.7448C25.5857 33.7448 26.067 33.798 26.8544 33.8321C27.2158 33.8477 27.5338 33.9594 28.0254 34.0939C28.3037 34.1701 28.9958 34.362 29.5449 34.4907C30.3367 34.6763 30.7483 34.6589 31.045 34.6793C31.4479 34.7069 31.8928 34.7263 32.3261 34.7465C32.7191 34.7648 33.465 34.7533 33.8823 34.7467C34.4756 34.7372 34.8221 34.6597 35.0797 34.5988C35.251 34.5583 35.5757 34.4717 36.2746 34.4439C36.4117 34.4384 36.4511 34.4838 36.4917 34.5109C36.5322 34.5379 36.5722 34.5645 36.5927 34.6381C36.6451 34.8255 36.5867 35.0216 36.533 35.1424C36.3854 35.3443 36.0905 35.586 35.9279 35.7613C35.9009 35.8018 35.8742 35.8418 35.8468 35.8829" stroke="#0012D4" stroke-width="0.5" stroke-linecap="round"/>
<path d="M24.3492 35.3988C24.3359 35.3855 24.3225 35.3722 24.3423 35.3653C24.5145 35.3056 24.7913 35.4658 25.1145 35.4861C25.2764 35.4963 25.5308 35.5198 25.9328 35.5465C26.8984 35.6104 27.4531 35.7748 27.8709 35.8089C28.0987 35.8275 28.728 35.8958 29.5211 35.9765C30.0088 36.0261 30.4651 36.0443 31.044 36.1112C31.2453 36.1345 31.395 36.1383 31.9219 36.1584C32.3819 36.1761 33.2342 36.1653 33.7064 36.1587C34.5008 36.1475 34.9851 36.0983 35.2875 36.0713C35.472 36.0548 35.8706 36.0039 36.3412 36.0306C36.5075 36.04 36.5189 36.1104 36.5258 36.1845C36.5538 36.487 36.4253 36.6486 36.3247 36.8437C36.2026 37.0803 35.8081 37.2134 35.5987 37.3482C35.3782 37.4901 35.2425 37.6306 35.0743 37.7048C34.8831 37.7891 34.7313 37.7923 34.2444 37.8125C33.8243 37.8299 33.0519 37.8194 32.6208 37.8127C31.9473 37.8023 31.6387 37.7657 30.9184 37.7455C30.2914 37.728 29.133 37.7387 28.5031 37.732C27.6575 37.7231 27.1764 37.6451 26.8244 37.611C26.5027 37.5773 26.0311 37.564 25.3573 37.5438C24.7768 37.537 23.7118 37.537 22.6144 37.5773" stroke="#0012D4" stroke-width="0.5" stroke-linecap="round"/>
<path d="M16.2895 21.7604C16.2295 21.6163 16.1096 21.4722 15.4077 20.6023C15.208 20.3548 15.0049 20.1985 14.7338 19.9814C14.4627 19.7643 14.117 19.502 13.7899 19.2298C13.4628 18.9576 13.1648 18.6834 12.8265 18.3992C12.4882 18.1149 12.1187 17.8288 11.821 17.6218C11.3225 17.2751 10.9089 17.0297 10.5665 16.7713C10.0457 16.3782 9.6204 16.1989 9.14501 15.8676C8.89173 15.6911 8.68047 15.5237 8.01742 14.9864C7.441 14.5193 6.41264 13.6146 5.83666 13.1064C5.16633 12.5149 4.86476 12.2376 4.46795 11.9549C4.2005 11.7644 3.99635 11.6824 3.79244 11.5805C3.50681 11.4378 3.14276 11.2254 2.74017 11.063C2.21833 10.8526 2.03377 10.8273 1.8351 10.7551C1.48875 10.6292 1.20366 10.5875 0.902391 10.4961C0.787476 10.4612 0.59173 10.4899 0.481554 10.5198C0.32604 10.5618 0.299131 10.7063 0.263008 10.8022C0.151426 11.0985 0.788964 11.6184 1.23075 12.1379C1.40984 12.3485 1.64617 12.6194 1.90445 12.9559C2.13559 13.257 2.34516 13.5229 2.56081 13.9065C2.69824 14.151 2.91952 14.4809 3.09562 14.7839C3.41887 15.3403 3.59755 15.7029 3.77131 15.9247C4.03818 16.2654 4.2839 16.498 4.53513 16.749C5.0731 17.2866 5.43984 17.7619 5.55995 17.9122C5.66356 18.0418 5.96797 18.35 6.33498 18.8012C6.75766 19.3208 7.23337 19.8329 7.50447 20.0798C7.72845 20.2838 7.94427 20.4231 8.67017 20.8496C8.87376 20.9692 9.06121 21.0127 9.46326 21.1984C9.86531 21.384 10.4852 21.694 10.8403 21.8655C11.4283 22.1497 11.7249 22.2539 11.8819 22.2721C12.043 22.2908 12.2068 22.3384 12.3634 22.3684C12.5923 22.3864 12.749 22.4226 12.8271 22.4526C12.8693 22.4706 12.917 22.4945 13.0384 22.519" stroke="#0012D4" stroke-width="0.5" stroke-linecap="round"/>
<path d="M15.3142 22.6996C15.195 22.6758 14.609 22.735 13.7488 22.8613C13.2782 22.9303 12.7772 23.0721 12.0683 23.2521C11.4197 23.4169 11.0523 23.6024 10.6817 23.7698C10.3839 23.9043 9.85809 24.128 9.54616 24.2685C9.23424 24.409 9.15079 24.4567 8.51773 24.7316C7.88467 25.0065 6.70452 25.5071 5.82239 25.8485C4.94026 26.1899 4.3919 26.3568 4.08558 26.4547C3.63048 26.6001 3.34722 26.7563 3.10519 26.8596C2.90441 26.9453 2.72012 27.0821 2.47321 27.2925C2.39273 27.3611 2.32204 27.3953 2.29187 27.4674C2.27765 27.5014 2.29747 27.5394 2.32746 27.5757C2.47771 27.7577 2.70639 27.8169 2.91699 27.8591C3.11434 27.8987 3.28436 27.9375 3.48286 27.9675C3.83504 28.0207 4.19901 28.0459 4.81184 28.1358C5.0397 28.1693 5.29427 28.19 5.75574 28.2442C6.46293 28.3272 6.99279 28.2388 7.16708 28.2027C7.30326 28.1744 7.68888 28.1308 8.57589 27.8974C9.14769 27.747 9.93973 27.4376 10.673 27.1352C11.4063 26.8329 12.0501 26.5229 12.4234 26.3335C13.047 26.017 13.2544 25.9031 13.435 25.7766C13.6188 25.648 13.8439 25.5418 14.0132 25.4513C14.0852 25.4212 14.1817 25.397 14.2899 25.3729C14.3385 25.3608 14.3742 25.3489 14.375 25.3366" stroke="#0012D4" stroke-width="0.5" stroke-linecap="round"/>
<path d="M14.6278 23.964C14.4967 23.9998 14.3655 24.0355 13.8808 24.2327C13.396 24.43 12.5615 24.7876 12.084 24.9838C11.6064 25.1799 11.5111 25.2037 10.8838 25.4664C10.2565 25.729 9.1002 26.2296 8.46281 26.5174C7.58987 26.9114 7.43998 27.0699 7.09807 27.3518C6.68572 27.7519 6.40396 28.0575 6.34399 28.1476C6.30787 28.1901 6.26019 28.2258 6.21106 28.2627" stroke="#0012D4" stroke-width="0.5" stroke-linecap="round"/>
<path d="M5.74146 25.8785C5.90907 25.8666 6.19805 25.8424 6.59433 25.7645C6.96406 25.6919 7.54401 25.6618 8.14546 25.6737C8.86974 25.734 9.38955 25.7578 9.47354 25.794C9.52176 25.8062 9.58137 25.8062 9.6789 25.8424" stroke="#0012D4" stroke-width="0.5" stroke-linecap="round"/>
<path d="M6.3194 18.6538C6.48701 18.6181 6.8952 18.4978 7.68901 18.5151C7.98185 18.5215 8.16096 18.6054 8.37662 18.6892C8.74097 18.8308 9.15905 19.074 9.48994 19.2846C9.78069 19.4696 10.194 19.7 10.9822 20.2826C11.7223 20.8297 11.7726 21.2648 12.098 21.6208C12.279 21.832 12.4362 22.0129 12.4721 22.0791C12.4961 22.1094 12.5319 22.1332 12.5687 22.1578" stroke="#0012D4" stroke-width="0.5" stroke-linecap="round"/>
<path d="M3.1767 14.6442C3.32011 14.6442 4.08628 14.7872 4.59598 14.9388C4.72563 14.9773 4.94241 15.0047 5.32712 15.1363C5.71183 15.268 6.26018 15.4945 6.65592 15.6887C7.29645 16.0029 7.58302 16.269 7.751 16.4131C8.16444 16.7679 8.50995 17.0391 8.94794 17.4056C9.81721 18.1329 10.1471 18.2796 10.3405 18.4425C10.5608 18.628 10.9288 18.9284 11.2793 19.219C11.483 19.3878 11.6527 19.6285 11.9054 19.8389C12.3342 20.196 12.5558 20.5554 13.0185 21.1321C13.2199 21.383 13.6727 21.8168 13.953 22.1571C14.0368 22.2532 14.1098 22.3381 14.1578 22.4101C14.182 22.4464 14.2059 22.4822 14.2666 22.5191" stroke="#0012D4" stroke-width="0.5" stroke-linecap="round"/>
<path d="M6.21103 15.475C6.09074 15.1987 6.01885 14.9584 5.9345 14.6696C5.78887 14.171 5.52613 13.6609 5.35653 13.2543C5.28361 13.0795 5.21186 12.911 5.12769 12.7663C5.03679 12.6101 4.92287 12.4775 4.87464 12.3328C4.86254 12.2965 4.85062 12.2608 4.8266 12.2304C4.80258 12.2001 4.76682 12.1762 4.69385 12.1878" stroke="#0012D4" stroke-width="0.5" stroke-linecap="round"/>
<path d="M15.3141 16.8116C15.2903 16.8116 15.123 16.442 14.8704 15.8523C14.7483 15.5674 14.6285 15.3323 14.4307 14.9064C14.1632 14.3304 13.9295 13.9824 13.8817 13.8446C13.7293 13.4058 13.6048 13.0569 13.5323 12.8207C13.4424 12.5272 13.1482 12.0708 12.9367 11.755C12.7364 11.456 12.5211 10.878 12.3887 10.4851C12.3184 10.2767 12.1122 10.0464 11.9073 9.72075C11.5631 9.17343 11.4258 8.55379 11.3108 8.32314C11.1726 8.04622 10.8356 7.6731 10.7209 7.52843C10.591 7.36459 10.4382 7.22734 10.2336 7.10687C10.066 7.00825 9.82483 6.84226 9.63139 6.76948C9.52799 6.73057 9.41446 6.73317 9.32434 6.74509C9.23908 6.75637 9.1616 6.86502 9.08339 6.97321C8.97051 7.12937 8.99254 7.68033 9.11247 8.63254C9.14 8.85109 9.22048 9.22243 9.35883 9.80546C9.46475 10.2518 9.46215 10.74 9.50983 11.3999C9.53699 11.7759 9.65288 12.2268 9.74969 12.6271C9.92807 13.3646 10.0759 13.7884 10.1658 14.04C10.3129 14.4515 10.4368 14.8833 10.5809 15.2435C10.8592 15.9389 11.0624 16.3275 11.1897 16.5641C11.256 16.739 11.3998 16.9069 11.5268 17.0639C11.5569 17.1002 11.5927 17.136 11.6295 17.2089" stroke="#0012D4" stroke-width="0.5" stroke-linecap="round"/>
<path d="M9.67889 10.9235C9.82303 11.0073 10.0387 11.2471 10.2737 11.6495C10.3938 11.8554 10.5899 12.2167 10.7539 12.4844C10.9179 12.752 11.0371 12.9189 11.2595 13.1658C11.7862 13.7508 12.171 14.1139 12.2491 14.21C12.4238 14.4251 12.628 14.6312 13.3599 15.5185C13.9502 16.2344 14.2182 16.7509 14.29 16.8887C14.4947 17.2811 14.5671 17.4249 14.6695 17.6834C14.808 18.0029 14.9045 18.2197 14.9587 18.3643C14.9767 18.4006 15.0006 18.4364 15.0251 18.4371" stroke="#0012D4" stroke-width="0.5" stroke-linecap="round"/>
<path d="M10.7265 15.2582C10.8461 15.294 11.1109 15.462 11.3038 15.613C11.5401 15.798 12.0602 16.1353 12.3213 16.3414C12.4995 16.482 12.7834 16.7256 13.1816 17.1052C13.3956 17.3092 13.5911 17.5925 13.7603 17.7563C13.9045 17.8959 13.9892 18.0751 14.1096 18.3098C14.2427 18.5688 14.3865 19.0375 14.4411 19.2313C14.4472 19.2676 14.4472 19.3033 14.4532 19.3396C14.4591 19.3759 14.471 19.4117 14.4833 19.4485" stroke="#0012D4" stroke-width="0.5" stroke-linecap="round"/>
<path d="M11.9185 9.73138C11.9185 9.83903 11.99 10.3896 12.0928 10.8259C12.1953 11.2611 12.0399 12.0389 11.9788 12.4638C11.9495 12.668 11.8824 12.8011 11.8465 12.9458C11.8344 12.9821 11.8224 13.0179 11.8103 13.0542C11.7982 13.0905 11.7863 13.1263 11.7018 13.1992" stroke="#0012D4" stroke-width="0.5" stroke-linecap="round"/>
<path d="M21.9219 1.12654C22.4175 0.611528 23.3369 0.279066 23.9025 0.250577C24.386 0.226229 24.9799 0.976075 25.5342 1.76906C25.7165 2.02993 25.995 2.57864 26.3357 3.40703C26.7606 4.43993 26.7523 5.06962 26.8814 6.09992C26.9323 6.50567 27.0277 7.07103 27.0748 8.11102C27.1218 9.151 27.1218 10.6479 27.1127 11.5012C27.1035 12.3545 27.0853 12.5188 27.0759 13.0233C27.0665 13.5278 27.0665 14.3675 27.103 15.0648C27.1395 15.7621 27.2125 16.2915 27.2593 16.9567C27.306 17.6219 27.3242 18.4068 27.361 19.012C27.3978 19.6172 27.4526 20.0188 27.4808 20.6273C27.509 21.2358 27.509 22.039 27.4908 22.6171C27.4621 23.525 27.3984 24.1727 27.4166 24.7615C27.4327 25.28 27.509 25.9052 27.5181 26.5591C27.5299 27.4011 27.6008 28.2114 27.6288 29.2334C27.6387 29.5953 27.675 30.4015 27.6658 31.4705C27.6601 32.1423 27.5831 32.5451 27.5184 32.9699C27.4908 33.2659 27.4537 33.5596 27.4537 33.7632C27.4537 33.7842 27.4537 33.6381 27.4537 33.4877" stroke="#0012D4" stroke-width="0.5" stroke-linecap="round"/>
<path d="M27.3984 17.2794C27.5085 17.1146 27.7657 16.6732 28.6854 14.9539C29.1726 14.0431 29.4806 13.6672 29.8398 13.2526C30.2079 12.8279 30.5681 12.376 31.0546 11.9357C31.8181 11.2447 32.3936 10.6059 32.8071 10.2477C33.3367 9.7889 34.0686 9.11448 34.8334 8.51566C35.415 8.06025 35.768 7.78463 36.4404 7.41566C36.5797 7.33923 36.6354 7.30447 36.6819 7.31304C36.7283 7.32162 36.7649 7.37638 36.7837 7.4411C36.8636 7.71626 36.5458 8.0579 36.2595 8.38124C35.9694 8.70896 35.7525 9.03593 35.136 10.1298C34.9053 10.5392 34.738 10.8426 34.618 11.1104C34.4469 11.4919 34.2954 11.7277 34.01 12.1609C33.8119 12.4614 33.7058 12.7788 33.3741 13.3129C33.1178 13.7256 32.876 13.9039 32.5626 14.1714C32.2793 14.4132 31.9909 14.7149 31.3293 15.3588C30.5177 16.1487 29.8921 16.5017 29.4739 16.8452C29.1272 17.13 28.8931 17.2971 28.6165 17.509C28.3028 17.8133 27.9897 18.1264 27.7687 18.3291C27.6755 18.4041 27.6208 18.4223 27.509 18.4964" stroke="#0012D4" stroke-width="0.5" stroke-linecap="round"/>
<path d="M22.4751 0.628662C22.3102 0.683427 21.7228 1.01368 21.3604 1.19069C21.0566 1.33915 20.706 1.32899 20.4386 1.41197C20.1744 1.49393 19.8951 1.60558 19.2415 1.87222C18.8768 2.021 18.5309 2.32361 18.2535 2.60048C17.9002 2.95307 17.7553 3.17219 17.4887 3.44823C16.7463 4.21685 16.5937 5.0331 16.4551 5.38492C16.3343 5.69166 16.2795 6.02993 16.316 6.28771C16.3325 6.40411 16.4255 6.47248 16.5179 6.50096C16.9083 6.62135 17.4743 6.05316 17.8729 5.62749C18.0104 5.48065 18.2477 5.24331 18.3699 5.23058C18.8739 5.17813 18.5475 6.15716 18.5934 6.52807C18.6457 6.95031 18.6581 7.35646 18.7223 7.65324C18.7354 7.71394 18.7865 7.7636 18.8783 7.79181C19.1073 7.86216 19.3579 7.76526 19.5236 7.6549C20.0443 7.30808 20.4825 6.43818 20.7132 6.22576C20.7718 6.17178 20.851 6.14278 20.916 6.1331C20.981 6.12342 21.0357 6.14167 21.0913 6.24235C21.3639 6.73607 21.4052 6.98915 21.6442 7.34844C21.8363 7.63722 21.9767 7.76416 22.0962 7.84713C22.1542 7.8874 22.2339 7.87535 22.3172 7.82971C22.6954 7.62234 22.641 7.17612 22.687 6.64313C22.7964 5.373 22.641 4.74544 22.687 4.20775C22.7624 3.32469 22.4386 2.5482 22.3556 2.18808C22.2859 1.88534 22.162 1.6443 22.0331 1.40395C21.9595 1.29359 21.8671 1.21891 21.7477 1.19125C21.6829 1.18184 21.6099 1.18184 21.5347 1.18184" stroke="#0012D4" stroke-width="0.5" stroke-linecap="round"/>
</svg>
