<svg width="20" height="45" viewBox="0 0 20 45" fill="none" xmlns="http://www.w3.org/2000/svg">
<path d="M7.53475 9.13916C6.62422 9.47424 5.69543 10.018 5.41203 10.2922C5.22853 10.4698 4.94066 10.8506 4.75509 11.229C4.47208 11.806 4.42626 12.1659 4.43371 12.7423C4.44085 13.2944 4.80893 13.5918 5.19377 13.9295C5.40914 14.1185 5.86465 14.3927 6.19588 14.6591C6.30479 14.7466 6.44442 14.8115 6.65163 14.947C7.00667 15.1793 7.72224 15.3879 8.53061 15.5321C9.48781 15.7029 10.3365 15.4369 10.6983 15.397C11.1378 15.3485 11.3951 15.3408 11.8112 15.2213C12.5898 14.9978 12.8056 14.8764 13.214 14.7244C13.5373 14.6042 13.7835 14.2043 13.8883 13.9954C13.994 13.7847 14.1527 13.611 14.2568 13.3786C14.3523 13.1652 14.4411 12.9063 14.4654 12.6176C14.4845 12.3901 14.5373 12.1371 14.5298 11.6253C14.52 10.953 13.8835 10.4401 13.5929 10.1893C13.374 10.0006 13.1287 9.73336 12.7523 9.4526C12.4731 9.24436 12.1191 9.17185 11.3038 8.93965C11.0675 8.87235 10.9009 8.88292 10.4553 8.85889C9.50331 8.80754 8.75392 8.88244 8.51403 8.93052C8.14434 8.96273 7.88858 8.99494 7.38452 9.12257C7.26313 9.15502 7.18381 9.17089 7.10208 9.23531" stroke="#0012D4" stroke-width="0.5" stroke-linecap="round"/>
<path d="M7.91931 9.04303C7.71307 9.18581 7.50683 9.32859 7.33712 9.4656C7.16742 9.60262 7.0405 9.72953 6.92753 9.8663C6.81455 10.0031 6.71937 10.1459 6.52515 10.3891" stroke="#0012D4" stroke-width="0.5" stroke-linecap="round"/>
<path d="M8.49621 9.13916C8.36929 9.3454 8.24238 9.55164 8.1532 9.68168C8.06402 9.81172 8.01643 9.85932 7.98398 9.90763C7.95152 9.95594 7.93566 10.0035 7.96739 10.0526" stroke="#0012D4" stroke-width="0.5" stroke-linecap="round"/>
<path d="M9.02504 9.04303C8.99331 9.29686 8.96158 9.5507 8.94524 9.72112C8.92889 9.89154 8.92889 9.97087 8.92889 10.0526" stroke="#0012D4" stroke-width="0.5" stroke-linecap="round"/>
<path d="M9.79425 8.8988C9.81012 9.12091 9.82598 9.34301 9.83415 9.54468C9.84232 9.74636 9.84232 9.92087 9.93847 10.0045" stroke="#0012D4" stroke-width="0.5" stroke-linecap="round"/>
<path d="M10.2269 9.04303C10.2904 9.21754 10.3538 9.39205 10.4103 9.52161C10.4668 9.65117 10.5144 9.73049 10.5469 9.79515C10.5793 9.85981 10.5952 9.90741 10.7557 9.95644" stroke="#0012D4" stroke-width="0.5" stroke-linecap="round"/>
<path d="M10.9961 9.09106C11.123 9.20212 11.2499 9.31317 11.3788 9.48143C11.5076 9.64969 11.6345 9.87179 11.8134 10.1487" stroke="#0012D4" stroke-width="0.5" stroke-linecap="round"/>
<path d="M11.9095 9.18719C12.0681 9.4093 12.2268 9.6314 12.3244 9.76962C12.422 9.90783 12.4537 9.95542 12.4864 10.0045" stroke="#0012D4" stroke-width="0.5" stroke-linecap="round"/>
<path d="M8.30389 11.4948C8.30389 11.6217 8.30389 11.814 8.32769 11.9508C8.35149 11.9607 8.39908 11.8496 8.4236 11.7448C8.44812 11.64 8.44812 11.5448 8.44812 11.4948" stroke="#0012D4" stroke-width="0.5" stroke-linecap="round"/>
<path d="M11.573 11.5428C11.6047 11.7174 11.6365 11.8919 11.6687 11.9421C11.7009 11.9923 11.7326 11.913 11.749 11.8325C11.7653 11.752 11.7653 11.6726 11.7653 11.5909" stroke="#0012D4" stroke-width="0.5" stroke-linecap="round"/>
<path d="M10.1307 12.5524C10.0356 12.838 9.93892 13.1279 9.85095 13.368C9.81469 13.467 9.77884 13.513 9.89734 13.5375C10.0158 13.562 10.2855 13.562 10.4245 13.5303C10.5634 13.4985 10.5634 13.4351 10.5396 13.3627C10.4682 13.211 10.4033 13.0817 10.3555 12.9779C10.3235 12.9216 10.2759 12.8582 10.1788 12.7447" stroke="#0012D4" stroke-width="0.5" stroke-linecap="round"/>
<path d="M9.89038 14.3793H10.3711" stroke="#0012D4" stroke-width="0.5" stroke-linecap="round"/>
<path d="M5.99633 5.58165C5.03676 5.66145 4.42814 5.7576 3.74764 5.93331C3.13301 6.09202 2.9686 6.27007 2.49675 6.5102C2.13247 6.69559 1.68693 7.11811 1.48598 7.35968C1.32665 7.55122 1.0312 8.07767 0.796835 8.54496C0.662753 8.8123 0.611989 9.05743 0.524253 9.52207C0.471796 9.79988 0.356233 10.1785 0.283641 10.7227C0.201635 11.3375 0.291333 11.7986 0.323302 11.9424C0.470357 12.6036 0.819671 13.4649 0.948029 13.8649C1.03841 14.1465 1.21965 14.5206 1.3807 14.8191C1.5034 15.0466 1.58886 15.2754 1.74895 15.5557C2.06248 16.1046 2.21383 16.3013 2.6215 16.7332C2.83739 16.962 3.04648 17.2301 3.29526 17.4873C3.48106 17.6794 3.71952 17.9195 4.9334 18.9338C5.82926 19.6825 6.05882 20.0982 6.27612 20.2999C6.48421 20.493 6.65302 20.7722 6.8845 21.14C7.21913 21.6716 7.50106 21.9414 8.03685 22.3974C8.8763 23.1118 9.11924 23.4153 9.44807 23.6567C10.0843 24.1236 10.6249 24.0903 10.8992 24.0345C11.1697 23.9795 11.4595 23.7067 11.6763 23.53C11.8716 23.3709 12.1643 23.3057 12.4852 23.1216C12.8159 22.9318 13.0296 22.5856 13.4224 22.0731C13.655 21.7695 13.895 21.4645 14.3118 21.0071C14.5159 20.7831 14.6651 20.5184 14.8334 20.2215C14.9379 20.0372 14.954 19.7809 15.0653 19.3348C15.4267 17.886 15.6747 17.6974 15.7631 17.4649C15.8998 17.1058 16.1227 16.433 16.2597 16.127C16.4342 15.7375 16.54 15.4859 16.7482 15.0461C16.8836 14.7598 17.1477 14.2235 17.2936 13.7315C17.3636 13.4953 17.4856 13.1635 17.5577 12.4623C17.6084 11.9694 17.5823 11.19 17.5664 10.734C17.5362 9.8666 17.2304 9.23819 17.07 8.82787C16.9783 8.59308 16.814 8.37093 16.4386 7.76423C16.0707 7.16975 15.454 6.68928 14.6959 6.28185C13.6801 5.73598 12.8407 5.54992 12.5445 5.50184C11.8699 5.39232 10.774 5.2932 10.1653 5.2134C9.52804 5.12983 9.07598 5.24513 8.39452 5.34079C7.80705 5.42327 7.2953 5.46915 6.82441 5.5254C6.59293 5.53357 6.22804 5.53357 6.00834 5.52564C5.78864 5.51771 5.72519 5.50184 5.61173 5.4855" stroke="#0012D4" stroke-width="0.5" stroke-linecap="round"/>
<path d="M5.61178 5.38935C4.65125 5.22926 4.26762 5.13359 3.84288 4.91774C3.11 4.54528 2.71289 3.96442 2.51963 3.74761C2.41077 3.62547 2.32685 3.51493 2.30282 3.39522C2.28853 3.32407 2.29464 3.22792 2.38983 3.17889C2.90283 2.91461 3.25517 3.41734 3.6388 3.68151C4.21156 4.0759 4.48876 4.26633 4.81735 4.45935C4.8861 4.49973 4.93778 4.50766 4.97816 4.48411C5.07577 4.42716 4.94018 3.71299 4.71591 2.71208C4.54868 1.96572 4.50607 1.54532 4.46617 1.16865C4.42511 0.781094 4.52145 0.438644 4.65726 0.294421C4.71718 0.230789 4.80894 0.245385 4.88153 0.277114C5.19836 0.415598 5.29064 0.86843 5.88172 1.85179C6.3336 2.60358 6.57231 3.08082 6.66918 3.20196C6.87004 3.45317 6.84537 2.41162 7.06891 1.53883C7.1756 1.12231 7.39005 0.934772 7.50976 0.870833C7.57942 0.833624 7.67706 0.806894 7.74989 0.806414C7.82272 0.805933 7.87032 0.837662 7.89483 0.941262C8.02255 1.48092 7.96743 2.16356 8.04723 2.87938C8.10007 3.35333 8.22366 3.86635 8.2715 3.97043C8.29308 4.0174 8.35106 4.02692 8.4549 3.90818C8.75492 3.5651 9.13467 2.92505 9.61446 2.33278C10.172 1.64453 10.6423 1.67223 10.9389 1.61551C11.0106 1.60179 11.075 1.65493 11.1156 1.69507C11.2915 1.86895 11.3644 2.19913 11.3966 2.54334C11.4229 2.82498 11.4769 3.41397 11.5007 4.02331C11.5078 4.20573 11.572 4.12499 11.668 3.99687C11.8989 3.68832 12.2441 3.19716 12.604 2.64502C12.8715 2.23451 13.1426 2.10442 13.2946 2.08039C13.3667 2.06897 13.4306 2.07221 13.4712 2.09601C13.7868 2.28087 13.6075 3.28657 13.6481 3.80938C13.6589 3.94779 13.6883 4.05865 13.6962 4.1786C13.7 4.23551 13.72 4.28268 13.8234 4.18821C14.4475 3.6178 14.6488 3.37118 15.336 2.98707C15.6949 2.78648 15.9146 2.69766 16.0908 2.66521C16.1566 2.6531 16.1718 2.75968 16.18 2.83227C16.219 3.17871 15.7103 3.84712 15.3399 4.2745C15.0543 4.60399 14.5873 4.90764 14.362 5.08432C14.1695 5.18071 14.0094 5.29272 13.8657 5.41243C13.7854 5.48454 13.6902 5.57972 13.5921 5.6778" stroke="#0012D4" stroke-width="0.5" stroke-linecap="round"/>
<path d="M13.7995 34.6466C13.8462 34.6112 14.058 34.6579 14.2943 34.6879C14.5346 34.7183 14.7661 34.8583 14.9906 34.9238C15.3197 35.0199 15.5457 34.8474 15.6341 34.8413C15.676 34.8385 15.7107 34.8704 15.7405 34.9116C15.8065 35.0032 15.8293 35.1299 15.847 35.3762C15.8831 35.8782 15.8063 36.4966 15.7355 37.0093C15.6566 37.5803 15.676 37.8672 15.5585 38.6974C15.5107 39.0348 15.499 39.6226 15.5578 40.1096C15.6018 40.4744 15.6052 40.7351 15.6404 40.9247C15.6798 41.1366 15.6994 41.3023 15.7173 41.5145C15.7355 41.7307 15.7939 41.8571 15.8584 41.8989C16.1594 42.0941 16.1714 41.5158 16.242 41.4977C16.4843 41.4358 16.7354 42.1025 17.0031 42.4057C17.2089 42.639 17.4336 42.7185 17.6462 42.9074C17.7813 43.0274 18.0582 43.1901 18.3248 43.3913C18.5686 43.5752 18.8378 43.7807 19.0095 43.8638C19.1048 43.9098 19.1809 43.9701 19.2165 43.9995C19.3524 44.1118 18.5241 44.1355 17.6968 44.2295C17.3407 44.27 16.9634 44.2538 16.6451 44.23C16.3758 44.21 16.2432 44.0888 16.1308 43.959C15.9915 43.7981 15.8417 43.6171 15.7178 43.4281C15.583 43.2224 15.1251 42.6994 14.8268 42.4011C14.7912 42.3655 14.7562 42.3305 14.7147 42.2949C14.6733 42.2593 14.6266 42.2243 14.585 42.3347C14.2785 43.1485 14.5784 43.8388 14.5315 44.0229C14.4927 44.1753 14.2605 44.1589 14.1187 44.1298C14.0386 44.1134 13.9769 44.053 13.9121 44.0178C13.7425 43.9255 13.7407 43.5938 13.6993 43.2402C13.6346 42.688 13.6579 42.4487 13.4815 41.4956C13.416 41.1412 13.41 40.6926 13.3806 40.278C13.328 39.5352 13.41 39.2742 13.4394 38.8159C13.4896 38.0337 13.4571 37.4678 13.4748 37.1633C13.5169 36.4394 13.4925 35.9099 13.5102 35.6814C13.5162 35.4996 13.5162 35.1841 13.5279 35.004C13.5396 34.824 13.563 34.7889 13.5871 34.7528" stroke="#0012D4" stroke-width="0.5" stroke-linecap="round"/>
<path d="M7.03689 34.7882C7.22525 34.8587 7.50709 34.9999 7.8854 35.0419C8.08761 35.0643 8.29877 35.1182 8.44677 35.195C8.52915 35.2378 8.53564 35.3544 8.55334 36.0209C8.57011 36.6522 8.55936 37.8792 8.54768 38.6105C8.53281 39.541 8.48855 39.8152 8.48271 39.9623C8.47637 40.1219 8.45314 40.6143 8.49404 41.4325C8.53476 42.2474 8.70099 42.7302 8.70683 42.8892C8.71941 43.2314 8.86598 43.5796 8.87218 43.863C8.87428 43.9593 8.81924 44.0406 8.76631 44.1172C8.651 44.2842 8.26584 44.2771 8.02402 44.2362C7.72391 44.1854 7.8045 43.6185 7.71581 43.3514C7.63685 43.1136 7.58002 42.9086 7.51541 42.8376C7.37314 42.6814 7.21463 43.1313 7.13745 43.2852C7.06512 43.4293 6.96679 43.615 6.7956 43.8455C6.65586 44.0336 6.4711 44.1114 6.22945 44.1707C5.96908 44.2346 5.68083 44.2296 5.26817 44.2475C5.11348 44.2542 4.69194 44.2771 4.11393 44.2829C3.58009 44.2883 3.1075 44.2891 2.6366 44.2596C2.52776 44.2527 2.48223 44.207 2.44647 44.1714C2.41071 44.1358 2.38734 44.1008 2.38115 44.0652C2.34628 43.8649 2.66918 43.6405 2.88763 43.5281C3.09322 43.4223 3.31782 43.3098 3.57186 43.1567C4.14564 42.8108 4.72274 42.5896 4.90597 42.513C5.16108 42.4062 5.58382 42.1655 5.79112 42.041C5.95034 41.9454 6.05685 41.8348 6.20414 41.6345C6.49721 41.2361 6.48172 40.9737 6.68212 40.1209C6.81291 39.5644 6.76497 38.9456 6.83578 38.4561C6.8913 38.0724 6.89527 37.6469 6.95988 37.2385C6.97776 37.1495 6.98945 37.0677 6.99547 36.6809C7.00149 36.294 7.00149 35.6047 6.96608 34.8944" stroke="#0012D4" stroke-width="0.5" stroke-linecap="round"/>
<path d="M14.1889 21.4047C14.1889 21.8526 14.1773 22.0413 14.1712 22.9011C14.1657 23.6908 14.2003 25.1981 14.2182 26.0213C14.2381 26.9382 14.2598 27.1277 14.2656 27.3103C14.2711 27.4819 14.2952 27.6705 14.3127 27.97C14.3406 28.4469 14.4014 29.0492 14.3955 29.574C14.3922 29.8772 14.366 30.1833 14.3601 30.5428C14.3564 30.7745 14.3306 31.4073 14.3247 32.2744C14.3209 32.8406 14.2718 33.1234 14.2539 33.706C14.2244 34.09 14.236 34.5046 14.2596 34.5753C14.2714 34.6108 14.2831 34.6459 14.2952 34.5758" stroke="#0012D4" stroke-width="0.5" stroke-linecap="round"/>
<path d="M6.7182 21.0506C6.7182 21.2963 6.74157 21.8869 6.84761 22.2824C6.95827 22.6951 7.09492 23.4533 7.20769 23.9875C7.33518 24.5916 7.2847 24.8143 7.31409 25.3082C7.35234 25.9511 7.33179 26.4316 7.34949 26.6547C7.38009 27.0402 7.37888 27.4574 7.41429 27.7872C7.46867 28.2938 7.46173 28.9065 7.49112 29.3346C7.5008 29.4757 7.50882 29.6533 7.52653 29.8593C7.54317 30.0531 7.57928 30.4888 7.65009 31.306C7.69144 31.7832 7.67417 32.3919 7.66833 32.7341C7.6508 33.1348 7.63876 33.7207 7.64461 34.4882C7.65045 34.7298 7.66213 34.6714 7.67417 34.6112" stroke="#0012D4" stroke-width="0.5" stroke-linecap="round"/>
<path d="M16.4195 15.8104C16.3962 16.1609 16.3841 16.4934 16.3783 16.7644C16.3739 16.9661 16.3487 17.4352 16.3546 18.0603C16.3576 18.3821 16.3841 18.8281 16.39 19.4003C16.3937 19.7647 16.4663 20.1158 16.502 20.4124C16.5302 20.6462 16.5966 20.8487 16.626 21.1258C16.632 21.2492 16.632 21.4478 16.6261 21.5677C16.6203 21.6875 16.6086 21.7226 16.5966 21.8295" stroke="#0012D4" stroke-width="0.5" stroke-linecap="round"/>
<path d="M2.29242 16.5186C2.26906 16.7289 2.32712 17.2462 2.43334 17.895C2.48189 18.1915 2.50451 18.4521 2.5693 18.7939C2.66497 19.2987 2.71659 20.079 2.75855 20.4184C2.78704 20.6488 2.81148 20.8374 2.85291 21.0438C2.87061 21.2272 2.9177 21.4152 2.93558 21.6693C2.94142 21.7229 2.95311 21.758 3.03596 21.7233" stroke="#0012D4" stroke-width="0.5" stroke-linecap="round"/>
<path d="M1.93838 24.1664C1.90297 23.8962 2.04318 23.2614 2.20906 22.8461C2.46635 22.2019 2.6458 22.0547 2.96392 21.7362C3.03 21.6701 3.07067 21.6645 3.11794 21.6644C3.33848 21.6635 3.49555 21.8642 3.74906 22.2234C3.98188 22.5533 4.12153 22.9852 4.20403 23.1566C4.28688 23.3871 4.33397 23.5283 4.38124 23.7289C4.3931 23.7765 4.40478 23.8116 4.41682 23.8477" stroke="#0012D4" stroke-width="0.5" stroke-linecap="round"/>
<path d="M2.7527 24.308C2.70561 24.2021 2.68189 23.9674 2.75819 23.5894C2.78902 23.4367 2.88229 23.3524 2.95859 23.2934C3.06885 23.2082 3.21263 23.2575 3.28326 23.2985C3.46765 23.4058 3.54297 23.6225 3.60227 23.7764C3.62582 23.847 3.66122 23.9182 3.70247 23.9946C3.72035 24.0361 3.73204 24.0828 3.77948 24.1309" stroke="#0012D4" stroke-width="0.5" stroke-linecap="round"/>
<path d="M0.55752 25.9367C0.486707 25.6658 0.439971 25.3836 0.398369 25.1292C0.367823 24.9424 0.309676 24.7105 0.327202 24.4983C0.334242 24.413 0.37978 24.3795 0.427048 24.3556C0.614008 24.2611 1.04967 24.2726 1.35345 24.3078C1.61959 24.3387 1.85481 24.3667 2.30836 24.3729C2.6347 24.3774 3.01117 24.2966 3.20644 24.2667C3.36929 24.2418 3.55431 24.1784 3.77259 24.1194C4.12443 24.0244 4.35661 23.9426 4.66341 23.848C4.99776 23.745 5.35932 23.7301 5.64912 23.6708C5.89103 23.6213 6.10356 23.5998 6.2574 23.6409C6.33634 23.662 6.38752 23.7411 6.42876 23.8234C6.47793 23.9215 6.48205 24.0244 6.49975 24.4689C6.51605 24.8781 6.50577 25.6612 6.49409 26.0878C6.48241 26.5145 6.45904 26.5612 6.4061 26.6145C6.17167 26.8505 5.84651 26.8685 5.42748 26.9572C5.10473 27.0256 4.86646 27.081 4.66536 27.1344C4.48183 27.1832 4.19445 27.1992 3.9397 27.223C3.53091 27.261 3.10748 27.3055 2.49548 27.3233C2.16273 27.3331 1.76275 27.3062 1.53792 27.2704C1.20282 27.2171 0.912291 26.9875 0.752962 26.8402C0.699853 26.7871 0.629749 26.717 0.593634 26.6283C0.55752 26.5396 0.55752 26.4345 0.55752 26.3261" stroke="#0012D4" stroke-width="0.5" stroke-linecap="round"/>
<path d="M0.522101 26.3615C0.522101 26.3382 0.522101 26.3148 0.522101 26.2327C0.522101 26.1505 0.522101 26.0103 0.486694 25.8304" stroke="#0012D4" stroke-width="0.5" stroke-linecap="round"/>
<path d="M0.380493 24.5912C0.734202 24.6029 0.968945 24.7201 1.1589 24.8093C1.3102 24.8804 1.51208 25.0154 1.69584 25.0984C1.92387 25.2014 2.16143 25.4048 2.36254 25.5408C2.5269 25.6519 2.68119 25.7001 2.82884 25.7594C2.91351 25.7934 3.0002 25.7833 3.07084 25.7481C3.2507 25.6584 3.38932 25.5004 3.56635 25.4411C3.78354 25.3684 4.19021 25.3701 4.55595 25.3935C4.6898 25.402 4.71139 25.4636 4.72343 25.5461C4.75226 25.7437 4.66536 25.9359 4.54162 26.0597C4.34531 26.256 4.06345 26.3495 3.89244 26.4203C3.57945 26.3973 3.37905 26.2443 3.24344 26.1029C3.18963 26.0432 3.16626 26.0081 3.10678 25.9366" stroke="#0012D4" stroke-width="0.5" stroke-linecap="round"/>
<path d="M4.66467 25.8658C4.85303 25.8187 5.13487 25.6782 5.37793 25.5006C5.65103 25.3011 5.82033 24.9934 5.96231 24.7399C6.16342 24.3557 6.21051 24.1437 6.24007 23.9546C6.2576 23.9071 6.29265 23.8604 6.32877 23.8123" stroke="#0012D4" stroke-width="0.5" stroke-linecap="round"/>
<path d="M6.82443 7.13593C6.7777 7.55655 6.75362 7.97187 6.77699 8.27866C6.78539 8.389 6.84709 8.39851 6.88869 8.38701C6.96535 8.34045 7.02483 8.26928 7.06024 8.18696C7.07228 8.13969 7.07228 8.08127 7.07228 8.02108" stroke="#0012D4" stroke-width="0.5" stroke-linecap="round"/>
<path d="M2.68188 7.95026C2.64648 8.27989 2.59974 8.53942 2.54628 8.71078C2.53036 8.76181 2.54026 8.834 2.55778 8.87595C2.57531 8.91791 2.61036 8.92959 2.64594 8.92393C2.68153 8.91826 2.71658 8.8949 2.7881 8.80001" stroke="#0012D4" stroke-width="0.5" stroke-linecap="round"/>
<path d="M3.28381 10.7827C3.28381 10.7594 3.30718 10.8174 3.34259 10.9762C3.35463 11.0649 3.35463 11.1701 3.34878 11.2418C3.34294 11.3135 3.33126 11.3485 3.31922 11.3847" stroke="#0012D4" stroke-width="0.5" stroke-linecap="round"/>
<path d="M2.29244 13.155C2.29244 13.3419 2.29244 13.5289 2.2866 13.6485C2.28075 13.7682 2.26907 13.8149 2.25137 13.8565C2.23366 13.8981 2.21029 13.9332 2.18622 13.9693" stroke="#0012D4" stroke-width="0.5" stroke-linecap="round"/>
<path d="M4.31061 15.2794C4.34566 15.4546 4.38071 15.6299 4.39877 15.7435C4.41683 15.8572 4.41683 15.9039 4.41683 15.9521" stroke="#0012D4" stroke-width="0.5" stroke-linecap="round"/>
<path d="M7.07227 19.1386C7.09563 19.3624 7.16645 19.6442 7.1668 19.8756C7.15512 19.9172 7.13175 19.9522 7.13724 19.9645C7.14272 19.9767 7.17778 19.965 7.21389 19.953" stroke="#0012D4" stroke-width="0.5" stroke-linecap="round"/>
<path d="M9.05505 17.2267L9.26749 17.7224" stroke="#0012D4" stroke-width="0.5" stroke-linecap="round"/>
<path d="M10.7545 19.8822C10.7195 19.8705 10.6844 19.8588 10.6664 19.8995C10.6483 19.9403 10.6483 20.0337 10.6425 20.1111C10.6366 20.1885 10.625 20.2469 10.5775 20.3425" stroke="#0012D4" stroke-width="0.5" stroke-linecap="round"/>
<path d="M10.011 21.8295C10.011 22.1004 9.98762 22.3125 9.94619 22.6072C9.94017 22.6903 9.94017 22.772 9.9577 22.8259C9.97523 22.8797 10.0103 22.903 10.1172 22.8917" stroke="#0012D4" stroke-width="0.5" stroke-linecap="round"/>
<path d="M12.8081 20.8735C12.8315 20.9086 12.8548 20.9436 12.8727 20.9792C12.8906 21.0148 12.9023 21.0499 12.9143 21.086" stroke="#0012D4" stroke-width="0.5" stroke-linecap="round"/>
<path d="M12.2416 16.9789L12.2062 17.6516" stroke="#0012D4" stroke-width="0.5" stroke-linecap="round"/>
<path d="M14.366 15.3502C14.4828 15.5605 14.5313 15.7272 14.4844 15.8566C14.4492 15.9276 14.3908 16.0094 14.3431 16.0691C14.2955 16.1287 14.2605 16.1638 14.2598 16.1999" stroke="#0012D4" stroke-width="0.5" stroke-linecap="round"/>
<path d="M15.9592 10.4641L16.1363 11.0306" stroke="#0012D4" stroke-width="0.5" stroke-linecap="round"/>
<path d="M12.7727 7.20672C12.7727 7.19503 12.7727 7.18335 12.7902 7.18317C12.8441 7.18263 12.914 7.23008 12.9788 7.28302C13.0112 7.30955 13.0319 7.34763 13.0381 7.38906C13.0326 7.47722 12.9855 7.57211 12.9032 7.67213C12.8559 7.72542 12.7975 7.78384 12.7727 7.84403" stroke="#0012D4" stroke-width="0.5" stroke-linecap="round"/>
</svg>
