<svg width="18" height="43" viewBox="0 0 18 43" fill="none" xmlns="http://www.w3.org/2000/svg">
<path d="M7.89867 41.925C8.13365 39.1601 8.18535 38.3251 8.25075 37.1553C8.29276 36.404 8.36707 35.0339 8.41994 34.2635C8.48177 33.3626 8.52528 32.9982 8.53821 32.5423C8.54454 32.3188 8.57698 32.1123 8.59029 30.2611C8.60361 28.4098 8.60361 24.9204 8.59069 23.0065C8.57619 20.8597 8.52528 20.4135 8.48651 19.8159C8.42394 18.8514 8.29031 17.7535 8.30323 16.9057C8.31979 15.8194 8.31694 14.5657 8.22529 13.6281C8.21198 12.6686 8.18613 11.9535 8.14697 11.538C8.13365 11.2517 8.13365 10.8123 8.29031 10.2029" stroke="#0012D4" stroke-linecap="round"/>
<path d="M8.36863 10.1245C7.28303 9.40079 6.33606 8.61439 5.684 7.88439C5.24783 7.3961 5.05386 6.88965 4.87136 6.13615C4.58282 4.94484 4.76484 3.80986 4.94695 3.09357C5.26263 1.85187 5.88569 1.27679 6.65563 0.701091C6.90936 0.511376 7.24386 0.490393 7.62179 0.503317C8.29064 0.52619 8.94041 1.21883 9.29445 1.83251C9.66675 2.47787 9.64691 3.33207 9.7131 3.97356C9.81629 4.97374 9.67511 6.59201 9.53099 7.41953C9.32512 8.60161 8.86522 9.26137 8.63063 9.653C8.51618 9.84407 8.49943 10.0454 8.48612 10.1112C8.40816 10.4964 9.12369 9.42115 9.94494 8.63946C10.4759 8.13409 11.2604 7.46613 12.0997 6.94056C12.6674 6.58504 14.4389 6.59984 15.3906 6.78156C15.8048 6.86066 15.653 7.61495 15.588 8.02146C15.5197 8.44854 15.9381 8.86974 16.2005 9.37847C16.3991 9.76356 16.5146 10.123 16.5796 10.54C16.6514 11.0011 16.5153 11.4287 16.3591 11.6762C15.9105 12.3866 14.9245 13.0994 14.2204 13.348C12.9954 13.7807 11.7429 13.3641 11.1637 13.0629C10.6305 12.7857 10.0714 11.9057 9.53177 11.431C9.33674 11.2493 9.12683 11.0652 8.91848 10.896C8.81352 10.8044 8.71013 10.701 8.44695 10.5162" stroke="#0012D4" stroke-linecap="round"/>
<path d="M8.44696 10.1245C7.67153 9.65929 6.65172 9.00604 5.66011 8.32774C4.66097 7.64428 3.72389 6.8881 2.95394 6.70482C2.33093 6.55651 1.27227 7.19671 0.720073 7.81157C0.25752 8.32661 0.639397 8.79143 0.822681 9.49519C0.921876 9.87608 0.667595 10.3564 0.562246 10.8538C0.452631 11.3713 0.79605 11.6895 1.35608 12.2632C1.95487 12.8767 3.22103 13.2043 4.29136 13.2059C5.4 13.2075 6.27419 12.2174 6.94388 11.7185C7.4013 11.4052 7.76709 10.9877 8.18418 10.5569C8.28952 10.4645 8.36707 10.4128 8.52529 10.2812" stroke="#0012D4" stroke-linecap="round"/>
<path d="M8.44695 36.5205C8.55034 36.2354 10.2594 34.1613 10.9017 33.6859C11.0811 33.5531 10.9009 34.1692 10.9788 34.4559C11.0493 34.7148 11.4468 34.9007 11.9936 35.0703C12.5718 35.2497 13.2734 35.0081 13.9897 34.5788C14.7514 34.1224 15.2073 33.4682 15.559 32.9606C16.2692 31.9356 16.0971 31.1442 15.9933 30.7663C15.8 30.0623 14.5877 29.9427 13.3991 29.8886C12.2585 29.8368 11.3497 30.8763 10.7983 31.6095C10.5325 31.9629 10.4317 32.3935 10.3534 32.7064C10.4302 33.2285 10.7435 33.8559 10.9389 34.1038C11.0309 34.1966 11.1085 34.2224 11.1884 34.2491" stroke="#0012D4" stroke-linecap="round"/>
<path d="M8.29031 36.4422C7.25013 34.9336 6.33293 33.7274 6.25422 33.6103C6.00629 33.2415 6.64546 32.7624 6.71047 32.3578C6.79154 31.8534 6.10187 30.9656 5.4596 30.3472C4.82523 29.7364 3.62049 29.6544 2.45931 29.6665C1.72694 29.6742 1.39916 30.5912 1.24133 30.9969C0.970633 31.6928 1.26601 32.6277 1.57892 33.0596C2.05473 33.7165 3.32599 33.8825 3.82414 33.9486C4.31582 34.014 4.84238 33.7023 5.22109 33.4145C5.31313 33.3616 5.39067 33.3357 5.46939 33.2966C5.5481 33.2574 5.62565 33.2057 5.78387 32.9958" stroke="#0012D4" stroke-linecap="round"/>
<path d="M8.83858 25.9464C9.95865 24.4355 10.6385 23.5982 10.8606 23.3115C11.134 22.9586 10.6667 22.3466 10.6659 21.7066C10.6646 20.617 11.7053 19.6083 12.5172 19.0678C13.3114 18.5391 14.605 19.0005 15.3369 19.5209C15.8367 19.8763 15.8879 20.7205 15.7975 21.4893C15.6598 22.6593 14.7679 22.9418 13.3361 23.6335C12.4395 24.0666 11.6857 23.7275 11.4512 23.6625C11.3458 23.6233 11.2683 23.5716 11.2025 23.5062C11.1367 23.4408 11.085 23.3632 11.0317 23.1267" stroke="#0012D4" stroke-linecap="round"/>
<path d="M8.21198 25.3982C7.24778 23.7557 6.57026 22.9732 5.94248 22.5146C5.82904 22.4318 5.8105 22.345 5.83595 22.3051C5.89532 22.2119 6.09639 22.1876 6.2268 22.0184C6.60576 21.5268 6.17706 20.4151 5.78543 19.8519C5.36383 19.2457 4.3505 19.2104 3.9056 19.3013C3.47591 19.389 3.20067 19.7571 2.97783 20.1096C2.67372 20.5906 2.93749 21.1921 3.13291 21.7799C3.31972 22.3418 4.05599 22.7586 4.55532 22.9697C4.99982 23.0743 5.28649 23.1267 5.52108 23.1009C5.62643 23.075 5.70397 23.0233 5.94052 22.8134" stroke="#0012D4" stroke-linecap="round"/>
</svg>
