<svg width="26" height="44" viewBox="0 0 26 44" fill="none" xmlns="http://www.w3.org/2000/svg">
<path d="M3.02612 37.8647C3.12952 37.8131 3.57049 37.7864 4.24841 37.7606C4.72553 37.7424 5.88817 37.5781 7.45391 37.4868C8.03779 37.4528 8.19253 37.4214 9.0737 37.4081C9.95487 37.3948 11.5574 37.3948 12.4476 37.5111C13.3378 37.6274 13.467 37.86 13.5465 38.0187C13.6624 38.2498 13.6785 38.5673 13.6397 39.0103C13.6211 39.2233 13.5234 39.4015 13.3284 39.5593C12.4731 40.2514 11.335 40.0579 10.4703 40.1229C9.34834 40.2072 8.61549 40.2929 8.17138 40.3579C7.65223 40.4339 6.81868 40.4495 6.05735 40.3845C5.11847 40.3043 3.87205 40.2929 3.11855 40.1891C2.92195 39.8762 2.86947 38.8908 2.94741 38.2576C2.97365 38.1788 2.99949 38.1013 3.10445 38.0214" stroke="#0012D4" stroke-linecap="round"/>
<path d="M5.37591 43.0343C5.58269 43.0343 6.23201 43.0343 7.13198 43.0472C7.64565 43.0546 8.86378 43.1126 10.5212 43.0867C11.4616 43.0721 11.8488 42.4875 12.1762 42.1739C12.5108 41.8533 12.6336 41.3127 12.8161 40.856C12.8686 40.7377 12.9203 40.6343 12.9598 40.5423C12.9994 40.4503 13.0253 40.3727 13.0519 40.2928" stroke="#0012D4" stroke-linecap="round"/>
<path d="M3.33943 40.6845C3.31358 40.6587 3.28773 40.6328 3.31319 40.6324C3.68517 40.6267 4.17282 41.1529 4.50022 41.6096C4.74852 42.0153 4.95765 42.2761 5.07475 42.4586C5.14015 42.5377 5.21769 42.5894 5.45424 42.7993" stroke="#0012D4" stroke-linecap="round"/>
<path d="M9.2139 36.7682C9.1622 36.1995 9.13557 34.6142 9.1485 32.6044C9.15613 31.4167 9.23975 30.7645 9.27891 29.6511C9.31351 28.6674 9.29223 26.8317 9.30515 25.8476C9.32864 24.0587 9.42225 22.541 9.4618 22.1357C9.5272 21.5243 9.55305 20.7121 9.59222 20.53C9.60553 20.4254 9.60553 20.2962 9.68386 20.163" stroke="#0012D4" stroke-linecap="round"/>
<path d="M9.5272 20.633C9.47551 20.2711 9.42303 19.9554 9.39679 18.6869C9.37323 17.5479 9.42225 15.4023 9.47433 14.0904C9.54298 12.3613 9.8131 11.5252 10.0348 10.7564C10.2164 10.1265 10.3872 9.38453 10.7256 8.49905C11.071 7.59521 11.6906 6.5405 12.3939 5.41965C12.9685 4.50409 13.7271 3.87428 14.3917 3.32677C14.904 2.90472 15.3218 2.69703 15.9574 2.32107C18.2151 0.985662 18.4031 0.556375 18.5727 0.503113C18.8331 0.421338 18.7172 1.92943 18.6659 3.90835C18.6393 4.93346 18.4078 5.99065 18.0045 7.36371C17.6011 8.73677 16.9807 10.391 16.4415 11.6309C15.5479 13.6854 14.9067 14.5744 14.7242 14.8219C14.2632 15.4471 13.1882 16.8655 12.5964 17.5117C12.2466 17.8936 11.8786 18.2033 11.5649 18.647C11.2512 19.0132 10.8353 19.585 10.4166 20.1219C10.2862 20.2656 10.1053 20.4465 9.76218 20.7896" stroke="#0012D4" stroke-linecap="round"/>
<path d="M11.3287 15.4635C11.8198 14.0418 12.3109 12.6202 12.6544 11.6294C12.9978 10.6386 13.1788 10.1216 13.5046 9.51928C14.8526 7.39742 15.0876 7.03085 15.2438 6.91376C15.3226 6.84835 15.4001 6.77081 15.5583 6.69092" stroke="#0012D4" stroke-linecap="round"/>
<path d="M9.44888 22.1212C9.3964 21.9919 9.50057 21.5745 10.1248 20.481C10.423 19.9588 10.8822 19.5129 11.5582 18.8887C12.5056 18.0137 13.2594 17.5007 13.6879 17.2152C14.4687 16.6949 15.1126 16.1441 15.7745 15.6115C16.2387 15.238 17.0309 14.7428 17.65 14.3085C18.7218 13.5567 19.4198 12.9594 19.889 12.5164C20.2784 12.1487 20.5955 11.7837 21.0764 11.329C21.8229 10.6233 22.6555 9.51692 23.4763 8.2539C24.2734 7.02747 24.5134 6.19588 24.5913 6.078C24.6708 5.95775 24.8525 6.53112 24.9308 7.45341C25.0592 8.96499 24.8799 10.3158 24.7237 11.0717C24.5022 12.143 24.175 12.7455 23.7473 13.7317C23.4261 14.4725 22.7769 15.6483 22.2117 16.5451C21.2487 18.0735 20.4169 18.7774 19.7155 19.3747C18.514 20.3977 17.5713 21.2839 17.0246 21.6356C16.0141 22.2856 15.1463 22.7964 14.5416 23.1516C14.3238 23.2795 13.8649 23.5295 12.9935 23.9842C10.8412 25.1073 10.5204 25.8793 10.1941 26.388C10.1021 26.5842 10.0238 26.7416 9.89377 26.9496C9.81544 27.08 9.71205 27.2609 9.60553 27.4474" stroke="#0012D4" stroke-linecap="round"/>
<path d="M9.05725 21.1813C9.0831 20.8194 9.10894 20.4575 9.12226 19.5991C9.13557 18.7406 9.13558 17.3966 9.07096 16.3035C9.00634 15.2105 8.8771 14.4092 8.68128 13.5958C8.48547 12.7824 8.22699 11.9811 7.82243 11.0126C7.41788 10.0441 6.87508 8.93262 6.15604 7.80433C5.43701 6.67604 4.55819 5.56459 4.02792 4.84986C2.92425 3.36227 2.40108 2.59445 2.08739 2.20165C1.7654 1.79847 1.51443 1.23784 1.23833 0.895165C1.2135 0.864351 1.17293 0.971533 1.0433 1.73521C0.913666 2.4989 0.681037 3.94636 0.574122 5.40284C0.467207 6.85932 0.493054 8.28094 0.545141 9.233C0.621484 10.6284 0.90975 11.5683 1.19642 12.5838C1.49331 13.6355 1.74471 14.7789 2.08386 15.6922C2.25248 16.1462 2.47628 16.6344 2.98265 17.6225C3.7409 19.1021 4.59108 20.0048 4.86484 20.2915C5.43184 20.8853 6.67456 21.7781 7.57923 22.3154C7.77583 22.4079 7.98261 22.4596 8.21837 22.4862C8.45414 22.5128 8.71261 22.5128 8.9006 22.5128" stroke="#0012D4" stroke-linecap="round"/>
<path d="M3.80939 12.722C4.42973 13.4458 5.2921 14.5423 6.17915 15.7682C6.65263 16.5287 6.99257 17.4929 7.33172 18.602C7.46409 19.0132 7.51579 19.1166 7.49072 19.3015" stroke="#0012D4" stroke-linecap="round"/>
<path d="M8.40648 37.1415C8.59353 36.0659 8.71328 35.3014 8.74871 34.5967C8.77353 34.103 8.76075 33.3309 8.66722 32.5125C8.47605 30.8398 8.10038 29.7981 7.86515 29.3861C7.5758 28.8793 6.96954 28.218 6.33256 27.5219C5.48025 26.5904 4.74612 25.7346 4.65188 25.5932C4.60441 25.522 4.55765 25.4519 4.53356 25.6963C4.45451 26.4984 4.43932 27.688 4.33304 29.0417C4.2746 29.786 4.2969 30.6526 4.34367 31.3789C4.42688 32.6712 4.74399 33.8056 5.01537 34.7027C5.30799 35.6699 6.13771 36.5024 6.29217 36.7978C6.3276 36.8807 6.37436 36.9743 6.39845 37.0692C6.42254 37.1642 6.42254 37.2577 6.4934 37.2123" stroke="#0012D4" stroke-linecap="round"/>
<path d="M7.69793 36.929C7.44073 36.2509 7.18352 35.5728 7.01595 35.0598C6.84838 34.5468 6.77824 34.2195 6.63511 33.8822" stroke="#0012D4" stroke-linecap="round"/>
</svg>
