<svg width="27" height="43" viewBox="0 0 27 43" fill="none" xmlns="http://www.w3.org/2000/svg">
<path d="M8.41937 36.8918C6.92086 36.6985 5.77991 36.7623 5.46874 36.9121C5.02221 37.127 5.34762 37.9625 5.509 38.3616C5.6339 38.6705 5.75607 39.0165 6.04501 39.2533C6.37603 39.5245 6.89251 39.3824 8.91608 39.415C9.42789 39.4232 10.0036 39.4688 10.7976 39.4794C11.2101 39.4849 11.8287 39.5332 12.6443 39.5226C13.6127 39.5099 15.0293 39.3837 15.5579 39.308C16.2174 39.2136 16.5781 39.0178 16.858 38.8896C16.9984 38.8253 17.0947 38.6963 17.1804 38.5678C17.2661 38.4393 17.3099 37.9271 17.2568 37.24C17.2378 36.9943 17.0973 36.9781 17.0107 36.9672C16.861 36.9483 16.667 36.935 15.6127 36.8921C14.6864 36.8545 12.9639 36.8493 12.0448 36.8277C10.6137 36.7629 9.58158 36.7204 9.06651 36.645C8.81043 36.6341 8.36397 36.6341 7.90398 36.6341" stroke="#0012D4" stroke-linecap="round"/>
<path d="M6.74433 39.4044C6.74433 40.1124 6.78685 40.3695 7.05453 41.0231C7.16937 41.3034 7.32351 41.4653 7.45203 41.5726C7.71261 41.7901 8.24542 41.7662 10.1192 41.7775C10.6301 41.7805 11.7379 41.7237 13.2943 41.713C14.3233 41.706 15.0538 41.6167 15.3118 41.5842C15.6249 41.5447 15.9982 41.274 16.2569 41.016C16.3861 40.7579 16.5574 40.4584 16.6547 39.9865C16.6657 39.8148 16.6657 39.5809 16.6657 39.34" stroke="#0012D4" stroke-linecap="round"/>
<path d="M9.90113 7.64319C9.92239 7.60067 9.94365 7.55815 9.9546 7.60002C10.0684 8.03518 9.90113 8.73453 9.79419 10.5532C9.74391 11.4082 9.77228 12.7276 9.8148 13.7149C9.88403 15.3223 10.0938 16.1453 10.201 16.4989C10.2872 16.7832 10.3515 17.0904 10.4587 17.4012C10.542 17.6426 10.8218 18.6082 11.3043 20.0242C11.5901 20.8629 11.812 21.2567 11.9083 21.5566C12.0068 21.8633 12.2404 22.5838 12.4871 23.5917C12.7436 24.6394 12.8208 25.2903 12.9288 25.7667C12.9723 25.9589 12.9935 26.8764 12.951 28.3024C12.9203 29.332 12.7358 30.0171 12.7145 30.5634C12.6776 31.5114 12.4781 31.9724 12.4034 32.3699C12.2695 33.0817 12.0271 34.0984 11.963 34.4743C11.8804 34.959 11.8339 35.2155 11.7591 35.5589C11.6844 35.794 11.6406 36.053 11.6831 36.2675C11.7256 36.3545 11.8107 36.397 11.8983 36.4408" stroke="#0012D4" stroke-linecap="round"/>
<path d="M12.8002 24.2647C12.7577 24.3285 12.7152 24.3922 12.7252 24.4145C12.7351 24.4367 12.7989 24.4154 12.8637 24.3726C13.0029 24.2804 13.2705 23.5625 13.6883 21.7351C13.9573 20.5583 14.0848 18.8234 14.194 17.6386C14.3578 15.8614 14.3251 15.0114 14.2717 14.572C14.2254 14.1919 14.0681 13.4472 13.8648 12.3224C13.6703 11.2456 13.4019 10.3954 13.3163 9.79499C13.2033 9.00362 12.8234 7.90865 12.394 6.75577C11.9777 5.63811 11.3842 4.85365 11.169 4.31731C10.784 3.35769 10.6961 2.89901 10.5676 2.2348C10.3749 1.23921 10.1807 0.879957 10.0735 0.546884C10.0521 0.480703 9.96683 0.492123 9.90209 0.534643C9.5825 0.744522 9.3664 1.30516 8.71249 2.63198C8.4172 3.23113 8.12559 4.2094 7.81216 5.48887C7.49874 6.76834 7.22236 8.34158 7.07998 9.23707C6.91118 10.2988 6.91634 10.6692 6.88413 11.4269C6.86007 11.9927 6.87318 12.9286 6.93696 13.6975C7.00074 14.4664 7.1283 15.0404 7.31094 15.6975C7.49358 16.3547 7.72744 17.0775 8.10304 17.9389C8.47863 18.8002 8.98887 19.7782 9.35802 20.4414C10.1905 21.9372 10.6304 22.2662 11.0798 22.7591C12.0464 23.5966 12.6057 24.1564 12.8637 24.3819C12.9284 24.436 12.9922 24.4786 13.1868 24.6512" stroke="#0012D4" stroke-linecap="round"/>
<path d="M13.1223 24.5868H13.1868" stroke="#0012D4" stroke-linecap="round"/>
<path d="M13.1223 24.5868C13.2505 24.3104 13.38 23.5792 13.5189 22.8183C13.5895 22.4312 13.8297 21.7147 14.1399 20.5902C14.4641 19.415 14.8611 18.7467 15.096 18.2455C15.2786 17.8558 15.5434 17.1702 15.8133 16.5859C16.0833 16.0016 16.3384 15.5339 16.6186 15.1016C16.8989 14.6693 17.1965 14.2866 17.9877 13.5474C18.7788 12.8081 20.0544 11.7238 20.7859 11.1227C21.5175 10.5217 21.6663 10.4366 22.0512 10.1908C23.0574 9.54842 23.8793 8.93361 24.2011 8.60118C24.5678 8.22231 24.9313 7.85965 25.725 7.08785C25.9014 6.91636 25.984 6.82886 26.0384 7.53979C26.0929 8.25071 26.1141 9.76017 26.1145 10.6441C26.1149 11.7408 25.9866 12.2785 25.7514 12.9956C25.6188 13.3999 25.3887 13.8614 24.5564 15.2717C23.724 16.6819 22.2783 19.0205 21.204 20.6398C20.1298 22.2591 19.4707 23.0883 19.0674 23.5792C18.55 24.209 18.2988 24.4141 17.9889 24.6599C16.9673 25.4702 16.2598 25.8314 15.3179 26.4196C14.9108 26.6664 14.3155 27.0065 13.9663 27.1818C13.6171 27.357 13.5321 27.357 13.4445 27.2926" stroke="#0012D4" stroke-linecap="round"/>
<path d="M13.5089 27.0349C13.6577 26.6947 13.8065 26.3546 14.234 25.5734C14.6614 24.7923 15.363 23.5805 16.5429 22.0208C17.7229 20.4611 19.3599 18.5902 21.111 16.5338" stroke="#0012D4" stroke-linecap="round"/>
<path d="M12.2848 30.8359C11.9447 30.4958 11.5568 30.0867 11.054 29.5941C10.4024 29.0591 9.81738 28.5617 9.46337 28.2184C9.32196 28.0876 9.25818 28.0451 9.25689 27.9368" stroke="#0012D4" stroke-linecap="round"/>
<path d="M11.0608 29.2253C10.8056 28.8426 10.4829 28.2628 10.1823 27.6405C10.0302 27.3254 9.75358 26.6754 9.32419 25.806C9.1389 25.4308 8.70282 24.6583 8.02669 23.5209C7.50023 22.6353 6.72886 21.6722 6.1339 21.045C5.8983 20.7967 5.13952 20.4662 4.19538 20.069C3.39106 19.7307 2.71008 19.7124 2.17213 19.5517C1.67836 19.4041 0.995102 18.835 0.570868 18.4674C0.516102 18.42 0.517074 18.3389 0.506122 18.4974C0.468806 19.0374 0.60147 20.1344 0.794421 21.3037C0.971058 22.3741 1.28888 22.9517 1.95212 24.1625C2.40112 24.9822 3.0264 25.6575 3.5302 26.1723C3.8982 26.5483 4.20923 26.7546 4.66793 27.107C5.56981 27.7999 6.37775 28.1939 6.79458 28.3437C8.04092 28.7915 8.71828 28.7743 9.28683 28.9026C9.72846 29.0533 10.0287 29.1815 10.308 29.2788C10.394 29.2897 10.5003 29.2897 10.6742 29.3542" stroke="#0012D4" stroke-linecap="round"/>
</svg>
