<svg width="41" height="43" viewBox="0 0 41 43" fill="none" xmlns="http://www.w3.org/2000/svg">
<path d="M17.4164 17.4934C17.2726 18.7294 17.3675 21.509 17.9165 23.9983C18.2531 25.5242 19.1367 28.0153 19.8546 30.8639C20.6717 33.8188 21.1531 36.6976 21.2724 37.6828C21.2969 37.9465 21.2969 38.2785 21.4406 38.6206" stroke="#0012D4" stroke-linecap="round"/>
<path d="M21.5843 37.7583C22.5401 34.7919 23.6855 33.5472 24.8382 32.9213C25.6915 32.4579 27.9397 32.202 29.8196 32.3917C31.3768 32.5489 34.1255 33.3029 36.1161 33.5415C38.3822 33.8131 39.0667 33.2569 39.6912 33.0162C39.8333 32.9614 39.9779 32.9206 39.9801 32.9436C40.0385 33.5664 38.8339 34.1135 38.3776 35.0003C37.8998 35.9287 36.0198 37.8876 33.9028 39.2645C32.8009 39.9811 31.6018 39.9601 30.6424 40.1771C29.7041 40.3894 28.4428 40.3453 27.4798 40.226C25.8325 40.0219 23.3607 38.8161 22.7363 38.3346C22.5988 38.2286 22.4495 38.1435 22.5185 37.976C22.9449 36.9411 24.1196 36.9448 25.3642 36.5381C26.2463 36.2498 27.2326 36.1773 28.1675 36.0581C28.9055 36.0336 29.535 35.9862 29.9173 35.9143C30.1099 35.8899 30.2996 35.8899 30.4951 35.8899" stroke="#0012D4" stroke-linecap="round"/>
<path d="M21.1532 38.1895C20.962 37.09 20.4863 36.0394 19.7425 35.4839C19.2174 35.0917 18.4742 34.8379 16.7538 34.3823C14.71 33.841 13.7802 34.4527 12.3437 34.6913C10.8677 34.9364 8.75279 35.4559 7.21711 35.8648C6.35597 36.0941 4.16229 36.4619 1.59038 36.9901C1.02815 37.1056 0.746011 37.2309 0.625284 37.4213C-0.164501 38.6671 2.99239 39.9113 4.16517 40.5825C5.2389 41.197 6.86715 41.3485 7.80853 41.7811C8.5891 42.1398 11.4519 42.2137 14.4104 41.5957C17.1577 41.0218 18.7559 39.5793 19.1619 39.4363C20.2964 39.0367 21.1029 38.0961 21.3436 37.6893C20.4389 37.3271 18.8134 37.1374 16.0848 37.0871C15.5494 37.1346 15.4071 37.2294 15.1168 37.3271" stroke="#0012D4" stroke-linecap="round"/>
<path d="M21.0094 36.0336C20.722 34.1753 20.9117 31.3942 21.7726 29.3814C22.2599 28.242 23.5447 27.508 25.4813 26.1462C26.0701 25.7322 26.3731 25.447 26.6843 25.3981C27.3343 25.2961 26.7123 27.5425 26.4716 29.178C26.3425 30.0548 25.804 30.9027 25.1795 31.6716C24.5565 32.1991 24.029 32.774 23.7186 33.1326C23.5504 33.3014 23.3607 33.4437 23.0215 33.8778" stroke="#0012D4" stroke-linecap="round"/>
<path d="M20.5783 36.1774C20.7694 34.1667 20.8657 33.4035 20.4604 32.253C20.1023 31.2366 18.8565 30.5262 17.923 30.0232C17.7038 29.9051 17.563 29.8076 17.4422 29.8299C16.1657 30.0654 17.1763 33.1577 17.3193 33.4208C17.8461 33.9238 18.2773 34.4038 18.564 34.595C18.7084 34.6913 18.8507 34.7861 18.9973 34.8839" stroke="#0012D4" stroke-linecap="round"/>
<path d="M16.8415 9.87614C15.0708 9.77985 14.4011 10.1607 13.7299 10.617C13.0953 11.0484 12.8661 11.8854 12.6742 12.5084C12.3615 13.524 12.7195 14.6161 13.0077 15.2873C13.3739 16.1403 14.8265 16.3896 15.4495 16.6304C16.3175 16.9657 17.2209 16.9185 17.9884 16.6562C18.714 16.4083 19.2819 15.9154 20.0724 15.1967C20.7519 14.5789 20.9606 13.5698 20.9383 12.3956C20.9205 11.4568 19.9574 11.0288 18.9298 10.0235C18.6639 9.82872 18.4742 9.78129 18.0919 9.75685C17.7096 9.73242 17.1404 9.73242 16.554 9.73242" stroke="#0012D4" stroke-linecap="round"/>
<path d="M18.6924 9.65608C18.6401 9.00825 19.0011 8.07666 19.4957 7.39805C19.9513 6.77304 20.3287 6.22752 20.5742 5.87788C20.9207 5.3846 21.728 4.95526 22.584 4.51402C23.2577 4.16671 23.8866 4.06966 24.5084 3.9917C25.878 3.81996 27.1304 4.30197 27.9794 4.66486C28.5824 4.92261 28.904 5.36765 29.0338 5.52317C29.3402 5.89032 29.0872 6.71709 28.8669 7.26318C28.5586 8.02772 27.8929 8.3807 26.9753 9.19613C25.4637 10.5395 24.1766 11.2924 23.9432 11.4479C23.7611 11.6034 23.27 11.863 22.4663 12.1359C22.0741 12.2287 21.714 12.2287 21.3429 12.2287" stroke="#0012D4" stroke-linecap="round"/>
<path d="M13.3133 15.8147C12.6959 16.2778 12.1463 16.7736 11.6669 17.3306C11.1379 17.9451 10.6394 18.7724 10.211 19.5641C9.68489 20.5363 9.54642 22.0435 9.55773 22.8928C9.56652 23.5534 9.96038 24.0252 10.1802 24.2582C10.7768 24.8908 11.4657 24.9092 12.1019 25.0651C13.1266 25.3163 13.622 24.7813 14.156 24.4173C14.7009 24.0458 15.2607 23.4046 15.7542 22.7166C16.0874 22.252 16.2227 21.8455 16.6121 20.4976C16.7169 20.0275 16.7692 19.7913 16.8081 19.3142C16.8214 18.9143 16.8214 18.194 16.7434 17.6077" stroke="#0012D4" stroke-linecap="round"/>
<path d="M18.3026 16.7502C17.9907 18.7459 18.0936 19.9449 18.3661 20.6317C18.773 21.6573 19.4423 22.3054 19.8605 23.0367C20.145 23.5341 20.7941 23.8427 21.4185 24.0517C22.0371 24.2586 23.1546 23.8989 24.5477 23.1068C25.3878 22.6292 25.4481 21.5602 25.4618 20.4446C25.473 19.5265 24.6966 18.7272 24.1521 18.1947C23.3899 17.4495 22.7508 16.9108 22.1891 16.5042C21.7691 16.2002 21.371 16.1016 21.0194 15.9063C20.8253 15.8412 20.6421 15.789 20.4351 15.75C20.3053 15.7368 20.1252 15.7368 19.9397 15.7368" stroke="#0012D4" stroke-linecap="round"/>
<path d="M21.8886 12.1507C21.7857 12.1764 21.6828 12.2021 21.6684 12.2025C21.3914 12.21 22.637 11.6596 23.5612 11.2686C24.5827 10.8365 25.2642 10.6446 26.1069 10.4107C27.8447 9.92841 29.0825 10.2267 29.7732 10.6418C30.2234 10.9124 30.4889 11.4475 30.5547 12.2255C30.5991 12.7492 30.5684 13.1626 30.115 14.07C29.7491 14.8025 28.674 15.138 28.179 15.3462C27.3388 15.6994 26.1529 15.7367 25.2716 15.8014C23.4289 15.9367 22.4904 15.6588 21.8001 15.4908C21.6306 15.4257 21.4505 15.3485 21.3063 15.283C21.1621 15.2175 21.0591 15.1661 20.7972 15.1131" stroke="#0012D4" stroke-linecap="round"/>
<path d="M24.773 18.855C24.8245 18.9579 24.9024 19.0881 25.019 19.2308C25.3165 19.595 26.4304 19.4787 27.1227 19.3883C27.8804 19.2893 28.5134 18.7521 28.7871 18.4535C29.0629 18.1525 28.9048 17.3785 28.8143 16.9073C28.568 16.5179 28.3076 16.1273 28.1782 15.9846C28.1003 15.9192 27.9974 15.8677 27.7354 15.8147" stroke="#0012D4" stroke-linecap="round"/>
<path d="M12.9235 12.0727C12.2032 11.8155 11.5749 11.6058 10.5548 11.1287C9.77462 10.7638 8.53141 10.0084 7.83058 9.59877C6.58448 8.87038 5.93544 7.81472 5.73898 7.30605C5.55516 6.83007 5.51759 6.10122 5.86644 5.13806C6.23473 4.12125 7.43533 3.83734 8.1654 3.66661C9.20337 3.42389 10.011 3.96363 11.4104 4.7931C12.4351 5.4005 12.5587 5.88606 12.9867 6.54791C13.4835 7.3162 13.7545 7.86149 13.949 8.25128C14.1555 8.66502 14.3517 8.95289 14.547 9.34268C14.5864 9.44714 14.6121 9.55005 14.6382 9.65451C14.6643 9.75897 14.69 9.86188 14.7165 9.9679" stroke="#0012D4" stroke-linecap="round"/>
<path d="M14.6386 9.65604C13.3414 7.5551 12.8206 6.46292 12.7029 5.69621C12.5941 4.98742 12.6117 4.35807 12.6893 3.85018C12.8203 2.99199 13.2603 2.17371 13.6107 1.52511C13.9046 0.981067 14.5326 0.743975 15.4786 0.561555C16.8474 0.297607 17.6508 0.949782 18.0671 1.26122C18.5876 1.6506 18.7688 2.3 18.9516 2.71629C19.1527 3.17433 19.2895 3.57382 19.3807 4.10588C19.4668 4.60794 19.4719 5.13141 19.5366 5.96204C19.6459 7.36443 19.2131 8.04233 19.005 8.42042C18.8225 8.79774 18.7189 9.03161 18.628 9.18713C18.5887 9.26548 18.5629 9.34266 18.4585 9.57809" stroke="#0012D4" stroke-linecap="round"/>
<path d="M12.1439 12.1507C11.6263 11.9698 11.0541 11.7609 9.86292 11.5672C8.50502 11.3463 8.06679 11.1123 7.09427 10.9299C6.39462 10.7986 5.59944 11.032 4.84754 11.3298C3.58179 11.8311 3.15548 12.5888 2.81598 13.3691C2.67773 13.6869 2.71113 14.123 2.74971 14.5771C2.8035 15.21 3.61699 15.6042 4.47413 15.9823C5.18186 16.2945 6.31665 16.2824 7.75418 16.2052C9.48771 16.1122 10.8148 15.7118 11.4509 15.5301C12.013 15.3212 12.2991 15.2432 12.4675 15.1785C12.5587 15.1396 12.6616 15.0881 12.7676 14.9571" stroke="#0012D4" stroke-linecap="round"/>
<path d="M6.2192 16.2824C5.75302 16.2302 5.28528 16.3339 4.9602 16.6055C4.33908 17.1246 4.5821 18.0708 4.81403 18.7868C5.28579 20.2433 6.11318 20.3081 6.51661 20.5564C6.81938 20.7428 7.15313 20.8554 8.30651 20.869C8.55714 20.8562 8.63432 20.8304 8.71267 20.8043C8.79101 20.7782 8.86819 20.7525 9.10362 20.648" stroke="#0012D4" stroke-linecap="round"/>
</svg>
