<svg width="34" height="46" viewBox="0 0 34 46" fill="none" xmlns="http://www.w3.org/2000/svg">
<path d="M15.8667 0.500122C15.8229 0.67006 16.1654 1.26999 16.4666 2.10616C16.6929 2.73416 15.998 3.54355 15.2262 4.40161C14.3963 5.32426 14.3656 6.28831 14.2793 8.32434C14.2558 8.88 13.9793 9.37937 13.8931 10.0224C13.8403 10.416 14.1493 10.7543 14.2993 11.1824C14.4452 11.5989 14.408 14.0385 14.3224 17.4707C14.2779 19.2554 14.1081 20.1073 14.1068 21.9921C14.1056 23.7219 15.2204 25.723 15.5004 27.5473C15.8713 29.9636 16.2529 31.7391 16.2741 32.1671C16.2849 32.3836 16.3379 32.5952 16.3598 34.5527C16.3816 36.5102 16.3816 40.2064 16.3604 42.1742C16.3392 44.142 16.2967 44.2694 16.2529 44.5295" stroke="#0012D4" stroke-linecap="round"/>
<path d="M16.0995 44.5347C16.2844 43.5735 16.9065 42.4517 17.4053 41.9986C17.9208 41.5304 18.4328 41.2971 18.9153 41.0949C19.4353 40.8769 20.2039 40.8917 20.8461 41.0468C21.2651 41.1479 21.7022 41.327 22.0763 41.5292C22.5739 41.7982 23.4751 41.9809 24.022 42.028C24.7203 42.106 25.7805 41.9827 26.1863 41.8109C26.2802 41.7642 26.3727 41.7025 26.468 41.5456" stroke="#0012D4" stroke-linecap="round"/>
<path d="M26.468 41.4522C26.468 40.5274 26.468 39.9277 26.4988 39.6947C26.9322 39.2122 27.7421 38.5901 27.9466 38.1067C27.9625 37.997 27.9625 37.9045 28.0559 37.8092" stroke="#0012D4" stroke-linecap="round"/>
<path d="M26.2812 41.4522C27.3386 42.1341 27.7122 42.9449 28.07 43.2261C28.1792 43.2886 28.3026 43.3503 28.4123 43.3821C28.5221 43.4138 28.6145 43.4138 28.7098 43.227" stroke="#0012D4" stroke-linecap="round"/>
<path d="M26.8416 41.7324C27.8056 40.363 28.2409 40.1145 28.7079 40.0202C29.3074 39.8991 29.9223 39.9875 30.3426 40.1285C31.0615 40.3698 31.6354 39.3056 31.9778 39.1174C32.1641 39.0553 32.5368 39.0235 33.0034 39.0852C33.1926 39.1468 33.285 39.2701 33.4737 39.3971" stroke="#0012D4" stroke-linecap="round"/>
<path d="M30.3912 40.3312C30.5453 40.4545 30.6994 40.5778 30.8251 40.6722C30.9507 40.7665 31.0432 40.8282 31.1525 40.8908C31.2618 40.9533 31.3851 41.015 31.6989 41.0785" stroke="#0012D4" stroke-linecap="round"/>
<path d="M17.0336 42.4797C18.091 40.8301 19.3277 40.0884 20.4552 39.5387C21.5267 39.0162 22.1375 38.4967 22.3883 38.0908C22.6432 37.6784 23.165 37.4374 23.6484 37.2646C23.7528 37.2273 23.8506 37.2487 23.9137 37.2025C24.0076 37.0638 24.1318 36.8452 24.2411 36.7046C24.2579 36.6873 24.1962 36.7798 24.1327 36.8751" stroke="#0012D4" stroke-linecap="round"/>
<path d="M18.9952 40.5181C19.7966 39.47 20.2403 38.8068 20.287 38.4659C20.3029 38.2482 20.3029 37.94 20.3492 37.7195C20.3954 37.4991 20.4879 37.3758 20.77 37.1553" stroke="#0012D4" stroke-linecap="round"/>
<path d="M16.2863 44.2545C16.1929 43.695 16.1312 43.199 15.7123 42.2962C15.3178 41.446 13.9846 41.484 13.3308 41.2042C12.857 41.0015 12.2734 40.8936 11.5252 40.5816C10.7893 40.2748 10.2184 39.9277 9.54767 39.6167C8.73599 39.2402 8.31839 38.7134 7.61735 38.3089C7.00648 37.9565 6.44833 37.9045 6.09057 37.4841C5.55016 36.8492 5.20411 36.2231 4.68988 35.8798C4.21751 35.5645 3.7712 35.6608 3.22662 35.5832C2.74147 35.5142 2.3084 35.2572 1.90253 34.977C1.52842 34.51 1.09407 34.0747 0.703613 33.7006C0.625148 33.6067 0.563498 33.5142 0.686799 33.2321" stroke="#0012D4" stroke-linecap="round"/>
<path d="M13.484 40.8917C12.8936 40.1781 12.5816 39.4925 12.3948 39.1183C12.2254 38.779 12.1463 38.2482 11.9591 37.7177C11.8969 37.5925 11.8045 37.4692 11.7106 37.3903C11.6167 37.3113 11.5242 37.2805 11.429 37.3422" stroke="#0012D4" stroke-linecap="round"/>
<path d="M11.3355 40.6115C9.71955 40.8273 8.78545 41.5736 8.27029 41.9183C7.89873 42.1669 7.32265 42.1995 6.48243 42.122C6.14101 42.1061 5.61698 42.1061 5.30079 42.0907C4.9846 42.0752 4.89212 42.0444 4.79684 41.8258" stroke="#0012D4" stroke-linecap="round"/>
<path d="M9.65417 39.8642C8.75183 38.62 8.56501 38.123 8.54866 37.2833C8.53465 36.5635 8.4716 35.9447 8.26936 35.3978C8.10744 34.9599 7.69443 34.5417 7.32032 34.3689C7.22644 34.353 7.13397 34.353 7.04009 34.4146C6.94621 34.4763 6.85374 34.5996 6.85187 34.9135" stroke="#0012D4" stroke-linecap="round"/>
<path d="M9.18712 39.3038C8.53418 39.7391 8.09983 39.9875 7.36936 40.1286C6.03689 40.3859 5.45259 39.9576 4.90801 39.7872C4.39332 39.6158 4.0505 39.4598 3.86415 39.4439C3.77027 39.4588 3.6778 39.5205 3.58252 39.4906" stroke="#0012D4" stroke-linecap="round"/>
<path d="M4.61004 36.5948C3.24158 37.0619 2.74371 37.0002 1.74936 37.0147C1.52845 37.061 1.43597 37.1534 1.38833 37.2473C1.34069 37.3412 1.34069 37.4337 1.52751 37.5289" stroke="#0012D4" stroke-linecap="round"/>
<path d="M2.3682 35.5673C2.1216 35.5673 1.90208 35.5982 1.66949 35.6449C1.34443 35.6608 1.06139 35.5991 0.859628 35.5057C0.750339 35.4739 0.627038 35.4739 0.5 35.4739" stroke="#0012D4" stroke-linecap="round"/>
<path d="M16.1906 29.5831C16.2407 28.6797 16.4172 28.0135 16.6955 27.6716C17.022 27.2707 17.5564 27.3016 17.9766 27.0746C18.2716 26.9152 18.2682 26.4666 18.6101 26.0483C18.9527 25.8316 19.3573 25.7304 19.6877 25.5407C19.7641 25.4772 19.8394 25.4019 19.917 25.4004" stroke="#0012D4" stroke-linecap="round"/>
<path d="M17.4834 27.4537C18.4371 27.0522 19.0538 26.8453 19.2941 26.8955C19.7601 26.9929 19.739 27.6287 20.4337 28.4017C20.7276 28.7287 21.1323 28.6447 21.4619 28.7964C21.9877 29.0384 22.3232 29.2531 23.0955 29.2538C23.4906 29.0515 23.8442 28.5975 24.099 28.0891C24.1499 27.9868 24.2001 27.9116 24.2518 27.7579" stroke="#0012D4" stroke-linecap="round"/>
<path d="M20.6014 27.9861C20.8022 28.0363 21.0813 28.0621 21.5106 27.8237C21.7642 27.5853 22.0905 27.1085 22.2962 26.8377C22.5019 26.567 22.5772 26.5168 22.8069 26.389" stroke="#0012D4" stroke-linecap="round"/>
<path d="M15.5061 29.431C15.4559 28.8287 15.3799 28.418 15.2285 28.1907C14.7619 27.4895 13.9121 27.2012 13.2775 27.0864C12.9249 27.0226 12.5174 26.9974 11.9341 26.9343C11.3961 26.8761 10.7454 26.3419 10.2347 26.0476C9.70984 25.7451 9.29742 25.3761 8.02017 25.3369C7.48937 25.3206 7.04179 25.627 6.67295 25.7928C6.15429 25.9327 5.39455 25.8324 4.96183 25.5791C4.88502 25.478 4.83483 25.3274 4.78311 25.0201" stroke="#0012D4" stroke-linecap="round"/>
<path d="M12.4641 26.8453C12.0626 26.5442 11.8306 26.2887 11.7926 26.0487C11.8048 25.4772 11.8557 25.0232 11.7424 24.6034C11.6793 24.4893 11.5789 24.3387 11.3994 24.1836" stroke="#0012D4" stroke-linecap="round"/>
<path d="M11.7036 26.5411C10.8671 27.8576 10.9173 28.3648 10.9306 28.7451C10.9378 28.9507 10.7667 29.1512 10.5769 29.3158C10.4123 29.4052 10.2343 29.4561 10.0195 29.444C9.90504 29.4067 9.77955 29.3063 9.65027 29.2029" stroke="#0012D4" stroke-linecap="round"/>
<path d="M10.1066 26.0088C9.25329 26.2096 8.68824 26.4385 8.47302 26.6662C8.33309 26.8438 8.20608 26.9716 8.04181 27.0476C7.95284 27.0735 7.85245 27.0735 7.74902 27.0735" stroke="#0012D4" stroke-linecap="round"/>
<path d="M14.5175 23.6512C14.5927 22.8923 15.097 22.2352 15.5932 21.8397C15.9896 21.5238 16.4172 21.4975 16.7469 21.3199C17.2035 20.9142 17.6081 20.4602 17.8754 20.078C17.9389 20.0016 18.0142 19.9263 18.0918 19.8488" stroke="#0012D4" stroke-linecap="round"/>
<path d="M16.875 21.2176C18.1656 21.3173 18.7747 21.9249 19.1044 22.2561C19.4219 22.575 20.241 22.4344 20.8657 22.3211C21.4972 22.2066 21.7909 21.928 22.197 21.7762C22.6728 21.5984 22.6533 20.9165 22.794 20.4587C22.8535 20.2649 22.7567 20.0526 22.6806 19.8126C22.9559 18.9149 23.8183 17.5475 24.0107 16.7965C24.0237 16.6311 24.0237 16.4554 24.0237 16.3505" stroke="#0012D4" stroke-linecap="round"/>
<path d="M22.8829 20.6853C23.3347 20.5598 23.7864 20.4343 24.0442 20.4199C24.5526 20.3914 24.6823 20.988 25.099 21.3811C25.3155 21.5854 25.6451 21.5211 25.8097 21.6853C26.0827 21.9577 25.9751 22.407 26.1649 22.7249C26.211 22.8023 26.3037 22.839 26.3926 22.8523C26.4816 22.8656 26.582 22.8405 26.6463 22.79C26.7105 22.7394 26.7356 22.6641 26.7615 22.4344" stroke="#0012D4" stroke-linecap="round"/>
<path d="M24.8602 20.9895C25.8139 20.9895 26.4307 20.9895 26.6584 20.9519C26.7607 20.9142 26.836 20.8389 26.8999 20.7499C26.9638 20.661 27.014 20.5606 27.2178 20.3051" stroke="#0012D4" stroke-linecap="round"/>
<path d="M13.6809 21.3697C12.9995 20.4336 11.9865 19.9765 11.4895 19.9373C11.1058 19.9071 10.7416 20.1529 10.5264 20.0902C10.3012 20.0246 10.2845 19.6974 10.1708 19.5708C9.96434 19.3408 9.57574 19.5689 9.20804 19.6331C8.89053 19.6966 8.66238 19.7217 8.51066 19.7723C8.43423 19.7978 8.35894 19.8229 8.12927 19.8487" stroke="#0012D4" stroke-linecap="round"/>
<path d="M10.9431 19.8488C10.9933 19.3468 10.9941 19.013 10.9058 18.8738C10.7991 18.7054 10.5636 18.6578 10.437 18.519C10.3606 18.3049 10.3347 18.0753 10.3473 17.8855C10.3598 17.7962 10.3849 17.7209 10.4868 17.4912" stroke="#0012D4" stroke-linecap="round"/>
<path d="M14.6696 17.111C14.7699 16.7596 14.8969 16.5033 15.0863 16.3391C15.6917 15.8139 16.7457 16.0965 17.3541 16.0847C18.304 16.0663 19.0531 15.2873 19.3835 15.134C19.5286 15.0668 19.7132 15.0074 19.9155 14.8812C20.1178 14.7047 20.2463 14.5009 20.2843 14.123C20.2972 13.8454 20.2972 13.3936 20.2972 12.9282" stroke="#0012D4" stroke-linecap="round"/>
<path d="M14.9738 16.1223C15.6825 15.3884 16.0369 14.8827 16.127 14.5013C16.2909 13.9693 16.6453 13.4621 16.9362 13.1963C17.0765 13.0811 17.202 13.0058 17.4073 12.9282" stroke="#0012D4" stroke-linecap="round"/>
<path d="M13.9091 15.2097C13.3775 14.0956 13.074 13.6902 12.7444 13.4613C12.1295 13.0344 10.896 13.2081 10.3492 13.1438C9.94195 13.096 9.6016 12.7274 9.37231 12.3088C9.17115 12.0689 8.96658 11.8392 8.82741 11.6494C8.76353 11.5601 8.71333 11.4848 8.58557 11.4072" stroke="#0012D4" stroke-linecap="round"/>
<path d="M13.9851 14.2971C13.8345 14.0963 13.757 13.5914 13.7068 12.9077C13.5562 12.475 13.3775 12.2445 13.2132 12.1054C13.1242 12.0415 13.0238 11.9913 12.9204 11.7875" stroke="#0012D4" stroke-linecap="round"/>
<path d="M14.4414 9.20178C14.6924 8.80024 15.3236 8.31732 16.1468 7.83631C16.5936 7.50587 16.7982 7.2762 16.9123 7.01117C16.951 6.84652 16.951 6.62065 16.951 6.46399" stroke="#0012D4" stroke-linecap="round"/>
<path d="M16.2666 7.75683C16.5929 7.73174 16.9191 7.70664 17.1374 7.78155C17.8262 8.01796 17.888 8.56752 18.0903 8.64357C18.1922 8.66943 18.2926 8.66943 18.407 8.60669C18.5215 8.54395 18.647 8.41847 18.7762 8.28918" stroke="#0012D4" stroke-linecap="round"/>
<path d="M13.9091 8.51733C13.884 8.31656 13.8589 8.11579 13.7957 7.98727C13.4284 7.75684 13.0238 7.70664 12.6303 7.65569C12.5409 7.63059 12.4656 7.5804 12.3881 7.45264" stroke="#0012D4" stroke-linecap="round"/>
<path d="M14.1372 6.61609C13.9866 5.91339 13.8338 5.5012 13.682 5.40005C13.3599 5.18528 12.998 5.09509 12.7447 5.05745C12.6421 5.0198 12.5919 4.94451 12.5535 4.86808C12.5151 4.79165 12.49 4.71636 12.4641 4.63879" stroke="#0012D4" stroke-linecap="round"/>
<path d="M14.9738 4.41064C14.8734 4.0091 14.773 3.60756 14.6836 3.37561C14.5943 3.14365 14.519 3.09346 14.3654 2.88965" stroke="#0012D4" stroke-linecap="round"/>
</svg>
