<svg width="36" height="49" viewBox="0 0 36 49" fill="none" xmlns="http://www.w3.org/2000/svg">
<path d="M12.3785 15.1978C11.8693 15.4807 10.928 16.1357 9.75779 17.0487C8.4921 18.0362 8.20867 18.6819 7.29565 19.8932C6.81096 20.5363 6.63554 21.2246 6.50695 22.1342C6.28449 23.7077 6.5198 24.9401 6.66211 25.3537C6.72913 25.5485 6.86101 25.6825 6.99003 25.7695C7.46763 26.0916 8.34412 25.8008 9.07582 25.4437C9.55289 25.2109 10.2885 24.8012 10.7484 24.4296C10.9878 24.2361 11.0352 23.9431 11.078 23.772C11.0993 23.6873 11.0926 23.601 11.1209 23.7553C11.3426 24.9646 11.4921 25.6551 11.7771 26.1549C11.9242 26.4127 12.1205 26.5707 12.3198 26.6705C12.764 26.8931 13.205 26.7147 13.7763 26.4866C14.1664 26.331 14.5483 26.0297 14.905 25.7022C15.2687 25.3682 15.4065 24.3494 15.6487 22.9242C15.8917 21.494 16.0649 20.0347 16.0366 18.8353C15.9517 18.2018 15.8651 17.8289 15.8081 17.4722C15.7794 17.3136 15.7511 17.2005 15.5505 16.9981" stroke="#0012D4" stroke-linecap="round"/>
<path d="M14.6075 13.3118C14.5792 13.2835 14.5509 13.2552 14.5505 13.2972C14.5464 13.6985 14.9487 14.1382 15.5766 14.5536C15.7114 14.6427 15.806 14.6543 15.8638 14.6123C15.9217 14.5703 15.95 14.4571 15.9363 14.3423C15.7228 13.9128 15.3242 13.5707 14.9375 13.4121C14.8372 13.3975 14.7241 13.3975 14.6075 13.3975" stroke="#0012D4" stroke-linecap="round"/>
<path d="M15.8077 16.741C15.8643 16.9973 15.9791 17.3959 16.1356 18.0955C16.215 18.4504 16.4627 19.2777 16.9046 20.4192C17.2304 21.2607 17.6637 21.6832 18.656 22.3502C19.486 22.9081 21.0629 23.781 22.02 24.2474C22.9772 24.7138 23.2884 24.7138 23.5336 24.6713C24.2501 24.5473 24.6069 24.0588 24.8088 23.658C25.094 23.0919 24.8101 22.3159 24.6532 21.9726C24.6057 21.8686 24.5246 21.9687 24.552 22.069C24.6882 22.567 25.8586 22.7403 26.622 22.7994C26.9046 22.8213 27.3211 22.4299 27.7922 22.0021C28.1333 21.6924 28.1527 21.06 28.0961 20.2618C28.0384 19.4479 27.5268 18.603 27.0275 17.8464C26.7127 17.3696 26.2692 16.8027 25.7985 16.032C25.0869 14.8666 23.7256 14.3988 22.4993 13.7572C21.9634 13.4767 21.3544 13.4558 20.8674 13.3122C20.4096 13.1978 20.095 13.112 19.924 13.0833C19.8378 13.0829 19.7529 13.1112 19.6655 13.3118" stroke="#0012D4" stroke-linecap="round"/>
<path d="M17.3508 10.3113C17.4357 9.97008 18.0041 9.22938 18.9737 8.33008C19.4714 7.86846 20.4748 7.23875 21.4229 6.62021C22.3711 6.00168 23.2764 5.46416 23.9691 5.10238C25.6772 4.21029 26.4912 4.19708 27.2495 4.06763C28.1112 3.92052 28.7493 3.96733 29.4356 3.89618C30.4602 3.78994 31.2629 4.13707 31.8797 4.43755C32.5773 4.77739 32.7803 5.19497 33.0384 5.52331C33.3231 5.88568 33.2964 6.73295 33.0975 7.3802C32.8447 8.20307 32.1836 8.50925 31.7409 8.79559C31.2306 9.12557 30.9543 9.22509 30.8536 9.25381C30.1823 9.4452 32.6363 9.25338 33.0521 9.38198C33.5952 9.54995 34.1228 10.0524 34.5523 10.7515C34.8544 11.2432 35.011 11.767 35.0821 12.1386C35.179 12.6444 34.9544 13.1095 34.7405 13.5531C34.5295 13.9909 33.984 14.1108 33.3277 14.3114C32.8038 14.4715 31.2526 14.4263 29.9435 14.4974C27.7572 14.6163 27.2971 14.4263 26.7973 14.3551C26.3556 14.2922 25.9546 14.1982 25.3686 14.1549C24.9205 14.1218 24.468 14.0268 24.1247 13.9123C24.0385 13.8836 23.9537 13.8553 23.8392 13.8407C23.7248 13.8262 23.5833 13.8262 23.4376 13.8262" stroke="#0012D4" stroke-linecap="round"/>
<path d="M12.2928 11.0828C12.1222 11.0263 11.4972 10.4587 10.5392 9.28724C9.62163 8.16521 9.12254 7.91258 8.80791 7.42735C8.3155 6.66793 8.06464 6.11398 7.70758 5.31327C7.49084 4.82723 7.52112 4.34111 7.50612 3.25706C7.4975 2.6345 8.3184 2.05557 8.76205 1.73923C9.19905 1.42763 9.80494 1.30973 10.3755 1.23857C10.827 1.18226 11.1775 1.28058 11.3626 1.45118C11.9053 1.9511 11.9207 2.65053 12.0493 2.92401C12.2218 3.29078 12.1213 1.91326 12.3485 1.45418C12.6935 0.757145 13.4913 0.767922 14.3031 0.567316C15.0619 0.37984 15.7768 0.62304 16.2188 0.82236C17.0488 1.19671 17.5188 2.10529 18.0495 3.24892C18.295 3.77796 18.2081 5.52417 18.1369 6.60907C18.0942 7.2611 17.6663 8.39266 17.5227 8.92375C17.4657 9.10936 17.4082 9.28167 17.3512 9.4527C17.3225 9.53886 17.2942 9.62373 17.0936 9.7969" stroke="#0012D4" stroke-linecap="round"/>
<path d="M8.52072 7.05358C8.35012 6.91127 7.21592 6.51348 6.29391 6.3536C5.30943 6.18288 3.75247 6.39518 3.27839 6.46762C2.67226 6.56024 2.00703 6.99528 1.57838 7.23832C1.14591 7.48353 0.978281 7.96573 0.606217 8.73644C0.307022 9.3562 0.690231 9.88092 1.13174 10.523C1.60609 11.2129 2.74516 11.2543 3.13179 11.2967C3.73164 11.3626 1.75156 11.9384 1.24961 12.3242C0.706836 12.7414 0.890837 14.0182 1.00443 14.7958C1.12007 15.5873 2.31565 16.0808 2.84674 16.3689C3.26764 16.5972 4.05938 16.5695 4.92867 16.6407C7.51081 16.852 8.08865 16.5695 8.54772 16.4842C8.80363 16.4272 9.11911 16.398 9.41873 16.3839C9.54861 16.3698 9.63348 16.3415 9.80666 16.4838" stroke="#0012D4" stroke-linecap="round"/>
<path d="M16.5792 20.4273C16.5792 20.4547 16.6358 20.8542 16.6791 21.3399C16.7177 21.7732 16.8073 22.2259 16.9637 23.0219C17.2677 24.5683 17.6363 25.7691 17.6792 26.1116C17.7077 26.3396 17.722 26.5415 17.7649 27.5334C17.8028 28.4114 17.7795 30.053 17.7229 31.266C17.5921 34.069 17.38 34.6257 17.3225 35.2846C17.2471 36.15 17.1511 36.8573 17.1082 37.9062C17.0711 38.813 17.0936 40.4828 17.1078 41.4416C17.1295 42.9173 17.2925 43.5981 17.422 44.4001C17.5638 45.2786 17.8635 46.7118 18.1074 47.2592C18.179 47.4302 18.2364 47.6308 18.2793 47.8589C18.2938 47.9738 18.2938 48.0869 18.4653 48.1178" stroke="#0012D4" stroke-linecap="round"/>
<path d="M18.8082 48.0321C18.6376 47.8057 18.4653 46.4975 18.5364 45.506C18.595 44.6904 18.7499 44.0079 18.9647 43.4185C19.2024 42.7661 19.921 42.0036 20.3638 41.6182C20.6112 41.4029 20.9214 41.2886 21.1923 41.1604C21.4533 41.037 22.5983 40.2941 24.2409 39.2945C25.2229 38.6969 25.6922 38.2898 26.2645 37.7184C26.8565 37.1273 27.1788 36.4346 27.3807 35.8032C27.5055 35.4128 27.6932 34.7483 28.0502 34.2044C28.1475 34.0562 28.2384 34.9112 28.3233 36.0351C28.4498 37.7112 28.7528 38.8573 28.7669 39.1852C28.8021 40.0008 28.6688 41.4241 28.4107 42.1575C28.1838 42.8024 27.784 43.4833 27.3541 44.1575C26.8226 44.9911 26.1569 45.7414 25.1273 46.5151C24.542 46.9549 22.9935 47.2845 21.8824 47.603C21.2806 47.7755 20.245 47.7749 19.5811 47.7037C19.237 47.6668 18.9239 47.6034 18.7238 47.5468C18.6453 47.5246 18.6933 47.3771 18.7362 47.2764C19.2617 46.6355 20.2913 45.6908 20.8331 45.3342C21.092 45.1756 21.3183 45.0624 21.6373 44.7743" stroke="#0012D4" stroke-linecap="round"/>
<path d="M18.1224 48.0321C17.8103 48.0321 16.7284 47.8057 15.6272 47.1923C13.4322 45.9697 12.8089 45.2904 12.3944 45.0041C11.9197 44.6762 11.3824 43.7799 10.6948 42.7777C9.95297 41.6964 9.95068 40.4056 9.65063 39.0927C9.55047 38.6544 9.37887 38.1484 9.20784 37.3789C9.0248 36.5555 8.94937 35.5499 8.96351 34.6219C8.98164 33.4324 9.86152 31.6372 10.0064 30.9591C10.1112 30.4685 10.2353 30.0873 10.2777 29.9582C10.3912 29.6133 10.7771 30.6548 11.1055 31.2124C11.3537 31.634 11.6618 32.2545 12.3442 33.2074C12.7893 33.8288 13.4793 34.6978 13.9564 35.3759C14.7314 36.4774 15.205 37.5388 15.6474 38.6366C16.2788 40.2036 16.4061 41.28 16.7353 42.4558C16.9726 43.3036 16.9787 43.6582 17.079 44.0727C17.1638 44.423 17.1794 44.9424 17.464 46.3123C17.5948 46.9419 17.722 47.3728 17.6942 47.6163C17.6169 48.2914 16.581 46.4632 16.0537 45.7787C15.331 44.7589 14.8081 43.9754 14.6799 43.7898C14.6083 43.7173 14.5235 43.689 14.3503 43.8313" stroke="#0012D4" stroke-linecap="round"/>
</svg>
