<svg width="25" height="41" viewBox="0 0 25 41" fill="none" xmlns="http://www.w3.org/2000/svg">
<path d="M12.6143 15.5583C12.6143 16.2011 12.7013 17.0777 12.8332 18.4194C13.044 20.5636 12.849 22.0049 12.7325 22.703C12.4621 24.3237 12.3505 25.5798 12.336 25.9596C12.3192 26.3993 12.2626 26.7817 12.2481 27.0886C12.2321 27.4269 12.1746 28.7644 12.1892 30.6244C12.1994 31.9413 12.3206 32.6998 12.365 33.725C12.402 34.5802 12.4964 35.0456 12.5699 35.7912C12.7252 37.3692 12.9062 38.2372 13.1994 39.2501C13.3467 39.9121 13.4056 40.379 13.4056 40.7751C13.4056 40.881 13.4056 40.794 13.4056 40.7043" stroke="#0012D4" stroke-linecap="round"/>
<path d="M12.878 15.5584C10.8277 15.0607 10.4179 14.8269 10.0803 14.4031C9.33221 13.464 9.94668 12.2191 10.0201 10.3199C10.0363 9.90121 10.1507 9.7871 10.239 9.6983C10.6007 9.33483 11.2057 9.31584 11.7038 9.38881C12.1414 9.45292 13.2508 9.49168 14.1652 9.68116C14.4675 9.7438 14.7807 10.1634 15.1469 10.5731C15.7267 11.2219 15.2238 12.4793 14.96 12.9334C14.647 13.4723 14.1424 14.1463 13.6561 14.7508C13.4372 14.9412 13.2016 15.0889 12.9822 15.2058C12.8789 15.2647 12.7919 15.3227 12.7022 15.3825" stroke="#0012D4" stroke-linecap="round"/>
<path d="M10.0645 9.31582C9.68553 9.16987 8.925 8.81993 8.41021 8.33592C7.98383 7.93502 8.07215 7.47119 7.69276 7.10456C7.34159 6.76518 6.90013 6.64999 6.75374 6.41612C6.4819 5.98182 6.72253 5.39094 6.91244 4.99572C7.22196 4.35161 8.21722 4.59787 8.36361 4.45192C8.69903 4.11751 8.71574 3.54455 8.76014 3.14802C8.80753 2.72484 8.54166 2.37166 8.14644 1.94699C7.84894 1.62732 7.86641 1.22778 7.88091 1.02336C7.89975 0.757995 7.98334 0.524399 8.05632 0.508573C8.71904 0.364851 8.33416 2.04107 8.72893 2.70533C8.95203 3.08072 9.47716 2.98536 9.69652 2.97086C10.1405 2.94149 10.9965 2.37342 12.2415 2.0481C13.6062 1.69149 14.6356 2.04723 14.811 2.13471C15.3482 2.40262 15.5737 3.21748 15.6181 3.68699C15.6818 4.36059 14.8211 6.51635 14.1103 7.65803C13.7839 8.1822 13.6992 8.61068 13.5963 8.97732C13.5683 9.0774 13.5814 9.19624 13.5814 9.21251C13.5814 9.46171 13.8434 8.55616 14.254 7.66331C14.4687 7.19636 14.6646 6.85573 15.0453 6.43063C15.417 6.01563 15.7777 5.44897 16.0859 5.09683C16.4589 4.67064 17.0948 4.68579 17.843 4.69942C18.1508 4.70503 18.3864 4.91967 18.6932 4.89066C19.3266 4.83077 19.8204 4.2198 20.3207 3.85097C20.4958 3.7219 20.6144 3.42674 20.7317 3.2355C20.9722 2.84371 20.1791 4.50467 19.9268 5.0498C19.7981 5.32779 20.0279 5.6802 20.2473 5.95804C20.672 6.49595 21.4048 6.82232 21.582 7.24787C21.7017 7.53545 21.6703 7.84926 21.6558 8.08314C21.6411 8.32057 21.4953 8.58166 21.1894 8.93204C20.7064 9.48511 19.132 10.0447 17.374 10.6307C16.6605 10.8685 16.3677 10.9565 16.118 11.0299C15.5876 11.1858 18.5508 9.87853 19.7479 9.41913C20.431 9.15696 22.0959 9.2279 23.0613 9.41737C23.4419 9.49207 23.311 10.1054 23.3118 12.2085C23.3121 12.9504 23.165 13.3875 23.2085 13.7388C23.2762 14.2852 23.9554 14.3564 24.1308 14.4149C24.2192 14.4444 24.3062 14.4734 24.0029 14.5173C23.0084 14.6615 21.6184 14.6211 20.3897 14.6347C18.5443 14.6552 17.6874 15.2946 17.0275 15.1051C16.4257 14.7389 16.0441 14.3582 15.9122 14.0949C15.8674 13.9766 15.8674 13.8896 15.8674 13.7999" stroke="#0012D4" stroke-linecap="round"/>
<path d="M15.6916 13.9758C16.2446 14.7064 17.8809 15.2929 18.7522 15.572C19.3476 15.7628 19.5303 16.4939 19.6332 16.9489C19.7206 17.3355 19.5602 18.0448 19.8081 18.561C20.0284 19.0195 20.4957 19.2793 20.8636 19.514C20.9152 19.5469 20.7929 19.631 20.661 19.6609C20.0745 19.7938 19.6499 19.4288 19.2832 19.1641C19.082 19.0188 18.8577 18.9584 18.6533 18.9289C18.1181 18.8518 17.7156 19.2793 17.4219 19.6015C16.8368 20.2435 15.9571 20.9498 15.3715 21.4765C15.1355 21.6888 14.9011 21.742 14.7112 21.7715C14.2857 21.684 14.0219 21.5961 13.8465 21.5231C13.7581 21.4791 13.6711 21.4211 13.4056 21.4492" stroke="#0012D4" stroke-linecap="round"/>
<path d="M12.7022 21.1855C12.1219 20.9533 11.7359 20.8628 11.5605 20.9503C11.1504 21.1548 10.6254 21.7675 10.0808 22.0788C9.6622 22.3179 8.86699 22.4146 8.21987 23.1461C7.87425 23.5368 7.89632 23.9392 7.80839 24.0135C7.34851 24.4021 7.69058 22.6555 7.86554 22.0374C8.03505 21.4386 8.13019 21.0993 7.99919 20.6597C7.91331 20.3715 7.57452 20.2772 7.35515 20.2478C6.93693 20.1916 6.49131 20.628 5.94882 20.7164C5.42915 20.801 4.90869 20.366 4.62866 19.9708C4.34302 19.5677 4.46732 18.8432 4.3939 18.4462C4.33006 18.101 3.64788 18.9557 3.23728 19.7026C2.99532 20.1428 2.6227 20.4803 2.271 20.6861C2.16424 20.7485 2.15143 20.6017 2.18044 20.4983C2.2905 20.1065 2.99549 19.0841 3.61535 18.0084C3.89115 17.5297 3.99781 17.0548 4.07079 16.6882C4.15992 16.2404 3.79383 15.7079 3.76306 15.2814C3.71664 14.6383 4.8155 14.1534 5.6068 13.8887C5.90047 13.7718 6.42625 13.625 7.50594 13.4931C8.17943 13.4482 9.1079 13.4482 10.0645 13.4482" stroke="#0012D4" stroke-linecap="round"/>
<path d="M9.53695 13.3603C8.39571 13.3603 7.75211 13.4183 6.31853 14.105C5.76601 14.3697 5.14432 14.4435 4.55655 14.5763C4.18155 14.661 3.76569 14.3573 3.38366 14.1819C2.77622 13.903 2.94273 13.0104 2.86975 12.5127C2.76321 11.7862 3.23287 11.1956 3.35333 9.70226C3.37737 9.4042 3.26628 9.3176 3.19287 9.24374C2.82339 8.87205 1.54475 8.23614 0.819387 7.48704C0.433338 7.08836 0.480883 6.53307 0.538913 6.3713C0.719509 5.86782 1.67839 7.02808 2.29605 7.3512C2.69235 7.55851 3.2909 7.70333 4.05319 7.87918C4.56549 7.99735 4.99309 7.79301 5.21246 7.57364C5.52151 7.20656 5.69648 6.62363 6.20819 6.0495C6.36997 5.97476 6.54405 5.97476 6.72342 6.06269" stroke="#0012D4" stroke-linecap="round"/>
</svg>
