<svg width="27" height="43" viewBox="0 0 27 43" fill="none" xmlns="http://www.w3.org/2000/svg">
<path d="M13.3913 7.28353C12.0871 7.8921 11.5647 8.18202 10.7968 9.44052C10.5745 9.80485 10.5182 10.1253 10.5469 10.5166C10.5878 11.0742 11.1259 11.4904 11.4746 11.7085C11.7826 11.9012 12.2281 11.8683 12.6064 11.9845C13.4109 12.2317 14.9549 11.8996 15.4211 11.4935C16.0351 10.9586 16.1755 9.95984 16.25 8.79625C16.2867 8.22178 15.8011 7.72059 15.4677 7.38627C15.3658 7.31314 15.2509 7.25567 14.9188 7.22607C14.5866 7.19647 14.0407 7.19647 13.4783 7.19647" stroke="#0012D4" stroke-linecap="round"/>
<path d="M11.3888 11.8979C10.9543 12.2165 10.6069 12.563 9.1752 14.0679C7.76452 15.5507 6.89285 16.4809 6.3844 17.2057C6.13414 17.5624 6.16501 17.9043 6.23683 18.0637C6.27896 18.1571 6.45231 18.1943 6.6556 18.2239C7.11359 18.2906 8.10215 17.7076 9.33409 16.8374C10.0692 16.3181 11.4941 16.3381 13.1766 16.3525C14.1823 16.361 14.7511 16.8866 15.247 17.15C15.8704 17.4811 17.0705 17.2679 18.0752 16.8766C18.3447 16.7716 18.3825 16.4844 18.4261 16.2528C18.5123 15.7939 18.0943 15.3247 17.6734 14.8454C17.1504 14.25 16.5864 13.4964 16.2508 13.1324C16.1781 13.0593 16.0919 13.0018 15.9182 12.843C15.7445 12.6841 15.4859 12.4255 15.0454 12.072" stroke="#0012D4" stroke-linecap="round"/>
<path d="M14.2619 7.02238C14.2619 6.84999 14.3194 6.64627 14.6363 6.22793C15.2822 5.3753 16.5186 4.55937 17.9081 3.83544C20.3244 2.57655 21.3706 2.58217 21.6457 2.62527C22.1599 2.70582 22.357 3.27694 22.7779 3.438C23.1199 3.56883 23.5463 3.71225 23.9825 4.21983C24.1689 4.4368 24.1871 4.757 24.1583 5.06129C24.1177 5.4911 23.5794 5.77215 23.2307 6.16481C22.7869 6.66459 22.216 7.1373 21.751 7.47075C21.0562 7.96913 19.9837 8.64523 19.2419 8.89336C18.2916 9.21123 17.4597 9.28601 16.7044 9.30037C16.4397 9.30541 17.5964 9.31561 18.3364 9.27164C19.4799 9.20371 21.0493 9.31387 21.6457 9.47406C22.1559 9.61111 22.559 10.4997 23.0391 11.1561C23.4266 11.6858 24.0983 12.1869 24.3455 12.5779C24.894 13.445 25.2022 14.0727 25.2462 14.4214C25.2686 14.599 25.3189 14.8276 25.247 15.117C25.0813 15.7851 24.1905 15.8436 22.7993 16.1196C22.1688 16.2446 21.6361 16.0769 21.0119 15.9472C20.2153 15.7816 19.8653 15.3247 19.4439 15.0187C18.8771 14.7422 18.5297 14.6839 18.181 14.5973C18.0935 14.5681 18.0073 14.5394 17.9185 14.5098" stroke="#0012D4" stroke-linecap="round"/>
<path d="M10.0829 9.89545C9.33589 9.89545 8.14661 9.98164 6.68352 10.1841C4.54329 10.4802 3.43999 11.2867 2.88758 11.5488C2.47225 11.7458 2.10445 12.0999 1.68307 12.3323C1.06939 12.6709 0.680974 13.0576 0.55038 13.3179C0.4065 13.6047 0.59217 13.9569 0.837687 14.2895C1.46081 15.1336 2.18629 15.2916 3.40212 15.5249C5.00316 15.8322 5.78198 15.0652 6.42451 14.7714C6.54117 14.7422 6.65609 14.7135 6.93078 14.6987C7.20546 14.6839 7.63642 14.6839 8.1675 14.5098" stroke="#0012D4" stroke-linecap="round"/>
<path d="M10.0829 9.28598C8.19797 8.27083 7.61901 7.86686 7.12492 6.92615C6.5466 5.82504 6.39751 4.81879 6.32525 4.42788C6.12577 3.34874 6.33744 1.65928 6.65696 1.01676C6.82158 0.685731 7.23767 0.609307 7.46926 0.522244C7.58192 0.479889 7.70084 0.492642 7.83187 0.607565C8.49794 1.19176 8.86052 1.96923 9.36984 2.34882C10.0475 2.85385 11.1207 3.10104 12.01 3.78405C12.6826 4.30059 12.9542 4.78484 13.2742 5.33725C13.42 5.773 13.5071 6.15085 13.5793 6.35327C13.6229 6.4695 13.6803 6.61316 13.7395 6.76116" stroke="#0012D4" stroke-linecap="round"/>
<path d="M13.3042 16.7734C13.4487 17.5552 13.6803 18.6522 13.7251 20.2215C13.7344 20.5443 13.682 20.7452 13.4374 21.5096C13.1927 22.274 12.7331 23.5956 12.4531 24.535C12.0243 25.9744 11.9408 26.7255 11.825 27.2457C11.5177 28.6263 11.4759 29.5664 11.4036 30.669C11.332 31.7616 11.475 33.1055 11.6056 34.236C11.6893 34.9608 11.6787 35.4318 11.7941 36.0238C11.9839 36.9981 12.4597 38.4146 12.9237 39.7344C13.2459 40.5694 13.3904 40.9751 13.521 41.2794C13.5654 41.4113 13.5654 41.4975 13.6524 41.6733" stroke="#0012D4" stroke-linecap="round"/>
<path d="M11.4759 32.6188C11.4759 32.2166 11.5621 31.7508 11.8651 31.043C12.3445 29.9229 13.2703 28.6784 14.1539 27.577C14.7916 26.7823 15.5922 26.2084 16.5186 25.6434C17.3874 25.1134 18.6655 24.6709 19.9985 23.9757C21.6265 23.1265 22.1237 22.5213 22.4737 22.1726C22.5607 22.0851 22.6756 21.9989 22.7923 21.897C22.909 21.7952 23.0239 21.6803 23.1423 21.4748" stroke="#0012D4" stroke-linecap="round"/>
<path d="M13.9136 27.221C13.797 25.1628 14.086 24.2364 14.5936 23.2052C14.7875 22.8112 15.5043 22.2627 16.4319 21.5523C16.9907 21.1244 18.0265 20.8671 19.389 20.6059C20.2238 20.4459 20.8464 20.4597 21.9143 20.1715C23.875 19.6423 25.2875 19.0092 25.6645 18.792C25.9055 18.6531 26.0432 18.4285 26.2317 18.341C26.5543 18.1912 26.4507 19.9556 26.3645 21.8096C26.2934 23.3391 25.8421 24.2008 25.5391 24.7066C25.0752 25.4811 24.1627 26.144 23.3512 26.6516C22.8149 26.9871 22.3605 27.046 21.5821 27.3489C20.9824 27.5824 19.9419 27.9105 19.0643 28.0881C16.7148 28.5636 16.2661 28.1787 15.8451 28.0198C15.6566 27.9471 15.4529 27.8313 15.2357 27.6719C15.1334 27.5988 15.0472 27.5414 14.8713 27.4821" stroke="#0012D4" stroke-linecap="round"/>
<path d="M11.2147 34.9695C10.6357 34.2452 10.1142 33.782 9.63491 33.2304C9.07504 32.5862 7.85753 31.2641 7.08093 30.444C6.77795 30.2124 6.51415 30.0078 6.34046 29.8485C6.25296 29.7754 6.16677 29.7179 6.25209 29.6587" stroke="#0012D4" stroke-linecap="round"/>
<path d="M10.6923 34.0989C10.6923 32.9497 10.5774 31.5532 10.3601 30.2194C10.1576 28.976 9.44728 28.2692 8.11478 27.2536C7.63787 26.8901 6.9242 26.7865 5.4807 26.6559C3.01257 26.4326 1.37743 26.554 1.27556 26.6393C0.531409 27.2627 1.6656 28.3475 1.97032 29.1337C2.42264 30.3007 3.20313 31.8039 3.55182 32.1966C3.94186 32.6358 4.33495 33.1099 4.77026 33.4738C5.55181 34.1271 7.31946 34.8232 8.07821 34.8968C8.94666 34.9695 9.99403 34.9408 10.327 34.8973C10.4877 34.8824 10.6313 34.8824 10.6923 34.7083" stroke="#0012D4" stroke-linecap="round"/>
</svg>
