<svg width="32" height="39" viewBox="0 0 32 39" fill="none" xmlns="http://www.w3.org/2000/svg">
<path d="M15.7125 7.86554C15.692 7.88608 15.6714 7.90662 15.6608 8.62585C15.6503 9.34508 15.6503 10.7624 15.6297 11.6466C15.602 12.8401 15.5258 13.3001 15.4847 13.8671C15.4031 14.9926 15.2768 15.9137 15.2665 16.2968C15.2617 16.4748 15.2357 16.6183 15.2251 16.9902C15.2145 17.3621 15.2145 17.9578 15.0913 20.5036C14.9681 23.0494 14.7216 27.5272 14.5843 29.8956C14.4471 32.264 14.4265 32.3872 14.416 32.8821C14.3869 34.2394 14.3848 35.2312 14.3537 35.4587C14.3431 35.7273 14.3226 35.937 14.2915 36.318C14.2809 36.6373 14.2809 37.2124 14.2809 37.6182" stroke="#0012D4" stroke-linecap="round"/>
<path d="M15.8993 11.7246C16.0636 11.6008 17.0545 11.4756 17.8061 11.5995C18.4303 11.7024 18.8857 12.5114 19.1764 13.0918C19.3805 13.4993 19.4472 14.0052 19.4988 14.4506C19.6103 15.4112 19.2405 15.9958 19.0333 16.6898C18.7647 17.5891 18.6592 18.3007 18.5661 18.5077C18.2742 19.1569 17.3558 19.9794 16.9481 20.1998C16.462 20.3965 15.8794 20.5838 15.7138 20.6252C15.6304 20.6461 15.5482 20.6666 15.4636 20.6255" stroke="#0012D4" stroke-linecap="round"/>
<path d="M15.588 11.9114C14.9674 11.7869 14.3867 11.828 13.3933 12.0966C12.2418 12.4079 12.0625 12.9683 11.8026 13.3309C11.3776 13.9239 11.2521 14.2543 11.2104 14.638C11.1752 14.9616 11.1064 15.7232 11.127 16.6357C11.1439 17.389 11.8496 18.564 12.2153 19.1719C12.5899 19.7944 13.2414 20.0019 13.5847 20.2926C13.7195 20.3965 13.8651 20.4799 14.1745 20.5422C14.4016 20.5633 14.7714 20.5633 15.1523 20.5011" stroke="#0012D4" stroke-linecap="round"/>
<path d="M15.6502 7.61653C14.8635 6.99658 14.4477 6.16749 14.1888 5.28705C13.711 3.6627 13.7418 3.22085 13.7309 2.70112C13.7176 2.06226 14.4863 1.43569 14.8809 1.00994C15.3629 0.48996 16.0001 0.479622 16.4989 0.509811C17.1899 0.551622 17.4952 1.01741 17.807 1.56609C17.964 1.84239 17.9533 2.50754 17.8814 3.51122C17.8066 4.55524 17.3327 5.51642 17.0218 6.25245C16.7637 6.8634 16.3997 7.38499 16.2104 7.65793C16.1197 7.78885 16.4793 7.34764 16.6552 7.15126C16.8715 6.9097 17.286 6.1289 17.9072 5.03091C18.651 3.7162 19.0313 3.46859 19.3111 3.15674C19.5527 2.88753 19.8816 2.67933 20.7088 2.48202C21.2528 2.35227 21.6456 2.49135 21.8112 2.59468C22.2104 2.8438 22.4548 3.23704 22.6932 3.67212C23.1758 4.55294 22.8917 5.24939 22.583 6.03273C22.3426 6.64267 21.8224 7.6377 21.3322 8.45403C20.842 9.27036 20.3696 9.86604 20.0338 10.2653C19.5131 10.8495 19.2405 11.1221 19.0852 11.2672C19.0121 11.33 18.9504 11.3711 18.8247 11.4757" stroke="#0012D4" stroke-linecap="round"/>
<path d="M22.3726 6.74509C22.5369 6.55961 23.2814 6.10398 23.8646 5.88457C24.527 5.63536 25.5645 5.89359 26.3945 6.19392C27.1178 6.45565 27.5152 6.9505 27.7975 7.27292C28.1492 7.67468 28.0991 8.62736 27.996 9.23299C27.8528 10.075 27.1666 10.5607 26.5868 11.3378C26.229 11.8174 25.9018 12.1168 25.0317 12.8422C24.4545 13.3234 23.8478 13.7563 23.3498 14.0165C22.684 14.3644 21.8983 14.6078 21.4508 14.7637C21.0873 14.8574 20.8171 14.9196 20.6211 14.9507C20.4866 14.9613 20.2812 14.9613 20.0073 15.0236" stroke="#0012D4" stroke-linecap="round"/>
<path d="M17.8911 19.3807C18.511 19.5668 19.299 19.7741 20.0556 19.8369C21.2718 19.938 21.9332 19.8587 22.6692 19.7548C23.7338 19.6044 24.5294 19.4429 24.7774 19.4121C25.1177 19.3698 25.9143 19.0713 27.0534 18.6988C28.0088 18.3863 28.5336 18.0947 28.8538 17.9708C29.8664 17.5792 30.4009 17.0166 30.733 16.5504C30.8573 16.3759 30.8378 16.1452 30.8173 15.8763C30.7642 15.1811 30.01 14.7348 29.6564 14.5365C29.3499 14.3646 29.034 14.2567 28.4439 13.9975C27.9878 13.7971 27.6646 13.8621 26.7232 13.686C26.1913 13.6337 25.7363 13.592 25.3311 13.5403C25.1761 13.5297 24.9296 13.5297 24.6757 13.5297" stroke="#0012D4" stroke-linecap="round"/>
<path d="M15.2768 20.9368C15.5669 21.7658 15.8146 22.1791 16.6322 23.6073C17.2298 24.6514 18.0529 25.0822 18.7793 25.6128C19.7282 26.306 20.4835 26.746 20.6905 26.7977C21.3796 26.9697 22.6166 27.1612 23.1183 27.089C23.2971 27.0632 23.4302 26.9128 23.5338 26.7886C23.7485 26.5314 23.7831 26.0632 23.7837 25.4314C23.7845 24.6011 23.142 23.823 22.9238 23.5218C22.7879 23.3341 23.4494 23.9855 23.803 24.2864C24.2238 24.6446 25.1898 24.7336 25.8661 24.6409C26.7644 24.5177 27.2252 24.0714 27.6204 23.6979C28.1729 23.1758 28.3057 22.3721 28.3275 21.4279C28.343 20.7561 27.9348 20.3168 27.561 19.9421C27.2907 19.6712 27.0011 19.5475 26.7306 19.3915C26.6681 19.3601 26.6065 19.3396 26.5439 19.3187C26.4814 19.2979 26.4197 19.2773 26.3562 19.2562" stroke="#0012D4" stroke-linecap="round"/>
<path d="M13.4717 3.94414C13.2234 3.4468 12.7285 3.11629 11.8359 2.73162C11.1847 2.45098 10.3645 2.51252 9.85253 2.59499C9.33823 2.67784 9.03247 3.19596 8.77353 3.57876C8.45547 4.04896 8.38886 4.72966 8.32662 5.27834C8.27166 5.76275 8.40816 6.55279 8.59458 7.4547C8.79239 8.41172 9.54909 9.21123 9.87058 9.7207C10.1613 10.1814 10.5238 10.4163 10.8459 10.7586C11.068 10.9946 11.333 11.3076 11.6035 11.7231C11.666 11.8274 11.7276 11.9301 11.7902 12.0138C11.8527 12.0975 11.9144 12.1591 11.9156 12.1604" stroke="#0012D4" stroke-linecap="round"/>
<path d="M8.3677 7.80324C7.87037 7.28537 7.58094 6.95423 7.10446 6.59104C6.21481 5.91291 5.05258 5.99816 4.40711 6.24558C3.4748 6.60295 3.30601 7.5107 3.21202 8.04911C2.9692 9.4401 3.49025 10.2482 3.75043 10.8616C3.89412 11.2004 4.13386 11.4744 4.34175 11.7442C4.63861 12.1295 4.94303 12.367 5.27479 12.657C5.70014 13.0289 6.18667 13.2795 6.68524 13.5702C7.11937 13.8233 7.80253 14.0264 8.46885 14.1104C9.52731 14.2144 10.0888 14.2349 10.4395 14.2661C10.6875 14.2766 11.0778 14.2766 11.4177 14.2144" stroke="#0012D4" stroke-linecap="round"/>
<path d="M5.06874 12.4094C3.76411 12.222 2.72961 12.5936 1.80373 13.175C1.36068 13.4532 1.10753 13.8397 0.692358 14.5742C0.31957 15.2337 0.566002 15.727 0.772653 16.266C1.12532 17.1859 1.9528 17.6142 2.37015 17.9687C2.83246 18.3614 3.13793 18.5914 3.4283 18.7265C3.88548 18.9655 4.19546 19.0483 4.50637 19.1208C4.63241 19.1523 4.69403 19.1728 4.88201 19.194" stroke="#0012D4" stroke-linecap="round"/>
<path d="M12.2891 19.4429C11.958 19.3396 11.6268 19.2562 10.6035 19.1529C10.2004 19.1122 9.66489 19.1317 8.94814 19.1933C7.34343 19.3313 6.31491 19.5052 6.06655 19.5154C5.60009 19.5347 5.319 19.733 4.96639 19.8161C4.62131 19.8974 4.26085 20.1064 3.78437 20.427C3.36095 20.7119 3.14046 20.9567 2.93256 21.1951C2.61835 21.5554 2.33128 22.0547 2.21613 22.491C2.04648 23.1338 2.30887 23.4875 2.44363 23.7368C2.50765 23.8552 2.61947 24.0067 2.81616 24.1517C3.28818 24.4997 4.15379 24.4847 4.50734 24.5363C4.83767 24.5846 5.2941 24.6092 5.63831 24.537C5.71582 24.5207 5.7933 24.4648 5.79455 24.6079C5.8035 25.6371 5.67006 26.2051 5.85617 26.4961C6.12727 26.92 6.49915 26.9321 7.16112 27.0778C7.64575 27.1844 8.01417 27.0579 8.25163 26.9545C8.62546 26.7919 9.31756 26.4379 10.0536 25.9611C10.4502 25.7042 10.8544 25.4408 11.6704 24.9453C12.9192 24.1871 13.7195 23.49 13.937 23.2828C14.0929 23.1576 14.1975 23.0537 14.3008 22.9295C14.3631 22.867 14.4452 22.8053 14.5921 22.6796" stroke="#0012D4" stroke-linecap="round"/>
</svg>
