<svg width="39" height="42" viewBox="0 0 39 42" fill="none" xmlns="http://www.w3.org/2000/svg">
<path d="M19.4265 41.0842C19.227 40.8887 19.2928 39.5933 19.3926 38.1542C19.5535 35.8319 19.3606 34.1063 19.2609 33.5752C19.0942 32.6872 19.0276 31.6799 18.9448 31.1962C18.8464 30.6211 18.8281 29.8848 18.7453 29.3184C18.668 28.7891 18.6287 28.1237 18.3803 26.348C18.3036 25.799 18.1978 24.8696 17.9984 23.6075C17.768 22.1497 17.6314 20.7439 17.4658 19.0375C17.2762 17.0828 17.399 15.7216 17.3492 15.2753C17.1662 13.6374 17.1327 12.6979 17.0335 12.2152C16.8881 11.508 16.8675 10.9028 16.8171 9.97284C16.7773 9.2377 16.4706 8.24407 16.0043 7.67812C15.0291 6.49426 15.2379 4.71972 15.1552 4.05504C15.0481 3.19512 15.0385 2.39409 14.9557 1.74437C14.9034 1.33397 15.0046 0.929098 15.1537 0.663325C15.2643 0.466143 15.6348 0.495285 15.9999 0.51174C16.3028 0.525397 16.5663 0.693742 16.8151 0.892697C17.2498 1.24028 17.3641 1.92138 17.6802 3.39834C17.8386 4.13817 17.8308 5.9324 17.6159 7.3565C17.4339 7.77137 17.2664 8.07354 17.1173 8.25604C17.034 8.33981 16.9353 8.40563 16.9333 8.57317" stroke="#0012D4" stroke-linecap="round"/>
<path d="M19.6259 41.2836C19.5601 41.0861 19.5262 40.6553 19.6084 39.696C19.7427 38.1304 20.3539 36.405 20.869 35.1424C21.2175 34.2882 21.7182 33.9058 22.2497 33.5064C22.8576 33.0497 23.4454 32.8746 24.0119 32.6911C24.5182 32.5271 25.1727 32.376 26.3864 32.1426C27.0973 32.0059 28.2941 31.4485 29.1473 30.8148C29.6651 30.4301 30.1271 29.3563 30.7245 27.9476C30.9928 27.1972 31.1902 26.3744 31.2919 24.8646C31.3937 23.3547 31.3937 21.1826 31.3937 18.9448" stroke="#0012D4" stroke-linecap="round"/>
<path d="M19.4264 41.0842C19.4264 40.421 19.7555 38.3756 19.9086 36.1701C19.9625 35.3939 19.1332 34.4104 18.4481 33.6894C17.7968 33.004 16.4107 32.8108 15.6219 32.5909C14.8988 32.3894 13.8118 32.5735 13.2289 32.7894C12.0387 33.2302 10.3872 34.201 9.49064 34.6667C8.72179 35.0661 6.90871 35.7268 5.10365 36.2793C4.83439 36.3631 4.70275 36.4289 4.56912 36.4793C4.43548 36.5296 4.30384 36.5626 4.16821 36.7959" stroke="#0012D4" stroke-linecap="round"/>
<path d="M16.8336 9.47069C17.1627 8.61503 17.9575 7.54895 19.1023 6.4699C19.948 5.67285 20.5554 5.41579 20.8042 5.2996C20.9198 5.24564 21.0201 5.21633 21.1039 5.29811C21.7966 5.97439 21.2225 7.47315 20.6945 8.61303C19.6343 10.9017 18.5309 12.4605 18.1988 12.809C17.9779 13.0409 17.8318 13.2264 17.6329 13.359C17.5326 13.4259 17.4339 13.4917 17.5805 13.3281C18.7019 12.0771 19.5222 11.17 20.1061 10.6689C20.527 10.3077 20.9862 10.0371 21.4689 9.80377C21.7828 9.65199 22.1839 9.8686 22.4661 10.084C22.7116 10.2713 22.7833 10.5667 22.883 10.8973C23.2289 12.0439 22.5858 12.8913 22.2039 13.557C21.7813 14.2935 20.5334 16.0387 19.7436 17.0484C19.4318 17.4471 18.9298 17.6802 18.514 17.9629C18.2593 18.136 17.9984 18.3454 17.8976 18.4292C17.3601 18.8762 19.3866 17.2215 20.32 16.5204C21.6942 15.4883 22.516 15.7535 22.881 15.8358C23.2594 15.921 23.3487 16.3509 23.3986 16.7144C23.5795 18.033 23.1842 18.841 22.8187 19.6069C22.3824 20.5212 21.5566 21.5357 20.8924 22.1001C19.7596 23.0629 19.228 23.1662 19.029 23.249C18.9257 23.292 18.8301 23.3647 18.9931 23.234C20.1809 22.2824 21.9396 21.2145 23.263 20.8057C23.6191 20.6956 23.7147 21.8299 23.6983 22.9757C23.6754 24.5682 22.52 26.1889 21.9725 26.9359C20.9551 28.3239 19.8952 28.2852 19.3452 28.4183C19.228 28.4517 19.1293 28.4846 19.029 28.518C18.9288 28.5515 18.8301 28.5844 18.6286 28.718" stroke="#0012D4" stroke-linecap="round"/>
<path d="M16.6341 9.37098C16.3359 8.64098 15.938 8.17625 15.2075 7.29666C14.688 6.6711 13.5784 6.61253 12.9631 6.64445C12.6191 6.66229 12.4794 7.10917 12.3797 7.42381C12.1334 8.20098 12.8405 9.23136 13.5735 10.1164C14.315 11.0118 15.8642 12.4585 16.5159 13.026C16.6324 13.1274 16.7318 13.1925 16.7168 13.2429C16.7019 13.2932 16.5702 13.3262 16.4202 13.3102C15.7171 13.2355 14.9108 12.4984 14.3419 12.2471C14.1313 12.1541 13.745 12.0636 13.2304 12.1294C13.0041 12.1584 12.8804 12.3269 12.7796 12.4934C12.5725 12.836 12.5453 13.3571 12.5946 13.9375C12.7111 15.3068 14.3045 16.1504 15.1516 16.6825C15.6945 17.0234 16.2342 17.1826 16.4496 17.2818C16.5715 17.338 16.6979 17.4469 16.2556 17.4648C15.8133 17.4828 14.7931 17.417 14.1195 17.5641C13.4458 17.7112 13.1496 18.0732 12.997 18.3913C12.7371 18.9333 12.9103 19.3427 13.0429 19.5746C13.4951 20.3651 14.8649 21.4001 16.0153 21.9022C16.7798 22.2359 17.2304 22.136 17.5311 22.3345C17.9516 22.612 16.2052 22.4033 15.2419 22.1699C14.7252 22.0448 14.3084 22.2019 14.0596 22.4003C13.7513 22.6463 13.7091 23.0326 13.6592 23.3303C13.4996 24.2831 14.105 25.0241 14.4555 25.608C14.7592 26.1139 15.4992 26.6537 16.2486 27.1039C17.4299 27.7866 18.0283 28.0518 18.4441 28.2353C18.5608 28.2852 18.6924 28.351 18.9278 28.3191" stroke="#0012D4" stroke-linecap="round"/>
<path d="M21.0221 34.4025C20.9563 34.4354 20.8905 34.4683 20.8566 34.403C20.5812 33.8725 21.6803 32.4179 22.4986 31.463C22.9268 30.9633 23.612 30.6477 24.176 30.3984C24.6381 30.1941 25.0102 30.3795 25.2092 30.5286C25.6932 30.8913 25.8409 31.6739 25.9252 32.0913C25.9894 32.4094 26.0743 31.1155 26.191 30.6143C26.2908 30.1856 26.539 29.3882 26.8217 28.7036C27.0774 28.0844 27.7337 27.6908 28.3002 27.3558C28.4338 27.3219 28.5655 27.3219 28.6333 27.9142C28.7011 28.5066 28.7011 29.6914 28.7011 30.8123" stroke="#0012D4" stroke-linecap="round"/>
<path d="M20.8226 35.7986C21.1866 35.4675 21.9156 35.0028 23.0116 35.0163C24.5984 35.0358 25.8309 36.4249 27.2181 37.3085C28.0518 37.8395 29.3633 37.5279 30.2932 37.1135C30.8518 36.8646 31.1922 36.4329 31.4595 35.9667C31.6085 35.7067 31.4605 35.4007 31.3613 35.2347C31.1616 34.9005 30.3346 34.9689 29.088 34.3885C28.1173 33.9365 26.9818 33.3414 26.1765 33.1893C25.8788 33.1399 25.6105 33.0731 25.4116 33.0232C25.3113 33.0063 25.2126 33.0063 25.1109 33.106" stroke="#0012D4" stroke-linecap="round"/>
<path d="M28.8008 31.0117C28.7679 31.0446 28.735 31.0775 28.7674 31.078C29.5123 31.0895 31.6809 30.7125 33.102 30.911C34.0954 31.0497 35.4446 31.5103 36.1427 31.6091C36.3972 31.6451 36.3801 31.9053 36.3471 32.0728C36.235 32.6438 35.6521 33.0701 35.1021 33.3877C34.5285 33.7189 33.2287 34.1012 32.4264 34.3022C32.2923 34.3356 32.1935 34.3685 31.8958 34.3855C31.5982 34.4024 31.1045 34.4024 30.6956 34.4024" stroke="#0012D4" stroke-linecap="round"/>
<path d="M29.8978 30.7125C31.0167 29.2645 31.7577 28.354 32.2867 27.9566C33.138 27.3171 33.9846 27.0565 34.8268 26.9568C36.5459 26.7532 37.7752 27.1204 37.9248 27.4854C38.1272 27.9793 37.2835 29.0092 36.3331 29.8628C35.7497 30.2129 35.2192 30.4792 34.6867 30.7614C34.553 30.8122 34.4214 30.8122 34.2858 30.7125" stroke="#0012D4" stroke-linecap="round"/>
<path d="M31.5931 22.8341C31.9242 21.7391 32.4548 21.0749 33.0367 20.4432C33.6913 19.7325 34.3496 19.6767 34.9485 19.7087C35.5662 19.7416 35.3828 21.791 35.1843 23.3617C35.0641 24.313 34.3875 24.9922 33.8225 25.7566C33.4221 26.2238 33.2227 26.5559 33.09 26.8047C33.0232 26.9219 32.9574 27.0206 32.7899 27.3218" stroke="#0012D4" stroke-linecap="round"/>
<path d="M30.7953 22.8341C30.532 22.4392 30.2687 22.0443 30.0838 21.8408C29.8988 21.6374 29.8 21.6374 29.6998 21.7361C29.1066 22.3205 29.2336 23.2969 29.1668 24.0274C29.0591 25.2047 28.8347 25.7242 28.7843 26.1401C28.7349 26.3884 28.701 26.7215 28.6846 27.07C28.6681 27.2211 28.6352 27.3198 28.5016 27.621" stroke="#0012D4" stroke-linecap="round"/>
<path d="M30.1969 21.5377C30.1311 21.3063 29.8 19.7884 29.7477 16.5628C29.7175 14.7058 30.7275 13.7609 30.9604 13.361C31.094 13.1315 31.4924 13.5585 31.6913 13.7739C32.2156 14.3415 32.3889 15.582 32.8218 17.7056C32.8567 19.5421 32.6582 20.0059 32.4084 20.5219C32.358 20.6391 32.3251 20.7378 32.2912 20.8396" stroke="#0012D4" stroke-linecap="round"/>
<path d="M18.13 33.5049C17.5008 32.2803 16.5723 30.6188 15.4414 29.7676C14.7178 29.2231 13.2853 28.7539 11.7854 28.6677C11.3587 28.6431 11.1501 29.0162 11.0005 29.2316C10.725 29.6283 11.3785 30.3755 12.0941 31.1424C12.643 31.5094 13.1756 31.8415 13.4244 32.0738C13.5416 32.1746 13.6403 32.2404 13.9415 32.3082" stroke="#0012D4" stroke-linecap="round"/>
<path d="M14.1409 32.9066C13.7091 33.5029 13.6423 34.6278 13.7251 35.496C13.8578 36.8884 13.6423 37.3584 13.741 37.8066C13.7861 38.0114 14.0372 38.0904 14.2047 38.1412C14.4951 38.2294 14.7712 38.1263 15.0858 37.9114C16.1733 37.1685 16.6321 36.0001 17.0145 35.4526C17.394 34.8093 17.6972 34.3037 17.8298 34.0883C17.8966 33.9716 17.9625 33.84 18.0303 33.7044" stroke="#0012D4" stroke-linecap="round"/>
<path d="M13.742 32.1087C12.7457 31.5772 12.3478 31.3787 11.9484 31.1952C11.4688 30.9748 10.2935 30.549 8.64447 30.4298C8.00961 30.3839 7.56094 30.7783 7.09521 31.2092C6.86528 31.4219 6.86085 31.8075 6.89376 32.1725C6.92205 32.4863 7.15904 32.7061 7.35799 32.8721C7.73749 33.1888 8.42058 33.2376 8.88681 33.4874C9.01994 33.5378 9.18449 33.5707 9.53254 33.5876C9.88059 33.6046 10.4071 33.6046 10.9497 33.7043" stroke="#0012D4" stroke-linecap="round"/>
<path d="M10.2516 33.7044C8.79458 33.473 7.32959 33.0741 6.25055 32.8407C5.61805 32.704 5.16651 32.8397 4.98401 32.9554C4.7632 33.0954 4.7337 33.4371 4.70029 33.6859C4.62686 34.2328 5.4288 34.931 5.86211 35.2162C5.95562 35.2778 6.06107 35.3319 6.06256 35.3494C6.08982 35.6674 5.23533 34.9689 4.63597 34.8183C3.79462 34.6069 2.77606 35.298 2.09293 35.863C1.5925 36.2768 1.34398 36.76 0.879251 37.4416C0.765627 37.6083 0.613978 37.6915 0.546163 37.8081C0.478349 37.9248 0.478349 38.0565 0.593534 38.1572C1.37458 38.8402 2.80199 38.3257 3.35198 38.2754C3.90396 38.2248 4.63098 38.0605 5.56094 37.4302C6.02915 36.8637 6.1957 36.4648 6.24556 36.216C6.26251 36.0988 6.26251 36.0001 6.06306 36.0978" stroke="#0012D4" stroke-linecap="round"/>
<path d="M6.56165 35.9981C5.83764 36.7879 5.46466 37.4252 5.48111 37.8236C5.48808 37.9923 5.53048 38.0904 5.5968 38.1577C5.73231 38.2952 5.9623 38.2918 6.19416 38.2754C7.0364 38.2156 7.98775 37.2646 8.58711 36.8308C9.18747 36.1656 9.38592 35.5035 9.71851 34.9196C9.78583 34.8024 9.81874 34.7036 10.0521 34.4025" stroke="#0012D4" stroke-linecap="round"/>
<path d="M10.0521 34.8014C8.85742 36.4608 8.25905 37.1928 7.72701 38.0061C7.61157 38.1826 7.59288 38.2898 7.62529 38.4394C7.6577 38.589 7.75643 38.7865 7.88957 38.9211C8.14191 39.1763 8.62007 39.1894 9.13416 39.14C10.0792 39.0492 10.8121 38.3935 11.8767 37.663C12.6087 37.1607 13.1417 36.6324 13.6403 35.836C14.0412 34.3047 14.0741 33.7393 14.124 33.3912C14.141 33.2077 14.141 33.0103 14.141 32.8068" stroke="#0012D4" stroke-linecap="round"/>
</svg>
