<svg width="31" height="44" viewBox="0 0 31 44" fill="none" xmlns="http://www.w3.org/2000/svg">
<path d="M16.3748 10.2488C14.9151 10.3876 14.4988 10.4575 14.0637 10.6651C13.4583 10.954 12.8649 11.6365 12.5498 12.5578C12.2276 13.4999 13.3782 14.5893 14.0251 15.4803C14.3419 15.9167 14.8077 16.1606 15.2584 16.265C16.1753 16.4772 16.8924 15.9895 17.5205 15.5889C17.7891 15.4175 18.0432 15.2581 18.2858 14.9467C19.2102 13.7599 18.7058 12.129 18.4282 11.4169C17.9754 10.7371 17.629 10.3197 17.0384 10.0756C16.8298 10.0401 16.5543 10.0401 16.1662 10.1444" stroke="#0012D4" stroke-linecap="round"/>
<path d="M15.6445 16.5091C15.2292 17.8227 14.7409 19.9815 14.671 21.6321C14.651 22.1046 14.5677 22.5858 14.515 24.2458C14.4623 25.9059 14.4279 28.7293 14.4273 30.3043C14.4267 32.1206 14.4967 32.6441 14.5139 33.182C14.5301 33.6878 14.6699 35.2077 14.912 37.62C15.1266 39.759 15.8166 41.1289 16.1291 41.8238C16.4879 42.6216 16.7567 43.1489 16.8783 43.2888C16.931 43.2908 16.9654 43.1531 16.9831 43.0305C17.0009 42.9079 17.0009 42.8046 17.0009 42.6982" stroke="#0012D4" stroke-linecap="round"/>
<path d="M15.6445 40.4028C15.5401 38.7719 15.8156 37.1077 16.0785 36.1447C16.2413 35.5486 16.3748 34.2572 17.3269 32.1668C17.9071 30.893 19.3256 29.8353 20.7346 28.8592C21.2334 28.5137 21.5897 28.1617 21.9372 28.0563C22.2414 27.964 22.2867 28.8869 22.391 29.7706C22.523 30.8882 22.0822 32.1193 21.4228 33.1095C20.4696 34.5407 18.9165 34.8373 18.0996 35.1326C17.4548 35.2202 16.8986 35.2901 16.6373 35.3074C16.5825 35.3246 16.6858 35.359 16.7922 35.3945" stroke="#0012D4" stroke-linecap="round"/>
<path d="M15.9575 16.6135C15.2626 17.6203 15.0539 18.383 15.0012 19.236C14.9722 19.7059 14.9141 20.3655 15.0346 21.3186C15.3416 23.7464 16.6858 24.6455 17.1209 24.9423C17.6206 25.2833 18.5263 25.3425 19.7257 25.3263C21.4953 25.3024 22.2846 24.441 22.7207 24.0059C23.1481 23.5795 23.3989 22.9468 23.4871 22.3198C23.5944 21.5565 23.6431 20.9289 23.6097 19.8881C23.5482 17.9708 22.1197 16.9327 20.9522 15.9728C20.3408 15.6055 20.0277 15.4313 19.6991 15.293C19.4737 15.1892 19.1294 15.0171 18.6703 14.944" stroke="#0012D4" stroke-linecap="round"/>
<path d="M13.8707 10.4575C13.037 9.62483 12.5518 8.7922 11.6832 6.95323C10.5252 4.50166 11.0181 2.60072 11.3472 1.922C11.6382 1.322 12.3025 0.929212 12.8581 0.703318C13.9299 0.267548 15.6737 0.614108 16.3727 0.978252C17.0389 1.32527 17.3807 2.07277 17.7302 2.64663C18.0352 3.1474 17.9399 4.01869 17.8022 5.14451C17.4663 7.89043 16.932 8.43745 16.7233 8.89081C16.5432 9.28205 16.4792 9.6217 16.4792 9.6577C16.4792 10.6766 17.1386 7.19373 17.521 6.23485C17.788 5.5653 18.8706 4.38075 19.7116 3.58986C20.1493 3.1782 21.1327 3.01599 22.1625 2.97948C22.9407 2.95188 23.4678 3.91748 23.8512 4.29989C24.2586 4.70614 24.3046 6.2046 23.9931 7.20312C23.7321 8.04008 22.6727 8.57727 22.2194 9.06453C21.6171 9.71182 20.6548 10.4908 19.5269 11.1158C19.2652 11.2609 19.1252 11.3256 19.5019 10.9651C20.7418 9.77835 22.1437 8.75569 22.9252 8.35607C23.4473 8.0891 24.0917 7.95436 25.1998 7.79785C26.8434 7.56572 28.0243 7.77907 28.4401 7.90011C29.0135 8.06703 29.485 8.50736 29.7803 8.94141C30.1797 9.52852 30.1476 10.8999 29.9055 11.7596C29.6734 12.584 28.7599 12.8552 26.7644 13.585C25.8389 13.9235 24.5571 13.934 22.6091 13.9189C21.0321 13.9067 19.89 13.4144 19.456 13.2929C19.1266 13.2006 20.3606 13.067 23.0843 12.9965C25.712 12.9286 27.2584 13.4478 27.6925 13.5522C28.3231 13.7037 29.1689 13.8986 29.6248 14.4203C30.0045 14.8547 30.0078 15.497 29.9916 16.7653C29.9831 17.4305 29.1772 17.8968 28.6018 18.2818C28.172 18.5694 27.7499 18.7691 26.8301 18.9778C25.8955 19.1898 25.0391 18.7712 24.255 18.3022C23.7427 17.9957 23.2299 17.5901 22.7239 17.3099C22.0368 16.9296 21.3163 16.3714 20.863 16.1794C20.2385 15.8841 19.3339 15.399 18.8805 15.136C18.7757 15.0839 18.6724 15.015 18.5659 14.7354" stroke="#0012D4" stroke-linecap="round"/>
<path d="M13.662 9.93576C12.412 8.58248 11.8549 7.67786 10.6242 5.97765C9.83389 4.88584 9.07319 4.58107 8.55149 4.21589C8.04472 3.86115 7.61244 3.60655 6.88363 3.48447C6.2356 3.37593 5.73329 3.50117 5.47349 3.6222C4.61939 4.02009 4.23811 4.82105 4.02891 5.44605C3.83456 6.02667 3.74981 6.52595 3.76702 6.8035C3.82045 7.66486 5.27316 8.99044 7.06466 10.2446C8.10333 10.9717 8.99597 11.3589 10.4745 11.7606C10.768 11.8404 10.9116 11.8139 11.0342 11.8311C11.1568 11.8483 11.2601 11.8827 11.0723 11.9005C9.14398 12.0826 7.26603 10.9812 6.75999 10.7538C6.2552 10.5269 5.28776 10.4575 3.91101 10.7167C2.77588 10.9305 2.25776 11.9161 1.42252 12.8536C0.925467 13.4115 0.690584 14.0029 0.533032 14.4552C0.430416 14.7498 0.584158 15.1162 0.757361 15.4631C1.29541 16.5408 2.73772 17.3417 3.52078 17.6386C4.16667 17.8834 4.8245 17.83 5.5893 17.7967C6.40898 17.7609 7.70634 17.0006 9.02728 16.2707C9.92292 15.7758 10.5965 15.3301 11.3786 14.774C11.6778 14.5611 11.7818 14.4933 11.2841 14.7333C10.7864 14.9732 9.68461 15.5242 8.63496 16.5138C7.58531 17.5035 6.62122 18.9152 6.12456 19.9695C5.36634 21.5792 5.7312 22.5587 5.95658 22.9406C6.41297 23.7139 7.43297 24.0549 8.30108 24.2125C10.2892 24.5733 11.1537 23.9527 12.4741 23.3287C13.7987 22.7028 14.6678 21.7302 15.104 20.9461C15.508 20.2198 15.8177 19.0174 15.8704 18.3893C15.8876 18.2495 15.922 18.1118 15.9397 17.7998C15.9575 17.4878 15.9575 17.0058 15.9575 16.5091" stroke="#0012D4" stroke-linecap="round"/>
</svg>
