<svg width="25" height="41" viewBox="0 0 25 41" fill="none" xmlns="http://www.w3.org/2000/svg">
<path d="M13.0836 15.399C13.0836 17.2583 13.0836 19.2835 13.1525 21.5722C13.2298 24.1435 13.501 25.7609 13.5526 26.5393C13.6435 27.9087 13.814 29.2709 13.8312 30.1567C13.8553 31.396 13.9872 32.6462 14.0399 33.4121C14.0951 34.2142 14.1959 35.3236 14.4218 36.1421C14.5089 36.5068 14.5444 37.5794 14.5271 38.9874C14.5099 39.5003 14.4755 39.6036 14.3357 39.71" stroke="#0012D4" stroke-linecap="round"/>
<path d="M13.0836 15.2947C12.7372 15.3291 12.1821 15.399 11.5556 15.2607C10.9975 15.1376 10.7548 14.5664 10.3896 14.2351C10.0051 13.8863 9.5048 13.0743 9.24082 12.0821C9.00552 11.1976 9.32638 10.4272 9.56896 10.0631C9.84941 9.64213 10.23 9.31394 10.7318 9.0364C11.4826 8.62123 12.7289 8.61696 13.8583 8.65139C14.4797 8.67033 14.8209 8.99779 15.1162 9.31029C15.8063 10.0407 15.2414 11.8828 14.7724 13.3759C14.6498 13.7275 14.5465 13.9341 14.4416 14.1094C14.3367 14.2847 14.2334 14.4224 14.0227 14.773" stroke="#0012D4" stroke-linecap="round"/>
<path d="M13.3966 15.399C13.6377 15.1924 13.8787 14.9858 14.0545 14.7933C14.2303 14.6008 14.3336 14.4287 14.5444 14.0426" stroke="#0012D4" stroke-linecap="round"/>
<path d="M14.6487 35.9538C14.7176 34.9208 15.0285 33.3557 15.5836 31.498C16.0174 30.0459 16.6635 29.2093 17.2353 28.6026C18.4865 27.2749 19.1666 26.6363 19.6382 26.4584C20.4134 26.166 19.9345 28.4372 19.9356 31.5246C19.936 32.8042 19.3127 33.963 18.7372 34.8212C18.1587 35.6839 17.3281 36.4734 16.9285 36.8047C16.3202 37.1359 15.7631 37.2058 15.5027 37.2231C15.3801 37.2403 15.2768 37.2747 14.9617 37.3102" stroke="#0012D4" stroke-linecap="round"/>
<path d="M13.3967 31.9889C13.3967 31.6769 13.1901 30.572 12.3574 28.5363C11.5304 26.5143 10.6504 26.3567 9.73122 25.7656C8.84046 25.1928 7.69556 24.825 7.15561 24.7723C7.03239 24.7603 6.92971 24.7207 6.84207 24.8579C6.58707 25.2571 6.61461 25.8308 6.70069 26.2988C7.03049 28.0917 9.0478 29.274 10.1919 30.0211C10.5075 30.1797 10.7485 30.2485 11.1481 30.284C11.5478 30.3195 12.0987 30.3195 12.6663 30.3195" stroke="#0012D4" stroke-linecap="round"/>
<path d="M13.7097 22.3897C13.9507 22.5274 14.1917 22.6652 14.4019 22.6845C15.1848 22.7563 15.5168 21.7658 15.6222 21.3479C15.6492 21.2409 15.7255 21.1397 15.8987 21.0865C16.7647 20.8204 17.6349 21.6906 18.4023 21.9546C19.1305 22.2051 20.0013 21.4527 20.5767 20.931C21.0709 20.483 21.0823 19.8188 21.1005 18.8286C21.1073 18.4588 21.0134 18.0795 21.1167 17.6282C21.3146 16.7634 22.3656 16.722 22.9416 16.3746C23.3707 16.1157 23.5864 15.713 23.6907 15.4705C23.9398 14.8913 23.8305 12.7049 23.5713 11.3318C23.4963 10.9348 22.9969 10.7747 22.8059 10.4971C22.6253 10.2346 22.5785 9.83667 22.699 9.31654C22.855 8.64327 23.3433 8.27054 23.3954 8.01021C23.4946 7.5153 23.1023 6.94961 22.5978 6.22028C22.096 5.49491 21.4015 4.27852 21.0311 3.47146C20.7832 2.93122 20.7713 2.46303 20.4583 1.97576C20.2971 1.72482 19.8677 1.73056 19.4859 1.765C18.7116 1.83481 18.1628 2.66753 17.7804 3.06819C17.6861 3.16706 17.5723 3.2247 17.4502 3.26018C17.1984 3.33335 16.9108 3.19236 16.6504 2.9842C16.1199 2.56 15.9362 1.76813 15.6759 1.22817C15.5476 0.962043 15.2758 0.826989 15.016 0.688218C14.6731 0.505079 14.0957 0.478496 13.5224 0.512928C12.8837 0.551282 12.1154 1.41337 11.3469 2.07645C10.9337 2.43295 10.3729 2.46094 9.69521 2.65136C9.42997 2.72588 9.22412 2.73952 9.01596 2.65292C8.51724 2.44543 8.07743 2.07906 7.38253 2.0608C7.06539 2.05246 6.75545 2.28565 6.42574 2.58041C5.59524 3.32287 5.5712 4.92543 5.70945 5.48521C5.7396 5.60728 5.88214 5.69336 5.93535 5.81544C5.98856 5.93752 5.98856 6.07524 5.93691 6.21506C5.88527 6.35487 5.78197 6.4926 5.65989 6.58077C5.23091 6.89059 4.53199 6.87657 3.9383 7.31062C3.30886 7.77081 3.41556 8.57938 3.31122 9.74276C3.23893 10.5488 2.06333 10.7371 1.05332 11.1195C0.833165 11.2029 0.704831 11.3277 0.616664 11.4842C0.213299 12.2002 0.942724 13.2726 1.51711 13.9878C2.31132 14.9768 2.09254 16.4737 2.24905 16.9797C2.41257 17.5084 2.6831 17.9699 3.0655 18.3888C3.49701 18.8615 4.59459 18.4603 5.29053 18.5625C6.35754 18.7193 5.7778 20.6472 6.40331 21.2055C7.07672 21.8064 8.59078 21.3129 9.39471 21.3802C9.98362 21.4295 10.16 22.2833 10.4913 22.7878C10.6535 23.0347 10.9259 23.1545 11.2379 23.2067C11.6187 23.2244 11.9693 23.19 12.2468 23.1034C12.3866 23.0512 12.5244 22.9823 12.8749 22.8071" stroke="#0012D4" stroke-linecap="round"/>
</svg>
