<svg width="25" height="44" viewBox="0 0 25 44" fill="none" xmlns="http://www.w3.org/2000/svg">
<path d="M10.9149 2.89887C10.5017 1.86591 10.1167 1.26492 9.78699 1.14337C9.49813 1.03687 9.03992 1.02077 8.41545 1.10685C7.74602 1.19912 7.23068 1.78349 6.83106 2.25197C6.11635 3.08984 6.67038 4.49526 6.91453 5.69359C7.04294 6.32383 6.88114 6.75837 6.72515 6.94931C6.56921 7.1402 6.22172 7.17677 5.82262 7.15956C4.81354 7.11603 3.61533 6.20433 2.57194 6.20225C1.54146 6.20018 1.07572 7.10373 0.707921 7.74803C0.213025 8.61497 0.72305 9.9188 0.984419 10.5313C1.20155 11.0401 0.96929 11.6258 0.707921 12.1136C0.555175 12.3986 0.585322 12.809 0.63697 13.2253C0.737706 14.0373 1.41795 14.5807 1.61098 15.1566C1.8988 16.0154 0.796087 17.4291 0.810695 18.3212C0.822616 19.0492 2.38621 19.6244 3.27779 19.8884C4.49484 20.2487 5.59151 19.6975 5.95618 19.7663C6.55057 19.8786 6.56604 20.841 6.86184 21.3481C7.11029 21.774 7.71168 22.0263 8.65073 22.6513C8.98933 22.8767 9.34772 22.932 9.7296 22.8975C10.4272 22.8346 10.9817 22.1682 11.435 21.9241C11.838 21.707 12.3736 21.7842 12.878 21.3518C13.4766 20.8386 13.6256 19.9792 13.9052 18.7631C14.0072 18.3199 13.9752 18.0291 14.0618 17.8209C14.1067 17.7128 14.1828 17.6128 14.3388 17.5423C14.713 17.3734 15.1218 17.402 15.3994 17.4364C15.9568 17.5056 16.1652 18.268 16.4266 18.7741C16.7511 19.4023 17.2775 19.975 17.8686 20.4779C18.0108 20.5989 18.1122 20.6699 18.2343 20.7398C18.4899 20.8862 19.7378 20.0199 21.7343 18.112C22.6927 17.1962 23.2832 16.1353 23.5686 15.5176C23.854 14.8999 23.7507 14.6934 23.4392 14.2598C21.9919 12.2452 21.1412 12.1162 20.9674 11.943C20.8783 11.8541 20.8626 11.7009 20.8621 11.5611C20.8615 11.4213 20.896 11.2836 20.9826 11.161C21.3542 10.6348 22.1105 10.3445 22.5127 9.89115C23.0329 9.3048 23.0182 8.08452 22.8628 7.30146C22.6897 6.42954 21.595 6.0666 20.8302 5.64768C20.1167 5.25687 19.3351 5.64507 18.552 6.07965C18.2156 6.26633 17.8722 6.20329 17.6119 6.08226C17.0278 5.81069 16.7954 4.54117 16.5669 3.63185C16.4135 3.02108 16.1694 2.38135 15.8199 1.51064C15.6068 0.979803 14.9862 0.778701 14.2219 0.534547C13.7563 0.385794 13.2479 0.741139 12.708 1.19293C12.2723 1.54142 11.856 1.88887 11.4209 2.2191C11.2989 2.34066 11.1611 2.51282 11.0192 2.69019" stroke="#0012D4" stroke-linecap="round"/>
<path d="M12.6887 21.4713C12.6198 22.5731 12.5499 23.4161 12.5322 25.2108C12.5171 26.73 12.6177 29.4845 12.6704 31.024C12.7599 33.6396 12.8619 35.3776 12.9146 36.1805C12.9605 36.8808 13.1394 38.0528 13.2276 39.344C13.2832 40.159 13.6611 40.8408 13.8187 41.3807C13.8708 41.8163 13.9407 42.3015 14.0273 42.6516C14.0451 42.6531 14.0451 42.5498 14.0451 42.4434" stroke="#0012D4" stroke-linecap="round"/>
<path d="M13.2104 36.6004C13.4169 34.4656 13.6611 32.574 13.9903 31.047C14.5125 28.6248 15.3639 27.8046 16.0244 27.057C17.1965 25.7303 17.6604 25.2285 17.9385 25.1409C18.1368 25.0784 18.0799 26.8823 18.0105 29.1939C17.9772 30.3021 17.6302 31.3407 17.1612 32.6267C16.7403 33.7807 16.1694 34.5804 15.6644 35.1548C15.0591 35.8433 14.3956 36.0766 13.8557 36.4773C13.7331 36.5649 13.6298 36.6338 13.5077 36.6865C13.3856 36.7392 13.2479 36.7736 13.106 36.8091" stroke="#0012D4" stroke-linecap="round"/>
<path d="M11.9583 33.9919C10.8565 33.1656 10.1167 32.6021 9.45987 32.0491C8.16884 30.9622 7.12633 29.857 6.69228 29.0765C5.94696 27.7364 5.97756 26.7279 5.82001 25.7705C5.63013 24.6168 5.69793 24.1517 5.83566 23.8382C6.23544 22.9281 7.8494 24.3907 8.5996 24.843C9.66122 25.483 10.5643 26.9282 11.0349 27.7285C11.521 28.5553 11.7141 29.328 11.94 29.9551C12.2444 30.7999 12.4445 31.7278 12.4972 32.2166C12.5144 32.3215 12.5488 32.4248 12.5838 32.5296C12.6187 32.6345 12.6532 32.7378 12.793 32.8442" stroke="#0012D4" stroke-linecap="round"/>
</svg>
