<svg width="27" height="43" viewBox="0 0 27 43" fill="none" xmlns="http://www.w3.org/2000/svg">
<path d="M14.5784 8.91397C13.821 8.74567 13.3047 8.53274 13.0713 8.19421C12.4414 7.28037 12.6659 5.94568 12.9406 4.11855C13.0776 3.20766 14.0607 1.95226 15.2504 0.740331C15.6491 0.334101 15.7668 0.496161 15.9153 0.834684C16.712 2.65042 16.746 3.97957 16.8518 4.80835C17.0703 6.51944 16.5343 7.12637 16.1104 7.61598C15.5997 8.02017 15.2172 8.31853 14.9418 8.4454C14.7926 8.53019 14.6243 8.65642 14.3234 8.78647" stroke="#0012D4" stroke-linecap="round"/>
<path d="M14.7059 8.914C14.7059 9.54515 14.7059 10.1763 14.7269 12.8998C14.748 15.6233 14.79 20.42 14.7696 23.1224C14.7492 25.8249 14.6651 26.2877 14.6217 27.0731C14.4398 30.3703 14.4509 31.4771 14.2392 33.0684C14.0636 34.3886 14.1538 35.4323 14.09 36.3197C13.8886 39.124 14.28 39.8924 14.3444 40.7658C14.4075 41.1266 14.4509 41.7208 14.4509 42.2741C14.4509 42.4067 14.4509 42.2384 14.4509 42.065" stroke="#0012D4" stroke-linecap="round"/>
<path d="M14.3234 13.8866C14.0696 13.6329 13.5609 13.2083 12.268 12.6562C10.3543 11.839 8.16494 12.4407 7.03972 12.8851C5.13378 13.6377 4.67898 14.6491 3.91332 15.2866C3.28758 15.8076 2.85057 16.3066 2.33992 16.5846C1.79702 16.8801 1.19302 17.115 0.554864 17.2648C0.449958 17.2895 0.5096 17.4542 0.615428 17.6034C1.10294 18.2906 1.99375 18.6859 2.84484 19.1978C3.60635 19.6558 4.79628 19.7085 5.6716 19.7728C6.63056 19.8434 8.15219 19.4585 9.13524 18.9039C10.2354 18.2832 10.6232 17.3318 11.028 16.8001C11.6126 16.0324 12.4083 15.3759 13.0248 14.9296C13.5992 14.5675 14.1513 14.3966 14.5331 14.3546C14.7046 14.3125 14.8308 14.2283 14.9609 14.1416" stroke="#0012D4" stroke-linecap="round"/>
<path d="M14.5784 14.2691C16.0218 13.165 16.7001 12.91 19.0315 12.5491C20.3415 12.3464 21.0352 12.6116 21.7575 12.8647C23.2619 13.3918 23.5012 14.1824 24.0329 14.8187C24.8716 15.8224 25.7503 18.7955 26.0748 20.3658C26.1321 20.6431 26.1813 21.1926 26.1603 21.8932C26.1518 22.1738 26.0971 22.2993 25.844 22.133C24.2868 21.1092 23.9321 20.1369 22.8279 19.1181C22.2087 18.5468 21.5937 18.436 21.041 18.2014C20.3038 17.8885 19.2604 17.7985 18.4271 17.5639C17.6138 17.3348 16.7485 16.7351 15.8356 15.8878C15.5131 15.5885 15.3868 15.2905 15.2593 15.015C14.9641 14.3775 15.3843 13.6342 15.6399 12.9967C16.03 12.0239 17.6283 10.3267 19.0347 9.32072C20.321 8.40061 22.0527 8.40396 23.0294 8.425C23.8849 8.61562 24.3095 8.99686 24.6277 9.39977C24.7775 9.5923 24.9037 9.76061 24.9063 9.679" stroke="#0012D4" stroke-linecap="round"/>
<path d="M14.3234 13.5041C13.0497 11.2958 12.7092 10.7016 11.7561 9.68285C11.1846 9.07198 10.0801 8.40909 9.24684 7.91629C8.70078 7.59333 7.95077 7.68232 7.06015 7.72312C6.25751 7.97558 5.61234 8.27521 5.3363 8.52958C5.22856 8.65772 5.18648 8.78395 5.01562 8.91401" stroke="#0012D4" stroke-linecap="round"/>
<path d="M16.4909 41.81C16.2359 39.5213 16.4042 37.3984 16.7447 36.161C16.9618 35.3718 18.4775 33.7467 19.2737 32.6533C19.7043 32.0621 20.1019 31.1456 20.3154 30.5495C20.6109 29.7249 20.7827 28.7664 20.805 26.5395C20.8166 25.3908 20.2753 24.727 19.6811 24.2585C19.3964 24.034 18.9161 24.087 18.4704 24.129C17.841 24.1885 17.3452 25.2294 16.8747 25.8912C16.6662 26.1845 16.5764 26.5503 16.5337 26.8895C16.491 27.2285 16.7026 27.5704 16.9143 27.8885C17.1384 28.2254 17.5518 28.3367 17.8699 28.3794C18.0184 28.3993 18.1459 28.338 18.253 28.2532C18.4763 28.0764 18.531 27.5334 18.4679 26.9176C18.4048 26.6804 18.2786 26.5963 18.1504 26.5739C18.0223 26.5516 17.896 26.5937 17.766 26.6371" stroke="#0012D4" stroke-linecap="round"/>
<path d="M8.45825 41.555C8.33075 39.2676 8.4149 37.3933 8.69095 36.7334C8.91537 36.197 9.51654 35.3558 10.156 34.5665C11.0137 33.5078 11.6 32.6756 12.1119 31.8469C12.6231 31.0192 12.4517 29.3682 12.4753 27.8968C12.5159 25.3621 11.0568 23.5438 10.3517 22.8132C9.86225 22.3061 9.05752 22.1336 8.1854 22.131C7.12905 22.128 6.63495 23.656 6.20653 25.2064C5.91901 26.247 6.20526 27.0604 6.33212 27.3995C6.66869 28.2993 7.86153 28.4642 8.24277 28.4648C8.73744 28.4656 9.13657 27.7884 9.41262 27.1094C9.86677 25.9924 9.52164 24.8533 9.33102 24.641C9.15354 24.4433 8.79996 24.4695 8.48184 24.5536C8.33202 24.6378 8.2058 24.8061 8.14077 24.998C8.07574 25.1899 8.07574 25.4002 8.20325 25.4895" stroke="#0012D4" stroke-linecap="round"/>
</svg>
