<svg width="25" height="42" viewBox="0 0 25 42" fill="none" xmlns="http://www.w3.org/2000/svg">
<path d="M11.0194 7.22479C10.1779 8.15047 9.74434 9.09018 9.76538 9.85456C9.77728 10.2868 9.99807 10.5807 10.2524 10.8778C10.4682 11.1298 11.2259 11.1774 12.2026 11.0933C12.5978 11.0592 12.7585 10.8408 12.9084 10.6489C13.2086 10.2644 13.3145 9.31458 13.2513 8.16768C13.2274 7.73215 13.062 7.60985 12.8707 7.52379C12.4496 7.33426 12.0407 7.31022 11.7232 7.24647C11.2877 7.15901 10.8511 7.35102 10.5119 7.66851C9.71491 8.41458 9.74434 9.47269 9.80746 10.2371C9.83281 10.5441 9.9968 10.6648 10.146 10.7509C10.4425 10.922 11.0576 10.9224 11.7793 10.8383C12.0897 10.8021 12.2485 10.5858 12.3773 10.3939C12.6309 10.016 12.6769 9.43826 12.6349 8.86513C12.6067 8.48208 12.3378 8.2461 12.1472 8.03381C11.9697 7.83615 11.574 7.86231 11.1921 7.94647C10.4842 8.10248 10.4686 9.34391 10.445 10.3244C10.4406 10.5077 10.6343 10.5807 10.8466 10.624C11.345 10.7258 11.7831 10.6253 12.0375 10.5195C12.1696 10.4645 12.2919 10.3716 12.3779 10.2441C12.5583 9.97689 12.5494 9.52241 12.4653 9.07679C12.4262 8.86974 12.2128 8.75739 12.0209 8.69236C11.829 8.62734 11.6186 8.62734 11.4472 8.79564C11.2757 8.96395 11.1494 9.30056 11.1265 9.55812C11.1035 9.81567 11.1877 9.98398 11.3362 10.0496C11.4848 10.1153 11.6952 10.0732 11.8246 9.94636C11.954 9.8195 11.9961 9.60912 11.9546 9.43762C11.9132 9.26613 11.787 9.1399 11.6378 9.11695C11.4886 9.094 11.3203 9.17815 11.2336 9.3267C11.1469 9.47524 11.1469 9.68562 11.2521 9.81504C11.3573 9.94445 11.5676 9.98653 11.7181 9.94509C11.8686 9.90365 11.9527 9.77742 11.9329 9.67032C11.9132 9.56322 11.787 9.47906 11.7009 9.49883C11.6148 9.51859 11.5727 9.64482 11.5294 9.77487" stroke="#0012D4" stroke-linecap="round"/>
<path d="M11.2744 7.22481C11.1469 6.16908 11.3993 3.87656 11.8673 2.68121C12.1579 1.93879 12.8439 1.3201 13.3533 0.852801C13.9021 0.349353 14.9669 0.467101 15.8186 0.699158C16.5078 0.886943 16.9253 1.48586 17.2014 1.7823C17.4801 2.08165 17.3946 3.09496 17.2263 4.4312C16.9635 6.51711 15.5687 6.83975 14.657 7.54102C14.0132 8.03627 13.5707 8.15942 13.5267 8.16005C12.6128 8.1733 15.7268 7.73483 17.2186 7.629C19.1735 7.49032 20.0237 7.98729 20.8773 8.7096C21.1396 8.93153 21.0922 9.43191 20.9239 10.0465C20.4908 11.6279 18.6313 11.5166 18.0761 11.7499C17.4959 11.9937 18.2004 13.0441 18.224 14.4658C18.2327 14.9918 17.61 15.2984 17.0586 15.5744C16.2474 15.9805 15.0638 15.3035 14.2516 14.7495C13.7285 14.3927 13.2328 13.6893 12.8267 13.0919C12.6348 12.4971 12.5073 11.9437 12.4225 11.6473C12.3798 11.4771 12.3378 11.2667 12.2944 10.9224" stroke="#0012D4" stroke-linecap="round"/>
<path d="M10.6368 7.35228C10.8918 5.90893 11.0601 5.06231 11.0837 3.63936C11.1079 2.18372 10.2135 1.74465 9.0902 0.852764C8.70141 0.544071 8.25888 0.552492 7.81389 0.530817C7.31632 0.50658 6.85633 0.890378 6.4955 1.2085C5.98565 1.658 5.87838 2.37707 5.77064 3.03563C5.57556 4.22804 6.63575 6.19709 7.34085 6.94682C7.84624 7.4842 8.46671 7.69144 8.97736 7.96749C9.10352 8.03568 9.23173 8.07395 9.21261 8.09563C8.86008 8.49515 7.83684 7.52568 6.66699 6.90793C6.03303 6.57316 4.99095 6.45975 4.22146 6.60766C3.39025 6.76743 2.69333 7.56139 1.90535 8.34809C1.29935 8.95311 0.905723 9.6448 0.607364 10.7044C0.332363 11.681 0.648165 12.4512 0.859822 12.7266C1.66488 13.7741 3.79241 13.4699 4.28075 13.8327C4.54957 14.0323 4.93995 14.0246 5.25807 14.0673C5.8116 14.1416 6.38329 13.475 7.23375 12.6469C7.80826 12.0874 8.3392 11.3508 8.84986 10.4583C8.978 10.2441 9.10423 10.0758 9.21133 9.92595C9.31844 9.77613 9.40259 9.6499 9.48929 9.51985" stroke="#0012D4" stroke-linecap="round"/>
<path d="M11.0193 10.0299C11.0193 10.8714 11.0193 12.0623 10.9983 13.273C10.9618 15.3734 10.8077 18.6109 10.7433 19.5258C10.69 20.2826 10.5093 23.4765 10.4035 25.5605C10.357 26.4764 10.2543 28.1661 10.1485 29.2805C10.0719 30.0864 9.99931 31.0222 9.68182 32.8875C9.52463 33.8111 9.57472 34.466 9.51097 35.7526C9.48929 36.8287 9.48929 38.7642 9.51033 39.8244C9.53137 40.8846 9.57344 41.0108 9.61679 41.2684" stroke="#0012D4" stroke-linecap="round"/>
<path d="M9.87183 41.2684C10.4214 39.4884 11.6926 37.7901 12.5048 37.0627C13.531 36.1436 15.6427 33.9242 16.5212 33.2369C17.3147 32.6162 18.412 32.1315 19.0496 31.9612C19.8793 31.7397 20.9188 31.9172 21.5786 32.1295C22.2272 32.3382 22.6197 33.0622 23.1303 33.5314C23.6697 34.027 23.6843 34.5094 23.6639 34.6586C23.5727 35.3255 22.2423 34.5948 21.4575 34.9971C19.9375 35.7762 18.9731 36.4615 17.867 36.9741C15.8696 37.4433 14.592 37.3591 14.0814 37.1468C13.9532 37.062 13.827 36.9358 13.4419 36.6782" stroke="#0012D4" stroke-linecap="round"/>
<path d="M9.1068 36.2957C9.1068 34.6853 9.02265 33.2407 8.68349 32.4731C8.5016 32.0615 7.87767 31.8764 7.24142 31.7489C5.90311 31.4807 4.43506 32.3839 3.75483 32.9557C2.26808 34.2056 2.39245 35.3139 2.07432 36.3123C1.80215 37.1664 1.6695 37.8666 1.60575 38.2057C1.57393 38.375 1.58407 38.5449 1.85757 38.2319C2.76708 37.1909 4.67222 35.9591 6.9029 35.4701C8.21173 35.5294 8.85052 35.8278 9.12593 35.9336C9.27511 35.9974 9.44341 36.0815 9.61682 36.1682" stroke="#0012D4" stroke-linecap="round"/>
<path d="M10.2543 30.5581C10.4647 29.9664 11.1443 29.0306 11.7818 28.5409C12.3642 28.0937 13.0135 27.7555 13.7792 27.4565C14.4297 27.2025 14.9261 26.5238 15.3953 25.9488C15.5228 25.7996 15.6911 25.6313 15.8199 25.4815C15.9487 25.3317 16.0328 25.2054 16.3745 24.9479" stroke="#0012D4" stroke-linecap="round"/>
<path d="M9.61681 10.2849C7.6201 12.0687 7.11264 12.6616 6.53759 13.1308C5.89623 13.6541 5.28678 14.8241 5.17458 15.9767C5.13484 16.3849 5.70372 16.743 6.25517 17.1038C6.69271 17.3901 7.57038 17.4251 8.58977 17.4041C9.10799 17.3934 9.44468 17.1293 9.8476 16.7902C10.5922 15.5202 11.0194 12.9306 10.9983 11.2737C10.9773 10.6687 10.9352 10.5425 10.8919 10.2849" stroke="#0012D4" stroke-linecap="round"/>
<path d="M12.0394 11.1774C11.5307 12.1949 11.2744 13.3807 11.1686 14.7208C11.097 15.6273 11.189 16.3184 11.3158 16.6576C11.4558 17.0317 11.8252 17.2543 12.2485 17.3818C12.8165 17.5529 13.3132 17.341 13.5675 17.1924C13.8057 17.0534 14.0361 16.9164 14.1847 16.662C14.249 16.5339 14.2911 16.4076 14.3128 16.1743C14.3345 15.941 14.3345 15.6044 14.207 15.1301" stroke="#0012D4" stroke-linecap="round"/>
<path d="M9.99932 23.8003C9.53266 22.9945 9.10935 22.4845 8.38767 21.9745C7.89937 21.6294 7.28094 21.9719 6.94178 22.1625C6.24049 22.5567 5.87839 23.1603 4.69133 24.4328C4.06053 25.109 3.58587 25.9628 3.22121 26.6035C3.07566 26.8592 2.94453 27.1142 2.8387 27.3896C2.78051 27.541 2.6908 27.7071 2.47914 27.4782C1.78666 26.7294 1.54198 24.9581 1.70965 22.9441C1.88251 20.8679 2.98533 19.849 3.26074 19.5946C3.92324 18.9827 5.02157 18.7435 6.16974 18.7422C6.77655 18.7416 7.23504 19.0814 7.5742 19.3568C8.289 19.9373 8.42592 20.8218 8.70197 21.3758C8.93594 21.8865 9.35925 22.4794 9.84887 23.0334C9.95597 23.1615 10.0401 23.2878 10.3818 23.5453" stroke="#0012D4" stroke-linecap="round"/>
<path d="M17.6496 19.8477C16.5033 19.4231 15.7421 19.2535 14.9956 19.3581C14.6854 19.4015 14.4632 19.8031 14.2509 20.206C14.0724 20.5447 14.0795 20.9506 14.1215 21.3535C14.2007 22.112 15.3494 22.6069 15.8632 23.1819C16.371 23.7502 16.247 25.6568 16.5008 26.731C16.571 27.0285 17.0936 27.452 17.6668 27.9831C18.2797 28.551 19.3887 28.0947 20.0486 27.9232C20.3187 27.8529 20.665 28.0079 21.0259 27.9448C21.3228 27.8929 21.4313 27.4992 21.5799 27.2028C22.153 26.0589 21.6455 24.3129 21.4964 23.4637C21.4591 23.2517 21.4747 23.0812 21.1801 22.9945C20.3284 22.7438 19.5634 22.8657 19.288 22.7388C18.5849 22.415 18.2463 21.7628 17.8421 20.5968C17.7214 20.2486 17.7771 19.8553 17.9243 19.5971C18.2145 19.0884 19.3007 19.0827 20.3201 19.1247C20.8494 19.1466 21.0909 19.4218 21.3242 19.6335C21.8249 20.0877 21.898 20.7377 22.0057 21.3542C22.1122 21.9706 22.028 22.5661 21.8374 22.8632C21.731 22.9919 21.6047 23.0761 21.2197 23.1628" stroke="#0012D4" stroke-linecap="round"/>
</svg>
