<svg width="27" height="44" viewBox="0 0 27 44" fill="none" xmlns="http://www.w3.org/2000/svg">
<path d="M11.0311 42.1964C10.6052 41.7706 10.1729 41.0188 9.81474 40.088C9.56982 39.4515 9.38348 37.9075 9.16839 35.6523C8.93556 33.2111 9.20281 32.5561 9.59535 30.8929C9.73015 30.3217 10.5579 29.0866 11.793 27.3138C12.5535 26.2223 13.1089 25.8506 13.5546 25.3876C15.1453 23.7355 15.5093 22.6984 15.7803 22.1768C15.9782 21.4434 16.0137 20.6174 16.0674 20.1534C16.0857 19.8668 16.0857 19.4764 15.9782 19.0742" stroke="#0012D4" stroke-linecap="round"/>
<path d="M15.2254 5.95361C14.5865 6.09557 14.151 6.20419 13.9187 6.3112C13.6266 6.44573 13.3982 6.77634 13.2191 7.11618C12.8539 7.80934 12.9325 8.74765 12.3953 9.37464C12.1761 9.63054 12.2141 10.0382 12.2851 10.4141C12.4387 11.2274 13.8595 11.2943 16.5589 11.2954C17.3789 11.2957 17.6978 11.0448 17.9301 10.884C18.2031 10.6951 18.5216 10.3296 18.7905 9.79353C19.2586 8.86017 18.5614 8.25079 18.113 7.49797C17.7292 6.85368 17.0924 6.67202 16.6251 6.40262C16.4105 6.31282 16.1589 6.27625 15.8905 6.2585C15.7642 6.24076 15.6577 6.20527 15.3329 6.1687" stroke="#0012D4" stroke-linecap="round"/>
<path d="M13.5046 6.38377C13.5046 6.02672 13.3627 5.0287 12.897 3.89571C12.7621 3.56756 12.4668 3.33808 12.127 3.10525C11.5836 2.73297 10.6418 2.83477 9.97606 3.08428C9.46889 3.27436 8.98986 3.87043 8.64948 4.51517C8.46465 4.86527 8.44999 5.30509 8.46773 5.84228C8.48976 6.50917 9.45016 7.0269 10.2218 7.40438C10.6655 7.62142 11.2075 7.63775 11.9974 7.67432C12.8207 7.71243 10.603 7.45923 9.94057 7.22747C9.51081 7.07712 9.16839 6.88601 8.84683 6.83224C8.45924 6.76742 8.12842 6.88494 7.91387 7.04572C7.68117 7.22009 7.48315 7.56462 7.32183 8.02922C7.01522 8.91227 7.87139 10.2447 8.84091 11.1502C9.00806 11.3063 9.23507 11.2233 9.2555 11.2943C9.41481 11.8477 8.70164 12.2601 8.68282 13.2629C8.67141 13.8712 9.37918 14.34 10.1143 14.7352C10.3699 14.8727 10.5998 14.8799 10.8499 14.8621C11.4794 14.8174 12.0313 14.1314 12.6066 13.3947C12.8241 13.1162 13.0013 12.4472 13.1809 11.8186C13.349 11.2302 12.8594 13.0494 12.7701 13.5694C12.6936 14.0151 12.6443 14.7315 13.0545 15.4515C13.3095 15.8989 13.9327 16.0607 14.2209 16.67C14.4381 17.1291 14.7199 17.9578 15.2415 18.5171C15.6631 18.9691 16.7245 18.8591 17.6247 18.6273C18.1605 18.4893 18.057 17.7492 18.1818 17.4986C18.4392 16.9815 19.2734 17.1749 19.8122 16.9066C20.3868 16.6204 20.28 15.5639 20.1552 14.9896C20.0306 14.4158 19.7079 13.9507 19.3314 13.4834C18.9261 12.9802 18.0968 12.516 17.6634 12.1203C16.8945 11.4181 19.6304 14.0496 20.1886 14.8772C20.4384 15.2476 20.7446 15.5241 21.0129 15.7031C21.426 15.9788 22.3535 15.5273 22.9493 15.1858C23.4197 14.9163 23.4698 14.1658 23.8984 13.6625C24.1795 13.3322 24.7238 13.5183 24.9921 13.3753C25.2332 13.2468 25.4411 12.9817 25.6202 12.6241C25.7874 12.2901 25.7648 11.7998 25.6938 11.2099C25.5593 10.0917 24.7991 9.82738 24.1549 9.39666C23.6209 9.03962 22.048 9.07241 20.416 9.09016C19.9194 9.09556 20.0972 9.14339 20.4193 9.16167C21.9645 9.24938 22.7514 8.53684 23.3961 7.99911C23.7478 7.7058 24.114 7.42481 24.4006 7.121C24.6537 6.85269 24.5818 6.31494 24.5463 5.81378C24.5199 5.44007 24.1183 5.05989 23.6709 4.64799C23.1083 4.13003 22.4675 4.05649 21.6469 3.55317C21.3353 3.36206 20.7919 3.48004 20.394 3.622C19.1398 4.06944 18.9206 5.44383 18.7383 6.13212C18.5885 6.69803 19.454 4.81146 19.4917 3.03857C19.5117 2.09497 19.0626 1.54638 18.4899 0.954875C18.1012 0.55338 17.5935 0.576314 17.0735 0.504797C16.595 0.438986 16.2664 1.11189 15.9615 1.50712C15.6115 1.96078 14.5478 1.58079 13.4912 1.3657C12.8773 1.24074 12.4302 1.40011 12.2157 1.56089C12.0011 1.75716 11.856 1.97333 11.8022 2.18788C11.7839 2.29597 11.7839 2.40244 11.6764 2.72723" stroke="#0012D4" stroke-linecap="round"/>
<path d="M11.2462 42.4116C11.2816 41.4813 11.9215 39.8434 12.5706 38.7394C13.0273 37.9625 13.7885 37.7527 14.5053 37.5903C15.3476 37.3995 16.1524 37.4645 16.9778 37.5537C19.0812 37.7812 20.2789 37.1784 20.4935 37.0176C20.6059 36.9333 20.708 36.8213 20.6741 37.2279C20.5624 38.5692 19.7831 40.2531 18.1785 41.542C17.2165 42.3148 15.3673 42.4051 14.2945 42.5696C13.2218 42.7342 12.8314 42.7342 12.577 42.7164C12.3227 42.6987 12.2162 42.6632 11.8914 42.5191" stroke="#0012D4" stroke-linecap="round"/>
<path d="M11.1386 42.5191C9.77923 41.5899 9.06083 40.7295 8.59569 40.1558C7.7767 39.1455 7.26912 38.7206 6.55394 38.3802C5.09129 37.6841 3.69215 37.2881 1.85958 37.1241C1.13528 37.0592 0.815309 36.9988 0.653991 37.016C0.173568 37.0672 0.885214 38.142 1.8499 39.8417C2.5172 41.0175 3.39318 42.0867 3.96639 42.5175C4.32403 42.7862 5.0397 42.9482 6.25335 43.1095C9.62759 43.0579 10.9923 42.6997 11.4774 42.5019C11.6032 42.4481 11.7452 42.3771 11.999 42.0889" stroke="#0012D4" stroke-linecap="round"/>
</svg>
