<svg width="31" height="48" viewBox="0 0 31 48" fill="none" xmlns="http://www.w3.org/2000/svg">
<path d="M15.8136 12.4218C15.1549 12.3221 13.6909 12.3879 13.1412 12.6036C12.4996 12.8555 11.7296 13.6476 11.3633 14.1972C11.0501 14.6673 10.8645 15.4414 10.8471 17.2483C10.8374 18.255 11.4605 19.097 11.8257 19.4796C12.151 19.8204 12.8198 19.8623 13.3535 20.0283C13.6783 20.1293 14.2809 20.3935 15.1265 20.543C16.5021 20.7862 17.5058 19.5992 17.9877 19.2001C18.4503 18.8169 18.9669 18.2718 19.3505 17.5413C19.9697 16.3624 19.3017 15.7464 19.0207 15.0652C18.811 14.557 18.3071 14.1518 16.1545 12.4945C15.6821 12.1567 15.5505 12.0909 15.417 12.0734C15.2834 12.056 15.1519 12.0889 15.0163 12.1228" stroke="#0012D4" stroke-linecap="round"/>
<path d="M13.4218 12.3221C13.356 12.3221 13.1906 12.2563 12.9419 12.0909C12.3742 11.7132 12.4252 9.41602 12.5079 8.12194C12.5473 7.50579 12.6245 6.97635 12.7401 6.19652C12.9145 5.02032 13.4537 3.98856 13.9515 3.04029C14.3558 2.27009 15.9711 1.19809 18.048 0.630026C19.6085 0.2032 20.8544 0.925018 21.6587 1.35804C22.0815 1.58571 22.0583 2.35214 22.2741 2.93565C22.435 3.37084 22.5227 4.24368 22.574 7.74124C22.5921 8.97248 22.1599 10.0259 21.993 10.6922C21.8625 11.213 21.5281 11.7221 21.1145 12.2862C20.2664 13.1184 19.802 13.3845 19.3201 13.6002C19.203 13.6506 19.1044 13.6834 18.9031 13.7173" stroke="#0012D4" stroke-linecap="round"/>
<path d="M10.9303 17.3051C10.5336 17.3051 9.47526 17.4366 8.74027 17.62C7.84366 17.8437 7.4442 18.0346 6.84674 18.3171C5.74792 18.8367 4.81916 20.1932 4.63579 20.6088C4.31404 21.338 4.15344 23.0096 4.45092 24.2115C4.63959 24.9737 5.90745 25.6386 7.30418 26.124C8.46975 26.529 9.53107 25.513 10.131 25.0965C10.6911 24.7075 11.3588 24.052 11.8093 23.5024C12.1921 23.0353 12.4571 22.3897 12.6733 21.9084C13.056 21.0931 13.1557 20.7942 13.222 20.5953C13.2554 20.4952 13.2882 20.3965 13.3221 20.3945" stroke="#0012D4" stroke-linecap="round"/>
<path d="M13.8204 20.0955C13.655 20.1942 13.3241 21.1181 13.2389 23.5253C13.2109 24.317 13.7168 26.4219 14.0192 28.0982C14.1298 28.7108 14.4503 29.1626 14.8982 29.6116C15.2714 29.9856 16.1086 30.0276 16.9567 30.0286C17.5729 30.0294 18.5303 29.4337 19.4148 29.05C20.7057 28.49 21.1594 27.6398 21.6587 26.8918C22.0485 26.3079 22.0583 25.5808 22.0593 23.2109C22.0597 22.1312 21.562 21.6263 21.263 21.1604C20.8394 20.5003 20.3342 19.9979 19.8184 19.5325C19.6027 19.366 19.4024 19.1996 19.2035 19.0337C19.1034 18.9664 19.0047 18.9335 18.8034 18.8" stroke="#0012D4" stroke-linecap="round"/>
<path d="M18.8034 14.2156C18.8682 14.0512 19.5967 13.4542 20.6765 12.8887C21.2714 12.5771 22.0224 12.356 22.8202 12.2229C23.3867 12.1284 23.9837 12.057 25.2927 12.0396C25.9542 12.0307 26.4752 12.2882 26.9735 12.5369C27.5024 12.8008 27.9362 13.1174 28.6503 13.6321C29.3382 14.128 29.5647 14.7119 29.749 15.2755C30.1628 16.5404 29.4351 17.2034 28.9044 18.0989C28.554 18.6901 27.8764 19.2943 26.1025 20.2749C24.9161 20.9308 24.1212 20.6596 22.7783 20.6771C22.1492 20.6852 21.6955 20.3626 21.2137 20.1957C20.7614 20.039 20.3003 19.7647 19.8847 19.4986C19.4024 19.1996 19.0705 18.9664 18.8218 18.933C18.7047 18.9325 18.6061 18.9654 18.4048 19.1986" stroke="#0012D4" stroke-linecap="round"/>
<path d="M12.8238 12.6211C12.7242 11.9294 12.5268 10.5302 12.0784 9.99902C11.4783 9.28831 10.8665 9.03532 10.2681 8.81806C9.78523 8.64278 9.27196 8.40347 8.82249 8.23654C8.29374 8.04017 7.74318 7.97095 6.02056 7.95351C5.30798 7.9463 4.78727 8.20216 3.60979 8.68252C3.02075 8.92282 2.52898 9.46186 2.01225 10.3424C1.71321 10.8519 1.66194 11.4889 1.57923 12.1033C1.4483 13.0758 2.12237 14.1419 2.83893 15.1594C3.3536 15.8902 3.98601 16.4061 4.35126 16.7226C4.76894 17.0844 5.21381 17.4366 5.746 17.769C5.87954 17.8363 6.01109 17.8691 6.19397 17.9025C6.37684 17.9359 6.60706 17.9688 7.04357 18.1024" stroke="#0012D4" stroke-linecap="round"/>
<path d="M12.6245 22.587C12.6245 22.7176 12.5587 23.4481 12.4421 25.0681C12.2718 27.4344 12.491 29.2612 12.6071 29.8084C12.7659 30.557 12.8896 31.1538 13.0062 32.397C13.1248 33.6618 13.056 34.611 13.1059 35.2383C13.2772 37.3952 13.2225 38.5904 13.3052 39.8232C13.4211 41.5511 13.4218 42.216 13.5045 42.9316C13.5214 43.3123 13.5543 43.68 13.6042 44.4554C13.6211 45.0663 13.6211 46.1187 13.6211 46.904" stroke="#0012D4" stroke-linecap="round"/>
<path d="M13.8204 43.9142C13.7875 43.8823 13.8523 42.8259 14.4159 41.3614C14.9658 39.9323 15.6462 38.9332 17.0868 37.4752C17.6952 36.8594 18.2692 36.5075 19.8259 35.4646C20.3181 35.1348 20.8524 34.8512 21.8141 34.5178C24.1233 33.7174 25.7447 33.4171 26.0432 33.3508C26.5162 33.2458 27.0393 33.0852 27.5221 33.1171C28.652 33.1917 27.6073 36.0391 27.3751 36.5867C27.0406 37.3758 26.7124 37.9984 26.0482 38.8281C25.3702 39.675 24.9843 40.0255 23.2951 41.1691C22.176 41.9267 21.0657 42.517 20.4333 42.8832C20.0207 43.1222 19.6027 43.2824 19.0381 43.4154C18.5665 43.5265 17.9762 43.681 15.5241 43.7313C14.6488 43.7493 14.0556 43.8803 13.7048 43.9476C13.2898 44.0272 14.3825 43.1189 14.7328 42.7362C15.2242 42.1994 16.2741 41.3928 17.156 40.7769C17.6905 40.4037 18.5642 39.7664 19.3984 39.2486C19.6306 39.0996 19.9595 38.8694 20.1782 38.718C20.397 38.5665 20.4956 38.5007 20.6969 38.3333" stroke="#0012D4" stroke-linecap="round"/>
<path d="M13.5214 42.3196L13.4218 42.4193" stroke="#0012D4" stroke-linecap="round"/>
<path d="M13.1228 42.6186C12.9574 42.2559 12.7581 41.1955 12.5592 40.3798C12.1581 38.7341 11.1974 37.7712 10.9313 37.3053C10.563 36.6605 9.54303 35.4511 7.56678 34.2841C6.43562 33.6161 5.41812 33.5835 4.70754 33.4345C2.58832 32.9901 1.37094 32.9536 0.633457 32.6696C0.276707 32.5322 0.731124 33.5795 0.880613 34.178C1.1582 35.2892 1.19554 36.4318 1.34553 37.4986C1.5718 39.1081 2.35757 39.6268 2.69043 40.1251C3.27728 41.0037 4.55008 41.62 4.94922 41.9365C5.34836 42.2529 5.94332 42.6485 6.75804 43.0492C7.78535 43.5543 8.86734 43.7807 10.5252 43.7981C11.5416 43.8088 12.3893 43.3501 12.8223 43.085C12.9428 43.0113 13.0212 42.8538 13.0555 42.7367C13.1815 42.3076 12.2956 41.6599 11.746 40.9762C11.3193 40.4454 10.6672 39.7644 10.2177 39.2486C10.1011 39.1315 9.96957 39.0329 9.83603 38.9656C9.70249 38.8983 9.57094 38.8654 9.23608 38.7319" stroke="#0012D4" stroke-linecap="round"/>
</svg>
