<svg width="33" height="41" viewBox="0 0 33 41" fill="none" xmlns="http://www.w3.org/2000/svg">
<path d="M7.90411 24.028C9.31898 24.028 10.766 24.0741 11.2792 24.1094C11.4194 24.1191 11.5807 24.144 12.9666 24.1559C14.3525 24.1678 16.9579 24.1678 18.3578 24.1562C19.8733 24.1438 20.2223 24.0979 20.733 24.0748C22.0184 24.0168 22.9933 23.912 23.437 23.8768C24.0659 23.8267 24.6716 23.7723 25.276 23.7831C25.5958 23.7889 25.7902 24.0734 25.9181 24.3288C26.168 24.8279 26.1165 25.1907 26.1288 26.1322C26.1323 26.4044 26.0474 26.5427 25.8856 26.7282C25.1873 27.529 24.0246 27.4279 23.3367 27.5907C22.8219 27.7126 22.3456 27.7312 21.7552 27.7888C19.7487 27.9847 19.0638 28.1266 18.5146 28.1619C18.246 28.1792 16.9523 28.2203 15.1018 28.2318C14.196 28.2374 13.4525 28.2901 12.5683 28.3016C11.6314 28.3139 10.8876 28.4061 9.30781 28.4068C8.59391 28.4071 8.2325 28.244 7.78917 28.1857C7.38482 28.1325 7.09082 27.6166 6.92627 27.139C6.76182 26.6617 6.9944 25.5708 7.20471 25.0191C7.3682 24.7274 7.48419 24.4948 7.62358 24.3435C7.6938 24.2844 7.76297 24.2614 7.90411 24.1678" stroke="#0012D4" stroke-linecap="round"/>
<path d="M8.39325 28.4998C8.64898 29.3836 8.83483 30.3094 8.89387 30.9438C8.92886 31.3199 9.04444 32.3804 9.11501 33.4459C9.16446 34.1925 9.30157 34.6931 9.47554 35.3677C9.59328 35.8242 9.58105 36.6215 9.65057 37.2437C9.71322 37.8044 10.0226 38.3962 10.1973 38.8154C10.3479 39.1768 10.6976 39.3989 10.9648 39.5152C11.1978 39.6166 11.397 39.6322 11.986 39.6672C13.4717 39.7553 14.5873 39.7021 15.2 39.737C16.5715 39.8152 17.6378 39.7259 17.9515 39.6909C18.2406 39.6587 18.8228 39.6099 19.9131 39.5051C21.412 39.361 22.528 39.4233 22.935 39.3304C23.5644 39.1867 24.1127 38.958 24.3695 38.6904C24.6229 38.4263 24.7415 37.7506 24.8243 37.235C24.8878 36.8396 24.9288 36.4203 24.9641 36.0357C24.9845 35.8134 25.0224 34.6819 25.0339 33.1102C25.0385 32.4829 25.0923 32.1358 25.1153 31.5783C25.1732 30.1786 25.1859 28.9204 25.1391 28.2C25.0699 27.8737 24.9763 27.662 24.8603 27.5457C24.7904 27.4985 24.6982 27.4755 24.5333 27.4517" stroke="#0012D4" stroke-linecap="round"/>
<path d="M17.8257 23.9582C17.8257 23.9121 17.8257 23.7961 18.0217 22.7456C18.2011 21.7841 18.6097 19.9658 18.8923 18.8545C19.2678 17.3782 19.7793 16.6721 20.2792 16.0324C20.8501 15.302 21.2941 14.9938 21.7947 14.5854C22.2686 14.1988 22.7139 13.7599 23.1925 13.4088C23.6236 13.129 24.4578 12.5735 24.9511 12.1166C25.0671 12.0117 25.2516 11.8734 25.5115 11.5911" stroke="#0012D4" stroke-linecap="round"/>
<path d="M15.6597 23.4691C15.0777 22.3058 14.9387 21.795 14.6941 20.5974C14.6096 20.1833 14.196 19.469 13.5797 18.3996C12.8137 17.0705 12.6805 16.4625 12.5044 16.0059C12.1537 15.0966 11.9566 13.4329 11.8986 12.8753C11.761 11.5524 11.8169 11.035 11.7589 10.5913C11.747 10.3363 11.7239 10.0554 11.689 9.32697C11.6771 8.73692 11.6771 7.69934 11.6771 6.7002" stroke="#0012D4" stroke-linecap="round"/>
<path d="M25.7211 11.1719C25.6512 10.9169 25.6051 10.3139 25.7319 9.52122C25.8546 8.75425 26.4883 8.21639 27.0811 7.52956C27.5417 6.99598 28.4432 7.09707 28.8523 6.91051C29.0139 6.83685 29.2132 6.72396 29.492 6.66562C30.1303 6.53203 30.7266 7.39611 30.9722 7.81673C31.2434 8.2813 31.6824 8.70129 31.9385 9.01641C32.2671 9.42082 32.2889 10.0288 32.2543 10.3544C32.1874 10.9846 31.1263 11.1482 30.3007 11.1834C29.8939 11.2008 29.5891 11.5897 29.1115 12.032C28.7666 12.3514 28.1456 12.3597 27.7487 12.2787C27.2603 11.9426 26.6776 11.406 26.3754 11.1852C26.2346 11.0797 26.1193 10.9875 25.9307 10.8924" stroke="#0012D4" stroke-linecap="round"/>
<path d="M18.8738 19.0672C18.9199 18.9051 19.198 18.4873 19.6983 17.9863C20.3922 17.2914 21.037 17.0661 21.5736 16.8321C21.9475 16.6689 22.2262 16.6218 22.587 16.5522C22.8083 16.5096 23.0185 16.459 23.1698 16.4586C23.5331 16.4578 23.3217 17.3652 23.7396 17.9587C24.0637 18.4192 24.9483 18.3685 25.6837 18.2525C26.1568 18.1779 26.5344 18.3909 26.8725 18.5079C27.6403 18.7736 28.9309 17.6265 29.1912 17.1241C29.3863 16.7476 28.7045 16.2053 28.4467 15.8081C28.0716 15.2301 28.2602 14.4348 27.8423 13.9335C27.6675 13.7237 27.3994 13.6411 27.0975 13.5712C26.4611 13.4239 25.1957 14.0324 24.3604 14.5008C23.7058 14.868 23.6026 15.4549 23.4971 15.8748C23.4852 15.9915 23.4852 16.1299 23.4737 16.2357C23.4622 16.3416 23.4391 16.4108 23.4154 16.6218" stroke="#0012D4" stroke-linecap="round"/>
<path d="M11.5374 6.77004C11.1908 6.70017 10.3524 6.74629 9.87376 6.89756C9.39036 7.05034 8.76771 6.93354 8.32508 6.67816C7.80989 6.38093 7.55615 6.09509 6.81238 5.54975C6.06408 5.00109 6.01761 3.12141 6.17971 2.38148C6.28049 1.92145 6.90077 2.01885 7.25047 1.78723C7.82428 1.40718 8.92142 1.64435 9.64877 1.57797C10.27 1.52127 10.3489 0.71507 10.4998 0.633671C10.8898 0.423347 11.6268 0.481703 12.0139 0.66686C12.5637 0.929857 12.7685 1.73797 13.2013 2.0178C13.5413 2.23761 13.5636 3.47635 13.4361 4.38082C12.962 5.36634 12.074 6.67642 11.842 6.74629C11.7023 6.77004 11.5178 6.77004 11.3278 6.77004" stroke="#0012D4" stroke-linecap="round"/>
<path d="M14.4021 20.6044C13.3331 19.0001 12.6805 18.3 12.3538 17.9392C11.939 17.4809 11.5388 17.1821 10.6095 16.6123C10.0068 16.2427 9.44269 15.9706 8.78032 15.6795C7.99185 15.3331 7.02098 15.0622 6.48543 14.8757C6.36578 14.834 6.29852 14.7828 6.26289 14.6668C6.08495 14.0876 6.29713 13.0891 6.16996 12.3272C6.00088 11.3141 4.83683 10.5724 4.14442 10.055C3.55285 9.61295 2.17896 9.61375 1.52463 9.50649C0.952436 9.41271 0.544693 10.4026 0.509758 10.5881C0.488116 10.703 0.49788 10.8658 0.57858 10.9836C0.65928 11.1013 0.820681 11.1705 0.903827 11.2407C0.986973 11.3109 0.986973 11.3801 0.975444 11.4618C0.904622 11.964 0.521636 12.5902 0.647752 13.392C0.895569 14.9674 2.28656 15.0371 2.87138 15.3739C3.34624 15.6473 3.59454 16.039 3.87262 16.1089C4.32181 16.2218 4.73552 16.0865 4.93325 15.9821C5.1785 15.7141 5.38811 15.4353 5.49292 15.1912C5.52855 15.0853 5.52855 15.0161 5.66829 14.8051" stroke="#0012D4" stroke-linecap="round"/>
</svg>
