<svg width="32" height="48" viewBox="0 0 32 48" fill="none" xmlns="http://www.w3.org/2000/svg">
<path d="M7.38315 46.8817C7.38315 46.0792 7.46279 44.9581 7.52374 42.6267C7.56078 41.2092 8.02273 38.5768 8.44811 36.7485C8.68164 35.7448 8.9109 34.6186 9.41171 33.2725C9.96653 31.7811 10.5183 30.3141 10.9202 29.4103C11.0904 29.0273 11.1627 28.7852 11.8011 27.4475C12.4395 26.1098 13.6341 23.6806 14.2894 22.3097C15.0526 20.7131 15.2657 20.2148 15.5867 19.6935C16.5507 18.1277 17.7588 16.4352 18.3622 15.6496C18.6477 15.2779 19.6836 13.9891 21.0901 12.0999C21.939 11.0869 22.3855 10.6005 22.7065 10.2192C22.8682 10.037 23.0275 9.8777 23.3123 9.47223" stroke="#0012D4" stroke-linecap="round"/>
<path d="M7.26245 46.6404C7.26245 46.5607 7.26245 46.4811 7.18281 44.3095C7.10316 42.138 6.94387 37.8769 6.8419 35.5623C6.73993 33.2478 6.7001 33.0088 6.67959 31.9499C6.65907 30.891 6.65907 29.0193 6.61925 27.8162C6.5635 26.1318 6.41772 25.364 6.35799 24.7027C6.27892 23.8274 5.85658 22.2349 5.41551 20.0676C4.73519 16.7246 3.88595 15.9912 3.5028 15.3878C3.40204 15.2261 3.28257 15.0668 3.16129 14.9449C3.04001 14.823 2.92054 14.7434 2.79745 14.5406" stroke="#0012D4" stroke-linecap="round"/>
<path d="M20.7781 12.1271C21.0183 11.607 21.4201 10.4835 21.7025 8.89485C21.8553 8.03511 22.0235 7.46424 23.8252 5.0996C25.3858 3.05137 27.1691 1.95298 28.0524 1.47089C29.2897 0.79561 30.0677 0.583316 30.6313 0.50186C30.758 0.483544 30.8328 0.660549 30.8738 0.821651C31.0428 1.4853 30.4756 2.46586 29.8915 4.15592C29.3637 5.68319 28.8658 6.25024 28.3831 7.17522C27.9575 7.99081 27.1377 8.78443 26.375 9.50728C24.8974 10.9077 23.3147 11.8834 22.7312 12.2267C22.5894 12.2876 22.47 12.3275 22.1894 12.348C21.9088 12.3685 21.4708 12.3685 21.1401 12.3685" stroke="#0012D4" stroke-linecap="round"/>
<path d="M16.0718 19.3677C16.1913 19.1275 16.7524 18.646 17.6563 18.1827C19.1041 17.4404 20.6889 17.5189 23.1428 17.4568C24.355 17.5576 25.5195 17.7168 26.3636 17.9781C26.6901 18.0801 26.8095 18.1199 27.0533 18.1609" stroke="#0012D4" stroke-linecap="round"/>
<path d="M18.7267 17.9195C19.8489 16.3133 21.5336 15.3491 22.5641 14.8839C24.2974 14.1015 25.4821 14.6203 26.2659 14.9817C26.9846 15.3131 27.7749 15.9863 28.298 16.4093C28.9983 16.9754 29.544 17.3137 30.1884 17.6571C30.4854 17.8153 30.793 17.8387 30.9143 17.9986C31.4591 18.7168 29.5513 19.8045 28.8857 20.4519C28.423 20.9021 27.8208 21.0957 26.3956 21.4982C24.6674 21.9862 22.5135 21.5012 21.1649 20.8984C20.384 20.5494 19.8948 19.6114 19.5726 19.1082C19.4121 18.8077 19.2902 18.5241 19.2299 18.2236C19.2094 18.0426 19.2094 17.8037 19.2094 17.5575" stroke="#0012D4" stroke-linecap="round"/>
<path d="M15.8304 18.885C16.0694 17.2124 16.1925 15.634 16.073 14.1098C15.3888 11.3645 15.1474 10.9216 14.9869 10.6211C14.9061 10.4401 14.8264 10.2012 14.7444 9.59296" stroke="#0012D4" stroke-linecap="round"/>
<path d="M15.5891 18.1609C17.398 15.3878 17.7202 14.5044 18.0213 13.5601C18.6837 11.4825 18.285 10.2808 17.5639 8.59432C16.9124 7.07042 15.6349 6.50361 15.1076 5.63294C14.6881 4.94037 14.3027 4.04424 14.1422 3.74195C13.7036 2.91586 12.9752 6.04987 12.6741 7.09311C12.3256 8.30079 12.3308 9.82702 12.3706 11.1719C12.4398 13.5061 13.9358 15.1392 14.5808 16.1257C15.4672 17.0338 15.869 17.4344 16.1303 17.8562C16.2323 18.039 16.2721 18.1585 16.3131 18.2816" stroke="#0012D4" stroke-linecap="round"/>
<path d="M5.69367 22.2638C5.13253 21.9827 4.01145 21.5832 3.26206 21.179C2.65728 20.8527 2.19649 20.2558 1.75301 19.1709C1.36681 18.2262 1.51105 17.2799 1.4302 15.3727C1.37675 14.1118 0.987322 13.0153 0.887161 12.331C0.746581 11.3707 0.545649 10.5209 0.50462 10.1981C0.367524 9.11948 3.31153 11.8013 5.38474 13.2277C6.77405 14.1835 7.21901 16.819 7.40304 18.1379C7.52325 18.9995 7.58345 20.1279 7.60457 21.1138C7.38434 21.8596 7.02231 22.3435 6.78156 22.4841C6.66028 22.545 6.54081 22.5848 6.41773 22.5052" stroke="#0012D4" stroke-linecap="round"/>
</svg>
