<svg width="26" height="44" viewBox="0 0 26 44" fill="none" xmlns="http://www.w3.org/2000/svg">
<path d="M11.5292 43.0448C11.5292 41.9103 11.6846 40.2699 11.784 37.1526C11.8424 35.3211 11.9599 33.8306 12.0193 33.0063C12.0561 32.4965 12.1176 30.6651 12.137 28.195C12.1495 26.6081 12.313 25.8286 12.3724 22.6795C12.4048 20.9636 12.5483 19.5516 12.686 18.4155C12.8522 17.044 13.1767 15.2376 13.4697 13.6513C13.539 13.2763 13.5297 13.0417 13.4715 12.8829C13.2092 12.1675 12.2376 11.5496 11.6104 9.82972C11.0175 8.20399 10.9408 6.53181 10.9603 5.41564C10.9869 3.88563 11.4892 2.80379 12.1341 1.37284C12.2985 1.00798 12.5836 0.803279 12.8007 0.663831C13.0178 0.524383 13.212 0.48555 13.4285 0.504378C13.8866 0.544208 14.2735 0.875062 14.5671 1.26634C15.3189 2.26832 15.4902 4.12649 15.4914 6.82895C15.492 8.22981 15.1772 9.07129 14.9242 10.304C14.7489 10.8706 14.4382 11.7638 14.2393 12.2821C14.0405 12.8005 13.9628 12.917 14.0004 13.037" stroke="#0012D4" stroke-linecap="round"/>
<path d="M11.9999 37.3962C12.6989 35.9982 13.3697 34.9285 14.287 34.0106C14.8746 33.4226 15.7868 32.6656 16.7712 32.0907C18.6996 30.9646 20.3503 30.8063 21.2117 30.7868C22.397 30.7601 23.0969 30.7663 24.0189 30.9039C24.2728 30.9419 24.5467 30.9239 24.6285 31.1375C25.0783 32.3122 24.1607 32.9221 23.6329 33.7253C23.0681 34.5848 22.0472 35.2333 19.2283 36.9196C18.4369 37.3162 17.7708 37.4739 16.3075 37.5915C15.3102 37.6316 13.7957 37.6316 12.2353 37.6316" stroke="#0012D4" stroke-linecap="round"/>
<path d="M11.5292 37.3962C10.6278 35.0839 9.69343 34.0683 8.1801 32.6156C7.30735 31.7778 5.03341 29.8366 3.86252 29.14C3.26457 28.7842 2.5104 28.8058 1.80493 28.7081C1.49481 28.6652 0.987659 28.6881 0.727592 28.7658C0.467525 28.8434 0.467525 28.9988 0.545192 29.37C0.918028 31.1523 1.52427 31.823 1.99557 32.3537C2.66819 33.1112 3.60245 33.9036 4.23026 34.4125C5.4735 35.4204 6.46672 35.8264 7.50346 36.3348C9.05562 36.8855 9.83935 37.1209 10.6043 37.2974C10.8208 37.3562 11.0538 37.4339 11.5292 37.5139" stroke="#0012D4" stroke-linecap="round"/>
<path d="M12.353 28.5704C12.626 27.4348 13.1744 26.6523 14.1728 25.3784C14.9118 24.4357 15.6832 23.788 16.6241 23.1408C18.1695 22.0776 19.4819 21.5145 21.6612 20.8837C23.0101 20.4933 23.6465 20.686 24.176 20.8996C24.7933 21.1486 24.3172 22.1746 24.2001 22.5659C23.9625 23.36 23.144 24.054 21.2853 25.5638C19.5549 26.9693 18.5546 27.0383 16.5187 27.9591C15.6491 28.295 15.1019 28.5304 13.3209 28.5898C12.9425 28.6092 12.826 28.6481 12.5883 28.8058" stroke="#0012D4" stroke-linecap="round"/>
<path d="M11.7646 28.9234C11.7646 28.415 11.5316 27.09 9.94882 24.5988C8.94034 23.0114 7.33638 22.4535 6.53382 22.0422C5.2568 21.3878 4.27559 20.9237 3.76428 20.5889C3.65355 20.5164 3.52952 20.4907 3.4695 20.5677C3.29883 20.7869 3.33182 21.3497 3.21414 21.9952C3.0912 22.6695 3.87314 23.9327 5.32057 25.519C7.36904 27.764 8.50492 27.7443 9.62109 28.1956C10.0712 28.3715 10.7314 28.6433 11.1491 28.8028C11.5669 28.9622 11.7222 29.0011 11.9999 29.1588" stroke="#0012D4" stroke-linecap="round"/>
<path d="M12.4706 20.5684C13.092 19.0927 13.6839 17.9053 14.4647 16.8698C15.5866 15.3818 16.8212 14.4127 17.4284 13.962C18.2034 13.3867 20.6492 12.338 22.2155 11.8414C22.5586 11.7326 22.9804 11.5472 23.4505 11.5072C23.6516 11.4901 23.7653 11.7002 23.8253 11.8773C24.0711 12.6026 23.457 13.736 22.3026 15.6959C21.4667 17.115 20.3962 17.7818 19.9273 18.1919C18.5973 19.3549 17.3401 19.9776 16.4746 20.2342C15.5726 20.5284 14.5535 20.686 13.8469 20.7837C13.5733 20.8037 13.1461 20.8037 12.706 20.686" stroke="#0012D4" stroke-linecap="round"/>
<path d="M12.3529 20.4507C11.2562 18.2948 10.6301 17.5135 7.83354 15.3205C6.58321 14.3401 4.95104 13.2418 3.96019 12.8011C3.30758 12.5108 3.76249 15.0658 3.899 16.6215C4.01393 17.9313 5.5206 19.5022 7.54053 20.7802C8.48695 21.379 9.4063 21.6651 11.0126 21.6869C11.4468 21.6286 11.8352 21.5121 12.0935 21.4327C12.3518 21.3533 12.4683 21.3144 12.706 21.1568" stroke="#0012D4" stroke-linecap="round"/>
</svg>
