<svg width="27" height="45" viewBox="0 0 27 45" fill="none" xmlns="http://www.w3.org/2000/svg">
<path d="M14.1628 43.7344C14.1628 43.6445 14.2526 43.239 14.3887 41.7963C14.4906 40.7167 14.435 38.9164 14.1431 36.8006C13.8511 34.6849 13.2673 32.3045 12.9216 30.9659C12.5158 29.3948 12.2138 28.2282 11.8967 26.6869C11.7247 25.8508 11.532 24.8243 11.4414 23.4871C11.3902 22.7301 11.3047 21.3347 11.2148 19.1836C11.1411 17.4176 10.5806 16.2009 10.2186 15.1161C9.40473 12.6777 9.4455 11.8891 9.1522 11.0739C8.79134 10.0708 7.76736 9.30592 7.56321 8.26474C7.37967 7.32868 7.80819 4.87443 8.35192 1.79035C8.54835 0.676175 8.716 0.502824 8.87524 0.500102C9.66478 0.486606 9.76126 1.80941 10.1233 3.43923C10.8316 6.62781 10.3547 8.56008 10.058 9.70675C9.97928 10.0108 9.76262 10.2518 9.71703 10.3662C9.98719 9.75642 11.4299 8.22255 12.3914 7.41887C12.5282 7.35013 12.663 7.30522 13.074 7.12284" stroke="#0012D4" stroke-linecap="round"/>
<path d="M9.80758 10.1171C9.80758 10.162 9.80758 10.207 9.76267 10.3199C9.71775 10.4329 9.62793 10.6125 9.49182 10.7949C9.35572 10.9773 9.17607 11.1569 8.99097 11.4782" stroke="#0012D4" stroke-linecap="round"/>
<path d="M8.99096 11.0698C8.54183 10.8003 8.1308 10.5717 7.43191 10.3233C6.91268 10.1647 6.05932 9.94017 5.55234 9.82448C5.04536 9.7088 4.91061 9.7088 5.044 9.57269" stroke="#0012D4" stroke-linecap="round"/>
<path d="M14.299 43.4622C14.2091 43.5071 14.1193 43.552 14.0955 43.4179C13.8663 42.1277 15.6083 40.2502 16.4514 39.2457C17.0272 38.5598 17.5164 37.705 18.74 36.1644C19.827 34.7956 20.5569 33.8942 20.9217 33.0769C21.6446 31.457 21.9588 28.5998 22.7128 26.9972C23.1923 25.9781 23.9146 25.2258 24.3222 25.0217C24.4973 24.934 24.64 24.9523 24.7993 25.0645C25.5672 25.606 25.5492 26.806 25.5281 27.7165C24.8728 28.8951 23.5158 30.4345 22.3147 31.7029C21.8322 32.2528 21.6077 32.6121 21.5124 32.7101" stroke="#0012D4" stroke-linecap="round"/>
<path d="M14.0267 43.19C14.0267 42.6047 13.6674 41.2437 13.0761 40.5836C12.5283 39.9722 11.0896 39.1586 9.96884 38.6768C9.3436 38.408 8.00284 37.931 7.04264 37.7009C6.21767 37.5033 5.50128 37.3838 2.49274 37.36C1.8248 37.3547 1.60059 37.4274 1.46244 37.5179C1.3243 37.6084 1.27938 37.7431 1.23379 37.8799C1.1882 38.0167 1.14328 38.1514 1.25489 38.3331C2.12538 39.7504 5.30529 39.6513 6.46965 39.7643C7.49246 39.6976 7.90076 39.4703 8.23966 39.3349C8.44381 39.2443 8.71329 39.1096 9.12705 39.1069" stroke="#0012D4" stroke-linecap="round"/>
<path d="M9.80754 38.4264C9.76262 38.4264 9.71771 38.4264 9.42509 38.7632C9.13247 39.1001 8.59351 39.7738 8.03821 40.4679" stroke="#0012D4" stroke-linecap="round"/>
<path d="M9.12704 38.8347C8.90248 38.1161 8.67791 37.3975 8.56222 36.9599C8.44653 36.5223 8.44653 36.3876 8.44653 36.2488" stroke="#0012D4" stroke-linecap="round"/>
<path d="M21.9207 32.8462C21.7859 32.936 21.6512 33.0258 21.6941 33.0047C21.9615 32.8489 22.5073 32.6202 23.0735 32.4841C23.3253 32.4379 23.5049 32.4379 23.69 32.4379" stroke="#0012D4" stroke-linecap="round"/>
<path d="M21.3762 33.1184C21.2415 32.7591 21.1068 32.3998 20.9924 32.0799C20.8781 31.7601 20.7883 31.4906 20.5596 30.9407" stroke="#0012D4" stroke-linecap="round"/>
<path d="M13.4823 32.3018C13.5259 31.6253 14.7889 29.1878 15.7702 27.7689C16.9913 26.0033 18.1071 25.0012 18.4718 24.1179C19.2617 22.2052 18.6542 21.3265 18.9026 20.5772C19.2057 19.663 19.7838 18.4711 20.6474 17.5599C20.8052 17.3934 20.9652 17.3768 21.0795 17.4435C21.3559 17.6047 21.3762 18.369 21.3538 19.2074C21.3249 20.2849 20.38 21.2285 19.4742 22.4976C18.9654 23.2105 18.6556 23.8621 18.5637 23.9764C19.2422 23.5014 19.9662 22.9597 20.6474 22.4589C20.874 22.3228 21.1884 22.1431 21.7845 21.958" stroke="#0012D4" stroke-linecap="round"/>
<path d="M18.2459 24.544C18.201 24.1397 18.156 23.7355 18.1329 23.4599C18.1098 23.1843 18.1098 23.0496 17.9975 22.8679C17.8852 22.6862 17.6606 22.4616 17.4293 22.0941" stroke="#0012D4" stroke-linecap="round"/>
<path d="M11.5769 23.319C12.075 21.9145 12.7066 20.9209 14.316 19.4905C15.0411 18.846 15.0693 17.9239 15.3415 17.1522C15.7213 16.0754 15.7498 14.6602 16.0669 13.5693C16.4333 12.3091 16.6562 11.6632 17.1775 11.2073C17.3156 11.0865 17.5164 11.0263 17.6763 11.0474C17.8363 11.0685 17.971 11.2032 18.0404 11.6544C18.4224 14.1374 16.6617 15.7817 16.0928 16.3989C15.9835 16.5174 15.8886 16.6473 15.6627 16.4472C15.4368 16.2472 15.0775 15.7082 14.9373 15.4979C14.8173 15.3179 15.385 16.3288 15.7042 16.8528C15.9295 16.9222 16.2929 16.7875 16.7454 16.5833C16.9734 16.5139 17.1979 16.5139 17.4293 16.5139" stroke="#0012D4" stroke-linecap="round"/>
<path d="M12.3935 28.0826C11.9443 27.4525 10.0443 26.0003 7.05213 25.2041C6.2935 25.0022 5.60196 25.0884 5.23244 24.9985C4.75209 24.8818 4.77174 24.005 4.32056 22.3051C3.933 20.8449 2.9153 20.4636 1.98572 19.9185C1.37435 19.56 0.82613 19.5082 0.621977 19.5755C-0.000648245 19.781 1.9027 22.3963 3.11265 23.7471C3.89143 24.6165 4.27088 25.494 4.72478 25.7913C5.29283 26.1635 5.08749 24.1384 6.03817 23.1863C6.24611 22.9781 6.40224 22.957 6.38183 23.0462C6.17671 23.9418 5.27259 24.4051 5.02285 25.5606C4.55125 25.7689 4.04767 25.8587 3.75301 26.0622C3.638 26.1758 3.59309 26.3106 3.68292 26.7216" stroke="#0012D4" stroke-linecap="round"/>
<path d="M14.1628 41.2845C14.1628 40.3849 13.8035 36.9483 13.1672 34.7802C12.7111 33.2259 11.0842 32.5331 9.85859 32.0085C7.74207 31.1024 6.31788 31.7111 5.34271 31.8023C3.94945 31.9326 2.05516 31.7601 1.37124 31.4409C1.05155 31.2917 0.871066 30.8972 0.734964 30.5576C0.623997 30.2808 0.868344 29.8547 1.20792 29.4014C1.35398 29.2065 1.50258 29.1279 1.70673 29.0816C2.70315 28.8557 3.54412 29.4872 4.20217 29.7376C5.18153 30.1103 6.17634 31.1204 6.42608 31.3252C6.79532 31.6281 6.22397 30.2616 6.26821 29.9901C6.29446 29.8289 6.58192 29.7185 6.58532 29.8063C6.62768 30.8991 6.40227 31.9778 6.27025 32.7754C6.17906 32.9796 6.08923 33.249 6.04296 33.4552C5.99668 33.6614 5.99668 33.7962 6.13278 33.935" stroke="#0012D4" stroke-linecap="round"/>
<path d="M11.0324 22.7746C10.4894 21.5524 10.0362 20.4663 9.37948 19.6926C8.49343 18.6486 7.67888 18.1036 6.38727 17.6048C5.41577 17.2296 4.23549 15.9777 3.32225 14.5227C2.66493 13.4755 2.95613 12.4785 3.1596 12.0933C3.2515 11.9194 3.40799 11.8429 3.6346 11.7966C4.16661 11.688 4.67919 11.8402 4.99631 12.0436C5.86813 12.603 6.08649 14.4669 6.72004 16.303C6.91541 16.8691 7.0392 17.1931 7.22022 17.3074C7.75653 17.6461 7.99056 16.2894 8.10625 16.1063C8.84204 14.942 6.76836 17.3741 6.58802 17.6912C6.37757 18.0613 5.86192 18.011 5.61285 18.0784C5.49852 18.1458 5.4087 18.2805 5.36242 18.4173C5.31615 18.5541 5.31615 18.6888 5.45225 18.8277" stroke="#0012D4" stroke-linecap="round"/>
</svg>
