<svg width="44" height="47" viewBox="0 0 44 47" fill="none" xmlns="http://www.w3.org/2000/svg">
<path d="M22.0625 20.6155C22.0812 20.5598 22.2693 20.1815 22.5633 19.8216C22.8334 19.4909 23.0839 19.2157 23.3961 18.9782C23.5954 18.8266 24.0105 18.8544 24.4829 18.8731C24.921 18.8905 25.8613 19.3055 27.0254 19.8355C27.5641 20.0808 27.9491 20.1604 28.6467 20.2457C29.6745 20.3712 30.3749 20.2559 30.5353 20.1994C31.1336 19.9887 31.4917 18.9703 31.757 18.1474C31.8465 17.8698 31.928 17.5126 32.0598 16.9462C32.2154 16.2777 32.5149 15.8634 32.8063 15.2621C33.0503 14.7586 33.4539 13.8359 33.7882 13.1658C34.3288 12.0825 34.6924 11.6027 34.8904 11.3857C35.3629 10.8677 35.7331 10.8261 36.5449 10.825C37.1771 10.8241 37.7209 11.0897 38.0989 11.2408C38.4134 11.3665 39.1746 11.9753 40.1873 12.7704C40.8278 13.2733 41.1493 13.5132 41.4899 13.7501C41.9053 14.039 42.5662 14.5528 43.0996 15.0277C43.2528 15.1641 43.3087 15.3316 43.3939 15.445C43.4323 15.4962 43.4228 15.5583 43.3572 15.6248C42.962 16.0251 42.3639 15.9571 41.7597 15.8444C40.5328 15.6153 39.9234 15.4458 39.3346 15.5117C38.86 15.5648 38.652 15.8424 38.3867 16.2301C38.1545 16.5694 38.1782 17.2592 38.1302 17.8301C38.1111 18.0577 38.0828 18.3039 37.9703 18.9152C37.881 19.4001 37.6328 20.2201 37.4794 20.7013C37.2863 21.3073 36.8926 21.9357 36.1666 23.1341C35.7484 23.8244 35.1219 24.6137 34.6535 25.179C33.9072 26.0796 33.2943 26.4282 32.8219 26.5606C32.3933 26.6807 31.8184 26.6941 31.035 26.6566C30.1145 26.6126 29.4869 26.4669 29.2318 26.4575C28.5017 26.4307 27.5003 25.8624 26.6053 25.5414C26.0102 25.3704 25.1291 25.183 24.5064 25.1145C23.8838 25.0461 23.5464 25.1023 23.1987 25.1602" stroke="#0012D4" stroke-width="0.5" stroke-linecap="round"/>
<path d="M21.9489 20.7291C21.6654 20.3133 21.2138 19.6361 20.4662 18.9325C19.823 18.3272 18.9965 18.3431 18.5721 18.3806C17.9708 18.4337 17.144 18.7766 16.3398 19.1265C15.8827 19.3254 15.2692 19.6475 14.4839 19.9977C13.9053 20.2557 13.5047 20.2746 13.1071 20.3218C12.7865 20.3598 12.3322 20.0497 11.9612 19.6892C11.388 19.1322 11.3267 18.5726 10.8728 17.2407C10.7105 16.7647 10.5881 16.2633 10.3334 15.4242C10.1766 14.908 10.0223 14.1915 9.9354 13.6745C9.79919 12.8643 9.69851 12.0049 9.44315 11.1155C9.30418 10.6315 9.16734 10.4472 8.9509 10.1464C8.48537 9.49939 7.97662 8.89513 7.48493 8.68692C6.96579 8.46709 6.55581 8.53439 6.06356 8.5432C5.58603 8.55174 4.94754 8.87298 4.12664 9.40073C3.01705 10.1141 2.42633 10.8431 2.2187 11.0698C1.99318 11.316 1.38843 11.9373 0.678592 12.7795C0.344414 13.176 0.285755 13.3433 0.25735 13.4566C0.229698 13.567 0.285187 13.6842 0.370117 13.7975C0.575216 14.0712 1.22822 14.2892 1.61964 14.3571C1.93867 14.4124 2.38486 14.121 2.75526 14.0637C3.06678 14.0154 3.33358 13.95 3.47532 13.931C3.72194 13.8979 3.97666 14.2324 4.16698 14.5639C4.41023 14.9876 4.43227 15.3498 4.61094 16.3079C4.76471 17.1325 4.99582 18.6533 5.14012 19.4918C5.28442 20.3303 5.32191 20.4428 5.43496 20.9882C5.54801 21.5335 5.73548 22.5084 5.8883 23.1512C6.11065 24.0864 6.30699 24.4961 6.40129 24.7887C6.51568 25.1436 6.98529 25.9118 7.59088 26.8205C8.05412 27.5156 8.88045 27.7348 9.84479 27.9149C10.3337 28.0062 10.8302 28.0007 12.2649 27.7374C12.8427 27.6313 13.6013 27.3429 14.1098 27.1423C14.6182 26.9418 14.8432 26.7918 14.9872 26.677C15.1312 26.5623 15.1874 26.4873 15.2454 26.41" stroke="#0012D4" stroke-width="0.5" stroke-linecap="round"/>
<path d="M15.359 26.4669C15.3772 26.6913 15.5482 27.9371 15.4735 29.2503C15.4368 29.8943 15.1738 30.4697 15.0301 30.9565C14.7783 31.8093 14.6029 32.6921 14.3665 33.5149C14.1403 34.3027 13.7524 35.1144 13.532 35.6782C13.4005 36.0146 13.0139 36.7244 12.7935 37.2124C12.6624 37.5027 12.5572 37.8083 12.3961 38.0739C12.196 38.4039 11.9527 38.9422 11.724 39.4458C11.5364 39.8591 11.2511 40.6448 11.0335 41.506C10.8899 42.0747 10.7961 42.5599 10.7949 43.7227C10.7944 44.2557 11.1159 44.6629 11.4366 45.0501C11.8153 45.5073 12.2333 45.7247 12.5631 45.8474C13.0827 46.0407 14.0649 46.0474 15.1431 45.9815C15.8188 45.9402 16.3407 45.6321 16.8701 45.358C17.5351 45.0138 17.9506 44.572 18.3969 44.1551C18.5591 44.0035 18.6721 43.8324 19.0107 43.5407C19.704 42.9434 20.3378 42.4508 20.6494 42.1579C21.4603 41.3958 22.3261 40.6704 22.6954 40.3392C23.0734 40.0001 23.6123 39.9125 24.7087 39.5535C25.0461 39.443 25.4256 39.3831 25.9656 39.3444C27.1967 39.2564 28.1576 39.362 28.6018 39.4754C29.3027 39.6542 29.9749 39.8728 30.3555 40.0344C30.5013 40.0963 30.6964 40.1761 31.2137 40.421C32.2806 40.926 33.1205 41.1799 33.3094 41.2745C33.7854 41.5129 34.464 41.6157 34.862 41.7387C35.1005 41.8124 35.6922 41.9179 36.6739 42.0883C37.7903 42.2822 38.5548 42.1088 38.7818 42.0332C38.9428 41.9796 39.048 41.8628 39.1332 41.7026C39.4591 41.0899 38.4623 40.4613 38.5361 40.4045C38.9515 40.0849 39.5774 40.3477 39.795 40.2628C39.9455 40.204 39.995 40.0449 40.0518 39.8941C40.1317 39.682 40.0523 39.4768 40.0052 39.3635C39.904 39.1202 39.6178 38.9661 39.3337 38.7479C39.1961 38.6423 39.0491 38.5866 38.9358 38.511C38.8787 38.473 38.8224 38.4355 38.9528 38.4162C39.7969 38.2911 40.1075 38.2651 40.3543 38.0853C40.5127 37.9699 40.5256 37.735 40.4974 37.5555C40.3697 36.7397 38.8417 36.2199 38.331 36.0023C38.1938 35.9439 38.085 35.8609 37.3803 35.616C36.6756 35.3712 35.382 34.9587 33.9752 34.5869C32.5683 34.2151 31.0872 33.8964 30.2399 33.7229C29.2269 33.5154 28.6376 33.5112 27.9752 33.5206C27.4397 33.5282 27.1191 33.5868 27.0339 33.5121C26.5919 33.1246 27.2503 32.6227 27.4773 32.32C27.9737 31.6576 27.8003 30.8651 27.8474 30.435C27.8796 30.1417 27.9139 29.8391 27.961 29.2068C27.9707 28.4643 27.9894 27.9445 28.0178 27.5968C28.0275 27.3054 28.0275 26.7805 27.9707 26.2964" stroke="#0012D4" stroke-width="0.5" stroke-linecap="round"/>
<path d="M13.5979 35.1019C13.4661 35.1394 12.9014 35.5155 12.0672 35.9339C11.3906 36.2732 10.2927 36.4631 9.58462 36.5883C9.28254 36.6418 8.90319 36.6733 8.48677 36.702C8.03035 36.7334 7.61588 36.7869 6.75579 36.8156C6.44112 36.8261 6.0451 36.863 5.56279 36.8724C4.62612 36.8906 3.37449 36.9573 2.8348 36.9954C2.20538 37.0398 1.95312 37.2414 1.7256 37.3737C1.60786 37.4422 1.49808 37.5629 1.40349 37.7234C1.30798 37.8855 1.32708 38.0742 1.3927 38.2347C1.60435 38.7524 2.30988 38.6991 2.63256 38.813C2.97583 38.9342 3.10635 39.3047 3.19214 39.5322C3.21256 39.5864 3.20179 39.6455 3.15492 39.7026C2.89714 40.0167 2.29511 39.7989 1.43445 39.779C1.25118 39.7748 1.1771 39.8353 1.11973 39.8827C1.01142 39.9723 0.948731 40.1193 0.891921 40.2798C0.862672 40.3625 0.872606 40.4591 0.919474 40.5355C1.10794 40.8427 1.66453 40.8579 2.47946 40.9059C2.69088 40.9183 2.97228 40.9533 3.12567 40.9533C3.57219 40.9533 2.2366 40.972 2.10452 41.0192C1.93318 41.0804 1.78213 41.1987 1.68754 41.3405C1.64481 41.4045 1.63044 41.4634 1.63016 41.5205C1.62988 41.5776 1.64862 41.6339 1.7239 41.691C2.12998 41.999 2.72573 41.9191 3.06801 41.9756C3.5937 42.0624 4.10904 42.0702 4.96459 42.127C5.65018 42.1725 6.85123 42.1463 7.56305 42.1276C8.73393 42.0967 8.99522 41.9952 9.37357 41.9287C9.69261 41.8727 10.036 41.8248 10.3586 41.7489C10.4348 41.7299 10.5098 41.7111 10.5765 41.6921C10.6433 41.6731 10.6995 41.6543 10.8711 41.5214" stroke="#0012D4" stroke-width="0.5" stroke-linecap="round"/>
<path d="M12.5753 42.7712C12.6128 42.5445 12.8764 42.2803 13.1142 42.0148C13.4456 41.6924 13.6729 41.5219 13.8427 41.3805C13.9376 41.2953 14.0501 41.1828 14.166 41.0669" stroke="#0012D4" stroke-width="0.5" stroke-linecap="round"/>
<path d="M13.6547 43.2256C13.7865 43.0558 14.0887 42.7916 14.3543 42.5544C14.5239 42.3383 14.733 42.0906 14.9315 41.9014C15.0176 41.8247 15.0738 41.7872 15.1318 41.6918" stroke="#0012D4" stroke-width="0.5" stroke-linecap="round"/>
<path d="M13.3138 39.7035C13.5394 39.5149 14.0694 39.3251 14.3543 39.2964C14.771 39.2545 15.2249 39.2115 15.8112 39.2016C16.187 39.1952 16.4372 39.5319 16.6554 39.9009C16.8047 40.1535 16.911 40.609 16.959 41.009C17.0067 41.406 17.0439 41.8986 17.0539 42.1454C17.0445 42.2025 17.0258 42.2588 16.9974 42.3159C16.969 42.373 16.9315 42.4292 16.8928 42.5439" stroke="#0012D4" stroke-width="0.5" stroke-linecap="round"/>
<path d="M21.9489 20.6155C21.8358 20.3337 21.5717 19.5395 21.0607 18.0835C20.8049 17.3546 20.9638 16.6411 21.0868 16.252C21.2095 15.8638 21.3615 15.372 21.7012 14.757C21.953 14.3012 22.2886 14.046 22.4593 13.6961C22.8313 12.9335 22.8953 12.5133 23.0089 11.8416C23.2036 10.6906 22.6692 9.95576 22.4139 9.54872C22.1886 9.18962 21.6126 8.37078 21.2584 7.78735C20.9938 7.35161 21.0592 7.03917 21.0306 6.55714C21.0212 6.43301 21.0024 6.33927 20.9928 6.216C20.9831 6.09272 20.9831 5.94274 20.9263 5.84503" stroke="#0012D4" stroke-width="0.5" stroke-linecap="round"/>
<path d="M22.5738 13.5711C22.5732 13.4961 23.0624 13.0439 23.4722 12.7951C23.6776 12.6704 24.0486 12.719 24.4658 12.6531C24.9193 12.5814 25.354 12.2849 25.7162 12.0006C26.2623 11.5718 26.4346 10.4136 26.8802 9.84213C27.3014 9.30207 28.1582 8.98999 28.4996 8.79968C28.6924 8.69223 28.8978 8.648 28.9458 8.62868C29.3806 8.45373 28.1434 9.42061 27.575 10.3864C27.3067 10.8422 27.1572 11.259 27.0149 11.5251C26.8888 11.7609 26.647 12.1861 25.7307 13.0848C25.0944 13.7089 24.6962 13.5711 24.3181 13.6183C23.4078 13.6092 23.1805 13.5524 23.0388 13.5146C22.972 13.4955 22.9158 13.4768 22.7442 13.4575" stroke="#0012D4" stroke-width="0.5" stroke-linecap="round"/>
<path d="M20.9263 16.3548C20.9257 16.2054 21.0399 15.3368 20.9834 14.9167C20.9362 14.5658 20.7377 14.3108 20.5767 13.9983C20.4143 13.6834 19.6799 13.4973 19.0536 13.2592C18.7244 13.1341 18.371 13.0223 18.1435 12.8428C17.8339 12.5986 17.4814 12.0395 17.2346 11.5942C16.9219 11.03 16.9877 10.7312 16.9406 10.6741C16.6807 10.3594 16.8735 11.8271 16.9587 12.1588C17.1069 12.7356 17.2519 13.0019 17.4598 13.3234C17.8242 13.8869 18.179 14.0813 18.473 14.3466C18.7208 14.5702 19.0505 14.688 19.3251 14.811C19.55 14.9117 19.789 14.9527 20.3653 15.274C20.7941 15.513 20.8309 15.8799 20.8789 16.1361C20.8883 16.2025 20.907 16.2775 20.9167 16.3536C20.9263 16.4298 20.9263 16.5048 20.9831 16.5252" stroke="#0012D4" stroke-width="0.5" stroke-linecap="round"/>
<path d="M20.8695 5.95865C20.586 5.92115 20.3968 5.73254 20.2074 5.45787C20.1304 5.34625 20.131 4.99573 20.1778 4.52279C20.2268 4.02849 20.7729 3.97145 21.0953 3.86635C21.3636 3.77888 21.6074 3.91294 21.7114 4.02627C21.8929 4.22415 21.8921 4.78042 21.779 5.20961C21.5898 5.46554 21.3251 5.65528 21.0694 5.7689C20.9842 5.78822 20.8718 5.78822 20.7559 5.78822" stroke="#0012D4" stroke-width="0.5" stroke-linecap="round"/>
<path d="M21.2672 5.90184C21.2104 6.08874 21.3978 6.921 21.6734 7.56607C21.8989 8.09418 23.0021 8.4753 23.5858 8.5625C23.8664 8.60442 24.144 8.10036 24.3156 7.70269C24.5786 7.09292 24.2031 6.77443 24.0798 6.52759C23.9205 6.2087 23.5407 6.0734 22.8888 5.72317C22.5694 5.55159 22.2909 5.46667 22.054 5.39083C21.9881 5.36975 21.9125 5.35306 21.9301 5.36215C22.2458 5.52509 22.7226 5.57916 23.4705 5.62716C23.9003 5.65475 24.2383 5.6371 24.561 5.51411C24.709 5.4577 24.8456 5.39112 24.9683 5.24966C25.1276 5.06603 25.2058 4.87983 25.2342 4.65402C25.2904 4.20665 25.2063 3.83852 25.0933 3.6874C24.7973 3.29181 23.8861 3.34541 23.191 3.50561C22.8637 3.58104 22.6317 3.81807 22.2627 4.1771C22.1036 4.33194 21.9875 4.46228 21.9583 4.43473C21.4092 3.9177 22.6488 3.19657 22.7061 2.77902C22.8277 1.89435 22.726 1.01736 22.6215 0.742687C22.5719 0.612277 22.4232 0.486761 22.2437 0.354395C22.0935 0.24361 21.8557 0.220893 21.5629 0.286507C20.9828 0.416462 20.8331 0.994637 20.7087 1.4494C20.4384 2.43747 20.6423 3.01989 20.5673 3.40961C20.4242 4.1529 19.7367 2.32625 19.3371 2.01124C18.8674 1.64107 18.504 1.69794 18.0782 1.65079C17.8247 1.62272 17.6319 1.67862 17.528 1.76355C17.424 1.84846 17.3666 2.00016 17.3098 2.24501C17.1167 3.07743 17.6677 3.58969 18.1409 4.0916C18.4404 4.40919 18.9925 4.68839 19.2967 4.82217C19.4558 4.89211 19.6941 4.87927 19.7617 4.87927C20.4729 4.87927 18.7119 5.08719 18.3242 5.35135C17.8517 5.67325 17.6893 6.24042 17.5183 6.70484C17.2767 7.3611 17.4229 8.06003 17.4888 8.17336C17.5725 8.3174 17.8194 8.38213 18.0838 8.43894C18.5676 8.54286 18.9925 8.21284 19.7773 7.69389C20.6064 7.1457 20.6604 6.64149 20.7556 6.36682C20.7746 6.30007 20.7934 6.24383 20.8312 6.18673C20.8689 6.12964 20.9252 6.0734 20.9831 6.01545" stroke="#0012D4" stroke-width="0.5" stroke-linecap="round"/>
</svg>
