<svg width="30" height="44" viewBox="0 0 30 44" fill="none" xmlns="http://www.w3.org/2000/svg">
<path d="M6.33198 15.3511C5.96271 15.3511 4.68363 15.4331 3.89328 15.5885C3.29584 15.706 3.00301 15.7235 1.98179 16.0527C1.06836 16.3472 0.871828 16.7984 0.530491 17.1289C0.397939 17.2572 0.353616 17.3985 0.322586 17.6248C0.263993 18.0519 0.373476 18.412 0.497288 18.5566C0.776877 18.8831 1.91818 19.2585 2.63778 19.3954C3.17702 19.4979 4.01337 19.4881 4.40622 19.5608C5.01848 19.6739 5.72626 19.6334 6.51475 19.6849C7.85928 19.7727 8.2745 19.7575 9.38632 19.809C10.0234 19.8385 11.1095 19.8196 11.7505 19.8093C12.556 19.7964 12.9905 19.7575 13.5475 19.737C14.6097 19.698 15.6337 19.4695 16.5476 19.3339C17.4333 19.2025 18.1019 19.0748 18.5028 19.0339C19.9096 18.8901 20.3144 18.7856 20.9244 18.7543C21.4538 18.7271 22.0732 18.6615 22.4251 18.6302C23.0035 18.5786 23.7067 18.5374 24.1007 18.506C24.5578 18.4697 26.1159 18.1675 27.0592 17.9065C27.4297 17.804 27.7828 17.5034 28.0525 17.348C28.313 17.1978 28.6927 16.8841 28.8599 16.5933C28.925 16.4802 28.9223 16.3243 28.8916 16.1592C28.8229 15.7904 28.365 15.7037 27.9929 15.4349C27.6464 15.1846 27.269 15.1451 26.4637 14.9999C25.9512 14.9074 25.5313 14.9167 25.0667 14.8652C24.5023 14.8547 24.0821 14.8342 23.8662 14.8031C23.7116 14.7926 23.4659 14.7926 23.1506 14.7305" stroke="#0012D4" stroke-width="0.5" stroke-linecap="round"/>
<path d="M7.82144 19.5093C7.67746 19.4274 7.38826 19.0972 7.25296 18.8173C7.10153 18.504 7.07671 18.1663 7.00472 17.7219C6.88781 17.0004 6.72544 16.5117 6.6941 16.221C6.66689 15.9685 6.60132 15.6429 6.4772 15.0846C6.33742 14.456 6.39403 13.7426 6.54826 13.2324C6.74808 12.5714 7.03451 12.2916 7.21045 11.9496C7.45636 11.4717 7.42798 11.1943 7.56234 10.8943C7.67234 10.6486 7.67622 10.3466 7.70756 10.0667C7.74373 9.74367 7.80034 9.45661 7.83168 8.99177C7.88378 8.21912 7.92447 7.09828 8.16154 6.63344C8.29427 6.37319 8.64748 6.31134 8.90565 6.24928C9.28063 6.15914 9.66094 6.5782 9.95108 6.81683C10.4333 7.21342 10.716 8.04533 11.1402 8.64671C11.382 8.98956 11.8331 9.20588 12.5148 9.47522C12.8632 9.61285 13.4243 9.33248 13.7784 9.1252C13.9423 9.02926 14.027 8.87633 14.1303 8.81458C14.345 8.68629 14.2758 7.52029 14.2243 6.73646C14.1963 6.31038 14.0896 5.87753 14.0487 5.69166C13.9177 5.09734 12.6846 5.2352 12.1989 5.18369C11.3839 5.09724 10.6365 4.98695 10.2437 4.88424C9.54455 4.70145 9.06639 3.89592 8.80449 3.29237C8.51324 2.62117 8.77222 1.65923 8.82466 0.914181C8.83944 0.704231 8.87649 0.540262 8.91745 0.395349C9.06126 -0.11346 10.1785 0.848707 11.107 1.21021C11.7453 1.45876 12.4127 1.77963 12.7128 1.93509C13.1346 2.15362 13.716 2.56532 14.1501 3.18469C14.3853 3.52015 14.4409 3.84751 14.565 4.23043C14.6196 4.3987 14.6271 4.59286 14.6994 4.7173C14.8088 4.90552 14.8952 3.73083 15.1332 3.12698C15.4696 2.27338 16.3425 1.96829 17.2821 1.57482C17.9111 1.31139 18.4947 1.3874 19.2367 1.33589C20.4991 1.24824 20.8729 1.26328 21.2254 1.23225C21.3975 1.2171 21.5364 1.40726 21.6295 1.57234C21.7823 1.84335 21.4352 2.45858 21.2273 2.88618C21.0773 3.19469 20.8556 3.5161 20.401 4.00266C20.1243 4.29872 19.8005 4.51032 19.4902 4.68627C19.17 4.86783 18.9317 5.00681 18.2093 5.25506C17.5309 5.48816 16.5535 5.60757 16.0979 5.65908C15.7666 5.69655 15.5592 5.73169 15.4044 5.74193C15.3309 5.74679 15.27 5.77265 15.2281 5.9368C15.1106 6.3975 15.2266 7.07283 15.5248 7.79491C15.8871 8.67217 16.6118 9.06128 16.9317 9.23691C17.4672 9.53088 18.1 9.31138 18.4845 9.15592C18.7578 9.04542 19.0533 8.93901 19.8685 8.18621C20.2693 7.81605 20.7265 7.40982 21.1531 7.0567C21.4088 6.84513 21.6599 6.64275 22.0114 6.518C22.0901 6.49009 22.1564 6.55834 22.1982 6.61017C22.369 6.82141 22.3636 7.19882 22.4161 7.48895C22.483 7.85922 22.5089 8.15084 22.5402 8.86299C22.5644 9.41321 22.4691 10.2795 22.3339 10.6953C22.2232 11.0355 22.0757 11.316 22.0232 11.5748C21.9466 11.9529 22.0533 12.412 22.1573 12.6919C22.2904 13.0503 22.4468 13.426 22.7872 14.1382C22.9435 14.4651 23.0252 14.8522 23.1503 15.1641C23.2505 15.4139 23.3777 15.6603 23.4091 16.0221C23.4653 16.6709 23.4199 17.5842 23.3886 17.8327C23.3783 17.8951 23.3579 17.9565 23.3371 18.0189C23.3163 18.0813 23.2958 18.1427 23.1506 18.206" stroke="#0012D4" stroke-width="0.5" stroke-linecap="round"/>
<path d="M19.551 9.76564C19.8806 9.99278 20.3355 10.1579 20.6669 10.3751C20.9577 10.5657 21.2049 10.5724 21.3806 10.5315C22.0321 10.3795 21.8473 8.96009 21.8988 8.41364C21.9211 8.17707 21.9093 7.82809 21.8786 7.64873C21.8479 7.46937 21.7865 7.46937 21.7138 7.50009C21.2934 7.67796 20.8977 8.31465 20.4627 8.80214C20.2138 9.10283 19.8837 9.43299 19.6655 9.70265C19.6137 9.76502 19.5523 9.82646 19.489 9.88976" stroke="#0012D4" stroke-width="0.5" stroke-linecap="round"/>
<path d="M8.56622 10.4483C8.58608 10.4074 9.16201 10.0375 9.7128 9.71478C10.0228 9.53313 10.3027 9.27042 10.469 9.02187C10.665 8.72902 9.97377 8.23648 9.73608 8.01834C9.417 7.7255 9.06333 7.61463 8.93952 7.56281C8.88112 7.53836 8.81571 7.57243 8.75334 7.67514C8.36585 8.31323 8.60718 9.01969 8.63852 9.31976C8.64876 9.39268 8.66924 9.45412 8.67979 9.59842C8.69034 9.74271 8.69034 9.96799 8.7524 10.2001" stroke="#0012D4" stroke-width="0.5" stroke-linecap="round"/>
<path d="M11.0487 12.0619C10.8426 12.1029 10.5534 12.2679 10.0783 13.0096C9.70255 13.5962 9.74537 14.437 9.75561 15.0573C9.76046 15.3515 9.88935 15.5156 10.0442 15.6912C10.3048 15.9868 11.0859 15.9718 11.5337 15.8175C11.9934 15.6592 12.1645 14.8174 12.1971 14.1537C12.2276 13.533 12.0007 13.3044 11.9076 12.9528C11.7729 12.6626 11.6494 12.3734 11.3602 12.1041C11.277 12.0619 11.1951 12.0619 11.1107 12.0619" stroke="#0012D4" stroke-width="0.5" stroke-linecap="round"/>
<path d="M19.4269 12.0619C19.2631 12.0619 19.0558 12.0619 18.8184 12.1029C18.3448 12.1846 18.2279 12.7222 18.0827 13.1979C17.991 13.4982 17.9995 13.7984 18.0613 14.1807C18.1406 14.6717 18.3297 15.0806 18.6701 15.371C18.7772 15.4624 18.9888 15.4132 19.1145 15.3825C19.4673 15.2962 19.6528 14.7131 19.8403 14.2561C19.9669 13.9473 19.9234 13.143 19.8514 12.6834C19.7794 12.5596 19.7168 12.4349 19.655 12.3008C19.6137 12.2282 19.5523 12.1463 19.489 12.0619" stroke="#0012D4" stroke-width="0.5" stroke-linecap="round"/>
<path d="M14.0276 15.7856C14.9089 15.7856 16.695 15.8265 16.9333 15.9814C16.9949 16.0214 17.0264 16.0946 17.0373 16.157C17.0904 16.4622 16.4703 16.7153 16.1904 16.9021C15.8965 17.0982 15.6424 17.2949 15.3836 17.4091C15.2277 17.4779 15.0833 17.5438 14.939 17.5646C14.7545 17.5911 14.5663 17.4619 14.4115 17.3073C14.1933 16.9033 13.9879 16.4099 13.8417 16.0348C13.8209 15.9724 13.8005 15.9109 13.7794 15.9097" stroke="#0012D4" stroke-width="0.5" stroke-linecap="round"/>
<path d="M23.5229 15.9097C23.8103 15.9097 24.3906 15.9507 24.7009 16.0233C25.0702 16.1097 25.4456 16.302 25.7044 16.4161C26.0056 16.549 26.2524 16.6334 26.5112 16.778C26.6641 16.8634 26.8116 16.9437 26.9149 17.0365C27.0111 17.1228 26.9984 17.3359 26.9677 17.5426C26.9369 17.6263 26.8755 17.6673 26.8234 17.7191C26.7712 17.7709 26.7303 17.8324 26.626 17.8957" stroke="#0012D4" stroke-width="0.5" stroke-linecap="round"/>
<path d="M6.82849 16.2821C6.56101 16.2821 5.98322 16.364 5.43398 16.4782C5.08043 16.5517 4.72089 16.6743 4.35783 16.8503C3.84383 17.0994 3.54049 17.1919 2.90063 17.3983C2.40477 17.5582 2.17514 17.7294 1.92658 17.9053C1.60895 18.1302 1.55328 18.6181 1.584 18.8868C1.61473 18.9917 1.67617 19.0327 1.73854 19.064C1.80091 19.0953 1.86235 19.1158 1.92565 19.199" stroke="#0012D4" stroke-width="0.5" stroke-linecap="round"/>
<path d="M14.3379 20.7505C14.7072 20.7505 15.4947 20.7915 17.0717 20.7716C17.9583 20.7604 18.4743 20.5643 18.9776 20.5029C20.082 20.3681 20.8742 20.192 21.1417 20.1612C22.0477 20.0572 23.2648 19.6769 24.0697 19.5611C24.4121 19.5119 24.7828 19.4683 25.1868 19.437C25.5115 19.4118 25.7969 19.3442 26.1181 19.3129C26.4252 19.2829 26.7899 19.199 27.0595 19.1475C27.1833 19.1369 27.3695 19.096 27.5864 19.0237C27.6804 18.9923 27.7419 18.9718 27.8052 18.8887" stroke="#0012D4" stroke-width="0.5" stroke-linecap="round"/>
<path d="M0.312073 18.4542C0.353033 18.5982 0.518116 18.8874 0.745571 19.136C0.973308 19.3848 1.28271 19.5291 1.73669 19.7048C2.93211 20.1672 3.26867 20.1919 3.69286 20.295C3.98783 20.3666 4.28275 20.3781 4.60299 20.4296C5.22751 20.5301 5.52398 20.5022 5.89604 20.5538C6.26933 20.5848 7.27473 20.6264 8.57832 20.6264C9.00127 20.6264 8.93983 20.6264 8.87653 20.6264" stroke="#0012D4" stroke-width="0.5" stroke-linecap="round"/>
<path d="M0.25 18.4542C0.25 18.5362 0.25 19.5 0.29096 21.1012C0.333228 22.7534 0.663328 23.1486 0.797691 23.4182C0.94837 23.7206 1.17968 24.1415 1.41799 24.4214C1.53495 24.5588 1.63521 24.7013 1.80029 24.7839C2.25709 25.0123 3.20412 24.9905 4.1971 25.0737C5.23157 25.1603 5.62575 25.3629 6.38103 25.6214C6.8281 25.7744 7.24058 25.9426 7.64367 26.0974C8.31229 26.3543 8.66799 26.3149 9.9781 26.3463C10.5123 26.3591 10.9221 26.48 11.2957 26.5325C11.6078 26.5763 11.8952 26.6252 14.0397 26.6361C14.9166 26.6405 15.8224 26.5024 16.4461 26.4499C16.9645 26.4063 17.4186 26.3571 17.966 26.3156C18.7268 26.2578 19.1774 26.1709 19.7655 26.1191C20.1961 26.0812 20.5018 25.9637 21.2199 25.8203C21.8593 25.6926 23.0439 25.3902 23.8504 25.1913C25.5512 24.7718 25.921 24.6405 26.1907 24.5881C26.4511 24.5374 26.6869 24.3712 26.9457 24.3296C27.2853 24.275 27.5967 24.082 27.9175 23.8139C28.9027 22.9907 28.5077 21.3724 28.5602 20.9075C28.599 20.5632 28.6939 20.1535 28.7464 19.7175C28.7922 19.3368 28.9633 18.849 29.0976 18.3217C29.2139 17.8655 29.2115 17.2763 29.2121 16.8732C29.1507 16.7178 29.0675 16.593 28.9952 16.4692C28.9639 16.4068 28.9434 16.3454 28.9223 16.2821" stroke="#0012D4" stroke-width="0.5" stroke-linecap="round"/>
<path d="M3.1048 25.0327C3.1048 25.3194 3.1048 26.102 3.13552 27.2893C3.17906 28.9721 3.4151 29.5409 3.53861 30.1298C3.63225 30.5764 3.86939 31.1731 3.98359 31.5585C4.08783 31.9103 4.28272 32.3125 4.43849 32.7367C4.7765 33.6571 4.92443 34.5877 4.99736 35.1667C5.06007 35.6647 5.2757 36.2217 5.50285 36.7378C5.70841 37.2048 5.93727 38.1823 6.18552 39.3403C6.32322 39.9827 6.4139 40.4003 6.46635 40.7333C6.51176 41.0216 6.95011 41.2915 7.27221 41.4268C7.6526 41.5866 8.35518 41.829 8.85446 41.9751C9.21219 42.0799 10.1934 42.4285 10.9124 42.6988C11.2989 42.844 11.9336 42.9051 12.8763 42.9787C13.3045 43.0121 13.5919 43.0715 15.8494 43.0823C16.5319 43.0856 17.1058 42.9486 17.7171 42.8552C19.0672 42.6489 19.3015 42.534 19.7251 42.4207C20.1309 42.3122 20.4187 42.1827 21.0058 42.0077C22.509 41.5596 22.7559 41.3139 23.1286 41.128C23.3943 40.9955 23.8506 40.7975 24.2252 40.6005C24.5983 40.4042 24.928 40.2799 25.1772 40.1453C25.4858 39.9785 25.3426 39.2683 25.4363 38.8736C25.5138 38.5473 25.571 38.0482 25.6225 37.6119C25.6712 37.1991 25.6951 36.9088 25.7466 36.2909C25.9137 34.2872 25.8192 33.9919 25.9015 33.64C26.0343 33.0717 26.2537 32.4006 26.3052 32.0466C26.35 31.7383 26.4597 31.2413 26.5121 30.8162C26.5819 30.2509 26.6049 29.5024 26.6465 28.9348C26.6933 28.2954 26.7911 27.9719 26.8224 27.6818C26.8629 27.3077 26.9152 26.8561 26.9466 26.3686C26.9713 25.9833 27.0393 25.5305 27.0707 25.1686C27.1014 24.993 27.143 24.8472 27.174 24.7029C27.1846 24.62 27.1846 24.5176 27.2466 24.4121" stroke="#0012D4" stroke-width="0.5" stroke-linecap="round"/>
<path d="M11.2883 12.4526C11.0827 12.6447 10.8499 13.2118 10.74 13.5939C10.608 14.0534 10.5524 14.5164 10.5202 14.8208C10.4923 15.0854 10.6167 15.2407 10.7005 15.3959C10.7212 15.4342 10.7329 15.4732 10.7586 15.4993C10.7844 15.5254 10.8227 15.5382 10.8617 15.532C11.0469 15.5025 11.2101 15.2942 11.5517 14.9202C11.9342 14.5015 11.6501 13.5898 11.6048 13.3253C11.5906 13.2422 11.5982 13.139 11.5663 13.1055C11.5343 13.072 11.4704 13.1103 11.4119 13.1876C11.1623 13.5174 11.1597 13.8199 11.0949 14.0913C11.0246 14.3851 10.9916 14.5946 10.895 14.8404C10.853 14.9472 10.7464 14.9959 10.6692 15.0411C10.4651 15.1602 10.1654 15.0738 10.1009 15.0352C9.83265 14.8749 10.1255 13.954 10.3064 13.461C10.3711 13.3443 10.4102 13.2664 10.4424 13.1891C10.4617 13.1502 10.4873 13.1118 10.5911 12.9949" stroke="#0012D4" stroke-linecap="round"/>
<path d="M18.9579 12.4526C18.9068 12.5037 18.8549 12.6195 18.8034 12.8382C18.7346 13.13 18.7255 13.7521 18.7319 14.4492C18.7346 14.7378 18.7898 14.815 18.8477 14.8795C18.8755 14.9105 18.9184 14.9185 18.9638 14.8995C19.1745 14.8112 19.2028 14.5582 19.3062 14.2485C19.3968 13.9896 19.4739 13.7835 19.5324 13.3652C19.539 13.1785 19.539 12.8973 19.5002 12.6075" stroke="#0012D4" stroke-linecap="round"/>
<path d="M16.2465 16.2486C15.7177 16.3389 15.5496 16.3776 15.5363 16.397C15.3753 16.6302 16.052 16.3392 16.2331 16.3067C16.3733 16.2815 15.9374 16.4934 15.7822 16.6675C15.6449 16.8216 15.447 16.8552 15.2401 16.9327C15.0568 17.0013 14.9171 16.9846 14.8204 16.9718C14.7736 16.9656 14.7366 16.9334 14.7104 16.8883C14.5816 16.666 14.5816 16.4299 14.4776 16.3071C14.3511 16.1577 15.4904 16.2486 16.0069 16.2101C16.0524 16.1971 16.0908 16.1843 16.1489 16.1777C16.207 16.1711 16.2837 16.1711 16.4014 16.2099" stroke="#0012D4" stroke-linecap="round"/>
</svg>
