<svg width="41" height="42" viewBox="0 0 41 42" fill="none" xmlns="http://www.w3.org/2000/svg">
<path d="M15.2039 6.05212C13.5845 6.26805 12.5883 6.54122 12.316 6.89455C12.0478 7.24242 12.096 7.95616 12.2039 8.69144C12.4537 10.3928 15.747 10.1416 16.1551 10.0876C16.5412 10.0365 16.8381 9.65246 17.1644 9.29913C17.5185 8.91573 17.6576 8.07557 17.5496 7.12192C16.6794 6.48888 15.8599 6.27132 15.5335 6.13473C15.3691 6.1061 15.2072 6.16008 15.0403 6.2157" stroke="#0012D4" stroke-linecap="round"/>
<path d="M15.3675 6.21568C15.4755 3.9485 15.9629 2.34872 16.7522 1.61344C17.7141 0.717333 19.0676 0.709674 21.2759 0.762019C21.7051 0.772192 21.7993 1.0859 21.855 1.38607C22.0988 2.70194 21.4755 3.70314 20.9864 4.63062C20.1769 6.16566 18.6423 6.59518 18.1761 7.03275C17.555 7.61573 20.6445 6.16334 22.2876 6.0791C23.1595 6.0344 23.8702 7.0303 24.1729 7.7664C24.2667 7.99479 24.2007 8.33564 24.0927 8.61045C23.6962 9.61978 22.5158 9.97469 21.0706 10.1145C20.1403 10.2046 19.4586 9.59683 19.2402 9.623C18.5459 9.70621 19.9444 11.1721 19.9763 12.807C19.9842 13.2151 19.5714 13.4622 19.2704 13.5472C17.9912 13.9087 16.8986 12.4349 16.0521 11.7798C15.852 11.625 15.6979 11.4534 15.5605 11.289C15.2987 10.9758 13.5845 12.1993 8.81132 13.0598C8.0947 13.1889 10.0709 11.2375 11.081 10.3926C11.3856 10.1378 11.0654 10.0336 10.8454 10.0328C9.95767 10.0295 8.66737 10.3051 7.57794 10.2241C6.01995 10.1083 5.88001 7.52757 5.93399 6.95587C5.97541 6.51722 6.42309 6.2713 6.8582 6.08073C8.16471 5.50852 10.1297 5.99649 10.4585 6.0791C10.8173 6.16923 9.64392 5.56301 9.34458 5.18269C8.51853 4.13321 8.66083 2.18841 9.1491 1.20204C9.33791 0.820634 10.0202 0.709674 10.7006 0.546097C11.6849 0.309505 12.5834 1.03356 13.2115 1.63307C13.7301 2.66606 14.3288 4.24785 14.8457 5.01094C15.0927 5.2882 15.3086 5.34218 15.5311 5.3978" stroke="#0012D4" stroke-linecap="round"/>
<path d="M16.5125 39.749C16.8364 38.1296 17.1652 36.9715 17.7345 35.5901C18.8884 32.7899 19.5649 30.6999 19.7825 30.1568C20.0761 29.4239 20.1652 28.575 20.4629 27.3817C20.987 25.2811 22.2312 22.804 23.4016 20.626C24.7259 18.1616 25.5616 17.3978 26.6772 15.7097C27.2925 14.7787 27.8484 13.3149 28.3163 12.1077C28.6751 11.1817 28.6729 10.0924 28.6712 9.10935C28.6708 8.83089 28.8332 8.51229 29.1047 8.26447C29.706 7.71573 30.5769 7.63388 31.2026 7.60608C31.5052 7.59263 31.7743 7.74021 31.9673 7.93078C32.3588 8.31727 32.3795 9.31709 32.2716 10.3795C32.2283 10.8058 31.9477 10.9561 31.7555 11.0666C31.4013 11.2309 30.7487 11.1246 29.9046 10.7713C29.5464 10.5799 29.3305 10.364 28.9444 9.81437" stroke="#0012D4" stroke-linecap="round"/>
<path d="M28.4537 8.17863C28.0202 7.63555 26.3926 6.98124 24.9139 7.03195C24.2237 7.05562 24.1467 8.01341 24.0649 8.4747C23.9372 9.19518 24.199 9.86674 24.5254 10.2749C25.0925 10.9842 26.0491 11.4469 26.9512 11.6407C27.3054 11.7217 27.6881 11.7233 28.0963 11.6146C28.2885 11.5598 28.4504 11.5058 28.6173 11.2866" stroke="#0012D4" stroke-linecap="round"/>
<path d="M28.9444 10.3051C28.2966 12.1405 27.9629 13.3019 28.0439 13.737C28.1351 14.2269 28.6156 14.5565 28.942 14.8289C29.2225 15.063 29.867 15.0489 30.5753 14.9679C31.4013 14.8735 31.506 13.9055 31.6696 13.5521C31.7533 13.3713 31.7252 13.1448 32.1571 13.3845C32.5889 13.6241 33.4526 14.3259 34.5183 14.6874C35.584 15.0489 36.8256 15.0489 37.4382 14.4821C38.0508 13.9153 37.9968 12.7817 37.888 12.1437C37.7792 11.5058 37.6173 11.3978 37.5069 11.4232C37.3964 11.4485 37.3425 11.6105 37.3956 11.8019C37.4488 11.9932 37.6107 12.2092 37.8831 12.3204C38.4938 12.5698 39.1385 12.3237 39.5467 12.0791C39.7489 11.9579 39.9008 11.7806 39.9842 11.5622C40.0677 11.3438 40.0677 11.0739 40.0137 10.8539C39.7825 9.91168 38.0033 9.54286 36.6922 9.35147C36.3133 9.29616 35.8245 9.32367 35.7091 9.24269C34.9392 8.70209 37.3915 7.74678 37.9125 6.8741C38.3347 6.16696 38.1047 5.34547 38.0508 4.93734C37.9997 4.55129 37.5617 4.20043 37.0726 3.7923C36.5396 3.34754 35.602 3.27131 34.6492 3.35228C33.3454 3.46307 32.602 4.68461 31.9452 5.7495C31.4243 6.59415 30.4231 2.89835 29.6012 2.15489C29.3388 1.91759 28.7841 2.01667 28.2124 2.17943C27.7401 2.3139 27.4199 3.31874 27.0927 4.59792C27.1434 6.26804 27.6342 6.92235 27.9335 7.33048C28.0709 7.52268 28.1789 7.68462 28.2901 7.85147" stroke="#0012D4" stroke-linecap="round"/>
<path d="M19.4569 39.0947C20.7525 36.3957 21.9057 34.2495 22.9657 32.8076C24.7529 30.3764 26.157 29.5581 27.4673 28.656C29.0028 27.5988 30.7961 27.3171 31.0963 27.506C32.0904 28.1318 30.6914 29.9802 30.2277 31.2381C29.6206 32.8847 29.0556 33.6377 28.1846 35.0273C27.5746 36.0004 26.2814 37.5571 25.2942 38.6285C24.15 39.5282 23.2208 40.2381 22.8945 40.5104C22.7301 40.6209 22.5682 40.6748 22.5649 40.7304" stroke="#0012D4" stroke-linecap="round"/>
<path d="M21.747 40.0762C22.7187 38.0249 23.3811 36.6443 23.7075 36.0456C24.0338 35.5549 24.6865 34.8466 25.5845 34.0026C25.9967 33.6443 26.3206 33.4284 26.8179 33.2059" stroke="#0012D4" stroke-linecap="round"/>
<path d="M14.8768 39.2583C13.7873 37.6258 13.5681 36.4284 13.4324 35.1467C13.2911 33.8128 13.241 31.2103 13.8381 28.4965C14.1444 27.104 14.5496 25.6323 14.7124 24.758C15.0154 23.1301 15.5278 21.0554 15.8304 19.283C16.3863 16.0274 15.4231 14.2375 15.2047 13.3615C15.096 12.8733 14.9864 12.4332 14.9316 12.1069C14.9307 11.9425 14.9847 11.7806 15.0403 11.6137" stroke="#0012D4" stroke-linecap="round"/>
<path d="M10.9509 37.7861C10.7873 34.5195 10.3555 31.6978 9.8075 30.237C9.45418 29.2952 8.60848 28.6291 7.16737 27.7834C6.31364 27.2824 5.34021 27.2092 4.30231 27.1266C3.56878 27.0682 2.83094 26.6105 2.06621 26.3095C1.57876 26.1177 1.19189 25.8466 0.974334 25.7362C-0.0369259 25.223 0.753505 28.2397 1.62292 29.9549C2.56034 31.8041 4.24097 33.2027 4.76033 33.8308C5.33367 34.4033 5.9847 35.3815 7.04877 38.2114C7.24261 38.8199 7.29659 39.0358 7.67936 38.9312" stroke="#0012D4" stroke-linecap="round"/>
<path d="M8.98799 37.9496C8.98799 36.1143 8.93401 34.8989 8.69028 34.0581C8.50053 33.4873 8.17664 32.6236 7.95582 32.0977C7.73499 31.5718 7.62703 31.4098 7.51579 31.243" stroke="#0012D4" stroke-linecap="round"/>
</svg>
