<svg width="22" height="37" viewBox="0 0 22 37" fill="none" xmlns="http://www.w3.org/2000/svg">
<path d="M12.2771 34.9023C12.1557 33.6273 12.0324 32.3938 11.9405 30.5029C11.8766 29.19 11.9092 27.155 11.9395 26.001C11.9854 24.2576 12.2146 23.5913 12.3075 22.946C12.353 22.6301 12.5218 22.2713 12.9326 21.2208C13.2633 20.3749 13.9201 18.9256 14.3699 17.9929C15.0086 16.6684 15.586 15.683 16.1214 14.2921C16.7252 12.7233 16.907 11.6309 16.953 11.2639C16.9986 10.8993 17.0293 10.3145 17.1213 8.92733C17.187 7.93645 17.1526 6.35623 17.1374 5.46715C17.1097 3.84455 17.55 2.6785 18.0242 1.85106C18.5946 0.855693 19.1745 0.6529 19.6193 0.513996C19.8099 0.454444 20.0944 0.589428 20.4614 0.848837C21.3277 1.46111 21.0768 2.54972 20.8027 5.16313C20.6792 6.34038 20.6491 7.42238 20.5111 8.40253C20.3134 9.80698 20.1882 11.8351 20.1119 12.8985C20.0844 13.2805 19.9748 14.2581 19.7908 15.545C19.5763 17.0459 19.2389 18.7085 19.0393 19.4297C18.7645 20.4226 18.4423 20.9475 18.1502 21.5616C17.8572 22.1775 17.4911 22.6346 16.8334 23.6599C15.9624 25.0174 15.712 26.8036 15.6504 27.4332C15.5492 28.4668 15.436 29.3186 15.3896 30.1616C15.3414 31.0371 15.4342 32.3818 15.5119 33.1219C15.5613 33.592 15.7415 34.0726 15.7879 34.7616C15.8031 34.9317 15.8334 35.0532 15.8491 35.2371C15.8647 35.4211 15.8647 35.664 15.8647 35.8222" stroke="#0012D4" stroke-linecap="round"/>
<path d="M9.42548 35.0863C9.36476 34.4184 9.30313 33.8315 9.24196 33.0993C9.14043 31.8841 9.11915 30.9486 9.08834 29.428C9.06122 28.0898 9.11823 25.6003 9.24012 23.9993C9.41193 21.7424 10.0363 20.6486 10.4498 19.7006C11.1768 18.034 10.866 17.1208 10.8821 16.5831C10.9005 15.9694 10.5606 15.4337 9.96453 14.2401C9.54966 13.4403 8.81651 12.0982 8.42969 11.3544C8.38324 11.262 8.35288 11.1709 8.22962 11.0771" stroke="#0012D4" stroke-linecap="round"/>
<path d="M9.05752 29.9349C9.05752 28.0528 8.96645 26.4154 8.7374 25.1151C8.52039 23.8832 8.01712 22.9778 7.54338 22.3504C6.72823 21.2709 5.963 21.2272 5.02977 20.8606C3.64869 20.3181 3.08006 20.0921 2.52905 20.0157C1.55484 19.8807 1.14737 19.9384 0.948674 20.0755C0.645226 20.2848 0.56416 20.7038 0.518165 20.9945C0.410256 21.6765 0.807931 22.6641 0.977191 23.2942C1.12501 23.8445 1.54384 24.4119 2.04886 25.2711C2.25293 25.6182 2.58608 25.8248 3.21069 26.2668C5.48089 27.8734 6.59957 28.1246 7.20072 28.355C7.39987 28.4318 7.64549 28.4934 7.92099 28.5698C8.04472 28.6158 8.13579 28.6765 8.22962 28.739" stroke="#0012D4" stroke-linecap="round"/>
<path d="M8.41359 28.831C8.17074 28.1025 7.92789 27.3739 7.60547 26.6798C7.28305 25.9858 6.88841 25.3483 6.62441 24.9744C6.3604 24.6004 6.23897 24.5094 6.20585 24.4155" stroke="#0012D4" stroke-linecap="round"/>
<path d="M8.96553 12.8249C8.29217 12.273 7.8635 12.2123 7.11425 12.1506C6.42478 12.0939 5.47546 11.7542 4.46542 11.2496C2.97561 10.5054 2.31655 9.30541 1.70023 8.27513C1.08945 7.25414 1.11701 6.29737 0.978111 5.57571C0.917272 5.25963 0.992829 4.94605 1.054 4.67054C1.08164 4.54606 1.11517 4.45574 1.34331 4.53025C2.92993 5.04847 4.05699 5.34252 5.60149 5.89261C6.93496 6.36755 7.76783 7.30373 8.2126 7.67214C8.67378 8.05416 8.90298 8.68357 9.14859 9.28058C9.33349 10.0643 9.36384 10.3706 9.40984 10.7368C9.42548 10.9815 9.42548 11.3457 9.42548 11.721" stroke="#0012D4" stroke-linecap="round"/>
<path d="M17.7965 15.5846C17.4911 17.8503 17.0017 19.0747 16.5565 19.829C16.1353 20.5426 15.8353 20.8261 15.3758 21.3473C15.0481 21.7189 14.7627 22.5095 14.5162 23.1107C14.4849 23.3098 14.4545 23.5555 14.3934 23.831C14.3625 23.9547 14.3322 24.0458 14.3009 24.1396" stroke="#0012D4" stroke-linecap="round"/>
</svg>
