<svg width="25" height="42" viewBox="0 0 25 42" fill="none" xmlns="http://www.w3.org/2000/svg">
<path d="M12.0608 40.6166C12.0608 40.647 12.0608 40.6774 11.8028 38.7957C11.5448 36.9141 11.0287 33.1195 10.7629 31.0737C10.4737 28.8486 10.4667 28.4456 10.4207 27.8656C10.3508 26.9846 10.2836 25.7521 10.0996 24.0416C9.8517 21.7364 10.0674 20.1362 10.1134 19.6468C10.2085 18.6356 10.3131 17.7757 10.618 16.5514C10.8916 15.4528 11.2918 14.4089 12.0121 12.5507C12.3639 11.6433 12.6735 11.2739 13.3308 10.0657C13.471 9.80119 13.5014 9.71012 13.5474 9.61767C13.5934 9.52522 13.6541 9.43415 13.7167 9.43231" stroke="#0012D4" stroke-linecap="round"/>
<path d="M13.9006 9.52432C14.2677 7.93199 14.6954 7.07557 16.1484 5.25372C16.6377 4.64022 17.0273 4.43548 17.4234 4.00865C18.1988 3.17285 19.4135 2.23142 20.4553 1.46515C21.203 0.915204 21.6866 0.755912 22.1323 0.52502C22.648 0.257826 22.2109 2.19094 21.447 3.69267C21.1663 4.24432 20.4687 5.28454 19.2452 6.81478C17.4906 9.00933 16.6934 9.15452 15.6677 9.58411C15.3136 9.73774 14.9153 9.89136 14.4254 10.0293C14.2088 10.0763 14.057 10.0763 13.8086 9.98427" stroke="#0012D4" stroke-linecap="round"/>
<path d="M10.405 24.7025C10.4658 24.0347 10.6792 23.2353 11.1828 22.2418C11.8085 21.0075 12.6717 20.2282 13.3128 19.6932C14.183 18.9672 15.4276 18.5107 16.6815 18.1432C17.3196 17.9562 17.996 17.8971 18.8713 17.8502C22.1421 17.6749 22.8825 18.14 23.4348 18.1865C23.5591 18.1969 23.6496 18.232 23.7269 18.2932C23.8042 18.3543 23.8649 18.4454 23.8506 18.553C23.7597 19.2395 22.5844 20.5538 21.555 21.694C20.5623 22.7937 19.7603 23.0136 18.444 23.7035C17.9733 23.9502 17.6427 24.0273 16.9124 24.2255C13.9561 25.0279 13.2291 24.8552 12.5387 25.0392C11.8787 25.1008 11.1446 25.1624 10.6382 25.1928C10.4961 25.2232 10.5872 25.2839 10.681 25.3464" stroke="#0012D4" stroke-linecap="round"/>
<path d="M9.76112 21.6669C9.69949 21.1775 9.94326 19.8989 10.0219 18.2987C10.0812 17.0929 9.02705 15.7207 7.94203 14.8785C7.19194 14.2963 6.51206 14.1854 6.26737 14.1091C6.01254 14.0295 4.80474 13.6666 3.04269 13.1767C2.12201 12.9208 1.85097 12.5609 1.68263 12.3622C1.35843 11.9795 1.35975 11.6106 1.26822 11.4722C0.911555 10.9327 0.532766 13.2904 0.500569 15.0979C0.478205 16.3535 1.1123 17.2459 2.03035 18.4891C2.707 19.4054 3.77998 20.1325 4.23993 20.546C4.73997 20.9955 5.58665 21.2364 6.24713 21.4972C7.98574 22.1836 9.66821 21.6982 9.77584 21.5303C9.57806 21.0239 8.78603 20.0497 7.51152 18.651C7.27833 18.3875 7.18726 18.2357 6.90945 17.9873" stroke="#0012D4" stroke-linecap="round"/>
<path d="M10.865 16.6075C11.4114 15.5146 12.6643 14.2535 14.4093 13.0742C16.4821 11.6734 17.8525 11.7946 18.2996 11.8079C18.9286 11.8267 18.4394 13.2609 18.3014 13.8611C18.1523 14.5095 16.7321 15.7391 15.3619 16.8039C13.9772 17.8799 12.4049 17.6193 11.7099 17.4363C11.5108 17.3139 11.3259 17.221 11.1423 17.175C11.0499 17.1594 10.9588 17.1594 10.865 17.1594" stroke="#0012D4" stroke-linecap="round"/>
<path d="M10.681 14.6757C10.7721 14.4927 11.1391 14.0042 11.5383 12.9173C11.957 11.7776 11.2661 10.6043 10.4694 9.20695C10.0432 8.45934 9.395 8.08561 8.81271 7.45686C8.68587 7.3199 8.62781 7.22643 8.551 7.22505C7.79012 7.21138 7.76863 9.15268 7.76771 10.3016C7.76686 11.3597 9.04728 13.3419 9.75974 14.3832C9.85219 14.4605 9.94326 14.5212 10.0509 14.5828C10.1585 14.6444 10.2799 14.7051 10.589 14.9517" stroke="#0012D4" stroke-linecap="round"/>
<path d="M10.405 31.1417C10.3747 29.9781 10.1309 29.427 9.74778 28.7532C9.05333 27.5319 8.1697 27.2487 7.5106 26.8661C6.32488 26.1776 5.50202 26.2976 4.67411 26.3118C4.33792 26.3176 4.1507 26.694 3.98236 27.0151C3.59383 27.7561 3.84253 28.7463 4.22429 29.4675C4.89386 30.7324 6.32256 30.9872 7.22819 31.1564C7.58097 31.2631 8.04092 31.3864 8.72854 31.4784C9.11259 31.5097 9.56794 31.5097 10.2211 31.3257" stroke="#0012D4" stroke-linecap="round"/>
<path d="M11.141 31.4177C11.8143 29.4878 12.668 28.5108 13.4227 27.9083C13.833 27.5808 14.3284 27.5238 14.6342 27.4778C14.7874 27.4548 14.9401 27.4622 15.0487 27.614C15.3312 28.0091 15.2805 28.7463 15.2046 29.3742C15.1037 30.2084 14.1196 30.7388 12.9237 31.1868C12.5539 31.2337 12.277 31.2641 11.9863 31.3101C11.8474 31.3257 11.726 31.3257 11.6009 31.4177" stroke="#0012D4" stroke-linecap="round"/>
</svg>
