<svg width="34" height="40" viewBox="0 0 34 40" fill="none" xmlns="http://www.w3.org/2000/svg">
<path d="M17.2605 39.0557C17.2605 38.0236 17.2301 37.2794 17.1841 36.6994C17.1143 35.8185 17.1381 35.102 16.9859 32.519C16.8445 30.1191 16.6515 25.5039 16.5572 23.0662C16.4583 20.5081 16.5853 19.9266 16.6773 19.0545C16.7086 18.2735 16.7693 17.5643 16.8613 16.9066C16.8925 16.5828 16.8925 16.2792 16.8925 15.9664" stroke="#0012D4" stroke-linecap="round"/>
<path d="M17.3525 4.83576C17.3525 4.8376 17.4132 4.28566 17.4141 3.68819C17.4149 3.19365 16.9551 2.81384 16.1456 2.14002C15.1308 1.29529 14.5027 1.7394 13.2944 1.72331C12.7368 1.71588 12.3869 2.16623 11.9881 2.48866C11.6946 2.72596 11.4964 3.17719 11.4045 3.71257C11.203 4.88521 12.0465 5.93779 12.3837 6.39774C12.5645 6.64442 12.7825 6.8586 12.9361 7.0573C13.2363 7.44561 12.753 8.99367 12.9513 10.5805C13.0937 11.7205 13.8256 12.377 14.0248 12.7454C14.2885 13.2332 14.8964 13.9703 15.2965 14.4776C15.729 15.0259 16.3075 15.2287 16.7223 15.4904C17.2861 15.846 18.1785 15.5378 18.7447 15.2931C19.8926 14.797 20.9952 13.8875 21.8117 12.9184C22.2066 12.4496 22.502 11.952 22.7637 11.476C22.9793 11.0839 23.1165 10.6329 23.163 10.2645C23.2157 9.84599 23.4238 9.34599 23.53 8.91686C23.8223 7.73621 26.0271 7.32315 26.5201 5.94745C27.082 4.37961 25.878 3.15052 25.6182 2.95136C25.1305 2.57763 24.0438 3.11556 23.4251 3.43982C23.0542 3.63425 22.629 4.00602 22.1529 4.46596C21.7481 4.85715 21.6465 5.41529 21.4768 5.6793C21.0009 6.41956 21.8599 3.61598 21.9363 2.63124C21.9694 2.20403 21.9216 1.86267 21.8452 1.61798C21.6704 1.05779 20.5482 0.698087 19.838 0.527907C19.3601 0.413381 18.8574 0.66497 18.1371 1.04719C17.6597 1.43124 17.4454 1.73756 17.2922 1.96708C17.2301 2.07516 17.1998 2.16623 17.1685 2.44404" stroke="#0012D4" stroke-linecap="round"/>
<path d="M16.4326 23.1416C16.3719 22.3763 15.8843 21.644 15.4069 21.1192C15.018 20.6918 14.6554 20.3838 13.5395 19.4809C13.1632 19.1764 12.9379 19.0637 12.7848 19.0785C12.3844 19.1169 12.4182 20.1924 12.0033 20.8249C11.6808 21.3165 11.191 21.4545 10.7007 21.7452C10.1264 22.0857 9.35494 22.2512 8.61581 22.4816C7.27214 22.9005 4.81619 22.3468 4.19987 21.8708C3.62504 21.4268 3.12727 20.7517 2.66641 20.307C2.32928 19.9816 1.80999 19.4657 1.42409 19.0035C1.1228 18.6426 0.948969 18.268 0.718536 17.8233C0.620342 17.6337 0.549736 17.4088 0.503281 17.2249C0.417365 16.8846 2.01236 17.5284 2.8927 17.6071C3.64451 17.6743 4.59358 16.8882 6.33769 15.5884C7.19571 14.9489 7.93647 14.6492 8.50312 14.5103C9.68165 14.2214 10.7513 14.7688 11.8607 15.2287C12.5238 15.5036 12.9333 16.4522 13.35 17.4351C13.533 17.8665 13.4889 18.4768 13.4434 19.0596C13.4283 19.2526 13.3068 19.2174 13.1385 19.1106C12.3722 18.6249 11.8975 18.36 11.2531 18.1898C10.5158 18.2046 9.78361 18.2662 9.18246 18.4341C9.07437 18.4805 8.9833 18.5109 8.79748 18.5422" stroke="#0012D4" stroke-linecap="round"/>
<path d="M17.0765 27.7411C17.1372 26.8534 17.4426 26.2416 18.6353 25.0932C19.4844 24.2755 20.8701 23.7892 21.5674 23.419C22.1635 23.1025 21.8287 22.3468 22.3631 21.3368C22.9176 20.2888 23.9702 20.0471 24.8317 19.7693C25.3319 19.608 26.2699 19.646 27.5131 19.9054C28.0999 20.0279 28.4813 20.4114 28.9261 20.84C29.4196 21.3157 29.8004 21.8519 30.4885 22.5409C30.8285 22.8813 31.2714 23.0183 31.7147 23.1103C32.5133 23.276 32.8057 22.8969 32.9134 22.8656C33.5487 22.681 32.102 24.2436 31.5671 24.9786C31.2277 25.4449 30.6633 25.9289 28.2932 27.2609C27.3449 27.7938 25.6444 27.7411 24.2714 27.391C22.4642 26.9303 22.4137 25.7817 22.1368 25.198C21.9423 24.7879 21.8599 24.2188 21.9055 23.6209C21.9357 23.2246 22.6547 23.3256 23.3437 23.2492C23.9683 23.2336 24.5561 23.2943 24.9236 23.3863C25.0786 23.4176 25.1697 23.4176 25.2635 23.4176" stroke="#0012D4" stroke-linecap="round"/>
</svg>
