<svg width="33" height="38" viewBox="0 0 33 38" fill="none" xmlns="http://www.w3.org/2000/svg">
<path d="M13.5002 36.5885C13.3844 36.4738 13.3461 36.088 13.2882 34.6711C13.2366 33.408 13.2685 31.0368 13.345 29.2422C13.4706 26.2944 13.7319 24.8513 13.751 24.3503C13.7674 23.9221 14.2683 22.62 15.0967 20.5769C16.176 17.9149 16.7812 17.322 17.4555 16.4913C18.2776 15.4785 18.9013 14.275 20.2921 12.8813C20.6441 12.5286 21.7548 11.7262 23.375 10.4721C24.9168 9.27872 25.7784 8.93879 26.108 8.55357C26.1665 8.43714 26.2048 8.32244 26.1671 8.22513C26.1294 8.12781 26.0148 8.05135 25.8966 7.97256" stroke="#0012D4" stroke-linecap="round"/>
<path d="M16.2807 17.936C16.0502 17.3602 15.8173 16.3558 15.7211 15.6027C15.601 14.662 15.5856 13.1188 15.9123 11.5878C16.1125 10.6495 17.1635 9.17744 17.9774 8.22628C18.4679 7.65308 19.0195 7.20329 19.9064 6.5464C21.3109 5.50609 23.4868 4.96731 25.1204 4.38225C26.8148 3.77537 29.5993 2.76145 30.3541 2.22099C31.3219 1.52797 31.4946 0.907788 31.6887 0.558488C31.9194 0.143255 31.8816 1.94352 31.8828 5.81362C31.8833 7.52376 31.5734 7.97025 31.4773 8.64567C31.3816 9.31796 31.3417 9.93976 30.6113 12.4034C30.2152 13.7391 29.6827 14.3028 29.2772 14.8253C28.8662 15.3549 28.3712 16.0012 27.6755 16.6593C27.0782 17.2243 26.5176 17.7414 26.0142 18.0316C25.5417 18.304 24.7427 18.5523 23.3912 19.1119C22.6831 19.4052 21.9599 19.558 21.0371 19.6541C18.2131 19.6356 17.5968 19.4815 17.0164 19.1924C16.8994 19.0957 16.8229 18.981 16.5124 18.9787" stroke="#0012D4" stroke-linecap="round"/>
<path d="M13.2685 27.0885C13.0368 26.8973 12.9603 26.2798 12.7095 25.8158C12.4425 25.322 11.767 24.5443 10.6079 22.7891C10.0175 21.8951 9.44764 20.9158 8.82956 19.8702C8.52068 19.3477 8.24971 18.6358 7.95949 17.9574C7.58365 17.079 6.93592 15.8529 6.45455 14.9082C6.04732 14.3457 5.74031 13.9599 5.39159 13.5353C5.31397 13.4189 5.2375 13.3042 5.04287 13.0701" stroke="#0012D4" stroke-linecap="round"/>
<path d="M13.1526 26.1616C13.1897 25.7422 13.5767 24.1968 13.7122 23.519C13.9281 22.4396 13.6161 21.5692 13.1353 19.7005C12.9147 18.8431 12.768 18.2094 12.5357 17.6678C12.1345 16.7323 11.7253 15.7371 11.3204 15.024C10.5341 13.6393 9.68166 12.6901 9.09949 12.1253C8.61902 11.6592 8.24971 11.0265 7.59513 10.197C6.55275 8.87599 5.7797 8.63061 4.94961 8.10985C4.22459 7.65501 3.81018 7.04805 3.30738 6.50759C2.44976 5.58575 1.99359 5.19438 1.5881 4.63423C1.40917 4.38705 1.29731 4.15054 1.22027 4.05322C0.763482 3.47623 0.795662 5.76902 0.660113 6.42533C0.605252 6.69096 0.602186 6.92872 0.544259 7.88625C0.398704 10.2923 0.639259 12.3704 0.870388 13.1993C1.05258 13.8528 1.25792 14.3422 1.50701 15.2441C2.37994 18.405 2.76286 19.1293 2.97603 19.7873C3.17097 20.3891 3.45799 20.9065 4.22899 22.1792C4.67993 22.9235 5.31165 23.6105 6.12089 24.2668C6.71795 24.7511 7.47117 25.2325 8.05333 25.5621C8.52792 25.8308 9.55422 26.3122 10.2928 26.6245C11.065 26.8556 11.9895 27.0885 12.6869 27.1846C12.8422 27.2043 12.9951 27.2043 13.0368 27.0885" stroke="#0012D4" stroke-linecap="round"/>
</svg>
