<svg width="23" height="42" viewBox="0 0 23 42" fill="none" xmlns="http://www.w3.org/2000/svg">
<path d="M6.10565 27.3076C6.28779 27.3076 7.38338 27.3076 9.0378 27.3379C9.96799 27.355 10.5184 27.5219 12.0555 27.5527C13.3192 27.578 15.5658 27.5228 16.7686 27.5224C17.9713 27.5219 18.0624 27.5522 18.1397 27.6134C18.4601 27.8671 18.4929 28.3176 18.3876 29.8465C18.3024 31.0829 16.2888 30.6192 15.7972 30.6955C15.098 30.8041 13.3268 30.8031 11.2216 30.8795C10.2631 30.9143 8.53232 30.8951 7.59541 30.88C6.28938 30.8588 5.67882 30.7424 5.27913 30.5129C5.06344 30.3891 4.94107 30.0084 4.84908 29.4734C4.74285 28.8557 4.90887 28.4123 5.09239 28.2288C5.46081 27.8908 5.76713 27.7371 5.99664 27.676C6.10473 27.6452 6.1958 27.6148 6.28963 27.5835" stroke="#0012D4" stroke-linecap="round"/>
<path d="M5.82968 30.8032C5.92167 31.4747 6.10381 33.4874 6.21282 34.9698C6.25833 35.5888 6.35034 36.1349 6.39679 37.4521C6.41887 38.0782 6.56559 39.4685 6.6723 40.4602C6.68638 40.591 6.77901 40.7049 6.85582 40.7826C7.28579 41.2177 8.43297 40.8613 8.95501 40.7536C10.0077 40.5366 11.0087 40.554 11.5463 40.4777C12.1705 40.389 12.9699 40.37 13.5241 40.4464C14.2237 40.5428 16.3588 40.37 17.481 39.9427C17.859 39.7988 17.6043 37.5368 17.6806 35.9431C17.6356 34.5471 17.3302 33.2022 17.0542 31.9314C16.9604 31.3891 16.9604 31.0552 16.9604 30.8952" stroke="#0012D4" stroke-linecap="round"/>
<path d="M13.0968 27.5835C13.0361 26.6121 13.2477 25.2314 13.7067 23.7154C14.0186 22.6852 14.4748 21.8241 14.9178 20.8297C15.3578 19.8417 16.1297 19.2153 16.741 18.6951C17.9973 17.6259 19.1037 17.4665 19.7177 17.2048C20.3036 16.9552 20.8828 16.9128 22.0465 16.6681C22.231 16.6293 22.1743 16.7877 22.0975 16.9109C21.5942 17.7186 21.0097 18.9641 20.5346 19.5782C19.9302 20.3592 19.1405 21.1719 18.5417 21.6944C18.0255 22.1448 17.5454 22.583 16.5961 23.2117C15.8361 23.7151 15.0617 24.3013 14.6468 24.4706C14.4178 24.5773 14.2016 24.6702 14.0029 24.7617C13.8953 24.8229 13.7739 24.914 13.6488 25.0078" stroke="#0012D4" stroke-linecap="round"/>
<path d="M10.3372 27.3076C10.2157 25.9305 9.78706 25.0722 9.55617 24.5805C9.37947 24.2042 9.05115 23.7531 8.57787 23.1575C7.22827 21.459 5.86281 21.0836 4.97557 20.7777C3.66406 20.3256 3.13441 20.3477 2.06273 20.2708C1.43754 20.226 0.925747 20.0404 0.603785 20.1011C0.480777 20.1243 0.494318 20.2833 0.509496 20.4369C0.617781 21.5329 2.05445 22.7964 2.69976 23.3198C3.18029 23.7096 3.62011 23.9021 4.37028 24.3317C4.8362 24.5985 5.76162 24.6399 7.05085 24.7926C7.96568 24.8239 8.58845 24.7935 8.78714 24.7323C8.89477 24.7015 9.01619 24.6712 9.23329 24.5479" stroke="#0012D4" stroke-linecap="round"/>
<path d="M10.7051 27.2155C10.7051 24.8597 10.6444 23.3869 10.5064 22.7867C10.3221 21.9848 9.51476 20.114 8.97433 18.833C8.43725 17.56 7.6437 16.887 6.8296 16.1492C5.38962 14.8443 4.20699 14.1236 3.79212 13.878C3.56866 13.7457 3.25582 13.5717 2.93432 13.3725C2.79866 13.2885 2.70388 13.2645 2.73286 13.5979C2.76184 13.9314 2.91362 14.6296 3.38644 15.4598C3.85927 16.29 4.64854 17.231 5.38905 17.989C6.12956 18.747 6.7974 19.2934 7.58161 20.0606C8.36582 20.8278 9.24615 21.7992 9.73002 22.3452C10.2139 22.8911 10.2746 22.9822 10.3371 23.168" stroke="#0012D4" stroke-linecap="round"/>
<path d="M11.901 27.2156C11.901 26.1835 11.901 24.4679 11.8706 22.5071C11.8534 21.3928 11.717 20.2327 11.7929 18.6114C11.8666 17.036 12.6019 15.5403 13.3217 14.3606C14.159 12.9883 15.7314 12.0411 16.299 11.5788C16.876 11.1089 17.7239 10.6907 18.2611 10.2454C19.1169 9.53613 19.6262 9.34025 20.2085 8.85041C20.3426 8.73756 20.3934 8.63562 20.4399 8.66459C21.1381 9.10013 20.18 11.2021 19.9817 12.1418C19.8101 12.9554 18.6548 13.9912 17.7299 15.0698C16.9639 15.963 16.4103 16.1456 15.9655 16.4515C15.4544 16.803 14.817 17.2182 13.9744 17.4026C13.4096 17.5549 12.9754 17.6791 12.6852 17.7251C12.5164 17.7407 12.3039 17.7407 12.0849 17.7407" stroke="#0012D4" stroke-linecap="round"/>
<path d="M11.901 17.8327C11.8393 16.2091 11.901 15.6581 12.3591 13.0138C12.6208 11.5032 12.7289 9.59045 12.607 8.77451C12.4726 7.87521 11.8421 7.01475 11.0468 4.90314C10.3404 3.02739 9.3271 1.61683 9.03596 0.805026C8.91988 0.481372 8.89659 0.327142 8.82024 0.795367C8.567 2.34839 8.49736 3.90736 8.52772 4.76378C8.5803 6.24724 8.74205 6.91357 8.94121 7.42089C9.11143 7.85449 9.6877 9.44879 10.488 10.6548C10.9473 11.3469 11.3785 11.7283 11.6089 12.128C11.6857 12.3115 11.8081 12.5875 11.9612 12.909C12.0233 13.0483 12.0537 13.1394 12.1769 13.3252" stroke="#0012D4" stroke-linecap="round"/>
<path d="M11.993 17.6487C10.3693 15.7187 9.45405 14.3168 8.95823 13.3578C8.8966 13.2341 8.83589 13.1431 8.77425 13.0506C8.71262 12.9582 8.65191 12.8671 8.58936 12.7733" stroke="#0012D4" stroke-linecap="round"/>
</svg>
