<svg width="42" height="48" viewBox="0 0 42 48" fill="none" xmlns="http://www.w3.org/2000/svg">
<path d="M18.7188 46.4517C18.5234 45.9957 18.4227 44.8488 18.5041 43.0274C18.5847 41.2238 18.9813 40.1697 19.1126 39.7927C19.2745 39.3275 19.4087 38.8215 19.8987 37.9875C20.8684 36.3371 21.9402 35.1046 22.4327 34.5791C22.8307 34.1543 23.7779 33.2018 25.0427 31.8541C25.8528 30.9908 26.872 30.2389 27.9552 28.9268C29.0791 27.5653 29.5417 26.5497 29.7544 26.1076C30.0874 25.4153 30.886 23.9274 31.8547 22.0216C33.1273 20.1019 33.6514 18.7932 33.983 17.9306C34.0166 17.7984 34.0166 17.6681 34.0166 17.5339" stroke="#0012D4" stroke-linecap="round"/>
<path d="M18.7188 46.8464C18.1325 45.5437 17.7002 44.4817 17.3237 43.0101C17.0489 41.9363 16.7192 40.1707 16.5346 38.5318C16.3501 36.893 16.3501 35.4274 16.3338 34.5421C16.3127 33.3954 16.2514 32.3461 16.2839 30.9175C16.2987 30.2699 16.3817 29.782 16.4152 28.4555C16.4488 27.129 16.4488 24.9795 16.4651 23.7907C16.4886 22.074 16.58 21.4185 16.6294 20.1932C16.6682 19.2291 16.6462 17.5674 16.6136 16.5814C16.5515 14.702 16.3836 13.7203 16.3175 12.4071C16.2849 12.075 16.2198 11.847 16.1862 11.6644C16.1527 11.4819 16.1527 11.3516 16.1527 11.2173" stroke="#0012D4" stroke-linecap="round"/>
<path d="M18.5214 46.9452C17.7397 45.8378 17.2393 45.0719 16.8959 44.4827C16.3073 43.4731 15.4983 41.9216 14.8741 40.2946C14.2804 38.7473 13.4583 37.7724 12.8977 36.9957C12.4676 36.3997 11.9443 35.7314 11.5318 34.8742C11.2387 34.2653 10.1717 32.8751 8.96814 31.4539C8.45741 30.8508 8.22546 30.3663 7.79811 29.8565C7.4359 29.2471 6.87827 28.5266 6.38528 27.7706C6.18542 27.4706 6.08771 27.3403 5.98705 26.91" stroke="#0012D4" stroke-linecap="round"/>
<path d="M23.0614 34.1147C23.6516 34.4424 24.5043 34.9023 25.9961 35.0849C26.8559 35.1901 28.3929 35.1017 29.5072 35.0365C31.2806 34.9328 32.4325 34.544 33.5473 34.1019C34.9694 33.5378 36.1178 32.7034 36.9385 32.0307C37.7378 31.3756 38.0631 30.761 37.998 30.4812C37.8858 29.9994 35.9372 30.6604 34.4809 30.4965C33.7888 30.4187 32.546 30.3643 31.5354 30.4462C30.5949 30.5224 28.9594 30.9545 27.9498 31.2515C26.2946 31.971 24.1826 33.2245 23.6881 33.6197C23.5884 33.7189 23.5233 33.8166 23.2588 34.016" stroke="#0012D4" stroke-linecap="round"/>
<path d="M27.8974 29.3774C28.9397 28.9214 29.9 28.5562 30.6555 28.3426C31.2059 28.1869 32.6881 27.8022 34.8402 27.0635C37.1566 26.2683 37.8933 25.1394 38.0966 24.4934C38.2635 23.9633 36.6537 24.1801 35.5513 24.2116C35.1679 24.2226 34.6522 24.4071 34.4326 24.4579C34.3125 24.4857 35.1279 24.0192 36.6695 23.0031C37.5177 22.4441 38.4065 21.6614 39.0229 21.0475C40.7846 19.2928 40.6292 17.4717 40.5803 16.9126C40.5623 16.7067 40.4338 16.6792 40.3183 16.6787C39.6888 16.676 38.3355 17.6267 37.4566 18.1577C36.819 18.5429 36.257 19.044 35.7783 19.4244C35.5398 19.614 35.3006 19.7703 35.2665 19.7876C34.1819 20.3378 37.009 17.6366 37.2069 16.8953C37.4874 15.8448 37.6683 14.8731 37.7502 13.8215C37.8808 12.1452 37.6683 11.1582 37.8647 10.266C38.0016 9.64432 38.4223 8.72336 38.6543 7.89975C38.8932 7.05119 37.3742 8.55064 36.7825 9.02784C35.6572 9.93544 33.6928 11.4424 33.1629 12.0706C32.5589 12.7865 31.9163 14.1664 31.2876 16.1615C30.7723 17.7971 30.9906 18.7794 30.8588 19.4234C30.8283 19.5725 30.7932 19.7348 30.695 19.7536C30.5968 19.7723 30.4339 19.642 30.2849 19.4121C29.3992 18.0454 29.8062 16.0574 29.5925 15.3488C29.3335 14.4897 29.0502 13.6216 28.6066 12.947C28.5026 12.7889 28.3929 12.6998 28.2611 12.7472C27.3039 13.0914 27.1099 14.6027 26.5014 16.015C26.2843 16.519 26.3183 17.982 26.3509 19.9549C26.3769 21.5321 26.8118 22.6305 26.8937 23.1901C26.9895 23.8443 27.0092 25.2203 26.9273 26.266C26.9105 26.6751 26.8779 27.0077 26.8286 27.4489C26.8118 27.7923 26.8118 28.3786 26.8118 28.8839" stroke="#0012D4" stroke-linecap="round"/>
<path d="M11.0205 34.8056C10.8251 34.8056 9.87762 34.8382 8.36659 34.8387C7.2389 34.839 5.66924 33.9568 3.90999 32.9047C2.1969 31.8802 1.18649 29.6458 0.872144 29.0665C0.812163 28.9559 0.789734 28.8207 0.82181 28.7048C1.13952 27.5561 3.74863 27.668 3.86459 27.438C4.15519 26.8618 2.63337 26.8784 1.74708 25.6333C0.5914 24.0099 0.659456 22.5101 0.542501 21.157C0.42076 19.7485 0.590369 17.5734 0.673766 16.7631C0.733378 16.1839 0.853886 15.6281 1.00193 15.4781C1.92027 14.5475 1.7076 18.0234 2.21736 18.7804C3.25175 20.3165 4.50069 20.4928 5.1955 20.9044C5.91145 21.3284 6.5121 21.8745 6.85753 22.1232C7.08831 22.2894 7.07269 20.9626 7.18668 19.9095C7.22492 19.5562 7.52866 19.6381 7.71125 19.7856C8.37649 20.3232 8.32218 21.0179 8.4865 21.4151C8.66588 21.8487 9.30913 20.7918 9.45668 20.6275C9.59406 20.4745 10.1934 21.5044 11.0634 23.3436C11.7653 24.8274 12.3026 25.5598 12.532 25.9363C12.882 26.5106 13.0921 27.3334 13.2402 28.3494C13.5966 30.7955 12.9628 31.8092 12.765 32.3525C12.4684 32.962 12.272 33.4219 12.0415 33.9312C11.9433 34.1444 11.7805 34.4701 11.6127 34.9043" stroke="#0012D4" stroke-linecap="round"/>
<path d="M16.3501 25.5283C17.0015 25.3328 17.4673 25.167 17.8927 24.8892C18.6826 24.3733 19.6347 23.2652 20.5545 21.9846C21.2953 20.9533 21.58 20.1355 21.8746 19.2522C22.8284 16.3924 22.7653 15.2363 22.7164 14.5281C22.6798 13.9973 21.8454 15.5245 21.4512 15.8877C21.3301 15.9992 21.1565 16.1166 21.0564 16.1186C20.3706 16.1321 21.4487 14.3125 21.5642 13.328C21.8097 11.2346 20.9907 9.57708 20.5955 8.86746C20.1982 8.15431 19.5439 7.53408 17.8211 5.74769C16.6711 4.55514 16.5159 3.62179 16.1867 2.94573C15.92 2.39781 15.7915 1.77816 15.6765 0.790218C15.5043 -0.689629 15.067 3.90011 15.149 5.32478C15.2439 6.97641 14.2794 9.00859 13.9987 9.5381C13.781 9.94855 13.4899 10.3607 13.062 10.7876C12.402 11.4461 12.3055 12.6248 12.1723 13.6808C12.0854 14.3692 12.0075 15.1613 11.9749 15.6883C11.9235 16.5206 10.5942 13.5575 10.3479 12.9648C10.2692 12.7753 10.1342 12.8932 10.0513 13.1064C9.63263 14.1831 10.227 15.8127 10.723 16.7749C11.417 18.1216 12.0706 20.1632 12.6465 21.0006C13.4957 22.2355 13.782 22.8931 14.3248 24.6824C14.7038 25.5263 15.066 26.0207 15.2629 26.2014C15.3621 26.2843 15.4598 26.3494 15.5605 26.2191" stroke="#0012D4" stroke-linecap="round"/>
<path d="M15.4618 26.0217C15.4618 26.0868 15.6247 26.1204 15.9365 26.0715C16.0856 26.0227 16.2158 25.925 16.3318 25.7769C16.4478 25.6289 16.5455 25.4335 16.7448 25.2321" stroke="#0012D4" stroke-linecap="round"/>
</svg>
