<svg width="30" height="41" viewBox="0 0 30 41" fill="none" xmlns="http://www.w3.org/2000/svg">
<path d="M11.6542 12.131C12.1102 12.9126 13.0942 14.1621 14.62 15.9989C15.424 16.9667 16.1784 18.0961 16.7113 18.9109C17.5466 20.1878 17.871 21.0106 18.0353 21.5525C18.1674 21.9879 18.3635 22.8167 18.7899 24.4383C19.4055 26.7798 19.5498 28.4138 19.5824 28.889C19.6654 30.1 19.8775 31.3352 19.9609 32.4095C20.0029 32.9504 20.0433 34.3592 20.027 36.0859C19.9446 37.1641 19.912 37.8885 19.8627 38.494C19.8459 38.9041 19.8459 39.5229 19.8459 40.0618" stroke="#0012D4" stroke-linecap="round"/>
<path d="M17.5759 20.1254C17.5108 19.1483 17.8355 17.7981 18.4272 16.4337C19.2824 15.0317 20.2397 13.8424 20.4855 13.6949C20.6335 13.6124 20.8289 13.5147 21.1289 13.3154" stroke="#0012D4" stroke-linecap="round"/>
<path d="M17.2798 20.5201C15.9326 20.0602 14.4295 19.7325 13.1381 19.7463C12.2774 19.7555 11.8536 20.2556 10.8029 21.207C10.5695 21.4399 10.4718 21.5702 10.3889 21.7025C10.306 21.8347 10.2409 21.965 10.0751 22.0992" stroke="#0012D4" stroke-linecap="round"/>
<path d="M17.4772 19.8293C16.6225 17.3639 16.4903 16.1203 16.6867 14.5214C16.8009 13.5915 17.0489 12.8258 17.8187 11.3642C18.5842 9.91069 19.3169 9.69916 19.7294 9.35224C19.8189 9.27701 19.8775 9.17212 19.9436 9.20321C20.1555 9.30285 20.142 10.0209 20.142 10.6141C20.142 11.0476 20.6335 9.6656 21.7823 8.79511C22.3552 8.36101 22.9351 8.31545 24.4121 8.33074C26.027 8.34747 26.5868 8.84051 27.5733 9.41442C28.4138 9.9034 28.7936 10.8124 29.0073 11.3232C29.1847 11.7471 29.1884 12.2929 29.3202 12.8036C29.3503 12.9204 29.3858 13.0173 29.028 12.9374C28.6703 12.8574 27.9212 12.5969 27.1444 12.6906C24.289 13.0353 23.9931 14.859 23.7621 15.2212C23.5283 15.588 24.7787 14.8629 25.2559 14.6976C25.6647 14.556 25.964 14.4671 26.1121 14.5155C26.3791 14.6027 26.1299 15.1235 26.0479 15.3697C25.8908 15.8421 25.44 16.1756 24.227 17.0949C23.166 17.8991 22.4159 18.1495 21.4793 18.4135C19.5844 18.8749 18.8629 18.941 18.3507 19.0229C18.2352 19.0397 18.1049 19.0397 17.9707 19.0397" stroke="#0012D4" stroke-linecap="round"/>
<path d="M16.6877 20.6188C15.6375 19.7976 14.848 19.3377 14.125 18.9262C13.1033 18.3445 12.2523 18.0882 11.2298 17.8558C10.3276 17.6507 8.27683 17.952 7.34662 18.2491C6.61185 18.4838 5.90221 18.9054 5.35544 19.3343C4.92275 19.6736 4.68036 20.222 4.46669 20.6336C4.23129 21.087 4.02305 21.961 3.74325 22.8034C3.54441 23.402 3.46246 24.1027 3.5276 24.5311C3.60035 25.0095 4.34874 24.1067 5.38258 23.9093C5.66131 23.8561 5.89234 23.8757 5.96094 23.9083C6.27453 24.0572 5.24095 24.4008 4.87825 24.8444C4.58892 25.1983 4.09214 26.1063 3.43186 26.8183C3.29484 26.9661 3.07162 27.032 3.03609 27.0824C2.80991 27.4028 3.95396 26.9037 4.51307 26.7221C5.01071 26.5605 5.49953 26.0826 5.92837 25.7194C6.03514 25.6289 6.12526 25.4904 6.24074 25.3744C6.35621 25.2585 6.48649 25.1608 6.5536 25.3384C6.97826 26.4625 6.45688 26.8682 6.42332 27.0656C6.32444 27.6472 7.99851 26.8366 8.52702 26.7384C9.14103 26.6243 9.70989 26.2128 10.8276 25.6379C11.3863 25.3506 11.9147 25.0936 12.6712 24.6342C13.2411 24.2881 13.8887 23.7455 14.3338 23.3837C14.7958 23.0083 15.1066 22.5295 15.5018 22.1826C15.9132 21.8216 16.2258 21.4103 16.5712 21.015C16.6541 20.9159 16.7192 20.8182 16.7854 20.7027C16.8515 20.5872 16.9166 20.4569 16.9837 20.3227" stroke="#0012D4" stroke-linecap="round"/>
<path d="M8.19985 8.57794C7.60866 9.62905 7.14972 10.2854 6.42579 12.353C6.20016 12.9975 6.22593 13.4446 6.35621 13.8715C6.42561 14.0989 6.74705 14.2332 7.10926 14.3171C7.47147 14.401 7.92745 14.401 8.32519 14.2381C9.77486 13.6446 9.84411 12.4962 10.0573 12.0175C10.375 11.3042 11.745 11.4401 12.654 11.1134C14.3012 10.5214 14.5144 9.63398 14.697 9.15531C14.7848 8.92516 14.616 8.61249 14.354 8.28432C14.0349 7.88464 13.5314 7.75581 13.1702 7.70646C12.6468 7.63496 12.1832 7.91866 11.3453 8.10026C10.3959 8.30601 9.48881 8.47925 8.84334 8.56116C8.69553 8.57992 8.49988 8.57794 8.38293 8.52909C7.94092 8.34445 7.93929 7.42913 7.39597 7.00029C6.82577 6.55025 5.08896 5.49469 3.94163 4.79593C3.61152 4.59488 3.36475 4.33502 3.18414 4.12184C2.99868 3.90294 2.90384 3.44874 2.80515 2.84176C2.70236 2.20963 2.93444 1.63866 3.34403 1.17923C3.83247 0.631349 4.3823 0.484909 4.64483 0.501194C5.23158 0.53759 5.66534 1.07511 6.04335 1.51924C6.53824 2.1007 6.61973 2.45783 6.8492 2.60588C7.46039 3.00019 8.49198 2.13115 9.18433 1.9002C9.34435 1.84683 9.5125 1.86665 9.6941 1.9155C10.6871 2.18263 11.3542 3.86819 11.8175 4.59508C12.1142 5.06045 12.049 6.16977 11.9345 6.79994C11.8851 6.89913 11.82 6.99684 11.7539 7.09603C11.6877 7.19522 11.6226 7.29293 11.3581 7.59099" stroke="#0012D4" stroke-linecap="round"/>
<path d="M3.65985 4.92621C2.64131 5.12261 2.18139 5.51641 1.81868 6.04245C1.3642 6.70161 1.6208 7.49032 1.29264 8.04943C1.1392 8.31084 0.832221 8.64111 0.585482 9.14988C0.374486 9.58496 0.5993 10.0238 0.812482 10.3357C1.1941 10.894 2.27021 11.2723 3.09827 11.5383C3.75336 11.7487 4.21649 11.9987 4.92315 12.1142C5.49558 12.131 6.02657 12.0658 6.37151 11.9346C6.52103 11.8685 6.61874 11.8033 6.71941 11.7362" stroke="#0012D4" stroke-linecap="round"/>
</svg>
