<svg width="28" height="41" viewBox="0 0 28 41" fill="none" xmlns="http://www.w3.org/2000/svg">
<path d="M14.725 40.1438C14.725 40.1154 14.6957 39.6732 14.6368 38.5004C14.5882 37.533 14.5779 35.8069 14.4751 34.3917C14.2952 31.9147 13.9868 30.7514 13.9279 30.5308C13.6799 29.6022 13.8096 28.5068 13.7653 27.1452C13.7248 25.9012 13.7502 23.532 13.7648 22.2532C13.7808 20.857 13.8388 20.5908 13.8534 20.4132C13.873 20.1753 13.8388 21.4105 13.7653 22.2989C13.6578 23.5967 13.8973 24.0725 13.9713 24.7668C13.9835 24.8808 14.1029 24.8435 14.2066 24.7699C14.7538 24.3817 15.1964 23.8705 15.5801 23.4119C15.8882 23.0437 16.0826 22.3658 16.2456 21.9781C16.2628 21.9372 16.3484 22.0645 16.3785 22.1536C16.5309 22.6039 15.9674 23.275 15.3329 23.8071C14.9041 24.1667 14.6381 24.7814 14.2832 25.1518C14.2029 25.2357 14.1064 25.2848 14.1197 25.3149C14.2817 25.6819 15.106 24.9622 15.8889 24.7548C16.5033 24.5921 17.4685 24.9604 18.2226 24.9759C18.5069 24.9818 18.741 24.7557 18.9475 24.4757C19.2466 24.07 19.185 23.7216 19.1416 23.676C18.5455 23.0495 18.2714 24.6645 17.0786 25.0482C16.0448 25.3807 15.5544 25.4336 14.993 25.5072C14.4595 25.5771 14.1942 25.758 14.0466 25.9051C13.9709 25.9806 13.9576 26.1107 13.9864 26.2294C14.2279 27.2251 16.4955 26.9401 17.3489 27.0136C19.1774 27.1712 19.831 26.8231 20.321 26.5865C20.798 26.3562 21.1921 25.9671 21.547 25.6711C21.9489 25.336 22.314 24.9339 22.6255 24.5488C23.1316 23.9232 24.143 22.4872 25.042 20.9555C25.9721 19.3708 26.3034 18.1991 26.4944 17.5668C27.0033 15.8819 27.101 15.071 27.1457 14.0355C27.1649 13.5911 27.2197 13.0018 27.1905 12.2357C27.1611 11.4652 26.8085 10.3469 26.4102 9.1515C26.0157 7.9675 25.5679 6.68268 24.801 5.24978C24.0768 3.89684 22.8262 2.78716 22.0818 2.02596C21.6329 1.56694 20.6392 1.03967 19.8522 0.695844C19.6974 0.628193 19.5137 0.593051 18.6338 0.5483C17.7538 0.503549 16.1747 0.474306 15.0103 0.532349C13.1353 0.625816 12.2748 1.00422 11.9509 1.23994C11.0861 1.86931 9.65088 2.21471 8.58484 2.64316C7.37344 3.13004 6.48555 3.60419 6.04247 3.88422C5.61107 4.15686 5.24493 4.43009 4.81648 4.79961C4.2 5.3313 3.3273 6.46469 2.66047 7.51522C2.36369 7.98278 2.29051 8.68184 1.9068 10.3332C1.71741 11.1483 1.49297 11.6664 1.12389 12.6545C0.897428 13.2607 0.548332 14.1441 0.501809 16.312C0.461513 18.1898 1.10661 19.2253 1.22535 20.3037C1.33461 21.296 1.87224 22.5616 2.59401 23.8439C3.76984 25.9328 4.82667 26.4953 5.71194 26.8355C6.69554 27.2136 7.39651 27.0872 7.95833 27.1466C9.37072 27.2958 11.207 27.2361 11.7395 27.0296C12.5061 26.7324 13.2167 26.497 13.5424 26.3796C13.9619 26.2284 13.3674 25.3468 13.0572 24.6241C12.8546 24.152 12.3643 23.8988 11.8911 23.5594C11.4063 23.2117 11.1821 22.777 10.8272 22.3339C10.6505 22.0982 10.4431 21.9192 10.2074 21.889C10.0886 21.9174 9.97166 22.0344 10.0284 22.3321" stroke="#0012D4" stroke-linecap="round"/>
<path d="M13.4843 25.9653C13.1015 25.4939 12.6886 25.1394 12.0253 24.9321C11.2197 24.6802 10.5352 24.9906 10.0297 24.917C9.9406 24.902 9.85288 24.902 9.76382 24.8727C9.67476 24.8435 9.58703 24.785 9.49664 24.6361" stroke="#0012D4" stroke-linecap="round"/>
</svg>
