<svg width="30" height="41" viewBox="0 0 30 41" fill="none" xmlns="http://www.w3.org/2000/svg">
<path d="M9.90808 39.8883C9.90808 39.1545 9.99946 37.5872 10.0922 36.4319C10.1628 35.5524 10.3234 32.8951 10.3006 29.5273C10.2882 27.7024 10.0022 26.6053 9.79317 25.7684C9.63574 25.1382 9.63118 24.2932 9.53911 22.7052C9.50569 22.1288 9.5841 21.3968 9.92746 20.9288C11.1151 19.3101 12.259 19.6302 12.8135 19.3754C13.443 19.0862 14.1502 18.4783 14.8667 17.624C15.4645 16.9113 15.6759 16.1246 15.9528 15.3624C16.262 14.5115 16.1384 13.6782 16.0927 13.1251C16.0731 12.8881 15.9556 12.7547 15.7486 12.6841C15.5416 12.6135 15.2218 12.6135 14.92 12.7505C13.5578 13.3692 12.9097 14.3192 12.7013 14.5504C11.6949 15.6672 15.8116 10.8219 16.1148 9.71016C16.32 8.95781 16.047 8.32288 15.84 8.06952C15.3762 7.50183 14.4327 7.81339 14.0872 7.90546C13.9238 7.94902 13.7875 7.99753 13.8311 7.54133C13.9683 6.10631 14.3385 4.81731 14.27 4.24135C14.1556 3.28043 13.0038 2.78624 12.0347 2.41519C11.6443 2.26573 11.294 2.4138 10.9949 2.55156C10.1505 2.94055 10.0008 3.88969 9.84024 4.00599C9.12819 4.52161 8.66479 2.64778 8.1103 1.86346C7.86483 1.51626 7.41873 1.2162 6.86631 0.870768C6.33342 0.537543 5.30044 0.429802 4.10145 0.544024C3.62192 0.589707 3.45073 0.88669 3.35659 1.36988C2.94538 3.48034 3.90485 4.43934 4.34582 5.54833C4.78266 6.64696 4.7854 7.5351 4.71687 7.72062C4.32791 8.77354 2.57295 6.24474 2.08907 6.29043C1.7178 6.32548 1.46396 6.65871 1.2106 7.07198C0.835276 7.68419 0.908775 8.82269 0.977308 9.86038C1.0464 10.9065 2.24344 11.5945 2.77648 12.4487C3.16109 13.0651 2.98554 14.8148 3.28528 15.9121C3.51952 16.7695 1.8807 15.568 1.00431 15.5895C0.658412 15.5979 0.586184 16.0734 0.516959 16.3724C0.480044 16.5319 0.493422 16.7172 0.653333 16.9255C1.41547 17.9186 2.29051 18.0574 2.79932 18.7946C3.15701 19.3129 3.16829 20.04 3.5608 20.6415C3.96265 21.2574 5.64933 21.7928 6.72163 22.1887C7.45888 22.5806 8.24528 22.9045 8.52149 22.9966C8.66064 23.043 8.7977 23.0887 8.93892 23.1357" stroke="#0012D4" stroke-linecap="round"/>
<path d="M10.6003 30.4736C10.8745 29.6457 11.6138 28.815 13.0405 27.364C13.4685 26.9288 13.6919 26.6911 13.7383 26.3229C13.7847 25.9548 13.6463 25.4922 13.7148 24.9397C13.8866 23.5546 15.7175 22.7231 16.2754 22.123C17.2642 21.0593 17.0106 17.75 17.6593 16.2859C18.4442 14.5141 21.5352 13.3528 22.5493 13.3971C23.0097 13.4172 23.1066 13.9966 23.1758 14.2728C23.344 14.944 22.9695 15.658 22.8311 15.9571C22.7602 16.1101 22.784 16.3018 22.8982 16.3046C23.8497 16.3276 24.8995 14.9727 25.8043 14.3919C26.5001 13.9452 27.3031 13.7211 27.9254 13.8125C28.4002 13.8822 28.5519 14.4576 28.6903 15.0544C28.9287 16.0817 28.6917 16.9497 28.554 17.3637C27.9297 19.2396 25.8299 20.9634 25.8985 21.4937C25.9907 22.2077 26.8434 22.6705 26.9147 23.6168C26.9686 24.3316 25.5613 25.4811 24.3575 26.2952C23.1079 27.1402 21.5906 26.5056 20.5508 26.0923C19.2476 25.5744 18.4934 24.7058 18.1944 24.613C17.3826 24.3612 17.0162 25.902 16.1882 26.8012C15.4475 27.3349 14.8494 27.4277 14.2734 27.382C14.0173 27.3363 13.8346 27.245 13.3694 27.0124" stroke="#0012D4" stroke-linecap="round"/>
</svg>
