<svg width="42" height="37" viewBox="0 0 42 37" fill="none" xmlns="http://www.w3.org/2000/svg">
<path d="M26.1115 0.952822C23.2654 1.52142 22.4389 1.83213 20.6034 2.70988C19.2313 3.36603 18.552 5.5047 18.4735 6.51605C18.383 7.68336 18.4463 9.13066 19.2977 10.3215C19.719 10.9108 20.6182 10.8955 21.3421 10.8699C22.3052 10.8358 23.2064 10.0193 23.7796 9.31864C23.9123 9.15653 23.9863 8.93181 24.0391 8.90307C24.505 8.64953 24.6605 10.1156 25.3829 10.8147C25.9459 11.3595 26.4207 11.7235 26.7818 11.8268C27.2386 11.9575 27.8173 11.983 28.4628 11.9061C29.1916 11.8192 29.7344 11.158 30.0451 10.5118C30.2633 10.0578 30.0482 9.60294 29.9953 9.4204C29.8904 9.05756 30.6665 10.2197 31.0541 10.6337C31.3247 10.9228 32.0616 10.8955 32.9409 10.8442C33.5319 10.8098 33.8264 10.431 34.033 10.121C34.2396 9.81111 34.3453 8.98618 34.4478 7.95075C34.4855 7.56966 34.7554 7.53052 35.0917 7.50411C36.6727 7.37996 37.6046 8.14882 38.3814 8.46031C39.2492 8.80831 39.8821 9.39166 40.5058 9.52371C40.8205 9.59032 40.6635 8.82617 40.5089 8.41293C40.1166 7.36406 38.2415 5.62587 36.7066 4.32245C35.231 3.06932 34.3484 2.66482 33.5972 2.19721C32.4781 1.5005 30.4148 1.161 29.558 0.979232C28.9094 0.901555 28.187 0.694934 27.3582 0.513169C27.0483 0.486759 26.5869 0.486759 25.9561 0.642113" stroke="#0012D4" stroke-linecap="round"/>
<path d="M17.8777 35.5968C17.8265 35.4943 17.7752 35.3917 17.7488 33.6984C17.7224 32.005 17.7224 28.7239 17.748 26.9055C17.7736 25.0871 17.8249 24.8308 17.8513 23.6221C17.9248 20.261 17.929 17.7342 18.0323 17.1912C18.2042 16.2876 18.5986 14.2232 19.119 13.0728C19.4825 12.4506 19.6892 11.9845 19.8701 11.6746C19.9486 11.5185 19.9999 11.3647 20.208 10.8955" stroke="#0012D4" stroke-linecap="round"/>
<path d="M17.7224 35.2861C17.7224 33.223 17.4148 30.0196 17.2051 28.5321C16.993 27.0281 16.2248 25.6075 15.1629 24.5441C14.335 23.715 13.0121 23.0162 11.4639 21.6732C9.52226 19.9887 8.92313 19.0298 8.35143 18.2003C7.66292 17.2012 6.85071 16.336 5.73837 14.502C5.19153 13.1264 4.88082 11.576 4.69905 10.1242C4.67264 9.75986 4.67264 9.40099 4.98335 9.03125" stroke="#0012D4" stroke-linecap="round"/>
<path d="M13.5278 23.1685C13.3212 22.8096 13.2171 20.8506 13.5775 19.2124C13.9635 17.4581 14.3046 16.3889 14.4335 15.2004C14.7467 12.3143 13.9442 10.7464 13.2202 9.55327C12.6486 8.6113 11.822 8.15508 11.1229 7.55775C10.1099 6.69215 9.33635 6.44308 8.45627 5.92653C6.87235 4.99686 4.83108 3.13093 4.23452 2.63768C3.95169 2.40382 3.69079 1.78556 3.30318 1.16415C3.15541 0.92724 2.96684 0.952866 2.8107 1.0554C1.94599 1.62327 1.56865 3.63428 1.04977 5.44881C0.420865 7.64808 0.478062 9.75057 0.529329 10.9895C0.589368 12.4405 1.25017 14.405 2.02617 16.3197C2.43819 17.3364 2.85809 17.7808 3.7071 18.4504C7.13156 21.1511 9.01943 22.3389 9.97564 22.7265C11.7645 23.1685 12.5413 23.2198 13.0066 23.2974C13.2155 23.3239 13.3693 23.3239 13.5278 23.0132" stroke="#0012D4" stroke-linecap="round"/>
<path d="M7.00293 16.0222C7.00293 14.7918 7.15673 13.7478 7.5692 12.7675C8.18673 11.4796 8.71027 10.5864 9.0202 10.3021C9.17633 10.1716 9.33013 10.069 9.33324 10.1187" stroke="#0012D4" stroke-linecap="round"/>
<path d="M6.53691 16.0222C6.02424 15.0994 5.5038 14.4702 5.03852 14.2115C4.3635 14.0026 3.64111 13.9 2.83715 13.7959C2.65461 13.7447 2.50081 13.6421 2.34235 13.5365" stroke="#0012D4" stroke-linecap="round"/>
<path d="M17.7224 35.7521C17.7224 34.719 18.1325 32.6606 18.6273 31.121C18.9234 30.1998 19.686 29.3857 20.6694 28.5321C22.9875 26.5198 26.2109 25.7069 26.9115 25.345C27.6635 24.9814 28.1295 24.8261 28.4395 24.7228C28.5956 24.6707 28.7494 24.6195 29.0632 24.5667" stroke="#0012D4" stroke-linecap="round"/>
<path d="M24.4026 26.4309C24.4026 24.2575 24.6077 23.4326 25.5118 21.9831C25.9866 21.222 26.7811 20.7372 27.4273 20.2975C28.8932 19.3004 31.9559 20.1111 32.944 20.2424C33.7857 20.3542 34.6 20.7325 35.275 20.8638C36.3963 21.0819 38.0706 20.891 38.8987 20.7869C39.4816 20.7136 39.9877 20.3224 40.2472 20.1399C40.8543 19.7126 39.475 21.559 39.0074 22.3886C38.4228 23.4258 37.4026 24.4082 36.472 25.4172C35.836 26.1069 35.1251 26.8411 34.0648 27.645C33.1842 28.3128 32.1765 28.6028 31.319 28.9158C29.8319 29.4586 27.9788 28.9694 26.8409 28.6074C26.113 28.1926 25.5957 27.6769 25.3099 27.0547C25.2322 26.8985 25.1296 26.7447 24.7133 26.4309" stroke="#0012D4" stroke-linecap="round"/>
</svg>
