<svg width="45" height="45" viewBox="0 0 45 45" fill="none" xmlns="http://www.w3.org/2000/svg">
<path d="M12.6001 34.018C12.4397 34.018 12.1566 34.0982 11.7926 34.3801C10.9457 35.0362 11.2635 36.8808 11.3643 37.9446C11.3986 38.3063 11.4251 38.7144 11.546 39.0783C11.6035 39.2513 11.7471 39.362 11.9694 39.424C12.496 39.5708 13.605 39.3256 14.8395 39.0826C15.4659 38.9592 16.6002 38.8395 18.1786 38.5965C19.0292 38.4655 19.6841 38.4337 21.6149 38.3122C23.1422 38.2161 25.7912 38.2709 27.2147 38.2909C29.0454 38.3167 29.6892 38.4726 30.9232 38.4938C31.1906 38.4984 31.3102 38.4337 31.4724 38.2727C32.3971 37.3549 31.9615 35.8042 31.8193 35.114C31.754 34.7968 31.6783 34.5053 31.4359 34.303C30.9735 33.917 30.1813 33.9779 27.5707 33.9172C25.2413 33.863 20.87 33.8965 18.5583 33.9166C16.2466 33.9366 16.1263 33.9767 15.4428 33.9974C14.7593 34.018 13.5163 34.018 12.2355 34.018" stroke="#0012D4" stroke-linecap="round"/>
<path d="M12.6001 39.486C12.6402 40.294 12.8018 41.1021 12.964 41.6713C13.1046 42.1647 13.368 42.6428 13.7125 43.0894C14.0685 43.5509 15.1469 43.4545 17.6938 43.5159C18.3912 43.5327 20.1179 43.6173 22.5475 43.6374C24.7024 43.6551 27.0573 43.6586 28.2901 43.5973C29.1691 43.5535 29.8108 43.2552 30.3187 42.8093C30.9594 42.2467 30.6638 41.4326 30.685 40.119C30.665 39.8116 30.6249 39.6512 30.5842 39.5085C30.5435 39.3657 30.5034 39.2454 30.4621 38.9999" stroke="#0012D4" stroke-linecap="round"/>
<path d="M21.3488 33.6535C21.2273 33.453 21.1471 32.7252 21.1459 29.7166C21.1453 28.3282 21.5505 27.5416 21.9144 26.2669C22.1006 25.6148 22.3986 23.505 22.9248 20.7115C23.2516 18.976 23.5749 18.1051 23.7984 17.1318C24.2616 15.1157 24.7511 12.1098 24.8519 11.4196C24.8726 11.2568 24.8726 11.0964 24.8926 10.9135C24.9127 10.7307 24.9528 10.5302 25.1156 10.3236" stroke="#0012D4" stroke-linecap="round"/>
<path d="M21.7133 33.6535C21.5918 33.3716 21.9126 32.1638 23.3282 30.0155C23.9132 29.1277 24.8653 28.0713 25.7007 27.3368C26.5138 26.6218 27.8666 25.8793 29.4833 24.9491C30.6864 24.2569 31.4706 23.8136 32.9269 23.2061C35.0272 22.1562 37.6287 20.8561 38.0758 20.6726C38.0783 20.6519 37.9179 20.6519 37.7526 20.6519" stroke="#0012D4" stroke-linecap="round"/>
<path d="M22.0779 33.4104C22.1982 33.007 23.1642 31.9596 24.3021 31.1242C24.8758 30.7031 26.2384 30.2147 28.329 29.9881C29.6827 29.8414 31.1474 29.9669 31.9973 30.25C33.2143 30.5744 34.1827 30.8976 34.9355 31.1212C35.0782 31.182 35.1985 31.2621 35.444 31.3448" stroke="#0012D4" stroke-linecap="round"/>
<path d="M21.4703 33.1675C21.4703 31.9973 21.6307 30.2998 21.9351 29.1813C22.2176 28.1433 22.9649 26.6934 23.5336 25.3963C24.4763 23.2461 25.9225 22.0323 26.4498 21.3032C27.44 19.9344 28.5568 19.3178 29.685 18.2691C31.4123 16.6227 32.9287 15.0273 33.5764 14.1773C33.823 13.8486 33.9032 13.7283 33.9859 13.6044" stroke="#0012D4" stroke-linecap="round"/>
<path d="M21.5918 33.1674C21.5116 32.5259 21.4703 30.6315 21.4503 28.1418C21.4363 26.4037 21.1082 24.8732 20.884 23.6538C20.5675 21.932 20.0146 21.0213 19.3263 20.0073C18.6627 19.0298 17.5455 16.8171 16.9963 15.5515C16.6389 14.7279 16.2065 13.772 14.9944 11.083C14.7472 10.5277 14.7071 10.3673 14.6664 10.1644C14.6257 9.96148 14.5856 9.72089 14.6658 9.3515" stroke="#0012D4" stroke-linecap="round"/>
<path d="M21.1058 33.0459C20.8227 31.6704 20.5809 31.1042 20.3573 30.4966C20.2355 30.1657 20.0936 29.8077 19.9126 29.0829C19.5688 27.7065 18.7218 25.9667 17.791 24.57C17.0783 23.5004 16.2892 22.963 14.5917 21.5687C13.3135 20.5188 11.9148 19.7624 11.2258 19.1962C11.0229 19.0334 10.7823 18.873 10.7185 18.7503C10.6547 18.6275 10.775 18.5473 10.899 18.4647" stroke="#0012D4" stroke-linecap="round"/>
<path d="M20.7412 33.775C20.0948 32.8054 19.6088 31.9961 18.76 30.682C17.6671 28.9899 16.2478 27.1746 15.1566 26.6886C13.8188 26.5257 12.3242 26.3629 11.1098 26.383C10.6571 26.403 10.5368 26.4431 10.2914 26.4844" stroke="#0012D4" stroke-linecap="round"/>
<path d="M21.8348 25.2693C21.7133 24.7043 21.2321 22.0517 20.9442 20.2704C20.8676 19.797 20.661 19.0371 20.5395 17.6859C20.2431 14.3892 20.6197 13.6481 20.7607 12.6766C20.8998 11.7175 21.186 10.8534 21.8524 9.31686C22.1539 8.62185 22.4011 8.13882 23.491 6.84535C24.2143 5.98701 25.2735 5.02088 26.2262 4.08951C26.4234 3.89674 26.4911 3.76447 26.6126 3.82279C27.4021 4.20177 27.5847 5.0549 27.8082 5.82467C28.0568 6.68039 28.3137 7.4049 28.6989 9.60484C28.8982 10.7429 28.7208 11.6565 28.4796 12.7046C28.0802 14.4398 27.1849 16.1087 26.6181 17.2417C26.3063 17.8649 26.0099 18.7017 25.5038 19.6932C24.6828 21.3018 23.8616 23.5657 23.5779 24.1927C23.0317 25.3997 22.768 25.8744 22.3628 26.6636C22.2707 26.8429 22.2407 26.968 22.2 26.9498C21.1746 26.4907 23.2103 23.7358 24.0384 21.9162C25.1539 19.465 25.3975 18.6713 25.7821 17.9617C26.4948 16.6465 27.0573 15.9155 28.3702 14.1991C29.4897 12.7357 30.4158 12.19 31.1686 11.662C32.1471 10.9757 33.6577 9.80108 34.6906 8.96995C35.2252 8.53971 35.5642 8.17771 35.8066 8.03615C35.9247 7.96723 36.0491 7.93469 36.111 8.03433C36.573 8.77715 36.2945 11.7987 36.1535 13.6821C36.1244 14.0718 35.8498 14.5327 35.5879 15.3395C35.2117 16.4987 34.0745 18.3712 32.6395 20.5353C32.009 21.486 31.4049 22.0177 30.2536 22.9284C29.1023 23.8391 27.3781 25.0822 26.3094 25.8829C24.3425 27.3567 23.9831 27.8186 23.4169 28.4662C22.6694 29.3212 22.282 30.2075 21.9575 30.7555C21.7828 31.0506 22.5554 30.1807 24.4527 28.0798C26.5398 25.7689 28.1521 24.8246 28.5349 24.5026C29.7977 23.4402 31.1789 22.0007 32.1407 20.9381C32.9589 20.0341 33.7379 19.4417 34.5697 18.811C35.5759 18.0481 36.9336 17.9009 38.1135 17.6348C39.068 17.4195 40.1366 17.291 41.6944 17.0479C42.2362 16.9634 42.963 17.0066 43.3348 17.147C43.7066 17.2873 43.7066 17.568 43.6264 17.9331C43.4459 18.7549 42.98 19.5948 42.3749 20.5031C41.6017 21.6636 40.7928 22.432 40.1275 22.9163C39.1478 23.6294 38.1208 24.2134 36.8923 24.9995C34.7477 26.372 32.9761 27.0506 32.4505 27.2323C31.4816 27.5672 29.6649 28.3022 27.3101 28.9936C26.2854 29.2944 25.0816 29.561 24.1465 29.8654C23.3834 30.1138 22.8494 30.3314 22.4855 30.473C22.3228 30.5362 22.2018 30.5744 22.4004 30.4547C23.1061 30.0296 24.6599 29.4043 26.9206 28.677C28.1681 28.2757 29.6625 27.9498 30.8077 27.7639C32.6991 27.4569 34.0611 27.6983 35.1724 27.9607C36.9743 28.3864 37.5072 28.832 38.0139 29.2773C38.5872 29.7812 39.0868 30.1686 39.7344 30.5331C40.1924 30.7909 40.6263 31.1006 40.7898 31.3831C41.4128 32.4601 38.6469 32.679 37.252 33.3473C36.2665 33.8194 33.7234 33.775 31.863 33.634C30.8166 33.5548 29.575 32.8855 28.4626 32.3394C26.7879 31.5171 25.8495 31.6291 25.1381 31.4669C24.875 31.3861 24.6308 31.2646 24.3683 31.1431C24.2261 31.1018 24.0657 31.1018 23.9005 31.2233" stroke="#0012D4" stroke-linecap="round"/>
<path d="M22.9284 32.4384C23.8179 31.589 24.3841 31.1042 25.3143 30.2141C25.9906 29.5669 26.5713 29.4419 26.8975 29.2998C27.4555 29.0566 25.5652 29.8429 24.7541 30.27C23.8642 30.7386 22.9722 31.2208 22.4843 31.7075C22.3802 31.8114 22.3622 31.9499 22.4418 31.9317C23.0487 31.4675 23.4533 31.103 23.7766 30.8405C23.9394 30.6984 24.0998 30.538 24.265 30.3727" stroke="#0012D4" stroke-linecap="round"/>
<path d="M20.9843 21.7455C20.9041 21.5037 20.5007 20.0565 20.3567 18.7515C20.2802 18.0581 20.175 17.3347 19.9927 16.2423C19.7098 14.5464 19.5286 13.1693 19.3846 12.0278C19.3335 11.6225 18.9623 10.4949 18.3761 8.9171C17.632 6.9148 16.2089 5.66975 15.3371 4.41455C14.902 3.78816 14.3838 3.39994 13.8383 2.85315C12.941 1.95391 12.1991 1.4971 11.5089 1.04994C11.149 0.81674 10.9403 0.482488 10.7386 0.500715C10.1323 0.555496 10.131 2.17512 9.88798 3.64964C9.64131 5.14633 9.88555 6.3502 10.2276 7.43893C10.7652 9.15006 11.7058 10.6419 12.3322 11.7932C13.4049 13.7649 14.0533 14.8535 15.0673 16.5753C15.6773 17.6109 16.5273 18.421 16.952 19.0693C17.754 20.2935 18.3086 20.9727 19.3597 22.1058C20.0811 22.8835 20.7388 22.9995 21.1052 23.2638C21.482 23.5356 19.2929 22.3992 18.3943 21.7273C17.6232 21.1507 16.8578 20.4526 15.5017 19.2193C14.0125 17.8648 12.9282 17.0091 12.2179 16.4015C11.208 15.5376 9.487 15.0236 7.18135 14.961C6.15188 14.9331 5.59625 15.184 5.13026 15.3243C4.71474 15.4495 5.62784 17.0771 6.73905 18.9976C7.68659 20.6352 9.02891 21.9411 10.162 23.0341C11.3723 24.2016 12.7994 24.9437 13.3273 25.248C13.7911 25.5154 14.9404 25.9546 16.5844 26.4425C17.3697 26.6755 17.8238 26.7675 17.8056 26.8082C17.3298 27.8709 14.8018 26.0834 12.0618 25.0099C11.0453 24.6116 10.4178 23.9351 9.62613 23.7711C8.40163 23.5173 7.25608 23.6484 5.31799 24.0724C3.76584 24.4121 3.00566 24.9023 2.39507 25.3689C1.63276 25.9515 0.814835 26.7675 0.572423 26.8483C0.450305 26.889 0.33001 26.9291 1.59128 27.7117C2.85256 28.4942 5.49904 30.0179 7.22327 30.843C10.5477 32.4337 11.9075 31.7506 12.6177 31.6893C13.5904 31.6052 14.622 31.0629 15.5127 30.7184C16.3657 30.3326 16.7703 30.2512 17.0935 30.2312C17.2563 30.2111 17.4167 30.171 17.9465 30.1297" stroke="#0012D4" stroke-linecap="round"/>
</svg>
