<svg width="27" height="43" viewBox="0 0 27 43" fill="none" xmlns="http://www.w3.org/2000/svg">
<path d="M6.82711 31.4462C6.10312 31.3098 5.1937 31.1298 4.10635 30.924C2.86496 30.6889 1.87506 31.0358 1.51239 31.3078C1.14971 31.5798 0.874291 31.8988 0.715449 32.2615C0.220609 33.3914 0.690225 35.1248 1.00723 35.5788C1.28811 35.9811 2.18593 35.9455 3.07149 35.968C3.55666 35.9804 5.58092 36.1719 8.53415 36.3307C9.78101 36.3978 11.2679 36.4909 13.3349 36.5134C15.6349 36.5385 18.2774 36.5373 18.9591 36.4684C19.8696 36.3765 20.9579 36.2646 22.1386 36.1957C23.7705 36.1006 25.914 35.9919 26.1635 35.7881C26.8849 35.1987 26.2808 33.6304 26.0524 32.9712C25.832 32.335 25.8704 31.7202 25.7347 31.4707C25.4454 30.9386 22.3513 31.0371 19.4486 31.1728C17.6199 31.2583 16.2376 31.3548 15.0637 31.423C12.6339 31.5641 10.9188 31.4012 10.2644 31.333C8.84502 31.3098 7.73789 31.2648 7.28523 31.1967C7.01254 31.1735 6.65259 31.1735 6.41808 31.1735" stroke="#0012D4" stroke-linecap="round"/>
<path d="M3.96387 36.491C4.14384 37.2122 4.59923 38.6698 4.78126 39.6003C4.94687 40.447 5.14461 41.0776 5.62046 41.5119C5.88495 41.7532 6.32536 41.7171 8.75775 41.7852C11.0094 41.8483 15.3296 41.8084 17.6222 41.7859C20.0507 41.7621 20.5039 41.6721 21.0486 41.6271C21.742 41.5698 21.915 40.7204 22.1421 39.9937C22.4597 38.977 22.5968 38.2662 22.6656 37.6069C22.6881 37.4467 22.7331 37.3118 22.7563 37.1072C22.7795 36.9027 22.7795 36.6328 22.7795 36.3546" stroke="#0012D4" stroke-linecap="round"/>
<path d="M10.9174 7.44948C9.10405 7.58447 7.7406 8.21847 7.12432 8.69772C6.63101 9.08135 6.42078 10.0346 6.3267 11.2855C6.30744 11.5417 6.46168 11.6734 6.59803 11.788C7.29598 12.3743 8.55049 12.3552 9.00724 12.9012C9.44498 13.4246 10.0503 13.9013 10.6427 14.0847C11.2828 14.2828 11.7791 13.0424 12.0982 12.4738C12.4242 11.8928 12.4609 10.9099 12.7567 10.1784C12.9067 9.8077 13.3703 9.72235 13.5298 9.72167C14.0266 9.71955 13.1453 10.719 12.9858 11.2876C12.8939 11.6152 13.0526 11.9475 13.2564 12.197C13.6518 12.681 14.5033 12.6306 15.2777 12.8794C15.9703 13.102 16.5948 13.4923 17.4354 13.6532C18.1318 13.7865 18.6877 13.3587 18.9372 13.1323C19.5322 12.5927 19.4608 11.6789 19.7328 11.0878C19.9601 10.5939 20.3702 10.2691 20.4159 9.88392C20.4401 9.68015 20.3716 9.45375 20.2809 9.29287C19.9647 8.73182 18.8309 8.7693 17.6263 8.45026C16.773 8.22426 16.0549 8.44889 15.7147 8.53956C14.1587 8.95429 19.7335 4.31491 19.8698 3.88543C19.96 3.60127 19.9162 3.14098 19.7812 2.84171C19.6462 2.54243 19.3763 2.40745 19.0122 2.33791C17.4479 2.0391 16.4203 2.54107 15.8054 2.38291C15.0861 2.19789 14.6915 1.58938 14.4181 1.06581C14.3505 0.936327 14.1924 0.861297 13.9879 0.81494C13.7834 0.768582 13.5134 0.768582 13.3069 0.836073C13.1003 0.903564 12.9653 1.03855 12.8508 1.19807C12.1553 2.16675 12.3736 4.17175 12.2584 5.28773C12.2219 5.64071 11.5146 3.14644 10.8963 1.99773C10.5524 1.35877 9.96575 0.997642 9.12586 0.565429C8.89438 0.446306 8.60502 0.495893 8.28598 0.675868C6.93867 1.43589 6.69347 2.26565 6.01174 2.49471C5.58317 2.63871 5.37365 3.31005 5.2598 4.01291C5.15456 4.66265 5.41728 5.13026 5.66611 5.35727C5.96718 5.63194 6.41669 5.58565 6.6887 5.72131C7.29412 6.02326 7.28111 6.67504 7.41678 6.97023C7.64243 7.13044 7.91648 7.22179 8.57094 7.28996C9.09041 7.31314 9.99029 7.31314 10.9174 7.31314" stroke="#0012D4" stroke-linecap="round"/>
<path d="M12.9626 10.9944C12.3722 12.1738 12.2809 13.0805 12.5972 14.8728C12.7607 15.7988 13.4139 16.7155 14.0261 17.961C14.7585 19.4511 15.0064 21.1221 15.2559 22.3704C15.426 23.2213 15.5982 23.8531 15.6663 25.1177C15.6445 29.4446 15.4632 30.26 15.2812 30.8988C15.2355 31.0358 15.1905 31.1708 15.1441 31.3098" stroke="#0012D4" stroke-linecap="round"/>
<path d="M15.1442 31.0372C15.0992 28.4043 14.7378 26.955 13.2646 24.9541C12.1727 23.4711 10.6939 23.8109 10.126 23.9459C9.8848 24.0032 9.87306 24.3508 9.87238 24.5799C9.87115 24.9913 10.278 25.8492 10.8902 27.0518C11.4574 27.9394 12.5004 29.0302 13.7718 30.1434C14.2784 30.5368 14.5033 30.5818 15.1442 30.6281" stroke="#0012D4" stroke-linecap="round"/>
</svg>
