<svg width="26" height="38" viewBox="0 0 26 38" fill="none" xmlns="http://www.w3.org/2000/svg">
<path d="M5.6214 37.4016C5.67317 36.8321 5.72495 36.2626 6.03637 34.3901C6.3478 32.5177 6.9173 29.3595 7.31423 27.3442C8.0794 23.4594 8.54895 22.4501 8.88861 21.1165C9.22128 19.8104 9.17651 18.5278 9.25573 17.6367C9.29333 17.2139 9.38674 15.194 9.36085 12.3449C9.34333 10.417 9.43694 8.43988 10.2465 6.26697C10.9516 4.37426 12.4618 1.85368 13.7239 0.613469C13.9017 0.438809 14.0903 0.429125 14.2738 0.868414C14.8235 2.18396 14.8779 4.3388 14.7484 6.42699C14.5708 9.29305 13.6259 10.6708 13.1536 12.1895C12.7843 13.3775 12.1605 14.5962 11.8719 15.3038C11.5575 16.0743 11.0121 16.9997 10.4606 17.7881C10.1743 18.1011 9.96252 18.4165 9.80642 18.7553C9.70208 18.9389 9.54676 19.146 9.22985 19.5163" stroke="#0012D4" stroke-linecap="round"/>
<path d="M9.38678 18.8887C9.80254 16.5448 10.6388 12.996 11.0851 11.2317C11.2161 10.6834 11.373 10.1578 11.5299 9.66206C11.5832 9.42516 11.5832 9.21807 11.7401 9.0047" stroke="#0012D4" stroke-linecap="round"/>
<path d="M9.22986 20.9283C10.3249 18.7381 11.4734 16.959 12.2861 16.042C13.2755 14.9255 14.5076 14.499 15.9965 13.6102C17.0892 12.9579 18.1161 12.5096 19.1884 12.0138C20.1125 11.5866 21.2538 11.151 21.9614 10.7579C22.3216 10.5579 22.8243 10.5736 23.2942 10.5995C23.6681 10.6201 23.9759 10.9376 24.263 11.4067C24.5862 11.9347 24.605 12.7653 24.5532 13.5749C24.5167 14.1459 23.6182 15.1673 22.3395 16.7072C21.2511 18.018 19.6991 19.248 17.7427 20.4231C15.9675 21.4893 13.5318 21.8665 11.2074 22.3371C10.236 22.5339 9.65973 22.4972 10.0135 21.9536C10.3673 21.4099 11.6616 20.3227 13.3898 19.1931C15.1179 18.0635 17.2406 16.9245 19.2708 15.5941" stroke="#0012D4" stroke-linecap="round"/>
<path d="M6.0921 35.2052C6.60984 33.9626 8.27443 31.4587 10.5478 28.5052C11.6431 27.0821 12.6752 26.4759 13.7459 25.8224C14.3996 25.4235 15.0834 25.4781 15.6584 25.5557C15.8827 25.586 15.9228 25.7887 15.9494 25.9723C16.0823 26.8863 15.1948 27.9318 14.1523 29.2881C12.5967 30.897 11.2726 32.1176 10.5172 32.5867C10.0724 32.8487 9.50287 33.1593 8.75922 33.4794" stroke="#0012D4" stroke-linecap="round"/>
<path d="M5.77831 35.6759C5.57122 33.5014 5.46453 31.6046 5.59397 30.1173C5.71425 28.7351 6.35253 27.6275 6.50942 25.7558C6.80418 22.2393 6.40744 19.6245 6.09444 18.946C5.60082 17.8759 4.94366 17.323 3.6658 16.5385C2.55601 15.8573 1.65213 14.8692 0.838659 12.6218C0.104524 10.5935 0.704519 8.06966 1.30384 6.29289C1.6947 5.1341 2.32518 4.45651 2.68995 4.14351C3.11743 3.77671 3.94271 3.67049 4.88248 3.72227C5.6303 3.76347 6.24584 4.13959 6.76828 4.47847C7.59417 5.01418 7.5543 6.38467 7.92142 8.57563C8.44968 11.7283 7.81787 13.1309 7.68765 14.437C7.55883 15.7291 7.50566 16.6389 7.16678 16.8217C6.80413 17.0173 6.35566 17.0061 5.99011 16.9284C5.24315 16.7697 5.2041 15.5972 4.78677 14.5798C4.42279 13.4635 4.15765 12.6147 4.15686 12.3017C4.20785 12.1441 4.36317 11.9888 4.5232 11.8287" stroke="#0012D4" stroke-linecap="round"/>
<path d="M5.30766 31.2829C4.99545 29.2983 3.95527 28.255 2.61936 26.8704C0.901798 25.0903 1.22854 23.5483 1.41053 22.3967C1.4893 21.8983 1.9063 21.5574 2.34951 21.322C2.5697 21.2051 2.8445 21.242 3.05551 21.2938C3.68542 21.8665 3.94743 22.6525 4.02587 22.9655C4.05254 23.1231 4.05254 23.2785 4.20943 23.4385" stroke="#0012D4" stroke-linecap="round"/>
</svg>
