<svg width="21" height="41" viewBox="0 0 21 41" fill="none" xmlns="http://www.w3.org/2000/svg">
<path d="M10.8852 25.2999C10.1619 25.2194 9.30656 25.3257 7.10818 25.3938C6.37894 25.4164 5.92059 25.4344 5.2529 25.3942C3.23895 25.2727 2.69893 25.461 2.24226 25.5412C1.94794 25.5928 1.49161 25.7816 1.00876 26.0897C0.463107 26.4378 0.575849 27.096 0.508999 27.6469C0.44237 28.196 0.762706 28.5732 0.910902 28.9231C0.983382 29.0943 1.11226 29.2457 1.23267 29.3798C1.49079 29.6673 2.02399 29.6218 2.53341 29.6758C3.21505 29.748 3.79429 29.8634 4.77368 29.9041C5.80752 29.947 6.96361 29.9979 8.10931 30.0382C9.06847 30.0719 10.7966 30.0519 11.8859 30.0785C12.9752 30.1051 13.3739 30.1582 13.9913 30.1856C15.4314 30.2495 16.6536 30.1598 17.2705 30.0793C17.9403 29.9918 18.5882 29.9714 18.9381 29.8646C19.4436 29.7105 19.3678 28.7117 19.4894 28.042C19.6228 27.3077 19.45 26.5644 19.2897 26.082C19.031 25.3034 17.9519 25.0342 16.4353 24.7635C14.7282 24.4589 13.3063 24.9778 12.5931 25.0446C11.9403 25.0583 11.37 25.0849 11.0354 25.1252C10.8602 25.1389 10.6742 25.1389 10.4825 25.2194" stroke="#0012D4" stroke-linecap="round"/>
<path d="M2.91156 29.8103C3.01788 30.4482 3.15238 31.3615 3.27319 32.4203C3.36622 33.2355 3.34085 33.7021 3.38112 34.5675C3.48188 36.733 3.42139 38.2664 3.46166 38.4403C3.48313 38.5331 3.47535 38.6409 3.52851 38.7488C3.78066 39.2608 4.54656 39.3931 5.32459 39.5554C5.53754 39.5999 5.75307 39.609 6.83273 39.6227C7.91239 39.6364 9.85264 39.6364 10.9319 39.6231C12.1712 39.6078 12.9462 39.5558 13.9788 39.5293C15.0342 39.5021 15.555 39.1274 15.9307 38.806C16.7913 38.0699 16.8437 37.0349 17.0724 36.1912C17.3421 35.1965 17.5428 34.4294 17.6897 33.8692C17.7836 33.4419 17.9165 32.7243 17.9849 32.0224C18.0534 31.3205 18.0534 30.656 18.0534 29.9714" stroke="#0012D4" stroke-linecap="round"/>
<path d="M9.67706 24.8167C9.65048 24.8699 9.6239 24.9231 9.59692 24.8574C9.56994 24.7918 9.54336 24.6057 9.63598 23.6328C9.72861 22.6598 9.94124 20.9056 10.0508 19.2445C10.1603 17.5833 10.1603 16.0683 10.1736 15.1948C10.1995 13.4907 10.294 12.3618 10.3347 11.8781C10.3667 11.497 10.5082 10.9668 10.5763 9.85372C10.6427 8.76716 10.5904 7.58244 10.4962 7.24658C10.4704 7.1549 10.4825 7.04604 10.4293 6.99127C10.1437 6.69702 9.54497 6.74964 8.98118 6.06705C8.45909 5.43495 8.36262 4.55247 8.32114 3.71765C8.25875 2.46201 9.72861 1.08595 10.2654 0.682441C10.5633 0.458525 10.911 0.493168 11.1252 0.519747C11.7685 0.59955 12.1722 1.99124 12.2411 3.09346C12.268 3.52415 11.9081 4.61851 11.4788 6.04088C11.221 6.89493 11.0737 7.2039 11.0197 7.29853C10.6916 7.87383 12.517 5.94584 13.419 5.67522C13.8934 5.5329 14.3203 5.67441 14.5748 5.75455C14.8267 5.83385 14.992 6.04974 15.1394 6.26357C15.3336 6.54532 15.315 7.0412 15.2618 7.53694C15.1555 8.52872 14.1358 9.10951 13.5861 9.55209C12.5242 10.1308 12.1747 10.2919 11.9209 10.4123C11.747 10.4795 11.4812 10.5593 10.9657 10.6414" stroke="#0012D4" stroke-linecap="round"/>
<path d="M10.563 10.883C10.5364 9.86416 10.4824 9.32856 10.3222 8.323C10.2193 7.67793 9.75917 7.23448 9.42331 6.85714C9.06202 6.45123 8.57842 6.02635 7.98805 5.51531C7.49558 5.08902 6.8355 4.87138 6.16218 4.77514C5.91975 4.74048 5.67812 4.97528 5.4369 5.24308C5.04138 5.68218 5.08614 6.87365 5.35273 7.88646C5.75583 9.41785 7.50078 9.75382 8.07625 10.1428C8.80877 10.5029 9.4072 10.7485 9.72816 10.7888C9.91622 10.8025 10.1554 10.8025 10.4019 10.8025" stroke="#0012D4" stroke-linecap="round"/>
<path d="M10.0797 21.434C10.5622 19.8787 10.7772 19.2883 11.7135 18.0025C12.1188 17.4459 12.7344 17.1411 13.9675 16.4295C14.2769 16.2509 14.5578 16.2004 14.6947 16.1061C15.1958 15.7613 14.6706 14.6975 14.5369 13.9875C14.4845 13.7096 14.5095 13.3073 14.5892 13.0355C14.7216 12.5844 15.1788 12.4141 15.5803 12.2667C16.7739 11.8286 18.2386 12.1975 18.6828 12.5059C19.2198 12.8789 19.1535 13.9935 19.0875 14.4925C19.03 14.9271 18.6187 15.3643 18.2958 15.7944C17.8928 16.331 19.0456 17.3231 19.0871 18.3428C19.1003 18.6687 18.9401 18.8558 18.6997 19.0697C17.9039 19.7774 17.0627 19.8763 16.1107 19.8904C15.7189 19.8962 15.3173 19.7168 14.915 19.5159C14.6476 19.3823 14.5103 19.0201 14.3895 18.5514C14.4016 17.6509 14.6158 16.7932 14.8309 16.2809C14.8848 16.173 14.938 16.0667 15.0733 15.8766" stroke="#0012D4" stroke-linecap="round"/>
<path d="M9.67706 21.5145C9.35651 19.6387 8.87326 18.6714 8.28329 17.893C7.93792 17.4373 7.50405 17.1669 7.22135 16.9514C6.71039 16.562 7.18188 15.1308 6.43164 13.9078C5.88892 13.0231 5.49212 12.1508 4.9537 11.5688C4.61547 11.2033 3.77336 11.5 3.38273 11.6341C2.88501 11.805 2.53785 12.4375 2.14763 13.3762C2.00847 13.711 2.02561 14.2352 2.05219 14.8521C2.07827 15.4577 2.85357 15.8476 3.31307 16.1041C3.46516 16.1891 3.63563 16.3317 3.75645 16.5862C4.0325 17.1677 2.83263 17.9417 2.54993 18.5587C2.38197 18.9252 2.53544 19.3117 2.62886 19.5928C2.87691 20.3391 3.84746 20.7607 4.54656 20.937C5.41028 21.155 6.29109 20.3628 6.74897 19.8928C7.28739 18.7238 7.34136 17.9755 7.31478 17.2108C7.2882 16.9245 7.23504 16.8447 7.09973 16.7626" stroke="#0012D4" stroke-linecap="round"/>
</svg>
