<svg width="34" height="47" viewBox="0 0 34 47" fill="none" xmlns="http://www.w3.org/2000/svg">
<path d="M15.7901 13.1965C15.7901 13.2292 15.7901 13.2619 15.7901 14.3753C15.7901 15.4888 15.7901 17.6818 15.7737 18.8771C15.7523 20.4384 15.56 21.2249 15.4761 21.9069C15.4493 22.1255 15.0987 23.2702 14.5705 25.0209C14.006 26.8921 13.5424 28.1047 13.2454 29.0302C13.0165 29.7431 12.9473 30.4179 12.8972 31.0487C12.876 31.3162 12.8144 32.6913 12.8307 34.7232C12.8395 35.8069 12.9136 36.6658 12.9299 37.6563C12.942 38.3864 13.0128 38.852 13.1273 39.7383C13.5794 43.2352 13.838 44.0069 13.9218 44.5554C13.9382 44.6715 13.9709 44.8024 13.9878 45.0663C14.0047 45.3301 14.0047 45.7229 14.1038 45.9292" stroke="#0012D4" stroke-linecap="round"/>
<path d="M13.0128 38.2916C12.98 38.357 12.9473 38.4225 12.9468 38.4071C12.9358 38.0679 13.2766 37.6984 13.7711 36.7908C14.156 36.0843 14.5323 35.5162 15.0109 34.9384C15.8503 33.9251 17.2997 32.1854 18.2515 31.3825C18.6362 31.0579 19.4879 30.6896 20.0701 30.4724C20.5223 30.3037 21.0769 30.2909 21.6403 30.0761C21.9042 29.9933 22.2682 29.8941 22.7299 29.7949C22.9625 29.7612 23.1916 29.7612 23.4277 29.7612" stroke="#0012D4" stroke-linecap="round"/>
<path d="M17.0795 32.6377C17.0795 32.1785 17.145 31.1201 17.6231 29.5688C17.8757 28.7492 18.1369 28.1107 18.8114 27.1704C19.9856 25.5334 20.8468 25.4306 21.3264 25.1995C21.78 24.9809 22.3009 24.77 22.7646 24.6202C23.3334 24.4365 23.9534 24.5041 24.4181 24.5865C24.9764 24.6854 25.838 24.8672 26.3518 24.9832C27.0791 25.1475 28.6074 25.0993 29.4768 25.017C29.9447 24.9726 30.7301 24.6708 31.7557 24.2745C32.3201 24.0564 32.6187 23.6789 32.7342 23.5296C32.9569 23.2419 32.7853 24.5339 32.6529 25.2287C32.5718 25.6541 32.5532 26.5475 32.4877 27.834C32.4249 29.0691 32.091 29.8257 31.9591 30.1882C31.4839 31.4941 30.5059 33.0642 29.9113 33.8573C28.7738 35.3742 27.6969 35.7106 27.1493 36.0092C26.4925 36.3673 25.9094 36.3732 25.2325 36.4233C24.2581 36.4954 22.2156 36.1788 21.3462 35.9938C20.8797 35.8946 20.3548 35.7463 19.9575 35.4989C19.4882 35.2065 18.9344 34.691 18.4861 34.2263C18.2371 33.829 18.0397 33.4332 17.8899 32.9869C17.8731 32.8381 17.8731 32.6417 17.8731 32.4393" stroke="#0012D4" stroke-linecap="round"/>
<path d="M12.5168 32.4394C12.4841 32.1765 12.2212 31.255 11.9063 30.6227C11.526 29.8592 10.535 29.5966 10.1377 29.2995C9.7466 29.007 9.18005 28.7376 8.74906 28.4891C8.55118 28.4063 8.35181 28.3398 8.15392 28.2575C8.05424 28.2079 7.95604 28.1424 7.95406 28.075" stroke="#0012D4" stroke-linecap="round"/>
<path d="M12.2192 30.6539C12.2192 30.7194 12.2192 30.8513 12.2192 30.9346C12.2192 31.3514 12.4831 30.0608 12.5004 27.6713C12.5077 26.6718 11.9891 26.0932 11.6092 25.6136C11.2453 25.1542 10.8663 24.8037 10.3862 24.4064C9.8149 23.9337 9.34469 23.7126 8.93107 23.4468C8.49606 23.1672 7.75964 23.3139 6.57332 23.2315C4.54671 23.0909 2.93106 23.1492 2.41974 23.05C1.58392 22.8879 1.11192 22.7524 0.862948 22.4063C0.779869 22.2908 0.649689 22.1593 0.58224 22.4683C0.355321 23.5078 0.645722 24.7313 0.860468 25.4906C1.01691 26.0437 1.23987 27.0751 1.7016 28.4782C2.36454 30.4926 3.55398 31.3463 4.61035 32.3362C5.38977 33.0666 6.26385 33.4293 7.09109 33.6951C8.01381 33.9916 8.84279 34.0919 10.2136 34.0765C11.1288 34.0662 11.5884 33.334 11.8879 32.8381C11.9217 32.7052 11.9217 32.5742 11.938 32.4577C11.9544 32.3412 11.9871 32.243 11.9217 32.0426" stroke="#0012D4" stroke-linecap="round"/>
<path d="M14.5998 2.38475C14.1048 2.41748 13.6436 2.7458 13.2126 3.07809C12.84 3.36541 12.3878 3.83689 11.8081 4.43203C11.1083 5.1504 11.0964 5.82069 11.0126 6.36674C10.9144 7.00642 11.0289 7.54065 11.3087 8.18489C11.5305 8.69586 11.9197 9.19316 12.2346 9.62414C12.6424 10.1822 13.2091 10.8794 14.1991 11.8867C14.7377 12.4348 15.2584 12.6331 16.1834 12.6514C16.8175 12.664 17.1113 11.909 17.2938 11.5117C17.4945 11.0748 17.9028 10.2922 18.2852 9.69357C18.6324 9.14999 18.863 8.27664 19.0628 7.47866C19.304 6.51594 18.9661 4.70381 18.7335 3.9579C18.5127 3.24965 17.9088 3.04734 17.3955 2.79887C16.9337 2.57537 16.3872 2.41847 15.9736 2.28606C15.7266 2.22009 15.2644 2.18637 14.7029 2.2191C14.4689 2.25184 14.3379 2.3173 14.1038 2.48394" stroke="#0012D4" stroke-linecap="round"/>
<path d="M17.8731 2.78151C18.005 2.58412 18.3988 1.92649 18.7648 1.34524C18.8312 1.19645 18.8967 1.00006 18.9632 0.849782C19.0296 0.699509 19.0951 0.601311 19.0633 0.500137" stroke="#0012D4" stroke-linecap="round"/>
<path d="M13.3103 2.68232C12.8481 2.48493 12.5842 2.0237 12.4345 1.57635C12.4176 1.32937 12.3849 1.09627 12.3353 0.865653C12.3184 0.733234 12.3184 0.56957 12.3184 0.500137" stroke="#0012D4" stroke-linecap="round"/>
<path d="M11.1281 4.96369C10.9308 4.89823 10.535 4.63438 10.0227 4.38591C9.4429 4.26936 9.14533 4.23663 8.93108 4.18704C8.81503 4.17017 8.68409 4.17017 8.74758 4.17017" stroke="#0012D4" stroke-linecap="round"/>
<path d="M18.9642 5.55884C19.2607 5.26226 19.722 4.86649 20.581 4.4856C20.7813 4.40228 20.9123 4.33681 21.1106 4.30309C21.309 4.26936 21.5709 4.26936 22.0391 4.07098" stroke="#0012D4" stroke-linecap="round"/>
</svg>
