<svg width="36" height="43" viewBox="0 0 36 43" fill="none" xmlns="http://www.w3.org/2000/svg">
<path d="M9.17301 27.2128C8.68209 27.2946 8.30646 27.3777 8.01823 27.6033C7.52078 27.9927 7.39651 28.6571 7.33453 29.1102C7.26197 29.6406 7.35436 30.0629 7.53908 30.4739C7.67113 30.7677 7.92835 31.2121 10.1617 31.3417C12.395 31.4712 16.6088 31.2667 18.8818 31.1408C21.3612 31.0036 22.6338 30.891 24.5522 30.7881C27.0687 30.6532 28.1381 30.4782 29.8693 30.4156C30.373 30.3974 30.6596 30.2303 30.928 30.004C31.538 29.4898 31.2398 28.3335 31.1369 27.7106C31.0965 27.4657 31.0749 27.1731 30.9107 26.8638C30.4114 25.9236 28.5174 26.3872 27.1128 26.3655C26.0307 26.3488 24.8008 26.5508 23.6609 26.6134C22.6424 26.6694 21.6594 26.7988 20.2132 26.9227C18.8819 27.0369 17.5262 27.3368 16.5561 27.3572C15.9542 27.4186 13.657 27.4608 10.4344 27.4403C9.29822 27.4198 9.17549 27.3789 9.04904 27.4608" stroke="#0012D4" stroke-linecap="round"/>
<path d="M10.5367 31.3039C10.6186 32.1221 10.6607 33.8936 10.6812 36.0209C10.7044 38.4417 10.9074 41.3021 11.1547 41.6529C11.6404 42.3419 13.4228 42.129 14.6854 42.1928C15.581 42.2381 16.2778 42.0075 18.5322 41.8835C20.4978 41.7754 24.1413 41.8414 26.0783 41.78C28.0154 41.7186 28.1381 41.5959 28.2218 41.4713C28.5644 40.9612 28.5943 40.2322 28.6569 39.2008C28.6823 38.783 28.7605 37.3908 28.7809 35.429C28.8844 33.42 28.8435 31.553 28.7815 31.3057C28.7605 31.1811 28.7605 31.0584 28.7605 30.9319" stroke="#0012D4" stroke-linecap="round"/>
<path d="M16.8592 27.0889C15.8687 26.0983 14.8013 24.3764 13.7011 21.3354C12.9175 19.1697 13.1823 18.1679 13.2219 16.1894C13.2569 14.4467 13.7996 13.0839 14.1294 12.4033C14.412 11.8201 14.9141 11.5107 15.4094 11.3867C16.0125 11.2358 16.9361 11.714 17.8275 12.2105C18.5944 12.6377 19.2122 13.2017 20.1823 14.8709C20.5362 15.8472 20.8251 16.7522 21.0519 19.0314C21.1561 20.7378 21.2379 23.5607 21.3222 26.469" stroke="#0012D4" stroke-linecap="round"/>
<path d="M20.8263 17.1712C21.1536 15.862 21.404 14.9422 21.8348 14.018C22.691 12.1812 23.6751 10.8102 24.1698 10.2741C24.6252 9.7804 25.2855 9.3635 26.457 8.68476C28.4339 7.53945 29.9977 6.92375 30.7582 6.63614C31.277 6.43994 32.0506 6.10306 32.3283 6.20038C32.9228 6.40873 31.9031 8.19569 31.5522 9.74223C31.2511 11.0697 31.1171 12.1256 30.8084 13.0113C30.4474 14.0471 29.5514 15.2224 28.479 16.3778C27.1189 17.8433 25.5074 18.8572 24.4035 19.4429C23.358 19.9977 22.1503 20.1874 21.841 20.2494C21.6967 20.2783 21.5726 20.2704 21.6116 20.1273C22.1597 18.1177 24.0892 15.7703 24.6669 14.9837C24.9967 14.6942 25.288 14.4041 25.5558 14.0948C25.7008 13.9492 25.8645 13.8264 26.281 13.4521" stroke="#0012D4" stroke-linecap="round"/>
<path d="M21.5701 25.3533C23.1384 23.454 23.8809 22.7945 24.7277 22.112C25.2829 21.6645 26.4794 21.2238 27.9032 20.7694C29.7921 20.1667 32.2614 20.3548 33.5507 20.25C33.9264 20.2195 34.2957 20.1465 34.6057 20.2078C34.7253 20.2315 34.711 20.3919 34.6906 20.5165C34.5395 21.4367 33.5978 22.6234 33.2042 23.2228C32.7867 23.8585 31.9043 24.235 31.2014 24.6491C30.0051 25.3099 28.272 25.8888 26.9312 26.1368C26.3269 26.2211 25.8769 26.2211 25.4132 26.2211" stroke="#0012D4" stroke-linecap="round"/>
<path d="M15.2476 11.3446C14.8769 10.4408 14.6278 8.87012 14.5249 7.5083C14.3407 5.07153 15.203 3.82947 15.7819 2.61021C16.3118 1.49426 17.0229 0.808297 17.3322 0.601886C17.4719 0.508636 17.6006 0.477295 17.7252 0.517585C18.007 0.60873 18.3444 1.21616 18.9209 2.42922C19.8323 4.34716 20.1234 5.88738 20.1854 6.52521C20.2474 8.16101 20.3304 10.0069 20.31 12.3618C20.2895 13.2029 20.2486 13.3256 19.9585 13.4521" stroke="#0012D4" stroke-linecap="round"/>
<path d="M17.4791 11.9644C17.07 10.7371 16.7365 9.49121 16.5505 8.19323C16.4873 7.50892 16.4873 6.77253 16.5077 6.2909C16.5282 5.80928 16.5691 5.60472 16.6113 5.51794" stroke="#0012D4" stroke-linecap="round"/>
<path d="M14.2559 12.2123C12.0269 9.32257 10.9558 8.37295 9.16748 7.40598C7.97556 6.76147 6.11098 5.98899 4.85577 5.48567C3.01402 4.74715 2.23193 4.56828 2.02552 4.50568C1.84478 4.45086 2.14515 5.71501 2.94724 7.89752C3.411 9.15942 4.19935 10.6528 4.94689 11.9235C6.31463 14.2484 7.31226 15.3922 7.55958 15.7635C8.1106 16.5907 9.94911 17.2505 11.2973 17.4396C11.5273 17.46 11.65 17.5009 11.7746 17.522C11.8992 17.5431 12.0219 17.5431 12.1484 17.5431" stroke="#0012D4" stroke-linecap="round"/>
<path d="M13.0161 14.8157C12.157 13.7521 11.2979 12.6884 10.7326 12.0177C10.1673 11.347 9.92182 11.1016 9.71355 10.9138C9.50528 10.7259 9.34163 10.6032 9.17303 10.3528" stroke="#0012D4" stroke-linecap="round"/>
<path d="M14.6278 23.6176C13.5133 22.6271 13.0186 22.0506 12.625 21.3886C12.0784 20.4693 10.1351 19.0803 9.01065 18.3712C8.14611 17.826 7.23663 17.5034 6.18102 17.3162C5.18004 17.1387 4.58861 17.1712 3.76296 17.0683C3.39331 17.0222 2.36333 17.2517 0.979819 17.5821C0.455286 17.7074 0.291781 17.7489 0.841592 18.5881C1.3914 19.4274 2.65962 21.0638 3.45614 22.05C4.50603 23.3499 6.06138 24.3131 8.06413 25.4282C9.53019 26.2445 10.4896 26.3028 11.4628 26.5917C12.6564 26.946 13.5095 26.9227 14.2112 27.0677C14.4549 27.1181 14.7864 27.0888 14.8732 26.9865C15.7304 25.9764 11.6227 24.3268 10.4983 23.7639C10.0458 23.3747 9.67017 23.0399 9.4024 22.8546C9.25735 22.7511 9.09371 22.6284 8.80114 22.254" stroke="#0012D4" stroke-linecap="round"/>
<path d="M23.322 26.3582C23.5966 26.2835 24.5488 25.8828 25.2562 25.5169C26.3185 24.9673 27.3195 24.247 27.6843 23.9448C27.9993 23.6675 28.2755 23.4917 28.5015 23.3537C28.6029 23.2903 28.6776 23.2405 28.7546 23.1137" stroke="#0012D4" stroke-linecap="round"/>
</svg>
