<svg width="38" height="56" viewBox="0 0 38 56" fill="none" xmlns="http://www.w3.org/2000/svg">
<path d="M20.1775 54.9396C20.1775 54.6837 20.6867 52.9823 21.205 51.0868C21.5553 49.8054 22.3611 48.2139 22.7057 46.5261C23.1101 44.5456 22.7919 42.8977 22.8562 41.768C22.971 39.7503 22.9205 38.2245 23.006 37.2022C23.307 33.6035 23.4336 32.484 23.6702 31.4314C24.011 29.9152 24.933 27.8107 25.7682 26.6309C26.2445 25.9581 26.7334 25.5783 27.6541 24.6801C28.2321 24.1162 28.7909 23.4796 30.5848 21.3404C31.0565 20.778 31.993 21.116 32.344 21.3089C32.6951 21.5018 32.6102 21.7564 32.4392 22.0149C31.4542 23.0025 30.5964 23.5182 29.7612 23.6899C29.5664 23.7329 29.439 23.7754 29.4365 23.5619" stroke="#0012D4" stroke-linecap="round"/>
<path d="M28.7935 23.4333C27.9448 23.0938 27.3378 22.7492 27.0382 22.4071C26.2525 21.5101 27.0755 19.1973 27.6554 18.1853C27.8965 17.7647 28.3203 17.5616 28.7048 17.4118C29.1534 17.237 29.6911 17.2607 30.2891 17.4304C30.6576 17.535 31.0568 17.9397 31.2967 18.2419C31.6847 18.7309 31.6227 19.6976 31.6227 20.5347C31.6227 21.065 31.4941 19.151 31.6432 18.3351C31.7631 17.6791 32.69 17.1784 33.8262 16.5553C34.3996 16.2408 35.1333 16.4454 35.8213 16.7874C36.1505 16.9511 36.1235 17.6002 36.0599 18.1994C35.9668 19.0762 35.0961 19.2321 35.0517 19.2964C34.5883 19.9679 36.2933 19.5317 36.5717 19.7239C36.6974 19.8107 36.7228 19.9586 36.7235 20.1091C36.7266 20.8366 36.211 21.5018 35.7828 22.038C35.1511 22.829 34.156 22.8315 33.3619 23.0257C33.126 23.0475 32.8289 23.0475 32.7395 23.0263C32.6501 23.0051 32.7775 22.9627 32.9086 22.9189" stroke="#0012D4" stroke-linecap="round"/>
<path d="M29.9509 24.0763C29.2719 24.6704 28.9221 25.1038 28.9433 25.3604C28.9541 25.4909 29.0069 25.6169 29.0925 25.7037C29.6452 26.2648 31.3166 25.7918 32.389 25.6208C34.3219 24.9341 34.835 24.6782 35.2863 23.994C35.3519 23.7368 35.3519 23.3973 35.2233 22.9189" stroke="#0012D4" stroke-linecap="round"/>
<path d="M20.0489 54.2966C20.0052 53.5276 20.2624 52.5014 20.5196 50.8341C20.8438 48.7322 20.5209 47.0977 20.4566 46.5634C20.3876 45.9904 20.3923 45.3835 20.137 44.3393C19.6562 42.3725 18.8941 40.628 18.4447 39.5587C18.0433 38.6039 17.4397 36.8203 16.5826 34.7852C15.9492 33.2813 15.3371 32.0545 14.7996 30.8746C14.4372 30.0792 14.0923 29.2228 13.749 28.4525C13.2061 27.2345 13.1484 26.6508 12.8488 25.3674C12.6202 24.3881 11.9936 23.0553 11.4561 21.2748C11.1763 20.3481 11.0909 19.8352 10.898 19.043C10.6627 18.0769 10.5765 17.2221 10.5115 16.5129C10.4532 15.876 10.2756 15.1208 10.0621 13.3481C9.66424 10.0443 10.4453 8.64982 10.7887 8.00362C10.8748 7.87438 10.9597 7.74707 11.0671 7.63905C11.1745 7.53102 11.3018 7.44615 11.4329 7.3587" stroke="#0012D4" stroke-linecap="round"/>
<path d="M11.4329 6.84433C10.6691 6.41996 10.1483 6.07404 9.91292 5.77505C9.2038 4.87412 9.71745 2.95042 10.273 1.74739C10.7944 0.618176 12.1171 0.500643 12.4167 0.5C12.5531 0.499708 12.6315 0.669105 12.6752 0.968093C12.7862 1.72706 12.1672 3.44551 11.3313 5.09799C11.1018 5.55183 11.0471 5.09541 11.1108 4.74949C11.3674 3.35514 12.1171 1.87792 12.6951 1.10248C12.9053 0.820568 13.2744 0.7154 13.6377 0.650459C14.0626 0.574507 14.4743 1.22593 14.8594 1.90942C15.3035 2.69746 15.2908 3.62555 15.206 4.33155C14.437 5.51207 13.5779 6.28622 13.2359 6.43604C13.0635 6.50098 12.8938 6.54342 12.4617 6.58714" stroke="#0012D4" stroke-linecap="round"/>
<path d="M13.7477 27.9343C13.6191 26.6097 13.4493 24.5599 13.3831 23.1164C13.3246 21.8416 13.7888 21.08 14.7507 19.4964C15.2561 18.6643 15.7602 18.0773 16.0817 17.6709C16.5233 17.1128 16.0624 15.3446 16.3183 14.2837C16.4034 13.9308 16.789 13.6188 17.2166 13.3192C18.3244 12.5429 19.919 12.6312 20.1756 12.7161C20.8759 12.9478 20.6919 14.5936 20.5215 15.4584C20.317 16.4964 18.6369 16.8749 17.8885 16.9816C17.5288 17.0329 16.9317 17.0035 16.6257 17.0672C16.3196 17.1308 16.3196 17.2581 16.362 17.4086C16.5449 18.0568 16.7903 18.4592 17.0037 18.7376C17.7148 19.665 19.7891 18.8476 20.4746 18.6123C20.9898 18.4354 21.4185 17.9063 21.7612 17.4568C22.3846 16.6393 21.8081 14.9923 21.5291 14.4123C21.4223 14.2618 21.2526 14.0921 21.1015 13.9622C20.9504 13.8323 20.8231 13.7474 20.6919 13.66" stroke="#0012D4" stroke-linecap="round"/>
<path d="M10.5327 15.8461C10.5327 14.0908 10.7025 13.0658 11.067 12.0139C11.6054 10.4604 12.4591 9.54743 13.8486 8.58424C15.1366 7.6914 16.6951 7.19153 17.6679 6.92984C17.8869 6.87093 17.8627 7.52717 17.9264 8.01969C17.9699 8.3561 18.3758 8.42992 18.6748 8.51544C20.1976 8.95097 22.4048 8.5598 22.7681 8.28268C23.7203 7.55627 23.8194 6.71829 24.0135 6.05409C24.1275 5.6641 23.9505 5.30244 23.7371 5.08833C23.5075 4.85808 23.0516 4.91536 22.624 4.93658C21.3471 4.99995 20.0515 6.15761 19.3017 6.67071C18.953 6.90937 18.6356 7.01535 18.3791 7.07965C18.2519 7.11152 18.1225 7.10151 18.0145 6.99542C17.4721 6.46273 17.6493 5.68952 17.6904 5.02531C17.7483 4.09167 19.1847 3.59081 20.8147 3.05199C21.3488 2.87542 21.7194 3.07128 21.9759 3.24232C22.4485 3.62811 22.7057 4.0139 22.8767 4.27045C22.9629 4.39969 23.0478 4.527 23.2638 4.65817" stroke="#0012D4" stroke-linecap="round"/>
<path d="M10.5328 18.5467C10.2344 18.1197 9.72002 17.5205 9.16384 17.0909C8.25258 16.3872 7.19438 16.3194 6.44144 16.104C6.29038 16.0607 6.16303 16.0184 6.05501 16.0815C5.4955 16.4078 5.17798 17.2144 4.51249 17.7307C3.93657 18.1775 3.0767 18.3743 2.43372 18.3756C2.06873 18.3764 1.74701 17.9487 1.48981 17.5635C1.17124 17.0865 1.27377 16.4917 1.33743 16.0635C1.38468 15.7456 1.95662 15.7175 2.34306 15.6963C2.92139 15.6646 0.890553 14.8199 0.545913 14.0914C0.469621 13.9302 0.50219 13.7911 0.544627 13.6619C0.726631 13.1076 1.56955 12.8472 2.49094 12.6531C3.3865 12.4643 4.14406 12.7585 4.46491 12.9938C4.95936 13.4015 5.3863 14.339 5.75216 15.2006C5.8171 15.3729 5.85954 15.5426 6.03186 15.8461" stroke="#0012D4" stroke-linecap="round"/>
<path d="M12.9761 26.2625C11.9486 25.8342 11.2658 25.6632 9.76697 25.6619C8.61083 25.6609 7.74993 26.5197 7.21239 26.7113C6.89484 26.8245 6.93205 27.4597 6.91083 27.9735C6.8613 29.1727 4.535 30.0329 3.9126 30.2271C3.48488 30.3606 2.99055 30.1217 2.60541 29.8651C1.97302 29.4439 1.74702 28.5386 1.68079 27.8294C1.62777 27.2616 2.38486 26.7794 3.11401 26.3924C3.94232 25.9526 4.78448 26.049 6.15533 26.0265C6.45882 26.0477 6.62856 26.0902 6.77966 26.1332C6.93077 26.1763 7.05808 26.2188 7.18925 26.2625" stroke="#0012D4" stroke-linecap="round"/>
<path d="M3.8457 30.249C3.5062 31.4372 3.37375 32.2615 3.48048 32.6467C3.57003 32.9698 3.88685 33.2054 4.25014 33.462C4.64225 33.7389 5.17153 33.8497 5.68528 33.8285C6.03482 33.814 6.28776 33.6362 6.54431 33.4015C6.87168 33.102 6.93203 32.3541 7.12299 31.6468C7.28495 31.047 8.30158 31.279 8.66551 31.0225C8.95077 30.8214 9.07445 30.4226 9.20305 29.9313C9.52368 28.7065 8.9047 27.8082 8.58386 27.3356C8.47648 27.2488 8.34917 27.2064 8.24114 27.1209C8.13312 27.0353 8.04825 26.908 7.83221 26.7769" stroke="#0012D4" stroke-linecap="round"/>
</svg>
