<svg width="44" height="57" viewBox="0 0 44 57" fill="none" xmlns="http://www.w3.org/2000/svg">
<path d="M20.0344 56.0141C19.7429 55.6788 19.8391 54.1248 20.057 51.9461C20.387 48.6475 20.9091 46.346 20.9332 45.9582C20.9576 45.5646 21.0549 43.5922 21.0789 40.751C21.0949 38.8593 21.3931 37.9899 21.7823 36.5584C22.1324 35.2707 22.4135 33.911 22.9471 32.0932C23.7337 29.4133 24.0667 27.2985 24.2125 26.7409C24.3419 26.2456 24.5988 24.2517 25.109 21.5074C25.3402 20.2638 25.3787 19.7661 25.5485 19.2092C25.7561 18.5285 25.7198 16.1391 25.6236 13.1025C25.5857 11.9074 24.7518 11.5543 23.9245 10.7285C23.3362 10.1412 23.5331 8.88366 23.7992 7.93464C23.9153 7.52047 24.1629 7.03518 24.5507 6.52569C24.8733 6.10183 25.5216 6.01181 26.1768 6.03587C26.8876 6.06196 27.4167 6.97979 27.9291 7.68536C28.5751 8.57485 28.4896 9.40993 28.3934 10.0164C27.7622 10.773 27.1805 11.0645 26.4035 11.2351C26.1601 11.2599 25.8714 11.2599 25.574 11.2599" stroke="#0012D4" stroke-linecap="round"/>
<path d="M23.0958 10.6768C20.9601 11.1126 20.1831 11.5019 18.3893 12.7126C17.8131 13.1015 17.6057 13.4932 17.46 13.881C17.389 14.0696 17.4104 14.2688 17.5788 14.4641C17.9945 14.9465 19.1525 15.002 20.6307 14.6886C23.0943 13.3022 23.7722 12.7206 24.3087 12.1127C24.4544 11.9421 24.6469 11.7497 24.8451 11.5514" stroke="#0012D4" stroke-linecap="round"/>
<path d="M23.6789 10.0936C20.1335 11.6476 19.1656 11.9392 16.9337 11.8204C15.7534 11.7576 15.0808 10.5834 14.6194 9.90411C14.319 9.46183 14.349 9.02652 14.4212 8.6147C14.5089 8.11399 14.9307 7.81072 15.5582 7.54468C18.0067 6.50671 19.495 6.9827 21.8712 7.12848C22.4669 7.16502 22.845 7.41712 22.899 7.42004C24.2376 7.4924 19.9907 6.06137 19.1874 5.7946C18.5012 5.56668 18.0431 5.13859 17.8732 4.84776C17.7142 4.57551 17.7019 4.07149 17.8222 3.46504C17.9363 2.88996 18.6714 2.66034 19.132 2.41762C19.5193 2.21354 20.0315 2.22155 20.6613 2.36587C22.7516 2.84492 23.7255 5.23043 24.2358 5.74285C24.3576 5.8652 24.4544 6.00889 24.4318 5.98703C23.939 5.51007 23.4865 4.99427 23.0972 4.1451C22.775 3.44215 22.8042 2.70991 22.8283 2.2733C22.8651 1.60446 23.5302 1.05823 24.1381 0.643488C24.4543 0.427716 25.0361 0.472197 25.6906 0.664626C27.1349 1.08923 26.9327 2.60641 27.1528 3.62467C27.2652 4.14461 27.1776 5.07007 27.2257 5.39662C27.3073 5.95049 28.1951 4.31494 29.1164 3.60937C29.9821 2.94647 31.0611 2.80466 31.7164 2.82872C32.1371 2.84416 32.6166 3.28719 33.1749 3.86958C33.5231 4.23272 33.5919 4.60067 33.5678 4.98844C33.5197 5.76425 32.8163 6.30045 30.9511 8.07021C30.4204 8.57369 29.8541 8.87637 29.3912 9.16866C28.7349 9.58311 31.8309 8.63583 33.5853 9.0462C34.7949 9.32914 35.5337 10.1403 35.9214 10.6243C36.4089 11.2327 36.5075 12.1302 36.4112 12.8583C36.3424 13.3796 35.5395 13.639 34.812 13.9546C33.3721 14.5793 30.5451 13.6944 29.2455 13.1805C28.3963 12.8168 27.4225 12.2818 27.0588 12.015C26.8875 11.8925 26.7432 11.7963 26.5945 11.6972" stroke="#0012D4" stroke-linecap="round"/>
<path d="M23.0958 55.8683C23.4354 53.4907 23.7255 52.3259 24.3794 50.0255C25.6172 45.6701 26.5449 44.9874 27.0056 44.0639C27.8526 42.3658 29.4109 40.1767 30.4525 38.6015C32.0106 36.2452 32.5189 34.8849 33.8783 32.8666C34.6159 31.7715 35.385 30.6077 36.1408 29.655C36.6747 28.9822 37.1372 27.9312 37.4769 27.2759C37.6186 27.0026 37.7203 26.8612 37.7699 27.2198C37.9377 28.4338 37.627 30.1062 37.1671 31.6814C36.6816 33.344 35.4462 35.0132 34.0635 36.4695C32.4271 37.694 31.9898 37.8879 31.6989 38.0578C31.5524 38.1314 31.4081 38.1795 30.9678 38.229" stroke="#0012D4" stroke-linecap="round"/>
<path d="M27.1776 43.7687C29.0683 41.2948 30.7171 39.9347 32.2259 39.2517C33.6565 38.6041 34.9986 38.3267 35.4352 38.3019C35.6324 38.2907 35.7756 38.4215 35.7056 38.6635C35.2901 40.1006 33.8426 41.3779 32.2368 42.7927C31.2706 43.6439 30.1456 43.6229 29.1018 43.8401C28.7374 43.9611 28.2563 44.1535 27.9123 44.2767C27.5682 44.3999 27.3758 44.448 27.1776 44.4976" stroke="#0012D4" stroke-linecap="round"/>
<path d="M26.7403 43.9144C26.3554 41.4129 26.0609 39.3545 25.9151 38.0439C25.8233 37.218 26.2504 35.6662 26.9538 33.6027C27.711 31.3814 29.6529 30.6981 30.1624 30.5283C30.3833 30.4546 30.5276 30.4065 30.6019 30.7426C30.831 31.7778 30.4839 33.3134 30.1682 34.672C29.6106 37.3894 28.7345 40.6052 28.3212 41.3363C28.1995 41.5309 28.0552 41.7715 27.7607 42.3109" stroke="#0012D4" stroke-linecap="round"/>
<path d="M27.6149 56.0141C27.663 54.3654 28.5304 51.3725 29.8927 48.637C31.4222 45.5657 32.9067 45.1827 33.9038 44.3787C35.6363 42.9819 38.1096 41.8254 38.2801 41.8728C39.2935 42.1543 36.9973 44.4888 36.5089 45.4422C35.854 46.7209 35.1022 49.5823 34.6138 51.175C34.2087 52.496 33.6939 53.5767 32.769 54.6744C32.4286 55.087 32.0393 55.5258 31.747 55.8662C31.6953 55.966 31.8396 55.9179 31.9883 55.8683" stroke="#0012D4" stroke-linecap="round"/>
<path d="M36.9448 55.8683C37.2334 53.3668 37.4302 51.8375 37.6955 51.1604C38.1409 50.0237 39.4638 48.3476 40.6782 46.5749C41.2517 45.7377 41.6549 45.0851 42.1892 44.5974C43.4544 43.4426 42.2919 49.2995 41.9268 50.4468C41.6601 51.2846 41.4173 52.2676 40.786 53.1926C40.6388 53.3886 40.5426 53.533 40.3728 53.7997C40.2029 54.0665 39.9624 54.4514 39.5688 54.7021" stroke="#0012D4" stroke-linecap="round"/>
<path d="M22.2211 32.2521C22.1234 31.6704 22.2211 30.8001 21.9069 29.8256C21.6456 29.0149 20.912 28.4647 20.038 27.9049C19.1309 27.3239 17.7107 26.4763 16.8054 25.3567C15.4453 23.6747 16.2922 22.0009 16.4373 21.7815C17.0684 20.8269 18.909 24.1322 20.0067 24.9121C20.9025 25.5485 21.9732 26.8028 22.6081 28.48C22.7065 28.8481 22.7546 29.0887 22.7794 29.6936C22.8042 30.2986 22.8042 31.2608 22.8042 32.2521" stroke="#0012D4" stroke-linecap="round"/>
<path d="M23.8246 28.7534C25.4268 25.2561 26.0084 24.5783 27.2453 23.3158C28.1286 22.4143 28.8744 22.0009 29.8949 21.7079C30.1303 21.6403 30.3322 21.8026 30.4314 22.0446C30.9481 23.3062 28.889 25.1468 27.3525 26.9253C26.3383 28.0992 25.5769 28.6047 24.969 29.0675C24.606 29.3336 24.2634 29.5785 23.9967 29.7964C23.8742 29.9181 23.778 30.0625 23.5331 30.2112" stroke="#0012D4" stroke-linecap="round"/>
<path d="M16.973 54.4105C16.9249 53.9776 16.8768 53.5446 16.4912 51.6618C16.1056 49.7791 15.384 46.4597 15.0123 44.3408C14.5008 41.4252 14.8811 40.0323 15.3177 39.1824C15.4894 38.8481 15.6581 38.7655 15.8046 38.7881C15.9511 38.8107 16.0954 38.955 16.2179 39.1496C16.4772 39.5618 16.9205 42.2861 17.5036 46.1477C17.8393 48.3709 17.8477 49.2558 18.0897 50.7114C18.2982 51.9655 18.3812 52.7545 18.5758 53.3879C18.6247 53.5344 18.6728 53.6787 18.6976 53.8493C18.7224 54.0198 18.7224 54.2123 18.7224 54.4105" stroke="#0012D4" stroke-linecap="round"/>
<path d="M13.7659 54.119C12.8431 52.0314 12.6492 50.9672 12.1886 48.54C11.9246 47.1493 11.3401 45.4334 10.5624 43.4137C9.17092 39.8 9.24675 38.8646 8.85971 36.4163C8.63648 35.0041 8.2263 33.4708 7.96025 32.2812C7.71808 31.1984 7.69275 30.4094 7.61913 29.655C7.54871 28.9334 7.35162 27.3073 7.23063 25.9646C7.0057 23.4688 6.81807 22.1 6.45508 21.178C5.55857 18.9007 5.06872 17.922 5.06726 15.2557C5.06662 14.0791 5.40693 13.448 5.64892 13.1572C5.78112 12.9983 5.98713 12.8664 6.25463 12.792C6.52214 12.7177 6.85889 12.7177 7.10453 12.8379C8.43363 13.4887 7.35454 17.126 7.15774 18.5926C7.01341 19.5576 6.86618 20.2967 6.79329 20.6357C6.76851 20.8303 6.76851 21.0708 6.62273 21.6102" stroke="#0012D4" stroke-linecap="round"/>
<path d="M9.97562 40.853C9.63596 39.4477 9.53829 35.6837 10.3364 33.3972C10.4288 33.1324 10.7016 33.1763 10.8722 33.2237C11.2677 33.3335 11.4815 33.7084 11.6025 33.9992C12.1326 35.2732 11.6783 38.0745 11.2891 39.0767C11.0952 39.3923 10.7555 40.0702 10.343 40.9441C10.171 41.2889 10.0748 41.4332 9.97562 41.5819" stroke="#0012D4" stroke-linecap="round"/>
<path d="M10.1214 41.1446C8.61843 40.0279 7.26122 39.7364 5.1241 39.8071C4.66515 39.8223 4.4885 40.1679 4.43748 40.4602C4.32903 41.0814 4.72612 41.5805 5.01695 41.8473C5.98565 42.2613 7.63733 42.4566 8.77951 42.6017C9.23945 42.6505 9.96105 42.6986 10.7045 42.4566" stroke="#0012D4" stroke-linecap="round"/>
<path d="M8.66361 37.5002C7.35451 35.6079 6.38362 34.7333 5.55705 34.3426C5.07391 34.1142 4.53514 34.3411 4.24358 34.6064C4.06699 34.7671 4.14445 35.2085 4.40904 35.5992C5.94045 36.7713 7.3895 36.9637 8.39392 37.1838C8.56448 37.2086 8.75691 37.2086 8.95517 37.2086" stroke="#0012D4" stroke-linecap="round"/>
<path d="M7.64313 30.6485C9.14465 27.9793 10.3138 27.1994 10.7016 27.0776C10.8895 27.0186 11.0893 27.1002 11.2366 27.2453C11.5614 27.5653 11.5311 28.2154 11.4341 28.8219C11.2822 29.7724 10.3196 30.4998 9.32323 31.1565C9.10238 31.2797 8.95806 31.3278 8.81155 31.3767C8.66504 31.4255 8.52072 31.4736 7.93469 31.5232" stroke="#0012D4" stroke-linecap="round"/>
<path d="M7.49741 31.0858C6.76997 29.6295 6.09209 29.0479 5.19264 28.6331C4.80202 28.453 4.34128 28.4618 3.90468 28.5099C3.704 28.532 3.56428 28.6542 3.44183 28.8481C3.15894 29.296 3.12403 29.8686 3.17213 30.3052C3.25347 31.0434 4.62264 31.6165 5.96235 32.2987C6.42447 32.3979 6.86327 32.3498 7.29987 32.2288C7.49595 32.1559 7.64027 32.0597 8.08052 31.9605" stroke="#0012D4" stroke-linecap="round"/>
<path d="M6.91425 23.3595C7.01046 22.3974 7.20435 21.7093 7.61544 21.3456C7.85288 21.1355 8.26708 21.03 8.5856 20.9797C8.90413 20.9294 9.14467 20.9775 9.34074 21.1466C10.1482 21.843 9.92604 22.9659 9.95156 23.8909C9.68551 24.5724 9.24817 25.1074 8.88518 25.3982C8.66651 25.5447 8.37787 25.6891 7.78892 26.1293" stroke="#0012D4" stroke-linecap="round"/>
<path d="M6.91428 24.0884C6.4784 23.361 5.89674 22.8755 5.04685 22.4623C4.60538 22.2476 4.1955 21.9994 3.73483 21.9265C3.51604 21.8919 3.32228 21.9017 3.15099 22.0461C2.74125 22.3913 2.63857 23.065 2.56568 23.5986C2.50639 24.0326 2.63712 24.3785 2.85506 24.6694C3.36019 25.3434 4.71884 25.8349 5.72108 26.0805C5.89237 26.0812 6.03669 26.0331 6.2313 26.0083C6.42592 25.9836 6.66645 25.9835 6.91428 26.1293" stroke="#0012D4" stroke-linecap="round"/>
<path d="M10.5588 54.7021C10.0748 54.3158 9.10681 53.5388 7.86695 52.3273C6.86045 51.3439 6.4303 50.2339 6.06658 49.7252C5.69432 49.2045 4.83256 47.8125 3.57011 46.0165C2.38775 44.3345 1.81784 42.4683 1.03647 39.4543C0.628168 37.8794 0.5 36.1939 0.5 36.1611C0.5 33.9329 0.932964 41.2306 1.61302 43.0514C2.39157 45.1359 3.26689 47.3111 3.39153 49.93C3.44304 51.0122 3.36602 51.8798 3.60874 52.6823C4.09492 53.6306 4.5789 54.6 5.0884 55.353C5.30926 55.6249 5.45358 55.673 5.60227 55.7225" stroke="#0012D4" stroke-linecap="round"/>
</svg>
