<svg width="34" height="58" viewBox="0 0 34 58" fill="none" xmlns="http://www.w3.org/2000/svg">
<path d="M16.186 6.9851C15.8437 6.75631 15.0438 6.52753 13.0699 6.55419C10.7769 6.58516 9.82474 7.61468 8.90874 8.29932C6.7532 9.91041 6.95547 11.2821 6.75421 12.3418C6.51309 13.6112 7.12405 14.8911 7.92566 16.269C8.71153 17.6198 9.87291 18.4484 12.5057 19.4246C14.8336 20.2878 17.8408 19.4874 19.3623 18.8286C21.212 18.0277 22.3168 17.0241 23.0074 15.6772C23.51 14.6971 23.4108 12.5619 22.6978 9.80362C22.2727 8.15915 20.3798 7.79014 19.4286 7.33085C19.0002 7.10207 18.4825 6.92833 17.7402 6.84232C17.2818 6.81308 16.6573 6.81308 16.014 6.81308" stroke="#0012D4" stroke-linecap="round"/>
<path d="M13.0897 10.5975C12.9761 10.9381 13.088 11.3974 13.5447 11.8842C14.9458 13.3777 17.5604 12.2041 17.9036 11.947C18.0765 11.8033 18.2468 11.633 18.3062 11.4318C18.3655 11.2305 18.3087 11.0034 18.2502 10.7695" stroke="#0012D4" stroke-linecap="round"/>
<path d="M15.842 19.7145C15.5564 20.9134 15.3259 22.7454 15.1831 24.4373C15.061 25.8851 15.0971 27.2214 15.0395 29.3286C14.9167 33.8187 15.2107 37.0282 15.2967 37.6853C15.4041 38.5062 15.3827 39.2077 15.4687 39.8355C15.6002 40.7955 15.8953 43.6027 16.4974 47.1274C16.7776 48.7677 16.7588 49.4703 16.8448 50.7527C16.8741 53.2272 16.9309 55.0334 17.0169 55.7464C17.0461 56.2324 17.0461 56.9703 17.2181 57.3866" stroke="#0012D4" stroke-linecap="round"/>
<path d="M16.186 42.937C16.014 42.3694 16.241 40.195 16.7287 38.8412C17.136 37.7105 18.1883 36.5792 19.0209 35.6864C20.0681 34.5635 21.4566 34.3946 22.518 34.1649C23.569 33.9375 25.2927 33.6514 26.5312 33.0485C28.6634 32.0106 30.6287 31.1296 32.207 29.8395C32.6843 29.4493 32.9853 29.1772 33.1006 29.0611C33.7141 28.4431 32.3007 30.6618 31.7847 32.0362C31.1055 33.8451 30.5805 34.7317 29.4366 36.3367C28.397 37.7952 27.4291 38.6882 25.8251 40.3223C25.0367 41.1255 24.2743 41.6159 22.5008 42.304C21.2554 42.7872 20.2628 42.7065 19.1714 42.7934C18.357 42.8582 17.6791 42.9938 17.2215 43.0798C16.764 43.109 18.9142 41.179 22.6969 38.1979C24.0954 37.1469 24.436 37.0333 24.9589 36.9164" stroke="#0012D4" stroke-linecap="round"/>
<path d="M16.358 45.8614C15.7852 44.0294 15.2158 42.4313 13.727 39.7934C12.4476 37.5265 10.5162 37.3774 8.62576 36.8321C6.30503 36.1627 3.70774 36.9164 1.94111 36.6885C1.60893 36.6456 1.17219 36.4038 0.881475 36.4012C0.590763 36.3986 0.477231 36.5689 0.503894 37.0256C0.630955 39.2021 1.67448 39.9508 2.45029 40.9838C3.36298 42.199 4.71577 43.2777 5.489 44.2805C6.13529 45.1188 7.00707 45.5139 8.2112 46.0317C9.16334 46.4411 10.444 46.6045 12.5375 46.6931C13.7252 46.7434 14.8614 46.4359 15.6966 46.2639C16.4389 46.111 14.4176 44.2651 13.3511 43.4265C13.0931 43.2828 12.7525 43.1125 12.3784 42.9113C12.0042 42.71 11.6068 42.4829 11.0254 42.077" stroke="#0012D4" stroke-linecap="round"/>
<path d="M14.4658 20.4026C14.1803 20.6297 13.6092 21.5448 12.8635 22.8341C12.3995 23.6363 11.717 24.3556 11.059 24.8716C10.7736 25.0954 10.4578 25.0471 10.2264 24.9903C9.29932 24.7629 8.73416 23.5609 8.38926 22.8702C8.31644 22.7244 8.10457 22.6973 7.90331 22.6965C7.04011 22.6928 6.49792 23.1549 6.09711 23.0697C5.72109 22.9899 5.57934 22.4685 5.4357 22.1254C5.13775 21.4135 6.09195 20.578 6.80841 19.4608C7.37002 18.585 7.69861 17.652 7.75709 17.394C7.90897 16.7239 4.56787 17.4783 2.94315 17.5075C1.86741 17.5269 2.53804 15.304 2.483 14.4705C2.4569 14.0753 1.68139 14.0964 1.30897 13.8108C0.953964 13.5386 1.10513 12.894 1.27629 12.3788C1.58346 11.4542 3.21924 11.4576 4.56959 11.3148C4.94194 11.2755 5.397 11.2856 5.68771 11.2004C5.97842 11.1153 6.09195 10.945 6.03691 10.6018C5.77183 8.94926 4.94975 8.25118 4.29092 7.3326C3.92562 6.82329 3.45834 6.41402 3.20032 5.95645C3.07917 5.74162 3.11259 5.49888 3.31127 5.23999C4.29435 3.95901 6.03003 4.23282 7.0372 4.34721C7.23803 4.37002 7.40962 4.29131 7.55411 4.17692C8.19044 3.67316 8.3282 2.68809 9.32849 2.08431C9.70352 1.85793 10.3821 1.99658 10.9025 2.28041C12.8723 3.35485 12.8007 4.91746 13.0888 5.40771C13.4269 5.983 13.0897 3.38305 13.2032 1.74973C13.2463 1.12925 13.5438 0.967904 13.8311 0.823408C14.4375 0.518379 15.0369 0.448407 15.4945 0.533557C16.0097 0.62943 16.3563 1.13476 16.7279 1.42117C17.4457 1.97449 18.5324 1.13992 19.2514 0.935221C19.6403 0.824499 19.6264 2.84291 19.7399 4.82199C19.7758 5.44801 20.0805 5.26837 20.2543 5.0955C21.1739 4.18042 22.7159 2.86011 23.9793 2.51349C24.7036 2.3148 25.5851 2.34061 26.3016 2.42576C27.0381 2.5133 26.9647 4.05392 27.3939 5.03271C27.7627 5.87378 28.912 6.18007 29.2302 7.01007C29.4248 7.51755 28.9756 8.24258 28.4604 8.90141C27.8892 9.63183 26.5157 9.5654 25.2824 9.65055C24.892 9.6775 25.014 9.906 25.2144 10.0221C26.298 10.65 27.7078 10.367 28.6823 10.4539C29.6316 10.5385 30.4619 11.1119 30.6915 11.455C31.1351 12.1179 29.834 13.1159 29.8323 14.0061C29.83 15.158 30.0628 16.4444 29.8916 16.7592C29.0823 18.2477 25.1379 16.9072 24.4464 16.8186C22.3292 16.5473 27.1333 19.078 27.5668 19.9407C28.0698 20.9417 27.3707 22.8556 26.711 23.984C25.9218 25.334 23.9303 24.132 23.0702 23.7294C22.2881 23.3634 21.522 24.3556 20.748 24.6738C20.5078 24.7726 20.1493 24.7031 19.8603 24.5895C19.5713 24.476 19.3443 24.2489 19.2273 24.0184C18.8295 23.2344 18.7113 22.4703 18.024 21.8673C17.5106 21.3831 17.0478 20.9771 16.7047 20.72C16.5318 20.5763 16.3615 20.406 16.186 20.2306" stroke="#0012D4" stroke-linecap="round"/>
</svg>
