<svg width="57" height="54" viewBox="0 0 57 54" fill="none" xmlns="http://www.w3.org/2000/svg">
<path d="M6.50356 43.1397C6.37079 43.1397 7.099 43.2725 9.5009 43.4405C11.1027 43.5525 13.496 43.4093 14.8433 43.3585C16.4241 43.2989 16.9942 43.2403 17.7627 43.2071C18.2001 43.1882 18.7303 43.1076 20.1324 43.0734C21.5345 43.0392 23.7916 43.0392 25.4688 42.9728C28.1801 42.8655 29.567 42.6368 30.1861 42.6202C30.4736 42.6125 30.7056 42.5705 32.1695 42.57C33.6335 42.5694 36.3221 42.6026 37.8232 42.6363C40.0634 42.6866 41.1319 42.8038 42.537 42.9376C46.0932 43.2761 46.7343 43.709 47.0526 43.8594C47.1845 43.9217 47.205 44.043 47.1557 44.227C46.9246 45.0902 46.2696 45.4169 45.4986 46.0209C44.9733 46.4325 44.3928 46.992 43.838 47.4633C42.9776 48.1942 41.6086 49.0399 40.5048 49.0907C40.0654 49.1109 39.2993 49.1747 38.3277 49.1581C37.8184 49.1494 36.6882 49.0741 35.0633 49.0575C34.2004 49.0487 33.2986 48.9735 32.16 48.9569C30.6792 48.9353 29.4724 48.9393 28.6683 49.1571C28.003 49.3372 27.5272 49.3758 25.4124 49.5428C23.9356 49.6594 21.2428 49.577 19.7748 49.5604C18.1402 49.5419 17.0405 49.4764 15.5328 49.4598C14.0831 49.4439 12.3454 49.2431 11.6181 49.1581C11.095 49.0969 10.6294 49.0077 9.87657 48.6235C8.71947 48.0329 8.14908 47.1328 7.87901 46.6284C7.57415 46.059 7.37661 45.6563 6.95768 45.17C6.63807 44.799 6.43717 44.3487 6.21941 43.9459C6.16862 43.8448 6.13543 43.7453 6.11833 43.6442C6.10123 43.5431 6.10123 43.4435 6.20181 43.3409" stroke="#0012D4" stroke-linecap="round"/>
<path d="M13.3431 49.577C13.3431 49.7098 13.3431 50.7408 13.4261 52.1992C13.4546 52.7011 13.675 52.6951 13.8269 52.7117C14.1142 52.743 14.713 52.7956 15.4835 52.7791C17.2222 52.7416 19.6456 52.5955 19.7627 52.3948C19.8467 52.1942 19.9473 51.992 20.0479 51.476C20.0821 51.0596 20.0821 50.3294 20.1827 49.6776" stroke="#0012D4" stroke-linecap="round"/>
<path d="M34.7671 49.3759C34.7671 50.6402 34.8666 52.694 35.0673 52.8781C35.7504 53.5048 37.4466 53.031 38.5178 52.9802C39.3289 52.9417 39.7609 52.863 40.0456 52.7629C40.6322 52.5567 40.3654 51.3231 40.4162 50.6024C40.4328 50.4169 40.466 50.2509 40.4831 50.0327C40.5002 49.8144 40.5002 49.5489 40.5002 49.2753" stroke="#0012D4" stroke-linecap="round"/>
<path d="M13.2425 16.8879C13.7434 18.5626 14.5461 19.0987 15.302 19.585C15.843 19.933 16.7891 20.9373 17.3488 21.7973C17.4362 21.9315 17.4328 22.0819 17.4167 22.2333C17.382 22.5593 17.0667 22.8544 16.6819 23.0721C15.9266 23.4997 13.8923 23.0254 12.6753 22.7226C12.0483 22.5667 11.6352 22.0196 11.1489 21.7334C10.5647 21.3896 9.62361 21.4141 8.48653 21.6142C7.1654 21.8468 5.8357 22.1181 4.93348 22.2846C2.48497 22.7364 1.81242 22.6552 1.29191 22.3877C0.727668 22.0977 0.57124 20.7522 0.501839 19.9908C0.448252 19.4029 1.63741 19.1027 2.69452 18.9669C2.91547 18.9385 3.04757 18.8673 3.13256 18.7833C3.63134 18.2905 3.21856 16.9583 2.90072 16.2869C2.60705 15.6666 2.58087 14.9808 2.81422 14.4588C2.95391 14.1463 3.31713 14.0384 3.78383 13.9881C5.7193 13.7795 7.26999 14.3733 8.22703 13.8226C8.86701 13.4544 9.58338 12.8002 10.3398 12.5799C11.2313 12.3203 12.3997 13.0316 12.9227 12.9828C13.5456 12.9247 13.0756 11.4625 13.0912 10.4205C13.1048 9.5083 14.7814 9.21146 15.9351 9.05958C17.2386 8.88798 18.2032 9.00929 18.4708 8.87602C19.1619 8.53176 19.1085 7.4372 19.2101 6.69842C19.3601 5.6072 20.2471 4.58671 20.8506 3.98221C21.6476 3.18383 22.824 2.77623 23.9344 2.52176C25.0758 2.2602 26.5183 3.37671 26.7024 3.24344C27.5116 2.65757 27.5232 1.03214 27.9758 0.695194C28.2764 0.471434 28.9957 0.493024 29.7661 0.50962C30.2074 0.519125 30.6402 0.859142 31.1426 1.32785C31.879 2.01483 31.8502 3.27311 32.0669 4.32771C32.1208 4.58973 32.2505 4.74764 32.3848 4.84973C32.9352 5.26823 33.725 4.95283 34.9793 4.96842C36.4992 4.98731 37.5109 6.25435 38.2683 6.79498C38.9445 7.27768 40.4942 6.7975 42.0034 6.76229C42.9515 6.74018 43.4473 7.76308 44.2338 8.72062C44.5325 9.08428 45.3805 9.13904 46.2877 9.57356C48.3215 10.5476 49.451 11.4886 49.7181 11.7396C50.3495 12.333 51.4576 11.7944 52.4328 11.5238C52.7935 11.4237 53.1383 11.8568 53.4064 12.2415C53.9416 13.0097 53.4431 14.1701 53.1912 14.6565C52.9569 15.1087 52.9724 15.5793 53.0554 15.7966C53.4804 16.9094 55.6177 16.9543 56.0557 17.2052C56.2376 17.3094 56.191 17.6905 56.1578 18.042C56.1323 18.3118 55.8903 18.463 55.6896 18.5802C55.291 18.8129 54.7185 18.7989 54.2483 18.8824C53.686 18.9822 53.2761 18.7325 51.9223 18.3649C50.5102 17.9815 49.4902 17.6925 48.751 17.8424C48.1569 17.9628 47.2453 18.295 46.0745 18.4459C44.206 18.6867 43.4533 18.1632 42.3987 17.4275C41.6083 16.876 40.5103 16.22 39.2973 15.7664C37.6873 15.1643 35.5476 15.5783 34.7188 15.881C34.0416 16.1284 32.6669 16.7169 31.1838 16.8547C29.9281 16.9713 28.7684 15.8841 27.7972 15.3309C26.6429 14.6733 24.6787 15.2765 23.7569 15.6794C22.5405 16.2109 20.4905 16.385 19.7658 16.2849C19.1286 16.1969 18.676 15.9826 18.1897 15.9157C17.7532 15.8557 17.2356 16.4493 16.4305 16.9367C15.561 17.3214 14.4505 17.8595 14.2997 18.0431C14.2484 18.1602 14.2484 18.3262 14.3489 18.4972" stroke="#0012D4" stroke-linecap="round"/>
<path d="M44.1211 18.6984C43.9874 19.4004 43.5217 20.9997 43.0997 22.0156C42.8032 22.7294 42.1135 23.7556 41.6916 24.4295C41.319 25.0246 40.0395 25.9664 39.078 26.6262C38.4376 27.0656 37.8871 27.113 37.3842 27.3308C36.8497 27.5622 36.145 27.5818 35.2563 27.8503C34.6664 28.0286 33.5681 28.7847 32.774 29.2585C32.2901 29.5471 31.8522 29.9957 30.9484 31.3154C30.2531 32.3307 30.4098 33.1439 30.3248 33.6836C30.2608 34.09 30.1744 34.4877 30.2066 35.0731C30.2827 36.4573 30.8101 36.8675 31.1114 37.655C31.3159 38.1897 32.0131 38.6438 32.8529 38.8982C33.5304 39.1035 34.0267 39.0159 34.497 39.116C35.0959 39.2435 35.636 39.2835 36.1229 39.3508C36.9157 39.4606 37.4807 39.9533 37.967 40.2219C38.3884 40.4546 39.1202 41.0557 39.5939 41.6461C39.6613 41.7638 39.7277 41.8966 39.7619 42.0148C39.7961 42.1329 39.7961 42.2325 39.7961 42.3351" stroke="#0012D4" stroke-linecap="round"/>
<path d="M16.4611 23.124C17.4297 23.1903 18.4366 23.3251 19.3227 23.558C21.3723 24.0965 21.79 24.6991 22.226 24.9998C23.1964 25.6691 23.3671 27.0446 23.3349 29.349C23.3012 31.7621 22.9326 32.4741 22.8818 33.4135C22.8381 34.2213 22.7314 35.1576 22.6806 35.7445C22.6147 36.5065 22.4297 37.1008 22.1953 37.6394C21.8471 38.4396 20.8566 38.9817 20.3522 39.116C19.7604 39.2735 18.7484 39.4162 18.0554 39.5354C17.3775 39.652 16.6643 40.2209 16.178 40.6403C15.6033 41.1359 15.1214 41.7296 14.619 42.2994C14.4837 42.5343 14.3499 42.7696 14.1825 43.0206C14.1146 43.1388 14.0814 43.2383 14.0472 43.3409" stroke="#0012D4" stroke-linecap="round"/>
<path d="M17.0646 22.0176C18.0011 21.917 18.8047 21.8506 21.0291 21.833C21.8286 21.8267 22.6248 22.1162 23.3656 22.4189C23.8668 22.6238 24.3045 22.955 25.1248 23.3739C25.3074 23.4672 25.4109 23.4921 25.3294 22.5135C25.248 21.5348 24.9824 19.5433 24.8457 18.3846C24.6757 16.554 24.6083 15.9857 24.5917 15.5829C24.5751 15.4788 24.5419 15.5783 24.5077 15.6809" stroke="#0012D4" stroke-linecap="round"/>
<path d="M26.4188 15.2786C27.1218 16.4815 27.4568 17.5557 27.5584 18.1758C27.6434 18.6949 27.7263 20.0622 27.7429 21.5886C27.748 22.053 27.7927 21.8868 27.9094 21.6685C28.5381 20.4924 29.7641 19.0081 30.4571 18.298C30.5748 18.1311 30.7076 17.8655 30.7926 17.679C30.8776 17.4924 30.9107 17.3928 30.9449 17.2902" stroke="#0012D4" stroke-linecap="round"/>
<path d="M33.9624 16.1838C33.728 17.4562 33.5278 18.1251 32.2409 20.0155C31.419 21.2228 30.3434 22.5185 30.1076 23.0546C29.8036 23.7454 29.7721 24.2948 29.7545 26.2345C29.7462 27.1481 29.8717 27.8503 29.9718 27.968C30.2486 28.2936 31.0736 27.1513 32.165 26.5956C32.9779 26.1816 34.0267 25.8739 34.9129 25.7733C37.048 25.531 37.9494 24.9687 38.403 24.6342C39.0999 24.1204 40.0596 22.5306 40.4157 21.7008C40.6339 21.048 40.8341 20.2433 40.986 19.241C41.0031 18.7074 41.0031 17.8113 41.0031 16.8879" stroke="#0012D4" stroke-linecap="round"/>
<path d="M26.3182 25.8397C26.6501 28.5614 26.8211 30.8597 26.7713 32.4831C26.7325 33.7496 26.1211 35.1515 25.4844 36.5089C25.0858 37.3586 24.6445 37.8733 24.2578 38.4768C23.6377 39.5158 23.2344 40.3214 23.0332 40.8078C22.999 40.9259 22.999 41.0255 22.8984 41.3293" stroke="#0012D4" stroke-linecap="round"/>
<path d="M28.4304 32.981C28.0281 36.7649 28.2272 38.2394 28.53 39.3308C28.5974 39.551 28.6638 39.6838 28.698 39.8352C28.7322 39.9865 28.7322 40.1525 28.7322 40.3235" stroke="#0012D4" stroke-linecap="round"/>
<path d="M29.9392 39.0159C30.1715 39.6466 30.4039 40.2772 30.6231 40.6685C30.8424 41.0598 31.0416 41.1925 31.2437 41.3605C31.4459 41.5285 31.645 41.7276 31.8502 41.9328" stroke="#0012D4" stroke-linecap="round"/>
<path d="M28.2292 26.1414C28.1961 26.7389 28.1629 27.3363 28.1458 27.7603C28.1287 28.1842 28.1287 28.4166 28.1287 28.656" stroke="#0012D4" stroke-linecap="round"/>
<path d="M21.2891 40.5247L20.2833 41.5305" stroke="#0012D4" stroke-linecap="round"/>
</svg>
