<svg width="36" height="36" viewBox="0 0 36 36" fill="none" xmlns="http://www.w3.org/2000/svg">
<path d="M9.41716 11.6888C6.9684 11.9604 5.65815 12.2875 3.37379 13.673C2.06574 14.4664 1.5131 16.0433 1.2661 17.841C0.760769 21.5188 1.99729 23.5122 2.81681 24.8797C3.61867 26.2177 4.88607 28.3115 6.08672 29.5964C7.00072 30.5746 8.10527 31.2069 8.89616 31.6166C9.84102 32.1062 11.7007 31.9135 12.5227 32.2987C13.3491 32.686 14.5927 32.7903 16.2228 32.9261C17.088 32.9981 18.548 32.9539 19.1639 32.8189C19.7798 32.684 19.5099 32.4141 19.3168 32.194C18.7415 31.5383 18.09 30.8863 17.4897 29.9048C17.0032 29.1094 16.6146 28.4849 16.6955 28.2657C17.3258 26.5595 20.0464 31.4261 20.8643 31.7802C21.7928 32.1823 23.0431 32.136 24.4605 31.8375C25.2175 31.678 27.6626 31.6452 31.0404 31.7262C32.922 31.7713 33.6789 32.2439 34.0061 32.2186C35.3883 32.1115 33.6822 29.522 33.4638 28.7859C33.1422 27.7017 33.8392 24.7456 34.0633 22.1365C34.15 21.1274 33.4107 20.5253 33.0827 19.7622C32.466 18.3274 31.5017 17.6332 31.6612 17.4696C32.4518 16.6588 33.7885 17.522 34.0069 17.4696C35.3396 17.1502 33.6266 15.0193 33.2201 13.7393C32.6545 11.9582 31.9385 11.2014 31.339 10.5732C30.6048 9.80402 29.7024 9.12721 29.6189 8.93664C29.2186 8.0222 31.1713 8.3633 31.3627 8.11957C31.9914 7.31893 30.2504 6.51324 29.6214 5.77551C28.8879 4.91509 28.1762 4.65828 26.4374 3.73161C24.6666 2.78792 23.8136 2.96525 23.5682 2.7755C22.9855 2.32484 23.5944 1.54867 23.3777 1.24933C22.7249 0.347728 20.9297 0.51323 17.8815 0.509958C14.9606 0.506823 13.2416 2.57757 11.7669 3.12719C10.7875 3.49226 9.64289 3.56231 8.60254 4.02605C7.59073 4.47707 7.07473 5.46962 6.82773 6.44945C6.38628 8.20064 7.39861 9.2319 7.72495 10.2935C7.88771 10.6485 8.15761 11.0803 8.32364 11.3838C8.48967 11.6872 8.54365 11.8491 8.76285 12.1796" stroke="#0012D4" stroke-linecap="round"/>
<path d="M8.27213 11.8524C12.1309 12.1763 15.0835 13.0498 17.34 13.7573C20.025 14.5991 20.5371 15.5035 21.4638 16.103C22.2454 16.6086 23.367 17.787 24.4352 18.9909C25.6794 20.3932 26.8022 21.7652 29.0113 24.1395C30.803 26.0653 32.5862 28.2036 33.297 29.1065C33.6233 29.6758 33.8981 30.2254 34.1157 30.6605C34.2253 30.8797 34.3333 31.0956 34.4445 31.3181" stroke="#0012D4" stroke-linecap="round"/>
<path d="M8.27211 12.1796C8.10854 14.0296 7.89261 15.5525 7.42887 16.4571C6.94851 17.3941 6.04092 18.173 5.19441 18.9108C4.56545 19.7025 4.29228 20.1932 4.1835 20.5196C4.1287 20.6839 4.07472 20.8459 4.0191 21.0127" stroke="#0012D4" stroke-linecap="round"/>
<path d="M10.3986 16.9233C8.65491 20.0837 8.32775 20.8459 8.29913 23.1303C8.28636 24.1488 8.87083 24.8797 9.22497 25.6175C9.36156 26.0248 9.47116 26.4092 9.74188 27.0594C9.95862 27.5477 10.3365 28.3574 10.7258 29.1916" stroke="#0012D4" stroke-linecap="round"/>
<path d="M17.2689 20.1949C16.837 21.3825 16.5606 22.3181 16.4788 23.1597C16.451 24.3792 16.505 25.2641 16.5867 25.6715C16.6146 25.9168 16.6146 26.2407 16.7781 26.5744" stroke="#0012D4" stroke-linecap="round"/>
<path d="M23.1577 24.2843C23.2116 25.4179 23.2656 26.5515 23.3204 27.2704C23.3752 27.9893 23.4292 28.2592 23.511 28.5602C23.5928 28.8612 23.7007 29.1851 24.1391 29.8459" stroke="#0012D4" stroke-linecap="round"/>
<path d="M26.1021 17.0869C25.5622 17.1948 26.2558 16.9806 27.9709 16.5716C28.7144 16.4326 29.2002 16.4326 29.6934 16.4866C30.1866 16.5405 30.6724 16.6485 31.5001 16.5962" stroke="#0012D4" stroke-linecap="round"/>
<path d="M18.5775 11.5253C20.1969 10.7695 21.9488 10.0563 23.4472 9.56561C24.2438 9.39877 24.7362 9.34479 25.2261 9.28999C25.4461 9.28917 25.608 9.34315 26.102 9.39877" stroke="#0012D4" stroke-linecap="round"/>
<path d="M11.3801 10.3802C12.5137 9.08471 13.6473 7.78918 14.6631 6.7979C15.6789 5.80662 16.5426 5.15886 17.0955 4.77118C17.6484 4.3835 17.8643 4.27554 18.4139 4.16431" stroke="#0012D4" stroke-linecap="round"/>
<path d="M2.38333 14.6332C1.78464 15.4495 1.34952 16.426 1.07553 17.8721C0.94724 18.5491 0.911137 20.4517 0.938127 22.9045C0.963196 25.1828 1.8926 28.0924 2.02837 29.3225C2.27693 31.5745 1.56872 33.1077 0.777821 34.368C0.622539 34.6155 0.423677 34.75 0.529184 34.7524C1.91422 34.7846 2.87079 33.2843 3.5799 32.711C4.56218 31.8645 5.16251 31.5373 5.51584 31.2658C5.70722 31.1022 5.92314 30.8863 6.30919 30.5002" stroke="#0012D4" stroke-linecap="round"/>
<path d="M4.50984 27.883C4.45586 28.4768 4.40188 29.0706 4.26611 29.4844C4.13034 29.8983 3.91442 30.1142 3.69196 30.3367" stroke="#0012D4" stroke-linecap="round"/>
</svg>
