<svg width="25" height="38" viewBox="0 0 25 38" fill="none" xmlns="http://www.w3.org/2000/svg">
<path d="M12.3738 36.5907C11.6115 33.1621 11.3923 30.6594 11.2566 28.8273C11.1172 26.9463 11.0652 24.7739 11.2279 22.6654C11.3233 21.4296 11.5003 20.2362 11.8266 18.6054C12.3217 16.1312 13.0248 15.113 13.7348 12.3919C14.1241 10.8994 14.2255 9.33545 14.4725 7.64569C14.5003 6.99302 14.5003 6.02137 14.5273 5.38587C14.5543 4.75038 14.6083 4.48047 14.8274 4.20239" stroke="#0012D4" stroke-linecap="round"/>
<path d="M13.5188 12.7084C11.7211 10.7471 11.1764 10.0944 10.7936 8.76125C10.3777 7.31251 10.5744 6.17182 11.1985 4.48125C11.6614 3.22721 12.75 2.24597 13.8951 1.15409C14.34 0.729833 14.9779 0.0180448 15.8245 0.979061C16.671 1.94008 17.6966 4.58512 18.2249 6.24461C18.9271 8.44993 18.6993 9.27161 18.5636 9.59795C18.2554 10.3386 17.1241 10.9057 16.2751 11.2354C15.8678 11.3441 15.3754 11.4537 14.8855 11.5625C14.6655 11.6173 14.5036 11.6713 14.1731 11.7269" stroke="#0012D4" stroke-linecap="round"/>
<path d="M11.0652 22.6866C12.1006 20.017 12.6421 19.0388 13.4886 17.7294C14.0498 16.8613 14.5527 16.1467 15.2609 15.4916C15.9967 14.8111 16.9507 14.0202 18.0671 13.5549C19.2633 13.0562 20.7653 13.4706 21.6674 13.8248C22.3907 14.1087 23.0047 14.2345 23.331 14.3703C23.5006 14.4408 23.6574 14.56 23.3629 14.9935C21.7454 17.3748 20.3433 18.3158 19.3831 18.9505C18.068 19.8197 15.3247 19.0355 14.367 18.5988C14.1748 18.4892 14.0128 18.3812 13.8754 18.2446C13.738 18.108 13.6301 17.9461 13.5188 18.1064" stroke="#0012D4" stroke-linecap="round"/>
<path d="M10.9016 22.1958C9.54227 20.619 8.45121 19.6342 7.47057 18.9006C6.92667 18.3845 6.32471 17.8905 5.72601 17.4284C5.4512 17.1822 5.23528 16.9123 5.01282 16.3071" stroke="#0012D4" stroke-linecap="round"/>
<path d="M9.10225 20.7237C9.42614 18.4565 9.59299 16.9647 9.43104 16.1231C9.18301 14.834 8.44958 14.0186 7.90732 13.6113C6.31408 12.4146 5.2909 12.4368 2.54281 11.8929C1.89966 11.7657 1.58424 11.5666 1.36341 11.6451C-0.676674 12.3705 1.46647 17.282 2.012 18.3755C2.43791 19.2293 4.02154 20.39 5.03736 20.9134C6.04499 21.2144 7.13605 21.1064 7.92695 20.8611C8.11915 20.7793 8.28109 20.6713 8.61152 20.3965" stroke="#0012D4" stroke-linecap="round"/>
</svg>
