<svg width="28" height="43" viewBox="0 0 28 43" fill="none" xmlns="http://www.w3.org/2000/svg">
<path d="M5.44236 41.8599C5.01052 40.7803 4.89602 39.7923 5.14056 39.084C5.29941 38.624 5.87584 38.3725 6.66265 38.0453C7.15087 37.8423 7.93528 37.9341 8.43256 38.042C9.99103 38.3804 10.5116 40.059 10.703 40.1964C11.4814 40.7552 9.58741 38.2645 9.23327 37.4196C9.02689 36.9273 9.04106 36.1396 9.20301 35.3496C9.27221 35.0119 9.68883 34.9374 10.1256 34.9357C12.3072 34.9275 13.7815 36.1871 14.5184 36.6508C14.8189 36.8399 14.8742 37.2781 15.0918 37.3076C16.719 37.5278 16.2908 34.3387 16.8903 33.7105C17.1722 33.4152 17.5454 33.192 18.0607 32.9466C18.3885 32.7905 18.9538 32.8632 19.3669 32.9981C19.7799 33.1331 20.0498 33.403 20.2158 33.731C21.0369 35.3529 20.2755 37.7084 20.3802 38.8313C20.506 40.1803 22.883 38.0453 24.0321 38.0968C24.9048 38.5851 25.8862 39.9984 26.2159 41.2833C26.2707 41.5311 26.3246 41.6931 26.5438 41.8599" stroke="#0012D4" stroke-linecap="round"/>
<path d="M15.4206 37.4433C14.058 34.0654 13.8404 33.1936 13.4323 32.2137C12.7116 30.4835 12.8034 27.2721 12.6676 25.1529C12.554 23.3807 12.8034 21.3211 12.9391 19.3746C13.0931 17.1666 12.5874 15.645 12.4492 14.2194C12.3412 13.1057 11.8775 12.0398 11.4424 10.7058C11.0629 9.05612 10.7325 7.83747 10.5419 7.51113C10.4593 7.34674 10.4053 7.1848 10.3497 6.85437" stroke="#0012D4" stroke-linecap="round"/>
<path d="M13.1305 16.1783C14.4375 13.7279 14.9822 12.0987 15.365 10.2985C16.1035 6.82534 14.5536 5.22845 13.6785 4.07686C13.0638 3.26804 12.3159 2.82059 10.5206 2.08613C9.44068 1.6443 8.7172 1.56759 7.95329 0.832308C7.77069 0.656545 7.68012 0.478164 7.59751 0.5027C6.46595 0.838807 7.72919 4.8195 8.03181 6.41356C8.35814 8.13252 7.6245 8.92202 7.43312 10.283C7.27453 11.4107 7.67521 12.6287 8.46202 13.7165C10.7292 15.4684 11.3295 15.7416 11.7098 15.8233C11.9282 15.8512 12.1981 15.8512 12.4762 16.0147" stroke="#0012D4" stroke-linecap="round"/>
<path d="M13.2941 29.5916C13.6196 26.0011 14.4882 23.4934 16.1763 22.045C17.9884 20.4901 19.8797 20.2186 21.0607 19.615C22.2876 19.0703 23.1071 18.524 23.4064 18.2524C23.5438 18.0888 23.6518 17.8729 23.763 17.6505" stroke="#0012D4" stroke-linecap="round"/>
<path d="M15.9113 22.5578C15.5874 21.1543 15.4206 19.9454 15.7175 18.8855C16.4692 16.2017 18.5253 16.2339 19.2074 15.8527C20.2227 15.2854 21.8492 15.416 23.1856 15.3064C24.3535 15.2106 25.4479 13.8391 26.2927 13.2102C27.1024 12.6074 26.9789 15.4062 27.1973 16.3664C27.483 17.6224 27.2538 19.283 26.4113 20.6439C25.7294 21.7456 24.7478 22.2273 23.0367 22.9634C19.4053 23.9204 17.5569 24.03 16.3783 23.4877C16.1321 23.2693 15.8622 22.9994 15.5842 22.7214" stroke="#0012D4" stroke-linecap="round"/>
<path d="M12.3126 29.5916C12.3126 26.7634 12.0967 24.367 11.7687 23.3781C11.4764 22.4968 10.5165 22.0147 8.99282 21.1977C6.73014 19.9843 2.82841 20.8141 1.87476 20.5687C1.39023 20.444 1.08141 20.1058 0.890839 19.9954C-0.144238 19.3956 1.13375 22.7181 1.75862 23.7519C2.89081 25.6251 3.47618 26.5327 4.23927 27.2173C5.31065 28.1784 6.20137 28.3353 7.07488 28.6093C8.84242 29.1638 11.4931 28.8277 11.8194 28.9365C11.9838 28.9913 12.1458 29.0453 11.9863 28.8032C11.8268 28.5611 11.341 28.0213 10.308 27.2034C9.27499 26.3855 7.70956 25.3059 6.09668 24.3571" stroke="#0012D4" stroke-linecap="round"/>
<path d="M12.3126 29.1009C12.3666 29.7536 12.5842 30.6222 12.8295 31.5513C13.0634 32.4368 13.6736 33.3474 14.0833 34.3051C14.3835 34.988 14.9266 35.7487 15.3102 36.4594C15.419 36.6238 15.5809 36.7857 15.9113 37.1162" stroke="#0012D4" stroke-linecap="round"/>
<path d="M13.2941 28.283C13.3481 30.0251 13.5656 30.897 14.0555 31.9046C14.5661 32.9546 14.7107 34.0017 15.1188 35.1214C15.4173 35.9613 15.6382 36.7318 15.7469 37.2487C15.8017 37.4957 15.8557 37.7116 15.9113 38.2612" stroke="#0012D4" stroke-linecap="round"/>
</svg>
