<svg width="34" height="48" viewBox="0 0 34 48" fill="none" xmlns="http://www.w3.org/2000/svg">
<path d="M7.1067 47.0585C6.82945 45.3977 6.73796 44.566 6.73657 41.1808C6.73595 39.6494 7.15106 38.7465 7.29107 37.9584C7.49562 36.8071 8.02995 36.0184 8.56019 34.6799C8.96798 33.6506 9.1847 32.7828 9.82722 31.0861C10.3618 29.6745 11.2017 27.102 11.7181 25.645C12.3363 23.9006 12.6046 23.3106 12.9033 21.9104C13.1328 20.8351 13.4308 19.0007 13.6186 16.0681C13.8065 13.1355 13.8522 9.15553 13.83 6.85366C13.7913 2.83872 13.5306 1.17626 13.2769 0.574627C13.2191 0.43757 12.9789 0.480362 12.6559 0.777713C11.7839 1.5805 11.2668 2.60272 11.0132 3.27089C10.7492 3.96606 10.4365 5.96299 10.0206 8.57192C9.80321 9.93574 9.78772 11.1004 9.64909 12.8735C9.57142 13.8669 9.60196 15.0582 9.41897 16.5172C9.02087 19.6915 8.40146 21.6873 8.21709 22.309C7.78952 23.7508 7.38673 26.3368 7.01521 28.2241C6.89479 28.8359 6.92233 29.4045 6.85302 30.8719C6.82945 34.3521 6.78371 36.8446 6.71439 37.6021C6.69083 38.1767 6.69083 39.1374 6.69083 40.1272" stroke="#0012D4" stroke-linecap="round"/>
<path d="M13.7607 16.5609C14.4525 14.8988 15.5545 13.4308 16.5305 12.3814C17.4744 11.3663 18.6098 10.0039 18.9349 9.14793C19.3396 8.08243 19.949 7.55304 20.6657 6.76842C21.9334 5.38055 23.5033 4.55042 24.821 3.81085C26.2881 2.98735 27.4833 2.60689 27.6454 2.55976C28.4763 2.31832 27.2074 4.68073 26.4276 6.70743C25.5092 9.09455 23.8832 10.8703 23.3987 12.0244C22.8087 13.4297 22.4484 14.6631 21.9445 16.1776C21.5407 17.3913 20.6171 19.4305 20.0093 20.7425C18.8088 23.3337 18.1995 23.9053 17.7594 24.5984C17.2302 25.4317 16.7661 26.2619 16.2352 26.8857C15.2567 28.0353 14.1794 29.0816 13.1182 30.1413C12.1393 31.119 11.6841 31.7598 11.0596 32.7073C10.1815 34.0396 9.18887 37.1135 8.74874 38.2294C8.31982 39.3169 7.89411 40.1245 7.31674 41.2549C7.1996 41.5121 7.15385 41.6493 7.08454 41.7886C7.01523 41.928 6.92373 42.0652 6.82947 42.3452" stroke="#0012D4" stroke-linecap="round"/>
<path d="M11.2655 27.3737C11.8186 26.4047 13.1036 24.4792 13.8058 23.1941C14.2938 22.301 15.2801 20.8666 15.8845 19.8678C16.2061 19.4305 16.5318 18.9203 16.7855 18.4358C16.902 18.2258 16.9935 18.0886 17.365 17.6699" stroke="#0012D4" stroke-linecap="round"/>
<path d="M18.8898 22.9377C19.8048 22.0227 21.008 21.1397 22.3458 20.4244C24.507 19.2687 26.603 19.1504 27.8242 18.7352C30.4927 17.8281 31.4049 17.0267 32.2415 16.4015C32.4387 16.2542 32.6553 16.0563 32.796 15.8934C32.9367 15.7305 32.9825 15.5933 32.3199 16.8035C31.6572 18.0137 30.2848 20.5755 29.0518 22.6043C27.8187 24.633 26.7665 26.0512 25.7442 27.2392C23.8588 29.4301 22.5426 30.5593 22.0817 31.0438C21.0975 32.0783 19.1311 33.329 17.4634 34.8296C15.7063 36.4107 15.5656 37.4434 14.9182 38.9426C14.501 40.1716 13.6748 42.9219 13.1147 45.2958C13.0676 45.8039 13.0676 46.4901 12.929 46.9198" stroke="#0012D4" stroke-linecap="round"/>
<path d="M10.5723 41.9293C10.8468 39.7335 11.3084 37.6874 12.0223 35.9123C13.1421 33.128 14.3097 32.3697 15.8567 31.0985C16.2976 30.7506 16.755 30.3846 17.0822 30.1503C17.4093 29.9161 17.5923 29.8246 17.9195 29.5917" stroke="#0012D4" stroke-linecap="round"/>
<path d="M13.8994 9.21374C15.0527 6.62837 15.6987 5.8895 16.369 5.10419C16.933 4.44329 17.5008 3.71863 18.056 3.27641C18.7412 2.73069 18.9342 5.09656 19.0514 6.02189C19.0742 6.25409 19.12 6.48282 19.1435 6.94375C19.1671 7.40468 19.1671 8.09087 19.1671 8.79786" stroke="#0012D4" stroke-linecap="round"/>
<path d="M9.04747 16.145C7.89549 13.0551 6.87936 11.3902 6.43784 10.7407C6.35018 10.6118 6.32209 10.4641 6.22991 10.4849C5.50042 10.6495 5.53747 11.9364 5.21309 13.3898C4.97399 14.4612 4.88871 15.9509 4.77365 17.6838C4.72035 18.4864 4.75008 19.8602 4.58997 20.3156C4.10615 21.6916 2.72061 17.8141 2.16402 17.0024C1.9769 16.7295 1.93183 16.4237 1.7939 16.3301C1.09346 15.8549 1.28445 17.8972 1.16939 18.6604C0.951781 20.1037 0.729946 22.1475 0.614887 23.0957C0.494697 24.0862 0.452695 24.8285 0.567754 25.6838C0.670737 26.4494 0.960064 27.2766 2.20284 29.1224C3.08335 30.4302 4.00705 31.3855 4.56363 32.4993C4.95053 33.2736 5.07169 33.9778 5.18883 34.7638C5.33403 35.7381 5.44321 36.3815 5.55827 37.6694C5.74986 39.8138 5.30735 42.1969 4.8686 43.7439C4.61145 44.9306 4.56571 45.5322 4.4964 45.8316C4.47283 45.9938 4.47283 46.1768 4.47283 46.2267" stroke="#0012D4" stroke-linecap="round"/>
</svg>
