<svg width="40" height="32" viewBox="0 0 40 32" fill="none" xmlns="http://www.w3.org/2000/svg">
<path d="M14.3027 29.5432C14.018 29.3534 13.7765 28.876 13.5378 26.4268C13.3366 24.3619 13.2042 20.6088 13.1776 18.0611C13.1381 14.2781 13.44 12.3919 13.4637 11.2913C13.4814 10.4724 13.5838 8.85209 13.7736 7.50418C13.9487 6.26064 15.0662 10.5099 15.8541 12.3941C17.0682 15.2976 17.4658 17.6053 17.4895 18.4658C17.6096 20.0984 17.7045 21.3895 17.8483 23.4154C17.8971 24.8244 17.8971 27.0069 17.8971 28.9681" stroke="#0012D4" stroke-linecap="round"/>
<path d="M13.44 4.8134C13.3926 4.43383 13.3451 4.05426 13.297 3.7401C13.2488 3.42595 13.2014 3.18871 13.1769 2.87672C13.1525 2.56472 13.1525 2.18514 13.1525 1.79407" stroke="#0012D4" stroke-linecap="round"/>
<path d="M18.9036 29.2556C19.2831 27.3578 19.7634 25.3837 20.4794 23.281C21.2857 20.913 22.3514 19.3393 22.9013 18.5499C23.3696 17.8778 23.838 17.325 24.6949 16.2768C26.3991 14.1923 27.8638 12.6292 28.2225 11.7457C28.6601 10.6679 28.6805 9.32515 28.6805 9.22019C28.6805 6.85792 28.633 13.7722 28.5611 14.5838C28.3915 16.4993 28.3929 18.2193 28.1068 19.9532C27.9044 21.1797 26.6704 22.4923 26.1183 23.3579C25.6851 24.0371 24.902 25.8855 24.2248 27.4548C23.8883 28.1514 23.7446 28.7265 23.649 29.109C23.6008 29.3017 23.5533 29.4914 23.2169 29.9745" stroke="#0012D4" stroke-linecap="round"/>
<path d="M28.968 6.82627C28.968 6.2569 28.968 5.68754 29.0155 5.32307C29.0629 4.95859 29.1578 4.81625 29.3994 4.52582" stroke="#0012D4" stroke-linecap="round"/>
<path d="M17.7534 20.3414C17.7045 18.6218 18.6563 15.3782 19.4047 13.0152C19.9524 11.2855 20.8647 8.62064 21.084 6.97295C21.1353 6.58733 21.204 5.92049 21.204 5.2965C21.204 4.86828 21.7274 7.15123 22.1616 9.71695C22.2865 10.455 22.2579 10.8981 22.3298 12.1583C22.3543 15.174 22.4017 17.3206 22.4736 17.6549C22.498 17.8469 22.498 18.0841 22.498 18.3285" stroke="#0012D4" stroke-linecap="round"/>
<path d="M22.3542 2.65673L22.6418 0.500061" stroke="#0012D4" stroke-linecap="round"/>
<path d="M28.5367 16.6032C28.6302 16.1273 31.1995 13.65 32.7278 12.3876C32.8984 12.2467 33.0858 12.0541 33.2548 11.814C33.4237 11.5739 33.566 11.2892 33.6394 12.2101C33.882 15.2573 33.6653 17.6557 33.5934 18.0618C33.4208 19.0366 32.1426 21.9 31.1506 23.6455C30.4758 24.8326 29.1636 26.7079 28.5151 27.6712C27.9739 28.4752 27.3893 28.9652 26.8135 29.5885C26.669 29.7805 26.5267 30.0177 26.4771 30.0213C26.4275 30.0249 26.4749 29.7876 26.5238 29.5432" stroke="#0012D4" stroke-linecap="round"/>
<path d="M34.7191 9.55806L35.0067 8.40784" stroke="#0012D4" stroke-linecap="round"/>
<path d="M29.6869 26.3801C30.4993 25.6626 31.4554 25.1838 35.1598 23.1292C36.7648 22.2391 37.7831 21.5894 38.2151 21.5865C39.7594 21.5762 37.7414 24.6432 37.1893 26.0882C36.7785 27.1633 36.2547 27.9099 35.346 29.1787C34.5768 30.0694 33.8133 30.6416 32.7343 31.3145C32.469 31.4123 32.2318 31.4123 31.9874 31.4123" stroke="#0012D4" stroke-linecap="round"/>
<path d="M39.0325 19.335C38.8901 18.9079 38.7478 18.4809 38.6982 18.1898C38.6486 17.8986 38.696 17.7563 38.7449 17.6096" stroke="#0012D4" stroke-linecap="round"/>
<path d="M13.0087 21.4916C13.0087 20.5369 12.4393 18.6276 11.407 15.8943C10.6878 13.9901 9.84843 13.1582 8.84342 11.7679C7.86722 10.4174 7.06777 9.37114 6.80321 8.74427C6.40971 7.81182 5.96355 12.2266 6.08289 13.962C6.22784 16.0699 6.91824 18.6534 7.85207 20.6196C9.51496 24.1207 10.6536 25.4628 11.1863 26.3053C11.4242 26.8057 11.7132 27.3362 11.9763 27.7668C12.0971 27.9602 12.192 28.1025 12.4336 28.5367" stroke="#0012D4" stroke-linecap="round"/>
<path d="M12.4336 29.1119C12.0511 28.3944 11.6687 27.7259 7.68098 25.2392C6.42854 24.4582 5.63286 24.0337 4.33886 23.1487C3.50714 22.5799 3.18576 21.7361 2.8256 21.0388C2.74152 20.876 2.70554 20.6808 2.65738 20.7253C1.77615 21.5408 2.70267 23.5477 2.96722 24.603C3.22708 25.6396 3.70911 26.7597 4.30795 27.7424C4.86417 28.6552 6.05557 29.6841 6.70401 30.2362C7.44734 30.692 7.97501 31.0285 8.26184 31.1241C8.40634 31.1722 8.54868 31.2197 8.83911 31.1248" stroke="#0012D4" stroke-linecap="round"/>
<path d="M1.794 19.4788L0.5 17.8972" stroke="#0012D4" stroke-linecap="round"/>
<path d="M2.65668 1.21898C2.56178 1.02919 2.65524 1.35844 2.91835 2.10033C3.13402 2.605 3.37413 3.32245 3.61352 4.1844C3.71057 4.52443 3.75801 4.66677 4.09445 4.81342" stroke="#0012D4" stroke-linecap="round"/>
</svg>
