<svg width="25" height="49" viewBox="0 0 25 49" fill="none" xmlns="http://www.w3.org/2000/svg">
<path d="M13.4458 9.47161C13.4458 9.43888 13.4458 9.40615 13.3967 9.37292C12.886 9.0273 11.5988 9.46963 10.9189 9.7186C10.0765 10.027 9.41666 10.6917 8.90087 11.4033C8.51434 11.9367 8.38706 12.7092 8.35383 13.3866C8.29718 14.5416 9.9007 15.8456 10.6828 16.5454C11.0039 16.8326 11.328 17.0428 11.6906 17.0924C12.6416 17.2225 13.4438 16.8454 14.1703 16.3837C14.7454 16.0182 15.3621 15.5242 15.7256 14.6662C16.1913 13.5671 15.9592 12.12 15.6458 11.6553C15.2852 11.1207 14.638 10.4992 14.1753 9.92045C13.781 9.5093 13.4467 9.27323 13.2489 9.22413C13.1492 9.17503 13.051 9.07684 12.9498 8.97566" stroke="#0012D4" stroke-linecap="round"/>
<path d="M12.8506 17.4068C12.8179 17.3414 12.7851 17.2759 12.7683 17.3076C12.5211 17.773 12.9815 18.7578 13.1145 19.963C13.367 22.253 13.7751 23.023 14.0235 23.6042C14.3246 24.3084 14.4039 25.1397 14.454 26.0825C14.4886 26.7341 14.6023 27.1909 14.7184 29.08C14.8018 30.4389 14.7352 32.9618 14.7189 34.3748C14.6998 36.0175 14.636 36.9731 14.6688 38.2769C14.6942 39.2906 14.8344 40.2483 14.8508 41.14C14.8612 41.7065 14.9336 43.2816 14.95 45.43C14.9569 46.3359 15.0328 47.026 15.0164 47.8036C15.0001 48.0248 14.9673 47.8939 14.9505 47.7773C14.9336 47.6608 14.9336 47.5626 14.9336 47.4614" stroke="#0012D4" stroke-linecap="round"/>
<path d="M13.2474 9.47161C13.2474 9.27423 14.4257 7.76555 15.6086 6.33423C16.3321 5.45874 17.1138 4.91085 17.5274 4.59593C18.0204 4.22061 18.5025 4.04988 18.982 3.8515C19.3696 3.69119 20.643 3.71859 21.5774 4.06377C21.9849 4.21433 22.0088 4.7095 22.0584 5.13651C22.1606 6.01603 21.5843 7.34795 20.7585 8.57047C20.0852 9.56731 19.4329 9.93186 18.9364 10.346C18.1543 10.9984 17.8121 11.3225 17.1679 11.7019C16.9314 11.8412 16.72 11.8849 16.4894 11.9345C16.3589 11.9626 16.1933 11.9514 16.2727 11.8695C16.6034 11.5285 17.1475 11.3572 17.6732 11.1102C19.9112 10.0588 21.6765 10.6282 22.1556 10.7274C23.0401 10.9105 23.4282 11.5189 23.7442 11.9499C24.1244 12.4686 24.2575 13.8618 24.0764 14.6275C23.9547 15.1425 23.6306 15.5202 23.1029 16.0162C21.8684 17.1764 19.3991 16.3495 18.9528 16.283C18.2846 16.1835 17.8458 15.8218 17.3657 15.5728C16.6689 15.2114 16.4552 14.8289 16.3887 14.7619C15.7723 14.1409 18.07 16.4784 18.6021 16.8107C19.0795 17.1087 19.6908 18.2261 19.9754 18.8932C20.1453 19.2913 20.157 20.0473 20.0925 21.8461C20.031 23.5618 19.0361 23.9177 18.5888 24.2336C18.0017 24.6482 16.7567 24.2192 16.1427 23.9216C15.287 23.5069 14.7392 22.8325 14.3067 22.3187C13.807 21.725 13.7433 21.2772 13.5787 20.7485C13.3516 20.0194 13.4457 19.2617 13.3307 18.6492C13.2811 18.4672 13.2156 18.238 13.1492 18.0545C13.0827 17.871 13.0172 17.7401 12.9498 17.4068" stroke="#0012D4" stroke-linecap="round"/>
<path d="M10.0733 16.5141C9.84317 16.5468 9.31548 16.8097 8.48922 17.5363C7.99472 17.9711 7.66099 18.5614 7.47848 19.0087C7.27286 19.5127 7.16504 20.0492 6.99889 20.7272C6.75092 21.7391 7.0956 24.2073 7.31184 25.043C7.43369 25.5139 7.92285 25.836 8.33548 26.0686C9.21408 26.5639 10.6962 26.1375 11.4922 25.6748C12.4438 25.1216 12.5193 24.3521 12.8328 23.8071C13.0507 23.428 13.049 22.2433 13.0654 20.7565C13.1145 19.9897 13.1482 19.2964 13.1155 18.4706C13.0827 18.1359 13.0173 17.9722 12.7514 17.6052" stroke="#0012D4" stroke-linecap="round"/>
<path d="M8.88301 11.5546C8.75208 11.39 8.28985 11.1261 7.64561 10.7953C7.22991 10.5819 6.47467 10.5964 4.73984 10.5791C3.91737 10.5708 3.00302 10.7611 2.27248 11.0244C1.6883 11.235 1.11444 11.751 0.767272 12.1646C0.250203 12.7807 0.616503 14.0641 0.765288 14.5288C0.905578 14.967 1.50723 15.2881 2.26752 15.851C2.744 16.2038 3.91557 16.5121 4.61634 16.7943C5.17754 17.0203 6.00451 16.9763 8.13065 16.9937C8.68264 16.9446 8.88201 16.8454 9.06353 16.6644C9.14685 16.5488 9.21232 16.3852 9.27977 16.2165" stroke="#0012D4" stroke-linecap="round"/>
<path d="M8.68462 11.0587C7.85936 10.7948 7.39714 10.5964 6.78662 10.4149C5.59269 10.0599 4.88564 9.80291 4.09163 9.48947C3.54425 9.27339 3.13196 8.77927 2.7347 8.46434C2.33916 8.15077 1.94366 7.36085 1.54393 6.51525C1.3854 6.17991 1.34456 5.4435 1.39365 4.53492C1.42091 4.03064 1.77306 3.78604 2.15147 3.53856C3.15925 2.87947 4.80431 3.02426 5.98665 3.18842C7.37796 3.38159 8.21843 4.57559 9.35812 5.71429C10.1492 6.50467 10.4026 7.28745 10.6511 7.6847C10.8003 8.11469 10.9323 8.64239 11.0483 9.07337C11.0652 9.17305 11.0652 9.27125 11.1644 9.27323" stroke="#0012D4" stroke-linecap="round"/>
<path d="M11.7595 8.77729C11.6286 8.51443 11.2318 7.98575 11.033 7.37524C10.6744 6.27446 10.5692 5.80357 10.3223 4.56766C10.033 3.12022 10.5018 2.43309 10.964 1.52302C11.3091 0.843531 12.0551 0.677424 12.5833 0.561371C13.7154 0.312637 14.402 0.87382 14.9153 1.35241C15.4101 1.81376 15.4613 2.52434 15.6111 3.41656C15.8908 5.08266 15.3641 5.76588 15.0343 6.37788C14.6578 7.07649 14.0429 7.74968 13.728 8.16429C13.5469 8.31308 13.3476 8.51146 13.166 8.75894C13.0827 8.87549 13.0173 8.97368 12.8506 9.07486" stroke="#0012D4" stroke-linecap="round"/>
<path d="M14.7352 38.7327C14.6033 38.3707 14.4059 37.7765 14.2234 37.3292C14.0247 36.842 13.6798 36.2569 13.2984 35.3637C12.8979 34.4257 12.4221 33.9081 12.0095 33.4607C11.446 32.8498 10.8688 32.7158 10.4224 32.5016C10.2736 32.3865 10.0773 32.1901 9.92698 32.0726C9.7767 31.955 9.67851 31.9223 9.37895 31.7894" stroke="#0012D4" stroke-linecap="round"/>
<path d="M10.7676 32.4837C10.7676 32.2863 10.8331 31.8906 10.7686 30.6874C10.6916 29.2503 9.77771 28.9803 9.29812 28.6332C8.85552 28.3128 8.38904 28.0539 7.82713 27.8555C7.31945 27.6763 6.63735 27.4925 5.53138 27.063C4.78243 26.7721 3.99294 26.4351 3.65916 26.2342C2.44746 25.5051 4.84796 28.9109 5.09643 29.3905C5.35195 29.8837 5.90532 30.4642 6.5813 31.2562C8.09431 33.029 9.37698 33.3427 9.85656 33.4751C9.97311 33.5084 10.0713 33.5411 10.2365 33.5579C10.4016 33.5748 10.6307 33.5748 10.966 33.4756" stroke="#0012D4" stroke-linecap="round"/>
</svg>
