<svg width="43" height="58" viewBox="0 0 43 58" fill="none" xmlns="http://www.w3.org/2000/svg">
<path d="M14.309 41.9374C12.9759 41.8162 11.9862 41.7538 11.406 41.7841C10.8792 41.8116 7.60691 41.9374 2.92554 41.9677C1.27364 41.9784 1.0921 42.0586 0.937862 42.1807C0.110821 42.8355 0.658761 44.565 0.933271 45.2683C1.04906 45.5649 1.26838 45.6686 1.48321 45.7613C3.58807 46.6698 7.69137 46.0982 9.86359 46.191C10.3287 46.2108 10.5705 46.2818 13.0283 46.3131C15.486 46.3443 20.1518 46.3443 22.7068 46.314C25.5661 46.2801 27.7554 46.1607 30.6924 46.1304C31.936 46.1175 33.6955 45.977 36.1432 45.765C37.0374 45.6875 37.1365 45.1287 37.1687 44.789C37.2708 43.709 36.773 42.8592 36.4672 42.1541C36.102 41.3117 34.0885 41.5702 30.3316 41.875C26.0765 42.2202 24.599 42.121 22.6416 42.2734C20.2491 42.3652 16.4831 42.4883 14.1906 42.3359C13.8848 42.3047 13.4607 42.3047 13.0237 42.3047" stroke="#0012D4" stroke-linecap="round"/>
<path d="M4.02635 46.5279C3.84457 46.5279 3.66278 46.5279 3.66003 46.6491C3.63214 47.876 4.81958 49.2161 5.15744 50.349C5.64668 51.9896 5.61649 54.2362 5.80011 55.0019C5.93633 55.57 6.53459 55.8906 6.83939 56.1964C7.63529 56.9947 9.16401 56.5645 13.6177 56.6572C14.6122 56.678 14.915 56.7481 17.2524 56.7794C19.5899 56.8106 23.9527 56.8106 26.4426 56.75C30.1102 56.6607 30.9523 56.3221 31.8722 55.864C32.8367 55.3837 32.9757 53.8763 33.3733 52.9279C33.8314 51.3093 34.4447 49.2271 34.9643 47.0264C35.058 46.471 35.058 46.0468 34.8744 45.6098" stroke="#0012D4" stroke-linecap="round"/>
<path d="M12.9486 41.6624C12.846 41.1496 12.7434 40.6367 12.5675 39.9315C12.3916 39.2262 12.1454 38.3441 11.9878 37.5718C11.8303 36.7994 11.7687 36.1634 11.6344 35.2204C11.5002 34.2774 11.295 33.0466 11.1894 32.2894C11.0837 31.5323 11.0837 31.2861 10.9811 30.3285C10.8785 29.3708 10.6734 27.7092 10.578 26.4327C10.4826 25.1561 10.5031 24.3151 10.7188 22.3535C10.9345 20.3919 11.3448 17.3354 11.5869 15.3402C11.829 13.3451 11.8906 12.504 11.9735 11.8143C12.1189 10.6062 12.2853 9.83719 12.4497 9.0129C12.5663 8.42865 12.8603 7.53217 13.1823 6.72871C13.5043 5.92524 13.8736 5.24828 14.2074 4.71492C14.5412 4.18156 14.8284 3.8123 15.1815 3.43746C15.5346 3.06261 15.9449 2.69336 16.4639 2.298C17.5708 1.45489 18.3351 1.02862 18.7161 0.904918C19.4373 0.670792 20.034 0.551829 20.5487 0.520747C21.5949 0.45757 22.3757 0.551208 22.5619 0.633885C22.9034 0.785553 23.3274 1.1716 23.65 1.32825C23.9547 1.47616 24.1989 1.69004 24.4684 1.90793C24.9337 2.28412 25.4012 2.56033 25.9796 3.08748C26.3433 3.4189 26.4791 3.76257 26.5618 3.96896C26.6734 4.24749 26.9944 5.24704 27.5325 6.83905C27.7902 7.60176 27.9064 8.30797 28.0111 8.93396C28.2044 10.0891 28.2818 10.7864 28.385 11.9066C28.4748 12.8811 28.5292 14.6884 28.551 16.3261C28.5728 17.9638 28.5317 19.3793 28.3978 20.8675C28.2638 22.3557 28.0382 23.8737 27.8706 25.107C27.7031 26.3404 27.6005 27.243 27.3015 28.7747C27.0025 30.3064 26.5102 32.4398 26.2155 33.6312C25.9209 34.8226 25.8388 35.0072 25.694 35.3998C25.3313 36.3826 25.1121 37.1027 24.9887 37.5146C24.7387 38.3489 24.4905 38.9676 24.4389 39.1641C24.2219 39.7938 23.8906 40.7691 23.6939 41.1418C23.6202 41.2888 23.5997 41.3504 23.5785 41.3516" stroke="#0012D4" stroke-linecap="round"/>
<path d="M27.2462 29.4784C28.1899 27.8373 28.7991 26.8072 29.1497 26.3634C29.3635 26.0927 29.7054 25.7759 30.2643 25.3094C31.5756 24.2147 32.5084 23.5735 32.7048 23.4494C33.1834 23.1473 34.3465 22.7461 35.0456 22.5064C35.8387 22.2345 36.2375 22.2885 37.1886 22.2777C37.6567 22.2723 38.2653 22.577 38.6834 22.7538C39.336 23.0299 40.2782 23.9234 40.5585 24.1625C40.9074 24.4599 41.1684 24.9379 41.4807 25.4769C41.6769 25.8154 41.6681 26.7774 41.6579 27.9165C41.6513 28.6503 41.565 29.0619 41.3489 29.7522C41.1949 30.2444 40.8662 30.9964 40.4616 31.8079C40.0569 32.6195 39.5645 33.4606 39.2904 33.9656C38.9464 34.5995 38.6252 35.3777 38.0359 36.505C37.5519 37.4309 37.1315 37.9314 36.9039 38.1794C36.6942 38.4081 36.1816 39.0466 35.4055 39.8746C34.6937 40.634 34.3963 40.7909 34.0957 41.0398C34.0227 41.1023 33.9611 41.1639 33.8884 41.2161C33.8157 41.2683 33.7336 41.3093 33.5869 41.3516" stroke="#0012D4" stroke-linecap="round"/>
<path d="M28.8003 12.9429C29.1695 11.8762 29.4828 11.1215 30.1412 10.2671C30.6547 9.60049 31.62 8.53052 32.3728 7.77554C33.5886 6.55628 34.2701 6.20871 34.4351 6.1366C35.0096 5.8856 35.5115 5.48451 36.2459 5.23554C36.8905 5.01705 37.5834 5.08915 38.1515 5.21285C39.285 5.45962 39.6565 5.89603 39.9782 6.17639C40.3214 6.47547 40.6101 6.89064 41.0241 7.65557C41.2581 8.0878 41.4388 8.67101 41.6974 9.33243C41.9487 9.9752 41.979 10.8859 41.9892 11.7764C41.9943 12.2166 42.0411 12.67 42.0309 13.2497C42.0249 13.5845 41.7943 14.1812 41.4325 15.081C41.1369 15.8162 40.8401 16.2158 40.5722 16.6071C40.0662 17.3462 39.6186 18.0795 39.3081 18.4726C38.7208 19.2163 38.0017 20.1116 37.3195 20.7624C36.7796 21.2504 36.3233 21.6657 36.126 21.8832C36.074 21.9355 36.0125 21.9765 35.8248 22.0188" stroke="#0012D4" stroke-linecap="round"/>
<path d="M10.5864 27.7999C10.053 27.1845 9.40903 26.7034 8.6239 26.4034C7.16663 25.8467 6.40404 25.9972 5.7305 26.203C4.53121 26.5693 4.33027 26.9496 3.99832 27.2908C3.43938 27.8655 2.71526 29.1626 2.4952 29.6739C2.25995 30.2205 2.19433 30.9479 2.14274 31.4449C2.09759 31.8798 2.07001 32.4585 2.12129 33.3667C2.15181 33.9072 2.27514 34.6031 2.43055 35.3112C2.74163 36.7285 3.02297 37.5584 3.08482 37.8064C3.20426 38.2854 3.43636 38.6761 3.58213 39.1429C3.7553 39.6975 4.01572 40.1879 4.19351 40.5425C4.26562 40.6666 4.34892 40.853 4.42134 41.0703C4.45273 41.1645 4.47325 41.226 4.61871 41.2273" stroke="#0012D4" stroke-linecap="round"/>
<path d="M4.30788 27.054C4.1848 27.6694 4.06172 28.2849 3.99831 28.7352C3.9349 29.1856 3.9349 29.4523 4.05923 29.727" stroke="#0012D4" stroke-linecap="round"/>
<path d="M4.18353 32.2758C4.32713 33.1784 4.47073 34.081 4.59599 34.6691C4.72125 35.2571 4.82382 35.5033 4.99166 35.8191" stroke="#0012D4" stroke-linecap="round"/>
<path d="M6.6701 38.8029L7.10525 40.1084" stroke="#0012D4" stroke-linecap="round"/>
<path d="M5.92413 26.1837C7.76728 27.4257 8.09861 27.7577 8.28572 27.9958C8.3684 28.1506 8.49273 28.3582 8.63757 28.5755C8.70036 28.6696 8.74138 28.7312 8.84582 28.8567" stroke="#0012D4" stroke-linecap="round"/>
<path d="M9.84039 30.7217C9.88142 30.9884 9.92245 31.255 9.95384 31.4232C9.98523 31.5913 10.0057 31.6529 10.1512 31.7785" stroke="#0012D4" stroke-linecap="round"/>
<path d="M13.8189 35.5704C14.3728 35.5089 14.9267 35.4473 15.253 35.4156C15.5794 35.3839 15.6614 35.3839 15.746 35.3839" stroke="#0012D4" stroke-linecap="round"/>
<path d="M15.1865 28.2351V34.0163" stroke="#0012D4" stroke-linecap="round"/>
<path d="M15.6838 26.8054L14.7513 26.3702" stroke="#0012D4" stroke-linecap="round"/>
<path d="M15.2487 25.5621L15.6216 20.1539" stroke="#0012D4" stroke-linecap="round"/>
<path d="M15.1243 18.9106H16.6784" stroke="#0012D4" stroke-linecap="round"/>
<path d="M16.0568 17.9782C16.0978 15.9268 16.1805 14.3571 16.2942 13.5083C16.4503 12.7166 16.656 11.8911 16.8024 11.3487C16.8232 11.2651 16.8438 11.2036 16.9892 11.078" stroke="#0012D4" stroke-linecap="round"/>
<path d="M16.3054 9.46173L17.3622 9.77255" stroke="#0012D4" stroke-linecap="round"/>
<path d="M17.5487 8.59147C17.959 7.15549 18.3755 6.10804 18.912 5.18025C19.2639 4.57162 19.6946 3.63704 19.9784 3.07943C20.2621 2.52182 20.3647 2.35771 20.4381 2.2424C20.5114 2.12708 20.5524 2.06554 20.5947 2.00214" stroke="#0012D4" stroke-linecap="round"/>
<path d="M22.0245 2.1886C22.3732 2.80402 22.7219 3.41944 23.0349 4.20829C23.3479 4.99715 23.6146 5.94079 23.7725 6.47819C23.9304 7.01559 23.9714 7.11816 24.0644 7.69411C24.1573 8.27005 24.3009 9.31627 24.4056 10.0091C24.6389 11.5518 24.6764 12.1335 24.7078 12.6712C24.718 12.8173 24.7385 12.9404 24.7491 13.1577C24.7597 13.3749 24.7597 13.6826 24.7597 13.9997" stroke="#0012D4" stroke-linecap="round"/>
<path d="M23.7651 18.9728C23.724 19.8549 23.683 20.737 23.6619 21.2324C23.6407 21.7279 23.6407 21.8099 23.6407 21.8945" stroke="#0012D4" stroke-linecap="round"/>
<path d="M22.7704 26.5567C22.6884 27.3567 22.6063 28.1568 22.523 28.8048C22.4397 29.4529 22.3577 29.9247 22.3154 30.3114C22.2731 30.698 22.2731 30.9852 22.2731 31.2811" stroke="#0012D4" stroke-linecap="round"/>
<path d="M20.9677 36.1299C20.8036 37.6479 20.6985 38.594 20.6675 38.935C20.6569 39.2965 20.6364 39.5893 20.6053 39.8473C20.5947 40.0027 20.5947 40.2078 20.5947 40.4192" stroke="#0012D4" stroke-linecap="round"/>
<path d="M15.4973 36.8137C15.6204 37.7778 15.7435 38.742 15.8171 39.3105C15.8908 39.8789 15.9113 40.0225 15.9325 40.2327" stroke="#0012D4" stroke-linecap="round"/>
<path d="M39.4303 23.6972C38.2087 23.7799 37.5082 23.9856 36.6357 24.4208C36.033 24.7214 35.3312 25.2898 34.8423 25.6333C34.7077 25.7467 34.5231 25.9314 34.3972 26.0675C34.2713 26.2036 34.2098 26.2857 34.1464 26.4324" stroke="#0012D4" stroke-linecap="round"/>
<path d="M32.4058 28.1108C31.1749 29.834 30.3973 30.9678 30.1284 31.4023C29.9254 31.7305 29.5077 32.2919 29.011 33.109C28.4901 34.1189 28.3241 34.4502 28.1895 34.6992C28.1581 34.7617 28.1376 34.8232 28.0543 34.9488" stroke="#0012D4" stroke-linecap="round"/>
<path d="M39.6168 23.9459C39.6783 24.3767 39.7398 24.8074 39.7715 25.4089C39.8033 26.0103 39.8033 26.7693 39.7725 27.2937C39.7417 27.818 39.6802 28.0847 39.6168 28.4216" stroke="#0012D4" stroke-linecap="round"/>
<path d="M38.6221 29.8514C37.6082 32.3976 37.1936 33.0615 36.9549 33.4864C36.9027 33.5806 36.8616 33.6421 36.7995 33.7661C36.7373 33.8901 36.6553 34.0748 36.5085 34.3272" stroke="#0012D4" stroke-linecap="round"/>
<path d="M35.0166 36.0677C34.1961 37.6678 33.6092 38.7177 33.3093 39.1109C33.0709 39.381 32.678 39.7123 32.2121 40.085C32.0334 40.232 31.9719 40.2936 31.9084 40.357" stroke="#0012D4" stroke-linecap="round"/>
<path d="M29.3597 16.8592C29.6469 16.0386 30.0205 15.1646 30.5573 14.2552C30.8684 13.797 31.2582 13.3457 31.5205 13.0619C31.7829 12.7782 31.906 12.6756 32.0949 12.5078" stroke="#0012D4" stroke-linecap="round"/>
<path d="M33.9598 10.5807C35.5543 8.77855 36.1729 8.32538 36.7653 7.9092C37.5641 7.34879 37.8755 7.18282 37.9995 7.1104C38.062 7.079 38.1236 7.05849 38.2491 7.03735" stroke="#0012D4" stroke-linecap="round"/>
<path d="M40.1762 7.22388C40.3403 8.08546 40.4454 9.30884 40.4559 10.613C40.405 11.3839 40.1781 12.2119 39.8676 13.2052C39.7417 13.6242 39.6801 13.8704 39.5546 14.1862" stroke="#0012D4" stroke-linecap="round"/>
<path d="M36.9437 17.1078C36.6155 17.7438 36.2873 18.3797 36.0566 18.7689C35.826 19.158 35.7029 19.2811 35.5761 19.4701" stroke="#0012D4" stroke-linecap="round"/>
</svg>
