<svg width="23" height="43" viewBox="0 0 23 43" fill="none" xmlns="http://www.w3.org/2000/svg">
<path d="M10.5146 41.7045C10.5146 41.3124 10.5925 40.6842 10.6132 36.7214C10.6206 35.2849 10.3965 34.4259 10.279 33.6188C10.1881 32.9943 10.0422 31.7549 9.94422 30.4123C9.90697 29.902 9.88518 29.4653 9.82614 28.2154C9.77635 27.1614 9.80607 25.251 9.884 23.8582C10.0082 21.6383 10.2784 20.5703 10.3368 19.8264C10.5235 17.4501 10.6716 16.5957 10.7306 14.9348C10.7786 13.5865 10.7507 11.2088 10.7312 9.8479C10.6728 8.21424 10.6326 7.50457 10.6132 6.79667C10.5937 6.51741 10.5547 6.40051 10.5146 6.16199" stroke="#0012D4" stroke-linecap="round"/>
<path d="M10.8688 36.745C10.8688 36.3554 10.9078 35.9598 11.2396 34.9632C11.9846 32.7254 12.7959 31.0795 13.3438 30.4135C14.2744 29.2823 15.3134 28.4817 16.2923 27.8547C19.0867 26.0648 20.2303 25.9619 21.2174 25.7446C21.4196 25.7001 21.5717 25.6076 21.5546 25.7039C21.48 26.1228 21.2588 27.2112 21.2605 29.1725C21.2615 30.2825 20.7947 31.6014 20.1659 32.81C18.9073 35.2291 17.3668 36.3495 16.5042 36.7811C14.2197 37.9241 12.4487 37.8078 11.4031 37.3573C10.3813 36.9171 13.5422 34.8203 14.2512 34.1496C14.4101 33.9914 14.527 33.8355 14.6456 33.7357C14.7643 33.636 14.8812 33.597 15.1197 33.3207" stroke="#0012D4" stroke-linecap="round"/>
<path d="M10.3965 35.0919C10.3965 34.6621 10.0847 32.8602 9.68917 31.7095C9.30148 30.5817 8.27337 29.0722 7.50643 28.1092C7.00186 27.4757 6.38407 27.0648 5.18614 26.3173C4.42088 25.8398 3.59263 25.6076 2.54761 25.5079C1.73762 25.4305 1.03026 25.3703 0.774617 25.4087C0.128125 25.5057 0.751592 26.9774 1.32133 28.2385C2.08059 29.9191 3.66348 30.9969 4.03838 31.4102C4.43313 31.8453 4.96237 32.1777 5.43529 32.591C5.95383 33.0441 6.84931 33.4766 8.87322 34.4584C9.32305 34.6767 9.56518 34.6975 9.74407 34.7371C9.92297 34.7767 10.0399 34.8156 9.94422 34.6214C9.24407 33.1995 8.03957 32.7327 7.17167 32.0443C6.93433 31.7101 6.73713 31.4716 6.50156 31.295C6.38289 31.1964 6.26599 31.0795 6.38171 30.9591" stroke="#0012D4" stroke-linecap="round"/>
<path d="M9.92415 21.7487C7.56606 21.3165 5.99676 20.7686 4.96768 20.0785C4.00736 19.4344 3.23838 17.5875 2.64384 16.536C2.12561 15.6195 2.56296 14.234 2.85757 13.7405C3.178 13.2036 4.1358 13.561 4.80414 13.6985C6.15076 13.9757 6.73359 15.174 7.36237 15.86C9.0795 17.7335 9.2133 19.7744 9.56872 20.6441C9.64784 20.8029 9.72577 20.9198 9.80489 21.0385C9.884 21.1571 9.96193 21.274 10.1603 21.6306" stroke="#0012D4" stroke-linecap="round"/>
<path d="M10.0422 24.3465C10.1981 23.011 10.8263 22.0676 11.4568 20.8484C11.7638 20.2548 12.9057 19.0813 14.5376 17.6064C16.1484 16.1506 17.4388 15.5707 18.0104 15.4509C18.4403 15.3607 18.818 15.9994 19.0932 16.627C19.674 17.952 19.2927 18.7542 19.1156 19.7372C18.799 21.4945 17.1696 23.3594 16.3047 23.8329C14.7271 24.6965 13.1572 24.7008 12.4062 24.7988C11.7757 24.7799 11.2254 24.5449 10.6545 24.1511C10.5157 24.0714 10.3988 24.0324 10.5146 23.7561" stroke="#0012D4" stroke-linecap="round"/>
<path d="M10.8688 8.28748C11.0636 8.28748 11.2585 8.28748 11.4368 8.30696C12.4321 8.41572 12.9494 11.1923 13.8374 11.8293C14.0139 11.956 14.2884 11.7142 14.4673 11.4397C15.2332 10.2644 14.9615 9.47065 15.2561 8.54667C15.4308 7.99872 16.3761 8.24733 17.2812 8.24851C17.618 8.24895 17.9513 7.81751 18.3056 7.36585C18.4592 7.16998 18.426 6.95316 18.3481 6.81382C18.0413 6.26539 17.5616 5.85028 17.4418 5.06327C17.3616 4.53668 17.7954 4.15581 17.972 3.95921C18.1363 3.77616 18.4248 3.76142 18.6214 3.64393C18.8177 3.52665 18.7802 3.1722 18.7218 2.8581C18.6909 2.69227 18.5464 2.544 18.3693 2.44422C17.3145 1.85003 15.5968 2.4212 14.9054 2.52098C14.6459 2.55844 14.4124 2.65854 14.1768 2.6981C13.6856 2.78059 12.999 1.68201 12.0921 0.713152C11.8209 0.423419 10.6421 0.494112 9.14717 0.552562C8.07259 0.594577 7.5271 1.98194 6.81743 2.48142C5.97737 3.07268 4.69314 2.97146 4.02303 3.32629C2.81022 3.9685 2.56532 4.82061 2.38702 5.35316C2.29345 5.63262 2.52281 6.08054 2.83691 6.55227C3.29196 7.2357 4.29167 7.10666 5.7051 9.51729C6.10943 10.2069 7.1516 10.1744 7.80754 9.98135C9.60651 8.6429 10.2772 8.36659 10.4933 8.366C10.5925 8.40438 10.6704 8.52128 10.7507 8.64172" stroke="#0012D4" stroke-linecap="round"/>
</svg>
