<svg width="46" height="43" viewBox="0 0 46 43" fill="none" xmlns="http://www.w3.org/2000/svg">
<path d="M24.4275 42.1404C24.0511 41.6027 23.7496 41.1644 23.3447 40.2478C23.0167 39.5054 22.5634 38.1483 22.2738 37.281C21.8709 36.0746 21.7666 35.3009 21.6851 34.2462C21.6349 33.5962 21.6574 32.7076 21.6843 32.0758C21.7112 31.444 21.765 31.0945 22.0481 30.0541C22.3312 29.0137 22.842 27.293 23.2665 26.0302C23.9514 23.9926 24.4535 23.0508 24.6568 22.6716C25.0505 21.937 25.5387 21.287 26.6496 19.9178C27.4825 18.8914 28.1442 18.354 28.9447 17.5674C30.7553 15.788 31.4862 15.4471 32.0023 15.1876C32.2732 15.1196 32.5192 15.0919 32.8031 15.0381C32.9795 14.9843 33.2215 14.8768 33.4708 14.766" stroke="#0012D4" stroke-linecap="round"/>
<path d="M24.346 41.8145C23.7008 40.7928 23.1802 39.7826 22.7606 38.4713C22.4988 37.6531 22.2603 36.4879 22.1218 35.5428C21.9833 34.5978 21.9833 33.8987 22.1312 32.974C22.2791 32.0493 22.5748 30.9201 22.8885 30.0561C23.4222 28.5861 24.1529 27.777 24.7623 27.2621C25.3626 26.7549 26.0268 26.4718 27.2142 26.1341C28.1 25.8822 29.5846 25.5544 30.548 25.3744C32.5218 25.0055 33.5735 25.1129 34.3104 25.3426C35.0171 25.6278 35.4791 25.9805 35.7231 26.238C35.8327 26.361 35.9133 26.4685 36.0779 26.4979" stroke="#0012D4" stroke-linecap="round"/>
<path d="M24.0201 42.0589C23.7782 41.6556 23.5362 41.2524 23.0889 40.238C22.6416 39.2237 21.9964 37.6106 21.6102 36.5914C21.224 35.5722 21.1165 35.1958 20.9804 34.4776C20.6469 32.7174 20.5169 31.4693 20.5034 31.1308C20.4888 30.7634 20.4354 30.1951 20.5967 28.6569C20.719 27.4904 21.0806 25.5593 21.2468 23.9841C21.413 22.4088 21.413 21.2528 21.3996 20.5362C21.3816 19.577 21.0896 18.6294 20.4004 16.9519C19.9915 15.9568 19.3078 14.7367 18.6797 13.7635C16.6893 11.2913 16.2812 10.9646 16.0648 10.7218C15.9292 10.5328 15.741 10.2101 15.3842 9.71478" stroke="#0012D4" stroke-linecap="round"/>
<path d="M23.8572 41.733C23.3732 40.7651 23.0433 40.1052 22.5985 38.8392C22.2129 37.7417 21.589 35.6911 21.2432 34.4772C20.81 32.9566 20.789 32.42 20.6672 31.8526C20.3154 30.2138 20.3278 29.5433 20.0565 28.0527C19.8616 26.9818 19.54 26.2282 19.2565 25.728C18.8081 24.9368 18.2373 24.3812 17.8584 24.0427C17.4048 23.6374 16.396 23.2683 15.2294 22.929C14.5579 22.7337 14.0293 22.7502 13.151 22.8308C10.6604 23.3465 10.0372 23.8606 9.54877 24.3625C9.35609 24.5686 9.27543 24.6762 9.02939 24.8684" stroke="#0012D4" stroke-linecap="round"/>
<path d="M13.2659 22.8317C13.5364 22.2907 13.7547 21.4776 13.5661 20.8246C13.407 20.2738 12.7249 20.0625 12.2915 19.9268C11.3526 19.633 10.3362 19.9248 9.18336 20.2234C8.26972 20.46 7.00237 21.4662 6.22025 22.1644C5.87595 22.4718 5.66298 22.8578 5.32528 23.2896C4.68536 24.1078 4.27797 25.055 4.08814 25.7594C3.90147 26.452 3.84291 26.9851 3.60013 27.4849C3.1669 28.3768 2.29903 29.2907 1.52587 29.9963C0.839262 30.6228 0.4757 30.6798 0.501363 30.6937C0.860037 30.8872 1.85338 30.5715 2.95202 30.5849C3.6485 30.5934 4.16554 30.6529 4.98962 30.5454C5.55041 30.4722 6.3783 30.2228 7.25127 29.9372C8.12424 29.6517 9.01146 29.3021 9.6836 28.9608C10.8309 28.3781 11.3367 27.8568 11.6475 27.4923C12.505 26.3089 12.6141 25.9292 12.817 24.7116C12.8585 24.2762 12.8585 23.7653 12.6956 23.239" stroke="#0012D4" stroke-linecap="round"/>
<path d="M29.8861 16.5584C29.2408 16.2357 28.8546 15.9351 28.7463 15.5432C28.3783 14.2123 28.6901 13.0861 29.0697 12.2974C29.3455 11.7246 29.9382 11.5625 30.3191 11.345C30.5503 11.213 31.83 10.9393 33.6215 10.5727C34.883 10.3145 35.7764 10.7185 37.0637 11.4363C38.0303 11.9753 38.5742 12.022 39.1579 12.2261C39.4343 12.3227 40.6566 12.3219 42.3936 12.295C43.2738 12.2813 43.922 11.9169 44.4796 11.6848C44.7429 11.5751 44.01 12.805 43.6706 13.768C43.4606 14.3639 43.3305 15.0601 42.9382 15.9677C42.5311 16.9097 41.7842 17.668 41.1609 18.3324C40.653 18.8738 39.6423 19.1638 38.355 19.4082C37.2195 19.6238 36.4331 19.4645 35.9728 19.4237C35.4605 19.3784 34.4827 19.2217 33.195 18.829C32.1173 18.5003 31.4096 17.9189 31.0022 17.4713C30.8637 17.2924 30.8637 17.2118 30.8368 17.1165C30.81 17.0211 30.7562 16.9136 30.6193 16.6398" stroke="#0012D4" stroke-linecap="round"/>
<path d="M30.8637 25.2758C30.8637 24.7609 30.9175 24.3275 31.1745 23.7442C31.6142 22.7464 33.0537 22.0496 34.376 21.5428C35.8195 20.9896 36.8893 21.4727 37.7305 21.6899C38.4682 21.8803 39.1168 22.395 39.7392 23.0032C40.1174 23.3727 40.523 23.9609 40.9597 24.6819C41.8939 26.2244 42.2966 27.311 42.3642 27.6361C42.5019 28.298 42.7031 28.885 42.8934 29.415C43.1936 30.2515 43.7606 30.6774 44.2503 31.0725C44.5304 31.2986 44.8483 31.44 45.1057 31.5214C45.3271 31.5915 44.5868 31.576 42.5842 31.7512C41.4368 31.8515 40.0439 32.1683 38.7591 32.2799C37.4743 32.3915 36.3451 32.3378 35.4811 32.2025C34.0279 31.9751 33.2557 31.4693 32.8357 31.1711C32.4583 30.9031 31.7648 30.2782 30.9375 29.3156C30.0775 28.0214 29.7777 27.2874 29.737 26.8006C29.7231 26.502 29.7231 26.0987 29.6416 25.6832" stroke="#0012D4" stroke-linecap="round"/>
<path d="M20.5983 17.1287C22.6595 16.0989 23.4743 15.3395 24.0046 14.4979C24.5491 13.6341 24.4275 12.3577 24.2792 11.1584C24.1813 10.3663 23.669 9.58277 23.2628 8.85116C22.8653 8.13497 22.1772 7.57206 21.4591 7.08404C20.845 6.66677 20.1136 6.4836 19.0724 6.37524C17.5783 6.21975 16.4726 6.13083 15.7031 5.69944C15.1309 5.37862 14.2615 4.73033 13.6162 4.12948C11.7422 2.38445 11.6381 1.21729 11.447 0.754529C11.4005 0.641876 11.3122 0.537815 11.2169 0.5093C11.1216 0.480785 11.014 0.534556 10.9183 0.683241C10.6863 1.04363 10.5244 2.26419 10.3207 3.7706C10.1244 5.2226 10.007 6.56263 9.9667 7.53336C9.93418 8.31625 9.84572 9.68705 9.91171 10.6488C10.0143 12.1445 10.5757 12.8359 11.0486 13.3093C11.7655 14.0267 12.6646 14.7619 13.3021 15.4267C14.0757 16.2334 15.1088 16.9902 16.3977 17.5344C17.0718 17.819 18.1998 17.699 19.3323 17.5368C19.6989 17.4285 19.9726 17.2924 20.1759 17.1433C20.2716 17.0749 20.3523 17.0211 20.4354 16.9657" stroke="#0012D4" stroke-linecap="round"/>
</svg>
