<svg width="24" height="35" viewBox="0 0 24 35" fill="none" xmlns="http://www.w3.org/2000/svg">
<path d="M11.2302 33.9526C11.3155 32.4939 11.4886 30.9421 11.5959 29.1817C11.6429 28.4095 11.6178 27.2572 11.5112 25.9393C11.4046 24.6214 11.1914 23.1717 10.9324 22.0624C10.1991 18.9224 9.07764 17.8484 8.66935 16.8374C7.92954 15.0054 8.72879 11.9566 8.94714 10.9133C9.10952 10.1374 9.59188 9.57923 9.93686 8.97519C10.4143 8.13926 11.225 6.57132 12.0449 5.36002C13.6863 2.93474 14.8893 1.78296 15.4488 1.24417C15.7278 0.975452 15.8803 0.618811 16.1807 0.510279C16.344 0.451299 16.5664 0.700211 16.7828 1.15049C16.9992 1.60078 17.2124 2.32562 16.9812 3.18936C16.0572 6.63989 14.3777 6.94602 13.7736 7.46349C13.0654 8.07023 11.9693 8.58176 11.2321 8.99328C11.1023 9.05853 10.9744 9.10117 10.8445 9.16577C10.7147 9.23037 10.5868 9.31565 10.455 9.40351" stroke="#0012D4" stroke-linecap="round"/>
<path d="M10.8426 20.5152C12.3918 18.2334 12.9926 17.8898 14.6051 16.2366C15.0577 15.7725 15.7459 14.9658 16.9921 13.8689C19.1281 11.9887 21.7346 12.1608 22.5544 12.1808C22.7396 12.1853 22.8561 12.3727 22.9434 12.5025C23.1043 12.7421 23.1171 13.2332 22.8826 14.0698C22.2061 16.4833 20.5795 16.8949 19.4606 17.4556C18.5975 17.5861 15.9462 17.6727 14.3337 17.3729C14.1606 17.2437 13.99 17.0732 13.8143 17.0267" stroke="#0012D4" stroke-linecap="round"/>
<path d="M11.8762 28.3968C12.1321 26.606 12.5623 25.1292 13.2277 24.0974C14.5098 22.1097 16.693 21.5514 18.0949 21.5049C18.6153 21.4877 18.8094 22.2349 18.9386 22.7724C19.1253 23.5488 18.5975 24.4302 17.6511 25.6143C17.2739 26.0862 16.5767 26.969 15.4591 28.0873C14.512 28.8645 13.4758 29.4278 12.5074 29.8581C12.1359 30.0325 12.008 30.1178 11.6178 30.4641" stroke="#0012D4" stroke-linecap="round"/>
<path d="M11.3594 29.818C10.9292 27.8386 10.3309 26.469 8.76043 24.2486C7.21901 22.0693 5.07355 21.8073 4.68658 21.8286C4.51176 21.8382 4.38488 21.8925 4.27635 22.0211C3.53405 22.9004 4.76216 25.7971 5.65045 26.9736C6.3022 27.8367 7.22224 28.911 7.86827 29.4071C8.44248 29.8481 9.03112 29.818 9.71978 29.9679C10.1914 30.1178 10.6255 30.2909 10.9479 30.4201C11.0997 30.464 11.2276 30.464 11.3594 30.464" stroke="#0012D4" stroke-linecap="round"/>
<path d="M8.25848 16.1222C7.35662 15.3909 6.41083 15.2177 4.47598 14.8534C3.43211 14.6568 2.87835 14.1428 2.05983 13.4334C1.28474 12.7617 0.767127 12.078 0.528097 11.3442C0.421443 11.0167 0.634045 10.6116 0.91313 10.2033C1.18797 9.80119 1.79431 9.49134 2.6742 9.23293C3.72637 8.92393 4.55286 9.18771 4.89654 9.35891C6.19713 10.0068 6.57622 13.2228 6.94381 14.4186C7.00906 14.5704 7.05169 14.6983 7.13762 14.8921C7.22354 15.086 7.35145 15.3418 7.74165 15.3469" stroke="#0012D4" stroke-linecap="round"/>
</svg>
