<svg width="24" height="46" viewBox="0 0 24 46" fill="none" xmlns="http://www.w3.org/2000/svg">
<path d="M15.9138 45.4019C16.3401 43.3553 16.6024 41.9172 16.667 41.016C16.7498 39.8617 16.8169 38.262 17.0107 36.2651C17.2243 34.0644 16.9061 32.0588 16.5837 30.7035C16.1982 29.0826 15.2729 26.7239 14.7309 24.8207C14.5534 24.1977 14.1501 23.3142 13.7205 22.1106C13.3444 21.057 12.2611 19.1874 10.9697 16.9702C10.3886 15.9726 9.75969 14.6626 8.89982 12.6838C7.95803 10.5165 7.38747 9.57315 7.08707 7.47744C6.84894 5.81619 6.70139 2.90872 6.69816 1.54302C6.69493 0.177313 6.90812 0.43314 7.10322 0.7568C7.51432 1.43879 7.81514 2.1154 8.2441 2.8228C8.88964 3.88736 9.45088 5.51093 9.8385 7.08142C10.2193 8.62427 10.0995 11.1443 9.97094 12.4738C9.92765 12.625 9.88502 12.7955 9.82041 12.9687C9.75581 13.1418 9.67053 13.3124 9.58267 13.4881" stroke="#0012D4" stroke-linecap="round"/>
<path d="M16.9474 33.7734C17.5922 30.1155 18.2782 28.7421 20.0412 26.6102C21.2624 25.1335 22.7152 24.6023 23.2126 24.4273C23.942 24.1706 22.8909 27.8557 22.5265 30.8139C22.3524 32.2272 21.2603 33.4633 20.3746 34.4161C19.839 35.0577 19.1904 35.7089 18.567 36.1604C18.2847 36.3562 18.0715 36.4841 17.7227 36.6159" stroke="#0012D4" stroke-linecap="round"/>
<path d="M16.5598 38.9416C16.0016 35.714 15.3569 34.8535 14.0519 33.7185C13.0846 32.8771 11.3399 31.688 10.1841 30.9657C7.88631 29.5298 6.87452 29.4682 6.11803 29.3591C5.83402 29.3181 5.57859 29.0806 5.44874 28.9075C5.32276 28.7395 5.91969 29.7202 6.47722 31.0491C7.34715 33.1226 7.98699 34.7605 8.82166 35.7463C11.4575 38.8596 12.9808 38.8977 13.9492 39.1987C14.9964 39.3706 15.7833 39.5011 16.0623 39.5657C16.2135 39.5876 16.3841 39.5876 16.5598 39.5876" stroke="#0012D4" stroke-linecap="round"/>
<path d="M14.3633 23.6953C14.707 19.9523 15.136 18.6615 16.3595 16.8772C17.3367 15.4522 18.3674 14.8241 18.5825 14.7588C18.7709 14.7017 18.7563 15.6355 18.7989 16.8597C18.8433 18.1323 19.0147 19.7236 18.9508 21.358C18.4139 23.3891 17.3841 25.1089 16.5411 26.0398C16.3466 26.2342 16.1334 26.4474 16.043 26.6671" stroke="#0012D4" stroke-linecap="round"/>
<path d="M14.2341 23.5661C11.1383 21.9743 9.41729 21.5428 7.48308 21.2844C5.15312 20.9731 3.46866 21.1551 3.55135 21.495C3.94225 23.1013 5.91452 24.5067 7.18332 25.6257C8.68873 26.9533 10.1383 27.6981 11.5783 28.0444C14.0144 27.9178 15.008 27.4436 15.2658 27.2285C15.3956 27.1413 15.5236 27.0986 15.6553 27.0547" stroke="#0012D4" stroke-linecap="round"/>
<path d="M10.6163 15.8138C10.3152 13.8356 10.2287 12.718 10.4212 11.3194C10.6909 9.36009 11.7326 8.49558 12.3367 7.80562C12.6769 7.41693 13.1125 7.11566 13.4349 6.83593C13.5761 6.71337 13.7146 6.68411 13.8445 7.06721C14.2364 8.22334 14.3193 9.39356 14.4912 10.1656C15.0274 12.5746 14.5803 14.346 14.1501 15.4643C13.7224 16.1937 13.3309 16.7169 13.0518 16.9747C12.9006 17.1046 12.7301 17.2325 12.296 17.6227" stroke="#0012D4" stroke-linecap="round"/>
<path d="M10.2287 16.3306C6.65876 13.7504 5.02431 12.6302 3.25807 12.1973C1.93495 11.8731 0.927195 11.895 0.669429 11.8304C0.541684 11.7984 0.411664 11.8084 0.580277 12.3201C1.10051 13.8987 1.91433 15.1225 2.32262 15.5521C3.46342 16.7525 5.82538 18.3488 6.78086 18.7849C7.46612 19.0976 8.28546 19.1292 10.1357 19.1518C10.699 19.0879 11.0453 19.0013 11.3677 18.894C11.5195 18.8294 11.6474 18.7442 11.7792 18.3979" stroke="#0012D4" stroke-linecap="round"/>
</svg>
