<svg width="25" height="41" viewBox="0 0 25 41" fill="none" xmlns="http://www.w3.org/2000/svg">
<path d="M13.0376 39.5266C12.94 39.4289 12.8409 39.1834 12.6693 35.4707C12.5068 31.9548 12.3513 25.1195 12.446 20.2079C12.5406 15.2963 12.9311 12.514 13.3031 10.5194C13.8895 7.3756 14.6129 5.7084 15.1292 4.6752C16.0903 2.75156 17.5195 1.71317 18.7768 0.972113C19.7808 0.380365 20.676 0.526884 21.4415 0.500999C22.2241 0.474536 23.0427 1.80192 23.8326 3.79436C24.5778 5.67423 24.4272 8.15642 24.3784 10.2487C24.3419 11.8105 23.7409 13.3365 23.0272 14.7653C22.6086 15.6034 21.8668 15.8584 21.1538 16.0803C20.4229 16.3078 19.6968 16.1069 18.887 15.7645C16.3672 14.6991 15.706 12.5673 15.1343 10.935C14.8553 10.1384 14.9605 9.30573 15.0582 8.59277C15.1689 7.78419 16.0891 6.98936 17.0491 6.27492C18.3903 5.27679 20.2323 5.89921 20.9978 6.29267C21.8979 6.75536 21.7647 9.57937 21.4459 11.3692C21.3549 11.8805 20.8787 12.1117 20.486 12.2596C20.2507 12.3482 19.898 12.3099 19.5755 12.1635C18.8871 11.8509 18.5608 11.276 18.4129 10.8833C18.2049 10.331 18.4114 9.79681 18.583 9.50172C18.901 9.20663 19.2975 9.00694 19.6665 8.98179C19.8403 9.00546 19.9867 9.10308 20.1376 9.20367" stroke="#0012D4" stroke-linecap="round"/>
<path d="M12.5939 39.0828C12.4962 38.3506 12.3986 37.6184 12.2751 35.9477C12.1516 34.277 12.0052 31.6899 11.7589 29.1613C11.5126 26.6327 11.1709 24.2409 10.9949 22.8379C10.7766 21.098 10.7212 19.8625 10.5245 18.3116C10.3825 17.1917 10.032 15.3318 9.61409 12.7477C9.05338 9.28023 7.71854 7.78071 6.26378 6.79041C5.65132 6.37348 4.85636 6.54117 4.24102 6.58998C3.16348 6.67546 2.00009 8.35758 1.08375 10.0105C0.0593302 11.8585 0.562341 14.0257 1.22501 16.2208C1.66772 17.6873 2.82842 18.373 3.44302 18.5705C3.75314 18.6701 4.10642 18.5727 4.40447 18.4499C4.98561 18.2105 5.49092 17.3938 5.95908 16.4582C6.5683 15.2407 5.84296 12.7685 4.78314 11.1303C4.59922 10.846 4.26617 10.881 3.994 10.9047C3.41826 10.9548 3.02959 11.273 2.83286 11.5925C2.61393 11.9481 2.48674 12.3572 2.41278 12.7507C2.33994 13.1382 2.63169 13.8823 3.14792 14.6958C3.42009 14.9724 3.71296 14.9724 3.86384 14.8992C4.01471 14.826 4.01471 14.6795 4.16263 14.5287" stroke="#0012D4" stroke-linecap="round"/>
<path d="M12.5939 38.9349C12.5939 38.543 12.5451 37.6569 12.4955 35.7717C12.4562 34.2776 12.5436 31.69 12.6419 30.0156C12.8497 26.4788 13.8719 24.9391 14.8333 23.7284C15.7519 22.5717 17.1734 22.4186 18.3826 22.3927C18.7052 22.3858 19.046 22.4659 19.2952 22.5643C20.7537 23.1399 19.7442 26.507 19.3995 27.1238C19.1958 27.4883 18.9069 27.8397 18.5135 28.086C18.157 28.3092 17.7236 28.2849 17.3546 28.2605C16.6372 28.2131 15.706 27.1075 15.2815 26.1683C15.1793 25.942 15.2564 25.6284 15.354 25.3799C15.5484 24.885 15.9945 24.6373 16.3384 24.465C16.7483 24.2596 17.1778 24.34 17.4729 24.5116C17.8479 24.7297 17.9677 25.226 18.0416 25.5951C18.0761 25.7673 18.0668 25.9153 17.9936 26.064C17.9203 26.2126 17.7739 26.3591 17.6253 26.4345C17.4766 26.5099 17.3302 26.5099 17.0314 26.362" stroke="#0012D4" stroke-linecap="round"/>
</svg>
