<svg width="28" height="41" viewBox="0 0 28 41" fill="none" xmlns="http://www.w3.org/2000/svg">
<path d="M13.6887 39.4786C13.3839 38.8688 12.7187 36.6748 11.8726 33.2167C11.4891 31.6489 11.3823 30.4191 11.3037 28.419C11.2252 26.419 11.2252 23.6752 11.2506 22.084C11.2901 19.612 11.6348 18.699 12.2237 16.5711C12.4418 15.7829 12.5586 15.2054 12.738 14.9475C13.4626 13.9056 14.2492 18.0708 15.4293 20.5304C15.9288 21.5713 16.2523 23.8585 16.6372 27.5437C16.8358 29.4447 16.7681 31.4322 16.6157 32.8086C16.2676 35.9513 15.2807 36.5501 14.9474 37.2945C14.6604 37.9354 14.1537 38.6533 13.7665 39.1445C12.871 40.2803 16.959 34.567 18.3301 33.2713C19.3763 32.2827 22.1878 31.1211 25.2533 30.319C25.9323 30.1413 26.4142 30.1896 26.7991 30.2651C27.2413 30.3517 26.5743 31.6708 25.5528 33.2813C23.121 37.1149 21.7043 38.0343 20.5188 38.6048C19.1315 39.0675 18.006 39.3739 15.6749 39.7341C14.979 39.7865 14.2676 39.7865 13.2268 39.9405" stroke="#0012D4" stroke-linecap="round"/>
<path d="M13.5347 39.7865C12.5185 37.8558 11.3345 36.2514 9.97806 35.1244C8.68327 34.0486 7.02494 33.5785 5.61536 33.2452C3.24572 32.6848 0.910852 32.2421 0.705304 32.3437C-0.0953657 32.7395 1.62373 34.6471 2.80313 36.0605C3.44322 36.8276 4.24273 37.1675 5.36439 37.7033C9.32845 39.5969 10.3476 39.6818 11.9889 39.7611C12.3523 39.7357 12.5555 39.6849 12.7618 39.6587C12.9681 39.6326 13.1714 39.6326 13.5347 39.4786" stroke="#0012D4" stroke-linecap="round"/>
<path d="M16.922 28.5468C16.922 28.0372 17.2269 26.6037 18.3024 24.7569C19.9311 21.96 22.6096 20.7006 24.0462 19.853C24.5402 19.5615 24.6697 19.7675 24.5188 20.8877C24.3679 22.0078 23.9615 24.091 23.4472 25.6214C22.0516 29.7749 20.5187 30.8533 19.6711 31.5723C18.7712 32.0358 18.2585 32.2929 17.8743 32.3953C17.6934 32.4469 17.541 32.4977 17.3839 32.55" stroke="#0012D4" stroke-linecap="round"/>
<path d="M11.0712 27.0072C10.6648 26.3959 8.72167 24.5529 7.1766 23.5459C5.20312 22.2598 3.73925 21.8769 2.12104 21.1848C1.76921 21.0344 1.58061 20.8515 1.47591 20.9C0.733366 21.244 1.88239 22.9455 2.44668 24.1541C3.12744 25.6122 3.93325 26.6438 4.78008 27.6954C6.08661 29.3179 7.72704 29.9264 8.86101 30.6493C9.22053 30.804 9.63163 30.9072 10.1944 30.9842C10.5031 31.0103 10.8588 31.0103 11.2252 31.0103" stroke="#0012D4" stroke-linecap="round"/>
<path d="M15.5363 20.0785C15.3824 19.0562 15.6872 17.5196 16.3539 15.4702C17.077 13.2474 18.0984 11.3593 18.9683 10.2838C20.9888 7.78592 23.6951 7.09436 23.9769 7.1444C24.9896 7.32426 24.1093 10.2107 23.4203 13.3563C23.0268 15.1527 22.1724 17.264 21.5511 18.6936C19.849 21.6167 19.1838 22.1802 18.4163 22.6413C18.0044 22.8484 17.5472 23.0009 16.7681 23.1579" stroke="#0012D4" stroke-linecap="round"/>
<path d="M11.8411 16.9992C11.4823 15.7182 10.5662 13.8829 8.87025 11.7704C7.95681 10.6327 5.64845 9.05748 4.06874 7.53396C3.85592 7.32872 3.78543 7.14827 3.65687 7.01894C3.52831 6.88961 3.37588 6.78799 3.29735 7.44697C3.05087 9.51547 3.32045 11.4517 3.72847 12.8813C4.43595 15.3602 5.21888 17.0993 5.55145 17.6112C6.39387 18.908 8.29055 20.2264 9.2467 20.9746C9.42684 21.104 9.63008 21.2056 9.88721 21.3088C10.1443 21.4119 10.4492 21.5135 10.9173 21.7722" stroke="#0012D4" stroke-linecap="round"/>
<path d="M11.995 16.0754C10.5585 12.1276 10.4554 9.77804 10.8126 7.00122C11.206 3.94269 13.0174 1.50685 13.8912 0.577649C14.533 -0.104883 14.865 3.89952 15.4316 5.52158C15.9571 7.02578 15.9982 9.99975 15.9728 13.0522C15.7935 14.8421 15.5887 15.6088 15.4347 16.4541C15.3824 16.8421 15.3824 17.147 15.3824 17.4611" stroke="#0012D4" stroke-linecap="round"/>
<path d="M15.2284 17.3071C15.2284 17.7644 15.2284 18.2217 15.203 18.5589C15.1776 18.8961 15.1268 19.0993 15.1006 19.3056C15.0744 19.512 15.0744 19.7152 15.0744 19.9246" stroke="#0012D4" stroke-linecap="round"/>
</svg>
