<svg width="27" height="40" viewBox="0 0 27 40" fill="none" xmlns="http://www.w3.org/2000/svg">
<path d="M13.408 38.8131C13.408 38.5082 13.408 36.522 13.4588 33.5219C13.5023 30.9528 13.8176 29.732 13.8445 27.3008C13.8191 26.7543 13.7683 26.551 13.7421 26.3447C13.716 26.1384 13.716 25.9351 13.8699 25.5718" stroke="#0012D4" stroke-linecap="round"/>
<path d="M12.3302 10.1749C11.0092 11.6992 10.2778 12.6369 10.2009 12.944C10.0385 13.5919 10.5319 14.5322 11.0962 15.4068C11.6491 16.2637 12.7891 16.1797 13.4311 16.3583C13.8386 16.4717 14.2779 16.6416 14.8153 16.54C16.0974 16.2975 16.4843 14.8494 16.897 13.185C17.3642 11.3005 17.462 10.6399 17.4882 10.0764C17.5002 9.81683 17.3619 9.61448 17.2334 9.50978C16.7599 9.1242 15.114 9.25111 13.234 9.8131C12.8969 9.96861 12.6936 10.0702 12.5381 10.1988C12.3826 10.3274 12.281 10.4798 12.1763 10.6368" stroke="#0012D4" stroke-linecap="round"/>
<path d="M8.78898 14.0242C6.89209 15.3052 5.86973 16.8356 5.60645 18.5862C5.50474 19.2625 5.96519 19.7195 6.24619 20.0266C6.40608 20.2014 6.67961 20.3338 6.9121 20.3869C7.76238 20.5812 8.37634 19.6209 8.73509 19.3376C8.85927 19.2395 8.99222 19.5116 9.04457 19.6925C9.25347 20.4144 9.25088 21.3592 9.55728 22.6672C9.76209 23.5415 11.0893 24.4879 12.0962 25.0314C13.2308 25.6437 13.8669 26.2893 14.4835 26.2908C15.1969 26.2926 15.9177 25.2177 16.6391 24.2407C17.6041 22.9337 18.0271 19.4285 17.6953 18.1836C17.6435 17.9892 17.4143 17.8764 17.4628 18.0012C17.6844 18.5709 18.2303 19.1036 18.6145 19.3599C19.3801 19.8709 21.9625 18.6525 23.5407 17.4661C23.9923 17.1267 24.2366 16.6447 24.3136 16.0558C24.3835 15.5216 24.2382 15.0527 24.0334 14.6685C23.665 13.9774 22.2951 13.6669 21.5676 13.1542C19.9731 12.0305 24.3336 11.8717 25.1581 11.1534C26.244 10.2075 26.3907 8.74611 26.4191 7.84232C26.4706 6.21102 22.3998 5.86382 21.4929 6.01779C20.7756 6.13957 20.854 3.87147 20.1341 3.06852C19.3754 2.22214 17.5744 2.47651 16.5929 2.85913C16.0043 3.08856 15.7699 3.70672 15.6159 4.0393C15.2363 4.85923 15.4096 6.26722 15.2826 6.91312C14.8358 9.18524 13.5682 3.20325 12.1309 1.78828C10.8434 0.520763 9.71587 0.527273 8.58805 0.500329C8.32745 0.494103 8.17618 0.576543 8.02144 0.729742C6.97921 1.76161 6.78739 3.55122 6.65959 4.21867C6.47611 5.17696 7.29548 6.92929 8.04223 8.27266C8.17559 8.51256 8.42561 8.63218 8.32707 8.50746C7.10225 6.9573 5.30313 6.37808 4.43013 6.37654C3.16263 6.3743 1.81728 7.65602 0.938892 8.27343C0.452073 8.61561 0.474676 9.55445 0.525486 10.4251C0.613579 11.9347 1.70335 12.6877 2.24378 13.3536C3.02471 14.3159 2.57789 15.4068 2.91123 16.0234C3.24457 16.5893 3.85891 16.8972 4.57717 17.2051C4.83353 17.2575 5.18919 17.2575 5.55564 17.2575" stroke="#0012D4" stroke-linecap="round"/>
<path d="M13.562 38.6591C13.4096 38.6591 13.2571 38.6591 13.3056 38.4305C13.6875 36.6301 17.0324 35.3303 18.7669 34.8361C19.0885 34.7445 19.5575 34.8099 19.6661 34.9623C20.5272 36.1716 17.0571 37.0147 15.288 38.0648C14.344 38.6251 13.8207 38.9147 13.4111 38.9163C12.2407 38.9207 11.3664 36.7684 9.00222 35.813C7.91697 35.3745 7.20156 35.4258 6.68807 35.5274C6.50394 35.5638 6.58106 35.8323 6.70886 36.0386C7.27307 36.9495 9.38945 37.4243 11.0177 37.8877C11.7636 38.1972 12.4303 38.2988 12.8915 38.4528C13.0986 38.5052 13.251 38.5052 13.716 38.6591" stroke="#0012D4" stroke-linecap="round"/>
</svg>
