<svg width="19" height="42" viewBox="0 0 19 42" fill="none" xmlns="http://www.w3.org/2000/svg">
<path d="M9.55974 12.6849C9.55974 12.7708 9.55974 12.8566 9.41666 15.6194C9.27358 18.3821 8.98742 23.8192 8.94016 27.7218C8.8929 31.6244 9.09321 33.8278 9.23933 35.149C9.38544 36.4701 9.47129 36.8421 9.58706 37.4486C9.8459 38.8851 10.0505 40.0263 10.1516 40.5171C10.1954 40.7217 10.224 40.8362 10.3402 41.1275" stroke="#0012D4" stroke-linecap="round"/>
<path d="M9.73316 13.0318C9.30132 12.8029 8.83826 12.1092 8.40555 11.3448C7.67595 10.0559 7.62425 8.99089 7.55097 8.13501C7.48787 7.39794 7.59303 6.01482 7.96851 4.88449C8.27479 3.96244 8.48966 3.49488 8.92194 2.67282C9.26028 2.02939 9.29958 1.30185 9.31389 0.563905C9.32193 0.149315 9.76091 1.86984 10.2227 2.96895C10.4894 3.60386 10.772 4.09668 10.961 4.7193C11.1478 5.33431 11.1778 5.9177 11.1501 8.06477C11.1229 10.1685 10.6298 10.8882 10.4854 11.4259C10.1962 12.0762 10.0228 12.5107 9.92177 12.698C9.87797 12.7994 9.84936 12.9139 9.81988 13.1185" stroke="#0012D4" stroke-linecap="round"/>
<path d="M9.12616 31.9357C9.15478 31.4475 9.6135 30.0644 10.0211 29.2211C10.2059 28.8386 10.5691 28.383 11.0018 27.9213C11.3515 27.5481 12.1837 27.0545 13.4238 26.3621C15.2945 25.3175 16.0599 25.1165 16.6964 24.7258C16.9348 24.5795 17.2705 24.31 17.433 24.2203C17.5956 24.1305 17.567 24.2164 17.538 24.3321C17.4065 24.8562 17.1057 25.8293 15.9546 28.21C15.5134 29.1225 14.5771 30.1789 14.0208 30.8826C12.9337 32.2578 12.2514 32.5115 11.6717 32.802C11.2949 33.0049 10.7772 33.1203 9.98161 33.1211C9.82075 33.0925 9.7349 33.0353 9.47302 32.8896" stroke="#0012D4" stroke-linecap="round"/>
<path d="M8.60588 30.635C8.60588 30.1763 8.26248 28.7342 6.92013 27.0996C6.27251 26.311 5.51534 26.2715 4.40539 25.968C2.68184 25.4967 1.12235 25.7217 0.643683 25.5327C0.153181 25.339 1.02957 27.1022 1.60666 28.1705C2.34038 29.5288 3.40123 30.1702 3.90678 30.7195C4.39907 31.2545 5.7911 31.8161 7.22884 31.9938C7.64854 31.908 7.96852 31.7345 8.28546 31.461C8.45933 31.3018 8.65964 31.1015 8.86602 30.8084" stroke="#0012D4" stroke-linecap="round"/>
<path d="M9.38629 21.183C9.41491 20.9532 9.70193 20.2621 10.9849 18.7754C11.5863 18.0784 12.5315 17.6017 13.5556 17.025C15.0535 16.1816 15.4251 15.635 16.2485 14.8407C16.5523 14.5476 16.2663 15.8899 16.2225 16.5412C16.1503 17.6141 15.4876 18.8088 14.3924 20.2231C13.1281 21.8557 12.0779 21.6738 11.268 21.689C10.9784 21.6461 10.6601 21.5021 10.3137 21.3144C10.1676 21.2411 10.0817 21.2125 9.81987 21.183" stroke="#0012D4" stroke-linecap="round"/>
<path d="M9.29958 21.0096C9.0984 20.8665 8.46538 20.1754 7.29776 19.4236C5.72419 18.4104 4.38716 18.0327 4.09883 17.9464C3.4901 17.7642 3.17315 17.1968 2.91343 16.8495C2.8253 16.7316 2.71095 16.8456 2.66673 16.947C2.45131 17.4412 2.53579 18.403 2.73653 19.444C3.08951 21.2744 4.06544 21.7588 4.62909 22.1642C5.36802 22.6957 6.6617 22.8306 7.33244 22.6295C7.59129 22.4283 7.88178 22.1673 8.22734 21.8217C8.42982 21.6192 8.68737 21.3617 9.03943 21.0963" stroke="#0012D4" stroke-linecap="round"/>
</svg>
