<svg width="38" height="38" viewBox="0 0 38 38" fill="none" xmlns="http://www.w3.org/2000/svg">
<path d="M27.8564 7.85431C27.4708 8.20779 27.0852 8.56127 25.8261 9.81987C24.567 11.0785 22.4461 13.2315 20.9679 14.8387C19.4897 16.4459 18.7185 17.4421 18.1927 18.1963C17.3558 19.3966 17.0163 20.0576 16.6288 20.5577C15.9091 21.4862 15.4904 22.4259 15.2158 23.3456C14.7074 25.0485 14.4193 26.4183 14.2411 27.0167C13.8419 28.357 13.9645 29.2403 13.8506 30.4702C13.6578 32.5521 13.8983 34.4013 13.9957 35.2437C14.127 36.3792 14.1262 36.902 14.1583 37.2764C14.2089 37.8661 14.7416 36.2262 15.1306 35.6741C15.6105 34.993 16.1029 34.5065 16.7198 33.728C17.9229 32.5239 18.44 32.1363 19.1387 31.6645C19.2862 31.5823 19.3826 31.5501 19.4819 31.517" stroke="#0012D4" stroke-linecap="round"/>
<path d="M24.2535 11.0678C24.3499 10.9061 25.0597 10.133 25.6153 9.52726C25.9654 9.14557 26.4581 8.73266 27.0268 8.00331C27.2462 7.72184 27.4007 7.14444 27.5954 5.9652C28.102 2.89827 27.5643 2.21033 27.4835 1.64018C27.426 1.23478 27.3695 0.845094 27.1758 0.551501C26.9225 0.167837 26.1095 2.00388 24.7126 3.53222C23.829 4.49896 23.6692 5.90482 23.5723 6.45647C23.4972 6.8842 23.4102 7.33238 23.3931 8.96783C23.4744 9.63827 23.5387 10.1563 23.7495 10.5794C23.7987 10.6773 23.8308 10.7737 23.9613 10.9704" stroke="#0012D4" stroke-linecap="round"/>
<path d="M24.3508 11.4573C24.7043 11.0064 25.6791 10.096 26.3597 9.52874C27.6343 8.46662 28.4699 8.37433 29.1199 8.16351C29.6942 7.97723 30.1584 7.95172 30.7432 7.85483C32.1467 7.62227 34.5735 7.8855 34.9635 8.04861C35.4212 8.24004 36.227 8.01793 36.5878 7.88696C37.2596 7.64308 35.0643 8.63141 34.5126 9.1183C34.01 9.56191 33.701 10.1563 33.3597 10.6437C32.8616 11.355 32.1138 11.8429 31.5582 12.1545C31.0838 12.4206 30.2305 12.657 29.692 12.7393C29.1251 12.8259 28.4757 12.8849 26.9211 12.9019C26.2575 12.9092 25.7492 12.7232 25.3261 12.5294C25.1318 12.3999 24.9361 12.2694 24.7579 12.1239C24.6761 12.0425 24.6118 11.9461 24.4482 11.9442" stroke="#0012D4" stroke-linecap="round"/>
<path d="M13.834 27.3298C13.7367 27.0084 13.6724 26.1632 13.4455 25.6442C13.1243 24.9094 12.7648 24.313 12.1163 23.3412C11.6392 22.6263 11.0783 21.9448 10.9288 20.9228C10.8085 20.1004 10.8173 18.6048 10.4439 17.5477C9.83188 15.8156 8.90285 14.9979 8.30203 14.5587C7.64395 14.0777 6.72939 13.6346 5.48052 12.9369C4.61612 12.454 4.45465 11.654 4.29155 11.1671C4.24882 11.0396 4.22679 10.9081 4.14597 10.9222C3.5796 11.0211 3.64253 11.876 3.52859 12.3643C3.40255 12.9046 3.41466 14.141 3.49549 15.3816C3.53581 16.0005 3.80222 17.0331 4.30518 18.4149C4.69295 19.4802 5.36026 19.7655 6.10569 20.4296C6.61238 20.8811 7.30586 20.7724 8.06979 20.9024C8.24945 20.935 8.41012 20.9672 8.92671 20.9837C9.4433 21.0003 10.3109 21.0003 11.2049 21.0003" stroke="#0012D4" stroke-linecap="round"/>
<path d="M13.5419 26.9403C13.5419 26.8761 13.4776 26.7465 13.316 26.5683C12.7336 25.9264 11.1756 26.2275 10.364 25.6929C9.63309 25.2115 8.16473 24.7357 6.87497 24.6193C6.23214 24.5613 5.7225 24.8623 4.81397 25.1861C4.04538 25.46 3.70874 25.8361 3.27054 26.2402C2.38928 27.0529 1.7943 27.7505 1.1779 27.8975C0.956617 27.9503 0.629666 27.9141 0.576595 27.9944C0.172921 28.6055 1.46516 28.919 2.11272 29.4371C3.36273 30.4371 4.28716 30.4128 6.10179 30.4138C6.93529 30.4142 7.37208 30.1226 7.95683 29.9595C8.60024 29.78 9.417 29.1177 9.90486 28.6946C10.2301 28.3367 10.94 27.6921 11.3826 27.1365C11.4317 27.0387 11.4639 26.9423 11.497 26.6482" stroke="#0012D4" stroke-linecap="round"/>
<path d="M16.8528 19.4423C16.7875 19.3137 16.9813 18.7957 17.0957 15.8831C17.1368 14.8379 18.6971 13.995 19.237 13.342C19.9197 12.5166 20.1305 11.5897 20.1797 10.876C20.2445 9.93402 20.1967 8.76774 19.8082 7.42101C19.602 6.7063 19.0944 6.16971 18.6723 5.60103C18.0218 4.72477 17.957 4.25332 17.7462 3.5079C17.6911 3.31325 17.6649 3.15101 17.5359 3.18071C16.6196 3.39162 16.5937 4.41107 15.8985 5.88439C15.269 7.21827 14.4203 8.20684 14.1432 8.72927C13.9285 9.13425 13.8341 9.60518 13.7532 10.2532C13.6403 11.1585 13.6393 11.8098 13.7362 12.4939C13.7997 12.9425 14.3502 13.6269 14.8224 14.1016C15.2784 14.5599 15.7797 14.8967 16.1697 15.1727C16.2675 15.254 16.3639 15.3505 16.4618 15.4322C16.5596 15.514 16.6561 15.5783 16.7554 15.7419" stroke="#0012D4" stroke-linecap="round"/>
<path d="M19.2872 31.3223C19.2229 31.3223 19.1587 31.3223 19.1095 31.2741C18.991 31.158 18.9951 30.6767 19.0272 30.0447C19.0906 28.7968 20.6135 27.5928 22.1701 26.7003C23.2291 26.0931 23.862 25.7406 24.3489 25.4646C24.6221 25.3096 24.8367 25.1233 24.9828 25.1866C25.7904 25.5365 25.1298 27.0942 25.0169 27.8153C24.9081 28.5094 24.0937 29.4683 23.4929 30.1353C23.0305 30.6487 22.2144 31.0594 21.5128 31.3379C20.9581 31.5581 20.555 31.5813 20.0842 31.6305C19.8691 31.653 19.6455 31.7118 19.6115 31.7118C18.7033 31.7118 21.4237 31.6145 22.0444 31.7274C22.7227 31.8508 23.5017 32.8102 24.138 33.2689C24.2449 33.3459 24.3489 33.3984 24.3021 33.4958C23.9681 34.1916 23.0557 34.4364 22.4227 34.6166C20.9919 35.0238 20.037 33.8561 19.5969 33.45C19.4508 33.2075 19.3524 32.9466 19.3037 32.6233C19.2872 32.4285 19.2872 32.1715 19.2872 31.9066" stroke="#0012D4" stroke-linecap="round"/>
</svg>
