<svg width="26" height="49" viewBox="0 0 26 49" fill="none" xmlns="http://www.w3.org/2000/svg">
<path d="M14.2616 11.4872C13.8566 11.4872 13.335 11.4297 12.4362 11.4145C11.8953 11.4053 11.3912 11.8338 10.9536 12.1682C10.7809 12.3002 10.5473 12.5017 10.3152 12.7626C9.9851 13.1336 10.0814 14.0946 10.2835 14.7799C10.4839 15.4598 11.386 15.6656 12.0239 16.1302C12.426 16.4231 13.1835 16.364 13.723 16.263C14.3124 16.1526 14.7824 15.2633 15.0445 14.4224C15.2836 13.6553 15.1621 12.8248 15.1181 12.3742C14.9879 12.0106 14.785 11.778 14.6112 11.6622C14.5237 11.6039 14.4375 11.5464 14.3487 11.4001" stroke="#0012D4" stroke-linecap="round"/>
<path d="M12.3457 16.5382C12.3457 16.4807 12.3457 16.4233 12.3457 16.4368C12.3457 16.9543 11.8824 18.158 11.7944 18.8726C11.6255 20.2446 11.7065 21.8766 12.0827 22.761C12.5175 23.7831 12.7219 24.3725 13.1277 24.9691C13.318 25.2487 13.564 25.3627 13.7952 25.435C14.1394 25.5426 14.5211 25.5952 14.9692 25.4659C16.2596 25.0935 16.437 24.3203 16.6992 23.7973C16.9608 23.2754 17.3079 21.8888 17.3105 20.0435C17.3131 18.213 16.4701 17.8184 15.9763 17.2227C15.4443 16.5808 14.96 16.4233 14.6113 16.0462C14.5237 15.9582 14.4375 15.9007 14.3931 15.943C14.3487 15.9852 14.3487 16.1289 14.3487 16.2769" stroke="#0012D4" stroke-linecap="round"/>
<path d="M14.5229 11.313C14.5229 11.0247 14.8677 10.0415 15.6807 8.96558C16.5727 7.78499 17.9715 7.19379 18.8306 6.69914C19.6872 6.20592 20.6991 5.80041 21.6466 5.49342C21.9981 5.37954 22.5314 5.3911 23.1257 5.43421C23.5386 5.46415 23.7819 5.76731 23.9848 6.01333C24.4727 6.60485 24.0171 7.91139 23.596 8.97254C23.3143 9.68248 22.3955 10.4944 21.8395 10.9782C21.165 11.5649 19.4084 12.5287 18.2419 12.9376C17.6484 13.1456 17.2243 13.1993 16.6587 13.2433C16.1752 13.2809 15.7429 13.3447 15.7129 13.3883C14.9437 14.5031 19.02 12.5322 19.6571 12.4599C21.3042 12.273 21.7197 12.5897 22.1848 12.8649C22.6084 13.1156 23.1114 13.7183 23.5063 14.1999C23.8363 14.6023 24.2156 15.1988 24.5949 15.7383C24.8418 16.0896 24.8862 16.8813 24.6841 17.5954C24.4658 18.3671 23.6983 18.6562 23.2625 18.8887C22.5543 19.2665 21.0352 18.8338 20.0407 18.6287C19.5088 18.519 18.9382 18.3096 18.4435 18.1789C18.0072 17.9899 17.6597 17.8741 17.2966 17.7722C17.1947 17.7574 17.0797 17.7574 16.7871 17.6703" stroke="#0012D4" stroke-linecap="round"/>
<path d="M9.90726 14.7965C9.29939 14.8252 8.31705 15.056 7.4279 15.376C6.58707 15.6787 5.58427 16.479 4.85927 17.2023C3.6922 18.3665 3.7241 20.0478 3.83949 20.4414C3.96624 20.8738 6.05976 20.8055 8.02923 20.4589C9.27799 20.2391 9.78882 19.5305 10.1816 19.21C10.6196 18.8526 11.0934 18.226 11.4883 17.7008C11.7936 17.3812 12.0252 16.9754 12.2577 16.6266C12.3161 16.5391 12.3736 16.4529 12.2586 16.5382" stroke="#0012D4" stroke-linecap="round"/>
<path d="M10.691 12.358C10.489 12.068 8.53129 10.8027 7.31076 9.83427C6.51644 9.20402 5.46931 7.74767 4.98816 6.54195C4.64557 5.68347 4.9137 4.69615 5.20283 4.20324C5.48157 3.72803 6.1303 3.47606 6.82482 3.34543C7.62154 3.19558 8.22213 3.35849 8.59791 3.58927C9.82742 4.34437 10.5709 5.27092 10.8791 5.73814C11.1626 6.16778 11.4452 6.69566 11.8506 7.85392C12.0522 8.42979 12.0844 8.84322 12.1711 9.23598C12.2586 9.65748 12.2873 9.91874 12.3309 10.1643C12.3457 10.3237 12.3457 10.5536 12.3457 10.7034" stroke="#0012D4" stroke-linecap="round"/>
<path d="M12.694 10.7905C12.6069 10.072 12.5495 8.3834 12.4911 7.29699C12.4077 5.74358 12.4032 3.82528 12.6061 3.36111C12.8934 2.70392 13.1573 2.17063 13.5488 1.7352C13.9542 1.28428 14.6639 0.83646 15.304 0.543848C15.4905 0.458592 15.7943 0.514239 15.9855 0.571716C16.8262 0.824499 16.9892 2.25423 17.1929 3.10725C17.6356 4.96013 17.0205 5.47644 16.8024 6.04207C16.6496 6.43807 16.4109 6.78275 16.2507 7.1459C16.0329 7.5674 15.8013 7.97235 15.54 8.53798C15.4529 8.75526 15.338 9.07139 15.2195 9.39709" stroke="#0012D4" stroke-linecap="round"/>
<path d="M10.1685 12.1839C9.90813 11.8651 9.50317 11.576 9.0525 11.3282C8.30968 10.9199 6.92192 10.0381 6.20825 9.83296C5.72687 9.69463 5.03388 9.57127 4.36592 9.49898C3.20911 9.3738 2.45263 9.68622 1.80993 9.75981C1.35757 9.8116 0.968668 10.1217 0.619015 10.4552C0.449811 10.6166 0.501883 10.9629 0.530622 11.2817C0.579671 11.8257 1.39714 12.4695 2.21183 13.1253C2.81698 13.6124 3.40187 14.1259 3.88216 14.4329C4.20781 14.641 4.93808 14.7947 5.60909 14.9558C5.81244 14.9706 6.01622 14.9994 6.39156 15.0429C6.65195 15.0577 7.05429 15.0577 7.46883 15.0577" stroke="#0012D4" stroke-linecap="round"/>
<path d="M13.652 25.5952C13.5945 25.5952 13.537 25.5952 13.4931 25.6383C13.3871 25.7422 13.3907 26.5462 13.4338 27.893C13.4744 29.1596 13.652 30.0341 13.6951 30.7708C13.7231 31.25 13.8244 31.9386 13.8688 32.7825C13.9646 34.6015 13.942 35.7252 13.9855 36.8621C14.0247 37.8834 14.0003 39.8095 14.0147 40.8877C14.0314 42.1389 14.0874 42.8332 14.1018 43.6888C14.1221 44.8957 14.2895 46.4055 14.4353 46.9154C14.5516 47.279 14.6387 47.5402 14.6966 47.714C14.7258 47.8015 14.7545 47.8877 14.697 47.8024" stroke="#0012D4" stroke-linecap="round"/>
<path d="M14.8712 47.7153C14.5237 47.4 14.4636 45.1462 14.5951 43.9296C14.725 42.7278 15.0158 40.987 15.2043 39.9824C15.283 39.5633 15.5365 38.6652 15.9136 37.419C16.4215 35.7406 16.5537 34.7132 16.8585 33.6403C17.0349 33.0194 17.712 32.0188 18.0925 31.0408C18.3235 30.4473 18.9608 29.8364 19.4128 29.515C19.7943 29.2437 20.699 29.2529 21.4297 29.4837C22.1945 29.7252 22.2144 30.4704 22.5627 32.0762C22.7142 32.7748 22.507 33.6882 22.2609 34.7751C21.953 36.1353 21.1745 36.9966 20.4326 37.901C20.0976 38.3093 19.7498 38.7715 19.2264 39.3541C18.2964 40.3893 21.3714 37.6724 22.0524 37.5409C23.2094 37.3175 23.7506 37.7857 24.1738 38.0622C24.5615 38.3154 24.5378 38.9178 24.6824 39.6702C24.935 40.985 24.4229 41.4712 24.2047 41.8792C23.9808 42.298 23.552 42.7496 23.1606 43.1563C22.8377 43.4918 22.392 43.7946 21.7828 44.3455C20.9708 45.0797 19.7864 45.7942 18.9516 46.3062C18.4145 46.6358 17.8635 46.9298 17.3405 47.3221C17.0117 47.5688 16.5572 47.6561 16.1213 47.744C15.9763 47.7728 15.7752 47.8302 15.5709 47.8599C15.3667 47.8895 15.1656 47.8895 15.0454 47.8024" stroke="#0012D4" stroke-linecap="round"/>
</svg>
