<svg width="31" height="42" viewBox="0 0 31 42" fill="none" xmlns="http://www.w3.org/2000/svg">
<path d="M14.4076 40.4637C14.5977 39.8954 14.6604 39.1371 14.63 37.0687C14.619 36.3206 14.4419 35.4137 14.3302 34.7257C14.2185 34.0377 14.1245 33.5986 14.1073 32.1964C14.0902 30.7943 14.153 28.4422 14.201 27.1208C14.257 25.5789 14.3126 25.1655 14.1715 23.8299C14.05 22.6801 13.7481 20.5812 13.5557 19.3107C13.3054 17.6579 12.9527 16.5861 12.6044 15.4153C12.3908 14.6974 12.412 13.2334 12.4433 11.2553C12.4747 10.4689 12.5374 10.124 12.5697 9.80514C12.602 9.48631 12.602 9.20407 12.6971 8.91327" stroke="#0012D4" stroke-linecap="round"/>
<path d="M13.8374 22.1226C13.8374 21.9021 13.1475 20.9575 11.5776 18.8041C10.9831 17.9886 10.4828 16.8712 10.1326 15.8548C9.82453 14.9606 9.43558 13.7351 9.24552 12.2508C9.03294 10.5905 9.36906 9.3599 9.68552 8.79066C9.92028 8.36837 10.0352 8.05892 10.3973 7.61845C11.1453 6.70843 11.933 5.2783 12.5189 4.04337C12.953 3.12825 12.9822 2.07479 13.0924 1.48702C13.1513 1.17305 13.2673 0.80612 13.2829 0.551911C13.3105 0.105198 13.6132 2.62787 14.2941 4.80409C14.771 6.32849 15.6107 7.16847 15.911 7.81801C16.3233 8.70983 16.6884 10.1772 16.8461 11.882C16.9884 13.4191 16.753 15.1454 16.5159 16.5376C16.2048 18.3645 15.4853 19.7753 15.1061 20.6938C14.8201 21.1714 14.63 21.4878 14.5036 21.7249C14.4399 21.8366 14.3772 21.9307 14.3126 21.9326" stroke="#0012D4" stroke-linecap="round"/>
<path d="M13.7424 21.8376C13.5533 21.9326 13.1114 22.058 12.5255 22.2172C11.1354 22.5949 9.37478 22.1873 8.59837 21.7288C7.98572 21.3669 7.18906 20.9224 6.3523 19.7882C5.01999 17.9823 4.74675 16.2649 4.65172 15.4144C4.58503 14.8176 4.61941 13.8739 4.65077 13.5147C4.66325 13.3718 5.18579 14.198 6.21071 15.4134C8.50162 18.1302 9.33677 18.1294 9.79672 18.5257C10.3952 19.0414 10.92 19.5853 11.4598 19.9517C11.9767 20.3025 12.4728 20.6953 12.7912 21.0759C12.8548 21.1714 12.9176 21.2655 12.9499 21.3767C12.9822 21.4878 12.9822 21.6133 13.0772 21.7425" stroke="#0012D4" stroke-linecap="round"/>
<path d="M14.1226 30.5805C14.0275 30.455 14.2157 29.6359 14.5174 28.9041C14.8722 28.0438 15.261 27.2905 16.6029 24.9679C17.4715 23.7496 18.5197 22.6035 19.5322 21.6699C19.9489 21.3007 20.1685 21.1439 20.5847 20.8873" stroke="#0012D4" stroke-linecap="round"/>
<path d="M14.5977 28.8699C14.8496 26.8818 15.3561 24.7892 15.8469 23.7738C16.1508 23.1452 16.3396 22.6624 16.591 22.049C17.1502 20.6842 17.8896 19.5283 18.5833 18.7082C19.62 17.4827 20.6132 16.55 21.2608 16.0758C22.5653 15.1207 23.7816 14.9649 25.3139 14.4432C26.4301 14.0631 27.3566 13.6363 28.2476 13.1911C28.7294 12.9503 29.1366 12.8105 29.2164 12.715C29.5119 12.3615 28.1606 13.8796 27.2873 15.5588C26.4721 17.1262 26.7941 18.2872 26.7304 19.0308C26.632 20.1793 26.1611 20.9804 25.9392 21.5971C25.5157 22.7744 24.2643 23.8598 23.3121 24.6543C22.7584 25.1162 22.3295 25.5096 21.4908 26.0645C20.3063 26.4608 18.6556 26.7792 17.7238 26.8581C17.2044 26.8742 16.295 26.8742 15.358 26.9692" stroke="#0012D4" stroke-linecap="round"/>
<path d="M14.5027 40.4637C14.4076 39.9933 14.4704 38.7874 14.9907 37.4455C15.82 35.3068 16.4641 34.8911 16.9873 34.4782C17.6046 33.991 18.8969 33.2147 20.9415 32.5305C22.1557 32.1242 22.6412 32.2283 24.4106 32.2117C25.2119 32.2042 26.0908 32.4165 28.5265 32.4497C29.6023 32.4644 29.9918 32.0069 30.1187 31.9114C30.3664 31.725 29.4264 32.9506 28.9964 33.6823C28.4928 34.5392 27.9363 34.95 27.3196 35.5663C26.0131 36.8717 25.2773 37.2612 24.7518 37.6907C24.2924 38.0662 23.504 38.5916 22.7889 39.1471C21.9203 39.8218 21.0009 39.8612 20.2706 40.067C18.779 40.4872 16.6276 40.1159 15.978 40.0523C15.511 40.0065 15.1071 39.7358 14.7094 39.5619C13.927 39.2198 16.7435 37.6185 17.92 36.9181C19.1231 36.1579 20.1399 35.6808 20.377 35.6333C20.4887 35.6171 20.5828 35.6171 20.6797 35.5221" stroke="#0012D4" stroke-linecap="round"/>
<path d="M14.2176 39.2283C14.1539 38.5973 14.2176 37.2099 13.9653 36.127C13.7451 35.1819 13.0791 34.0681 12.6515 33.229C12.1538 32.2525 11.6536 31.7551 11.2887 31.3897C10.7652 30.8654 10.8934 29.4154 10.4182 28.4613C10.1791 27.981 9.94212 27.6041 9.65845 27.2729C9.21689 26.7574 8.14318 25.9923 6.9244 25.2007C5.86067 24.5098 4.12145 24.373 2.81762 23.8513C2.13485 23.5781 1.80268 23.0122 1.32657 22.6781C1.13413 22.5431 1.04053 22.2823 0.898457 22.155C0.409167 21.7164 0.43803 24.4243 0.627142 25.4778C0.702962 25.9001 1.19448 26.8353 1.87443 28.1006C2.3627 29.0093 2.93736 29.69 3.49091 30.2597C3.84561 30.6248 4.83323 30.9891 6.20929 31.5113C7.87154 32.1421 9.36433 31.7227 10.2054 31.3279C11.2825 30.8222 8.70767 29.6948 8.31138 29.3308C8.2002 29.2196 8.07476 29.0942 7.94741 28.9982C7.82007 28.9022 7.69463 28.8395 7.56539 28.7749" stroke="#0012D4" stroke-linecap="round"/>
<path d="M14.4076 40.5588C14.3763 40.2433 14.1872 39.7377 13.4293 38.9466C13.1751 38.7237 12.8928 38.5042 12.7004 38.3597C12.508 38.2153 12.4139 38.1526 12.412 37.9929" stroke="#0012D4" stroke-linecap="round"/>
</svg>
