<svg width="38" height="38" viewBox="0 0 38 38" fill="none" xmlns="http://www.w3.org/2000/svg">
<path d="M21.279 3.97006C21.1178 3.96006 20.9366 3.93976 20.6443 3.87948C20.347 3.81818 20.0681 3.79859 19.7568 3.7633C19.1887 3.69889 18.7351 3.7477 18.5138 3.78799C18.2148 3.84244 17.9975 3.85888 17.9169 3.87403C17.8375 3.88894 17.4452 3.95915 16.8301 4.11532C16.3851 4.22828 16.0498 4.43356 15.7474 4.60503C15.5308 4.72776 15.1622 4.95766 14.7233 5.29059C14.4846 5.47157 14.2425 5.80529 13.8597 6.37907C13.6553 6.68549 13.4769 7.05281 13.3491 7.31819C13.1473 7.73708 13.0795 7.9983 13.0342 8.17961C12.9883 8.36352 12.898 8.77353 12.8273 9.47318C12.789 9.85156 12.8165 10.2828 12.8517 10.6542C12.8868 11.0256 12.9468 11.3255 13.0777 11.715C13.2085 12.1044 13.4085 12.5743 13.6114 12.9913C13.8144 13.4083 14.0144 13.7582 14.2523 14.1184C14.4903 14.4786 14.7602 14.8385 14.9742 15.1088C15.3288 15.5568 15.6527 15.8542 15.935 16.0661C16.12 16.205 16.2898 16.219 16.5308 16.2691C16.9757 16.3617 17.3298 16.4813 17.5109 16.5368C17.916 16.6607 18.2077 16.7234 18.6008 16.8046C19.0621 16.8999 19.5304 16.7749 19.9777 16.6143C20.2709 16.509 20.6749 16.2938 20.966 16.1308C21.4306 15.8707 21.6519 15.6843 21.8179 15.5737C22.047 15.4211 22.2974 15.1502 22.6145 14.838C22.7856 14.6695 23.0015 14.5058 23.1946 14.3383C23.3877 14.1708 23.5577 14.0108 23.7402 13.8135C23.9227 13.6161 24.1127 13.3862 24.2605 13.1627C24.4084 12.9393 24.5083 12.7294 24.6248 12.3913C24.7413 12.0532 24.8713 11.5933 24.9532 11.2615C25.0352 10.9296 25.0651 10.7396 25.0756 10.4518C25.086 10.164 25.076 9.78415 25.0409 9.44349C25.0058 9.10283 24.9458 8.81292 24.8549 8.50361C24.6678 7.86692 24.4605 7.42483 24.3296 7.19308C24.2017 6.96668 24.0463 6.78834 23.8157 6.47207C23.645 6.2381 23.325 5.88587 23.0004 5.56051C22.3708 4.9294 21.986 4.63684 21.9357 4.5714C21.7942 4.38727 21.5825 4.27361 21.4059 4.12714C21.3202 4.06155 21.239 4.01065 21.1634 3.97536C21.1278 3.96006 21.0978 3.95006 21.0366 3.93976" stroke="#0012D4" stroke-width="0.5" stroke-linecap="round"/>
<path d="M21.4949 11.2146C21.517 11.1999 21.539 11.1851 21.7014 11.0818C21.8637 10.9785 22.1655 10.7871 22.553 10.556C22.9404 10.3248 23.4043 10.0597 23.6727 9.90111C24.1116 9.64173 24.3565 9.46805 24.4773 9.32615C24.6089 9.17169 24.0475 9.02874 23.7431 8.92097C23.5191 8.8417 23.2369 8.84957 22.9398 8.85326C22.6389 8.85698 22.2709 9.04904 22.0494 9.20243C21.9008 9.3054 21.7559 9.44395 21.5441 9.70734C21.2964 10.0153 21.2793 10.2766 21.2754 10.5294C21.2725 10.7168 21.3088 10.8643 21.3681 11.0244C21.3904 11.0582 21.4199 11.0803 21.4461 11.0953C21.4723 11.1104 21.4944 11.1178 21.5172 11.1253" stroke="#0012D4" stroke-width="0.5" stroke-linecap="round"/>
<path d="M21.5841 11.0138C21.5841 10.7835 21.5988 10.6354 21.6471 10.5047C21.7041 10.3507 21.859 10.1517 22.1148 9.90657C22.2908 9.73796 22.5502 9.69784 22.6918 9.64921C22.8835 9.58333 23.1825 9.54122 23.3348 9.5227C23.6122 9.48896 23.6812 9.54858 23.7257 9.56342C23.7481 9.57089 23.7702 9.57826 23.7484 9.59677C23.575 9.74438 23.1709 9.83751 22.9456 9.96112C22.8241 10.0278 22.6635 10.1209 22.5216 10.2065C22.403 10.2782 22.2985 10.3663 22.1573 10.4742C22.0678 10.5747 21.9859 10.6566 21.9414 10.6974C21.919 10.7161 21.8969 10.7309 21.8295 10.7907" stroke="#0012D4" stroke-width="0.5" stroke-linecap="round"/>
<path d="M13.8643 9.42968C14.1735 9.65056 14.3844 9.80116 14.6097 9.94162C14.7815 10.0487 15.078 10.2146 15.3365 10.3718C15.813 10.6616 16.0727 10.8351 16.2206 10.8943C16.6974 11.0853 16.8906 11.0731 17.1209 11.0586C17.3171 11.0463 17.2556 10.6363 17.2298 10.4121C17.2093 10.2352 17.0633 9.88617 16.9215 9.60906C16.7203 9.21583 16.4609 8.98479 16.2449 8.75732C16.0914 8.59568 15.7916 8.53008 15.3348 8.51859C15.1503 8.51395 14.9883 8.56667 14.6724 8.70032C14.4662 8.78755 14.3186 8.87903 14.0513 9.13851C13.9616 9.25029 13.9165 9.32526 13.8868 9.38093C13.8719 9.40714 13.8572 9.42923 13.842 9.4743" stroke="#0012D4" stroke-width="0.5" stroke-linecap="round"/>
<path d="M14.556 9.83127C14.7267 9.67532 15.037 9.54212 15.3322 9.47808C15.62 9.41565 15.834 9.57782 16.0353 9.7118C16.1583 9.7936 16.2731 10.0084 16.3518 10.1507C16.4358 10.3023 16.5412 10.4257 16.5899 10.53C16.6501 10.6591 16.6532 10.7532 16.6385 10.7941C16.6322 10.8117 16.5943 10.7983 16.3657 10.6951C16.137 10.5919 15.7099 10.3931 15.4237 10.2686C15.1374 10.1441 15.0049 10.0999 14.9403 10.0661C14.8757 10.0323 14.8831 10.0102 14.9053 9.98779C14.9573 9.93526 15.1126 9.89107 15.3094 9.84645C15.5986 9.78087 15.842 10.0464 15.9204 10.1618C15.9913 10.255 16.0209 10.3219 16.0543 10.3664C16.0729 10.3888 16.095 10.4109 16.1178 10.4337" stroke="#0012D4" stroke-width="0.5" stroke-linecap="round"/>
<path d="M18.996 10.6121C19.1727 10.568 19.3079 10.5452 19.3895 10.5526C19.5236 10.6635 19.6205 10.8792 19.6539 11.0127C19.6653 11.08 19.6653 11.1463 19.6207 11.2146" stroke="#0012D4" stroke-width="0.5" stroke-linecap="round"/>
<path d="M18.3489 12.2186C18.4078 12.41 18.5192 12.6338 18.6897 12.875C18.8554 13.1092 19.0252 13.2297 19.1217 13.278C19.2713 13.3529 19.4783 13.2824 19.7609 13.1303C19.9772 12.9182 20.17 12.5778 20.2787 12.2197C20.29 12.1521 20.29 12.1079 20.29 12.0624" stroke="#0012D4" stroke-width="0.5" stroke-linecap="round"/>
<path d="M14.3943 7.06623C14.3751 7.06623 14.4228 7.02782 14.7214 6.85916C14.9599 6.72445 15.385 6.50803 15.7131 6.36062C16.0412 6.21321 16.2621 6.14598 16.424 6.11134C16.5858 6.07671 16.6818 6.07671 16.839 6.04761" stroke="#0012D4" stroke-width="0.5" stroke-linecap="round"/>
<path d="M21.2918 6.2804C21.5913 6.25129 22.1521 6.38575 22.709 6.6519C23.4062 6.98511 23.4839 7.15292 23.5906 7.27428C23.6486 7.34675 23.7071 7.42475 23.7604 7.49736C23.7848 7.53156 23.804 7.56037 23.8238 7.59006" stroke="#0012D4" stroke-width="0.5" stroke-linecap="round"/>
<path d="M20.5351 3.42829C20.5057 3.51414 20.6218 3.94109 20.859 4.37241C21.0706 4.75712 21.3099 5.01734 21.4466 5.24173C21.5938 5.48316 21.7278 5.71699 21.8344 5.90107C22.0887 6.33992 22.2709 6.42537 22.4263 6.56129C22.6364 6.74504 23.0078 6.94924 23.183 7.01749C23.4813 7.13368 23.8523 7.36658 24.0897 7.4926C24.2891 7.59848 24.733 7.83108 25.0647 7.99711C25.2793 8.10456 25.4624 8.2589 25.6566 8.39961C25.8464 8.5371 26.0252 8.70477 26.2531 8.92319C26.4418 9.10403 26.6073 9.28684 26.8787 9.57773C26.9782 9.68441 27.2266 9.98387 27.6719 10.4725C27.8932 10.7153 28.0788 10.9708 28.2738 11.2099C28.4688 11.4489 28.6608 11.6698 28.827 11.8797C29.1386 12.2732 29.295 12.5659 29.3531 12.6825C29.3718 12.7201 29.4111 12.6838 29.4356 12.6402C29.5466 12.4418 29.547 11.9591 29.6246 11.2C29.6667 10.7876 29.6638 10.3159 29.6591 9.97747C29.6518 9.44642 29.577 9.08573 29.5044 8.79993C29.4529 8.59729 29.258 8.20448 28.8956 7.54179C28.7017 7.18742 28.4274 6.83108 28.265 6.61426C28.0542 6.33272 27.8416 6.16519 27.5513 5.91853C27.4014 5.79123 27.261 5.64307 27.0523 5.46801C26.5863 5.07705 26.2688 4.85465 26.1579 4.76298C25.9509 4.59184 25.6012 4.39947 25.2668 4.2298C24.9764 4.08246 24.6218 3.94342 24.3436 3.81187C24.1211 3.70667 23.9216 3.64191 23.7422 3.57409C23.4461 3.49639 23.1562 3.41897 22.9223 3.37503C22.8736 3.37008 22.8256 3.37008 22.7179 3.39918" stroke="#0012D4" stroke-width="0.5" stroke-linecap="round"/>
<path d="M18.8471 2.58428C18.8471 2.60349 18.8471 2.48853 18.8663 2.20332C18.8903 1.847 19.0884 1.38405 19.2872 0.962194C19.4229 0.674022 19.6131 0.51851 19.7246 0.406752C19.8399 0.291117 19.9816 0.265891 20.4168 0.251193C20.6211 0.244296 20.8826 0.265309 21.2502 0.366735C21.9591 0.562355 22.1253 0.76007 22.3577 0.900495C22.7853 1.15884 23.0182 1.21583 23.1345 1.37561C23.2562 1.54286 23.2709 1.86455 23.2564 2.19866C23.2448 2.46877 23.1163 2.75716 22.9808 3.08152C22.7473 3.52491 22.6023 3.73737 22.4666 3.9555C22.4172 4.03917 22.4076 4.06798 22.3977 4.06857" stroke="#0012D4" stroke-width="0.5" stroke-linecap="round"/>
<path d="M20.3605 3.45735C20.1477 3.74751 19.8384 4.09588 19.2618 4.46012C18.9671 4.64634 18.6544 4.71812 18.3211 4.82435C17.8574 4.97209 17.5188 5.12557 17.1719 5.2366C16.9055 5.32185 16.4408 5.41486 16.1649 5.47408C15.8135 5.54951 15.6274 5.55281 14.9535 5.58162C14.385 5.60593 13.3576 5.66806 12.785 5.69294C12.1264 5.72156 11.9408 5.69833 11.7521 5.68872C11.659 5.68399 11.573 5.65991 11.3027 5.6164C11.0325 5.57289 10.5811 5.50566 10.3054 5.45662C9.94061 5.39176 9.64281 5.32027 9.22663 5.2478C9.02024 5.21187 8.82965 5.14652 8.57703 5.05441C8.01285 4.84869 7.57558 4.64158 7.34799 4.52531C7.06815 4.38235 6.92511 4.34035 6.78425 4.26774C6.73984 4.24485 6.68297 4.21463 6.66289 4.15657C6.61566 4.02 6.72022 3.86538 6.86967 3.67723C7.14539 3.3301 7.40882 3.08919 7.60657 2.9444C7.74398 2.8438 7.9676 2.70357 8.48958 2.45648C9.01155 2.20939 9.82791 1.86364 10.4021 1.64231C10.9763 1.42097 11.2837 1.33454 11.562 1.2756C11.8404 1.21667 12.0805 1.18785 12.4203 1.16821C12.7601 1.14856 13.1923 1.13896 13.6886 1.17723C14.185 1.2155 14.7324 1.30194 15.1345 1.38008C15.5366 1.45823 15.7767 1.52546 16.0732 1.62732C16.3698 1.72918 16.7156 1.86364 16.9849 1.95692C17.6558 2.18926 17.7988 2.22511 17.9202 2.29292C18.1062 2.39689 18.4094 2.46725 18.5604 2.55485C18.5945 2.57435 18.6329 2.59356 18.6719 2.62266C18.7109 2.65176 18.7493 2.69018 18.7889 2.72976" stroke="#0012D4" stroke-width="0.5" stroke-linecap="round"/>
<path d="M8.74817 3.66109C9.07471 3.54584 9.38699 3.43845 9.8934 3.32247C10.2527 3.24017 10.832 3.16808 11.5466 3.13796C12.2613 3.10783 13.0968 3.13665 13.7097 3.1755C14.3227 3.21435 14.6876 3.26237 14.9045 3.29672C15.2959 3.37966 15.4513 3.41837 15.5239 3.45228C15.5581 3.46697 15.5869 3.47658 15.6457 3.51558" stroke="#0012D4" stroke-width="0.5" stroke-linecap="round"/>
<path d="M23.1254 4.79614C23.6248 5.00743 23.9589 5.17391 24.5459 5.6838C25.0606 6.1309 25.9973 6.98124 26.5206 7.45985C27.0439 7.93846 27.1207 8.02489 27.2131 8.14626C27.4112 8.42129 27.5872 8.73328 27.7035 8.98531C27.7525 9.08368 27.7814 9.1221 27.811 9.16168" stroke="#0012D4" stroke-width="0.5" stroke-linecap="round"/>
<path d="M15.995 16.9905C15.9854 17.1634 15.9758 17.3363 15.9756 18.6739C15.9755 20.0115 15.9851 22.5086 16.1053 24.3232C16.2255 26.1378 16.456 27.1943 16.6228 27.8633C16.7895 28.5324 16.8856 28.7822 16.9447 28.9588C17.0037 29.1355 17.0229 29.2315 17.1289 29.5403C17.2348 29.8491 17.4269 30.3677 17.6267 30.7645C17.9726 31.4516 18.3032 31.7551 18.4435 31.8858C18.5845 32.0171 18.8262 32.1526 19.1359 32.2836C19.424 32.4055 19.7191 32.2897 19.985 32.1835C20.3297 32.0458 20.6981 31.7958 21.0276 31.573C21.2517 31.4215 21.3978 31.2522 21.5574 31.0396C21.648 30.9189 21.7267 30.7501 21.9873 29.9409C22.2479 29.1317 22.6801 27.6815 22.9364 26.7183C23.1926 25.7551 23.2598 25.3229 23.2849 24.5384C23.3099 23.7539 23.2907 22.6302 23.1992 21.5519C23.1076 20.4737 22.9444 19.4748 22.8506 18.9267C22.7452 18.3099 22.6411 18.0499 22.5103 17.7012C22.4563 17.5447 22.4275 17.4294 22.4126 17.3508C22.3978 17.2723 22.3978 17.2338 22.3687 17.1943" stroke="#0012D4" stroke-width="0.5" stroke-linecap="round"/>
<path d="M23.3873 22.2874C23.4353 22.4507 23.4833 22.614 23.8058 23.2983C24.1282 23.9827 24.7237 25.1832 25.0833 25.8641C25.4429 26.545 25.5485 26.6698 25.747 26.8734C25.9455 27.077 26.2336 27.3555 26.43 27.5326C26.7131 27.7878 27.0232 27.9422 27.4008 28.1454C27.744 28.33 27.9653 28.5345 28.154 28.6217C28.3279 28.702 28.6239 28.7289 28.9727 28.7339C29.2074 28.7372 29.4105 28.6326 29.6812 28.4348C29.8502 28.3114 30.0287 28.0738 30.1997 27.7775C30.3707 27.4812 30.5147 27.1163 30.6082 26.8322C30.7625 26.3629 30.7892 26.0333 30.8133 25.7961C30.8347 25.5861 30.8669 25.3736 30.8573 25.1413C30.8476 24.9075 30.7511 24.6078 30.6205 24.0576C30.534 23.6929 30.4612 23.1425 30.2342 22.217C30.0072 21.2915 29.6422 20.0045 29.4302 19.2839C29.2182 18.5633 29.1702 18.4481 29.1166 18.2734C28.9934 17.8718 28.9076 17.554 28.8254 17.3464C28.7052 17.0428 28.6553 16.7874 28.5828 16.6569C28.4912 16.4918 28.355 16.2548 28.2051 15.9548C28.0563 15.657 27.8698 15.4297 27.7297 15.2024C27.5629 14.9319 27.3078 14.6733 27.0946 14.4552C26.7804 14.1337 26.4338 13.7414 26.3128 13.5814C26.2691 13.5185 26.2115 13.4225 26.177 13.3874C26.1425 13.3523 26.1329 13.3811 26.123 13.4108" stroke="#0012D4" stroke-width="0.5" stroke-linecap="round"/>
<path d="M29.7901 10.2967C30.059 10.4696 30.4665 10.7891 30.9219 11.1672C31.105 11.3191 31.2045 11.3724 31.4557 11.5653C31.7069 11.7583 32.1102 12.0848 32.3469 12.2818C32.6459 12.5309 32.7965 12.6727 33.0189 12.8756C33.3214 13.1516 33.5148 13.4006 33.6837 13.5646C34.1994 14.0651 34.3297 14.2827 34.5811 14.6456C34.8713 15.0644 35.0189 15.4183 35.0624 15.5345C35.1598 15.7946 35.1743 16.1832 35.1213 16.4994C35.0498 16.9261 34.7584 17.1538 34.2907 17.5981C33.9693 17.9033 33.3908 18.2728 33.0654 18.4949C32.6696 18.765 32.44 18.8814 32.1833 19.0268C31.8722 19.2029 31.6056 19.2699 30.8124 19.3863C30.0331 19.3965 29.8396 19.377 29.6792 19.3529C29.626 19.3479 29.5491 19.3479 29.47 19.3479" stroke="#0012D4" stroke-width="0.5" stroke-linecap="round"/>
<path d="M28.0148 6.10577C28.1111 6.10577 28.3148 6.11538 28.7048 6.25478C29.0324 6.37188 29.6038 6.6343 29.9295 6.78214C30.3175 6.9583 30.5642 7.09442 30.9033 7.2398C31.314 7.41589 31.6318 7.53127 31.9088 7.68159C32.1778 7.82751 32.5043 8.11218 32.7096 8.36028C33.01 8.72324 32.8075 9.1797 32.6527 9.52879C32.544 9.77403 32.3425 10.0045 32.1729 10.1983C31.8863 10.5261 31.4502 10.8491 31.2799 10.9463C31.1498 11.0138 31.0322 11.063 30.9596 11.0871C30.9254 11.1017 30.8966 11.1209 30.8669 11.1116" stroke="#0012D4" stroke-width="0.5" stroke-linecap="round"/>
<path d="M12.91 14.575C12.5835 14.767 12.3096 14.9716 11.7269 15.5111C11.2538 15.9491 10.4048 16.7036 9.71006 17.421C9.01536 18.1384 8.49673 18.7915 7.95104 19.6033C7.40535 20.4152 6.84831 21.366 6.53733 21.9086C6.16888 22.5516 6.09045 22.781 6.00343 23.2101C5.94031 23.5214 5.8972 24.033 5.86752 24.4009C5.83783 24.7688 5.83783 24.9801 5.85224 25.1994C5.86664 25.4187 5.89545 25.6396 5.95352 25.9214C6.01158 26.2033 6.09802 26.5394 6.17616 26.8038C6.30935 27.2545 6.43882 27.5252 6.5692 27.7042C6.73004 27.925 7.03923 28.0974 7.32488 28.2766C7.5474 28.4163 7.80581 28.4283 8.07677 28.4139C8.35076 28.3993 8.77438 28.2257 9.29257 28.0079C9.69487 27.8387 9.91175 27.6818 10.3064 27.2825C10.6486 26.9362 11.2581 26.2781 11.6372 25.8648C12.0162 25.4515 12.1411 25.2979 12.3447 25.065C12.8212 24.52 13.181 24.1506 13.3212 24.0153C13.398 23.9412 13.4711 23.8415 13.674 23.6C13.8768 23.3584 14.2034 22.9742 14.4388 22.6755C14.824 22.1867 15.0049 21.9 15.1114 21.7694C15.2962 21.5426 15.4409 21.1739 15.6257 20.8866C15.6743 20.8043 15.7319 20.689 15.7712 20.6153C15.8105 20.5415 15.8297 20.5127 15.8495 20.483" stroke="#0012D4" stroke-width="0.5" stroke-linecap="round"/>
<path d="M11.5421 9.27808C11.4365 9.3357 11.3308 9.39333 10.9739 9.57188C10.6169 9.75043 10.0118 10.0482 9.08067 10.6193C8.1495 11.1905 6.91056 12.026 6.11385 12.5813C5.31714 13.1366 5.0002 13.3863 4.67366 13.6638C4.34712 13.9413 4.02058 14.2391 3.69389 14.5653C3.3672 14.8916 3.05026 15.2373 2.85338 15.4683C2.57581 15.7938 2.46237 15.9809 2.33184 16.1644C2.14533 16.4266 2.04503 16.7274 1.97721 16.9453C1.9192 17.1316 1.88001 17.4058 1.83635 17.7832C1.79075 18.1773 1.88874 18.6276 2.00981 19.025C2.13122 19.4235 2.3349 19.7152 2.57209 19.9968C2.76765 20.2289 3.06249 20.2597 3.29415 20.2695C3.67926 20.2857 3.9842 20.2309 4.11967 20.197C4.2532 20.1636 4.57413 20.0572 5.05812 19.8635C5.4962 19.6882 5.78862 19.6005 6.33708 19.2686C6.81931 18.9768 7.71149 18.4277 8.18603 18.1312C8.78342 17.7581 8.95131 17.6506 9.10148 17.5585C9.38479 17.3847 9.53338 17.3305 9.64994 17.2817C9.708 17.2624 9.7665 17.2429 9.82936 17.2283C9.86341 17.2234 9.90183 17.2234 9.97052 17.1943" stroke="#0012D4" stroke-width="0.5" stroke-linecap="round"/>
<path d="M12.0951 5.69836C11.7589 5.76559 11.4228 5.83282 11.0768 5.91548C10.7307 5.99813 10.385 6.09417 9.89951 6.27331C9.41406 6.45244 8.7994 6.71175 8.30027 6.94138C7.80114 7.17101 7.43618 7.36309 7.21936 7.48605C6.93809 7.64556 6.81832 7.74493 6.68764 7.82715C6.55903 7.90807 6.22868 8.16053 5.78747 8.47077C5.42912 8.72275 5.17949 9.23678 5.06191 9.59199C4.90465 10.0671 5.11954 10.3055 5.20685 10.4418C5.3034 10.5926 5.53572 10.6937 6.33374 10.9505C6.58229 11.0141 6.83199 11.0622 7.14311 11.0869C7.45423 11.1116 7.81919 11.1116 8.19521 11.1116" stroke="#0012D4" stroke-width="0.5" stroke-linecap="round"/>
<path d="M5.86588 24.3508C5.67489 24.4993 5.48391 24.6479 5.26528 24.8163C5.04665 24.9848 4.80616 25.1687 4.63275 25.3094C4.35456 25.5352 4.14512 25.7076 3.92059 25.8643C3.55138 26.1796 3.45107 26.2582 3.41902 26.301C3.40113 26.3225 3.37991 26.3437 3.33661 26.3656" stroke="#0012D4" stroke-width="0.5" stroke-linecap="round"/>
<path d="M5.0085 19.871C4.85288 19.9912 4.69727 20.1115 4.51808 20.2406C4.33889 20.3698 4.14083 20.5041 3.70282 20.8351C3.26481 21.166 2.59284 21.6895 2.22899 21.9697C1.83266 22.275 1.72967 22.3567 1.60846 22.4709C1.42209 22.6214 1.33635 22.686 1.28287 22.7002C1.25768 22.7074 1.23646 22.7145 1.2146 22.7432" stroke="#0012D4" stroke-width="0.5" stroke-linecap="round"/>
<path d="M0.550171 24.1578C0.691638 24.0447 0.833106 23.9315 1.05452 23.7812C1.27594 23.631 1.57302 23.4471 1.77558 23.3311C2.07716 23.1727 2.2287 23.1007 2.31787 23.0543C2.35752 23.0362 2.38582 23.0291 2.4364 23.0004" stroke="#0012D4" stroke-width="0.5" stroke-linecap="round"/>
<path d="M0.250061 25.101C0.66739 24.8746 1.08472 24.6483 1.39873 24.4857C1.71275 24.3231 1.9108 24.2312 2.13629 24.115" stroke="#0012D4" stroke-width="0.5" stroke-linecap="round"/>
<path d="M0.314392 26.2156C0.760015 25.9397 1.20564 25.6638 1.51654 25.4828C1.99014 25.224 2.24971 25.0872 2.43147 24.9838C2.52128 24.937 2.60616 24.9016 2.69362 24.8438" stroke="#0012D4" stroke-width="0.5" stroke-linecap="round"/>
<path d="M1.2146 27.0515C1.45509 26.8676 1.69559 26.6837 1.90436 26.5218C2.11313 26.3598 2.28289 26.2254 2.46937 26.1031C2.65585 25.9809 2.85391 25.8748 3.0794 25.7654" stroke="#0012D4" stroke-width="0.5" stroke-linecap="round"/>
<path d="M29.7867 20.5783C30.3505 20.7067 30.6214 20.8064 30.8992 20.9133C31.0473 20.9703 31.2194 21.0061 31.558 21.1483C31.8965 21.2904 32.3987 21.5309 32.6751 21.6689C32.9515 21.8069 32.9869 21.8352 33.1254 21.9099C33.7665 22.2558 33.873 22.2858 34.0622 22.3535C34.1444 22.3857 34.202 22.4144 34.2589 22.4429C34.2946 22.4573 34.3441 22.4714 34.3952 22.5288" stroke="#0012D4" stroke-width="0.5" stroke-linecap="round"/>
<path d="M33.795 18.1562C33.9577 18.1774 34.1204 18.1986 34.5861 18.2131C35.0519 18.2276 35.8158 18.2346 36.2518 18.2454C36.9096 18.2848 37.0667 18.2919 37.1666 18.3061C37.2099 18.3133 37.2382 18.3204 37.3102 18.3491" stroke="#0012D4" stroke-width="0.5" stroke-linecap="round"/>
<path d="M35.424 19.3565C35.6928 19.3636 35.9616 19.3707 36.3335 19.392C36.7054 19.4133 37.1722 19.4487 37.6532 19.5065" stroke="#0012D4" stroke-width="0.5" stroke-linecap="round"/>
<path d="M35.7241 20.3425C35.9788 20.392 36.2334 20.4416 36.5167 20.5024C36.7999 20.5633 37.1041 20.634 37.2891 20.6846C37.474 20.7352 37.5306 20.7635 37.5675 20.7927" stroke="#0012D4" stroke-width="0.5" stroke-linecap="round"/>
<path d="M35.4026 21.0284C35.7421 21.1204 36.0816 21.2124 36.3945 21.3092C36.7073 21.4061 36.9832 21.5051 37.143 21.5668C37.3028 21.6284 37.3381 21.6496 37.3317 21.6929" stroke="#0012D4" stroke-width="0.5" stroke-linecap="round"/>
<path d="M35.1454 21.7572C35.5344 21.9057 35.9235 22.0543 36.1451 22.1414C36.3667 22.2285 36.4092 22.2498 36.4958 22.2716" stroke="#0012D4" stroke-width="0.5" stroke-linecap="round"/>
<path d="M22.6705 27.7588C22.7766 27.9993 22.8827 28.2398 23.047 28.6537C23.2113 29.0676 23.4306 29.6476 23.685 30.1905C23.9395 30.7333 24.2224 31.2214 24.3894 31.4975C24.5897 31.8289 24.6849 31.945 24.7634 32.0875C24.9116 32.3568 24.9852 32.51 25.0351 32.5314C25.2054 32.6047 25.513 32.4605 25.7341 32.3892C25.8359 32.3564 25.9127 32.3179 26.4656 32.1087C27.0185 31.8995 28.0442 31.5176 28.6715 31.2961C29.2989 31.0745 29.497 31.025 29.79 30.9712C30.083 30.9174 30.465 30.8608 30.6936 30.8317C30.9849 30.7945 31.1009 30.7954 31.2608 30.7847C31.5404 30.766 31.7371 30.7952 31.7763 30.8344C31.8885 30.9462 31.9225 31.2368 31.9765 31.5054C32.0239 31.741 32.2076 32.0933 32.3797 32.3982C32.5138 32.6358 32.644 32.9162 32.7582 33.1196C32.8777 33.3322 33.0367 33.6087 33.1481 33.7815C33.2132 33.8824 33.2446 33.9885 33.3053 34.0887C33.3442 34.1529 33.3805 34.2104 33.4054 34.2142C33.4806 34.2259 33.4377 33.7637 33.4555 33.2178C33.4629 32.99 33.4804 32.8628 33.4983 32.631C33.5162 32.3992 33.5374 32.0667 33.566 31.8C33.5946 31.5332 33.63 31.3422 33.6517 31.1448C33.6735 30.9474 33.6806 30.7494 33.7443 30.2335C33.8081 29.7177 33.9283 28.8901 33.9903 28.3153C34.0522 27.7404 34.0522 27.4433 34.0593 27.2726C34.0679 27.0656 34.1234 26.9098 34.1663 26.6923C34.1853 26.5957 34.1808 26.5242 33.7281 26.5762C33.2754 26.6282 32.3701 26.805 31.8718 26.8961C31.2195 27.0154 31.0878 27.0086 30.9661 27.0264C30.8587 27.0371 30.7803 27.0586 30.7161 27.0693C30.6872 27.0729 30.666 27.0729 30.6442 27.0944" stroke="#0012D4" stroke-width="0.5" stroke-linecap="round"/>
<path d="M12.9393 24.415C12.911 24.7263 12.8964 25.0917 12.9035 25.4556C12.9066 25.6144 12.9247 25.7204 12.9284 26.0934C12.9322 26.4663 12.9251 27.1029 12.8401 28.0922C12.7551 29.0815 12.5925 30.4043 12.5087 31.1529C12.4248 31.9015 12.4248 32.0358 12.4142 32.1864C12.3921 32.5005 12.3605 32.7097 12.3499 32.8554C12.3305 33.1225 12.2962 33.3313 12.2892 33.4558C12.2776 33.6588 12.2534 33.8456 12.2498 33.9668C12.2384 34.3585 12.2249 34.8534 12.1858 34.8997C12.0445 35.0674 11.776 35.1387 11.3354 35.4015C11.025 35.5866 10.5553 35.9048 10.0813 36.2242C9.60728 36.5437 9.14751 36.862 8.89652 37.0331C8.56855 37.2566 8.49548 37.3396 8.3882 37.4895C8.34237 37.5536 8.65817 37.5259 8.90777 37.5045C9.11719 37.4866 9.32992 37.4047 9.58639 37.3263C9.72112 37.2851 9.87114 37.262 10.5065 37.2368C11.1418 37.2116 12.2594 37.1904 12.973 37.2078C13.6867 37.2251 13.9626 37.2817 14.2143 37.3144C14.6831 37.3753 14.9466 37.3544 15.0391 37.3224C15.3457 37.2166 15.5466 37.1257 15.6859 37.1043C15.768 37.0918 15.8398 37.0828 15.8897 37.0616C16.029 37.0024 15.9259 36.7197 15.9257 36.4764C15.9257 36.4115 15.947 36.3412 15.9401 36.0041C15.9332 35.6671 15.9049 35.0658 15.8974 34.5757C15.8899 34.0856 15.9041 33.7249 15.9149 33.5143C15.9324 33.1744 15.9825 32.8911 16.0115 32.6786C16.0412 32.46 16.0614 32.2463 16.1399 31.7369C16.1625 31.5902 16.1969 31.3688 16.2753 30.977C16.3168 30.7701 16.3396 30.5427 16.4002 30.2387C16.4607 29.9346 16.5527 29.5597 16.6001 29.356C16.6686 29.0612 16.6903 28.7894 16.6725 28.6379C16.6689 28.5952 16.6759 28.5521 16.6902 28.5093C16.6974 28.4878 16.7044 28.4666 16.7117 28.4233" stroke="#0012D4" stroke-width="0.5" stroke-linecap="round"/>
</svg>
