<svg width="25" height="41" viewBox="0 0 25 41" fill="none" xmlns="http://www.w3.org/2000/svg">
<path d="M9.87191 32.9682C7.20306 33.8238 5.76081 34.8081 4.91109 35.6365C4.17198 36.3571 3.80616 37.6787 3.77154 38.7836C3.75425 39.3352 3.93673 39.6937 3.96938 39.8911C3.98645 39.9943 4.06731 40.0884 4.23151 40.1552C4.39572 40.2219 4.65687 40.2546 6.71737 40.2388C8.77786 40.2229 12.6298 40.1576 14.7121 40.1077C16.7943 40.0577 16.9902 40.0251 17.9561 40.0083C18.9221 39.9915 20.6522 39.9915 21.5434 39.2733C23.359 37.8104 22.3694 35.5411 22.2542 35.3437C22.0194 34.9416 21.8748 34.4539 21.4643 34.0414C20.7305 33.3041 19.8648 33.3322 18.3686 33.2486C17.2934 33.1885 15.9772 33.1007 14.8713 33.0508C13.4726 32.9876 11.6228 32.9029 10.1578 32.8856C9.84026 32.9019 9.70969 32.9345 9.57713 32.984C9.44458 33.0334 9.31401 33.0987 9.08056 33.3638" stroke="#0012D4" stroke-linecap="round"/>
<path d="M13.532 32.6714C13.433 32.5418 13.3678 31.6209 13.3178 30.4996C13.3045 30.2013 13.2688 29.9076 13.2847 28.3363C13.3005 26.7649 13.3658 23.925 13.3831 22.3803C13.4004 20.8357 13.3678 20.6725 13.3509 19.9192C13.3043 17.828 13.2362 16.416 13.0225 16.3339C12.4783 16.1247 11.7237 15.1043 10.7365 13.4607C9.66112 11.6704 9.41098 10.0238 9.31206 9.1513C9.23941 8.51056 9.24578 7.97712 9.19632 6.99386C9.101 5.0989 9.27743 3.33086 9.50742 2.26154C9.7209 1.26896 10.0361 0.721364 10.233 0.605628C10.8708 0.230618 11.7475 0.949868 12.4251 1.31241C13.0027 1.62148 13.4964 2.06964 14.0078 2.77741C15.0151 4.17155 15.0148 5.55952 15.0489 7.43207C15.094 9.9091 14.4559 11.5006 14.3406 11.9117C13.999 13.1299 13.4687 14.86 13.3015 15.4579C13.2036 15.6553 13.1036 15.8541 13.0542 16.0514C13.0374 16.1509 13.0374 16.2488 13.0374 16.3497" stroke="#0012D4" stroke-linecap="round"/>
<path d="M13.6309 32.5725C13.6309 32.3776 13.7614 30.9324 14.944 28.4114C15.5625 27.0931 16.8556 26.1803 17.9754 25.4226C19.2017 24.5928 20.941 24.56 21.9376 24.3468C22.8578 24.15 23.3903 23.275 23.4239 23.1756C23.5804 22.7129 22.7987 23.9645 22.4031 25.0665C22.08 25.9663 21.7779 26.7995 21.1839 27.5414C20.7534 28.0791 19.2475 29.2666 17.6099 30.5239C15.811 31.6802 14.624 32.2085 14.1269 32.4889C14.0275 32.5715 13.9296 32.6694 13.8287 32.8693" stroke="#0012D4" stroke-linecap="round"/>
<path d="M12.7406 27.2309C12.5764 26.6057 11.9216 25.6877 9.30612 23.9729C8.07284 23.1644 7.20309 22.9447 6.66151 22.9278C4.6985 22.8669 3.21465 23.9645 2.16116 24.6886C1.37279 25.2305 0.707037 25.5156 0.508703 25.6472C0.387213 25.7277 1.55379 26.2051 3.00346 26.7818C3.7891 27.0943 4.65591 27.4257 5.85679 27.9035C6.90747 28.3215 8.31396 28.2201 9.63206 28.2037C10.6718 28.1909 11.3201 27.7927 11.832 27.6107C11.9483 27.5612 12.0462 27.496 12.1946 27.4134C12.343 27.3308 12.5388 27.2328 12.7406 27.033" stroke="#0012D4" stroke-linecap="round"/>
<path d="M13.5319 22.186C13.5319 21.5974 13.8584 19.2975 14.4855 17.6574C14.8264 16.7659 15.8338 15.7948 17.1652 14.7091C18.5678 13.5655 19.6956 13.119 20.1234 12.9548C21.0116 12.6139 22.4901 11.2474 23.5703 10.2177C24.6405 9.19741 23.5881 13.0814 23.6054 14.12C23.6203 15.0138 22.769 16.1123 22.2878 16.875C21.8417 17.5819 21.3822 17.9957 19.1313 19.5908C17.2508 20.9234 16.5688 20.9317 16.089 21.1958C15.5333 21.5017 14.9188 21.723 14.3258 21.9708C13.9968 22.0534 13.6981 22.087 13.4676 22.136C13.3677 22.185 13.3024 22.2829 13.2352 22.3838" stroke="#0012D4" stroke-linecap="round"/>
<path d="M13.0373 22.1859C13.0047 21.726 12.8078 21.0681 12.151 20.1141C11.3121 18.8955 10.3705 17.8364 9.6627 17.326C8.69176 16.6258 7.27626 15.8274 5.83896 15.3456C4.55335 14.9147 3.64096 14.6027 3.54155 14.8139C3.15744 15.6299 4.13061 17.1331 4.78942 18.4018C5.32218 19.4277 5.97843 19.9405 6.63724 20.6002C8.3159 21.7873 9.96687 22.4491 10.9031 22.548C11.4477 22.5816 12.1332 22.5816 13.0373 22.4827" stroke="#0012D4" stroke-linecap="round"/>
</svg>
