<svg width="16" height="37" viewBox="0 0 16 37" fill="none" xmlns="http://www.w3.org/2000/svg">
<path d="M7.90287 36.1564C7.42105 35.5678 7.09911 35.0317 6.83191 34.4088C6.6581 34.0036 6.45847 33.3963 6.26933 32.6081C6.0802 31.8199 5.92084 30.8638 5.80333 30.2473C5.68583 29.6308 5.615 29.3829 5.48113 28.5204C5.34726 27.6579 5.15249 26.1882 5.06986 24.6698C4.98723 23.1513 5.02264 21.6286 5.3419 19.7464C5.66115 17.8641 6.26316 15.6685 6.68838 14.2896C7.1136 12.9106 7.34378 12.4149 7.55089 11.8584C7.97665 10.7147 8.17062 9.95582 8.29536 9.63523C8.61757 8.7754 8.8676 8.27587 9.13481 7.73207C9.29577 7.43616 9.50825 7.09974 9.72716 6.64581" stroke="#0012D4" stroke-linecap="round"/>
<path d="M10.2638 0.582761C9.56677 1.61939 9.38809 2.01107 9.23598 2.52965C9.07867 3.06594 9.08333 3.58586 9.07448 3.88043C9.0506 4.6749 9.1005 5.82062 9.35912 6.30405C9.56388 6.68681 9.92304 6.82451 10.1634 6.85134C10.9554 6.93973 11.5322 6.62867 11.9078 6.48541C12.2075 6.37107 12.4443 6.19942 13.1311 5.57595C14.0682 4.72523 14.1624 4.14334 14.3139 3.70605C14.6109 2.84931 14.6099 2.33837 14.4585 1.72053C14.3692 1.35591 13.8962 1.08498 13.5024 0.86955C13.2042 0.706413 12.5398 0.583834 12.0446 0.520253C11.6609 0.471 11.1598 0.510863 10.8639 0.644733C10.5974 0.765292 10.4258 1.04635 10.3265 1.27948C10.2348 1.4949 10.2638 1.79752 10.4151 2.38693C10.5 2.71766 10.9226 3.1196 11.3532 3.41685C11.766 3.70181 12.5484 3.58747 13.2486 3.37392C13.5961 3.26795 13.5185 2.71289 13.4745 2.45266C13.3957 1.98679 12.733 1.67412 12.3936 1.61134C12.2874 1.5917 12.1621 1.60222 12.0717 1.62878C11.7733 1.71643 11.7307 2.06634 11.7036 2.24474C11.69 2.33398 11.765 2.42315 11.8278 2.46875C11.8906 2.51436 11.9614 2.51436 12.0245 2.50551C12.0875 2.49665 12.1406 2.47895 12.1954 2.46071" stroke="#0012D4" stroke-linecap="round"/>
<path d="M7.90289 18.3964C7.47418 18.6282 7.26009 18.8782 7.05406 19.0486C6.82909 19.2346 6.61623 19.5929 6.40134 19.9065C6.18645 20.2202 5.90154 20.6467 5.48088 21.7901C5.321 22.2247 5.32742 22.6507 5.34513 23.0349C5.36257 23.4133 5.66652 23.5999 5.92541 23.7169C6.25755 23.8669 6.5776 24.0474 7.22066 24.0662C7.51167 24.0747 7.72314 23.9412 8.01664 23.799C8.5527 23.5393 9.24052 23.0848 9.83932 22.6915C10.2721 22.4073 10.6018 22.1362 10.9422 21.8314C11.22 21.5828 11.2649 21.0996 11.2743 20.607C11.2854 20.0287 10.855 19.4352 10.5956 19.1309C10.3115 18.7978 10.1575 18.5048 9.86266 18.2008C9.68493 18.0176 9.30008 18.0208 8.93388 18.0385C8.44358 18.0622 7.97693 18.6443 7.70678 19.0923C7.41843 19.5705 7.67002 20.2904 8.01771 21.0762C8.11728 21.3013 8.2597 21.3829 8.45581 21.4542C8.68348 21.5371 8.9921 21.5621 9.3312 21.5178C9.65987 21.4749 9.85166 21.223 9.98553 21.0271C10.1682 20.7599 10.1564 20.4718 10.1476 20.3114C10.1252 19.9062 9.83556 19.5961 9.46936 19.2294C9.30634 19.0661 9.08438 19.0403 8.89686 19.0668C8.74215 19.0887 8.6546 19.2366 8.54756 19.3346C8.41097 19.4595 8.38579 19.6476 8.40349 19.7815C8.45661 19.8977 8.58163 20.0409 8.77774 20.1751C8.88532 20.2207 9.00927 20.2207 9.13697 20.2207" stroke="#0012D4" stroke-linecap="round"/>
<path d="M5.38104 20.006C5.79204 18.6121 5.89935 18.2193 6.46971 16.9616C6.72932 16.3892 7.20211 15.7898 7.52646 15.3836C7.75906 15.1239 8.22157 14.6973 8.60789 14.2665C8.72378 14.1415 8.90085 13.9644 9.08328 13.782" stroke="#0012D4" stroke-linecap="round"/>
<path d="M11.7124 9.86517C10.6581 10.5262 10.3367 10.8471 9.65849 11.5878C9.04791 12.2546 9.13696 12.6005 8.94997 13.3941C8.86856 13.7396 8.86868 13.9602 8.91295 14.1383C9.05414 14.7065 9.63596 14.8723 10.1189 14.9979C10.4334 15.0796 10.7273 15.0698 11.1912 14.9455C11.7742 14.7894 12.3182 14.3561 12.7378 14.017C13.4332 13.455 13.6966 12.6402 13.7959 12.0412C13.9905 10.8665 13.6623 10.3491 13.3859 10.0095C13.1133 9.67444 12.5366 9.7042 12.2323 9.7753C12.023 9.82423 11.8562 9.97194 11.7135 10.0967C11.3623 10.4036 11.3905 11.4147 11.4527 12.2059C11.4743 12.4802 11.6223 12.6901 11.8004 12.8597C12.0117 13.0607 12.2662 13.0845 12.4089 13.0668C12.7348 13.0264 12.9808 12.5855 13.232 11.8802C13.3495 11.5501 13.1976 11.1373 13.046 10.7709C12.9855 10.6245 12.8768 10.5992 12.7869 10.6075C12.697 10.6158 12.6085 10.6689 12.554 10.7229C12.4818 10.8299 12.4636 11.0086 12.499 11.2229C12.5344 11.3133 12.6053 11.3665 12.6782 11.4212" stroke="#0012D4" stroke-linecap="round"/>
<path d="M5.22008 20.006C5.22008 19.9352 5.22008 19.6154 5.17582 18.832C5.10724 17.6184 4.91639 16.8055 4.84503 16.5385C4.63356 15.7475 4.59446 15.3756 4.4783 15.0174C4.36213 14.6238 4.21887 14.2483 4.16522 14.0162C4.14697 13.9081 4.14697 13.8195 4.14697 13.7283" stroke="#0012D4" stroke-linecap="round"/>
<path d="M3.18122 9.1676C3.7709 10.2928 4.0204 10.8288 4.28036 11.4724C4.44744 11.886 4.57519 12.7207 4.59451 13.4668C4.61152 14.1237 4.00537 14.3894 3.71 14.5772C3.38516 14.7837 2.80885 14.6233 2.37773 14.4355C2.05052 14.293 1.84091 14.105 1.62602 13.8101C1.34765 13.4282 1.01998 12.6788 0.76726 12.2179C0.594068 11.9021 0.552101 11.4941 0.507567 11.2521C0.450392 10.9414 0.730238 10.6174 0.908911 10.2692C1.20177 9.69839 1.89027 9.4552 2.71335 9.29289C2.87423 9.26116 2.94728 9.39832 2.99262 9.47934C3.20133 9.8523 3.0385 10.436 2.77129 10.9715C2.56407 11.3868 2.28786 11.6352 2.1006 11.7334C1.90558 11.8357 1.73306 11.8504 1.62602 11.8327C1.57002 11.8234 1.51897 11.7796 1.49161 11.6905C1.42338 11.4684 1.48195 11.2607 1.51763 11.1537C1.53561 11.0997 1.55331 11.0466 1.63326 10.9927C1.71321 10.9388 1.85486 10.8857 2.05446 10.8309" stroke="#0012D4" stroke-linecap="round"/>
</svg>
