<svg width="38" height="45" viewBox="0 0 38 45" fill="none" xmlns="http://www.w3.org/2000/svg">
<path d="M8.82489 7.02148C10.542 8.9446 11.6669 10.2787 12.22 11.1768C12.9966 12.4378 13.7118 13.8835 14.4907 15.1979C14.8919 15.8748 15.1666 16.6496 15.4804 17.7084C15.7941 18.7673 16.1032 20.1066 16.2967 21.0713C16.599 22.5779 16.6984 23.4262 16.854 24.8899C16.98 26.0754 17.0439 28.1737 16.9596 30.2144C16.8753 32.2551 16.6006 34.1782 16.4591 35.4265C16.2598 37.1843 16.2832 37.9266 16.1797 38.4449C15.7296 40.0058 15.3466 40.9799 15.1401 41.5658C14.9678 42.0143 14.6588 42.7698 14.2363 43.6523" stroke="#0012D4" stroke-linecap="round"/>
<path d="M16.4216 35.4311C16.4903 34.7443 16.6287 34.0471 17.0938 32.9944C17.4157 32.2661 18.0741 31.2207 19.1996 29.6763C20.325 28.132 21.9391 26.1402 23.2685 24.599C24.5979 23.0578 25.5938 22.0276 26.2442 21.3938C27.6928 20.1013 28.799 19.1325 29.7871 18.3525C30.1571 18.0533 30.2601 17.9503 30.3662 17.8442" stroke="#0012D4" stroke-linecap="round"/>
<path d="M22.1452 25.3369C22.0078 25.3025 21.8704 25.2682 21.7653 25.199C20.8374 24.5881 20.7236 22.3919 20.7398 21.473C20.7604 20.298 21.2773 19.5113 21.6233 18.8183C22.0458 17.9719 22.4907 16.8077 22.8721 16.2505C23.2646 15.6769 24.1162 14.9367 24.7281 14.5834C25.1779 14.3236 25.059 15.7941 25.2489 16.3852C25.3376 16.6615 25.4055 16.9409 25.5091 16.9774C25.9586 17.1355 25.8905 16.0075 26.1152 15.6958C26.7041 14.8792 28.2475 14.8617 29.0275 14.7062C30.1418 14.4839 30.743 13.7857 31.6463 13.5443C32.6228 13.2833 32.9658 12.7471 33.3654 12.4167C33.7444 12.1033 34.1792 11.8438 35.5123 11.6014C35.9624 11.5195 36.2272 11.3579 36.3323 11.4089C37.0508 11.7574 35.4675 12.5681 35.2578 13.0557C35.0616 13.5119 35.0159 14.0958 34.8416 14.5126C34.6427 14.9881 34.4602 15.5527 34.442 16.1422C34.4183 16.9081 34.2541 18.2209 34.0091 18.9863C33.7962 19.6513 34.0085 20.373 34.0091 20.9292C34.0099 21.8733 32.8326 22.2462 32.3107 22.6817C31.6971 23.1938 31.3049 23.5657 30.8018 23.9653C30.3903 24.2921 30.0208 24.5033 29.8642 24.6766C29.595 24.9744 30.9178 24.9893 31.4397 25.1111C32.0541 25.2544 32.5496 25.4056 33.0527 25.7693C33.1609 25.8475 33.278 25.7885 33.3826 25.7193C33.4872 25.6501 33.5902 25.5471 33.5918 25.5284C33.6272 25.1032 32.7286 26.3755 32.2067 26.7751C31.6823 27.1765 31.0635 27.3474 29.9719 27.5909C28.8678 27.8372 27.9416 27.7304 26.9025 27.9031C25.1545 28.1937 24.1599 27.4203 23.3794 26.9171C23.2212 26.7948 23.1525 26.6918 23.0656 26.6044C22.9787 26.517 22.8757 26.4483 22.5614 26.1694" stroke="#0012D4" stroke-linecap="round"/>
<path d="M15.2769 17.8442C13.9948 18.3978 13.1665 19.0888 11.312 19.2839C10.3393 19.3863 9.45552 18.2667 8.63653 17.8275C8.05392 17.5151 7.47413 17.2906 6.97097 16.84C6.75901 16.6501 6.5365 16.5267 6.53494 16.3883C6.52376 15.3967 8.19842 16.0418 8.70157 15.574C9.11753 15.1873 9.65428 15.1385 10.0539 15.1041C10.4683 15.0685 8.86443 14.6889 8.30612 14.4282C7.89073 14.2343 7.26808 13.5484 6.79667 12.7648C6.51515 12.2968 6.57085 11.6731 6.00057 10.927C5.32983 10.0494 5.32207 9.52108 5.32103 7.5324C5.32053 6.58414 5.59888 5.84551 5.44382 5.16857C5.31448 4.60387 5.00987 4.21273 4.90581 3.9021C4.453 2.55048 5.39075 0.988809 5.42509 0.5892C5.46159 0.16448 6.22119 1.36448 6.72434 1.93736C7.24925 2.53501 7.67809 2.99622 8.47471 3.27407C9.19174 3.52416 9.75939 3.55192 10.2797 3.82874C10.8887 4.15271 11.6284 4.69455 12.6201 4.97397C13.3852 5.18952 13.9907 5.94333 14.4251 6.46418C15.0944 7.2665 15.3799 7.57507 15.5875 7.80037C15.6801 7.90085 15.7951 7.92264 15.8654 7.88882C16.2294 7.71354 16.2135 6.50944 16.1271 5.75706C16.1131 5.63482 16.1094 5.49793 16.1438 5.49585C16.6373 5.46594 16.6963 6.56772 17.1313 6.93351C17.7643 7.46578 17.9118 8.85714 18.1033 9.48205C18.3742 10.3662 18.711 13.1092 18.5039 14.5979C18.399 15.352 17.6725 15.6921 17.2557 15.9871C16.8389 16.3519 16.458 16.663 16.1635 16.9747C16.0407 17.1147 15.9721 17.2177 15.6932 17.532" stroke="#0012D4" stroke-linecap="round"/>
<path d="M16.1266 38.7961C16.0975 38.7961 16.0684 38.7961 16.0825 38.7524C16.1285 38.6101 16.4476 38.2987 17.1932 37.6694C18.4226 36.632 19.5052 36.063 19.8866 35.8871C20.6271 35.5455 21.5027 35.1238 22.1213 34.8138C22.7041 34.5218 23.2383 34.3583 23.797 34.196C24.4798 33.9977 25.1785 33.8574 25.6781 33.7842C26.6105 33.6476 27.0305 34.032 27.4282 34.2388C27.6622 34.3605 27.8842 34.5038 27.9878 34.577C28.3901 34.8612 27.2104 35.1203 27.1504 35.3258C26.959 35.9816 28.1187 36.3796 28.5597 36.9282C28.8693 37.3134 29.3534 37.3833 29.6043 37.7365C29.8337 38.0594 29.8826 38.6461 30.4845 39.4399C31.2009 40.3846 32.9657 40.7363 33.4556 40.8531C33.9187 40.9636 32.5918 41.2354 31.9886 41.2945C31.0676 41.3847 29.103 42.2302 28.0495 42.7779C27.603 43.01 27.1231 43.1465 26.407 43.1906C25.0821 43.2722 23.7163 43.0892 22.8789 42.8837C22.1969 42.7164 21.8025 42.0027 21.4193 41.2531C21.3565 41.1302 21.2434 41.2054 21.1693 41.2791C21.0216 41.426 20.8897 41.6173 20.7138 41.7641C20.6318 41.8325 20.5379 41.8528 20.4929 41.6786C20.1979 40.5364 20.1551 39.8561 19.9928 39.5029C19.8022 39.088 19.3914 38.5932 18.9945 38.2533C18.4204 37.9441 18.0685 37.7678 17.7153 37.7232C17.6267 37.7087 17.5394 37.6796 17.4494 37.6496" stroke="#0012D4" stroke-linecap="round"/>
<path d="M17.4494 37.7378C19.4161 37.2968 20.298 37.3551 21.0176 37.5605C22.531 37.8251 23.4455 38.0606 23.6214 38.1633C23.7101 38.2079 23.7974 38.237 23.8873 38.2669" stroke="#0012D4" stroke-linecap="round"/>
<path d="M16.2147 38.1788C15.481 36.1548 15.1282 35.0356 14.7904 34.0964C14.4042 33.0223 13.4826 32.2418 13.1294 31.8453C12.8052 31.4189 12.5125 30.8907 11.9397 30.5366C11.806 30.4771 11.7187 30.448 11.6288 30.418" stroke="#0012D4" stroke-linecap="round"/>
<path d="M14.0099 33.0637C14.1846 31.8996 14.2745 30.6014 14.26 29.4412C14.2516 28.7745 14.0699 28.2458 13.8644 27.7026C13.7335 27.3564 13.2788 26.4573 12.5892 25.1067C11.8911 23.7394 11.6588 23.5399 11.5269 23.3786C11.4608 23.2977 11.366 23.2463 11.321 23.3618C11.1726 23.743 11.3633 24.2719 11.3647 24.5224C11.3665 24.8772 10.2812 24.2455 9.16827 24.0113C6.75325 23.5033 6.25268 23.0417 5.42986 22.7753C4.28037 22.4033 3.81156 22.9499 3.35517 23.0831C2.94366 23.2032 1.70204 23.1863 0.915375 23.0986C0.780665 23.0835 0.608471 23.0399 0.562171 23.0831C0.250087 23.3744 1.19053 23.8019 1.66103 24.286C2.56009 25.2112 2.98257 26.0613 3.26478 26.6976C3.49143 27.2086 3.60343 28.2079 3.53023 28.887C3.42607 29.8533 3.89622 30.739 4.14624 31.444C4.38368 32.1136 4.95451 32.4446 5.35093 32.6955C5.72828 32.9343 6.27649 32.8873 6.57061 32.9309C6.66991 32.9457 6.6319 33.0619 6.5587 33.1214C6.20892 33.4059 5.34344 33.3282 4.50562 33.3864C4.21558 33.4066 4.22077 33.5611 4.33718 33.7083C4.87993 34.395 5.3937 34.5911 5.80688 34.8412C6.28788 35.1322 6.86473 35.2684 7.5535 35.3416C8.9155 35.4864 9.6251 35.2684 10.2451 35.1952C10.9783 35.1087 12.2091 34.771 13.6673 34.0219C13.9209 33.8583 14.0082 33.771 14.0677 33.6823C14.1272 33.5937 14.1563 33.5064 14.3627 33.3282" stroke="#0012D4" stroke-linecap="round"/>
</svg>
