<svg width="17" height="42" viewBox="0 0 17 42" fill="none" xmlns="http://www.w3.org/2000/svg">
<path d="M11.008 6.99103C10.463 8.23678 9.98758 9.46248 9.53694 11.0285C8.86984 13.3468 8.57077 15.3999 8.41387 16.4993C8.22669 17.811 8.09889 18.6653 7.90306 21.2222C7.74323 23.3093 7.62937 27.0104 7.58809 29.1686C7.53712 31.8327 7.70488 32.6658 7.72434 33.2545C7.74133 33.7684 7.82284 34.9403 7.84231 36.4532C7.94081 38.05 8.01867 39.7039 8.17557 40.3521C8.25461 40.6111 8.33247 40.7279 8.41269 40.8482" stroke="#0012D4" stroke-linecap="round"/>
<path d="M8.05875 36.7193C8.37019 35.8628 9.07565 34.5262 10.1545 32.936C11.8604 30.4214 13.877 29.9561 14.1129 29.975C14.3403 29.9932 13.6092 31.3222 12.2767 33.2834C9.96431 36.6871 9.04497 36.875 8.33716 36.9959C7.46204 37.1454 7.23533 35.5419 6.47266 34.8961C5.19437 33.8135 3.69979 33.0646 2.50358 32.6133C1.89561 32.384 1.26845 32.201 0.9865 32.2176C0.704554 32.2341 0.782414 32.4677 1.03664 32.8216C1.29086 33.1755 1.71909 33.6426 2.95187 34.5062C4.18464 35.3697 6.209 36.6155 7.31024 37.2767C8.41148 37.9379 8.52827 37.9768 8.53063 38.0169" stroke="#0012D4" stroke-linecap="round"/>
<path d="M7.94081 29.2872C8.17439 28.5865 9.34582 27.0576 11.464 24.8598C13.4322 22.8176 15.2101 21.7797 15.8217 21.7165C16.9413 21.601 14.8243 23.8972 14.2958 24.5631C12.7993 26.4488 11.3666 27.395 10.5391 28.0662C9.72002 28.7306 8.57313 29.0112 8.06055 29.286C7.93497 29.3534 7.8252 29.4429 7.62878 29.3079C7.07265 28.9254 5.5944 27.3325 3.51166 25.5441C2.05824 24.296 1.25904 23.7851 0.668011 23.4283C0.561167 23.3638 0.471002 23.6601 0.508753 23.9355C0.597692 24.5845 1.79698 26.0124 3.42672 27.8002C5.30302 29.3627 6.2857 30.1897 6.91389 30.5041C7.19171 30.6238 7.38636 30.6627 7.70487 30.7029" stroke="#0012D4" stroke-linecap="round"/>
<path d="M7.82282 20.4395C7.19995 19.2716 6.45084 18.125 5.25699 16.7931C3.53188 14.8685 2.12255 13.8734 1.86715 13.8527C1.75259 13.8435 1.72854 14.1046 1.70848 14.2827C1.67106 14.6151 2.66167 16.1785 4.48665 18.6134C6.50852 21.3109 7.11383 21.3432 7.29078 21.3833C7.48838 21.4281 8.63563 19.8615 10.8741 17.8778C13.4656 15.5813 15.2915 15.1309 15.6849 15.2088C15.9277 15.2568 15.4153 16.1089 14.7099 17.1287C13.9505 18.2265 12.6666 19.1761 11.3713 20.0402C9.63365 20.8324 8.92701 21.0671 8.27759 21.2842C8.10005 21.3432 7.9054 21.421 7.70485 21.5012" stroke="#0012D4" stroke-linecap="round"/>
<path d="M8.2947 14.0692C7.6671 14.0303 6.80592 13.5619 5.60559 12.266C4.92569 11.532 4.17167 9.63946 3.2869 7.51661C2.97235 6.76188 2.98608 6.63951 3.02501 6.67667C3.21277 6.85589 3.53346 7.49832 4.25838 8.36068C5.14116 9.41081 6.43904 10.9914 7.59868 12.7202C8.19625 13.6111 8.21566 14.068 8.44982 14.0698C9.16693 14.0752 10.3297 12.5038 11.9795 11.2857C12.9672 10.5565 13.7567 10.2954 14.4049 10.1573C14.659 10.1032 14.7806 10.214 14.8019 10.3319C14.931 11.0494 13.8817 11.7853 12.2148 12.8069C10.5385 13.4782 9.67493 13.7932 9.12225 13.8527C9.00369 13.8722 8.8869 13.9111 8.6486 14.1872" stroke="#0012D4" stroke-linecap="round"/>
<path d="M9.47438 9.94026C8.21801 8.37363 7.82281 6.83649 7.88121 6.48199C7.98225 5.86858 9.03789 8.39722 9.37528 9.70019C9.44619 9.97402 9.51213 10.2493 9.59117 10.3313C9.87997 10.6309 10.8428 9.27727 11.9677 8.66383C12.4575 8.39672 12.9722 8.40666 13.2282 8.46505C13.8887 8.61573 11.9163 9.89779 11.1094 10.2541C10.6588 10.2942 10.3013 10.2552 10.0855 10.1379C9.98637 10.0594 9.90851 9.94262 9.82829 9.82229" stroke="#0012D4" stroke-linecap="round"/>
<path d="M11.126 6.99107C12.4201 2.35724 13.2872 0.936887 13.5426 0.778809C13.7213 1.44298 13.4877 2.85507 12.7227 4.33027C12.3894 4.82161 11.8833 5.48342 11.126 6.40122" stroke="#0012D4" stroke-linecap="round"/>
</svg>
