<svg width="8" height="41" viewBox="0 0 8 41" fill="none" xmlns="http://www.w3.org/2000/svg">
<path d="M2.95374 39.5171C3.08051 39.2635 3.3043 38.7843 3.73458 37.5746C4.03717 36.7239 4.38672 35.3507 4.5985 34.5059C4.87959 33.3847 4.84293 31.9094 4.76322 29.9582C4.73138 29.179 4.6518 28.8312 4.53991 27.6373C4.42802 26.4435 4.26955 24.415 4.15621 23.2274C4.01529 21.7507 3.91418 21.0804 3.89833 20.3615C3.88455 19.736 3.78644 18.588 3.80181 16.9269C3.84887 16.1216 3.97565 15.3926 4.04096 14.8903C4.10627 14.388 4.10627 14.1344 4.10627 13.8732" stroke="#0012D4" stroke-linecap="round"/>
<path d="M4.20233 14.0653C3.88539 12.9243 3.69042 11.1955 3.67409 9.27649C3.66421 8.11556 3.94493 7.40938 4.20041 6.7073C4.497 5.89224 4.61821 5.1994 4.84055 4.22935C5.30678 2.19523 5.73905 0.74869 5.75489 0.603663C5.81273 0.0744143 5.96187 1.70433 6.29755 2.90201C6.86424 4.92394 7.11441 5.8016 7.25943 6.61846C7.43617 7.61394 7.3718 8.77514 7.2287 10.0107C7.06415 11.4315 6.41328 12.0138 5.63004 12.8138C5.18922 13.2641 4.68448 13.5197 4.26812 13.6969C3.67959 13.9474 3.21307 12.7879 2.36452 11.3501C1.49672 9.8797 1.25761 8.49565 1.11402 8.31989C1.04205 8.23179 0.938739 8.17582 0.842214 8.20655C0.267873 8.38943 0.456595 10.308 1.1097 12.1386C1.5297 13.3159 2.43895 13.5197 2.90381 13.7603C3.04788 13.8088 3.23805 13.8405 3.3994 13.8727C3.56076 13.9049 3.68753 13.9366 3.81816 13.9692" stroke="#0012D4" stroke-linecap="round"/>
<path d="M2.95372 39.7092C2.92203 39.2338 2.89033 38.7584 2.84231 38.3233C2.79429 37.8882 2.7309 37.5079 2.63485 37.2485C2.53881 36.9892 2.41203 36.8624 2.18536 36.7318" stroke="#0012D4" stroke-linecap="round"/>
</svg>
