<svg width="24" height="52" viewBox="0 0 24 52" fill="none" xmlns="http://www.w3.org/2000/svg">
<path d="M18.3781 8.41071C18.1405 9.77655 17.903 11.1424 17.3352 15.2606C16.7675 19.3789 15.8767 26.2081 15.4178 31.4632C14.9589 36.7183 14.9589 40.1923 14.9738 42.0859C14.9936 44.6103 15.1677 45.3876 15.2437 46.138C15.3188 47.5731 15.3485 49.1693 15.3935 49.3785C15.4088 49.4987 15.4088 49.6471 15.4088 49.6201" stroke="#0012D4" stroke-linecap="round"/>
<path d="M18.5581 29.4653C18.2018 30.2076 17.8454 30.95 17.365 32.5349C16.8845 34.1198 16.2906 36.5249 15.8956 38.9071C15.5006 41.2892 15.3225 43.5755 15.201 44.9315C15.0796 46.2874 15.0202 46.6437 14.9896 47.2133C14.959 47.7828 14.959 48.5548 14.959 49.3502" stroke="#0012D4" stroke-linecap="round"/>
<path d="M18.738 29.2853L18.648 29.3753" stroke="#0012D4" stroke-linecap="round"/>
<path d="M18.738 29.2853C18.6786 29.3744 18.6192 29.4635 18.5589 29.4055C17.9216 28.7919 18.4968 27.34 19.0052 26.1267C19.8398 24.1347 21.3131 23.2893 21.9897 23.1066C22.1593 23.0609 22.3334 23.3433 22.4401 23.5241C22.6351 23.8549 22.607 24.3042 22.5624 24.7829C22.4265 26.2438 20.901 27.8115 20.1205 28.4733C19.519 29.0145 19.07 29.3141 18.7105 29.4941C18.5589 29.5553 18.4698 29.5553 18.3781 29.5553" stroke="#0012D4" stroke-linecap="round"/>
<path d="M18.2881 8.32075C18.0506 7.60813 17.8392 6.46902 17.719 4.95786C17.6063 3.54025 18.0155 2.44616 18.554 1.75738C19.0111 1.17275 19.5163 1.00293 19.8006 0.95794C19.9357 0.936572 20.0553 0.942644 20.161 0.987182C20.2667 1.03172 20.3558 1.1208 20.4165 1.24092C20.7189 1.83892 20.4188 3.33243 19.7165 5.49233C19.4317 6.15321 19.0457 6.9549 18.8172 7.47182C18.5887 7.98873 18.5293 8.19658 18.3781 8.59068" stroke="#0012D4" stroke-linecap="round"/>
<path d="M11.4498 7.60095C11.3608 9.29342 11.2717 10.9859 11.1664 12.3328C11.0611 13.6798 10.9424 14.6299 10.8218 16.2032C10.7012 17.7764 10.5825 19.944 10.4619 21.5802C10.3413 23.2164 10.2226 24.2557 10.0871 26.8992C9.95173 29.5427 9.80326 33.759 9.75648 36.1983C9.70969 38.6376 9.76907 39.172 9.79966 40.2194C9.83026 41.2667 9.83026 42.8107 9.8451 43.7397C9.86423 44.9366 9.92023 45.9239 9.93508 47.0779C9.94849 48.1202 10.0696 49.0767 10.115 49.8276C10.1299 49.9792 10.1596 50.0682 10.16 50.0547C10.1605 50.0413 10.1308 49.9225 10.1002 49.8001" stroke="#0012D4" stroke-linecap="round"/>
<path d="M11.3599 7.42098C10.6104 5.65383 10.6095 3.92447 10.8637 2.4466C10.9784 1.77962 11.4184 1.27465 11.6879 0.915196C11.8795 0.659569 12.1382 0.553039 12.4374 0.508051C12.7336 0.463505 13.0677 0.611524 13.3673 0.865709C13.9565 1.36555 13.55 2.61801 13.0569 4.30957C12.2921 5.97775 11.7504 6.81993 11.6307 7.04442C11.5705 7.15014 11.5111 7.23922 11.4499 7.331" stroke="#0012D4" stroke-linecap="round"/>
<path d="M1.28247 11.29C1.31216 12.9231 1.34186 14.5561 1.57984 18.9457C1.81783 23.3352 2.26322 30.4317 2.7302 35.1267C3.19718 39.8216 3.67226 41.9001 3.96153 43.0896C4.3104 44.5241 4.49105 44.9989 4.68495 45.5815C5.17116 47.0424 5.74892 47.8746 6.12503 48.5535C6.38056 49.0794 6.6199 49.5572 6.75576 49.9198C6.77106 49.8919 6.77106 49.7137 6.77106 49.5302" stroke="#0012D4" stroke-linecap="round"/>
<path d="M1.19253 11.6499C0.292766 8.35311 0.411535 7.39576 0.756147 6.70339C0.92269 6.36878 1.3104 6.19187 1.68471 6.10189C1.84927 6.06234 1.96993 6.0713 2.06081 6.14553C2.9646 6.88377 2.21287 9.33566 1.92855 10.3866C1.79358 10.7177 1.64332 10.9588 1.49351 11.1833C1.43277 11.2891 1.40308 11.3781 1.37249 11.4699" stroke="#0012D4" stroke-linecap="round"/>
<path d="M5.78132 27.4858C5.51409 29.5643 5.24686 31.6428 5.10919 34.1684C4.97153 36.6941 4.97153 39.6039 5.01607 41.5632C5.0606 43.5224 5.14968 44.4429 5.2698 45.3476C5.64776 48.1943 5.93068 48.8374 6.12548 49.2737C6.2609 49.7389 6.32118 50.2176 6.48539 50.6832C6.53083 50.789 6.56052 50.878 6.68109 51.0598" stroke="#0012D4" stroke-linecap="round"/>
<path d="M5.42142 27.5758C5.24327 25.7349 5.24057 24.5787 5.43492 24.1895C5.61305 23.8329 5.92979 23.6474 6.22896 23.5723C6.37593 23.5354 6.52814 23.5862 6.63431 23.6906C7.25526 24.301 7.04101 26.0678 6.69774 26.9739C6.50294 27.1547 6.32209 27.305 6.12774 27.4548C6.02247 27.5155 5.9037 27.5452 5.69135 27.4858" stroke="#0012D4" stroke-linecap="round"/>
</svg>
