<svg width="24" height="48" viewBox="0 0 24 48" fill="none" xmlns="http://www.w3.org/2000/svg">
<path d="M1.51498 0.5C1.48453 1.32212 1.45408 2.14424 1.48407 3.92273C1.51406 5.70122 1.60541 8.41118 2.07875 11.8168C2.55209 15.2225 3.40466 19.2418 3.93521 22.6368C4.46576 26.0319 4.64845 28.6809 4.98615 31.5528C5.32386 34.4247 5.81104 37.4391 6.06202 39.0681C6.33592 40.846 6.37389 41.4021 6.46616 42.1236C6.67154 43.7298 6.8666 45.891 6.94319 46.5253C6.95887 46.6338 6.95887 46.7251 6.9741 46.7265C6.98932 46.7279 7.01977 46.6365 7.05114 46.5424" stroke="#0012D4" stroke-linecap="round"/>
<path d="M23.2906 11.0187C23.047 11.2014 22.4647 12.1177 21.0115 15.1141C19.9678 17.2662 18.4925 20.7901 17.5865 23.0507C16.6804 25.3113 16.4368 26.2247 16.2809 26.7562C16.0871 27.4167 15.7577 28.5398 15.3429 30.1688C15.1264 31.0192 14.8645 31.6825 14.6495 32.5724C14.4515 33.3921 14.1587 34.7532 13.6978 36.5183C13.3146 37.9859 13.3255 38.9736 13.295 39.4801C13.2695 39.9045 13.0191 40.7535 12.8346 41.8598C12.6002 43.265 12.495 44.817 12.4185 45.3868C12.3723 46.0802 12.3105 46.5092 12.2187 47.0633C12.1878 47.1874 12.1573 47.2788 12.126 47.1883" stroke="#0012D4" stroke-linecap="round"/>
<path d="M1.42271 25.5973C1.36181 25.5669 1.30091 25.5364 1.36089 25.5207C1.89738 25.3804 2.34356 25.7505 3.43234 26.5468C3.77727 26.799 4.06161 27.129 4.30982 27.164C5.11164 26.5219 5.72615 26.0291 6.23225 25.8446C6.49476 25.7819 6.7688 25.7819 7.05114 25.6896" stroke="#0012D4" stroke-linecap="round"/>
<path d="M1.60725 23.2906C2.28267 23.4133 2.71264 23.5969 3.61826 24.4559C3.89735 24.7207 4.0976 24.8278 4.23601 24.8744C4.55748 24.9826 4.5285 24.0619 4.8353 23.5844C5.01938 23.3847 5.20484 23.2297 5.40414 23.107C5.51209 23.0451 5.63389 22.9842 5.94391 22.8292" stroke="#0012D4" stroke-linecap="round"/>
<path d="M1.69952 20.7993C3.0808 21.6897 3.72853 22.0902 3.9126 22.1372C4.25169 21.6307 4.61893 21.2625 5.11164 20.8164C5.23529 20.708 5.35708 20.6166 5.66711 20.4302" stroke="#0012D4" stroke-linecap="round"/>
<path d="M1.51498 18.1235C1.88314 18.3994 2.55578 18.8284 3.08218 19.1837C3.16838 19.2418 3.26626 19.2307 3.37421 19.1546C3.88169 18.6171 4.31259 18.2167 4.5428 18.0631C4.65122 18.0008 4.74257 17.9703 5.02122 17.939" stroke="#0012D4" stroke-linecap="round"/>
<path d="M1.23817 15.7245C2.62129 16.4008 2.8981 16.4931 3.11263 16.4783C3.38805 16.3113 3.6667 16.064 3.91214 15.849C4.03578 15.7558 4.15758 15.6949 4.4676 15.5399" stroke="#0012D4" stroke-linecap="round"/>
<path d="M1.05363 13.7868C1.88314 14.1245 2.25129 14.3395 2.589 14.4322C2.8658 14.3423 3.08264 14.1568 3.26672 13.988C3.35945 13.9104 3.45079 13.8495 3.54491 13.7868" stroke="#0012D4" stroke-linecap="round"/>
<path d="M0.684555 11.8492C1.35443 12.2146 1.79086 12.4332 1.99017 12.4185C2.09812 12.3733 2.21992 12.2515 2.41968 12.1126C2.61944 11.9737 2.89348 11.8215 3.17583 11.7569" stroke="#0012D4" stroke-linecap="round"/>
<path d="M0.500015 9.35791C0.990888 9.75744 1.42086 9.94105 1.83608 10.0499C1.97448 10.0352 2.15717 9.97427 2.29696 9.91245C2.43675 9.85063 2.5281 9.78973 2.71448 9.72699" stroke="#0012D4" stroke-linecap="round"/>
<path d="M0.592285 7.42023C0.896774 7.63337 1.20126 7.84651 1.40379 7.97154C1.60633 8.09656 1.69767 8.12701 1.83608 8.09702C1.97448 8.06704 2.15717 7.97569 2.52994 7.7893" stroke="#0012D4" stroke-linecap="round"/>
<path d="M0.961365 5.48254C1.50944 5.96973 1.88314 6.25115 2.08244 6.23638C2.19039 6.19117 2.31219 6.06938 2.4206 5.99141C2.52902 5.91344 2.62037 5.88299 2.71448 5.85162" stroke="#0012D4" stroke-linecap="round"/>
<path d="M0.776825 3.17584C1.08131 3.54123 1.29907 3.82081 1.45224 3.91354C1.54451 3.91492 1.6663 3.82357 1.80517 3.77652C1.94403 3.72946 2.09628 3.72946 2.3454 3.63719" stroke="#0012D4" stroke-linecap="round"/>
<path d="M3.08356 33.9016C3.38805 35.15 3.69253 36.3984 4.03209 37.8179C4.37164 39.2375 4.73702 40.7904 5.00138 41.7426C5.41797 42.9993 5.78797 43.9525 6.12614 44.967C6.25116 45.342 6.28161 45.4334 6.31298 45.6198" stroke="#0012D4" stroke-linecap="round"/>
<path d="M7.05115 46.8192C7.11205 46.4538 7.17294 46.0885 7.26521 45.7632C7.35748 45.438 7.47928 45.1639 7.58769 44.84C7.69611 44.5162 7.78746 44.1508 7.88157 43.6821" stroke="#0012D4" stroke-linecap="round"/>
<path d="M11.8492 32.2407C12.0927 33.1541 12.2791 33.8378 12.4171 34.2369C12.5855 34.5751 12.7405 34.8842 12.848 35.1605C12.8946 35.2846 12.925 35.376 13.0487 35.4701" stroke="#0012D4" stroke-linecap="round"/>
<path d="M12.9564 29.8417C13.1086 30.2375 13.2609 30.6333 13.385 30.9895C13.5091 31.3457 13.6004 31.6502 13.6627 31.8527C13.725 32.0552 13.7554 32.1466 13.7868 32.2407" stroke="#0012D4" stroke-linecap="round"/>
<path d="M13.8791 36.2083L15.7245 35.7469" stroke="#0012D4" stroke-linecap="round"/>
<path d="M13.2332 30.1185C13.8477 32.2084 14.0932 32.9438 14.2782 33.3931C14.3076 33.4646 14.4309 33.4402 14.554 33.364C15.1081 32.8875 15.5076 32.6107 15.784 32.457C15.9081 32.3948 15.9994 32.3643 16.0936 32.3329" stroke="#0012D4" stroke-linecap="round"/>
<path d="M14.4327 28.1808C15.0777 29.1635 15.324 29.7162 15.432 30.1323C15.4594 30.2379 15.4477 30.3621 15.5086 30.3639C15.6912 30.244 16.0603 29.9967 16.4903 29.8122C16.6767 29.7494 16.7985 29.7494 16.924 29.7494" stroke="#0012D4" stroke-linecap="round"/>
<path d="M15.3554 25.1359C15.7854 26.0263 16.0308 26.8835 16.231 27.457C16.6462 27.3818 16.9535 27.2277 17.1837 27.1663C17.2921 27.1354 17.3835 27.105 17.4776 27.0736" stroke="#0012D4" stroke-linecap="round"/>
<path d="M16.3703 22.3679C16.8621 23.9964 16.924 24.4578 16.9849 24.6884C17.4453 24.7364 17.8762 24.6746 18.1064 24.6594C18.2148 24.6441 18.3062 24.6137 18.4003 24.5823" stroke="#0012D4" stroke-linecap="round"/>
<path d="M17.7544 19.6921C17.9389 21.0743 17.9998 21.6279 18.0769 22.0283C18.2139 22.0911 18.4298 22.0302 18.6905 21.9379C18.8293 21.9065 18.9816 21.9065 19.1384 21.8143" stroke="#0012D4" stroke-linecap="round"/>
<path d="M18.5848 17.7544C18.7066 18.2416 18.8303 18.797 18.9225 19.3193C18.9539 19.537 18.9539 19.6588 19.0757 19.7216C19.1975 19.7843 19.4411 19.7843 19.6921 19.7843" stroke="#0012D4" stroke-linecap="round"/>
<path d="M19.5998 15.8167C19.8434 16.5475 19.9993 17.0153 20.0911 17.1689C20.1525 17.2312 20.2438 17.2616 20.3822 17.2773C20.5206 17.293 20.7033 17.293 20.8915 17.293" stroke="#0012D4" stroke-linecap="round"/>
<path d="M20.5225 13.9714C20.922 14.954 21.0447 15.3849 21.1979 15.539C21.2902 15.5713 21.412 15.5104 21.5204 15.4638C21.6288 15.4172 21.7201 15.3868 21.9065 15.3554" stroke="#0012D4" stroke-linecap="round"/>
<path d="M21.6297 12.126C21.8447 12.77 21.937 13.2323 22.0744 13.3859C22.1815 13.4482 22.3642 13.4786 22.504 13.4791C22.6437 13.4796 22.7351 13.4491 22.8292 13.4177" stroke="#0012D4" stroke-linecap="round"/>
<path d="M10.6497 35.4701C10.8324 38.2409 11.015 41.0118 11.1701 42.8503C11.3251 44.6887 11.4469 45.5108 11.6646 46.5424" stroke="#0012D4" stroke-linecap="round"/>
</svg>
