<svg width="28" height="41" viewBox="0 0 28 41" fill="none" xmlns="http://www.w3.org/2000/svg">
<path d="M14.3102 15.5181C14.3102 15.4706 14.3102 15.4232 14.3102 17.0356C14.3102 18.6481 14.3102 21.9219 14.3339 23.822C14.3629 26.1499 14.5488 27.8226 14.7638 30.0475C15.0284 32.7864 15.3626 34.4852 15.4841 36.8375C15.5078 37.2745 15.5553 37.4643 15.5797 38.0366C15.6042 38.6088 15.6042 39.5577 15.8917 40.3916" stroke="#0012D4" stroke-linecap="round"/>
<path d="M9.85303 19.4001C11.6704 16.9602 12.6308 15.8085 12.9191 15.2564C12.9904 15.1199 13.157 15.0407 13.3253 15.063C14.1753 15.1756 14.5948 16.2341 15.29 16.6669C15.4551 16.7696 15.6013 16.8581 15.7932 16.907C15.9852 16.9559 16.2224 16.9559 16.5107 16.8135C17.186 16.4801 17.5207 15.9034 17.5926 15.4972C17.617 15.2808 17.617 15.0436 17.5696 14.7791C17.5221 14.5145 17.4272 14.2298 17.1857 13.9365" stroke="#0012D4" stroke-linecap="round"/>
<path d="M18.4797 17.2434C19.3898 17.6733 19.6285 18.0097 19.9391 18.0342C20.3148 18.0637 20.6349 17.6762 20.8269 17.3656C20.9191 17.2164 20.829 17.0076 20.8995 16.981C21.1659 16.8804 21.5451 17.4806 21.9275 17.8638C22.31 18.0572 22.8851 18.0112 23.6262 17.7725C23.9878 17.6287 24.32 17.4389 24.6622 17.2434" stroke="#0012D4" stroke-linecap="round"/>
<path d="M23.7995 13.0739C23.9893 13.5009 24.1791 13.9279 24.348 14.1716C24.517 14.4153 24.6593 14.4628 24.8987 14.416C25.4895 14.3007 25.9073 13.938 26.0511 13.6274C26.3634 12.9529 25.8613 12.3564 25.9547 11.9984C26.6175 11.4981 27.1538 11.015 27.1546 10.6562C27.1078 10.4873 26.9655 10.345 26.8188 10.1983" stroke="#0012D4" stroke-linecap="round"/>
<path d="M26.6751 8.32914C26.7699 7.90212 26.8648 7.4751 26.8188 7.2314C26.7493 6.86324 26.1503 6.84391 25.7671 6.70085C25.0583 6.43623 25.4299 5.02512 25.0238 4.40113C24.7966 4.05217 24.2323 4.39825 24.0166 4.32852C23.4493 4.14511 23.8484 3.15457 23.6334 2.89146C23.4185 2.62842 23.082 2.53058 22.7478 2.45869C21.9418 2.28536 21.3581 2.81813 20.8556 2.65135C20.4052 2.50184 20.2065 2.05179 19.8722 1.97919C19.6803 2.00147 19.443 2.14381 19.2734 2.28831C19.1037 2.43281 19.0088 2.57515 18.911 2.57802" stroke="#0012D4" stroke-linecap="round"/>
<path d="M16.4668 2.14672C16.2296 1.7197 15.9924 1.29268 15.7752 1.14387C15.4396 0.913792 15.0305 1.42639 14.6962 1.64206C13.9704 2.11033 12.7832 1.09714 11.9881 0.518431C11.8199 0.468828 11.6301 0.516275 11.4849 0.70678C11.3397 0.897286 11.2448 1.22941 11.147 2.00294" stroke="#0012D4" stroke-linecap="round"/>
<path d="M10.1406 4.15961C9.19164 2.92599 8.51301 2.1956 8.13056 2.0281C7.76338 1.86729 7.26789 1.85916 6.71794 1.93033C6.17647 2.0004 5.87612 2.43283 5.70862 2.74339C5.53968 3.67651 5.68202 4.73184 5.92141 5.23435C6.01846 5.45217 6.06591 5.59451 5.82723 5.88494" stroke="#0012D4" stroke-linecap="round"/>
<path d="M3.81434 6.60382C2.18822 8.42405 1.13432 8.71161 0.580779 9.33273C0.443625 9.48662 0.507452 9.71518 0.578622 9.93156C0.649792 10.1479 0.792133 10.3852 0.960353 10.5311C1.6104 11.095 2.75614 10.4398 3.54836 10.4369C3.38589 11.3916 2.76045 12.4973 2.75973 12.7841C2.80646 12.9286 2.9488 13.071 3.52679 13.2176" stroke="#0012D4" stroke-linecap="round"/>
<path d="M3.81436 14.2241C4.28883 14.7934 4.67559 15.2291 4.89126 15.7057C4.91714 17.242 4.72591 17.8156 4.81937 18.6546C4.96171 18.7775 5.24639 18.7301 5.82725 18.3936" stroke="#0012D4" stroke-linecap="round"/>
<path d="M6.83368 19.4001C7.21325 19.5424 7.59283 19.6847 7.90698 19.5683C8.22114 19.4518 8.45837 19.0722 8.65175 18.8293C8.84513 18.5863 8.98747 18.4914 9.42168 18.3936" stroke="#0012D4" stroke-linecap="round"/>
<path d="M9.85302 7.89783C10.0428 9.22634 10.0931 10.0531 9.784 10.2687C9.56113 10.4242 9.04786 10.3421 8.73227 10.4369C8.41668 10.5318 8.27434 10.7216 8.24846 10.9617C8.22258 11.2018 8.31747 11.4865 8.43752 11.6569C8.55758 11.8273 8.69992 11.8747 8.96303 11.8992C9.22615 11.9236 9.60572 11.9236 9.9968 11.9236" stroke="#0012D4" stroke-linecap="round"/>
<path d="M11.7221 11.3485C12.1966 11.6806 12.6711 12.0128 12.9392 12.1127C13.2376 12.2239 13.446 11.8287 13.7329 11.8036C13.8774 11.8733 14.0197 12.1105 14.1879 12.209C14.3561 12.3075 14.5459 12.2601 14.7415 12.2112" stroke="#0012D4" stroke-linecap="round"/>
<path d="M16.8981 11.0609C17.2777 11.5354 17.6573 12.0099 17.9714 12.2068C18.2856 12.4038 18.5228 12.3089 18.6925 12.1889C19.4162 11.6767 19.9146 10.7274 20.6572 10.4865C20.8681 10.4181 21.1108 10.3909 21.2805 10.2716C21.4501 10.1523 21.545 9.96246 21.499 9.81725C21.453 9.67203 21.2632 9.57714 20.7801 9.47937" stroke="#0012D4" stroke-linecap="round"/>
<path d="M15.1728 4.15961C15.3626 4.91875 15.5524 5.6779 15.7688 5.99781C16.3205 6.81353 17.5193 5.83606 17.878 6.07473C18.3834 6.88851 18.4797 7.75118 18.3848 8.18251C18.2899 8.32917 18.1001 8.32917 17.9046 8.47295" stroke="#0012D4" stroke-linecap="round"/>
<path d="M14.1664 6.89136C14.2109 8.22993 14.8853 9.09404 14.7904 9.42904C14.6955 9.57425 14.5057 9.66915 14.3367 9.7892C14.1678 9.90926 14.0255 10.0516 13.8788 10.1983" stroke="#0012D4" stroke-linecap="round"/>
<path d="M15.7479 39.0977C15.7479 39.1926 15.7954 37.9604 15.9384 35.711C16.1169 32.9045 17.4215 31.3394 18.0462 30.6406C18.5357 30.0932 20.9038 28.852 22.7406 28.1001C24.1113 27.5389 25.1352 27.3107 25.9986 26.9269C26.404 26.7466 25.2862 28.737 25.1661 31.4904C25.0457 34.2514 23.0864 36.6448 22.2683 37.6333C21.7781 38.2255 20.7399 39.0919 19.8003 39.6713C19.489 39.8626 19.0102 40.0552 18.2698 40.199C17.8615 40.2479 17.387 40.2479 16.8981 40.2479" stroke="#0012D4" stroke-linecap="round"/>
<path d="M16.8981 39.529C17.5624 38.1056 18.2266 36.6822 18.8535 35.688C19.4804 34.6937 20.0497 34.1718 21.0677 33.6341" stroke="#0012D4" stroke-linecap="round"/>
<path d="M15.3166 39.0976C14.4553 35.8411 13.5021 34.8849 12.707 34.2113C11.9158 33.5411 11.1499 32.6794 10.5503 32.1977C9.93076 31.7 9.28078 31.3365 8.68122 30.9274C7.97921 30.4485 7.02921 30.2323 6.26144 30.0641C5.43807 29.8837 4.4901 28.99 3.8165 28.1734C3.66326 27.9876 3.52966 27.7909 3.40889 27.883C2.20594 28.7995 3.19034 31.1841 3.28667 32.1927C3.4092 33.4756 4.09902 35.0661 4.64969 36.2163C5.81268 38.6455 7.02059 39.0459 8.83938 40.0049C10.3275 40.3916 11.7178 40.2018 12.5309 39.8906C12.9169 39.7691 13.249 39.7216 13.8788 39.6727" stroke="#0012D4" stroke-linecap="round"/>
<path d="M14.0226 39.529C12.8839 38.3903 11.9651 37.4241 11.2247 36.6592C10.8163 36.2739 10.3419 35.8943 10.0263 35.675C9.71069 35.4558 9.56835 35.4083 9.42169 35.3594" stroke="#0012D4" stroke-linecap="round"/>
</svg>
