<svg width="27" height="50" viewBox="0 0 27 50" fill="none" xmlns="http://www.w3.org/2000/svg">
<path d="M15.1666 11.9345C15.0001 11.9069 14.5558 11.7957 13.8029 11.781C13.1365 11.7681 12.491 12.296 12.0309 12.7415C11.6634 13.0972 11.5138 13.6061 11.3465 14.26C11.1075 15.1941 11.4569 15.8349 11.6381 16.2976C11.7182 16.5022 11.7916 16.7301 11.9443 16.9665C12.4534 17.7546 13.7694 17.8462 14.563 17.7642C16.1412 17.6012 16.5588 16.6498 17.0892 15.8002C17.3412 15.3966 17.2582 14.672 17.0223 13.8199C16.8603 13.235 16.4232 12.885 16.0049 12.5352C15.5581 12.27 15.2235 12.0466 15.0147 11.963C14.9164 11.9345 14.8336 11.9345 14.7483 11.9345" stroke="#0012D4" stroke-linecap="round"/>
<path d="M15.3339 12.0182C15.3891 11.6576 15.6117 11.0996 17.651 9.30833C18.4748 8.58472 19.7162 7.87852 20.5073 7.42506C21.6184 6.7881 22.3859 6.74738 23.123 6.81641C24.4968 6.94505 24.8699 7.66601 25.1355 8.01489C25.443 8.41875 25.4572 9.16861 25.2213 10.1742C25.077 10.7892 24.5938 11.2351 24.0517 11.7927C23.3031 12.5627 22.3399 12.9619 21.2778 13.5643C20.4888 14.0118 19.6342 14.1081 18.8507 14.2629C18.3241 14.2771 17.9283 14.2495 17.72 14.2077C17.5945 14.1935 17.4289 14.1935 17.0909 14.2771" stroke="#0012D4" stroke-linecap="round"/>
<path d="M11.2344 16.536C11.0403 16.5913 10.4296 16.9795 9.89787 17.5237C9.15908 18.2799 8.64417 18.7079 8.26559 19.1836C7.78734 19.7844 7.52642 20.2423 7.16416 20.787C6.89393 21.1933 6.77345 21.5542 6.63332 21.9169C6.3313 22.6985 6.71489 24.1996 7.18842 24.9836C7.45315 25.4218 7.94223 25.5709 8.28944 25.6964C9.16921 26.0144 9.83722 25.5449 10.4647 25.1693C11.6027 24.488 12.0978 23.6491 12.3488 23.217C12.7966 22.446 13.4632 21.1994 13.7435 20.5536C13.9824 20.0029 14.1342 19.3823 14.2459 18.964C14.2739 18.8518 14.3015 18.7414 14.3157 18.5879C14.33 18.4344 14.33 18.2411 14.33 18.042" stroke="#0012D4" stroke-linecap="round"/>
<path d="M14.33 18.293C14.3852 18.2378 14.4404 18.1825 14.4688 18.1955C14.8484 18.3685 15.0796 19.4877 15.8878 20.2976C16.5573 20.9685 17.4498 21.3592 18.173 21.6098C19.3537 22.0188 20.2634 22.1683 21.909 22.1561C23.5561 22.144 24.3679 21.1944 24.7586 20.7213C25.2026 20.1837 25.0105 19.3271 24.8724 18.8941C24.7418 18.4843 24.2876 18.1558 23.8969 17.7228C23.5853 17.3775 23.0343 16.9845 22.2667 16.6348C21.6229 16.3415 20.7202 15.5906 20.2157 15.2681C19.9087 14.9197 19.5188 14.585 19.1143 14.3892C19.016 14.3608 18.9331 14.3608 18.8478 14.2771" stroke="#0012D4" stroke-linecap="round"/>
<path d="M10.9834 13.3568C10.596 13.2464 9.75857 12.8565 9.22856 12.5076C8.68456 12.1495 8.25263 11.7973 7.8753 11.4894C7.39396 11.0967 6.22462 9.60366 5.33778 8.27048C4.9741 7.72376 4.51621 6.31066 4.4292 4.36925C4.38459 3.37397 5.71092 2.98419 6.83746 2.62109C7.44362 2.42572 7.80252 2.48054 8.63748 2.73027C9.22625 2.90637 9.66989 3.48116 10.3526 4.46922C11.6033 6.27933 11.7632 6.91137 12.1116 7.69279C12.3759 8.2854 12.5998 9.14184 12.8094 9.66014C12.9353 10.0094 13.1018 10.3433 13.2419 10.6783C13.2699 10.7624 13.2975 10.8452 13.326 10.9306" stroke="#0012D4" stroke-linecap="round"/>
<path d="M13.6607 10.9306C13.633 10.7089 13.4666 10.0973 13.1599 8.48299C13.036 7.83039 12.8801 7.39076 12.8382 6.71141C12.7017 4.49396 13.1018 3.98816 13.3252 3.5142C13.5595 3.0169 13.9936 2.42699 15.162 1.18835C15.6428 0.678617 16.4734 0.5295 17.825 0.500217C18.4269 0.487178 18.7625 1.08503 19.0975 1.41926C19.4782 1.79896 19.4602 2.44874 19.5309 2.92521C19.6255 3.56248 19.3799 5.00885 18.5997 6.95027C18.281 7.74336 17.9007 8.13955 17.4 8.83605C16.5914 9.6731 15.9212 10.288 15.6 10.6641C15.5297 10.7624 15.4745 10.8452 15.4176 11.0142" stroke="#0012D4" stroke-linecap="round"/>
<path d="M11.3181 13.5241C11.2913 13.5241 10.6806 13.2481 10.1208 12.9117C9.47688 12.5248 8.86673 12.2976 8.1832 12.1027C7.59244 11.9342 6.61116 11.6568 5.92386 11.5861C5.02111 11.4932 3.9038 11.5714 2.81659 11.8634C1.73679 12.1534 1.03079 13.0188 0.637987 13.5781C0.295948 14.0651 0.635896 15.1104 1.15043 15.8776C1.734 16.7477 2.39116 16.9527 2.93581 17.1907C3.6257 17.4922 5.00983 17.4563 6.06985 17.5258C8.0777 17.6573 8.47184 17.4563 9.18172 17.3037C9.72763 17.2053 10.3375 16.9845 10.8148 16.7736C10.8989 16.7318 10.9817 16.6766 11.2344 16.4524" stroke="#0012D4" stroke-linecap="round"/>
<path d="M14.5809 18.4603C14.5533 18.7941 14.4973 19.5145 14.5667 21.2509C14.6115 22.3708 14.5809 24.4423 14.5671 25.578C14.5486 27.1059 14.4421 27.7152 14.3722 28.4548C14.3099 29.1145 14.1074 29.6696 13.9961 30.6246C13.9046 31.4106 13.8849 32.822 13.8702 34.9692C13.8556 37.1165 13.8832 39.9602 13.994 41.9083C14.1049 43.8564 14.2982 44.8227 14.4391 45.4724C14.7326 46.8249 14.8035 47.2105 14.929 47.7543C14.9708 47.9082 15.026 48.0739 15.0545 48.2283C15.0829 48.3826 15.0829 48.5207 15.1666 48.6629" stroke="#0012D4" stroke-linecap="round"/>
<path d="M14.4136 44.5634C14.4136 44.0104 14.524 42.7813 14.6642 42.2505C14.7885 41.7797 14.8871 41.1633 15.1515 40.4668C15.2967 40.0842 15.6652 39.2708 16.2776 38.0882C17.1767 36.3522 17.4238 35.8088 18.0082 35.0575C19.0409 33.7298 19.3765 33.1868 19.7526 32.8517C20.1019 32.5719 20.4909 32.2949 20.9239 32.0285C21.0222 31.9862 21.105 31.9586 21.3577 31.7628" stroke="#0012D4" stroke-linecap="round"/>
<path d="M17.5929 35.695C17.5092 35.3896 17.454 34.8885 17.4117 34.1364C17.3646 33.2981 17.3971 32.4623 17.592 32.0297C18.035 31.0469 18.5115 29.9523 18.9854 29.5056C19.5446 28.9785 20.4893 28.3627 21.9379 27.8185C22.6981 27.5329 23.2803 27.496 23.9764 27.2739C24.4744 27.1149 24.7871 27.0501 24.9678 27.1187C25.6849 27.3909 25.5392 28.5786 25.694 29.237C25.7936 29.6609 25.8471 30.1147 25.8894 30.8676C25.9194 31.4026 25.7383 32.1761 24.9168 33.4177C24.3696 34.2446 23.8141 34.6057 23.3117 35.0102C22.9336 35.3147 22.4487 35.6097 21.7785 35.8615C21.1067 36.114 20.4123 36.0849 19.1038 36.0995C18.821 36.0857 18.7106 36.0581 18.6123 36.0301C18.514 36.0021 18.4312 35.9745 18.1785 35.7787" stroke="#0012D4" stroke-linecap="round"/>
<path d="M13.9953 42.5554C13.8004 41.8318 13.413 40.3919 13.0758 39.5034C12.765 38.6844 12.2685 37.5674 11.8774 36.9801C11.3879 36.2451 10.9299 35.864 9.88616 34.9044C9.09843 34.1801 8.80982 33.8561 8.47475 33.6043C8.39067 33.5482 8.30784 33.493 8.22376 33.4507C8.13968 33.4085 8.05685 33.3809 8.05518 33.3524" stroke="#0012D4" stroke-linecap="round"/>
<path d="M11.3181 35.6114C11.2905 35.4449 11.1792 35.111 10.9981 33.8732C10.9214 33.3496 10.7893 32.6881 10.4555 31.8774C10.0031 30.7787 9.34026 30.4828 8.97675 30.1602C8.64367 29.8647 8.03176 29.4236 7.4298 29.0864C6.84766 28.7604 6.35682 28.5853 5.8678 28.4305C5.34741 28.2658 4.82243 28.2774 4.20917 28.2904C3.85306 28.2979 3.62185 28.6104 3.48255 28.8191C3.18193 29.2696 3.2027 30.6668 3.50807 31.9682C3.63131 32.4934 3.954 32.9592 4.15019 33.4482C4.36412 33.9815 4.62331 34.3547 5.31897 35.2311C5.99084 36.0775 6.57434 36.279 6.98011 36.4614C7.42268 36.6603 7.99663 36.6705 9.30513 36.6852C9.92646 36.6921 10.3124 36.5601 10.717 36.4484C10.8153 36.4204 10.8981 36.3928 10.9546 36.3371C11.011 36.2815 11.0386 36.1987 11.0671 36.1133" stroke="#0012D4" stroke-linecap="round"/>
</svg>
