<svg width="21" height="40" viewBox="0 0 21 40" fill="none" xmlns="http://www.w3.org/2000/svg">
<path d="M9.5405 1.65021C9.35071 5.54084 9.30039 8.11446 9.46717 9.40415C9.67295 10.9953 10.1142 12.238 10.5196 13.7621C10.8215 14.8969 11.1623 16.8044 11.3579 18.0905C11.5534 19.3766 11.5534 19.9934 11.8143 21.9243C12.0753 23.8553 12.5972 27.0816 12.8661 29.2656C13.2618 32.4804 13.1824 33.8061 13.2543 34.5452C13.4659 36.7204 13.0401 37.3992 12.9674 38.2863C12.9496 38.5039 12.8963 38.6932 12.8481 38.7198C12.7167 38.7923 12.846 37.9829 13.37 36.5523C14.2577 34.1292 15.1464 32.5165 15.5519 31.9917C17.1762 29.8893 19.6021 29.0169 19.8688 28.9184C21.5814 28.286 19.0787 31.9787 18.7444 33.2044C18.1906 35.2351 17.1636 35.7227 16.1586 36.9664C15.007 38.3915 13.7115 38.9361 13.4247 38.9606C13.2789 38.973 13.1378 38.8427 13.0882 38.6989C12.9794 38.3836 13.135 37.7428 13.0163 36.8348C12.8785 35.7797 11.6569 34.5351 9.70009 32.8155C7.06484 30.4997 5.03738 29.4957 4.7261 29.5187C3.08466 29.64 5.7994 34.1383 6.27962 35.2662C6.89886 36.7207 8.72097 37.8305 9.65696 38.2884C9.87407 38.361 10.0639 38.4085 10.6124 38.4329C11.1609 38.4574 12.0624 38.4574 12.9912 38.4574" stroke="#0012D4" stroke-linecap="round"/>
<path d="M10.4032 12.5773C10.4506 12.8145 10.4981 13.0518 10.6886 13.1503C12.1769 13.9197 13.9947 11.0475 14.3319 10.3754C14.7459 9.55008 14.8603 8.89084 14.9796 7.64716C15.0254 7.16995 15.0041 6.50413 14.838 6.7313C13.98 7.90504 13.7604 9.79233 13.4958 10.8441C13.3664 11.3586 13.6583 11.8958 13.9221 12.2121C14.3859 12.7681 15.5245 12.6262 16.7919 12.3164C18.6445 11.1424 19.2196 10.09 19.4605 9.41635C19.5086 9.27185 19.5561 9.12951 19.4612 8.98286" stroke="#0012D4" stroke-linecap="round"/>
<path d="M9.25293 1.79401C9.25293 4.36907 9.44272 7.91895 9.77916 9.31359C10.0841 10.5778 10.0667 11.3754 10.0207 12.0964C9.97425 12.8245 8.53979 10.2884 8.0797 9.10583C7.74829 8.25401 7.24292 6.93263 7.09626 5.84495C6.96415 4.86511 7.62249 7.68603 8.05311 8.40492C8.4518 9.07051 8.72383 10.0785 8.94093 11.136C9.0372 11.6049 8.91793 12.0008 8.77487 12.2402C8.3467 12.9567 6.48089 12.8649 5.61319 12.6507C4.21322 12.305 3.5507 10.7097 3.31203 10.4703C3.16825 10.3732 2.97846 10.3258 2.80952 10.3488C2.64059 10.3718 2.49824 10.4667 1.92026 10.5645" stroke="#0012D4" stroke-linecap="round"/>
<path d="M1.05759 5.10089C0.9627 5.7177 0.867806 6.33451 0.937539 6.65226C1.00727 6.97 1.2445 6.97 1.48533 6.89883C1.72616 6.82766 1.96339 6.68532 2.08561 6.5171C2.20782 6.34888 2.20782 6.1591 2.16037 5.96643C2.11292 5.77377 2.01803 5.58399 1.87425 5.43877C1.73047 5.29355 1.54069 5.19866 1.3243 5.14978C1.10792 5.10089 0.870682 5.10089 0.724747 5.21951C0.410468 5.47496 0.482482 6.00957 0.601098 6.34457C0.663682 6.52132 0.956949 6.58468 1.15033 6.58612C1.34371 6.58756 1.48605 6.49266 1.5831 6.37261C1.68015 6.25255 1.7276 6.11021 1.70459 5.96572C1.68159 5.82122 1.5867 5.67888 1.41919 5.653C1.25169 5.62712 1.01446 5.72201 0.963419 5.88951C0.912378 6.05701 1.05472 6.29425 1.34515 6.53867" stroke="#0012D4" stroke-linecap="round"/>
<path d="M5.22715 2.08156C4.65779 2.55603 4.31704 2.99024 4.26887 3.37269C4.2448 3.56384 4.3156 3.75514 4.43493 3.85291C4.68573 4.05838 5.22428 3.80833 5.70306 3.5215C5.91063 3.39714 5.99205 3.23466 5.99349 3.09016C5.99649 2.7885 5.65992 2.46689 5.37309 2.15561C5.24516 2.01678 5.08625 1.98667 4.94175 2.00967C4.79726 2.03268 4.65492 2.12757 4.55787 2.29507C4.46081 2.46257 4.41337 2.69981 4.50826 3.08801" stroke="#0012D4" stroke-linecap="round"/>
<path d="M11.5534 0.5C11.2212 0.879574 10.8891 1.25915 10.8129 1.47841C10.7178 1.75223 11.5965 1.794 12.1745 2.10456C12.3032 2.17371 12.5081 2.03555 12.5821 1.89177C12.6561 1.74799 12.6087 1.55821 12.5131 1.43671C12.4175 1.31522 12.2751 1.26777 12.1306 1.19589C11.9861 1.124 11.8438 1.0291 11.6972 0.787556" stroke="#0012D4" stroke-linecap="round"/>
<path d="M16.1543 1.93774C15.7747 2.98157 15.6266 3.66164 15.7697 3.85359C15.834 3.93995 16.0076 3.85574 16.1047 3.76013C16.2492 3.52218 16.2981 3.09084 16.3692 2.73068C16.4404 2.6552 16.5827 2.79754 16.7294 2.94419" stroke="#0012D4" stroke-linecap="round"/>
<path d="M19.7487 4.81332C20.0334 4.86076 20.3181 4.90821 20.3461 4.86148C20.3741 4.81475 20.1369 4.67241 19.9435 4.69398C19.7501 4.71555 19.6078 4.90533 19.4612 5.10087" stroke="#0012D4" stroke-linecap="round"/>
</svg>
