<svg width="19" height="35" viewBox="0 0 19 35" fill="none" xmlns="http://www.w3.org/2000/svg">
<path d="M7.15527 7.75165C7.25016 7.84654 7.77351 9.22393 8.63474 11.8774C9.06084 13.1901 9.30618 14.4833 9.59518 16.021C10.2126 19.3063 10.4622 21.4077 10.4859 22.0051C10.5628 23.9432 10.4161 27.1013 10.1523 29.1163C9.26449 33.3427 9.12071 33.9164 9.04882 34.2054C9.02438 34.2097 9.02438 33.925 9.02438 33.6317" stroke="#0012D4" stroke-linecap="round"/>
<path d="M7.01149 8.32677C6.48814 8.18299 5.24302 8.27789 3.4954 8.27933C2.96897 8.27976 2.65214 7.84943 2.31714 7.41953C1.35415 6.18377 1.59969 4.06519 1.42715 3.44048C1.37751 3.26072 1.82973 3.15364 2.07128 3.19893C2.31282 3.24422 2.50261 3.48146 2.719 3.57994C2.93538 3.67843 3.17262 3.63098 3.31855 3.48793C3.62322 3.18926 3.51337 2.62598 3.58382 2.19536C3.73991 1.24132 4.99716 1.71586 5.33144 1.28453C5.97659 0.452077 7.29761 1.47432 7.537 1.25937C7.75988 1.05924 7.87272 0.755426 8.18328 0.587924C8.34454 0.500948 8.54129 0.46787 8.73395 0.538321C9.60971 0.858563 9.88417 1.6641 10.5556 1.90349C10.874 2.01702 10.8935 2.95235 10.7986 4.07741C10.6661 5.64887 9.07326 6.45478 8.73826 7.38862C8.54704 7.74878 8.35437 8.03778 8.04453 8.25345C7.82958 8.32677 7.49746 8.32677 7.15527 8.18299" stroke="#0012D4" stroke-linecap="round"/>
<path d="M10.7497 22.417C10.8906 20.8498 11.7533 17.1059 12.1623 16.0937C12.5593 15.1113 13.5735 13.9859 14.3887 13.5042C15.3173 12.9556 16.1615 12.8328 16.81 12.4741C17.1984 12.2592 17.5058 11.9227 17.6978 11.7782C18.2792 11.3405 17.3635 14.6875 17.4828 16.635C17.5514 17.7539 17.2226 19.008 16.6015 20.1324C14.925 21.7427 13.4844 22.5119 12.575 22.6082C12.2867 22.6557 11.9546 22.7506 11.1811 22.8484" stroke="#0012D4" stroke-linecap="round"/>
<path d="M10.0308 20.6916C9.31337 18.6802 8.7397 18.0116 8.02081 17.2201C7.27873 16.4031 6.39324 15.7601 5.48097 15.1339C4.77404 14.6487 3.56657 14.1756 2.58169 13.9111C2.36082 13.8517 2.1748 13.7443 1.8398 13.6954C1.50479 13.6465 1.03033 13.6465 0.833349 13.9787C-0.146128 15.6302 1.21149 16.7579 2.59607 18.3847C3.61424 19.581 4.75417 19.875 5.95256 20.2826C7.00162 20.6394 7.67862 21.2179 8.42267 21.5292C8.59161 21.6018 8.73395 21.6492 8.97334 21.6736C9.21273 21.6981 9.54486 21.6981 9.88705 21.5543" stroke="#0012D4" stroke-linecap="round"/>
</svg>
