<svg width="19" height="50" viewBox="0 0 19 50" fill="none" xmlns="http://www.w3.org/2000/svg">
<path d="M10.8353 7.43158C10.3608 9.3769 9.88633 11.3222 9.45212 13.5817C9.01791 15.8412 8.63833 18.3558 8.4428 20.6714C8.24726 22.9869 8.24726 25.0271 8.2947 26.434C8.39754 29.4833 8.62971 30.1456 8.84537 31.27C9.01216 31.8681 9.15737 32.3986 9.22926 32.853C9.2537 33.0701 9.2537 33.2598 9.39748 33.1678" stroke="#0012D4" stroke-linecap="round"/>
<path d="M8.10348 30.7236C5.52266 30.8673 2.74918 31.2469 1.63562 31.7523C1.28163 31.913 1.05979 32.2562 0.79668 32.5424C0.443008 32.927 0.483245 33.786 0.530691 34.5761C0.596493 35.6718 2.4415 36.6616 3.78295 36.9297C6.79531 37.5319 9.14155 36.906 10.7835 36.7867C11.6955 36.7204 12.7475 36.6185 13.5879 36.4991C14.423 36.3805 15.5713 35.8564 16.5116 35.3741C17.0708 35.0872 17.4476 34.6545 17.687 34.4395C17.9099 34.2394 17.8804 33.6983 17.8329 33.1239C17.7595 32.2352 15.8761 31.5431 14.9833 31.1556C14.2399 31.0111 13.5699 30.9162 12.5426 30.748C12.0416 30.7236 11.235 30.7236 10.4039 30.7236" stroke="#0012D4" stroke-linecap="round"/>
<path d="M2.20858 36.4747C2.0648 37.4309 2.53927 40.5695 3.02236 43.8462C3.28927 45.6566 3.30992 46.5363 3.38253 47.2315C3.40025 47.4011 3.4537 47.5428 3.57303 47.6873C4.41658 48.7087 6.84973 48.6959 7.88421 48.8389C10.3686 49.1825 13.8517 48.8885 14.7848 48.6017C15.1129 48.5008 15.4764 48.2214 15.6957 48.0043C16.5255 47.1826 16.1062 45.4407 16.1788 44.6967C16.2098 44.3789 16.2988 42.7679 16.3225 40.4682C16.4426 38.4488 16.3951 36.4762 16.3233 36.1419C16.2988 35.9499 16.2988 35.7127 16.2988 35.6121" stroke="#0012D4" stroke-linecap="round"/>
<path d="M10.6915 28.9983C10.7864 28.7136 10.9776 28.1874 11.1695 27.4936C11.4247 26.5713 10.5966 25.9818 10.6189 24.9286C10.6372 24.0624 12.4111 23.874 13.4678 22.8913C14.0397 22.3595 14.0933 21.3838 14.0947 20.542C14.0964 19.5748 12.4197 19.1265 11.7482 18.7678C11.5821 18.679 11.5081 18.5054 11.5067 18.3371C11.5035 17.9671 11.8403 17.6413 12.2457 17.4256C12.8168 17.1218 13.4693 17.2574 13.8043 17.0187C14.4686 16.5454 14.4757 15.6298 14.4074 13.4789C14.3808 12.6398 13.3772 12.228 13.0897 11.558C12.9688 11.2764 12.9919 11.0778 13.0631 10.9326C13.4021 10.2408 14.6195 10.4049 14.9308 10.0225C15.7269 9.0443 14.5792 6.67243 14.452 5.39928C14.4168 5.04696 14.9502 4.75444 15.0027 4.51217C15.208 3.5644 14.2859 2.07441 13.7619 0.89256C13.5066 0.316846 12.516 0.530239 11.9416 0.577686C11.0436 0.651869 10.3579 1.53381 9.85469 2.2527C9.25836 3.1046 8.25013 3.73936 7.72174 4.40937C7.46858 4.73039 7.52836 5.17714 7.59953 5.51215C7.6663 5.82644 8.05459 5.99236 8.1272 6.2792C8.20835 6.59981 7.34145 6.71269 6.69157 7.16559C6.34868 7.40456 6.37814 8.05126 6.44931 8.60193C6.49792 8.97805 6.90436 9.15548 7.02442 9.44232C7.30944 10.1233 6.04457 10.8794 5.87563 12.5055C5.76466 13.5737 3.8879 13.6126 3.57662 13.9232C3.00397 14.4945 3.59747 15.4803 4.05109 16.1992C4.70193 17.2306 5.51259 17.5881 5.77715 18.1653C5.87458 18.3779 6.4644 18.3098 6.21064 18.6189C5.24114 19.7999 3.93391 20.3213 3.98136 20.7519C4.07197 21.5743 3.93391 22.6203 3.74341 23.2213C3.64637 23.5274 3.21646 23.6771 3.02452 23.9639C2.86499 24.2023 3.30848 24.7295 3.73909 25.2565C4.00107 25.577 4.41126 25.5476 4.69881 25.6425C4.98465 25.7368 4.84403 26.3125 4.98709 26.6475C5.56148 27.0328 6.08914 27.2241 6.37598 27.3916C6.52048 27.4642 6.66282 27.5116 6.80947 27.7043" stroke="#0012D4" stroke-linecap="round"/>
</svg>
