<svg width="34" height="39" viewBox="0 0 34 39" fill="none" xmlns="http://www.w3.org/2000/svg">
<path d="M13.1906 36.825C11.7631 34.2794 11.2997 32.816 10.9324 30.8109C10.4973 28.4357 10.7586 26.4781 10.4701 25.6502C10.1327 24.6821 8.95105 22.819 7.58035 20.657C6.8318 19.4762 6.3568 19.0997 5.87363 18.7127C5.28573 18.2418 4.46817 17.3663 3.69186 16.6468C2.93969 15.9497 1.30501 14.9702 0.638192 14.5983C-0.102192 14.1853 2.3339 14.6945 3.20348 14.7906C4.19674 14.9005 5.49938 15.4267 6.23572 15.7743C7.33307 16.2924 8.96843 17.0048 11.0396 18.4161C13.0073 19.7569 13.6518 20.7543 14.5387 21.9889C14.7839 22.3301 14.9634 22.6823 15.5398 24.4464C16.1163 26.2105 17.0722 29.384 17.6028 31.3057C18.4941 34.5332 18.3652 35.5064 18.4237 36.6089C18.458 37.2543 18.5587 37.7508 18.5975 37.8672C18.5981 37.869 18.5599 37.7543 18.5402 37.6378C18.5205 37.5214 18.5205 37.4067 18.5205 37.2885" stroke="#0012D4" stroke-linecap="round"/>
<path d="M18.5205 34.0442C18.597 33.5448 19.6699 30.8602 20.3541 28.854C20.7286 27.7557 20.8749 26.7863 21.0499 26.1293C21.3543 24.9863 21.8412 23.6579 22.4374 22.348C23.3052 20.4412 24.0033 20.0266 25.1973 18.7741C25.9575 17.9767 26.2048 17.0141 27.1873 15.0114C27.4602 14.4552 27.9405 14.0792 28.9022 13.4634C31.3989 11.8646 32.6145 11.1049 33.0589 10.8338C33.4867 10.5728 32.3898 12.3331 31.3684 13.49C29.8406 15.2206 28.9879 16.7395 28.8529 17.0865C28.4869 18.0276 28.5638 20.0938 28.2736 21.0642C28.0437 21.8327 27.6763 22.9905 27.3467 23.7303C27.0834 24.3213 26.5941 25.1572 25.958 26.2191C25.4067 27.1395 24.7402 27.6692 24.2965 28.0562C23.4428 28.8006 22.7705 30.063 22.4032 31.3358C22.2183 31.9767 22.2282 32.6121 22.0938 33.4805C21.8806 34.3906 21.8042 34.9294 21.438 36.2213C21.3407 36.5145 21.2642 36.6674 21.1854 37.0567" stroke="#0012D4" stroke-linecap="round"/>
<path d="M17.1301 29.062C17.3595 27.762 17.6306 26.5952 17.9771 25.6126C18.7872 23.315 19.9086 21.533 20.5267 20.6651C20.9147 20.1205 20.8749 19.3338 20.9728 18.3478C21.1101 16.9651 22.4205 15.2762 22.902 14.4274C23.2484 13.8166 23.7322 13.4988 25.177 12.0742C26.0876 11.1764 26.5524 10.4098 27.0344 9.85013C27.4627 9.35279 27.8269 8.86411 28.116 8.61326C28.5047 8.27599 29.1385 8.28477 29.5081 8.2054C30.3125 8.03269 28.8326 10.2058 28.7364 11.1189C28.6785 12.2984 28.5244 12.7236 28.3894 12.9548C28.3309 13.0712 28.2927 13.1859 28.0215 13.5359" stroke="#0012D4" stroke-linecap="round"/>
<path d="M16.2031 19.9085C16.0872 18.8321 16.0108 17.3641 14.9529 15.2055C14.0777 13.4196 13.1164 12.7271 11.7475 11.4166C11.0635 10.7619 10.6809 10.0621 10.2765 9.36809C9.51072 8.05371 9.59871 7.04844 9.59871 6.95111C9.59871 5.85249 9.25111 10.0552 9.38551 10.8489C9.58471 12.0252 10.2151 13.6864 10.4092 14.3637C10.5256 15.1174 10.5639 15.6203 10.6218 16.1382C10.6415 16.5414 10.6415 17.2297 10.6415 17.9388" stroke="#0012D4" stroke-linecap="round"/>
<path d="M15.1603 14.4628C15.4685 10.0621 15.7003 8.98459 15.9894 7.80564C16.5057 5.69986 16.2425 3.80998 16.184 3.10956C16.1289 2.44953 16.1637 1.37446 16.3184 0.773108C16.3536 0.636542 16.3955 0.4846 16.4343 0.5014C17.8424 1.11089 18.0547 4.34065 18.557 5.18995C19.0818 6.07735 19.3686 6.73445 19.6971 7.77667C20.0711 8.96339 20.1797 10.0529 20.2776 11.3494C20.4124 13.1348 20.2979 16.0038 20.0088 16.7957C19.5431 18.0715 19.3709 18.7081 19.101 19.4033C18.9469 19.9409 18.8298 20.409 18.7719 20.9849C18.7522 21.4078 18.7522 22.0961 18.8681 22.6893" stroke="#0012D4" stroke-linecap="round"/>
<path d="M20.6061 10.5233C20.5667 9.90688 21.3337 8.83164 22.1871 7.88037C22.955 7.02432 23.4633 5.62213 23.618 5.04106C23.8228 4.27186 24.1191 3.5736 24.4471 3.03308C24.7915 2.46524 25.5849 2.06733 26.1254 1.81532C26.3046 1.73179 26.36 1.98391 26.3606 2.15887C26.3666 3.98423 26.2071 7.00558 26.1294 7.52814C26.0403 8.12834 25.5907 8.85713 25.4534 9.59404C25.396 9.90225 25.3566 10.3275 25.2993 10.7712C25.2419 10.9474 25.1272 11.0238 25.009 11.1026" stroke="#0012D4" stroke-linecap="round"/>
<path d="M19.795 7.1631C19.9874 6.04498 21.2133 4.28033 21.8609 3.12919C21.9284 3.00931 21.8806 2.87834 21.938 2.78101C21.9954 2.68369 22.1101 2.60721 22.2265 2.58694C22.343 2.56666 22.4577 2.6049 22.5359 2.70107C22.9257 3.18041 22.7682 3.91651 22.8458 4.49526C22.8841 4.72642 22.9605 5.07054 23.019 5.30517C23.0775 5.5398 23.1158 5.65451 23.1552 5.77269" stroke="#0012D4" stroke-linecap="round"/>
<path d="M15.0445 12.3772C14.4663 10.3321 14.004 9.33221 13.482 7.09424C13.3287 6.43699 13.3065 5.16564 13.23 3.63909C13.2069 3.17737 13.0006 3.37434 12.8644 3.64489C12.3497 4.66772 12.4189 5.19113 12.2451 5.88575C12.0144 6.8079 11.9555 7.81667 11.897 8.51245C11.8002 9.01589 11.762 9.40173 11.704 9.76729C11.6843 9.9799 11.6843 10.2476 11.8002 10.6392" stroke="#0012D4" stroke-linecap="round"/>
</svg>
