<svg width="42" height="41" viewBox="0 0 42 41" fill="none" xmlns="http://www.w3.org/2000/svg">
<path d="M29.3079 0.500061C28.1013 1.36118 26.9943 2.67256 26.4222 3.47194C26.2299 3.74058 25.7836 4.36781 25.077 5.52306C24.2767 6.83162 23.637 7.62241 23.4648 7.98449C23.2656 8.40323 22.7406 9.34568 22.1192 10.7437C21.8338 11.3857 21.6347 11.902 21.3405 13.3991C21.0464 14.8962 20.6698 17.3613 20.4758 18.888C20.2174 20.921 20.2475 21.697 20.2128 23.1214C20.1839 24.3059 20.2465 26.4289 20.3155 27.8991C20.3845 29.3692 20.4872 30.1224 20.5401 30.9384C20.7232 33.7615 20.6968 34.733 20.9032 35.7191C21.1802 36.6015 21.5247 37.8434 21.7166 38.3507C21.7343 38.3351 21.7343 38.1982 21.7343 38.0571" stroke="#0012D4" stroke-linecap="round"/>
<path d="M21.423 37.3308C23.1826 36.6077 24.8384 35.1604 25.4682 34.3413C25.8459 33.85 26.2618 32.9775 26.5062 32.4391C26.7256 31.9555 26.9549 31.3176 27.2148 30.7962C27.4468 30.3308 27.5442 29.6908 27.6303 29.0854C27.7312 28.3763 27.3367 27.6884 27.1977 27.2688C26.9546 26.5351 28.2351 26.1623 28.2533 25.6975C28.2649 25.3998 28.0318 24.993 27.8923 24.7643C27.7061 24.459 27.1333 24.466 26.5108 24.4146C26.2938 24.3967 26.2992 24.2606 26.3334 24.1563C26.489 23.6824 26.8864 23.3268 27.2661 22.3091C27.4668 21.7713 27.2682 21.3203 27.1131 21.0786C26.7617 20.5309 25.713 20.9375 25.4708 21.0247C24.9916 21.197 25.9859 19.7662 26.2982 19.263C26.6355 18.7194 26.4382 18.0357 26.3168 17.5174C26.0954 16.5721 26.5752 16.0644 26.5933 15.3906C26.5976 15.2325 26.542 15.1307 26.4559 15.0607C26.2648 14.9053 25.7836 14.9211 25.3509 14.8526C24.7199 14.7528 26.3656 13.1636 26.5238 12.4503C26.5737 12.2254 26.6104 11.983 26.5591 11.707C26.5013 11.3963 26.1622 11.1872 25.8863 11.0145C25.1746 10.569 24.1215 10.9092 24.0344 10.8926C23.4588 10.7829 25.0169 10.1508 25.7426 9.63253C26.3561 9.19445 26.6447 8.62876 26.6281 8.30091C26.5872 7.49438 25.2638 7.55496 25.0895 7.46936C24.3053 7.0843 26.1934 6.58802 26.7121 6.29389C27.3001 5.9605 27.5089 5.30983 27.6474 4.68682C27.7021 4.44094 27.8202 4.09909 27.9924 3.71885C28.1151 3.44787 28.5454 3.47452 28.9074 3.31993C29.3793 3.1185 29.5496 2.64557 29.6015 2.284C29.6335 2.06098 29.6192 1.75125 29.5507 1.55828C29.4822 1.36531 29.3453 1.29683 29.2918 1.2102C29.2384 1.12357 29.2726 1.02086 29.3079 0.915039" stroke="#0012D4" stroke-linecap="round"/>
<path d="M21.1118 36.8121C19.9736 35.8805 19.0741 35.1895 18.2618 34.5151C17.5331 33.9102 17.1735 32.9776 16.7554 32.284C16.3876 31.674 16.3393 30.7283 16.5629 30.0882C16.6219 29.9192 16.7522 29.7946 16.8736 29.7069C17.1052 29.5396 17.4785 29.5497 17.7041 29.4984C18.2229 29.3803 16.6879 29.17 15.7895 28.6876C15.3372 28.4447 15.1991 27.7206 15.0435 26.9103C14.871 26.0122 15.1275 25.2981 15.3864 24.9355C15.7571 24.4163 16.3373 24.3623 16.6672 24.2248C17.091 24.0482 15.2417 23.2252 14.5938 22.6867C14.0675 22.2494 14.6088 21.1149 15.1955 20.078C15.4614 19.6079 15.8195 19.4176 16.0436 19.2967C16.5278 19.0356 17.0293 19.2433 17.2202 19.2615C17.8287 19.3194 16.3414 18.4507 15.8569 17.7945C15.3102 17.054 15.2686 16.0333 15.2494 14.8905C15.242 14.4474 15.6121 14.1959 15.8704 14.0232C16.5675 13.5571 17.272 13.6762 17.4105 13.6077C17.8314 13.3996 16.9971 12.7445 16.7896 12.0717C16.3764 10.7318 16.995 9.97855 17.5646 9.1662C17.9877 8.56282 18.6529 8.45552 19.4834 8.40209C19.6587 8.39081 19.761 8.45345 19.8139 8.41973C20.1916 8.179 19.6593 6.66482 19.7968 5.91368C19.887 5.4203 20.5557 5.06709 21.1958 4.87515C21.3468 4.82987 21.4894 4.85751 21.56 4.68633C21.7575 4.20706 21.699 3.68308 21.8541 3.45846C22.0972 3.10644 22.6659 3.23281 23.1676 3.00819C23.6552 2.78985 24.0499 2.1974 24.5671 1.88408C25.5556 1.28525 26.1249 1.22838 26.6774 0.692004C26.9196 0.603817 27.1282 0.56958 27.5919 0.517706C27.953 0.500069 28.5692 0.500069 29.2042 0.603817" stroke="#0012D4" stroke-linecap="round"/>
<path d="M22.1493 38.3683C22.9419 37.0569 23.7034 36.3639 24.136 36.0008C24.582 35.6265 25.5315 35.0193 26.1939 34.4445C26.6107 34.0829 27.0919 33.5979 27.8523 32.5978C28.9958 31.094 28.8929 29.4833 29.0652 28.5848C29.2108 27.8247 29.891 26.1031 31.1863 24.6263C32.1155 23.5668 33.3178 23.4638 33.7141 23.3258C34.2132 23.1878 35.2143 23.1172 36.3551 23.1344C36.7768 23.1515 36.8795 23.1857 37.1928 23.3247" stroke="#0012D4" stroke-linecap="round"/>
<path d="M16.4431 30.5872C16.2024 29.6576 15.7874 28.5496 15.5104 28.0816C15.0499 27.3037 14.1627 26.4393 13.6958 26.0928C12.8076 25.4335 11.5379 24.7109 10.8946 24.4494C10.1746 24.1568 9.52928 24.1548 8.75323 24.0686C7.5705 24.051 6.69175 24.0852 6.48477 24.1371C6.3805 24.1548 6.27779 24.1548 6.17197 24.1548" stroke="#0012D4" stroke-linecap="round"/>
<path d="M5.54945 24.051C5.34403 23.5033 5.16973 23.0499 4.99751 22.722C4.66142 22.0822 3.51598 22.0798 2.85354 21.7354C2.65953 21.6345 2.40379 21.6991 2.14494 21.8023C1.88232 21.907 1.74602 22.2168 1.64227 22.5099C1.53241 22.8202 1.64124 23.1505 1.74447 23.4094C1.8492 23.672 2.15894 23.7398 2.36644 23.8083C2.4598 23.8391 2.43699 24.0137 2.3514 24.1698C1.98641 24.8357 1.3331 24.9142 0.916552 25.3116C0.714975 25.5039 0.811247 25.8822 0.914477 26.1587C0.958511 26.2766 1.08618 26.2982 1.10486 26.3844C1.23074 26.9648 0.501038 27.4727 0.500001 28.0775C0.499725 28.2379 0.602712 28.3711 0.706461 28.4588C0.912545 28.633 1.29368 28.5475 1.6734 28.3924C2.29989 28.1365 2.40171 27.4768 2.84991 27.026C3.07792 26.7967 3.36969 27.4395 3.61091 27.5261C3.90276 27.6309 4.26815 27.372 4.56176 27.1137C4.89168 26.4383 5.16766 25.8874 5.22109 25.143C5.20397 24.9858 5.16973 24.8831 5.13446 24.6735" stroke="#0012D4" stroke-linecap="round"/>
<path d="M37.4003 23.221C37.5736 24.5334 37.3671 25.2918 37.3651 26.3127C37.3644 26.6452 38.0882 26.6447 38.7102 26.7474C39.1688 26.8232 39.2325 27.4726 39.4219 27.801C39.508 27.9504 39.7139 27.9582 39.8877 27.856C40.0615 27.7538 40.2327 27.5141 40.3209 27.2537C40.409 26.9933 40.409 26.7194 40.3406 26.5098C40.2155 26.1269 39.7886 25.9195 39.4774 25.6954C39.3467 25.6013 39.3716 25.4371 39.4743 25.2809C39.7213 24.9054 40.131 24.743 40.3556 24.6227C40.5797 24.5026 40.5128 24.1558 40.4786 23.9317C40.3804 23.289 39.4763 23.221 39.2865 23.1354C38.7273 22.8833 39.1288 22.0818 39.0785 21.5455C39.0252 20.9775 38.0249 21.8017 37.6436 22.1301C37.5736 22.251 37.5393 22.4221 37.5217 22.6815C37.5041 22.9409 37.5041 23.2833 37.7116 23.5323" stroke="#0012D4" stroke-linecap="round"/>
<path d="M21.6305 38.5758C21.6305 38.3704 21.5621 37.9564 21.3042 37.3869C20.7941 36.2598 19.7651 36.3639 19.3325 36.3105C18.7558 36.2392 18.4496 37.0175 18.1394 37.5191C17.7269 38.1862 16.9286 37.6774 16.6698 37.6763C16.3164 37.6749 16.2709 38.2635 16.0815 38.402C15.4689 38.8502 14.6814 37.5051 14.2317 37.3314C13.6786 37.1177 12.4757 37.8786 10.1232 38.2293C9.12051 38.4347 8.38804 38.747 7.93881 39.092C7.76347 39.2658 7.695 39.4369 7.62445 39.8208" stroke="#0012D4" stroke-linecap="round"/>
<path d="M21.9418 38.472C23.4482 37.0341 24.4297 36.1906 24.8094 36.0179C25.1082 35.8819 25.6383 35.8783 26.2774 35.9297C26.7042 35.964 26.8864 36.2923 27.0244 36.5506C27.2065 36.8915 27.233 37.4314 27.3185 37.9154C27.4659 38.7486 29.6462 37.9554 30.361 37.6773C30.4788 37.6315 30.6193 37.6421 30.707 37.6934C30.8765 37.7927 30.9326 38.0902 31.1049 38.2977C31.4362 38.6969 32.3125 38.0238 33.0227 37.7468C33.5354 37.5468 34.1468 37.5383 34.6131 37.5725C34.9083 37.6753 35.1511 37.9855 35.3757 38.3999C35.4633 38.5748 35.4976 38.6775 35.6366 38.9908" stroke="#0012D4" stroke-linecap="round"/>
</svg>
