<svg width="23" height="47" viewBox="0 0 23 47" fill="none" xmlns="http://www.w3.org/2000/svg">
<path d="M10.6481 0.500061C9.37823 2.5016 8.79463 4.63805 8.57102 6.70191C8.50728 7.2902 8.44858 8.50623 8.7631 11.9565C8.99028 14.4485 9.70669 18.4069 10.0307 20.6445C10.4098 23.2619 10.4032 24.0068 10.4765 24.6652C10.5441 25.272 10.7918 27.2196 11.2801 29.8817C11.7103 32.2273 12.1613 34.17 12.3094 35.5402C12.5385 37.66 12.9942 40.2816 13.1159 41.7436C13.1408 42.5691 13.1408 44.0208 13.1166 44.8412C13.0924 45.6616 13.0441 45.8068 12.9942 45.8097" stroke="#0012D4" stroke-linecap="round"/>
<path d="M12.8476 44.9299C12.7009 43.8609 12.5074 41.616 11.8724 39.7061C11.7535 39.3483 11.6276 39.2141 11.4809 39.1152C10.7348 38.6115 9.62456 39.0147 8.84374 39.2347C7.13664 39.7155 6.15522 40.2846 4.20354 42.1607C3.38755 42.9451 2.73281 43.2671 1.78042 43.7063C1.42102 43.872 1.06999 43.9519 0.704137 44.0494C0.531021 44.0955 0.386676 44.1469 0.626421 44.2928C2.48583 45.4243 4.43375 45.1264 5.63321 44.7847C7.10764 44.3648 7.90602 44.3434 8.61719 44.0516C9.3269 43.6601 10.2991 42.5442 11.3981 41.0786C11.8197 40.5324 11.9648 40.3872 12.261 40.091" stroke="#0012D4" stroke-linecap="round"/>
<path d="M13.1408 40.2376C13.1863 39.8989 14.1643 39.0176 14.6299 38.4318C15.2799 37.6139 15.7773 36.6744 16.6549 35.7939C18.487 33.9556 19.6367 34.079 20.372 33.9573C21.2437 33.8131 21.8391 33.689 22.084 33.6391C22.7464 33.5043 21.1587 34.8093 20.6697 36.7353C20.3885 37.8429 19.449 38.7684 18.74 39.599C18.0998 40.3492 17.2495 40.9679 16.4928 41.4334C15.7739 41.8758 14.7582 41.8506 14.0015 41.778C13.4869 41.5603 13.0455 41.1687 12.7757 40.8506C12.7478 40.7743 12.9414 40.8711 13.1408 40.9708" stroke="#0012D4" stroke-linecap="round"/>
<path d="M12.4077 35.692C12.9927 33.6406 13.5778 32.9588 14.6269 31.9082C15.8209 30.7125 17.097 30.3663 17.7084 30.0723C17.88 29.9748 18.0736 29.8296 18.2459 29.7065C18.4181 29.5833 18.5633 29.4865 19.0061 29.2402" stroke="#0012D4" stroke-linecap="round"/>
<path d="M12.1144 34.9589C9.91636 34.1773 8.55707 34.0791 6.81873 34.2008C5.29361 34.3076 4.19767 34.1773 3.73577 33.8621C3.41905 33.5952 2.93516 33.1113 2.63749 32.7894C2.33983 32.4676 2.24305 32.3224 1.9967 32.1729" stroke="#0012D4" stroke-linecap="round"/>
<path d="M10.7947 27.9205C11.9604 26.6066 13.7244 25.3309 14.4334 24.9893C15.1252 24.6559 15.7773 24.3045 16.9973 23.5251C17.2935 23.2795 17.487 23.0376 17.6593 22.792C17.8316 22.5464 17.9768 22.3044 18.1264 21.9085" stroke="#0012D4" stroke-linecap="round"/>
<path d="M11.088 27.6272C8.40458 27.3325 6.84147 27.724 4.74168 27.7497C4.0983 27.7575 3.70938 27.5304 3.29514 27.2145C2.83252 26.6565 2.53485 26.1624 2.41315 25.8698C2.33983 25.7225 2.24305 25.5773 2.14334 25.1345" stroke="#0012D4" stroke-linecap="round"/>
<path d="M10.3548 21.0287C10.5484 20.3952 11.2317 19.9055 12.0132 19.4179C12.9822 18.8135 13.6746 18.3424 14.3359 17.6591C14.9972 16.9244 15.2905 16.4845 15.4613 16.192C15.5353 16.0446 15.5837 15.8995 15.6336 15.8965" stroke="#0012D4" stroke-linecap="round"/>
<path d="M9.62164 21.0287C7.66995 20.7853 5.82091 20.5888 4.76075 20.2486C4.14782 19.5639 3.9528 18.8336 3.78197 18.077C3.70792 17.7559 3.65954 17.5623 3.60968 17.0696" stroke="#0012D4" stroke-linecap="round"/>
<path d="M9.0351 13.8437C9.71254 13.1662 10.2551 12.6237 10.6693 12.2337C11.1319 11.8436 11.4296 11.499 11.5271 11.1823C11.5762 11.0107 11.6246 10.8172 11.6745 10.1779" stroke="#0012D4" stroke-linecap="round"/>
<path d="M8.44857 12.3774C7.1318 11.499 6.25201 11.0107 5.71313 10.4491C5.61415 10.2776 5.56576 10.084 5.51664 9.91173C5.46752 9.73943 5.41913 9.59427 5.22264 9.4447" stroke="#0012D4" stroke-linecap="round"/>
</svg>
