<svg width="31" height="42" viewBox="0 0 31 42" fill="none" xmlns="http://www.w3.org/2000/svg">
<path d="M13.525 41.2512C13.9121 40.8641 14.4019 40.2292 15.0111 39.2306C15.7424 38.032 16.2597 35.8888 16.6263 32.6497C16.8332 30.8213 16.7509 28.5879 16.6542 26.8848C16.4936 24.0583 15.9225 22.293 15.4591 20.7108C14.8268 18.5517 14.6028 16.4291 14.212 15.0867C13.7235 13.4085 13.1848 12.2208 12.6965 11.4392C11.9984 10.3218 11.2317 9.77785 10.4729 8.77561C9.94794 8.08232 9.519 7.33494 9.15169 6.64796C8.8471 6.07831 8.49257 5.1853 8.00428 4.18159C7.18811 2.50391 6.53648 1.51654 6.31727 0.955664C6.20917 0.679085 6.04966 0.443181 6.48296 0.512099C9.3342 0.965595 9.95304 2.24384 10.5902 2.8553C11.5417 3.76853 12.0088 5.41991 12.3021 7.36866C12.4186 8.14309 12.352 9.21478 12.4003 9.47285C12.6575 10.8446 14.1526 6.60471 15.3286 5.71977C16.886 4.54783 18.0648 4.20579 18.8016 3.83627C18.9487 3.76249 19.0941 3.66618 19.1689 3.88246C19.6719 5.33704 18.8537 6.39649 17.9768 8.3731C17.6209 9.17544 17.2407 9.62535 16.9731 9.9912C16.6657 10.4115 16.1659 10.5066 15.7524 10.5799C14.4078 10.5081 13.528 10.2148 12.9671 10.0682C12.6965 10.0183 12.4546 10.0183 12.2053 10.0183" stroke="#0012D4" stroke-linecap="round"/>
<path d="M11.0322 10.4582C7.86204 9.57844 6.09951 9.67522 4.07524 10.7471C3.37626 11.1172 2.67856 11.2882 2.09129 11.5074C1.01494 11.9092 6.02912 13.388 8.70224 13.465C10.269 13.5101 10.8827 12.7076 11.4699 12.1958C11.6173 12.0243 11.7625 11.8307 11.8856 11.5617C12.0088 11.2926 12.1056 10.9539 12.2053 10.165" stroke="#0012D4" stroke-linecap="round"/>
<path d="M14.1116 15.737C12.4531 15.347 11.3783 14.9569 10.5469 14.6629C9.13544 14.1638 6.30775 13.9774 4.65739 14.5368C3.83383 14.816 3.50706 15.5875 2.38531 16.7833C1.51962 17.7061 0.622784 18.6198 0.548001 18.8149C0.0274739 20.1723 3.89124 19.5495 4.84582 19.3061C6.31267 18.932 8.68027 18.1359 9.4655 17.7422C10.3457 17.3009 11.3197 16.8162 12.0565 16.4225C12.2039 16.325 12.349 16.1799 12.4964 16.0809C12.6438 15.9819 12.7889 15.9335 12.9385 15.8837" stroke="#0012D4" stroke-linecap="round"/>
<path d="M14.5515 15.8836C15.6248 13.5888 16.792 12.3234 17.8962 11.3893C18.5668 10.822 19.2408 10.6547 19.9739 10.5807C21.0488 10.4721 22.4169 10.555 23.2483 10.6291C24.2951 10.7223 25.4434 11.3351 26.5468 11.7515C27.3725 12.0632 27.942 12.5111 28.1143 12.5353C29.2267 12.6915 25.1178 13.9246 23.3311 14.9027C21.8064 15.7373 18.3815 15.8836 16.998 15.7136C16.1175 15.3954 15.5794 15.2487 15.311 15.1028C15.1878 15.0053 15.0911 14.8602 14.9914 14.7106" stroke="#0012D4" stroke-linecap="round"/>
<path d="M15.4313 22.0422C14.8462 21.6522 13.4869 21.1654 12.4766 20.7724C11.7194 20.4779 10.4047 20.2856 9.2045 20.0143C7.22307 19.5664 6.19632 20.4762 5.48735 20.746C4.78127 21.0147 4.04668 21.6962 3.53126 22.3333C2.93147 23.0747 2.334 24.0423 1.99088 25.0929C1.83103 25.5824 1.79586 26.145 1.67269 26.4398C1.25484 27.4396 4.17865 24.881 5.72416 24.4382C6.83071 24.1212 8.52779 24.8253 11.4377 24.9265C12.7252 24.9713 13.3755 24.3414 14.2538 23.829C14.5955 23.6097 15.0794 23.271 15.4254 22.9997C15.7715 22.7285 15.965 22.5349 16.1644 22.3355" stroke="#0012D4" stroke-linecap="round"/>
<path d="M16.3111 22.3354C16.3595 21.1155 16.6513 20.3354 17.2129 19.5523C17.85 18.6641 18.7012 17.7458 19.9718 16.8396C21.039 16.0785 22.5577 15.9833 25.4654 15.9078C26.7579 15.8742 28.0828 17.391 29.0411 18.641C29.4078 19.1195 29.6532 19.6447 29.5345 19.8661C29.0658 20.7398 26.6854 19.5465 24.4654 20.2283C21.3804 21.1758 20.4227 21.9923 19.3713 22.1639C18.1352 22.1888 17.1924 22.1404 16.8998 22.0187C16.7525 21.9454 16.6073 21.8486 16.3111 21.7489" stroke="#0012D4" stroke-linecap="round"/>
<path d="M16.4577 28.9339C16.2641 28.45 15.9709 28.0556 15.5808 27.8115C14.6558 27.2324 11.783 28.0981 9.20741 29.6605C7.38295 30.7672 7.31951 31.8637 6.85468 33.0096C6.49725 33.8908 6.82829 34.6512 6.95 34.7743C7.43996 35.2702 8.14359 33.5323 9.09817 32.9436C9.81692 32.5003 10.9765 32.6965 11.8358 32.8681C13.3618 33.1728 15.182 30.9428 15.6989 30.2558C15.8213 29.9633 16.0163 29.5718 16.2847 29.1326C16.4078 28.9354 16.5046 28.7902 16.6043 28.6407" stroke="#0012D4" stroke-linecap="round"/>
<path d="M16.7509 28.9339C17.4328 27.714 18.4079 27.0306 19.3625 26.6135C19.7589 26.4402 20.1704 26.4412 20.6814 26.6105C22.5152 27.2183 23.4433 28.7814 23.9829 29.8819C24.1764 30.2765 24.3231 30.9252 24.326 31.2735C24.3289 31.6217 24.1354 31.6701 23.9389 31.695C23.1618 31.7936 22.3758 31.3798 21.5928 31.2559C21.2009 31.1939 19.9871 31.1334 18.3507 31.0367C17.5369 30.7463 17.2407 30.4017 17.0215 30.0124C16.899 29.7683 16.7539 29.4296 16.6043 28.9339" stroke="#0012D4" stroke-linecap="round"/>
</svg>
