<svg width="41" height="31" viewBox="0 0 41 31" fill="none" xmlns="http://www.w3.org/2000/svg">
<path d="M16.0379 29.8222C16.0379 29.3053 15.8799 27.7999 15.4809 25.959C15.1497 24.4311 15.2409 22.7263 14.9819 21.769C14.696 20.7127 14.5636 20.0531 14.4625 19.1957C14.4366 18.9755 14.4033 18.7775 14.383 17.2739C14.3626 15.7704 14.3626 12.9667 14.3429 11.4434C14.3102 8.92633 14.3219 7.24925 14.4218 6.41281C14.6452 4.54345 15.1596 3.46076 15.2397 2.8804C15.2596 2.7363 15.3582 2.58244 15.3989 2.65903C15.8688 3.54352 15.6789 4.68849 15.8572 5.66493C16.1065 7.03054 16.6721 9.0693 17.3296 10.9031C17.8483 12.3497 18.7446 13.8977 19.5649 14.8621C20.2865 15.7106 21.2982 15.9391 22.0575 16.3585C22.7474 16.7396 23.9679 17.0567 25.6575 17.296C27.6839 17.5831 29.1181 17.3379 29.991 17.2781C30.5865 17.2373 31.4958 17.2578 32.7732 17.4157C35.6859 17.7759 37.6931 18.373 38.3697 18.6518C38.9524 18.8919 39.3707 19.012 39.6094 19.1711C39.7297 19.2513 39.8482 19.3303 39.8894 19.0748C40.1856 17.2419 39.3743 15.7093 39.1733 14.2327C39.1078 13.752 38.9363 13.1222 38.4009 12.007C37.8654 10.8918 36.9571 9.31222 36.351 8.32082C35.5112 6.94703 34.9863 6.29195 34.391 5.47766C33.4865 4.24048 32.3956 3.26092 31.5999 2.58424C30.3478 1.51954 29.3658 1.34514 27.7109 0.825808C26.8435 0.553604 25.539 0.624776 24.3789 0.525457C22.4694 0.361981 20.7908 1.02205 19.87 1.32181C19.0716 1.58173 18.3545 1.90037 16.9407 2.43765C16.6374 2.53936 16.5189 2.53936 16.3394 2.5986C16.1599 2.65783 15.923 2.77629 15.4396 3.01801" stroke="#0012D4" stroke-linecap="round"/>
<path d="M15.6789 3.01801C16.0738 3.09698 17.6988 3.13767 19.9909 3.17716C21.6764 3.20619 22.5355 3.65461 23.3145 4.05368C24.1088 4.46057 25.563 5.6027 26.604 6.54444C28.185 7.97456 28.7196 8.80006 29.3975 9.6359C29.8977 10.2526 30.4739 10.9516 31.2918 11.7904C31.7783 12.2894 32.3095 12.6292 33.186 13.4453C33.6951 13.9193 34.2624 14.5414 34.8427 14.9034C35.6165 15.386 36.4976 15.8601 36.9769 16.1C37.5345 16.3792 38.4074 17.3702 38.9124 18.0936C39.0512 18.3323 39.1721 18.5728 39.2516 18.6733C39.2917 18.6554 39.3312 18.4974 39.3719 18.3347" stroke="#0012D4" stroke-linecap="round"/>
<path d="M22.021 3.61633C22.4195 5.13005 22.4996 6.63659 22.222 8.65529C22.0461 9.93454 21.4634 10.394 21.2043 11.1323C20.9866 11.7528 20.6664 12.4665 20.2279 13.3855C19.9891 13.7445 19.8276 14.0257 19.748 14.2644C19.7079 14.3847 19.6684 14.5032 19.3884 14.8645" stroke="#0012D4" stroke-linecap="round"/>
<path d="M22.6193 3.6163C22.8574 3.53732 24.9144 2.82414 26.3258 2.49986C27.4045 2.30002 27.8425 2.26053 28.4181 2.2007C28.7962 2.18036 29.349 2.18036 29.9186 2.18036" stroke="#0012D4" stroke-linecap="round"/>
<path d="M27.6451 7.4455C26.8481 9.59462 26.6878 11.5834 26.5884 12.9834C26.6076 15.5813 26.7667 16.1377 26.8272 16.757C26.8469 16.8976 26.8864 17.016 27.0467 17.2578" stroke="#0012D4" stroke-linecap="round"/>
<path d="M27.6451 7.44545C29.9557 6.72748 30.9118 6.64851 31.9661 6.5085C32.5799 6.48816 33.6856 6.48816 34.3144 6.5079C34.9432 6.52765 35.0617 6.56714 35.4231 6.48816" stroke="#0012D4" stroke-linecap="round"/>
<path d="M31.4742 12.1123C31.4742 13.3819 31.5532 15.0608 31.7327 15.7195C31.8715 16.097 31.9529 16.4189 31.9726 16.6577C31.9924 16.7779 32.0319 16.8964 32.0726 17.0184" stroke="#0012D4" stroke-linecap="round"/>
<path d="M31.4742 11.7533C33.268 11.3943 33.8244 11.3154 34.4436 11.2549C35.3394 11.1675 36.6173 11.234 37.1959 11.2944C37.3365 11.3142 37.4549 11.3536 37.5752 11.3937C37.6955 11.4338 37.8139 11.4733 37.936 11.7533" stroke="#0012D4" stroke-linecap="round"/>
<path d="M14.3626 3.85563C14.3231 3.53853 14.085 2.90073 13.5471 2.34191C13.0975 1.87481 11.1868 1.26855 9.46247 0.884434C8.30249 0.626034 6.63367 1.18 5.11935 1.71788C3.44126 2.31393 2.31987 3.29562 1.66113 4.07103C0.638148 5.27519 0.563233 7.23488 0.501607 8.49911C0.454738 9.46061 1.43437 10.8678 3.24725 12.923C3.73651 13.4777 4.42591 14.0221 5.55851 15.0757C8.009 17.3553 8.8151 17.9733 9.35478 18.5716C9.9324 19.212 10.6483 20.716 11.4285 23.1732C11.6873 23.9884 11.8892 24.3166 11.949 24.3776C12.4415 24.8799 12.3667 22.4128 12.5474 21.3502C12.8254 19.7152 12.6874 18.8181 12.8064 18.0182C12.8907 17.4522 13.0846 16.6642 13.2252 15.6286C13.434 14.0906 13.525 12.4773 13.5052 11.5206C13.4756 10.0832 13.4843 8.0079 13.6243 7.38805C13.8051 6.58754 13.9223 5.69603 14.1424 4.85541C14.4021 4.33548 14.6007 3.937 14.8197 3.63845C14.9202 3.49785 14.9992 3.37938 15.0806 3.25733" stroke="#0012D4" stroke-linecap="round"/>
<path d="M13.166 5.53086C11.6164 5.4112 8.99222 5.88506 7.5862 6.545C5.67192 7.44349 5.23245 8.67797 4.77116 9.25833C4.23088 9.93805 3.91378 10.7936 3.6936 11.2728C3.43394 11.7521 3.27479 12.2295 3.25385 12.6896C3.27359 12.7118 3.31308 12.5933 3.35376 12.4712" stroke="#0012D4" stroke-linecap="round"/>
<path d="M13.0463 10.796C12.2565 10.6381 11.6917 10.5567 11.3734 10.5962C10.4897 10.7058 9.69818 11.6313 9.12021 12.1691C7.81974 13.3794 7.70222 14.5821 7.64179 15.102C7.62205 15.2223 7.58256 15.3408 7.54247 15.4808C7.50239 15.6208 7.4629 15.7787 7.30255 16.0611" stroke="#0012D4" stroke-linecap="round"/>
<path d="M13.166 14.5055C11.6116 15.2223 11.0551 15.9366 10.7536 16.6169C10.6148 17.0926 10.5334 17.8117 10.5137 18.5291C10.4939 18.8121 10.4544 18.9306 10.4138 19.0526" stroke="#0012D4" stroke-linecap="round"/>
</svg>
