<svg width="44" height="39" viewBox="0 0 44 39" fill="none" xmlns="http://www.w3.org/2000/svg">
<path d="M21.267 22.2142C22.2985 21.1013 23.8158 20.1416 24.7138 19.6235C25.4758 19.1839 26.3287 19.0647 27.8227 18.7847C29.0588 18.553 30.9117 19.3782 32.2908 20.2763C33.5956 21.1259 34.4657 21.8528 34.8671 22.411C35.7924 23.6975 36.263 25.402 36.9002 26.2994C37.4315 27.0477 38.4552 27.6372 38.9751 27.9962C39.5809 28.4145 40.1688 29.1115 40.8694 29.3735C41.4485 29.5902 42.2054 29.2742 42.8049 29.0552C43.0794 28.955 41.8141 29.9072 40.7006 30.922C39.5163 32.0013 38.5007 32.5039 37.5296 32.8611C35.609 33.5675 33.9547 33.8609 33.0608 33.9207C30.8465 34.0689 29.7295 34.0607 28.61 33.8226C27.7078 33.6306 25.9075 32.5936 23.9456 31.5113C22.5235 30.7267 22.107 29.8749 20.6938 26.7739C20.1614 25.6055 20.3097 24.4949 20.5281 23.6723C20.7477 23.1727 20.987 22.6952 20.9888 22.2357C20.8709 22.1352 20.5945 22.0562 20.0704 21.9749" stroke="#0012D4" stroke-linecap="round"/>
<path d="M20.7883 22.3338C20.0716 21.8157 19.4362 21.6565 17.5449 21.0995C16.5372 20.8027 14.3051 20.7782 12.7142 21.0163C12.0595 21.1143 11.5768 21.5752 10.5214 22.5689C9.88274 23.1703 9.62151 24.7175 9.32176 25.7813C9.11962 26.4986 8.66422 27.3548 8.22566 27.9956C7.72511 28.727 6.59646 29.6667 4.52213 30.8262C3.75037 31.2576 3.15978 31.2283 2.95994 31.3671C2.47677 31.7027 3.67432 32.462 4.35161 33.1405C4.85069 33.6404 5.66669 34.0583 6.85792 34.5949C8.62414 35.3907 10.4903 35.7347 12.0016 35.9142C13.6603 36.1112 15.2767 35.8173 16.4721 35.499C17.8902 35.1214 18.7517 34.3024 19.4296 33.7238C19.9805 33.2536 20.4676 32.8664 20.9062 32.4668C21.4915 31.9334 21.9036 30.9159 22.104 30.134C22.1441 29.9934 22.1836 29.8749 22.2039 29.7546C22.2243 29.6344 22.2243 29.5159 22.2243 29.3939" stroke="#0012D4" stroke-linecap="round"/>
<path d="M20.1901 23.5305C18.4394 23.8476 16.8467 24.7223 14.9513 26.4556C14.1174 27.2181 13.9294 28.1135 13.5303 28.7932C13.2509 29.5111 12.7734 30.3081 12.4731 30.8478C12.3738 30.9878 12.2158 31.1457 12.1727 31.4281" stroke="#0012D4" stroke-linecap="round"/>
<path d="M20.908 22.8125C21.7409 22.4547 23.3348 22.2142 24.7121 22.472C25.9564 22.705 27.6354 24.1192 28.704 25.183C29.3866 25.8626 30.0382 26.8762 30.5791 27.3782C30.9979 27.7976 31.4765 28.0369 31.7751 28.1566C31.9157 28.1973 32.0342 28.1972 32.1562 28.1972" stroke="#0012D4" stroke-linecap="round"/>
<path d="M21.267 21.8552C20.4306 21.258 19.8742 20.7806 18.5202 19.487C18.0179 19.0072 17.0465 17.9949 15.811 16.5009C15.0496 15.5801 14.8855 14.7987 14.8256 13.8259C14.6649 11.2125 15.2409 10.0948 15.6615 8.99511C16.0789 7.90369 17.0358 6.7012 17.6945 5.94314C18.4077 5.12237 19.3082 4.58677 20.8548 3.83231C21.9429 3.30153 23.744 2.68296 24.8371 2.29764C26.2717 1.79197 26.8887 1.67301 27.84 1.47437C31.1538 0.782433 32.0725 0.955041 33.2475 0.874867C35.1111 0.747722 36.062 0.596056 37.5949 0.535626C37.9386 0.522076 38.0962 0.476394 38.1184 0.515284C38.6106 1.38004 36.1075 2.30722 35.5091 3.38298C35.2136 3.91441 34.7912 5.2509 34.4322 7.26181C34.1543 8.81846 34.2707 9.72744 34.2108 10.5597C33.9845 13.708 33.7932 14.6731 33.454 15.2714C33.1039 15.8888 32.8359 16.3483 32.298 17.0065C31.6405 17.5054 30.8029 17.9853 30.3051 18.1247C30.0837 18.1851 29.9257 18.2246 29.6433 18.385" stroke="#0012D4" stroke-linecap="round"/>
<path d="M20.908 21.7355C20.908 19.7432 21.066 18.4736 21.5644 16.7157C21.8599 15.6735 22.2626 14.721 22.7012 13.6422C22.8892 13.1797 23.3383 12.3684 24.0928 10.9175C25.0806 9.01802 26.3682 7.65973 27.125 6.92261C28.0887 5.98413 29.4758 4.9087 32.027 3.78987C33.5002 3.14379 34.5064 2.86967 35.0263 2.57111C35.5056 2.19119 35.983 1.87408 36.482 1.5139C36.622 1.43373 36.7799 1.35475 37.182 1.03406" stroke="#0012D4" stroke-linecap="round"/>
<path d="M21.5063 18.1457C22.612 17.119 23.6555 16.3136 24.4722 15.8553C25.0124 15.5945 25.4133 15.4736 25.8112 15.4138C26.0116 15.3934 26.2091 15.3934 26.2928 15.3934" stroke="#0012D4" stroke-linecap="round"/>
<path d="M21.267 16.9491C21.2275 14.6372 20.9894 13.9216 20.5311 11.6732C20.3911 11.1287 20.2331 10.8128 20.1123 10.5316C19.9914 10.2504 19.9124 10.0135 19.8311 9.53003" stroke="#0012D4" stroke-linecap="round"/>
<path d="M24.1389 10.1283C23.823 9.02263 23.6207 8.29509 23.5609 7.81883C23.5406 7.50053 23.5406 7.02667 23.5998 6.78256C23.659 6.53845 23.7775 6.53845 23.8995 6.53845" stroke="#0012D4" stroke-linecap="round"/>
<path d="M24.1389 10.7266C25.7184 10.4897 26.927 10.4466 27.5845 10.586C27.8472 10.6465 27.9656 10.6859 28.0859 10.726C28.2062 10.7661 28.3246 10.8056 28.5663 10.8463" stroke="#0012D4" stroke-linecap="round"/>
<path d="M27.9681 5.70085C28.0471 5.10853 28.126 4.5162 28.2062 4.15183C28.2864 3.78746 28.3654 3.669 28.5664 3.30762" stroke="#0012D4" stroke-linecap="round"/>
<path d="M28.4467 6.1795C28.9996 6.29797 29.5524 6.41643 29.9557 6.51695C30.3589 6.61747 30.5958 6.69644 30.9153 6.73713C31.2348 6.77781 31.6297 6.77781 32.2759 6.89747" stroke="#0012D4" stroke-linecap="round"/>
<path d="M14.6856 13.8378C14.4487 13.4429 14.0897 13.0816 13.6715 12.8225C13.39 12.6481 12.4599 12.6412 11.0263 12.6807C8.62346 12.7469 6.90998 13.8761 5.7355 14.9303C4.87214 15.7053 4.23673 16.5876 3.79817 16.9676C3.22862 17.461 2.48249 17.8249 1.6658 18.1247C1.26214 18.2729 0.846717 18.2653 0.705516 18.3245C-0.335514 18.7612 2.8343 19.6965 4.52811 22.3637C5.11779 23.2923 5.9455 24.0043 6.66587 24.5661C7.30486 24.806 7.74402 25.0058 8.19993 25.0657C8.53737 25.086 9.09021 25.086 9.6598 24.9664" stroke="#0012D4" stroke-linecap="round"/>
<path d="M16.8395 20.8979C14.4546 19.4272 12.5341 18.148 11.1616 17.3708C9.9805 16.9095 9.10697 16.8294 8.14728 17.0872C7.94625 17.1872 7.78829 17.3056 7.38623 17.4277" stroke="#0012D4" stroke-linecap="round"/>
<path d="M19.2719 34.0185C19.0583 36.1548 19.0284 37.469 19.1765 37.8328C19.2386 37.9854 19.2978 38.063 19.3654 38.1176C19.4965 38.2236 19.7292 38.2265 19.9715 38.2131C20.3428 38.1927 20.8062 37.8235 22.9588 36.4251C24.1074 35.679 24.5562 35.1805 25.083 34.6274C25.5022 34.2353 25.745 33.9116 25.8797 33.7097C25.9343 33.6147 25.961 33.5345 26.0695 33.2902" stroke="#0012D4" stroke-linecap="round"/>
</svg>
