<svg width="27" height="43" viewBox="0 0 27 43" fill="none" xmlns="http://www.w3.org/2000/svg">
<path d="M10.8024 41.9152C10.3765 41.4893 9.22029 39.4389 7.67306 36.196C6.59518 33.9368 6.41618 32.5841 6.18003 31.8769C5.88222 30.9851 5.89872 29.4509 5.98389 27.4346C6.13304 23.9034 6.92848 22.7368 7.33755 21.5109C8.15203 19.07 8.908 18.1325 9.83066 16.6285C10.4517 15.6162 11.0579 15.0768 11.7244 14.3032C12.4117 13.5054 12.9496 13.0121 13.4245 12.4953C13.6917 12.2045 14.0697 11.9785 14.3491 11.8488C14.448 11.8029 14.5007 11.9746 14.5014 12.1043C14.5043 12.6892 13.902 13.776 13.5348 15.413C13.3595 16.1949 13.169 17.2189 12.9329 18.0177C12.5913 19.173 12.1805 19.8024 11.6431 21.7335C11.2916 22.9964 11.2772 24.3137 11.1682 25.5228C11.0672 26.6423 10.9753 27.8443 10.9101 28.7922C10.8184 30.1257 11.0579 32.5234 11.4463 34.0178C11.9368 35.905 12.8645 37.6103 13.7239 38.5136C14.111 38.9007 14.4994 39.3743 14.9072 39.9111C15.1021 40.1499 15.2724 40.3202 15.4479 40.1086" stroke="#0012D4" stroke-linecap="round"/>
<path d="M8.47961 37.3988C9.50164 37.1433 10.2411 37.0116 10.6488 36.9903C10.8437 36.969 11.014 36.9265 11.336 36.9045C11.6579 36.8826 12.1264 36.8826 12.609 36.7535" stroke="#0012D4" stroke-linecap="round"/>
<path d="M6.54401 33.0113C7.05502 33.0113 7.56603 33.0113 8.0209 32.9687C8.47578 32.9261 8.85904 32.8409 9.31198 32.7971C9.76492 32.7532 10.2759 32.7532 10.8024 32.6241" stroke="#0012D4" stroke-linecap="round"/>
<path d="M6.02777 27.5914C6.70912 27.6766 7.39047 27.7618 8.12472 27.8056C8.85898 27.8495 9.62549 27.8495 10.4152 27.9786" stroke="#0012D4" stroke-linecap="round"/>
<path d="M6.93109 22.6877C8.12345 23.1988 8.90803 23.5046 9.27258 23.5904C9.46679 23.6336 9.67971 23.6762 9.87456 23.7194C10.0694 23.7627 10.2398 23.8053 10.5443 23.8491" stroke="#0012D4" stroke-linecap="round"/>
<path d="M8.86676 18.6875C9.63328 19.1985 10.2837 19.5469 10.7772 19.6973C11.0153 19.7624 11.2282 19.805 11.4018 19.8482C11.5754 19.8915 11.7031 19.9341 11.8348 19.9779" stroke="#0012D4" stroke-linecap="round"/>
<path d="M11.7057 14.8162L13.6413 15.5904" stroke="#0012D4" stroke-linecap="round"/>
<path d="M14.4156 12.3644C14.4156 14.2123 14.6285 15.4098 15.5686 17.8713C16.1988 19.5215 17.5307 21.8232 18.2521 23.1575C19.3907 25.2638 20.1348 25.6119 20.4568 25.6984C20.6032 25.7377 20.7361 25.6145 20.802 25.3577C20.9722 24.6934 20.8252 23.9382 20.6755 23.1672C20.4571 22.0424 19.4986 19.9069 18.1462 17.2654C17.1297 15.2799 15.9693 14.0471 15.1099 13.2302C14.639 12.7827 14.4156 12.4534 14.2879 11.9379C14.0146 10.8353 11.6722 11.203 9.58746 11.7579C8.62323 12.0145 7.17629 12.8238 5.87618 13.5367C3.45 14.8672 2.11651 16.0176 1.5584 16.5544C1.10773 16.9879 0.780913 17.2667 0.609286 17.5242C0.522827 17.6538 0.437659 17.7816 0.564121 17.89C1.46951 18.666 4.20314 17.7455 6.2375 16.9912C8.1185 16.2938 9.72102 14.2174 11.2695 13.0147C12.55 12.0203 12.9084 11.7204 13.1878 11.463C13.4075 11.2605 12.9148 10.4778 12.1199 9.40412C11.5504 8.63485 11.2773 7.08521 11.0192 5.00246C10.8204 3.39802 11.0166 2.43063 11.2521 1.85187C11.5515 1.11603 11.9625 0.665318 12.2412 0.536275C12.5355 0.400029 12.9936 0.662737 13.5297 1.11245C14.781 2.16192 14.8014 3.49781 14.995 5.44378C15.3521 9.03343 15.0182 11.5024 15.1879 11.6114C16.7307 12.6028 18.4521 10.3436 20.0019 10.321C21.0977 10.305 23.557 11.0275 25.2307 11.4811C25.6501 11.5947 25.8566 12.0185 26.0069 12.3405C26.0767 12.49 26.1147 12.6199 26.0727 12.7709C25.9755 13.121 25.6436 13.3954 25.3649 13.6103C25.0905 13.8218 24.57 13.8264 22.8195 13.8909C21.368 13.9445 18.7695 13.9129 17.3036 13.8703C15.5822 13.7425 15.1912 13.5696 14.9763 13.3767C14.8892 13.269 14.8466 13.1412 14.8027 13.0096" stroke="#0012D4" stroke-linecap="round"/>
</svg>
