<svg width="29" height="48" viewBox="0 0 29 48" fill="none" xmlns="http://www.w3.org/2000/svg">
<path d="M14.9982 9.44689C14.9227 9.29581 14.7704 9.18021 14.391 9.12298C12.9518 8.9059 11.5714 9.86351 10.8607 10.2847C10.1274 10.7192 9.77448 11.8459 9.52383 12.6482C9.33159 13.2635 9.54214 13.8706 9.63714 14.2511C9.85831 15.1372 11.2143 16.0418 11.8873 16.6558C12.0984 16.8484 12.3257 17.0764 12.7062 17.1909C13.4379 17.4109 14.2314 16.8887 15.1653 16.4309C16.0789 15.9831 16.7516 15.4386 16.9994 15.0958C17.5811 14.2912 17.5162 12.4662 17.3457 11.8144C17.1283 10.9835 16.3739 10.5182 15.84 10.2298C15.3851 10.097 14.9616 9.90586 14.676 9.67752C14.5415 9.56249 14.4282 9.44918 14.197 9.10353" stroke="#0012D4" stroke-linecap="round"/>
<path d="M14.5404 8.98907C14.5404 8.30692 14.6915 7.009 14.9776 6.11282C15.4378 4.67143 16.026 4.07209 16.4655 3.47807C16.8475 2.96175 17.1706 2.54298 18.0089 1.7624C19.0241 0.817173 21.062 0.404962 21.5753 0.518272C22.8461 0.798767 23.3122 1.54722 23.9045 2.29003C24.2809 2.76206 24.269 3.56735 24.2502 4.27239C24.2201 5.39437 22.9368 6.54432 22.2495 7.15551C21.6634 7.67668 21.181 8.26114 20.6849 8.77733C20.0933 9.39279 19.2765 9.93905 18.4536 10.4942C17.7577 10.9636 17.4029 11.3537 17.3068 11.4115C16.6789 11.789 19.4139 10.1382 20.3181 9.79083C21.512 9.33213 23.1977 9.75134 23.79 9.80914C24.3566 9.86443 25.2556 10.2458 25.8886 10.5903C26.4895 10.9174 27.0892 11.3903 27.5865 12.0387C28.0058 12.5854 28.046 14.0526 27.8183 15.034C27.6614 15.7101 26.4116 16.1974 25.4748 16.5797C24.0144 17.1757 22.8269 17.1154 21.7928 17.2104C20.6124 17.3188 19.771 16.9254 19.1592 16.7348C18.2298 16.4453 17.8985 15.972 17.7651 15.7436C17.7002 15.6325 17.6696 15.5153 17.8201 15.5702C18.9044 15.966 19.3452 16.4653 21.3235 18.2714C21.9593 18.8518 22.0933 19.3644 22.2649 19.9527C22.7841 21.7316 21.9433 22.568 21.5244 23.2353C20.5024 24.8632 19.3131 25.7727 18.7769 26.0612C18.2714 26.333 17.5574 26.1962 16.8701 26.0245C16.0391 25.8169 15.3439 24.5961 14.9993 23.7188C14.7803 23.1609 14.5038 22.6504 14.1982 22.0964C13.758 21.2986 13.6637 19.4937 13.5297 18.3772C13.5025 18.1497 13.5103 17.809 13.4725 17.7283C13.127 16.9902 12.5603 20.1599 11.6441 21.2895C11.0901 21.9726 10.1957 22.5291 9.31666 23.1414C8.74016 23.543 8.24765 23.7148 7.50427 24.0765C6.92627 24.3577 5.28327 24.5549 4.14617 24.1561C3.88012 24.0627 3.66832 23.8693 3.45886 23.641C3.0034 23.1445 3.24598 21.966 3.55157 21.1619C3.8073 20.4891 4.46607 19.8646 4.84835 19.3873C5.39789 18.7012 6.10506 17.9578 6.73628 17.3843C7.22854 16.9371 8.01188 16.4309 8.6059 16.1814C9.18074 15.94 9.50322 15.7041 9.58048 15.6658C10.0685 15.4236 8.51548 16.0074 7.99929 16.313C7.46981 16.6265 6.98865 16.8086 6.39749 17.0192C5.4614 17.3527 4.35619 17.0787 3.84114 16.8493C3.09153 16.5153 2.56383 16.2776 1.30654 15.0792C0.661706 14.4646 0.540267 13.7618 0.500208 11.4207C0.484886 10.5252 1.33458 9.71929 2.29028 9.01025C3.01192 8.47485 3.77705 8.38017 5.18713 8.37788C6.86767 8.37516 7.55635 9.25461 8.16639 9.73074C8.62141 10.0859 8.89318 10.4758 8.91321 10.6098C9.00506 11.2238 7.60213 9.64146 6.72197 8.82025C6.23452 8.36545 5.76856 7.69573 5.40402 6.76064C5.14251 6.08981 5.194 5.36772 5.17397 3.82544C5.16094 2.82194 6.37288 1.89516 6.98407 1.41789C7.57266 0.958258 8.08971 0.787241 9.062 0.767211C9.6433 0.755236 10.0744 1.16723 10.6277 1.41503C11.2427 1.69039 11.9812 2.3484 12.6685 3.07233C13.3636 3.80456 13.318 4.59859 13.5097 5.11478C13.7098 5.65347 13.8147 6.12541 13.9675 6.69769C14.0059 6.85106 14.0436 7.00214 14.082 7.13662C14.1203 7.27111 14.1581 7.38442 14.197 7.73007" stroke="#0012D4" stroke-linecap="round"/>
<path d="M13.2814 19.0611C13.2436 19.0233 13.2058 18.9856 13.1675 19.0228C12.6667 19.5086 12.4436 21.0389 12.1757 21.9007C11.9649 22.5791 11.9468 23.5203 11.8129 24.532C11.6997 25.3872 11.679 26.0016 11.5651 26.5556C11.3681 27.5141 11.3746 28.5196 11.2218 29.3969C11.1676 29.7077 11.1067 31.6706 11.1256 34.5314C11.1348 35.9258 11.2967 36.4559 11.4112 37.4065C11.6621 39.4907 11.869 40.0796 11.9268 40.6719C11.9821 41.2384 12.2879 42.5152 12.5746 43.6654C12.8092 44.6066 12.9746 45.6856 13.1663 46.6796C13.2425 46.9858 13.3569 47.2158 13.4336 47.3309C13.4347 47.3326 13.3592 47.2193 13.2814 47.1025" stroke="#0012D4" stroke-linecap="round"/>
<path d="M12.5946 42.7532C12.6324 42.4499 12.7846 41.8399 13.0513 41.0782C13.5256 39.7235 13.9292 38.5596 14.9558 36.9035C15.447 36.1111 15.9115 35.5082 16.3888 35.0859C16.9012 34.6325 17.665 34.2859 18.4284 33.8086C19.5664 33.0972 21.2429 32.5713 22.6627 32.2429C23.1821 32.1227 23.5812 32.1856 23.8284 32.1284C23.9602 32.0979 24.1134 32.1089 24.1912 32.3922C24.6212 33.9571 24.1546 34.7002 24.0407 35.368C23.8017 36.7696 23.2023 38.2872 22.5928 39.1256C22.098 39.8063 21.0712 40.9151 20.3415 41.5309C19.6356 42.1266 18.8553 42.6365 18.1297 43.1138C17.2222 43.7107 16.5662 43.8589 15.8406 43.9928C14.8991 44.1665 14.0127 44.1267 13.0399 44.0323C12.6975 43.999 12.7091 43.749 12.7469 43.5951C12.8773 43.0634 13.2035 42.5655 13.528 41.9732C13.8419 41.4003 14.6869 40.5465 15.3398 39.8175C15.5682 39.6263 15.7982 39.473 16.0266 39.3207C16.1416 39.2441 16.2549 39.1685 16.3717 39.0907" stroke="#0012D4" stroke-linecap="round"/>
<path d="M12.2513 42.9821C12.0613 42.8688 11.7568 42.3366 11.3562 41.5543C11.0303 40.9179 10.4223 40.352 9.9639 39.6847C9.38924 38.8482 8.32548 37.9118 7.78926 37.5656C7.28209 37.2381 6.53312 36.8428 5.95799 36.4783C5.54438 36.2161 4.66522 36.2293 4.01226 36.0204C3.88964 35.9812 3.78392 35.9249 3.70666 35.9998C3.25553 36.4376 4.23258 38.3513 5.13334 40.0584C5.80171 41.3251 6.06844 41.8353 6.54571 42.1987C7.36187 42.8201 8.24308 43.7055 9.00535 44.1061C9.72351 44.4835 10.4177 44.7745 11.0089 44.9084C11.37 44.9279 11.6779 44.9657 11.9817 45.0229C12.1723 45.0423 12.4367 45.0423 12.3657 45.0423" stroke="#0012D4" stroke-linecap="round"/>
</svg>
