<svg width="28" height="49" viewBox="0 0 28 49" fill="none" xmlns="http://www.w3.org/2000/svg">
<path d="M16.3296 8.76772C15.4503 8.46431 13.5214 8.40326 11.5661 8.73583C10.7603 8.87289 10.1666 9.64606 9.77069 10.1176C9.30265 10.675 8.98027 11.6196 8.93426 12.1672C8.85283 13.1362 8.91831 14.2929 9.37252 15.4286C9.97059 16.9241 9.92057 17.4218 10.2386 17.8773C10.6144 18.4158 11.0431 18.7885 11.7998 19.1534C13.5682 20.0062 14.9592 19.3078 15.8093 19.065C17.3902 18.6134 18.119 17.6386 18.4393 17.0919C18.9611 16.2013 18.9719 14.969 19.0475 13.9813C19.2042 11.934 18.6694 11.0182 18.3655 10.5914C18.1053 10.2259 17.6689 9.65153 17.1364 9.19459C16.8489 8.92261 16.5437 8.70758 16.2407 8.61647C16.0881 8.58549 15.9378 8.58549 15.6006 8.6766" stroke="#0012D4" stroke-linecap="round"/>
<path d="M14.2339 8.31215C14.1437 8.34222 14.0535 8.37228 13.9619 8.3126C13.7292 8.16094 13.6872 7.25613 13.8075 5.72723C13.9514 3.89756 14.5665 2.66579 14.8394 2.21068C15.2398 1.54294 15.9924 0.81344 16.6462 0.567887C16.8672 0.484852 17.1177 0.476317 17.4206 0.551487C18.0992 0.719842 18.0899 1.59702 18.2275 2.27992C18.5367 3.81484 17.8493 4.817 17.4548 5.89352C17.2106 6.4279 16.9692 7.12311 16.6808 7.85156C16.5728 8.12901 16.5428 8.21921 16.6029 8.22103" stroke="#0012D4" stroke-linecap="round"/>
<path d="M18.0607 9.76998C18.15 9.58957 18.7568 9.04288 20.6948 7.81603C21.8553 7.08138 22.4616 6.94725 23.0397 6.76366C23.7093 6.55101 24.62 6.76229 24.7718 6.94407C25.0506 7.27818 25.0765 7.76364 25.1371 8.14359C25.1732 8.36953 24.7157 8.97546 23.9435 9.92988C22.6151 11.5718 21.8894 11.7125 21.3732 11.9257C21.003 12.0787 20.6138 12.0478 20.2338 12.1385C20.0069 12.1991 19.7627 12.2301 19.5354 12.2451C19.4284 12.2601 19.3382 12.2902 19.1541 12.2301" stroke="#0012D4" stroke-linecap="round"/>
<path d="M19.3364 13.4145C19.2762 13.4145 19.2161 13.4145 19.2302 13.3995C19.4338 13.1828 20.0015 13.2633 21.7887 13.2925C23.2247 13.3159 24.2784 13.7772 25.1353 14.112C25.704 14.3343 26.2902 14.8706 26.6091 15.2355C26.9153 15.5859 27.2615 16.0842 27.3243 16.9799C27.3635 17.5376 26.7184 17.7862 26.3535 17.9848C26.0008 18.1768 25.4447 18.2126 24.6542 18.2286C23.6943 18.2479 22.6183 17.788 22.0871 17.7124C21.496 17.6283 20.827 17.4546 20.4311 17.2423C20.0361 16.999 19.7017 16.7867 19.5199 16.62C19.4284 16.5434 19.3382 16.4833 19.2452 16.4213" stroke="#0012D4" stroke-linecap="round"/>
<path d="M16.2385 19.1547C16.2385 19.275 16.2685 19.4873 16.4193 20.0007C16.6987 20.9519 17.3883 22.3055 18.1765 23.5952C18.688 24.4322 19.3045 24.5906 19.7578 24.6667C20.5015 24.7915 21.247 24.4713 21.7172 24.1533C22.5035 23.6214 22.3431 22.198 22.1618 21.2836C22.0057 20.4965 21.1003 19.9165 20.7345 19.4449C20.3413 18.8841 19.6717 18.2144 19.3992 17.942C19.2471 17.7899 19.0667 17.6094 18.7897 17.6058" stroke="#0012D4" stroke-linecap="round"/>
<path d="M10.8627 19.1547C10.7115 19.3361 10.409 19.6996 9.99941 20.3652C8.79764 22.3182 8.88918 23.2531 8.84317 23.648C8.75852 24.3747 8.82722 25.2266 9.13018 25.6075C9.27175 25.7854 9.49509 25.8362 9.7821 25.8817C10.9224 26.0627 12.0126 24.8385 12.6071 24.3196C13.1823 23.8175 13.6235 23.1073 13.9447 22.5428C14.1638 22.1576 14.2941 21.5875 14.3401 21.1606C14.4162 20.7656 14.4763 20.4012 14.5674 20.1588C14.5984 20.0367 14.5984 19.9165 14.5073 19.8837" stroke="#0012D4" stroke-linecap="round"/>
<path d="M8.58485 14.3257C8.58485 14.2656 8.46458 14.2346 8.23725 14.2496C7.35368 14.308 5.79675 15.7179 5.13936 16.2983C4.77417 16.6207 4.09473 17.0865 3.39361 17.7247C2.71842 18.3394 2.60228 18.8796 2.49568 19.4108C2.44485 19.664 2.51026 19.8828 2.58588 20.0645C2.66665 20.2587 2.90387 20.3994 3.282 20.4905C4.41882 20.7644 5.36305 20.219 6.00039 20.0212C6.89171 19.7447 7.21631 19.4591 7.73202 19.126C8.49282 18.609 8.79623 18.2454 9.13017 17.8805C9.22174 17.7889 9.31194 17.6987 9.31376 17.6058" stroke="#0012D4" stroke-linecap="round"/>
<path d="M9.31377 10.59C9.01127 10.4388 8.1056 9.89571 7.49285 9.57317C7.12559 9.37985 6.34345 9.01373 5.74665 8.75314C5.25294 8.53757 3.91798 8.49438 2.8934 8.63014C2.22204 8.71909 1.66199 9.10029 1.37362 9.37317C1.18941 9.54749 1.17453 9.79913 1.14401 10.0415C1.07206 10.6128 1.68933 11.195 1.9326 11.6059C2.23926 12.1239 2.93213 12.6528 4.03962 13.1243C5.99357 13.4145 8.03726 13.3845 8.23407 13.2788C8.34067 13.2032 8.46094 13.0829 8.58486 12.959" stroke="#0012D4" stroke-linecap="round"/>
<path d="M9.86045 9.3144C9.37573 9.28434 8.95113 9.10302 8.52563 8.84471C8.09327 8.58224 7.70651 7.92036 7.38624 7.41786C6.99511 6.80418 6.58216 5.46391 6.45916 4.79104C6.28261 3.82526 6.36713 2.84711 6.42818 2.36147C6.47115 2.01958 6.61041 1.75283 6.7161 1.55602C7.14351 0.76016 8.76344 0.840775 9.22129 1.00706C9.66173 1.16702 10.132 1.56787 10.557 1.96239C11.5992 2.92976 11.8941 4.35961 12.1224 5.01472C12.2595 5.51676 12.3205 6.18189 12.3962 6.98689C12.4117 7.33449 12.4117 7.90578 12.2294 8.58549" stroke="#0012D4" stroke-linecap="round"/>
<path d="M13.2317 23.8016C13.1715 24.2535 13.0495 25.2266 12.9738 26.1054C12.9065 26.8876 12.9283 27.5354 12.8376 28.7409C12.7606 29.7648 12.6868 31.6301 12.6704 32.831C12.654 34.0319 12.7142 34.513 12.7451 35.7981C12.7761 37.0833 12.7761 39.158 12.7911 40.2869C12.8111 41.7821 12.9274 42.2048 13.0034 42.8112C13.1215 43.7522 13.3829 44.2094 13.8977 45.6631C14.1631 46.4124 14.3852 46.7606 14.6581 47.3524C14.7196 47.4904 14.7496 47.5806 14.7802 47.6722C14.8107 47.7637 14.8408 47.8539 14.9629 47.7646" stroke="#0012D4" stroke-linecap="round"/>
<path d="M12.5939 40.0199C12.2613 39.4459 11.5351 38.4145 10.9707 37.7744C10.621 37.3779 10.3178 37.0751 9.65043 36.4687C9.50461 36.3363 9.4067 36.3152 9.36023 36.2546C9.15677 35.9893 9.52515 35.3767 9.55704 34.2087C9.58522 33.1764 9.22447 32.1622 8.78393 31.0028C8.58061 30.4677 7.97985 30.2124 7.49375 30.0128C7.07501 29.841 6.64229 30.0575 6.41496 30.1787C5.98557 30.4076 5.73115 30.9067 5.59357 31.5121C5.51989 31.8363 5.57808 32.4155 5.51794 32.6497C5.45781 32.8839 5.33753 32.7636 5.24551 32.6565C4.66654 31.983 3.57538 31.3039 3.02961 31.0461C2.12249 30.6175 1.47975 31.242 1.08477 31.5294C0.41981 32.0134 0.506654 32.698 0.505743 33.2451C0.504771 33.8288 1.38317 34.5494 2.00731 35.0073C2.60162 35.4432 3.35853 35.8268 3.67925 36.0555C4.08204 36.3428 3.0287 36.9202 2.69385 37.6177C2.54399 37.9299 2.5713 38.2569 2.64647 38.5899C2.85331 39.5062 3.84508 39.6245 4.43641 39.7311C5.28929 39.8848 6.57122 39.1143 7.45913 38.6391C7.89144 38.4077 8.21857 38.1084 8.55341 37.5922C8.64498 37.3794 8.7361 37.1963 8.84225 36.9995C8.88826 36.8929 8.91833 36.7726 8.85819 36.6487" stroke="#0012D4" stroke-linecap="round"/>
<path d="M12.5939 40.5666C12.5629 40.4163 12.7451 39.8705 13.6075 38.4614C14.1167 37.6294 14.7168 37.2282 16.0508 36.3029C16.5819 35.9345 16.9965 35.8897 17.1186 35.8291C17.2378 35.77 16.756 35.5872 16.5587 35.2993C16.2644 34.8698 16.3605 34.1923 16.2539 33.7344C16.157 33.3181 16.1473 31.9818 16.3437 31.0174C16.4428 30.5308 16.663 30.1805 16.8293 29.9837C17.2358 29.5026 17.8147 29.4816 18.4229 29.375C18.9645 29.2801 19.3947 29.6019 19.9418 29.9049C20.3756 30.1451 20.3987 30.7536 20.4898 31.514C20.5458 31.9813 21.2461 30.6388 21.7039 30.3472C22.2127 30.0232 23.1595 29.786 24.8273 29.739C25.2591 29.7269 25.4401 29.9053 25.6068 30.0871C25.7606 30.2547 25.8055 30.7828 25.7453 31.4957C25.6799 32.2711 24.898 32.7271 24.2889 33.2305C23.8646 33.5812 23.1959 33.8533 22.8001 34.0059C22.71 34.0406 22.6183 34.0665 22.6319 34.082C22.9066 34.3933 23.646 34.4601 24.2848 35.0519C24.7273 35.462 24.8633 36.1002 24.9699 36.5553C25.0732 36.996 24.9554 37.4068 24.8797 37.6341C24.7291 38.0868 24.1071 38.4382 23.6962 38.7434C23.2919 39.0437 21.3281 39.1088 20.1577 38.9425C19.6938 38.8766 19.0666 38.3216 18.4881 37.7749C17.9396 37.0141 17.8184 36.6505 17.6967 36.2856C17.6662 36.194 17.6361 36.1038 17.6052 36.102" stroke="#0012D4" stroke-linecap="round"/>
</svg>
