<svg width="30" height="39" viewBox="0 0 30 39" fill="none" xmlns="http://www.w3.org/2000/svg">
<path d="M10.0346 10.4142C10.0346 10.5037 10.0346 10.5931 10.0346 12.7405C10.0346 14.8879 10.0346 19.0905 10.2134 22.7086C10.3923 26.3267 10.7499 29.2328 10.9342 30.9087C11.2526 34.1156 11.5249 36.1071 11.7498 37.3251C11.7959 37.6435 11.7959 37.9118 11.7959 38.1882" stroke="#0012D4" stroke-linecap="round"/>
<path d="M10.1701 21.2528C9.22441 21.2528 8.23268 21.074 7.4855 20.5774C7.1533 20.3567 6.69631 19.6772 6.02025 18.2614C5.01194 16.1498 5.15723 13.6753 5.20194 12.141C5.23857 10.8838 5.92135 9.74495 6.95847 8.02906C7.97695 6.344 8.81255 4.55055 9.21899 3.24314C9.74407 1.55416 9.08622 0.706908 9.06387 0.547039C9.00478 0.124496 9.2637 2.58876 10.0509 5.04438C11.3848 9.20572 13.2374 9.86959 13.9385 10.5023C14.4508 10.9646 14.9987 12.3896 15.1606 14.877C15.2631 16.4519 12.6657 19.161 11.55 20.4372C11.3908 20.6188 11.2567 20.7976 11.1205 20.9568C10.9843 21.116 10.8502 21.2501 10.441 21.3883" stroke="#0012D4" stroke-linecap="round"/>
<path d="M11.1185 31.9559C11.2079 31.4628 11.5683 30.2895 12.6718 28.8229C13.462 27.7726 15.2155 26.3686 16.4666 25.297C17.6189 24.5518 18.5212 23.9191 19.3348 23.2424C19.517 23.1049 19.6511 23.0601 19.7893 22.8786" stroke="#0012D4" stroke-linecap="round"/>
<path d="M14.5055 27.0786C14.0991 25.2347 14.4567 22.8867 15.1342 21.8666C16.3114 20.0936 17.3019 20.0362 18.5199 19.4258C20.3993 18.484 23.4419 18.0473 24.2352 17.9789C25.2947 17.8875 27.1 17.6869 27.7808 17.5724C28.338 17.4787 28.864 17.3238 29.2724 17.2337C29.7448 17.1296 28.1025 17.8631 26.6366 19.3276C25.8308 20.1327 25.6151 20.9792 25.233 21.9932C24.5786 23.7303 24.0814 25.3146 23.6526 26.284C23.112 27.5061 21.7403 28.3819 20.7404 28.8168C20.0333 29.1244 19.2501 29.0648 17.3588 29.0661C16.4894 29.0667 15.9078 28.8398 15.502 28.7951C15.1856 28.661 14.8239 28.3453 14.4852 27.8949C14.37 27.6679 14.37 27.4444 14.37 27.2141" stroke="#0012D4" stroke-linecap="round"/>
<path d="M10.8475 31.685C10.5332 31.7297 9.09706 31.8205 8.00575 31.6186C6.68249 31.3738 5.61787 30.425 4.28066 29.543C3.21353 28.8392 2.58577 27.6232 1.97542 25.8667C1.56174 24.6761 1.23095 23.5642 0.68834 22.6104C0.576127 22.4131 0.418052 22.25 0.550147 22.2249C1.73737 21.9997 2.44487 22.6971 4.04424 22.7655C5.08405 22.81 5.69645 23.239 6.68886 23.6671C7.39255 23.9707 7.86417 24.816 8.40678 25.5409C8.86789 26.1568 9.53331 27.2981 10.0109 28.1597C10.4708 28.9896 10.6659 30.0565 10.8245 30.8457C10.8824 31.1341 10.8475 31.5414 10.7804 31.704C10.1281 31.5061 8.95616 30.696 7.37643 29.4997C6.96728 29.1596 6.6096 28.8019 6.24109 28.2979" stroke="#0012D4" stroke-linecap="round"/>
</svg>
