<svg width="33" height="38" viewBox="0 0 33 38" fill="none" xmlns="http://www.w3.org/2000/svg">
<path d="M16.4575 36.7172C16.4128 36.7172 16.3681 36.7172 16.2557 35.0406C16.1432 33.364 15.9644 30.0108 15.917 28.0375C15.8577 25.5728 16.0511 24.7528 16.2299 23.2279C16.6209 19.8944 17.2244 17.4367 17.4046 16.8955C17.6543 16.1454 17.9912 15.3598 18.5995 13.7827C19.3723 11.7794 20.8309 10.6233 21.6038 9.64579C21.74 9.4866 21.8741 9.35247 21.9879 9.21631C22.1017 9.08015 22.1912 8.94602 22.5543 8.53687" stroke="#0012D4" stroke-linecap="round"/>
<path d="M22.6631 8.53818C22.4732 8.46723 22.044 8.08671 21.8634 7.65638C21.5537 6.91843 21.6842 6.43848 21.6717 5.73405C21.6608 5.12218 22.3736 4.29006 22.7337 3.89305C22.9613 3.64217 23.4013 3.52328 24.0699 3.25992C24.3662 3.14318 24.6446 3.13988 24.8474 3.13953C24.9351 3.13937 24.9793 3.23376 25.0036 3.30578C25.1032 3.60005 24.7198 4.28146 24.4077 4.91746C24.3357 5.09697 24.2641 5.24101 24.1688 5.38398C24.1207 5.456 24.0734 5.52694 23.9531 5.74336" stroke="#0012D4" stroke-linecap="round"/>
<path d="M22.3765 8.32317C22.4238 8.46578 22.8036 8.8936 23.8054 9.21823C24.7401 9.52111 25.1699 9.13582 25.5164 9.09963C25.8547 9.0643 26.1731 8.84917 26.5196 8.67038C26.8668 8.49124 27.152 8.08669 27.5229 7.53704C27.7048 7.26737 27.7511 6.63195 27.7275 5.83256C27.6937 4.69129 27.7497 3.26384 27.9772 2.68768C28.2306 2.04597 28.515 1.73171 28.7533 1.43288C29.0953 1.00394 29.5893 0.680428 29.7211 0.548571C29.9716 0.298068 29.0195 1.05952 28.2198 1.84673C27.8739 2.1872 27.6565 2.44546 26.8468 3.26778C26.399 3.72245 26.0327 3.97473 25.7457 4.16607C25.6027 4.26138 25.435 4.3574 25.2562 4.44089C25.172 4.47708 25.1011 4.50073 24.8847 4.66842" stroke="#0012D4" stroke-linecap="round"/>
<path d="M17.2168 16.4926C17.1452 16.3035 17.0979 15.7775 16.9427 15.4905C16.7624 15.1569 16.43 14.6323 16.1906 14.2722C15.785 13.9615 14.8821 13.4384 13.5187 13.2915C13.2761 13.3152 13.2052 13.3624 13.0604 13.4828" stroke="#0012D4" stroke-linecap="round"/>
<path d="M13.0604 13.5545C12.8935 12.5764 12.7509 12.1944 12.3693 11.8479C12.0344 11.5439 11.3448 11.3818 10.769 11.3212C10.1493 11.256 9.1004 11.356 8.5357 11.452C8.12538 11.5218 7.5224 11.9751 6.75992 12.6179C5.37186 13.7881 5.15612 14.4833 4.67886 15.1393C4.01173 16.0564 3.2449 16.7535 2.73323 17.1702C1.46038 18.2069 0.639988 18.3795 0.532137 18.4154C0.337701 18.48 1.06709 18.4992 1.64003 18.6182C1.89829 18.6718 2.78125 18.7371 4.01061 18.8805C5.21697 19.0211 6.79432 19.0725 7.54068 18.9894C8.09259 18.9279 9.01727 18.4304 10.3917 17.607C11.5889 16.8898 11.7447 16.3752 12.0084 15.9925C12.2969 15.5739 12.5817 15.0867 12.6423 14.5832C12.7021 14.2719 12.7258 14.0332 12.7616 13.8544C12.7738 13.7702 12.7738 13.6993 12.9171 13.4829" stroke="#0012D4" stroke-linecap="round"/>
<path d="M16.4285 21.6523C16.4049 21.6523 16.3812 21.6523 16.3809 21.605C16.3798 21.4612 16.665 21.0109 17.2953 20.2725C18.6301 18.7085 19.2936 18.8102 19.6164 18.6196C19.9194 18.4407 19.9615 17.8098 20.5828 17.1279C20.9319 16.7448 21.3947 16.3035 21.9558 15.9684C22.7857 15.473 23.5661 15.5611 24.1541 15.751C24.8905 15.9888 25.1455 16.3006 26.1108 16.9198C26.9317 17.4463 27.152 18.0664 27.5587 18.6644C27.8536 19.0981 28.5824 19.9754 29.1231 20.5638C29.5018 20.9759 29.9225 21.1736 30.7935 21.6505C31.0391 21.785 31.3321 21.7956 31.5836 21.8193C32.0169 21.86 30.1475 22.6269 28.5219 23.3819C27.7016 23.7628 27.0359 23.6589 26.75 23.6707C26.4621 23.6826 25.7976 23.7305 24.7492 23.695C23.0589 23.6378 22.6416 23.302 22.1873 23.1103C21.4846 22.8138 21.1124 22.3231 20.6702 21.6197C20.4674 21.132 20.2754 20.5566 20.132 19.9844C20.0833 19.7196 20.0833 19.5068 20.0116 19.2158" stroke="#0012D4" stroke-linecap="round"/>
</svg>
