<svg width="40" height="48" viewBox="0 0 40 48" fill="none" xmlns="http://www.w3.org/2000/svg">
<path d="M19.48 45.8928C19.2159 45.4712 18.8976 44.413 18.4211 42.8227C18.3092 42.4493 18.2612 42.1854 18.3916 42.0764C18.7363 41.7885 19.3193 42.1266 19.6105 42.1274C19.7538 42.1277 19.8491 41.9181 19.8245 41.6794C19.7105 40.576 19.0058 39.9037 18.289 38.9482C18.0394 38.6155 17.8904 38.0993 17.783 37.5957C17.7423 37.4049 18.0957 37.3547 18.3097 37.3539C19.0189 37.3513 19.5834 37.6188 19.9549 37.4875C20.9388 37.1399 19.27 35.3944 18.8451 34.3347C18.6508 33.85 18.4728 33.4834 18.472 33.2185C18.4716 33.0993 18.6812 33.0586 18.8411 33.0578C19.1628 33.0562 19.4784 33.2161 19.7171 33.1906C20.4315 33.1144 19.0058 31.3147 18.7115 30.1706C18.5991 29.7337 18.6319 29.3464 18.6311 29.0815C18.6303 28.8181 19.1602 28.9725 19.3988 28.9741C20.355 28.9804 18.7926 27.1745 18.3415 26.4044C17.7234 25.3491 17.5181 24.7321 17.5961 24.4934C17.7367 24.0629 18.5237 24.4647 18.7886 24.4655C18.9078 24.4659 18.9485 24.2563 18.9493 24.0701C18.9527 23.2839 18.5794 22.4551 18.5516 20.2569C18.5437 19.637 18.6844 19.2171 18.7632 18.8456C18.7911 18.714 18.9995 18.7891 19.1069 18.7374C19.8915 18.3596 19.2159 16.6188 19.2143 13.524C19.214 13.0042 19.3718 13.2169 19.4521 13.4038C19.7506 14.0982 19.9032 15.0722 19.9836 15.9497C20.0525 16.7018 20.6447 17.408 20.9112 18.3094C21.0208 18.6798 21.0711 19.0532 21.1762 19.3189C21.2934 19.6155 21.9701 18.8989 22.3942 18.6061C23.0197 18.1742 22.4523 20.3771 22.1595 21.0684C21.8587 21.7787 21.7076 22.4472 21.8389 22.8449C21.9694 23.2404 22.6607 22.9277 22.9256 22.9269C24.5713 22.9219 23.0346 27.4322 22.7952 27.9645C22.5848 28.4321 23.7745 27.7011 24.0132 27.7529C25.1561 28.0005 23.2478 30.4013 23.0076 31.251C22.9491 31.4578 22.9805 31.6743 23.0593 31.835C23.1381 31.9957 23.2956 32.1007 23.4817 32.1023C23.6679 32.1039 23.8779 31.9989 24.0912 31.9973C24.3044 31.9957 24.5144 32.1007 24.6226 32.3386C25.117 33.4256 24.2025 34.2742 23.9623 34.9377C23.8982 35.1146 23.9352 35.3339 24.0402 35.4421C24.533 35.9498 25.2066 35.7619 25.4452 36.1303C25.9331 36.8832 25.4739 37.7763 25.4993 38.0675C25.5319 38.4401 26.1612 38.4669 26.4262 38.6252C27.175 39.0727 26.4302 40.6388 26.1103 41.2761C26.0386 41.419 26.2138 41.5935 26.3729 41.6747C26.532 41.7558 26.742 41.7558 26.9027 41.8608C27.2241 42.7073 27.1175 44.7122 27.2759 45.9167C27.3292 46.1029 27.3817 46.3129 27.4358 46.6884" stroke="#0012D4" stroke-linecap="round"/>
<path d="M19.1617 13.115C18.8451 12.9034 18.1052 12.7968 16.518 12.6647C14.9948 12.538 13.7025 12.7427 12.8043 13.0331C11.5737 13.4309 9.68005 14.4866 7.58768 15.8105C5.37438 17.5671 4.42128 18.8368 3.86199 20.2697C3.72913 20.6428 3.5716 21.0104 3.56842 21.2299" stroke="#0012D4" stroke-linecap="round"/>
<path d="M18.5253 13.2742C18.1561 13.7467 17.4147 15.2313 15.985 16.7166C15.6936 17.0194 15.5053 17.0388 15.3716 16.9871C15.0756 16.8726 14.8672 16.4056 14.5235 16.1136C14.3685 15.9819 14.1273 16.0841 13.9666 16.19C13.6542 16.3957 13.3827 16.8256 12.9594 17.1964C12.5835 17.5257 12.0047 17.5703 11.5011 17.4915C11.2993 17.46 11.2601 17.2552 11.1543 17.2003C11.0485 17.1454 10.8909 17.198 10.7573 17.3038C10.077 17.8423 9.67211 19.2092 8.98075 19.9021C8.72971 20.1537 8.18597 20.1161 7.60361 20.2999C6.17664 20.7502 5.64331 22.3406 4.71169 22.5291C4.52473 22.5554 4.3672 22.6079 4.10227 22.6349C3.83735 22.662 3.46979 22.662 3.09109 22.9802" stroke="#0012D4" stroke-linecap="round"/>
<path d="M19.1617 13.2742C19.1092 13.2742 19.0567 13.2742 19.0822 13.1955C19.1652 12.9386 19.8459 12.4818 21.1666 11.8995C22.911 11.1303 25.197 11.2057 27.7603 11.3633C31.0343 11.5645 33.4233 12.423 34.5084 12.952C36.1314 13.9616 37.0845 14.5981 37.9604 15.4183C38.1999 15.7103 38.4625 16.0779 39.0512 16.6157" stroke="#0012D4" stroke-linecap="round"/>
<path d="M19.7982 13.4333C20.5333 14.0125 22.6559 14.8654 23.3505 14.8924C23.6383 14.9036 23.1937 14.2305 23.2184 14.0969C23.3181 13.5565 24.3044 14.5997 24.7014 14.653C25.3921 14.7457 25.843 14.1764 26.1867 14.1494C27.0075 14.0848 27.6967 14.7572 28.3356 14.9187C28.5909 14.9832 28.6021 14.3896 28.7604 14.0985C28.8418 13.9487 29.0237 13.8598 29.2887 13.8319C30.7012 13.6835 32.1488 14.9163 33.1082 14.7874C33.5375 14.7298 33.5347 14.0714 33.7192 13.859C34.2417 13.2577 35.2292 14.4931 36.4735 15.2862C37.1354 15.6578 37.6176 15.9776 37.935 16.2425C38.0949 16.3499 38.2524 16.4024 38.5738 16.7748" stroke="#0012D4" stroke-linecap="round"/>
<path d="M3.72753 21.23C3.67502 21.23 3.62251 21.23 3.56921 21.3613C3.51591 21.4925 3.4634 21.7551 3.41009 21.9691C3.35679 22.1831 3.30428 22.3406 3.25018 22.9803" stroke="#0012D4" stroke-linecap="round"/>
<path d="M12.7971 17.4113C12.4789 18.6253 12.5839 20.113 13.1392 20.8561C13.4248 21.2382 13.9618 21.23 14.3326 21.4138C14.5513 21.5222 14.5983 21.9651 14.7837 22.207C14.969 22.4489 15.2316 22.5539 15.4193 22.5292C15.7612 22.4843 15.8728 22.0272 16.0574 21.8148C16.2818 21.5565 16.8259 21.8665 17.3017 21.709C17.5674 21.5514 17.8825 21.2364 18.0447 20.9691C18.207 20.7018 18.207 20.4917 18.3662 20.1162" stroke="#0012D4" stroke-linecap="round"/>
<path d="M25.5264 14.8654C25.6314 14.9704 25.843 15.1295 26.1342 15.4199C26.9061 16.1896 26.7961 17.408 27.0642 18.3357C27.3004 19.153 26.5352 19.7948 26.4548 20.5641C26.4352 20.7519 26.376 20.9086 26.244 21.0422C25.9508 21.3389 25.2129 21.3891 24.4181 21.3366C23.9384 21.1791 23.6186 20.9133 23.3011 20.6484C23.1412 20.541 22.9837 20.4885 22.6623 20.4344" stroke="#0012D4" stroke-linecap="round"/>
<path d="M19.1618 12.6377C19.0026 12.3227 19.2127 11.263 19.7958 9.75296C20.3094 8.42322 21.1221 7.23098 21.5198 6.51497C21.6664 6.25122 22.0195 5.96124 22.1818 5.95647C22.3441 5.9517 22.3441 6.26674 22.5016 6.27152C23.7934 6.31067 24.2519 5.2134 24.4905 5.18556C24.8374 5.14508 24.5192 5.95329 24.5184 6.1132C24.5147 6.86027 25.7873 4.73924 28.75 2.99135C30.736 1.81975 32.9491 0.864775 33.4519 0.599847C33.6847 0.477167 33.9022 0.439936 33.8791 0.649173C33.8561 0.85841 33.5935 1.33098 33.6421 1.52192C33.8787 2.45309 35.1242 1.12891 35.5212 1.0756C35.7065 1.05072 35.8657 1.12732 35.7893 1.31189C35.7129 1.49646 35.3979 1.81151 35.3931 1.9213C35.3503 2.90548 37.2977 1.23551 38.0153 1.33894C39.1347 1.50026 36.6676 2.9285 35.8203 3.4862C34.221 4.53892 33.2212 4.67877 32.5823 5.31603C32.1169 5.7803 32.4749 6.43063 32.3166 6.72182C31.8388 7.60059 30.0421 8.28433 29.0301 8.6853C28.2224 9.00531 27.073 9.55725 26.1652 9.95822C25.309 10.3364 23.7315 10.8843 22.5072 11.2049C22.2406 11.2582 21.9781 11.3107 21.7641 11.364C21.5501 11.4173 21.3925 11.4698 20.7529 11.5239" stroke="#0012D4" stroke-linecap="round"/>
<path d="M18.207 12.3195C18.207 11.3712 17.997 9.04172 17.5459 7.70913C17.3524 7.13748 16.9357 6.69954 16.592 6.40757C16.437 6.27588 16.1958 6.37813 16.0614 6.53645C15.7633 6.88747 15.7678 7.38533 15.6095 7.59775C15.1495 8.21487 13.9141 6.96367 12.8544 6.48712C11.7835 6.00557 9.94258 5.3757 8.82241 4.7106C7.98626 4.21414 7.54789 3.67476 7.28296 3.72647C6.89027 3.80312 7.06895 4.57376 6.93768 4.9445C6.77912 5.39233 5.48576 5.31842 4.29239 5.44969C3.38621 5.54937 3.09425 6.48315 2.19286 6.93424C1.29566 7.38323 0.705927 7.96928 0.57227 8.15465C0.0215602 8.91844 2.76965 8.55165 4.86043 8.79112C5.23482 8.834 5.10865 9.18493 4.87077 9.50395C4.6329 9.82298 4.26534 10.1905 4.15475 10.4586C4.04417 10.7268 4.20169 10.8843 4.54538 10.8342C6.26723 10.5831 6.80164 10.0919 7.11987 10.1969C7.26306 10.2442 7.22807 10.5119 7.33309 10.6727C7.97331 11.6524 9.92985 11.4666 11.5958 12.2113C13.705 13.1541 15.4957 12.0013 16.3478 11.843C16.5602 11.7896 16.8227 11.7371 17.168 11.7101C17.5133 11.683 17.9334 11.683 18.3662 11.8422" stroke="#0012D4" stroke-linecap="round"/>
</svg>
