<svg width="29" height="43" viewBox="0 0 29 43" fill="none" xmlns="http://www.w3.org/2000/svg">
<path d="M13.5766 8.76526C13.3781 8.76526 12.8662 8.82175 12.0389 8.93602C11.3675 9.02877 10.5552 9.81807 10.2393 10.4737C9.91605 11.1448 10.0673 12.0144 10.1238 12.641C10.2133 13.6346 11.2622 14.0413 11.9478 14.3708C12.5659 14.6679 13.3729 14.0464 14.2011 13.5179C15.1344 12.9222 15.4015 12.3054 15.5308 11.6643C15.7316 10.6684 15.2611 10.1947 14.9474 9.63747C14.5764 9.19409 14.2623 8.9938 13.9503 8.951C13.723 8.93645 13.3558 8.93645 12.9775 8.93645" stroke="#0012D4" stroke-linecap="round"/>
<path d="M10.4096 13.3874C10.0142 13.3874 9.641 13.4438 8.69218 13.9108C7.90189 14.2997 6.52878 15.0838 5.73104 15.5473C4.40741 16.3164 3.82229 16.8368 3.32113 17.4082C2.91172 17.8749 2.96292 18.915 3.24624 20.059C3.68934 21.8482 4.89907 22.1728 5.85516 22.6016C6.697 22.9792 7.94794 22.6898 9.78951 22.0213C11.1447 21.5293 11.8305 20.5242 12.5902 19.8378C13.0382 19.4329 13.1761 18.5573 13.2907 17.6003C13.5127 15.7487 13.6331 15.1866 13.6622 14.8134C13.7191 14.0846 13.6905 16.2676 13.9451 16.7641C14.4593 17.7665 15.173 18.4075 15.6129 18.7909C16.3286 19.4147 17.4506 19.9191 18.4628 20.2187C19.3957 20.4948 20.7306 20.4917 21.5626 20.3077C22.7772 20.039 23.4987 18.5316 24.0183 17.5134C24.2751 17.0102 24.1903 16.4705 24.1621 16.1572C24.1105 15.5849 23.3943 15.1301 22.6394 14.6028C21.0813 13.5146 20.3711 13.0193 19.5575 12.6328C18.4281 12.0752 18.001 11.9896 17.4613 11.9468C17.1194 11.9323 16.6392 11.9323 16.1445 11.9323" stroke="#0012D4" stroke-linecap="round"/>
<path d="M15.2029 9.45C16.1633 8.43314 16.7993 7.79632 17.2816 7.46977C18.1282 6.89659 19.5597 6.28643 20.9001 5.75874C21.7516 5.42352 22.4459 5.28497 23.5587 5.28412C24.1757 5.28364 24.87 6.24877 25.5153 7.17875C26.0094 7.8906 25.9878 9.35756 25.8175 9.99053C25.7448 10.2606 25.476 10.5045 24.9932 10.7463C24.2677 11.1097 23.2539 11.1619 22.1446 11.2184C20.8563 11.284 19.8567 11.5043 19.3012 11.476C18.8869 11.3913 18.5146 11.3048 17.8902 11.262C17.4635 11.2475 16.8138 11.2475 16.1445 11.3331" stroke="#0012D4" stroke-linecap="round"/>
<path d="M10.9232 9.19322C10.6681 8.79777 10.1546 7.42997 9.85413 5.15102C9.64779 3.58585 9.72488 2.60929 9.96626 1.43622C10.0297 1.12811 10.3223 0.948761 10.791 0.735203C11.47 0.425761 12.487 0.490831 13.3849 0.547751C14.4735 0.616763 15.5984 1.03264 16.5117 1.26033C17.07 1.39952 17.4275 1.66005 17.5983 1.8873C18.0381 2.47264 17.9128 3.02871 17.9278 3.4708C17.9495 4.11086 17.3445 4.93746 16.9448 5.66716C16.2917 6.87447 15.2046 8.59235 14.8049 9.14828C14.7185 9.27796 14.662 9.3627 14.6038 9.45" stroke="#0012D4" stroke-linecap="round"/>
<path d="M10.9232 9.36442C10.5243 8.76611 10.1272 8.3116 8.35023 7.00244C6.92525 5.95258 5.59152 5.45703 4.93629 5.24304C4.1187 4.97603 3.05535 5.53834 2.29442 6.08144C1.82338 6.41763 1.45303 6.90786 1.03875 7.67692C0.217971 9.20062 0.480672 10.1878 0.892382 11.2436C1.17841 11.9771 1.81937 12.2729 2.21952 12.6157C2.4529 12.8157 2.8465 12.902 4.14925 12.959C5.22538 13.006 7.14677 13.0159 8.20686 13.0446C9.26694 13.0732 9.40818 13.1015 9.69278 13.116C9.97738 13.1306 10.4011 13.1306 10.6664 13.1306" stroke="#0012D4" stroke-linecap="round"/>
<path d="M13.919 14.1577C13.919 14.2142 13.8625 14.5823 13.8758 16.2398C13.8864 17.5602 14.1433 19.8463 14.3016 21.3922C14.5356 23.6765 14.6894 24.6833 14.6611 25.3227C14.6441 25.7085 14.5764 26.2163 14.5473 27.1278C14.5182 28.0394 14.5182 29.3387 14.4617 30.3894C14.4052 31.4401 14.2922 32.2027 14.121 32.9769C13.7783 34.5268 13.4063 35.469 13.2497 35.8388C13.076 36.2487 12.9501 36.7521 12.68 37.448C12.2746 38.4928 11.9803 39.8292 11.7522 40.8987C11.5515 41.5471 11.4085 41.8039 11.3516 41.9888C11.3229 42.0889 11.2947 42.2019 11.18 42.2327" stroke="#0012D4" stroke-linecap="round"/>
<path d="M14.6038 32.4749C14.6038 32.4184 15.0275 32.0786 15.8671 31.509C17.6509 30.6791 19.0804 30.335 19.4955 30.264C19.5956 30.2495 19.7086 30.2495 19.825 30.2495" stroke="#0012D4" stroke-linecap="round"/>
<path d="M14.8606 31.9614C15.0865 31.227 15.2877 30.6509 15.6279 30.1113C16.1966 29.2092 17.1673 28.4554 17.8516 27.8995C18.7915 27.136 20.3643 26.6836 21.2339 26.4414C21.9128 26.2523 22.3629 26.3121 22.5486 26.3545C22.6731 26.3829 22.1395 26.7667 21.6683 27.0521C21.2932 27.2794 23.7538 26.8257 24.6731 26.8968C25.1878 26.9365 25.7002 27.1099 26.6546 27.4664C26.9774 27.587 27.5243 27.5961 28.0956 27.5961C28.3264 27.5961 27.4738 27.8237 27.0026 28.1366C26.4378 28.5116 26.2737 28.9348 26.046 29.3632C25.6864 30.0399 25.5325 30.6175 25.3467 31.1602C25.0589 32.001 24.1664 32.5571 23.3087 32.9449C23.0452 33.064 22.737 33.045 22.4378 33.1447C22.3081 33.1879 22.2234 33.2162 22.3775 33.2307C23.445 33.3316 23.7615 33.4447 23.8617 33.544C24.1567 33.8365 23.4782 34.3272 23.1645 34.6709C22.8889 34.9728 22.1686 35.0702 21.3268 35.1994C20.6122 35.3091 19.4048 34.988 18.1504 34.6315C17.075 34.3259 16.4321 34.1594 15.9891 34.002C15.6035 33.8162 15.1481 33.6459 14.7193 33.2611C14.6329 33.1606 14.5764 33.0758 14.5182 32.9885" stroke="#0012D4" stroke-linecap="round"/>
<path d="M13.6622 32.6461C13.6622 32.4193 13.5492 31.4546 13.3207 30.4245C13.0668 29.2799 12.327 28.0908 11.34 26.8291C11.1703 26.612 11.0396 26.5141 10.9673 26.6678C10.895 26.8214 10.8667 27.2451 10.8239 27.3927C10.6986 27.8251 10.1255 26.4285 9.72702 26.0142C9.06226 25.3231 8.52827 25.2011 7.97233 24.8155C7.77773 24.6805 7.21867 24.6858 6.42093 24.7564C5.81355 24.8102 5.16441 25.4527 4.33842 26.051C3.05451 26.981 2.05219 27.6234 1.53862 27.9371C1.16969 28.1625 0.739171 28.1952 0.637742 28.3364C-0.0159203 29.2466 1.84676 29.8454 2.26275 30.3338C2.62357 30.7573 3.18889 31.2749 3.60316 31.6318C4.13445 32.0895 4.64399 32.302 5.78283 32.8438C6.69788 33.2792 7.66719 33.2453 8.0254 33.2876C8.79359 33.3785 6.676 33.9557 6.17356 34.4564C5.90073 34.7283 7.18272 34.4436 7.82468 34.3725C8.74873 34.2703 9.32258 34.2724 10.419 34.0738C11.5902 33.8617 11.9486 33.4747 12.4472 33.303C12.8867 33.1614 13.2334 33.0458 13.4042 32.9889C13.4902 32.9602 13.5749 32.932 13.6622 32.9029" stroke="#0012D4" stroke-linecap="round"/>
<path d="M13.6622 32.9029C13.4346 32.3619 12.6419 31.1722 11.881 30.3368C11.4518 29.8655 10.4456 29.4534 9.59864 29.2086C9.46896 29.1658 9.38422 29.1094 9.26995 29.0802C9.15568 29.0511 9.01445 29.0511 8.86894 29.0511" stroke="#0012D4" stroke-linecap="round"/>
</svg>
