<svg width="32" height="51" viewBox="0 0 32 51" fill="none" xmlns="http://www.w3.org/2000/svg">
<path d="M10.6378 22.497C10.6378 22.7226 10.7507 22.9893 11.2412 24.0633C11.6558 24.971 12.2583 26.6792 12.8885 28.9424C13.5187 31.2056 14.1204 33.9884 14.4303 36.3245C14.7403 38.6606 14.7403 40.4657 14.6839 41.734C14.5541 44.651 14.3232 45.4752 14.2657 46.1784C14.1742 47.2954 14.0953 49.0444 14.0377 50.0899C14.0261 50.3018 13.9813 50.4141 13.9996 50.3406C14.1915 49.5667 14.5488 48.8256 14.9283 48.1025C15.8278 46.3886 17.2451 45.3658 18.4388 43.8348C19.5547 42.4036 19.4866 40.6959 19.8279 40.0509C20.4678 38.8416 22.9725 37.7718 23.7611 37.6521C23.8745 37.6349 23.7064 37.9906 23.8933 38.0692C24.4815 38.3167 25.5605 37.9951 26.6408 37.9387C28.7085 37.8307 30.0834 36.6299 30.5033 36.3427C31.0949 35.9382 29.8988 38.027 29.5746 38.7717C29.1989 39.6348 28.1895 40.7278 27.6197 41.0896C27.3093 41.2867 27.0488 41.4514 26.9342 41.5272C26.5446 41.785 28.2214 41.4913 28.8498 41.3192C28.9803 41.2835 29.0966 41.2999 29.0795 41.3751C28.9324 42.022 28.2282 42.5876 27.7519 43.1215C26.8712 44.1085 24.6249 45.6644 23.2922 45.8957C21.6327 46.1838 20.7071 45.9356 20.1931 45.7071C19.6792 45.2895 19.376 44.8348 19.204 44.322C19.1846 44.1511 19.1846 43.9254 19.1846 43.693" stroke="#0012D4" stroke-linecap="round"/>
<path d="M14.7403 38.6789C14.7779 37.1256 15.0047 35.6841 15.6303 34.0317C15.9528 33.4414 16.183 33.0585 16.3157 32.7742C16.3733 32.6403 16.4109 32.5275 16.4496 32.4113" stroke="#0012D4" stroke-linecap="round"/>
<path d="M16.3357 33.2089C16.0349 32.3064 15.8423 31.1269 15.8793 29.7623C15.9498 27.1663 17.5117 25.4644 17.9106 24.608C17.9939 24.4291 18.0815 24.3226 18.1579 24.4149C18.7211 25.0959 18.4621 25.7619 18.6325 25.8399C19.7088 26.3331 19.5242 24.0582 20.6991 22.7488C21.4561 21.9052 22.8221 21.6264 25.4431 20.28C26.435 19.7704 26.8926 18.9689 27.2368 18.2265C27.3262 18.0335 27.2755 17.7541 27.2567 17.6937C27.1358 17.3054 27.0864 18.7706 27.0664 20.3637C27.0483 21.8083 27.0864 23.7847 26.7451 24.6211C26.3538 25.58 25.5685 26.7863 25.4135 27.1686C25.253 27.5646 26.5872 26.7533 27.271 26.5624C27.4949 26.4999 27.5035 26.7476 27.447 26.9949C27.1586 28.2592 26.6693 29.2934 26.3274 29.8073C25.7259 30.7116 24.4676 31.3081 23.5566 31.8961C22.8055 32.3809 21.9993 32.6004 21.1264 32.9035C19.4607 33.482 18.8838 33.3981 17.6132 33.418C16.9066 33.2853 16.5648 33.1713 16.3562 33.1707C16.2605 33.2078 16.1853 33.3206 16.1078 33.4368" stroke="#0012D4" stroke-linecap="round"/>
<path d="M4.6056 17.3605C4.66099 18.1914 4.828 18.9795 5.38403 19.8435C5.7382 20.3939 6.49397 20.9845 7.16917 21.465C8.41507 22.3516 9.24848 22.5917 9.58251 22.6337C10.6428 22.7669 11.2611 22.2015 11.8347 21.7831C12.414 21.3606 13.1058 20.3601 13.8465 19.2292C14.4127 18.3646 14.5082 17.2825 14.6341 16.235C14.8037 14.8243 14.8725 14.1721 14.8729 14.0739C14.8743 13.7416 14.3421 14.4784 14.1885 14.4793C13.9344 14.4807 14.0055 13.755 13.964 13.016C13.9142 12.1311 13.5875 11.2103 13.1973 10.3588C12.8151 9.52496 11.7185 8.69328 10.614 7.84058C10.0745 7.42404 9.45075 6.87373 8.44571 6.03655C7.5045 5.25253 6.92956 4.52207 6.56657 4.03361C5.57643 2.70122 5.24932 0.744481 5.20736 0.575786C5.07932 0.0610648 5.10916 2.32904 5.27618 3.75959C5.39535 4.78033 6.08608 5.96815 6.35339 6.60222C6.39509 6.70113 6.42347 6.78393 6.45159 6.86827C6.4797 6.95262 6.5074 7.03571 6.36934 7.07851C5.54072 7.33541 4.50153 6.53886 3.86535 6.03151C3.55521 5.78418 3.59846 5.36051 3.57077 5.16412C3.52209 4.81896 3.34668 5.91611 3.20736 6.93332C2.88221 9.30729 3.26275 9.94465 3.33241 10.7688C3.4094 11.6797 4.15239 13.1843 4.68826 13.8343C4.76414 13.9263 4.8557 14.0017 4.78772 14.0861C4.31372 14.6742 3.57161 14.2837 3.4176 14.2967C2.87016 14.343 3.70925 15.2321 3.84983 15.6383C3.93417 16.2124 3.98957 16.6035 4.40795 17.4969C4.52083 17.6954 4.60392 17.7785 4.77345 17.8641" stroke="#0012D4" stroke-linecap="round"/>
<path d="M10.5645 22.4801C10.4814 22.2031 10.3983 21.9261 10.0924 20.8833C9.78645 19.8405 9.26023 18.0403 8.63412 16.1855" stroke="#0012D4" stroke-linecap="round"/>
<path d="M16.1876 33.055C16.2984 32.9165 16.4092 32.778 16.8679 32.3328C17.3265 31.8876 18.1297 31.1398 18.7373 30.6161C19.345 30.0923 19.7327 29.8154 20.2162 29.53" stroke="#0012D4" stroke-linecap="round"/>
<path d="M18.8733 43.6299C19.4826 43.4914 20.092 43.3529 20.6967 43.1846C21.3014 43.0164 21.883 42.8225 22.6501 42.5388" stroke="#0012D4" stroke-linecap="round"/>
<path d="M14.593 38.3424C14.3706 37.7599 13.9233 36.36 13.4755 35.4918C13.2168 34.9902 12.4998 34.1511 10.7944 32.8216C10.147 32.317 9.72686 32.021 9.32107 31.6576C9.2242 31.5708 9.13937 31.5174 9.08272 31.4473C8.45354 30.669 8.69119 28.3332 8.45326 27.5321C8.35904 27.2149 8.13139 27.013 7.96396 26.9702C7.70642 26.9044 7.62783 27.6525 7.46039 28.0449C7.15961 28.7497 6.09111 26.5388 5.5032 26.1741C4.89564 25.7973 4.0802 25.4763 2.74994 24.9996C1.8396 24.6733 1.55733 24.1603 1.26358 23.5455C1.15261 23.3133 1.02523 23.0969 0.885908 22.9425C0.828682 22.8791 0.691195 23.0373 0.620276 23.1498C0.328898 23.6119 0.60391 24.4624 1.05083 25.6928C1.33357 26.4712 2.00047 27.4822 2.35255 28.1712C2.61631 28.6874 3.53635 29.2463 4.11461 29.5434C4.52127 29.7524 4.7726 29.9211 4.85695 30.0327C5.17345 30.4516 3.51788 30.5925 2.88717 30.5934C2.6611 30.5937 2.50823 30.4255 2.45158 30.4251C1.5336 30.4183 4.60055 31.9051 5.17756 32.1452C5.54217 32.2969 5.86283 32.4943 6.19896 32.6487C6.70385 32.8807 7.81667 33.055 8.46459 32.9438C8.57705 32.8879 8.68784 32.8049 8.8003 32.7205C8.91276 32.6362 9.02355 32.5531 9.22162 32.3835" stroke="#0012D4" stroke-linecap="round"/>
</svg>
