<svg width="28" height="46" viewBox="0 0 28 46" fill="none" xmlns="http://www.w3.org/2000/svg">
<path d="M0.671828 3.0827C0.586567 4.83055 0.501306 6.57839 0.500014 9.20532C0.498723 11.8323 0.583983 15.2853 0.905003 18.8973C1.22602 22.5092 1.78022 26.1754 2.12966 28.2772C2.55161 30.8152 2.82401 31.7135 3.23029 33.0635C3.90192 35.2951 4.84702 36.8395 5.23327 37.6327C6.24164 39.7033 6.78218 41.481 7.21623 43.2101C7.30278 44.3334 7.38933 44.8075 7.38933 44.9373C7.38933 44.9392 7.38933 44.8113 7.38933 44.6796" stroke="#0012D4" stroke-linecap="round"/>
<path d="M0.671814 3.21185C0.671814 3.5529 0.714444 3.94174 1.14139 5.24519C1.50125 6.34381 2.25043 8.29649 2.68771 9.62643C3.125 10.9564 3.25289 11.5958 3.55324 12.8205C4.29443 15.8426 4.89093 17.8935 5.08405 18.4935C5.63726 20.2124 5.53684 21.2923 5.79521 22.327C6.1094 23.5854 6.09749 25.0825 6.67623 28.2178C6.85482 29.1852 7.12966 30.2033 7.47264 31.707C7.80811 33.1777 8.50675 34.7234 8.82971 36.4422C9.27801 38.8281 9.15396 39.551 9.28314 40.4553C9.54335 42.2767 10.0582 43.3412 10.1235 43.9025C10.1448 44.0323 10.1874 44.1602 10.2094 44.2901C10.2313 44.4199 10.2313 44.5478 10.4897 44.6795" stroke="#0012D4" stroke-linecap="round"/>
<path d="M10.6189 44.9379C10.6189 40.9307 10.6189 37.9711 10.7894 35.9326C11.0027 33.3824 11.695 31.7212 11.9727 30.6936C12.1726 29.9539 12.6341 28.8133 13.3866 27.2612C14.1391 25.709 15.2049 23.7907 15.8605 22.6958C16.6672 21.3487 17.503 20.4009 18.4067 19.1743C18.8555 18.5651 19.5273 17.7733 20.7501 16.2923C23.2993 13.2044 23.8808 12.3864 23.8821 12.3825C24.2218 11.3633 23.1509 14.9597 22.9571 16.9324C22.6809 19.7448 22.7634 21.8529 22.527 22.7546C22.058 24.5434 21.5607 25.9403 20.4226 28.1952C19.8138 29.4014 18.5662 31.3763 17.8661 32.515C16.6479 34.4963 16.0885 35.505 15.8947 36.2581C15.7096 36.9777 15.0576 37.869 14.7321 38.7345C14.4774 39.4116 14.0655 39.9824 13.6999 40.7569C12.7724 42.353 12.6006 42.7405 12.4287 43.0195C12.3422 43.1707 12.2569 43.3412 12.0399 43.6461" stroke="#0012D4" stroke-linecap="round"/>
<path d="M12.2983 43.6461C12.1252 43.2611 12.4688 42.4008 12.835 41.7755C13.5796 40.5043 14.7063 39.1273 15.3741 38.546C16.4699 37.5922 17.5044 37.3601 19.4576 36.5888C21.4508 35.8018 22.9727 34.8203 23.9176 34.3914C25.5987 33.6285 25.9891 33.1409 26.2287 32.9659C27.4351 32.0847 25.4749 35.1174 25.3251 35.8706C25.1835 36.5821 24.7877 37.1404 24.5074 37.7657C24.084 38.71 23.625 39.2513 23.0017 40.0044C22.3585 40.7817 20.9639 41.7006 19.7295 42.4602C18.6581 43.1195 16.8662 43.6022 15.7907 43.6887C15.4878 43.7314 15.1894 43.8166 14.7799 43.8605C14.3704 43.9045 13.8588 43.9045 13.3317 43.9045" stroke="#0012D4" stroke-linecap="round"/>
<path d="M7.51852 32.1488C7.26274 30.5288 7.13097 28.927 7.10966 27.5938C7.09512 26.6848 7.00179 25.3551 7.3002 22.7824C7.48685 21.1733 8.19544 19.0161 8.75868 17.4058C9.68474 14.7582 10.4458 13.4638 10.6176 12.8618C10.9457 11.7123 12.0813 10.5365 12.9597 9.29054C13.4229 8.6336 14.4324 7.70999 15.3845 6.82121C17.2214 5.10644 19.0507 3.99081 20.4058 3.32423C21.811 2.633 22.5864 1.87868 24.3485 0.783205C24.7395 0.540126 24.9117 0.457664 25.0209 0.520318C25.5875 0.845533 25.1313 1.74433 24.7231 2.86305C24.4415 3.6348 24.0978 4.11354 23.5617 4.80144C22.4564 6.21973 21.6046 6.91164 20.9555 7.58016C20.3905 8.16203 19.8374 8.97856 19.1902 9.88284C18.6948 10.575 18.3285 11.3891 17.1045 13.624C16.5209 14.6897 16.1324 15.3524 15.5304 17.1985C15.0049 18.8101 14.7114 19.6568 13.9376 22.3206C13.6198 23.4148 13.4196 24.093 13.2245 24.6756C12.983 25.3969 12.9442 26.2038 12.8157 26.7638C12.7298 27.1494 12.6858 27.5396 12.6432 27.9258C12.6006 28.1415 12.5153 28.3973 12.4275 28.6609" stroke="#0012D4" stroke-linecap="round"/>
</svg>
