<svg width="32" height="37" viewBox="0 0 32 37" fill="none" xmlns="http://www.w3.org/2000/svg">
<path d="M14.623 36.396C14.8864 34.9288 15.1497 33.4616 15.5675 31.8593C15.9854 30.2571 16.5497 28.5642 17.9313 25.4348C19.313 22.3055 21.495 17.7911 22.6943 15.3526C24.0124 12.6726 24.3496 12.1173 24.9914 10.8142C26.2578 8.24317 27.2384 6.41609 27.4276 5.9236C27.8915 4.71626 28.4901 3.68235 29.629 1.40633C29.9211 0.822541 30.126 0.60091 30.3346 0.505149C30.5522 0.405268 30.5832 1.76828 30.4515 3.73878C30.3076 5.89143 29.7099 7.17191 29.4266 7.75788C28.9306 8.78374 27.7035 10.2807 26.3554 11.724C25.4023 12.7444 24.7349 13.2128 23.8223 14.0678C23.5174 14.3163 23.3259 14.5067 23.1742 14.7342C23.0979 14.8487 23.0226 14.9616 22.9451 15.0779" stroke="#0012D4" stroke-linecap="round"/>
<path d="M17.815 25.9079C19.3198 23.9516 20.8851 22.041 22.2326 20.5413C23.6423 18.9723 25.4827 18.3109 26.3064 18.1553C27.1059 18.0042 26.4039 20.014 25.9302 21.3615C25.7297 21.9318 25.1156 22.7478 24.2435 23.8667C23.4903 24.8331 22.7205 25.4872 21.9818 26.1119C21.0829 26.8721 19.4988 28.1423 17.6754 29.3387C16.9053 29.8956 16.6762 30.0495 16.4487 30.1441C16.3342 30.2012 16.2213 30.2764 15.991 30.4679" stroke="#0012D4" stroke-linecap="round"/>
<path d="M19.5251 21.0059C19.0736 19.6516 18.653 18.1262 18.3303 16.402C17.9903 14.5845 18.1935 13.0316 18.5156 12.0261C18.982 10.5699 20.2798 9.79963 21.0048 9.53002C21.2911 9.42354 21.6888 9.94441 22.0684 10.5515C22.6748 11.5212 22.1494 13.9994 21.825 15.4164C21.7675 15.6456 21.7298 15.8713 21.7105 16.1945C21.6911 16.5177 21.6911 16.9315 21.5771 17.3579" stroke="#0012D4" stroke-linecap="round"/>
<path d="M14.395 35.826C14.395 35.1489 14.395 34.4717 14.2634 33.3705C14.1317 32.2692 13.8684 30.7644 12.0774 25.6064C10.2865 20.4485 6.97588 11.683 5.17637 7.03571C3.37687 2.38847 3.18877 2.12513 3.01663 1.97066C2.84449 1.81619 2.69401 1.77857 2.56006 1.85324C2.24517 2.02877 2.15935 2.57315 2.10234 3.2355C2.02296 4.15797 2.15821 5.23051 2.61079 7.51451C2.96015 9.27761 3.6653 12.2438 4.23986 14.3956C4.81442 16.5474 5.26587 17.7888 5.61129 18.9174C5.95671 20.046 6.18243 21.0242 6.58086 22.3745C6.9793 23.7248 7.5436 25.4178 7.85311 26.4215C8.59613 28.8312 9.45425 30.883 9.54944 31.6804C9.70972 33.0231 10.4027 34.1115 10.6513 34.7031C10.7083 34.8365 10.7835 34.987 10.8411 35.1209C10.8986 35.2549 10.9363 35.3677 10.975 35.484" stroke="#0012D4" stroke-linecap="round"/>
<path d="M9.379 24.1979C10.0185 26.3422 10.6581 28.4866 11.1568 30.1179C11.6556 31.7493 11.9942 32.8027 12.2062 33.5522C12.4183 34.3018 12.4935 34.7156 12.685 35.2559" stroke="#0012D4" stroke-linecap="round"/>
<path d="M8.125 13.7098C8.57872 10.6728 9.56369 9.53512 10.7236 8.67726C10.9785 8.4888 11.2737 8.50455 11.541 8.86137C11.8084 9.2182 12.0717 9.9706 12.2074 11.073C12.343 12.1754 12.343 13.6049 12.2114 15.0562C12.0797 16.5074 11.8163 17.937 11.5866 18.9556C11.3569 19.9742 11.1688 20.5385 10.747 21.3479" stroke="#0012D4" stroke-linecap="round"/>
<path d="M5.73098 19.2959C4.37665 18.3178 3.34039 17.7763 2.58285 17.7193C1.67719 17.6511 0.98285 17.8504 0.679038 18.1724C0.108598 18.7771 0.97715 20.803 2.2095 23.181C3.19135 25.0757 4.58755 26.2465 5.23223 26.8348C6.44919 27.6909 7.55157 28.4524 8.12101 28.7181C8.35186 28.8332 8.46472 28.9084 8.695 29.214" stroke="#0012D4" stroke-linecap="round"/>
</svg>
