<svg width="25" height="37" viewBox="0 0 25 37" fill="none" xmlns="http://www.w3.org/2000/svg">
<path d="M7.90436 7.13623C8.61914 8.0015 9.33393 8.86676 10.3041 10.3094C11.2742 11.7521 12.4781 13.746 13.5873 17.0304C14.6965 20.3147 15.6746 24.8291 16.1973 27.926C16.72 31.0228 16.7577 32.5652 16.7964 34.1544" stroke="#0012D4" stroke-linecap="round"/>
<path d="M21.3565 34.3824C22.0336 32.3509 22.4577 30.2134 22.5341 28.3534C22.5827 27.1694 21.931 25.4652 21.2094 23.452C20.7712 22.2295 20.7112 21.5413 20.7848 20.952C20.8823 20.1698 22.3768 19.3046 23.3446 17.7685C24.1015 16.5672 24.2817 15.4252 24.3957 14.2139C24.5516 12.5581 24.3216 11.1308 23.9813 10.0894C23.1878 7.66089 22.1203 6.94924 21.3593 6.47272C20.5894 5.99055 19.1973 6.37468 18.0732 7.03816C17.0299 7.65403 16.6095 8.80289 16.2652 10.1692C15.6419 12.6426 16.5662 13.7049 17.0227 14.487C17.1118 14.6396 17.2502 14.6967 17.2519 14.7543C17.2536 14.8119 17.1407 14.8495 17.0262 14.8124C16.3121 14.5815 15.661 12.9206 15.0693 11.3599C14.4155 9.63536 14.0239 7.93877 13.5121 7.15843C12.7 5.9204 11.8214 5.39199 11.2127 4.72565C10.8954 4.37833 10.1525 3.60788 8.75141 2.52715C6.0584 0.449873 4.79216 0.715678 3.74792 0.543537C3.05701 0.429643 2.39701 0.561777 1.92277 0.675208C1.52628 0.77004 1.18062 1.28112 0.800998 1.8688C0.20291 2.79466 0.606057 4.65326 1.06263 6.39007C1.37865 7.59221 2.20207 8.49965 3.41276 10.0159C4.92686 11.9121 6.68344 13.1748 7.48087 13.7443C8.16634 14.2337 8.39801 14.5451 8.39858 14.6409C8.40265 15.3244 6.96046 12.9206 5.53431 11.9077C4.7846 11.3752 3.9155 11.7338 3.68807 11.8661C3.39901 12.0342 3.30673 12.3791 3.24973 12.7006C3.00633 14.0734 4.10132 15.6065 5.22081 16.8217C5.96592 17.6306 6.60934 18.1145 7.57606 19.063C8.74739 20.2122 9.68736 21.4581 10.2186 22.2544C10.6711 22.9327 10.8673 23.7381 11.0383 24.4968C11.1152 24.838 11.0964 25.105 10.7578 24.9961C8.40783 24.2405 6.8875 23.4383 5.57136 23.5705C4.64664 23.6635 3.72968 24.763 3.04225 25.6015C2.52237 26.2356 2.66035 27.4215 2.79259 28.7348C2.84567 29.2619 3.4538 30.1575 4.26947 31.3152C4.83002 32.1108 6.29697 33.0828 8.19509 34.3168C9.86672 35.4036 11.3153 35.5589 12.6884 35.6176C12.9193 35.5988 13.0321 35.5611 13.1655 35.523C13.2989 35.4848 13.4494 35.4471 13.6044 35.1804" stroke="#0012D4" stroke-linecap="round"/>
</svg>
