<svg width="27" height="41" viewBox="0 0 27 41" fill="none" xmlns="http://www.w3.org/2000/svg">
<path d="M16.1149 39.7788C16.8296 37.8226 17.5444 35.8663 17.9503 34.219C18.3561 32.5717 18.4314 31.2926 18.3949 30.3327C18.3351 28.7609 17.7143 27.135 17.126 25.4455C16.7796 24.4505 16.1947 23.1074 15.4554 21.2856C14.6262 19.2425 13.5362 18.2783 12.7364 17.0989C11.0164 14.5623 11.1376 13.9029 10.9666 13.2571C10.8343 12.9909 10.7568 12.6489 10.738 12.2505C10.7192 12.0778 10.6816 11.9649 10.6428 11.9626" stroke="#0012D4" stroke-linecap="round"/>
<path d="M10.3008 10.4806C10.4513 10.932 10.6018 11.3835 10.7357 11.5408C10.8697 11.6981 10.9826 11.5476 11.0219 11.3573C11.0612 11.1669 11.0236 10.9412 10.9666 10.7684C10.9096 10.5957 10.8344 10.4829 10.7015 10.4247C10.5687 10.3666 10.3806 10.3666 10.2461 10.423C10.1116 10.4795 10.0363 10.5923 9.99759 10.7445C9.91306 11.0764 10.0341 11.4291 10.2045 11.6759C10.2815 11.7873 10.4126 11.8098 10.5271 11.7164C10.8308 11.4686 10.9085 11.0141 10.9466 10.7297C10.9645 10.5969 10.9096 10.4829 10.815 10.4059C10.7204 10.329 10.5699 10.2914 10.4171 10.3096C10.2644 10.3278 10.1139 10.4031 10.0363 10.5171C9.95883 10.7816 9.99645 11.0871 10.1099 11.2963C10.1857 11.355 10.2986 11.3174 10.4148 11.2786" stroke="#0012D4" stroke-linecap="round"/>
<path d="M9.73077 11.1646C6.34495 11.4655 4.07406 12.0344 3.14438 12.7931C2.44542 13.3635 2.05624 13.9735 1.80943 14.6741C1.5108 15.5217 1.7872 16.518 2.14688 17.3713C2.48805 18.1807 3.15407 18.7239 3.81642 19.2358C4.6394 19.8718 5.81143 19.8674 6.77873 19.6029C8.64336 19.0931 9.42297 17.0219 10.1275 15.7109C11.0272 14.0368 10.2643 11.8531 10.1298 11.4684C9.69166 10.2153 12.1955 14.238 13.393 14.9813C14.566 15.7093 16.2585 14.9676 18.311 13.8299C20.1972 12.7844 20.3306 11.0574 20.3904 10.0092C20.4211 9.47144 19.9544 9.03844 19.6323 8.69701C18.9546 7.97856 16.963 7.97254 15.0945 8.1994C13.3097 8.4161 11.6323 10.2503 11.6112 10.4794C11.5574 11.0639 13.3332 9.42262 14.6049 8.36014C15.4429 7.66 15.8469 6.98757 16.1883 6.24941C16.6234 5.30889 16.5332 4.25269 16.3633 3.43759C16.1887 2.59965 15.4342 1.8963 14.7707 1.25105C14.2306 0.725749 13.5715 0.638867 12.9844 0.619487C12.2786 0.596189 11.6334 0.940969 11.0463 1.39469C10.2319 2.02411 9.80829 2.9907 9.56148 3.74881C9.32316 4.48084 9.42639 5.19548 9.65268 6.34745C10.0968 8.60835 10.5664 10.175 10.6422 10.309C10.7497 10.4989 10.7568 9.60959 10.6251 8.72095C10.4044 7.23153 9.62019 5.62412 8.80623 4.05148C7.88674 2.27495 6.88304 1.28639 6.2965 0.926149C5.52189 0.45039 4.52892 0.448486 3.71382 0.561347C1.85046 0.819349 0.993758 3.17766 0.554855 4.81243C0.376855 5.47543 0.647195 6.18272 1.10092 7.14774C1.76973 8.57022 2.54645 9.56627 3.02012 9.9647C3.46829 10.3417 4.74324 10.6299 6.39397 11.0289C8.32173 11.1269 9.15849 10.9753 9.59625 10.8984C9.69201 10.9354 9.76725 11.0483 9.84478 11.1646" stroke="#0012D4" stroke-linecap="round"/>
<path d="M16.0009 39.8927C17.5057 38.3879 18.5818 37.2741 19.4328 36.2345C19.9973 35.5449 20.7729 34.48 21.3868 33.4483C22.0007 32.4166 22.4145 31.4384 22.8534 30.2386C23.2923 29.0387 23.7438 27.6468 24.1268 26.6099C24.7543 24.9116 25.2338 23.9361 25.5553 23.0657C26.0219 21.8023 26.4125 20.8569 26.4319 20.4397C26.4408 20.2475 26.3384 20.0977 26.2056 19.9825C26.0728 19.8674 25.8847 19.7921 25.675 19.8286C25.208 19.9098 24.4426 20.7725 23.3431 22.1172C22.1362 23.5931 21.4387 25.1057 20.5865 26.3734C18.8896 29.5916 18.6616 30.3155 18.4912 30.5994C18.396 30.7704 18.2831 30.9961 18.1669 31.4567" stroke="#0012D4" stroke-linecap="round"/>
<path d="M18.0529 34.8768C18.3538 34.0491 18.697 33.2466 19.3394 32.2251C19.7936 31.5799 20.5084 30.677 20.9707 30.0614C21.433 29.4458 21.6211 29.1448 21.8149 28.9487" stroke="#0012D4" stroke-linecap="round"/>
<path d="M15.8869 39.5507C17.2412 35.7887 17.9765 33.1735 17.9959 31.9971C18.0091 31.1914 17.7872 30.6233 17.6738 30.0927C17.3284 28.4769 14.6397 26.9423 13.9694 26.309C13.8712 26.2163 13.7984 26.1009 13.7408 26.118C13.6832 26.1351 13.6456 26.2856 13.5886 27.3413C13.5316 28.3969 13.4564 30.3532 13.6057 31.9252C13.8659 34.6642 14.7446 36.2402 15.143 36.9994C15.5856 37.8428 16.1126 38.4085 16.4181 38.7334C16.7422 39.078 16.1924 36.6756 16.096 34.0491C16.0396 33.4357 15.888 33.0926 15.6982 32.7512C15.6212 32.5978 15.5836 32.485 15.4309 32.1407" stroke="#0012D4" stroke-linecap="round"/>
</svg>
