<svg width="26" height="40" viewBox="0 0 26 40" fill="none" xmlns="http://www.w3.org/2000/svg">
<path d="M8.97066 5.55505C10.1715 7.22286 10.9235 8.51566 11.2257 9.70637C11.6837 11.5106 11.8009 13.231 11.7842 14.2908C11.777 14.7505 11.7342 15.0504 11.5502 16.6394C11.3662 18.2284 11.0327 21.097 10.8608 22.9584C10.689 24.8197 10.689 25.5869 10.7557 26.4491C10.8224 27.3113 10.9559 28.2453 11.1914 29.3102C11.7604 31.5425 12.1375 32.9788 12.3381 33.8163C12.5054 34.4202 12.8056 35.3876 13.1149 36.3842" stroke="#0012D4" stroke-linecap="round"/>
<path d="M3.20915 39.0123C3.27586 38.4119 3.37694 38.0025 3.56141 37.7841C3.80658 37.494 4.3847 37.2282 5.02403 36.9755C5.7476 36.6895 6.4073 37.2919 7.09817 37.6967C7.78644 38.1 8.19438 38.9435 8.27979 38.9289C10.5178 38.5448 6.94908 34.4314 6.98244 34.1792C7.04805 33.6831 7.65461 33.4206 8.34448 33.184C8.68023 33.0689 9.00301 33.183 9.27188 33.2836C10.2306 33.6422 11.3238 35.2339 12.0682 35.7929C12.6693 36.2442 12.9795 36.8209 13.1139 36.9396C13.6669 37.4282 13.9195 34.7083 14.3435 33.5909C14.6915 32.6738 15.7733 31.9731 16.4313 31.6512C16.6992 31.5201 17.0216 31.5324 17.3077 31.6492C17.6748 31.799 17.5624 32.8404 17.529 33.9169C17.5038 34.7323 17.3602 35.7373 17.4103 36.7648C17.428 37.1281 17.5604 37.1585 17.7787 37.1089C19.1383 36.8005 20.8556 36.4853 21.8052 36.6025C22.4868 36.6867 22.9499 37.4597 23.3734 38.5529C23.425 38.8414 23.425 39.0749 23.4083 39.1285C23.3916 39.1821 23.3583 39.0487 23.3239 38.9112" stroke="#0012D4" stroke-linecap="round"/>
<path d="M10.7901 26.0741C11.1236 25.2735 11.4956 24.5276 12.0157 23.7553C12.7028 22.735 13.8164 21.6994 14.8429 20.824C16.1444 19.7141 17.7949 19.136 18.5858 18.6306C18.9381 18.3961 19.5051 17.9958 19.8473 17.7563C20.1894 17.5167 20.2895 17.45 20.3926 17.3813" stroke="#0012D4" stroke-linecap="round"/>
<path d="M13.6203 21.8288C14.2935 19.0683 14.7625 18.0606 15.4372 17.2155C15.959 16.5621 16.5152 16.2371 17.1217 15.85C17.5703 15.5636 18.0658 15.3941 19.0361 15.1596C21.1249 14.6548 22.7154 14.35 23.0854 14.1483C23.7263 13.7989 24.6319 13.0733 25.2095 12.531C25.2987 12.4473 25.3111 12.3294 25.3617 12.2111C25.4122 12.0929 25.4789 11.9594 25.4632 12.1909C25.4065 13.0289 25.2444 14.4086 25.211 15.8045C25.1616 17.8751 24.0699 19.4635 23.5109 20.0923C22.9932 20.6746 21.646 21.2527 20.7489 21.6256C20.0361 21.922 19.0139 22.031 18.1234 22.1149C15.7824 21.9986 14.4977 21.7277 14.2455 21.6944C14.1267 21.661 14.0266 21.5943 13.7214 21.5256" stroke="#0012D4" stroke-linecap="round"/>
<path d="M10.3858 26.3773C8.57242 25.3383 7.01984 24.0545 5.75787 23.1464C4.96288 22.6051 4.35742 22.2008 4.03497 21.9809C4.05014 21.9632 4.18356 21.9966 4.32103 22.0309" stroke="#0012D4" stroke-linecap="round"/>
<path d="M10.0825 26.1752C9.98146 24.1233 9.91474 23.0458 9.46191 22.1861C9.09766 21.4946 7.86587 20.9231 6.33755 20.1999C3.51506 18.8643 2.33785 18.9662 1.77888 18.6797C1.5012 18.5373 1.2563 18.292 1.00411 18.1237C0.89018 18.0477 0.785275 18.0222 0.700368 18.1718C0.450412 18.6122 0.480016 19.5323 0.546728 20.5911C0.680599 22.7158 1.8931 24.1819 2.28125 24.9597C2.61476 25.6281 3.07169 26.2399 3.66148 26.8802C4.36203 27.6408 5.4612 27.657 6.7919 27.658C7.61418 27.558 8.49458 27.3225 9.20163 27.0364C9.47505 26.9171 9.57512 26.8504 9.7793 26.6806" stroke="#0012D4" stroke-linecap="round"/>
<path d="M11.5987 13.6414C9.8834 13.6747 8.94034 13.7424 8.11553 13.3912C6.4789 12.6942 6.24354 11.7572 5.82204 10.9835C4.94878 9.3804 5.4996 7.64736 6.10405 6.28481C6.34941 5.73173 6.77825 5.02132 7.13203 3.84577C7.52999 2.52342 7.11889 1.28038 6.91673 0.573334C6.81233 0.208206 8.38238 1.23085 10.8239 3.0993C12.5042 4.38513 12.9431 5.31445 13.635 6.88017C13.9597 7.61503 14.0246 9.24845 13.8235 10.3538C13.4535 11.3469 12.9815 12.2242 12.3593 12.8641C12.2062 13.0005 12.1061 13.0672 11.902 13.136" stroke="#0012D4" stroke-linecap="round"/>
</svg>
