<svg width="27" height="48" viewBox="0 0 27 48" fill="none" xmlns="http://www.w3.org/2000/svg">
<path d="M15.1341 8.68491C14.9833 8.68491 15.2826 8.68491 15.8914 8.74145C16.129 8.76352 16.1987 8.91108 16.2752 9.08241C16.6966 10.0259 16.354 11.3075 15.9548 11.9192C15.4083 12.7565 14.6041 12.7193 13.8045 12.7781C13.1717 12.8247 12.5115 12.0774 12.146 11.4857C11.5857 10.5787 12.162 8.84483 12.7143 7.71743C13.1298 6.86915 14.1038 6.55349 14.8451 6.41985C15.093 6.40043 15.3945 6.40043 15.6064 6.41928C15.8183 6.43812 15.9314 6.47582 16.0479 6.62888" stroke="#0012D4" stroke-linecap="round"/>
<path d="M18.6461 8.49295C18.6461 9.05069 18.535 10.337 18.2966 11.126C17.9918 12.1343 17.6114 13.14 16.9379 14.1268C16.6011 14.6204 15.9844 14.9133 15.5911 15.2078C15.3661 15.3762 14.9194 15.4467 14.0684 15.5308C11.6486 15.7701 10.8006 15.2532 10.012 14.8738C9.16871 14.4682 8.61001 14.0755 8.24365 13.6961C8.08674 13.5336 8.04722 13.2334 7.85163 12.676C7.07904 10.4746 7.56855 9.08518 7.77928 8.57875C7.86939 8.36221 8.21126 7.62983 8.88258 6.51013C9.81891 4.94839 10.4843 4.70902 11.0437 4.31657C12.1645 3.53037 12.8112 3.38994 13.1767 3.20781C13.6481 2.97295 14.4096 2.94071 14.8445 2.87089C15.7483 2.7258 17.0965 3.52622 18.4177 4.00489C18.9746 4.20665 19.4571 4.42636 19.9622 4.70607C20.5213 5.01562 21.1395 5.65794 21.5328 6.2607C22.1671 7.23286 22.0111 7.78966 22.0809 8.69779C22.2393 10.7574 21.9 11.1547 21.5219 11.7435C21.2251 12.2057 20.6685 12.5006 20.0506 12.6849C19.4298 12.87 19.0684 12.4199 18.6617 12.1953C18.4795 12.0834 18.366 11.9429 18.31 11.7751C18.2818 11.6905 18.2541 11.6072 18.2255 11.4373" stroke="#0012D4" stroke-linecap="round"/>
<path d="M8.04637 13.3722C7.87896 13.707 7.54331 14.7114 7.48526 15.8497C7.42557 17.0201 8.15742 17.4926 8.92632 18.9185C9.40522 19.8066 10.0906 20.0164 11.085 20.479C11.7558 20.7912 12.2778 20.9148 13.0476 21.0831C13.9315 21.2763 14.6905 21.0839 15.4565 20.8614C17.1071 20.3819 18.3634 19.8229 18.9498 19.4742C20.4988 18.553 20.7475 18.1404 21.2241 17.6785C21.6522 17.2636 21.8411 16.2947 21.9968 15.3113C21.9556 13.7945 21.7318 13.2897 21.5072 12.9528C21.4508 12.8683 21.3953 12.785 21.254 12.6151" stroke="#0012D4" stroke-linecap="round"/>
<path d="M16.1223 2.77246C16.1779 2.57729 16.5127 2.18527 17.1293 1.625C17.655 1.14739 18.1111 1.06305 18.6579 0.936018C19.2207 0.805275 19.6808 0.78207 21.1349 0.836751C22.8344 0.90066 23.1585 1.53751 23.7895 2.12512C24.1628 2.47279 24.5601 3.13251 24.8423 3.76555C25.0402 4.20936 25.3189 4.84361 25.501 5.51577C25.8539 6.8183 25.5729 8.6023 25.5304 9.23366C25.4912 9.81646 25.3205 10.4244 25.0408 11.2379C24.8197 11.8811 24.5365 12.2483 23.9203 12.8931C23.5262 13.2594 23.1905 13.4832 22.8965 13.6792C22.769 13.7642 22.6858 13.8197 22.5158 13.9611" stroke="#0012D4" stroke-linecap="round"/>
<path d="M14.7763 2.60421C14.7486 2.43681 14.4146 2.04563 14.0903 1.69398C13.8208 1.40173 13.5162 1.14717 12.8722 0.866618C12.3653 0.645799 11.7798 0.613823 11.0635 0.515397C10.3812 0.421649 9.53873 0.751788 8.12123 1.63341C7.54542 1.99155 7.2068 2.26603 6.88376 2.53313C6.47979 2.86714 6.14178 3.69447 5.90202 4.15884C5.53606 4.86764 5.04816 5.62934 4.75246 6.33094C4.27609 7.46122 4.62417 9.21642 4.86266 9.97691C5.03518 10.527 5.57646 10.9023 5.94198 11.2539C6.10981 11.3801 6.2789 11.4928 6.44673 11.5908C6.53127 11.6333 6.61456 11.6611 6.86861 11.6897" stroke="#0012D4" stroke-linecap="round"/>
<path d="M12.6732 21.1117C12.6177 21.4742 12.3939 22.1464 12.2669 22.7218C12.1976 23.0359 12.1138 24.0476 11.9035 25.7953C11.6779 27.6696 11.8042 28.8494 11.7621 29.2545C11.6533 30.3025 11.6637 31.035 11.5939 32.667C11.5481 33.7379 11.5796 35.6821 11.5657 36.7942C11.5491 38.129 11.4955 39.1068 11.5094 40.3535C11.5215 41.4426 11.6906 42.3885 11.8177 42.9967C11.9127 43.4515 12.0271 44.0188 12.2518 44.7621C12.4486 45.1705 12.5605 45.6172 12.7843 46.2902C12.8684 46.487 12.9794 46.7091 13.0097 46.9379" stroke="#0012D4" stroke-linecap="round"/>
<path d="M11.9161 34.6557C11.9716 34.5733 12.3064 33.9575 12.672 33.5495C13.0246 33.1559 13.5111 32.5291 14.0314 31.9238C14.5789 31.2869 15.165 30.4276 15.6862 29.848C16.0981 29.3899 16.4858 28.9369 16.9472 28.3073C17.745 27.2185 18.7841 26.8893 19.2194 26.539C19.4015 26.4401 19.5706 26.3282 19.7384 26.1743C19.823 26.1036 19.9063 26.0481 19.7397 25.9909" stroke="#0012D4" stroke-linecap="round"/>
<path d="M15.197 30.113C15.001 29.8901 15.0001 29.1086 15.21 28.0696C15.2935 27.6562 15.6159 27.061 15.9377 26.263C16.1888 25.6404 16.9855 24.8468 17.9664 23.9778C18.6645 23.3593 19.5664 22.9927 20.2983 22.5712C20.8318 22.264 21.5871 22.0387 22.2462 21.7859C23.4675 21.3175 23.8315 21.0847 24.2387 20.9438C24.3609 20.9015 24.5314 20.8879 24.6728 20.8736C24.8141 20.8593 24.9252 20.8593 24.9824 21.2063C25.3357 23.35 24.6761 24.4464 24.3817 24.9095C24.0351 25.4546 23.8063 25.9892 23.6103 26.3539C23.4801 26.596 23.1636 27.1089 22.5764 27.8223C21.3583 29.3021 19.8844 30.0255 19.2652 30.3784C18.5811 30.7684 17.9764 30.8415 17.1348 30.8562C16.9644 30.8424 16.8811 30.8146 16.7133 30.7448C16.5455 30.675 16.2956 30.5639 15.87 30.2813" stroke="#0012D4" stroke-linecap="round"/>
<path d="M10.9907 34.7399C9.45292 34.2376 8.27349 33.5083 7.79566 33.0452C7.31741 32.5816 6.84337 32.1068 6.05849 31.0152C5.49485 29.8615 5.38297 29.3592 5.34048 28.8667C5.3266 28.7678 5.29884 28.6846 5.43849 28.767" stroke="#0012D4" stroke-linecap="round"/>
<path d="M8.80348 33.5621C8.88761 32.2767 8.83208 31.0417 8.49643 29.9069C8.27073 29.1438 7.71322 27.988 6.81561 26.7102C6.38665 26.0995 5.97352 25.2943 5.41283 24.3963C4.65294 23.1792 4.1783 22.5435 3.64621 22.1367C3.06169 21.6899 2.49749 21.4498 2.047 21.2803C1.80622 21.1897 1.54183 21.1958 1.30418 21.2652C0.980372 21.3597 0.812473 21.7274 0.672405 21.9651C0.263627 22.6587 0.670302 24.2731 0.978619 25.5799C1.09172 26.0594 1.56539 26.8262 2.2367 28.1121C3.46684 30.4683 3.67019 30.924 4.03487 31.2474C4.54757 31.7022 4.87654 32.0462 5.6875 32.6485C6.15904 32.9987 6.53043 33.1129 6.90899 33.3089C7.20175 33.4208 7.48441 33.5613 7.6943 33.7013C7.79314 33.7581 7.87643 33.7859 8.04636 33.8986" stroke="#0012D4" stroke-linecap="round"/>
</svg>
