<svg width="36" height="48" viewBox="0 0 36 48" fill="none" xmlns="http://www.w3.org/2000/svg">
<path d="M16.284 46.8517C16.284 45.789 16.284 44.5685 16.3194 43.3539C16.3467 42.417 16.4987 40.8522 16.5341 38.7976C16.5494 37.9114 16.6404 37.3452 16.9957 36.1322C17.351 34.9192 17.9886 33.0771 18.8662 31.1009C19.7437 29.1246 20.8419 27.07 21.9213 25.3563C23.0006 23.6425 24.0279 22.3318 24.6811 21.5503C25.3343 20.7689 25.5823 20.5563 25.834 20.376C26.0857 20.1956 26.3337 20.0539 26.6965 19.8006" stroke="#0012D4" stroke-linecap="round"/>
<path d="M12.3122 11.857C13.1624 13.7345 14.0126 15.6119 14.5922 17.0574C15.1719 18.5028 15.4553 19.4592 15.8138 21.8648C16.1723 24.2705 16.5974 28.0963 16.7633 32.2103C16.9291 36.3243 16.8229 40.6106 16.7504 42.8719C16.6425 45.2394 16.606 45.4551 16.5883 45.6693C16.5706 45.7772 16.5352 45.8834 16.4987 45.9929" stroke="#0012D4" stroke-linecap="round"/>
<path d="M19.075 29.569C19.0041 29.2148 18.7551 27.6153 18.4331 25.0079C18.1739 22.9095 18.4298 21.5932 18.644 20.9325C18.9759 19.9084 19.6793 19.2316 20.3406 18.7126C20.5905 18.5165 20.7539 18.5833 20.88 18.6901C21.4034 19.1333 21.4709 20.7538 21.7398 21.8203C21.7734 21.9534 21.8295 22.0527 21.8477 22.0189C22.1198 21.5146 21.5804 20.5219 21.5616 18.324C21.5487 16.812 22.3297 15.5454 23.1686 14.8471C23.3502 14.6959 23.474 14.6845 23.6173 14.7194C24.3214 14.8908 24.6548 16.1079 25.0134 16.563C25.3461 16.9855 25.6918 15.3318 26.5108 14.4225C27.6832 13.1211 29.0184 12.4313 30.0162 12.0921C31.3937 11.6238 32.3848 11.6423 32.5458 11.7663C32.8437 11.9956 32.1046 13.173 31.1938 14.5487C30.1223 16.167 29.2406 16.6124 28.9851 17.0622C28.6003 17.7396 30.4526 17.1878 30.6313 17.3483C30.7977 17.4977 30.8111 17.8308 30.8648 18.17C30.9582 18.7606 30.2776 19.5451 29.4913 20.37C29.2443 20.6292 28.8155 20.8332 28.7742 20.961C28.6802 21.2516 29.5219 21.1241 29.772 21.2309C30.0041 21.3301 30.0242 21.7661 30.0065 22.2126C29.9929 22.5568 29.8106 22.876 29.5965 23.1798C29.1284 23.8438 27.9868 24.1996 27.2016 24.5404C25.8734 25.1169 25.3386 25.0959 25.1942 25.1496C24.2198 25.5119 27.3395 25.5607 27.536 25.7389C27.7556 25.9382 27.8054 26.2402 27.8591 26.4544C27.9113 26.6629 27.8419 26.8843 27.7528 27.0985C27.4377 27.8559 25.7734 28.706 24.2684 29.3704C23.5137 29.4971 22.056 29.569 20.3921 29.6399C19.8264 29.7107 19.8264 29.8524 19.8264 29.9984" stroke="#0012D4" stroke-linecap="round"/>
<path d="M15.64 19.8006C16.8186 18.2655 17.3918 17.1212 17.6065 15.1311C17.7746 13.5733 17.6795 10.8737 17.6264 9.39826C17.5733 7.92279 17.467 7.74567 17.3591 7.63671C17.2512 7.52776 17.145 7.49233 17.0371 7.54493C16.3562 7.8769 16.108 9.23992 15.8375 9.65642C15.4621 10.2343 15.144 7.07798 14.764 5.54508C14.5215 4.56695 13.9246 3.73738 13.5838 3.19958C13.5085 3.08076 13.3879 3.02031 13.2977 3.09009C12.668 3.57737 12.9563 4.69705 12.8855 5.23378C12.8599 5.42785 12.6729 5.41627 12.5291 5.36313C12.2223 5.24981 11.1057 4.1732 9.30174 2.54745C7.9405 1.32067 7.05446 0.801475 6.62615 0.622745C6.21853 0.452647 5.83716 0.478365 5.56933 0.584637C4.68136 0.936977 5.29828 2.83353 5.63749 3.71376C5.96891 4.57376 7.08022 6.97063 7.74898 8.40209C7.80718 8.52666 7.80373 8.63449 7.73288 8.68924C7.35823 8.97874 6.76892 8.99303 6.14202 9.51097C5.46929 10.0668 5.44212 11.4212 5.65521 12.1409C6.07965 13.5746 8.15797 13.9653 8.6786 14.5031C8.794 14.6223 8.94589 14.6823 8.96575 14.7366C9.12448 15.1698 7.73503 14.9335 6.89451 15.5218C6.45795 15.8273 6.40824 16.2925 6.42595 16.5781C6.46219 17.1624 7.2992 17.5442 8.15797 17.9027C9.51776 18.4704 11.7283 18.9762 12.8817 19.3519C13.7067 19.6567 14.3475 19.9423 15.0828 20.0684C15.2449 20.1216 15.3866 20.2278 15.7473 20.552" stroke="#0012D4" stroke-linecap="round"/>
<path d="M16.1766 47.0664C16.8143 44.7284 17.3199 43.2052 18.2967 41.9251C19.0553 40.931 20.5134 39.3697 21.7216 38.1943C23.7784 36.1932 25.1196 35.4742 25.6547 35.2246C25.9456 35.0889 26.2607 34.9042 27.5585 34.4055C28.8563 33.9069 31.1235 33.0922 32.3976 32.6547C34.1972 32.0369 34.5317 31.8953 34.6927 31.9301C35.2517 32.0513 34.4984 33.1437 33.9091 34.8757C33.6739 35.5669 32.5737 36.8933 30.8068 38.9114C29.9676 39.8699 29.0753 40.5398 28.3362 41.1173C26.0642 42.8927 24.5195 43.1655 23.6758 43.1843C22.7944 43.2039 21.6577 43.1655 20.5113 43.5573C18.3782 44.2863 17.3982 45.8448 16.8046 46.3316C16.6853 46.4295 16.5373 46.5275 16.5175 46.4583C16.4268 46.1423 17.0676 45.4605 18.3128 44.2497C19.1645 43.4215 20.6207 42.3303 21.5278 41.6578C22.4349 40.9853 22.7891 40.8082 23.1133 40.6638C23.4375 40.5194 23.7209 40.4131 24.2276 40.3036" stroke="#0012D4" stroke-linecap="round"/>
<path d="M15.8546 46.637C15.9266 44.3495 15.7129 43.2793 15.4086 42.4887C15.1933 41.9294 14.6051 41.0272 14.2278 40.2344C13.8163 39.3699 13.39 38.1997 12.922 37.0339C12.3902 35.7095 10.9983 34.3009 9.58136 33.4362C8.24438 32.6203 6.45116 32.5748 5.25372 32.5393C4.09286 32.505 3.54853 32.0745 2.33391 31.3258C1.81449 31.0056 1.57874 30.5373 1.36458 30.233C1.28307 30.1172 1.15043 30.1767 1.07797 30.2657C0.624658 30.8232 0.684547 32.0337 0.522455 33.0718C0.31098 34.426 1.64422 36.787 2.38007 37.8674C3.27062 39.175 4.5082 40.1942 5.27733 40.6949C6.60921 41.5621 7.65343 41.9825 9.03336 42.4489C10.0226 42.7833 10.6978 43.2363 12.9477 44.1289C13.8594 44.4906 14.8112 44.7735 15.4773 45.2576C15.6026 45.3487 15.6035 45.5249 15.5686 45.5979C15.5337 45.6709 15.4274 45.6709 15.3195 45.6001C14.3736 44.9789 14.3539 42.8477 13.6573 42.1672C13.1409 41.6691 12.601 41.0583 12.1721 40.5398C11.9913 40.3401 11.885 40.2693 11.5608 40.089" stroke="#0012D4" stroke-linecap="round"/>
</svg>
