<svg width="23" height="41" viewBox="0 0 23 41" fill="none" xmlns="http://www.w3.org/2000/svg">
<path d="M8.80458 39.759C8.8617 39.7599 9.56218 39.1772 10.3251 38.0504C10.895 37.2086 11.0888 36.2759 11.2642 35.4445C11.3714 34.9357 11.4395 34.236 11.4843 33.4134C11.5796 31.6647 11.4421 30.2424 11.2813 29.4522C11.0535 28.3331 10.8559 27.2225 10.8115 26.4618C10.7529 25.4578 10.5044 24.4716 10.1392 22.6874C9.87905 21.4166 9.85925 20.31 9.84474 19.6372C9.81944 18.4632 9.82936 17.117 9.88825 16.3691C9.97526 15.7723 10.18 14.8627 10.4143 13.9842C10.5035 13.6568 10.5325 13.5698 10.5624 13.4802" stroke="#0012D4" stroke-linecap="round"/>
<path d="M10.826 13.2165C10.1827 12.9546 9.83112 12.2532 9.2906 10.9819C9.07684 10.4792 8.86786 9.74489 8.66132 8.8348C8.45478 7.92471 8.28076 6.85158 8.20561 5.92172C8.06992 4.2426 8.33437 3.08378 8.6121 2.42549C8.81376 1.94751 9.27039 1.47189 9.85485 0.945C10.3411 0.50667 10.9992 0.531482 11.4962 0.502039C12.3352 0.452335 13.1357 1.31809 13.9144 2.35826C14.2097 2.75269 14.1658 3.71746 14.1368 4.90264C14.1183 5.65758 13.642 6.87883 13.0566 8.44501C12.5716 9.74287 11.8262 10.9806 11.3402 11.954C11.2373 12.1592 11.1213 12.4202 11.0471 12.5982C10.9728 12.7762 10.9438 12.8632 10.826 12.9528" stroke="#0012D4" stroke-linecap="round"/>
<path d="M11.0018 13.0407C11.4659 12.4026 12.227 11.6389 13.105 10.9217C14.1848 10.0397 15.2187 9.37925 15.7601 9.11603C16.3997 8.80504 17.1505 8.76403 17.6941 8.58825C17.9595 8.50244 18.4108 8.64538 18.8938 8.80622C19.3935 8.97265 19.5552 9.52339 19.7608 10.1812C19.9047 10.6414 19.7617 11.0474 19.7323 11.2667C19.7185 11.369 19.7608 11.457 19.8918 11.5308C20.2282 11.7204 20.7258 11.8384 21.1064 12.0577C21.3497 12.1979 21.4307 12.4536 21.5186 12.9194C21.6911 13.8336 21.2875 14.969 20.8194 15.847C20.2602 16.8962 18.889 17.5195 17.5693 17.8447C16.3705 18.1401 15.7513 17.5828 13.5884 16.3563C12.5465 15.7655 12.06 14.9778 11.6183 14.5801C11.53 14.4777 11.443 14.3327 11.3547 14.229C11.2663 14.1253 11.1793 14.0673 10.9139 13.9196" stroke="#0012D4" stroke-linecap="round"/>
<path d="M9.85925 12.8649C9.15701 11.812 8.80634 11.2847 8.36733 10.5543C7.94293 9.84827 7.28498 8.9732 6.53968 8.15407C5.52574 7.0397 3.80721 7.09413 2.53809 7.25365C1.89973 7.33389 1.54143 8.20329 1.276 9.15469C0.94075 10.3564 1.50803 10.9876 1.94748 11.7777C2.32782 12.4616 2.79648 12.7753 3.32426 13.0253C3.43837 13.0794 3.52948 13.0987 3.5308 13.1427C3.54511 13.6197 2.42032 13.626 1.92199 13.9618C1.5544 14.2094 1.36389 14.5629 1.276 14.9707C1.11664 15.7102 1.27512 16.3497 1.36257 16.642C1.57449 17.3501 2.70508 17.959 3.80545 18.3861C4.82005 18.78 5.69506 18.5197 6.45706 18.3009C8.17729 17.8068 8.77294 16.8815 9.32971 16.1638C9.82936 15.2397 10.0051 14.7994 10.1655 14.479C10.2679 14.2457 10.4129 13.8686 10.6502 13.3923" stroke="#0012D4" stroke-linecap="round"/>
<path d="M11.5945 33.4549C12.0326 32.9292 12.7621 32.0232 13.5583 31.0059C13.8548 30.6271 13.9164 30.5144 14.2898 30.0856C15.325 28.8967 16.1733 28.0351 16.4053 27.8254C16.5716 27.6375 16.7488 27.4377 16.9476 27.2499C17.0369 27.1716 17.1026 27.1278 17.1703 27.0162" stroke="#0012D4" stroke-linecap="round"/>
<path d="M11.9264 32.5256C11.8826 32.5256 11.86 32.2847 11.8819 31.7334C11.9092 31.0481 12.1899 30.0318 12.5215 29.0036C12.6938 28.4694 12.8332 28.2124 12.9433 27.9365C13.0677 27.6253 13.6257 26.8456 14.5304 25.6531C15.3711 24.5451 16.1507 24.0305 16.471 23.7766C16.9513 23.3959 17.4106 23.0574 17.9536 22.7029C18.6178 22.2693 19.6847 21.9303 20.6306 21.6402C21.0702 21.5054 21.4172 21.3966 21.7494 21.3518C21.9936 21.3189 21.5739 21.9914 21.5842 22.8523C21.5927 23.5634 21.7504 24.3571 21.6738 25.2283C21.5817 26.2743 21.001 27.3428 20.4819 28.2489C20.1211 28.8788 19.4318 29.512 18.6253 30.2415C17.826 30.9646 17.3495 31.1303 16.9065 31.4513C16.4982 31.747 15.7379 32.2123 15.0923 32.525C14.5822 32.7022 13.8355 32.9664 13.0688 33.1117C12.8371 33.123 12.4867 33.123 12.1256 33.0567" stroke="#0012D4" stroke-linecap="round"/>
<path d="M11.3954 33.0566C11.0867 32.6378 10.7767 32.1512 10.4346 31.6647C9.83702 30.815 8.83186 29.8957 8.34364 29.5177C7.83497 29.1238 7.41401 28.7434 6.42099 27.9707C6.10901 27.7039 5.93112 27.5479 5.72169 27.3717C5.59989 27.2611 5.44656 27.1078 5.35495 27.0826" stroke="#0012D4" stroke-linecap="round"/>
<path d="M11.1963 32.5256C11.1518 32.3935 11.1963 31.7782 11.1083 31.2329C11.0085 30.6141 10.6666 30.1599 10.4452 29.674C10.1765 29.0842 9.67221 28.3697 9.24108 27.7397C8.73176 26.9956 8.27693 26.3538 7.98918 25.9668C7.61098 25.4581 6.86307 25.005 6.13291 24.4852C4.80342 23.5389 3.96366 23.4544 3.31116 23.2997C2.49152 23.1054 2.03869 23.0787 1.34171 22.8795C1.01858 22.7872 0.819979 22.5476 0.687222 22.5682C0.274833 22.6321 0.66399 23.4305 0.719084 23.7063C0.77932 24.0078 1.10408 24.9286 1.68854 26.4188C1.97764 27.1559 2.38253 27.7995 2.71674 28.3352C3.65389 29.8372 4.04863 30.1347 4.40209 30.4556C4.55858 30.5977 5.17241 30.9737 6.05691 31.4603C6.49439 31.7009 6.94472 31.9043 7.66161 32.2465C9.04892 32.7467 9.49033 32.8788 10.3403 33.0341C10.6393 33.0567 11.0117 33.0567 11.3954 33.0567" stroke="#0012D4" stroke-linecap="round"/>
</svg>
