<svg width="29" height="41" viewBox="0 0 29 41" fill="none" xmlns="http://www.w3.org/2000/svg">
<path d="M2.63969 21.5279C3.07795 21.4305 4.52113 21.4047 6.47526 21.4659C7.43446 21.496 8.09515 21.6261 8.90528 21.6873C9.57291 21.7378 10.1625 21.8231 10.6904 21.8352C11.0981 21.8446 11.7835 21.8968 12.6678 21.8847C13.261 21.8765 14.2161 21.8231 15.4081 21.8352C16.041 21.8417 17.1409 21.8725 18.7619 21.7991C19.9013 21.7475 20.5179 21.6017 21.1292 21.553C23.1101 21.3952 23.6883 21.2579 24.2192 21.1594C24.9833 21.0176 25.7321 21.1339 26.2113 21.3671C26.5733 21.5432 26.6676 22.0665 26.7049 22.4734C26.7362 22.8153 26.8403 23.734 26.6935 24.5143C26.6106 24.9545 25.6406 25.313 24.6914 25.6221C24.0195 25.8409 22.9593 25.9534 22.4148 26.0408C21.8064 26.1385 20.9643 26.1511 20.2028 26.1884C20.0285 26.1969 19.9313 26.2249 19.1872 26.2375C18.4431 26.25 17.0553 26.25 16.2795 26.2622C14.89 26.284 13.9062 26.3725 13.3282 26.4097C12.9959 26.4311 11.8964 26.4713 10.3119 26.4957C8.54188 26.5229 7.51227 26.5702 6.79879 26.5329C6.18048 26.5007 5.64263 26.4226 3.77852 26.361C2.90428 26.3321 2.59247 25.9313 2.24753 25.6003C1.35247 24.7417 1.99926 22.9859 2.15936 22.268C2.2206 22.0961 2.318 21.8526 2.40469 21.7271C2.49138 21.6017 2.56443 21.6017 2.63969 21.6017" stroke="#0012D4" stroke-linecap="round"/>
<path d="M4.11533 26.3976C4.16403 26.3976 4.31086 26.7141 4.58053 27.6076C4.99674 28.9866 5.1232 29.9871 5.20916 30.2446C5.48619 31.0745 5.34455 32.1998 5.41833 33.1523C5.47688 33.9082 5.44342 35.2249 5.43124 35.9509C5.41742 36.775 5.36963 37.4103 5.44268 38.368C5.53244 39.5449 6.0322 39.8245 6.36422 40.0587C6.83696 40.3923 7.57867 40.3424 9.09011 40.0975C9.79283 39.9836 10.6274 39.8023 12.5073 39.7644C13.5817 39.7426 14.858 39.9234 15.77 39.9857C16.4353 40.0312 17.3194 40.096 18.3018 40.1454C19.6827 40.2149 21.1044 40.1226 21.6619 39.9005C22.0208 39.7575 22.3381 39.5559 22.548 39.3106C22.7532 39.0707 22.7572 38.6233 22.8435 37.9368C22.9894 36.776 22.9047 35.8675 23.0272 35.4639C23.4249 34.1537 23.3961 33.2888 23.4706 32.6713C23.5212 32.2526 23.5939 31.9076 23.7156 31.2366C24.0121 29.602 24.3317 28.4399 24.356 28.2071C24.4201 27.5948 24.5279 27.1133 24.6877 26.5105C24.7249 26.374 24.7493 26.2766 24.7618 26.1777C24.7744 26.0788 24.7744 25.9814 24.7744 25.8811" stroke="#0012D4" stroke-linecap="round"/>
<path d="M8.76362 21.3804C8.98497 20.9901 8.93627 20.1039 8.89901 19.6114C8.85374 19.013 8.68984 18.3332 8.6286 17.8779C8.49555 16.8889 8.41979 16.2909 8.37036 15.898C8.25474 14.979 8.05088 14.2515 8.01362 13.3661C7.98138 12.6 7.90332 11.9643 7.89041 9.93969C7.88491 9.07749 8.19697 8.30172 8.51645 7.25475C8.73187 6.5488 9.03219 6.013 9.35277 5.46996C9.73396 4.82427 9.89397 4.33814 10.0419 4.03047C10.2475 3.60276 10.7277 3.03662 11.1235 2.7876C11.462 2.5747 11.9355 2.6891 12.0462 2.61569C12.2981 2.44861 12.4276 2.05089 13.2725 1.79191C14.3445 1.46327 15.0823 2.07302 15.4151 2.20878C15.7788 2.35718 16.0415 2.71198 16.3621 2.90971C16.6136 3.06484 17.0494 2.86102 17.4194 2.95878C17.8775 3.0798 18.1325 3.32732 18.5745 3.76817C19.6385 4.82955 19.6583 5.63818 19.7568 6.26496C19.8384 6.78394 20.0523 7.36026 20.1257 7.70446C20.1878 7.99527 20.1999 9.19597 20.1877 10.8063C20.1823 11.5166 20.1261 11.8602 20.1017 12.3627C20.0713 12.9904 19.9785 14.0929 19.9907 15.2852C20.0037 16.555 20.101 17.9849 20.1383 18.6844C20.1695 19.2698 20.2737 20.3873 20.2124 21.1085C20.1999 21.207 20.1999 21.3287 20.1877 21.3549C20.1755 21.3811 20.1512 21.3081 20.1261 21.2328" stroke="#0012D4" stroke-linecap="round"/>
<path d="M20.0523 14.8138C20.1748 14.3475 20.5171 13.8089 20.8016 13.3396C21.059 12.9149 21.5265 12.6269 21.8832 12.2572C22.1374 11.9938 22.5343 11.9127 24.4224 11.2501C24.8399 11.1036 24.9928 11.1247 25.1411 11.1612C25.7181 11.3033 25.8796 11.9348 26.0774 12.2303C26.2997 12.5625 26.25 13.1153 26.3113 13.7768C26.4702 15.4937 25.9077 16.3839 25.7217 16.8782C25.5763 17.2649 25.341 17.591 25.1075 17.9968C24.698 18.7083 24.5294 19.0666 24.3324 19.4115C24.1029 19.8134 23.9879 20.1733 23.8772 20.6286C23.8403 20.74 23.7916 20.8374 23.7422 20.9241C23.6927 21.0108 23.644 21.0838 23.5939 21.1591" stroke="#0012D4" stroke-linecap="round"/>
<path d="M7.80445 21.2328C7.70706 20.9399 7.46062 20.2028 7.15406 19.1097C6.9514 18.3871 6.74789 17.9643 6.61213 17.484C6.47301 16.9918 6.13254 16.5373 5.93628 15.9482C5.56938 14.8468 5.39472 14.4463 5.22281 14.0896C5.05507 13.7415 4.87824 13.316 4.70633 12.9581C4.51535 12.5606 4.14189 12.2816 3.80914 12.0967C3.63974 12.0026 3.42768 12.0344 3.21925 12.1078C2.69459 12.2926 2.46851 12.8689 2.27151 13.226C1.86843 13.9566 2.318 15.7641 2.61423 16.7664C2.69714 17.0469 2.81086 17.3939 3.05582 18.079C3.6719 20.222 3.8689 20.7894 3.96703 20.9609C4.01646 21.0594 4.06516 21.1812 4.18912 21.3804" stroke="#0012D4" stroke-linecap="round"/>
<path d="M5.00072 14.0021L5.81232 12.6003" stroke="#0012D4" stroke-linecap="round"/>
<path d="M2.12321 15.1827C1.6606 15.0609 1.19798 14.9392 0.923142 14.8765C0.648302 14.8138 0.575258 14.8138 0.5 14.74" stroke="#0012D4" stroke-linecap="round"/>
<path d="M3.96777 18.798L2.5659 18.9456" stroke="#0012D4" stroke-linecap="round"/>
<path d="M19.9785 7.14042C20.222 6.92128 20.4655 6.70215 20.737 6.50404C21.0085 6.30594 21.3007 6.1355 21.4542 5.9599" stroke="#0012D4" stroke-linecap="round"/>
<path d="M14.4449 1.68052V0.5" stroke="#0012D4" stroke-linecap="round"/>
<path d="M8.46849 6.47636C8.3224 6.35462 8.17631 6.23288 8.02801 6.13364C7.87971 6.0344 7.73362 5.96136 7.60966 5.91155C7.48571 5.86175 7.38832 5.8374 7.28797 5.81232" stroke="#0012D4" stroke-linecap="round"/>
<path d="M11.9363 9.72278L10.7557 8.76361" stroke="#0012D4" stroke-linecap="round"/>
<path d="M16.7321 9.72277C16.9025 9.67407 17.073 9.62537 17.2704 9.55159C17.4677 9.47781 17.6869 9.38042 17.9864 9.13251" stroke="#0012D4" stroke-linecap="round"/>
<path d="M16.8059 15.5516C16.9763 15.6977 17.1468 15.8438 17.3076 15.9555C17.4685 16.0673 17.6145 16.1404 17.8388 16.2894" stroke="#0012D4" stroke-linecap="round"/>
<path d="M26.6927 15.0351L28.0946 14.8138" stroke="#0012D4" stroke-linecap="round"/>
<path d="M22.7085 11.7887C22.6598 11.6669 22.6111 11.5452 22.5738 11.446C22.5366 11.3467 22.5122 11.2737 22.4871 11.1246" stroke="#0012D4" stroke-linecap="round"/>
<path d="M23.2987 15.3302L23.1512 14.5924" stroke="#0012D4" stroke-linecap="round"/>
</svg>
