<svg width="27" height="47" viewBox="0 0 27 47" fill="none" xmlns="http://www.w3.org/2000/svg">
<path d="M7.86544 16.025C7.372 15.7223 6.9151 14.9627 6.64781 13.2562C6.0101 9.18467 6.7232 8.60275 6.91281 7.67125C7.06409 6.9281 7.36971 6.01443 7.93912 4.85449C8.06869 4.59053 8.20583 4.49068 8.5091 4.43243C9.29024 4.28238 10.0334 4.44956 10.508 4.63918C11.4957 5.03377 12.2379 6.11952 12.9084 6.92252C13.5657 7.70969 14.0313 8.44512 14.5264 9.01681C15.3254 10.0443 15.9365 10.8827 16.0884 11.2819C16.165 11.4549 16.2404 11.568 16.4323 11.6845" stroke="#0012D4" stroke-linecap="round"/>
<path d="M12.5486 6.77288C12.359 6.31941 12.206 4.65059 12.7177 2.57228C12.9083 1.79798 13.4601 1.33124 13.9176 1.06224C14.443 0.75329 15.5139 1.40206 16.2015 1.89722C17.0361 2.49824 17.5334 3.83503 17.9537 4.58092C18.5394 5.62024 18.8287 6.65408 19.0777 7.24691C19.3123 7.8055 19.4775 8.33089 19.5351 9.03566C19.5871 9.67009 19.7059 10.3481 19.6694 11.8301C19.6276 13.5243 18.8721 14.7594 17.8263 16.6847C17.1419 17.9447 16.1695 18.2684 15.5207 18.7647C14.9326 19.2146 14.3785 19.4883 13.8262 19.7744C13.3329 20.03 12.7794 20.2879 12.0375 20.574C10.7414 21.0739 8.36345 20.6328 7.45023 20.3667C6.70759 20.1503 6.1932 19.8721 5.48843 19.4535C4.79993 19.0445 4.176 18.426 3.54605 17.9874C2.92438 17.5545 2.27074 16.7515 1.94577 16.2552C1.65123 15.8053 1.50772 15.1524 1.26043 14.4287C1.02813 13.749 0.746992 12.9844 0.650473 12.2579C0.553646 11.5291 0.440872 10.2453 0.535678 9.42116C0.594847 8.90681 0.66932 8.3743 0.877779 7.78433C0.938189 7.61336 0.973156 7.42395 1.04911 7.28917C1.33958 6.77375 2.37811 6.8871 3.23651 7.0196C3.88529 7.11975 4.58721 7.53361 5.12235 7.7809C5.57981 7.95281 5.92249 8.10473 6.15036 8.25665C6.26516 8.33318 6.37824 8.40857 6.49475 8.60046" stroke="#0012D4" stroke-linecap="round"/>
<path d="M2.72536 6.54443C2.49806 6.16635 2.26847 4.80137 2.45808 3.7488C2.58484 3.0451 3.52379 2.54773 3.8459 2.37639C4.73869 1.90151 5.35137 2.7362 5.5604 2.77503C6.10382 2.876 5.8848 1.7493 6.37825 1.32953C6.83784 0.938554 7.48165 1.06167 8.07276 1.25129C8.31113 1.32775 8.66273 0.98857 9.13905 0.700725C9.8608 0.264556 10.9472 0.641329 11.4047 0.870348C11.8621 1.25129 12.3179 1.63051 12.7377 1.99317C12.8148 2.08855 12.8525 2.20163 12.8913 2.31814" stroke="#0012D4" stroke-linecap="round"/>
<path d="M14.262 19.6802C14.2597 20.2079 15.0204 22.4102 15.2135 23.485C15.3735 24.3761 15.5185 26.328 15.4236 27.749C15.3498 28.8556 15.0616 30.3008 14.9479 30.9478C14.8534 31.4858 14.6069 33.1449 14.4716 34.1849C14.396 34.7659 14.262 35.4408 13.9399 36.8464C13.7278 37.7719 13.1974 38.7145 12.9301 39.7796C12.7319 40.5696 12.5486 41.7209 12.4161 42.4079C12.206 43.7392 12.1306 44.8072 12.0729 45.6439C12.054 45.8364 12.0163 45.9495 11.9775 46.066" stroke="#0012D4" stroke-linecap="round"/>
<path d="M14.6047 32.0164C14.3774 31.7891 13.6201 31.0318 12.9124 30.4378C12.682 30.2444 12.5486 29.6611 12.2648 28.6885C11.9517 27.6155 10.9906 27.1847 10.3047 26.5548C9.79547 26.0871 9.31381 25.7364 7.87116 24.4256C7.17973 23.7974 6.30971 23.2988 4.84365 22.6335C3.87103 22.1921 2.4992 22.3462 1.5677 22.2885C1.35538 22.2754 1.24273 22.232 1.14678 22.2879C0.914848 22.4232 0.897776 22.7631 0.916623 23.0098C0.96621 23.659 1.31584 24.3977 1.67678 25.4257C1.94029 26.1762 2.68424 26.7964 3.1617 27.3315C3.69137 27.9252 4.43644 28.6262 4.91275 29.0449C5.45697 29.5232 6.03558 29.7685 7.11842 30.1494C8.05391 30.3407 8.66273 30.4173 9.66676 30.5121C10.3281 30.5315 11.5343 30.5315 12.7771 30.5315" stroke="#0012D4" stroke-linecap="round"/>
<path d="M13.5766 38.2987C13.652 37.8818 14.182 36.8961 14.9068 35.9034C15.5925 34.9643 16.3523 33.9993 16.8868 33.4088C17.9436 32.2414 19.6214 31.1095 20.9972 30.343C21.6391 29.9854 22.2554 29.6954 23.0538 29.4092C23.9374 29.0926 24.7295 28.8958 25.4342 28.7993C25.6061 28.7757 25.7575 28.7427 25.8917 28.7233C26.0259 28.7039 26.139 28.7039 26.1972 28.8735C26.686 30.2968 25.4582 32.2014 24.9436 33.1935C24.5395 33.9727 23.2925 35.2467 22.4884 36.0879C21.9611 36.6396 20.4415 37.5289 19.3666 38.2782C18.6579 38.7722 17.8075 38.9064 16.9314 39.0789C15.4054 39.0606 14.8742 38.9087 14.3779 38.851C14.2631 38.8322 14.15 38.7945 13.8051 38.6414" stroke="#0012D4" stroke-linecap="round"/>
</svg>
