<svg width="29" height="46" viewBox="0 0 29 46" fill="none" xmlns="http://www.w3.org/2000/svg">
<path d="M13.8283 8.62194C13.4412 8.62194 12.4018 8.77646 11.9437 8.86893C11.5383 8.95077 11.1765 9.11515 10.6568 9.41404C10.1834 9.68626 9.97942 10.0251 9.70628 10.6615C9.43315 11.2979 9.224 13.2138 9.3793 14.4979C9.44868 15.0715 10.0262 15.8218 10.873 16.3728C11.3259 16.6675 12.6484 16.5039 14.5369 16.0899C15.8627 15.7993 16.0899 15.3864 16.3767 15.1004C16.6813 14.7965 16.7673 14.2423 16.7809 12.6214C16.7864 11.9679 16.5082 11.667 16.3263 11.3158C16.0054 10.6961 15.7278 10.1062 15.5202 9.7937C15.13 9.48115 14.7148 9.11827 14.1814 8.81782C14.0632 8.77802 13.9859 8.77802 13.9063 8.77802" stroke="#0012D4" stroke-linecap="round"/>
<path d="M10.6287 9.16821C10.5257 9.06442 9.956 8.75461 9.343 8.15605C8.71287 7.54076 8.36712 6.51801 8.22275 5.75166C7.9067 4.07404 8.49511 3.42142 8.75459 2.93992C9.08287 2.33075 9.82021 1.88561 10.1722 1.69012C10.5677 1.47042 11.3264 1.44235 11.8886 1.54575C12.4398 1.6471 12.6827 2.14314 12.891 2.36555C13.1214 2.61138 13.1509 1.49854 13.579 1.02757C14.2443 0.295471 15.6169 0.505881 16.194 0.609283C16.713 0.702263 16.9998 1.20667 17.5722 1.90785C17.9701 2.39521 18.0424 3.77572 17.8227 4.78086C17.4672 6.40763 17.0295 6.87543 16.7817 7.30698C16.4876 7.81914 15.9369 8.17868 15.6115 8.4128C15.514 8.48294 15.4172 8.59385 15.4285 8.58253C16.0522 7.95879 16.8687 6.64911 17.3514 5.93193C17.7423 5.35103 18.4295 5.03371 19.1193 4.81168C19.6605 4.63751 19.9918 4.66848 21.5998 4.65483C22.0226 4.65124 22.2292 4.823 22.4758 5.06921C22.9601 5.55275 23.0353 6.32759 23.1021 7.21451C23.137 7.67914 22.3907 8.33163 22.1258 8.67345C21.6626 9.27101 23.3459 8.98404 23.8029 9.32312C24.2108 9.62588 24.337 10.2842 24.3507 10.9994C24.3605 11.5127 24.1825 11.82 23.9484 12.4174C23.7313 12.9712 23.015 13.3012 22.557 13.5509C22.2022 13.7443 21.8679 13.746 20.1436 13.7468C19.1969 13.7472 18.5918 13.3573 18.0701 13.0842C17.9605 13.0268 17.8879 12.9672 17.9253 12.9664C18.4052 12.9564 18.8977 13.3293 19.7042 13.5247C20.2792 13.6641 20.9002 13.8755 21.5389 14.1744C22.1569 14.4636 22.308 15.0976 22.477 15.4749C22.6919 15.955 22.7762 16.6584 22.7899 18.0073C22.7937 18.3773 22.6475 18.6094 22.4918 18.8692C22.1873 19.3774 21.3481 19.5989 20.9962 19.755C20.5742 19.9421 19.4034 19.9376 18.7073 19.7956C18.3489 19.7224 18.1993 19.2111 18.0822 19.0023C17.8926 18.6641 18.1204 20.064 18.0042 20.7156C17.8936 21.3351 17.2901 21.4968 16.8866 21.6798C16.14 22.0185 15.4687 21.7856 14.9489 21.5772C14.5158 21.4036 14.117 21.1097 13.7772 20.7972C13.5028 20.5449 13.4646 20.0952 13.3733 19.6531C13.3343 19.3141 13.2563 19.0542 13.2172 18.6663C13.204 18.3815 13.204 17.9179 13.204 17.4403" stroke="#0012D4" stroke-linecap="round"/>
<path d="M8.20948 14.3188C7.71628 14.3188 7.09509 14.4733 6.62412 14.7082C6.10381 14.9677 4.96618 16.0013 4.17916 16.9436C3.96177 17.2039 3.91734 17.8259 3.95597 18.6055C4.00185 19.5316 4.93028 19.9626 5.48865 20.3005C6.24977 20.7611 7.19342 20.3809 7.51923 20.1721C7.71794 20.0448 7.42909 20.7679 7.4806 21.1316C7.56617 21.7358 8.33747 21.862 9.05152 22.0829C9.96119 22.3642 10.521 21.8901 10.9654 21.6295C11.4775 21.3292 11.7977 21.0052 12.2269 20.5896C12.5401 20.2864 12.7092 19.9392 12.8782 19.4323C12.9176 19.3141 12.9433 19.2368 12.9824 19.1584C13.0214 19.0799 13.0729 19.0027 13.204 18.8451" stroke="#0012D4" stroke-linecap="round"/>
<path d="M8.05342 5.89057C7.01862 5.89057 5.30177 5.99358 4.2459 6.31862C3.94567 6.41104 3.71055 6.53986 3.45107 6.8247C3.10745 7.20191 3.03317 7.60665 2.99415 7.80097C2.88259 8.35657 3.60208 8.93097 3.99422 9.16782C4.06499 9.21056 4.14991 9.21972 4.17683 9.27161C4.20376 9.32351 4.178 9.40077 4.10036 9.45344C3.65149 9.75795 3.06049 9.8175 2.61839 10.1812C2.22737 10.5028 2.27853 11.2706 2.36906 11.9105C2.45007 12.4832 2.90129 12.808 3.55057 13.3285C4.02363 13.7077 4.61814 13.7975 4.94357 13.9282C5.03487 13.9543 5.13788 13.9801 5.4356 13.9934C5.73332 14.0066 6.22263 14.0066 6.88284 14.0847" stroke="#0012D4" stroke-linecap="round"/>
<path d="M14.2185 21.6545C14.167 21.8605 14.1405 23.28 14.1534 25.3473C14.1607 26.5196 14.27 26.9845 14.2579 28.1524C14.245 29.3993 13.9844 29.8454 13.9196 30.9973C13.8726 31.8342 13.9064 33.4321 13.9192 34.3061C13.9336 35.2838 13.9844 35.4923 13.9973 35.7257C14.0131 36.0127 14.0624 37.3286 14.0367 39.239C14.0224 40.3023 13.9064 40.7982 13.8935 41.1357C13.8825 41.4241 13.8283 42.4815 13.8154 43.9377C13.7503 44.8562 13.6988 45.3768 13.6722 45.9359C13.6722 46.0034 13.6722 45.9262 13.6722 45.8466" stroke="#0012D4" stroke-linecap="round"/>
<path d="M14.2185 36.8721C14.2443 36.6653 14.3996 36.2493 15.0449 35.4486C15.5744 34.7918 16.5659 33.6693 17.0958 33.047C17.8177 32.1991 18.3764 31.7761 19.0156 31.2814C19.7376 30.7224 19.9403 30.4736 20.0578 30.3308C20.1422 30.2282 19.8123 30.1092 19.6305 29.9539C19.155 29.5478 19.3956 28.7326 19.3562 28.0435C19.3332 27.6404 19.4198 26.9658 19.705 26.096C20.1961 24.5987 21.2139 23.9972 21.6954 23.5551C22.1643 23.1246 22.7482 22.6705 23.5395 22.0482C24.555 21.2495 25.4031 20.8226 25.6364 20.7188C25.9134 20.5956 26.5697 20.3559 27.3111 20.1467C27.9435 19.9683 27.6412 21.8808 27.3568 23.1196C27.1829 23.8767 26.6291 24.616 26.2264 25.3172C25.7173 26.2037 24.9426 27.317 24.2352 28.1169C23.8986 28.4975 23.4817 28.8575 23.0256 29.2359C22.5698 29.6141 22.2066 29.8735 21.8027 30.069C21.711 30.1084 21.6338 30.1342 21.4781 30.1474C21.3224 30.1607 21.0906 30.1607 20.6957 30.3168" stroke="#0012D4" stroke-linecap="round"/>
<path d="M13.9063 36.1697C13.9063 35.9372 13.8033 35.2629 13.4006 34.6499C13.1013 34.1943 12.7373 33.7255 12.2304 33.2066C11.6504 32.6126 10.8675 31.6481 10.3957 31.1893C10.0581 30.8608 9.61575 30.5259 9.41948 30.1884C8.92417 29.3366 9.32856 28.0037 8.87477 26.6025C8.61718 25.8072 8.15954 25.2208 7.74281 24.7128C7.3977 24.2921 6.57691 23.7662 5.7536 23.2554C5.33971 22.9987 4.72738 22.8781 3.97236 22.7603C3.22382 22.6434 2.18331 22.669 1.40877 22.6042C0.952562 22.566 0.718518 22.4614 0.614336 22.525C0.274302 22.7326 0.768463 23.5758 1.1052 24.3667C1.7957 25.9885 2.40494 26.6958 2.79787 27.3884C3.15281 28.014 3.8112 28.9105 4.16277 29.2875C5.13449 30.3293 6.69709 30.888 7.19342 31.0835C7.91918 31.1752 8.83302 31.1237 9.00158 31.0328C9.09289 30.9934 9.1959 30.9676 9.38007 30.9411" stroke="#0012D4" stroke-linecap="round"/>
</svg>
