<svg width="26" height="48" viewBox="0 0 26 48" fill="none" xmlns="http://www.w3.org/2000/svg">
<path d="M9.58723 9.28585C9.43903 9.06411 9.21729 8.54596 9.17829 6.61935C9.14687 5.06739 10.365 3.64308 10.9589 2.9004C11.7 1.97377 12.2593 1.56158 12.7981 1.26407C13.2815 0.997119 13.7079 0.67015 14.1725 0.520277C14.7273 0.341341 15.3036 1.40781 15.7515 1.92986C16.536 2.84411 17.8308 4.00857 18.3695 4.99137C18.9757 6.09721 18.8715 6.86784 19.0398 7.97935C19.1228 8.52778 19.0587 9.453 19.2058 9.77949C19.5843 10.6196 20.6522 8.99168 21.3218 8.52591C22.003 8.05217 22.6958 8.09802 23.3643 7.96765C23.5839 7.92484 23.8814 7.9487 24.0513 8.00386C24.3031 8.08561 24.2959 9.3126 24.1488 11.369C24.0013 13.4311 23.1838 14.8529 22.7944 15.595C22.3853 16.3744 21.811 17.0079 21.2522 17.6776C20.6442 18.4062 19.5133 19.417 18.6893 20.1485C18.0493 20.7167 17.4653 21.0951 16.9432 21.338C16.4234 21.5799 15.8295 21.728 15.0506 21.8584C14.241 21.9939 13.3446 22.0623 12.6538 22.2111C11.2931 22.5041 9.47803 22.2495 8.84679 22.1008C8.30855 21.9739 7.8066 21.6924 7.36032 21.4328C6.85256 21.1374 6.35802 20.5803 5.93013 20.0778C5.52475 19.6017 5.17018 18.8732 4.51943 17.7584C4.16959 17.159 3.94223 16.5689 3.79347 16.0295C3.56585 15.2043 3.38509 14.3046 3.25471 13.2483C2.89227 10.3116 3.12434 9.6246 3.01347 8.86131C2.90289 8.10004 2.93825 7.39267 3.0859 7.18876C3.7098 6.32707 6.34464 7.46064 7.26394 7.96598C7.80325 8.35654 8.24786 8.65294 8.69413 8.96884C8.80612 9.06188 8.91643 9.1722 9.14152 9.39728" stroke="#0012D4" stroke-linecap="round"/>
<path d="M19.2816 9.62014C19.2816 9.141 19.4286 7.5119 20.022 6.07725C20.3439 5.29894 20.8772 4.71949 21.3965 4.18073C22.0283 3.67874 22.5119 3.34334 23.0467 3.19569C23.4713 3.08482 24.2067 2.90096 25.2987 2.71153" stroke="#0012D4" stroke-linecap="round"/>
<path d="M9.03008 9.063C8.91865 8.80448 8.84511 8.28522 8.47461 7.30298C8.10952 6.3351 7.62161 5.61315 7.06335 4.22084C6.75755 3.45817 5.95018 3.01017 5.44763 2.74942C4.90831 2.67476 4.53725 2.60011 4.25924 2.58172C4.12831 2.56334 4.01799 2.52656 3.79291 2.48868" stroke="#0012D4" stroke-linecap="round"/>
<path d="M13.4873 4.27155C13.1541 4.53006 12.8566 5.04932 12.4304 5.77305C12.3362 5.94187 12.2994 6.05218 12.2805 6.21933C12.2615 6.38647 12.2615 6.6071 12.2615 6.83442" stroke="#0012D4" stroke-linecap="round"/>
<path d="M8.91864 12.183C8.91864 12.1095 8.91864 12.0359 8.93703 12.0716C9.18646 12.5553 9.32647 13.4043 9.71536 14.6668C10.0322 15.6955 10.5522 16.1922 10.8486 16.7121C11.3105 17.5221 11.5907 18.0486 11.9445 18.5512C12.3718 19.0537 12.8164 19.2766 13.5402 19.6103C13.709 19.6855 13.8193 19.7223 13.933 19.7602" stroke="#0012D4" stroke-linecap="round"/>
<path d="M13.0416 22.2116C13.1151 22.2116 13.1887 22.2116 13.2633 22.2668C13.7167 22.6018 13.5987 24.5383 13.5062 25.6637C13.445 26.4091 13.2644 27.4444 13.0611 28.3185C12.8678 29.1493 12.6716 30.4128 12.4666 31.697C12.2789 32.8727 12.188 33.4638 12.1685 35.6857C12.157 36.9926 12.188 38.3288 12.1317 39.053C12.0985 39.481 12.0387 40.7724 12.0571 42.4801C12.0758 44.2154 12.7808 45.9059 13.0404 46.4085C13.1151 46.5389 13.1887 46.6859 13.2449 46.8353C13.3012 46.9846 13.338 47.1317 13.3759 47.3946" stroke="#0012D4" stroke-linecap="round"/>
<path d="M12.2615 32.2403C12.4097 31.9818 12.6315 31.4625 13.4455 30.6101C14.8999 29.0869 16.0457 28.7147 16.6981 28.4339C17.1797 28.2266 17.6079 27.9703 18.2943 27.7653C19.1199 27.5187 19.8721 27.4132 20.5976 27.319C21.2134 27.2391 21.9514 27.1524 24.5834 27.4271C25.6368 27.537 25.0391 29.1191 24.965 29.3598C24.7972 29.9049 24.4095 30.5644 23.8897 31.2536C23.2288 32.1299 22.3682 32.5344 21.3837 33.0002C20.7882 33.2819 20.066 33.5395 19.3774 33.7067C17.9042 34.0643 16.3889 33.7646 15.7365 33.6705C15.213 33.5949 14.7152 33.281 14.2689 33.0398C14.0466 32.9467 13.6756 32.6514 13.2304 32.2247C13.0427 32.0553 12.9323 31.9818 12.8187 31.7946" stroke="#0012D4" stroke-linecap="round"/>
<path d="M11.9273 31.7946C11.7055 31.721 11.2609 31.3511 10.4453 30.7204C9.34021 29.8659 8.29467 29.0512 7.56481 28.6567C6.73891 28.2103 5.3574 27.9324 4.68659 27.8761C3.90491 27.8106 2.35327 28.0037 1.43676 28.2099C1.09327 28.2871 0.785457 28.2656 0.599927 28.3765C0.509293 28.4306 0.487941 28.5609 0.50577 28.6912C0.583891 29.2625 1.00497 29.7487 1.32199 30.3254C1.58312 30.8003 1.82286 31.3466 2.32318 31.9773C3.1165 32.9773 4.48825 33.9763 5.40643 34.6349C6.13179 35.1551 6.68786 35.3224 7.33694 35.4528C8.37657 35.6616 8.91644 35.2132 9.93602 34.8048C10.6515 34.5182 10.9601 34.0254 11.3501 33.6716C11.5172 33.4682 11.7401 33.2075 12.0181 32.9478C12.149 32.8353 12.2593 32.7618 12.373 32.686" stroke="#0012D4" stroke-linecap="round"/>
</svg>
