<svg width="29" height="47" viewBox="0 0 29 47" fill="none" xmlns="http://www.w3.org/2000/svg">
<path d="M14.0741 18.0551C13.9218 17.9016 13.3076 17.6718 12.806 17.4594C12.226 17.2138 11.576 16.6721 9.94364 15.06C9.07648 14.2035 8.22817 12.9803 7.32426 11.711C6.53758 10.6063 6.60967 9.86103 6.43651 9.07314C6.24503 8.20188 6.14791 7.28436 6.12771 6.51379C6.10917 5.80675 6.49192 5.13022 6.66624 4.18706C6.72572 3.86522 6.68587 3.40321 6.8192 3.2058C6.95254 3.0084 7.21921 3.08459 7.43278 3.20003C8.12566 3.57457 9.06397 4.27364 9.91593 4.93108C10.6307 5.48264 10.9549 6.31465 11.3792 6.97036C11.8217 7.6544 12.0331 8.58655 12.4181 9.54702C12.6907 10.2269 12.8043 10.8561 12.9001 11.7595C13.0203 12.8923 13.0352 13.7399 13.131 14.3592C13.2022 14.8197 13.2661 15.2822 13.4958 16.1082C13.7493 17.0197 13.9195 17.4756 14.1313 17.8236C14.3797 18.2318 13.6909 16.5197 13.4975 15.7491C13.3078 14.9933 13.3053 14.2871 13.247 13.7664C13.1797 13.1656 13.0744 12.6316 13.0161 12.1502C12.8341 10.647 13.1483 7.94007 13.6678 6.91899C14.4646 5.35278 15.8797 4.20668 16.5152 3.39686C17.0963 2.65637 17.7267 2.20492 18.2283 1.58731C18.6266 1.09691 19.2667 0.741121 19.8249 0.507928C19.9546 0.453733 20.0748 0.697253 20.1337 0.832897C20.4217 1.49636 20.4234 2.46813 20.5193 3.48402C20.7599 6.03498 20.1556 7.12275 19.867 8.23676C19.2941 10.4481 18.6549 11.2417 18.3472 11.8374C17.6635 13.1612 17.1541 13.7814 16.9417 14.2438C16.5555 15.0845 15.6534 16.1665 15.1535 16.7639C14.7574 17.2372 14.4597 17.5922 14.3633 17.7082C14.0954 18.0307 14.9954 16.7113 17.2777 14.1982C18.7296 12.5993 19.9963 11.7866 20.9204 11.0922C21.4994 10.6571 22.2682 10.4752 23.2477 10.1104C23.992 9.83321 24.6902 9.70634 25.481 9.51297C26.4385 9.27882 27.5797 9.35886 27.81 9.30113C27.9241 9.27253 28.0403 9.28151 28.0992 9.54818C28.4476 11.1265 27.851 12.1629 27.0839 13.8161C26.6639 14.7212 26.0432 15.1667 25.3915 15.7815C23.8664 17.2201 23.0047 17.3232 22.293 17.6112C21.1861 18.0592 20.3888 18.2075 19.7141 18.305C19.0395 18.4025 18.4263 18.4776 16.9273 18.4978C16.1863 18.5078 15.501 18.3252 14.9036 18.1711C14.7679 18.1324 14.6537 18.0943 14.5376 18.0557C14.4216 18.017 14.3073 17.9789 14.1896 17.9396" stroke="#0012D4" stroke-linecap="round"/>
<path d="M13.9587 17.9396C13.7671 18.4003 13.5362 18.9371 13.172 20.0107C12.1646 22.9802 12.2663 23.9011 12.208 24.8431C12.1541 25.7149 12.0354 26.6301 11.9004 27.3458C11.7536 28.1238 11.7653 30.1973 11.5737 32.326C11.487 33.2891 11.2666 34.4432 10.9965 36.5714C10.4694 40.7234 11.0727 41.372 11.1685 41.9302C11.2706 42.5254 11.4952 43.2953 11.6683 43.9498C11.9188 44.7591 12.0343 45.1828 12.1111 45.4131C12.1497 45.5291 12.1878 45.6434 12.2271 45.992" stroke="#0012D4" stroke-linecap="round"/>
<path d="M11.419 34.3324C11.6095 33.836 12.301 32.7578 13.3775 31.3938C14.1141 30.4604 14.9954 29.4861 15.3619 29.0428C15.7963 28.5174 17.0295 27.6044 18.0921 26.6393C18.8307 25.9685 19.9155 25.1409 20.8633 24.3299C21.4613 23.8182 22.1897 23.407 23.018 22.8286C23.5579 22.4516 24.1915 22.2502 24.7312 22.0771C25.0832 21.9641 25.3863 21.8647 25.6166 21.8647C25.7326 21.8647 25.8469 21.8647 25.9058 22.2075C26.2188 24.0303 25.6968 24.5937 25.4076 25.1144C25.0066 25.8365 24.7733 26.9025 24.3883 27.5C23.8663 28.3099 22.9655 29.4815 22.5037 30.001C21.7315 30.8697 20.8529 31.4417 20.0985 32.0795C19.045 32.9702 16.9625 33.8314 16.002 34.311C15.3113 34.656 14.5798 35.0227 13.9033 35.1786C13.1518 35.3714 12.615 35.4475 11.9414 35.5826C11.7295 35.6022 11.4628 35.6022 11.1881 35.8331" stroke="#0012D4" stroke-linecap="round"/>
<path d="M10.7263 35.2559C10.7644 34.9107 10.8418 34.3739 10.9376 33.7765C11.02 33.2627 10.6132 32.4899 10.2853 31.7003C9.63905 30.1437 9.34334 29.373 8.8048 28.5834C7.62051 26.8469 6.61429 25.3718 5.61168 24.1008C5.08739 23.4361 4.41859 22.7905 3.34209 21.7723C2.81066 21.2697 2.07281 20.9434 1.49271 20.596C1.25526 20.4537 1.03037 20.2877 0.857207 20.2866C0.15896 20.2819 0.68289 22.3541 0.778707 23.5738C0.83481 24.2879 0.989966 24.977 1.25895 25.5952C1.61804 26.4205 1.87425 27.2881 2.58479 28.7467C3.03629 29.6736 3.56663 30.2504 3.93316 30.8859C4.33636 31.585 4.7603 32.0212 5.66247 32.9627C6.19258 33.5158 6.60737 33.8683 7.03046 34.12C7.51702 34.4094 7.95342 34.8311 8.41576 35.0435C8.8936 35.263 9.56729 35.3714 10.1855 35.4672C10.3396 35.4868 10.5301 35.4868 10.6092 35.5439C10.6882 35.6011 10.6501 35.7154 10.6109 35.8331" stroke="#0012D4" stroke-linecap="round"/>
</svg>
