<svg width="24" height="47" viewBox="0 0 24 47" fill="none" xmlns="http://www.w3.org/2000/svg">
<path d="M6.30311 2.57438C5.41882 3.26588 5.11175 3.80268 4.59284 4.8786C3.97127 6.16736 3.87883 7.30519 3.78301 8.07288C3.54924 9.94588 4.10971 11.1148 4.22458 11.7687C4.32369 12.333 4.72386 13.1512 5.24278 14.0961C5.65745 14.8511 6.26155 15.4231 6.87801 16.0597C7.43905 16.6391 8.03243 17.0416 8.59059 17.4266C9.07278 17.7591 9.801 18.1567 10.4567 18.428C10.7488 18.5489 10.997 18.1602 11.1696 17.9108C11.9455 16.7897 12.343 14.6611 12.6132 13.2412C13.1105 10.6272 12.4608 9.81258 12.0579 8.62065C11.6504 7.41514 10.7684 6.84804 10.2495 6.36665C9.65042 5.81089 8.84745 5.00328 8.2864 4.49995C7.76807 3.80845 7.11236 3.11465 6.92015 2.82662C6.84222 2.69098 6.80413 2.57669 6.64943 2.45894" stroke="#0012D4" stroke-linecap="round"/>
<path d="M12.4215 9.27001C12.5358 8.8498 12.9202 8.00246 13.3433 7.52107C13.9322 6.85104 14.5734 6.03995 15.2475 5.38597C15.728 4.91988 16.2288 4.42376 16.6911 4.03819C17.2147 3.60155 17.4998 3.30628 17.7492 3.19084C17.8768 3.13175 18.0366 3.15159 18.1342 3.22778C18.5624 3.56224 18.5007 4.18826 18.559 4.6887C18.6494 5.46454 18.847 6.30315 18.9821 6.844C19.0381 7.06825 19.0398 7.30634 19.0975 8.22237C19.2414 10.5054 19.041 12.2692 18.8684 12.7108C18.5386 13.5544 17.6603 14.5734 16.0637 16.2294C15.2486 17.0749 14.2709 17.3879 13.8086 17.6003C13.2226 17.8695 12.3107 18.196 11.6925 18.3703C11.5384 18.3899 11.3479 18.3899 11.1926 18.409C11.0374 18.428 10.9231 18.4661 10.8053 18.5054" stroke="#0012D4" stroke-linecap="round"/>
<path d="M7.68841 3.61336C7.7646 3.26819 8.7574 2.42662 10.0128 1.48057C10.6272 1.01764 11.1494 0.766563 11.6308 0.612448C12.5325 0.323759 13.8045 0.648812 14.324 0.937417C15.2316 1.44165 15.6516 1.91867 16.2098 2.41854C16.4597 2.61132 16.6917 2.76602 16.922 2.91955C17.038 2.9969 17.1523 3.07309 17.2701 3.15159" stroke="#0012D4" stroke-linecap="round"/>
<path d="M10.6899 18.6208C10.2293 19.3111 9.69248 20.2324 9.0564 22.7288C8.84266 23.5676 8.84283 24.5014 8.74701 25.8861C8.53675 28.9249 8.91902 29.6986 9.14933 30.9477C9.52758 32.9992 9.72711 33.5105 9.86218 34.374C10.001 35.2616 9.9199 35.974 9.97762 36.8716C9.99725 38.9501 10.0353 40.5905 10.0931 41.8708C10.1127 42.8844 10.1127 44.6368 9.88181 46.3268" stroke="#0012D4" stroke-linecap="round"/>
<path d="M9.8818 35.5908C9.8818 35.2848 10.0342 34.5171 10.3037 33.6323C10.7519 32.1612 11.4934 30.98 11.8628 30.2822C12.1525 29.7348 12.6893 29.2438 13.1892 28.6856C13.6725 28.146 14.8758 27.1312 15.7861 26.5684C16.4679 26.1469 17.7226 25.8959 18.7489 25.7591C20.1756 25.569 22.2329 25.7008 22.4632 25.7776C22.5793 25.8163 22.6935 25.8544 22.6762 26.0645C22.5782 27.2535 22.0055 28.0432 21.7157 29.0452C21.4014 30.1324 20.8903 30.7768 20.5613 31.3558C20.0688 32.2224 19.3111 32.8178 18.3708 33.5867C17.4876 34.3088 16.5428 34.8196 16.002 35.1278C15.5079 35.4094 14.8874 35.4753 14.081 35.5711C12.0903 35.8077 11.5395 35.4753 11.038 35.3604C10.8013 35.3063 10.5756 35.2063 10.4215 35.0724C9.94955 34.6623 11.1494 33.8614 12.0331 33.2842C13.0334 32.6297 14.0354 32.0906 14.6894 31.8014C14.8446 31.7431 14.9589 31.705 15.3076 31.5503" stroke="#0012D4" stroke-linecap="round"/>
<path d="M8.4965 28.087C8.38106 27.6668 8.53344 26.5147 8.57385 23.96C8.58948 22.9716 7.84541 22.4719 7.26762 21.99C6.10141 21.0172 4.92011 20.4309 4.3429 20.2185C3.7514 20.0008 3.30393 19.8907 2.53508 19.68C1.91631 19.5104 1.45686 19.4289 0.994514 19.3325C0.25427 19.1782 0.570265 20.6964 0.550062 21.9444C0.538372 22.6665 0.79884 23.2731 1.08802 23.814C1.38435 24.3682 1.72237 25.0832 2.31748 25.9669C3.0121 26.9984 3.87652 27.3159 4.43468 27.586C5.01506 27.8669 6.1438 27.8562 6.93457 27.952C7.2206 27.9866 7.67917 27.9716 7.89563 27.9145C8.11208 27.8573 8.07399 27.743 7.99722 27.5699C7.64118 26.7668 7.15276 26.0899 6.45953 25.4723C5.84365 25.0867 5.22719 24.7404 4.93916 24.5101C4.80352 24.3941 4.68923 24.2798 4.45604 24.0466" stroke="#0012D4" stroke-linecap="round"/>
</svg>
