<svg width="28" height="49" viewBox="0 0 28 49" fill="none" xmlns="http://www.w3.org/2000/svg">
<path d="M12.1889 11.0026C12.1889 10.7729 12.4937 9.62655 13.3786 8.04442C13.8347 7.22877 14.4955 6.69433 15.5119 6.4242C16.5653 6.14426 17.3827 6.42304 17.613 6.51886C18.2339 6.77721 18.6906 7.53706 19.1905 8.22913C19.6767 8.90227 19.6534 9.61501 19.6736 10.7671C19.6868 11.5212 19.1178 12.1155 18.7703 12.7891C18.3031 13.6947 17.9241 14.4243 17.0029 15.424C16.3913 16.0877 15.4675 16.7701 14.7304 17.1395C14.2431 17.3837 13.8074 17.659 13.3451 17.7173C12.8023 17.7857 12.1151 17.7375 11.307 17.3727C10.6696 17.085 10.2287 16.7378 9.76639 16.4105C9.26591 16.0562 8.95887 15.5834 8.49653 15.1603C8.01253 14.7173 7.8414 14.1219 7.64919 13.4107C7.42387 12.5771 7.22494 11.0165 7.3779 9.79337C7.49384 8.86626 8.1831 8.31283 8.72395 7.79103C9.10278 7.42554 9.64691 7.46317 10.6842 7.44297C11.2893 7.43119 11.8772 8.15121 12.2074 8.69205C12.2651 8.80807 12.3413 8.92236 12.3996 9.03838C12.4579 9.1544 12.496 9.26868 12.5353 9.50188" stroke="#0012D4" stroke-linecap="round"/>
<path d="M5.95508 7.65481C5.80154 7.54052 5.648 7.00372 5.5897 6.50212C5.53087 5.99589 5.5695 5.38753 5.76171 4.77107C5.98427 4.05728 6.56923 3.54046 7.06909 2.94305C7.53396 2.38746 9.06046 1.38862 10.0319 0.94071C10.6573 0.652337 11.2238 0.652105 11.9361 0.517038C12.5613 0.398481 13.4911 0.917621 14.2455 1.41922C14.7598 1.76115 15.4929 2.41606 15.9015 3.0354C16.0355 3.26571 16.1521 3.53584 16.2479 3.82387C16.3056 3.95951 16.3818 4.0738 16.5757 4.30699" stroke="#0012D4" stroke-linecap="round"/>
<path d="M8.14847 8.23201C7.99609 8.07847 6.92479 8.00113 6.13055 7.90531C5.38421 7.81527 4.76602 8.00113 4.09127 8.11599C3.40895 8.23214 2.65113 8.65222 1.91692 9.24963C1.33295 9.72479 0.954135 10.1922 0.684001 10.9789C0.151834 12.5288 0.912576 13.1545 1.22081 13.6751C1.53936 14.2132 2.02774 14.5028 2.93108 15.0217C3.12379 15.1324 3.14522 15.2717 3.1077 15.4067C2.93184 16.0398 2.45488 16.5023 2.26151 17.0039C2.17419 17.2304 2.14549 17.6948 2.18359 18.2905C2.23323 19.0666 3.40843 20.0002 4.50859 20.8706C5.12622 21.3592 5.72188 21.584 6.52882 21.853C7.44273 22.1576 9.36523 22.2005 10.4556 22.0856C11.0731 22.0206 11.7249 21.4709 12.4937 20.952C13.1185 20.5303 13.5327 19.9332 14.0152 19.3167C14.3812 18.7003 14.8418 18.0861 15.0554 17.5845C15.075 17.4685 15.075 17.3542 15.075 17.3519" stroke="#0012D4" stroke-linecap="round"/>
<path d="M15.5368 6.38494C15.5748 5.92433 15.8808 5.38753 16.3622 4.9627C17.1341 4.28149 18.1896 3.88447 18.9769 3.74941C20.2877 3.52453 21.0757 4.11305 21.9213 4.51709C22.5583 4.82147 23.0382 5.38291 23.3856 5.82505C23.7799 6.32677 23.9248 6.92059 23.9831 7.74774C24.0368 8.50988 24.1949 10.1807 24.08 11.2318C24.0256 11.7295 23.5807 12.1547 23.3493 12.6171C23.287 12.7415 23.1582 12.8474 23.0993 12.9634C23.0405 13.0794 23.0405 13.1937 23.0786 13.3097C23.2617 13.8676 23.8463 14.3481 24.0789 14.8295C24.3471 15.3845 24.3103 16.4976 24.1764 17.2347C24.0638 17.8545 23.3129 18.3886 22.4286 19.0426C21.3905 19.8103 20.2722 19.5061 19.3902 19.6411C17.2556 19.968 16.6935 19.3537 15.9437 18.9889C15.6545 18.8157 15.4225 18.661 15.1922 18.5075C15.0761 18.4301 14.9619 18.354 14.8441 18.2755" stroke="#0012D4" stroke-linecap="round"/>
<path d="M11.3808 21.8542C11.3808 21.9292 11.3047 22.7731 11.2464 23.7168C11.1875 24.6694 11.0345 25.5044 10.9387 26.3345C10.8698 26.9313 10.8036 28.0026 10.7078 30.1319C10.6452 31.5235 10.6882 34.1533 10.7072 35.6027C10.7329 37.5553 10.956 38.547 11.0536 39.4562C11.1507 40.3617 11.3023 41.5093 11.457 42.6285C11.7952 45.0748 12.2259 46.284 12.3425 46.9033C12.5353 47.3657 12.6115 47.712 12.7459 47.9423C12.8042 48.0583 12.8423 48.1726 12.6507 48.2903" stroke="#0012D4" stroke-linecap="round"/>
<path d="M11.2654 39.9785C11.3035 39.8654 11.457 39.1727 13.0865 36.3917C13.7369 35.2818 14.3408 34.5574 15.7047 33.134C16.2649 32.5494 16.7651 32.207 17.4196 31.8797C17.6124 31.7833 17.841 31.669 18.0159 31.572C18.1908 31.4751 18.305 31.3989 18.5382 31.3204" stroke="#0012D4" stroke-linecap="round"/>
<path d="M13.9206 34.6682C13.9206 33.9051 13.9968 31.9807 14.4764 30.4026C14.771 29.4334 15.1119 29.0138 15.5541 28.3408C16.0475 27.5897 16.8805 27.243 17.3821 26.9538C17.9265 26.6399 18.6514 26.3956 19.6499 26.1457C20.4846 25.9368 20.9602 25.9339 21.863 25.8756C22.7724 25.8168 23.4607 25.703 24.5562 25.6828C25.4662 25.666 26.386 25.8554 27.0013 25.9904C27.1906 26.032 27.4226 26.0101 27.4071 26.1434C27.2861 27.178 26.3144 27.6609 25.9467 28.2975C25.6834 28.7534 25.504 29.3163 25.2541 29.9137C25.0144 30.4867 24.622 31.736 24.2728 32.6451C23.9325 33.5311 23.5807 33.9732 23.2344 34.4356C22.8086 35.004 22.1585 35.2823 21.6569 35.5715C21.1124 35.8854 20.3876 36.0535 19.2188 36.2451C16.6117 36.6726 16.1163 36.1689 15.6539 35.9773C15.4236 35.9381 15.1916 35.8619 14.9613 35.7083C14.8453 35.631 14.731 35.5548 14.3823 35.2454" stroke="#0012D4" stroke-linecap="round"/>
</svg>
