<svg width="27" height="47" viewBox="0 0 27 47" fill="none" xmlns="http://www.w3.org/2000/svg">
<path d="M9.61946 11.4677C9.61946 10.8189 9.69565 9.35508 10.9222 7.33946C11.807 5.88544 12.5401 5.43006 13.1958 5.09989C13.4951 4.94923 13.8504 4.88748 14.2152 4.92557C14.9538 5.00271 15.4654 6.00034 16.0819 6.67394C16.7858 7.44312 17.0447 8.07829 17.3339 8.57989C17.5879 9.02047 17.7766 9.50284 17.9307 9.96519C18.0075 10.1955 18.0848 10.4656 18.1997 10.6203C18.572 11.1218 18.931 9.6229 19.4678 9.10342C20.243 8.35318 20.815 8.08291 21.6219 7.58305C22.4014 7.10021 23.0846 7.08087 23.5862 6.98506C23.7018 6.96298 23.8165 6.96543 23.9135 7.02258C24.3614 7.28652 24.4722 7.88666 24.818 8.63645C25.0658 9.17387 25.1649 9.73373 25.2232 10.4258C25.2947 11.275 25.2434 12.0426 25.166 12.5621C25.013 13.5898 23.7495 15.5335 23.2041 16.6983C22.8455 17.4641 22.6274 17.9301 22.415 18.3924C22.1875 18.8877 21.5908 19.6202 20.4179 20.546C19.4731 21.2918 18.2083 22.0837 17.3564 22.6638C16.7378 23.085 16.1258 23.3189 14.0911 23.3391C13.1195 23.3488 12.2769 23.1665 11.3932 22.9357C10.6795 22.7492 9.28468 22.4762 8.1597 22.2043C7.60283 22.0698 6.85347 21.705 5.85201 21.0713C4.78014 20.3929 3.88892 19.0914 3.50219 18.4923C3.03573 17.7696 2.61676 16.8957 2.27101 15.9353C1.99831 15.1777 1.80866 14.3191 1.6736 13.7401C1.52417 13.0997 1.53853 11.3291 1.63435 10.1995C1.67373 9.73527 1.9218 9.27658 2.13421 8.81423C2.38371 8.27116 2.84533 7.77583 3.19166 7.35159C3.80548 6.59965 5.46124 7.27251 5.92359 7.54149C6.40389 7.82091 6.84654 8.23298 7.21307 8.67628C7.54311 9.07545 7.80933 9.50284 8.11756 9.96519C8.2711 10.1955 8.46388 10.3894 8.69419 10.562C8.81021 10.6584 8.9245 10.7727 9.04225 10.8905" stroke="#0012D4" stroke-linecap="round"/>
<path d="M13.3136 14.2383C13.3136 14.1621 13.3136 14.8848 13.3326 16.1154C13.3517 16.5841 13.3898 16.7364 13.4285 16.8911C13.4671 17.0458 13.5052 17.1982 13.5445 17.5861" stroke="#0012D4" stroke-linecap="round"/>
<path d="M16.6614 18.9714C16.6233 18.9333 16.5852 18.8952 16.6227 18.8184C16.8972 18.2569 17.9267 17.7062 18.3919 17.1261C18.7382 16.6637 19.0083 16.3174 19.1994 15.9918C19.3524 15.7806 19.619 15.4758 19.8938 15.1618" stroke="#0012D4" stroke-linecap="round"/>
<path d="M10.7739 18.6251C9.62292 17.3587 8.46965 16.3578 7.77469 15.8753C7.62 15.7783 7.46762 15.7021 7.31293 15.6247C7.15823 15.5474 7.00585 15.4712 6.61797 15.1618" stroke="#0012D4" stroke-linecap="round"/>
<path d="M14.2371 23.7045C14.2371 23.9723 14.3133 24.8151 14.4674 25.4916C14.5583 25.8903 14.5835 26.3574 14.6025 26.7608C14.6164 27.0553 14.6989 28.8059 14.6799 31.3831C14.6715 32.5141 14.5835 34.0423 14.5644 36.1388C14.5529 37.4053 14.3918 38.0932 14.3335 38.7864C14.2718 39.5203 14.1609 40.5175 14.0259 41.1149C13.9188 41.5883 13.7384 42.5146 13.5451 43.4422C13.3937 44.1682 13.3529 44.7126 13.1987 45.175C13.122 45.4053 13.0827 45.6373 13.0637 45.8676C13.0446 45.9836 13.0065 46.0979 12.8518 46.1002" stroke="#0012D4" stroke-linecap="round"/>
<path d="M14.5835 34.5561C14.4299 33.98 14.3526 33.5194 14.0461 32.578C13.8429 31.9537 13.4683 31.4414 12.7202 30.5C12.1263 29.7526 11.3141 29.0172 10.2971 27.999C9.72463 27.4258 9.16 27.3225 8.60184 27.1493C8.33103 27.0653 8.08178 26.8988 7.71756 26.8411C7.24455 26.7661 6.73572 26.9357 6.31321 27.1851C5.59677 27.6079 5.5028 28.3199 5.25287 28.8013C4.72837 29.8115 5.3458 32.0856 5.7891 32.9185C6.04582 33.4009 7.07281 33.6302 7.80876 33.7289C8.6359 33.8398 9.38627 33.1338 9.81052 32.6149C9.98493 32.4016 10.0039 32.0948 10.0616 31.7306C10.1366 31.2576 9.92885 30.7488 9.64082 30.3263C9.40025 29.9734 9.15885 29.7848 8.90949 29.689C8.61348 29.5753 8.08408 29.4766 7.43068 29.5528C7.15824 29.629 7.00586 29.7814 6.92736 29.9551C6.84886 30.1289 6.84886 30.3193 6.84886 30.5156" stroke="#0012D4" stroke-linecap="round"/>
<path d="M3.61649 6.73457C3.61649 6.27626 3.5403 5.27538 3.36713 4.65892C3.17846 3.98724 2.57982 3.5045 2.09843 3.27189C1.83054 3.14244 1.4635 3.15587 1.11775 3.21301C0.802574 3.2651 0.654251 3.61648 0.538809 3.90393C0.472639 4.0687 0.499559 4.30567 0.556703 4.48056C0.613846 4.65546 0.728134 4.76975 0.882249 4.82862C1.03636 4.8875 1.22684 4.8875 1.42309 4.8875" stroke="#0012D4" stroke-linecap="round"/>
<path d="M13.3136 4.88749C13.3517 4.65776 13.6576 3.96858 13.967 2.98674C14.1573 2.38276 13.9681 1.84906 13.8914 1.56104C13.7493 1.02798 13.0088 0.694646 12.5072 0.520328C12.3961 0.481702 12.2769 0.500703 12.18 0.557847C11.752 0.810037 11.8128 1.49812 11.87 1.99798C11.9271 2.19308 12.0414 2.26927 12.1574 2.30852C12.2735 2.34777 12.3877 2.34777 12.5055 2.34777" stroke="#0012D4" stroke-linecap="round"/>
<path d="M23.4725 6.61912C23.4725 6.23701 23.701 4.85747 23.9527 3.77463C24.0368 3.41296 24.2413 3.08082 24.4139 2.77317C24.5419 2.54492 24.8947 2.57865 25.1827 2.5977C25.3194 2.60674 25.4327 2.65484 25.5296 2.73161C25.9317 3.04991 25.8968 3.57722 25.8396 3.90393C25.7825 4.04015 25.6682 4.11634 25.5522 4.17464C25.4361 4.23293 25.3219 4.27103 25.0887 4.42572" stroke="#0012D4" stroke-linecap="round"/>
</svg>
