<svg width="27" height="49" viewBox="0 0 27 49" fill="none" xmlns="http://www.w3.org/2000/svg">
<path d="M8.68462 13.9478C8.45836 13.9478 7.14925 13.8716 6.47449 13.8133C5.72019 13.7481 5.10824 13.6407 3.34371 13.6586C1.80157 13.6743 1.29866 14.1394 0.836311 14.4275C0.708283 14.5072 0.606004 14.6381 0.547129 14.7542C0.488254 14.8702 0.488254 14.9845 0.526349 15.1005C0.699502 15.6278 1.75119 16.252 4.07792 17.5028C4.93595 17.9641 5.41069 18.5239 6.77464 19.4278C7.54967 19.9415 8.06586 20.6019 8.5865 20.9118C9.17967 21.265 9.79748 21.4885 10.2991 21.6818C10.8217 21.8833 11.5291 21.9895 13.1805 22.0097C14.048 22.0203 14.8769 21.6062 15.4934 21.3563C16.0642 21.1249 17.0657 20.4564 17.879 19.9906C18.8427 19.4387 19.5708 18.8379 20.4181 18.0489C21.1668 17.3517 22.1105 16.5291 23.6863 14.9735C24.3402 14.328 24.8442 13.7585 25.2684 13.1611C25.598 12.6969 25.6546 12.2173 25.5974 12.0061C25.4595 11.4962 24.5417 11.5628 23.658 11.4277C22.0183 11.1771 21.0023 11.8306 19.9823 12.3103C19.1557 12.699 18.2317 13.3683 17.6141 13.9264C17.4813 14.0464 17.4213 14.1764 17.382 14.1019C16.9493 13.2811 16.9595 12.3339 16.5174 11.5651C16.116 10.8672 15.498 10.5261 15.0547 10.1203C14.6483 9.74836 14.3436 9.29318 13.8812 8.98495C13.4357 8.68793 12.8059 8.25652 12.2651 7.84958C12.1613 7.77152 12.0347 7.75319 11.8997 7.79071C11.254 7.97007 10.9196 8.8268 10.418 9.52003C10.0329 10.0523 9.68666 10.5584 9.47425 11.06C9.24897 11.592 8.95476 12.1746 8.80064 12.6953C8.72388 12.9827 8.68462 13.2921 8.66558 13.5801C8.64653 13.7158 8.60843 13.83 8.56918 13.9478" stroke="#0012D4" stroke-linecap="round"/>
<path d="M10.1854 10.0228C9.95564 9.7561 9.64741 8.90991 9.39748 8.08335C9.05331 6.94513 9.14639 5.22731 9.47194 3.83047C9.63065 3.14948 10.1069 2.67605 10.4151 2.17445C10.8015 1.54567 11.6446 0.82898 12.242 0.557114C12.7206 0.339298 13.3 0.785112 14.1064 1.24688C15.7183 2.16995 16.1491 3.44027 16.4948 4.19007C16.8698 5.00321 17.3035 6.24782 17.4386 7.15058C17.7781 9.41984 17.1511 9.90502 16.997 10.3674C16.9202 10.5977 16.8429 10.8297 16.728 11.06C16.6513 11.176 16.537 11.2903 16.4192 11.4081" stroke="#0012D4" stroke-linecap="round"/>
<path d="M17.5737 6.90584C18.264 6.06081 18.9566 5.52285 20.7789 4.25587C22.0345 3.38286 22.5353 3.13551 22.9977 3.07721C23.1143 3.0625 23.228 3.02007 23.344 3.07663C23.8979 3.3467 23.8837 4.01749 23.942 4.49888C24.0829 5.66262 23.9622 7.44149 23.8271 8.05795C23.6946 8.66276 23.6159 9.21237 23.4618 9.67471C23.3077 10.1371 23.0779 10.5977 22.4632 11.1177C22.3079 11.2153 22.1936 11.2534 22.0759 11.2926" stroke="#0012D4" stroke-linecap="round"/>
<path d="M9.26183 6.7904C8.99401 6.75346 7.69413 5.91073 6.74405 5.46397C5.7687 5.00534 5.14749 4.79095 4.64589 4.59758C4.09707 4.38601 3.30042 4.40537 2.24297 4.42326C2.02081 4.42702 1.95206 4.59469 1.87471 4.71071C1.2457 5.65423 1.87125 8.05333 2.21873 8.92319C2.56932 9.80082 2.71859 10.443 2.91196 10.9446C3.10478 11.4448 3.33505 11.983 3.48917 12.4453C3.52784 12.5613 3.56593 12.6756 3.62365 12.7916C3.68138 12.9077 3.75757 13.0219 3.83607 13.3706" stroke="#0012D4" stroke-linecap="round"/>
<path d="M7.99197 21.2206C7.99197 21.1825 7.99197 21.1444 7.91578 21.1629C7.26327 21.3211 6.76367 22.4859 6.49181 23.1231C6.13198 23.9665 6.26034 26.0161 6.49007 27.1064C6.54714 27.3773 6.8364 27.5307 7.12385 27.6271C7.84208 27.8679 8.86933 26.9211 9.62547 26.3018C10.1865 25.8423 10.721 25.455 11.5291 24.6106C12.1921 23.9177 12.5311 23.3401 12.8203 22.9528C13.0718 22.6161 13.2238 23.9497 14.1063 24.8726C14.9497 25.7546 15.7243 25.8752 16.4158 26.2025C17.5886 26.7576 18.5307 26.7618 19.281 26.6666C19.5512 26.6323 19.5362 26.3809 19.4981 26.1494C19.3053 24.9782 18.2294 24.2244 17.8253 23.2259C17.4975 22.3381 17.2666 21.9144 17.1321 21.6841C17.0738 21.5681 17.0357 21.4538 16.7656 21.2206" stroke="#0012D4" stroke-linecap="round"/>
<path d="M13.0714 23.2986C12.9952 23.2224 12.919 23.1462 12.8607 23.1831C12.0717 23.6831 12.5335 25.5659 12.5133 28.7694C12.5089 29.4542 12.5704 29.6063 12.59 31.8944C12.6097 34.1824 12.6097 38.6016 12.6287 40.9543C12.6518 43.8084 12.8013 44.5745 12.8596 45.939C12.9941 46.8857 13.0714 47.576 13.1672 48.0984C13.1869 48.1197 13.1869 48.0054 13.1869 47.8877" stroke="#0012D4" stroke-linecap="round"/>
<path d="M12.7251 39.5759C12.6477 39.1545 13.0299 37.9297 13.6273 36.8087C14.2152 35.7056 15.4888 34.4249 16.3015 33.9204C16.8733 33.5654 17.494 33.5729 17.9361 33.6301C18.2381 33.6691 18.3425 34.0716 18.4579 34.4358C18.7663 35.4087 18.1139 36.302 17.576 37.11C17.1212 37.7931 16.5762 38.2645 15.2129 39.2642C14.5398 39.6498 14.0354 39.8068 13.6896 39.8258C13.5343 39.8449 13.4201 39.883 13.0714 39.9222" stroke="#0012D4" stroke-linecap="round"/>
<path d="M12.7251 38.4215C12.6096 37.8454 12.3049 37.0038 11.8033 36.2113C11.2965 35.4106 10.5756 34.3094 9.93717 33.7859C9.3956 33.3418 8.5738 33.1135 7.97466 32.8999C7.8461 32.8541 7.68721 32.8803 7.55157 33.0136C6.59888 33.9501 7.33627 35.9926 7.66354 36.6298C8.05348 37.3891 8.45143 37.842 8.87511 38.3614C9.22552 38.7911 9.56891 39.113 9.7415 39.3052C10.2985 39.4985 11.1435 39.6521 11.7415 39.7871C11.9147 39.8068 12.1433 39.8068 12.3788 39.9222" stroke="#0012D4" stroke-linecap="round"/>
</svg>
