<svg width="27" height="47" viewBox="0 0 27 47" fill="none" xmlns="http://www.w3.org/2000/svg">
<path d="M14.6466 10.3625C14.3287 10.3048 12.9384 10.1878 10.8254 10.6515C10.0186 10.8286 9.64081 11.5833 9.34956 12.165C8.80234 13.2578 9.28974 15.3665 9.36266 15.9926C9.45761 16.8079 10.0443 17.403 11.0761 18.1034C12.1256 18.8158 13.6196 18.3689 15.0496 17.9764C15.9253 17.736 16.594 16.9437 16.9307 16.4922C17.4755 15.7615 17.3538 14.4163 17.1656 13.509C17.0236 12.8243 16.5993 12.2872 16.3504 11.8196C15.8709 11.2375 15.347 10.7712 14.9247 10.6105C14.8221 10.5668 14.7357 10.5092 14.4719 10.2751" stroke="#0012D4" stroke-linecap="round"/>
<path d="M10.804 10.7118C10.6303 10.6253 10.2818 10.0463 10.0334 9.24465C9.68407 8.11759 9.87311 6.60902 9.82901 6.18678C9.78744 5.78882 9.64081 4.86766 9.59583 2.93155C9.57906 2.20932 9.72639 1.80586 10.0024 1.16617C10.1084 0.920246 10.2216 0.757026 10.3084 0.611621C10.3952 0.466472 10.6862 0.494162 10.9621 0.522981C11.5603 0.585449 11.9952 1.53863 12.3603 2.19492C12.6735 2.758 12.9864 3.34637 13.1751 3.4337C13.3742 3.5259 13.6266 3.40575 13.8733 3.21755C14.5256 2.71992 14.3846 2.01021 14.5728 1.55828C14.6212 1.44207 14.7322 1.36921 14.8776 1.32467C15.023 1.28013 15.2247 1.28013 15.3574 1.33777C15.8216 1.5393 15.9845 2.17963 16.2176 3.09529C16.5125 4.25331 16.4508 4.79954 16.4517 5.62874C16.4526 6.44966 16.1609 6.95485 16.1168 7.81199C16.0885 8.3609 15.8413 8.93375 15.695 9.38568C15.6369 9.57475 15.5784 9.75029 15.5203 9.93892C15.4911 10.0411 15.4622 10.1564 15.3452 10.2751" stroke="#0012D4" stroke-linecap="round"/>
<path d="M15.3452 10.5371C15.5766 10.1031 16.215 9.1154 16.7844 8.47221C17.5262 7.63428 18.7493 6.40467 19.5467 5.86802C21.3499 4.65434 21.9212 4.65806 23.2582 4.64191C23.528 4.63865 23.5822 4.77159 23.6119 4.87377C23.7654 5.40191 22.9744 6.16713 22.7831 6.76447C22.7079 6.99944 22.7683 7.4142 22.8547 7.66528C23.0808 8.32169 23.7848 8.23685 24.28 8.42592C24.5854 8.54257 24.8921 8.58618 25.0956 8.71673C25.4597 8.95031 25.3882 9.94853 25.1856 10.5646C24.9477 11.2879 24.08 11.4681 22.9766 12.034C22.3285 12.3663 21.5509 12.6016 20.8357 12.9374C19.4803 13.3893 19.0436 13.5352 18.6668 13.5788C18.4341 13.5937 18.1171 13.5937 17.7905 13.5937" stroke="#0012D4" stroke-linecap="round"/>
<path d="M17.5285 13.5937C17.9887 13.392 19.3886 12.9247 21.2182 12.9239C22.1836 12.9234 22.6792 13.3893 23.3189 13.7959C23.7498 14.0697 24.1638 14.4076 24.528 14.7853C25.078 15.3558 25.2415 15.8625 25.6196 16.2992C25.9797 16.715 26.1445 17.1725 26.1309 17.7397C26.1176 18.2967 25.0127 18.3375 24.5747 18.5418C24.1256 18.7514 23.6442 18.4842 23.2512 18.5562C23.1019 18.5836 23.1176 18.7724 23.132 18.8898C23.1809 19.2881 23.5525 19.6754 23.8879 20.1705C24.0811 20.4559 24.0782 20.9844 24.0638 21.508C24.0557 21.804 23.9044 21.9765 23.687 22.1651C23.1766 22.6079 22.4242 22.5887 21.8963 22.4874C21.5056 22.4124 21.0828 22.0665 20.2968 21.5137C19.8252 21.1819 19.3938 20.8735 18.7249 20.0596C18.0167 19.1979 17.6175 18.7776 17.3547 18.2388C17.2962 18.1069 17.2385 17.9916 17.1656 17.8746C17.0927 17.7576 17.0062 17.6423 16.7425 17.3489" stroke="#0012D4" stroke-linecap="round"/>
<path d="M16.8298 17.2616C16.9451 17.493 17.2944 18.0161 17.6001 19.2361C17.718 19.7068 17.8193 20.0256 17.8774 20.7482C18.097 23.4818 17.8202 24.1275 17.5298 25.0597C17.3239 25.7207 16.9765 26.0802 16.6277 26.3142C16.5278 26.3812 16.367 26.3439 16.2207 26.2718C15.619 25.9755 15.4919 25.2994 15.1719 24.9619C15.0419 24.8248 14.7933 24.8305 14.5466 24.7868C14.0109 24.692 13.6004 25.2645 13.2218 25.6003C12.9537 25.838 12.6109 26.081 12.2476 26.212C11.9838 26.3071 11.7367 26.2277 11.5188 26.1553C11.0402 25.996 10.6311 25.4147 10.3971 24.7602C10.1653 24.1119 10.2801 23.4952 10.4394 22.5918C10.5472 21.9809 10.6573 21.1652 10.7455 20.6404C11.0067 19.9129 11.356 19.3007 11.5739 19.0103C11.6765 18.8641 11.7629 18.72 11.852 18.6588" stroke="#0012D4" stroke-linecap="round"/>
<path d="M8.97011 14.3797C8.91248 14.3797 8.59459 14.3797 8.11472 14.3941C7.83336 14.4025 6.68119 15.1298 4.9359 16.235C3.49906 17.1448 3.03341 17.6388 2.59676 18.1183C2.36837 18.369 2.18805 18.5706 2.10072 18.8313C1.96267 19.2434 2.12867 19.6186 2.25923 19.8072C2.58919 20.284 3.02992 20.608 3.98662 20.8124C4.44147 20.9096 5.17125 20.8421 5.58563 20.9285C6.00002 21.015 6.08647 21.1879 6.13101 21.3635C6.28891 21.9857 5.94325 22.4123 5.84107 23.0079C5.80407 23.2236 5.82623 23.5144 5.88387 23.6917C5.97406 23.9691 6.29083 24.0148 6.53753 24.0585C6.80924 24.1066 7.0768 24.0445 7.3235 23.9432C7.95683 23.6831 8.21209 23.1144 8.61905 22.7503C9.08756 22.331 9.40502 21.7189 9.68229 21.2656C9.95957 20.843 10.2486 20.3216 11.1935 18.9261C11.3857 18.6309 11.4433 18.5156 11.328 18.3968" stroke="#0012D4" stroke-linecap="round"/>
<path d="M8.88278 13.943C8.33085 13.943 7.92389 14.0006 6.63272 14.0015C5.2885 14.0024 4.72237 13.5657 4.12634 13.3474C2.89657 12.897 1.96099 11.9693 1.34488 11.3104C0.857751 10.7895 0.703436 10.3642 0.528776 9.91316C0.48012 9.7875 0.499084 9.63763 0.542312 9.50576C0.629254 9.24055 0.962807 8.93812 1.36933 8.63246C1.93269 8.20888 2.47624 8.67351 3.33426 8.64556C3.90118 8.6271 3.498 7.48232 3.32334 6.91555C3.19933 6.51312 3.35129 6.14268 3.48185 5.9392C3.71176 5.58087 4.22284 5.50167 5.06601 5.5008C5.70389 5.50014 6.60521 6.0798 7.68592 6.79372C8.47519 7.31512 8.73432 8.23336 9.24476 8.73071C9.72639 9.22631 9.90105 9.4883 10.0028 9.67693C10.0469 9.77911 10.0757 9.89438 10.1927 10.1878" stroke="#0012D4" stroke-linecap="round"/>
<path d="M13.3366 25.7326C13.2493 25.7893 13.1917 26.3989 13.1043 28.8677C13.0282 31.0184 13.0746 34.9966 13.089 37.1174C13.1034 39.2382 13.1323 39.3823 13.1471 40.0761C13.162 42.0092 13.1908 43.43 13.2344 44.0807C13.2493 44.5872 13.2493 45.4517 13.2493 46.3425" stroke="#0012D4" stroke-linecap="round"/>
<path d="M13.162 41.19C13.3069 40.7542 13.5392 40.3482 13.9025 39.7089C14.3028 39.0045 14.788 37.7623 15.4426 36.6275C15.8984 35.8371 16.4491 35.3703 17.6839 34.2661C18.1869 33.8163 19.2943 32.9006 20.1754 32.3417C20.7835 31.9561 21.2522 31.7881 21.6897 31.8304C22.2734 31.8869 22.2146 32.9199 22.2011 33.9512C22.1901 34.7866 21.6077 36.0873 20.9391 37.4977C20.2627 38.9248 19.5109 39.412 19.0292 39.9364C18.6871 40.309 18.3738 40.577 17.866 40.9988C16.9171 41.7869 16.3373 42.0616 15.7845 42.4402C14.9771 42.9931 14.5033 42.9943 14.0514 43.0384C13.8584 43.0572 13.6004 43.1113 13.3528 43.0392C12.9179 42.9127 13.6842 42.2397 14.092 41.745C14.4338 41.3304 14.8492 40.9298 15.4448 40.2901C15.8056 39.9025 16.1871 39.3596 17.0883 38.6308C17.2944 38.4837 17.4097 38.3972 17.4259 38.3671C17.442 38.3369 17.3556 38.3658 17.2665 38.3955" stroke="#0012D4" stroke-linecap="round"/>
<path d="M12.9873 40.2294C12.9873 39.9403 12.9297 39.3578 12.7987 38.8631C12.6767 38.4026 12.4354 37.7876 12.1734 37.2768C11.7393 36.4303 11.3001 35.807 10.8495 35.1957C10.5035 34.7263 10.0216 34.1198 9.48143 33.6665C8.97375 33.2405 8.62254 33.0107 7.99769 32.619C7.30125 32.1824 6.96326 31.9924 6.46854 31.8461C6.05293 31.7232 5.53803 31.5261 4.88262 31.3514C4.72431 31.3092 4.5774 31.3217 4.48876 31.3649C4.04494 31.5814 4.16695 32.7434 4.35515 33.3862C4.4775 33.8041 4.92061 34.6918 5.45856 35.7825C5.76311 36.4 6.08647 36.9362 6.62224 37.8785C7.94566 40.2061 8.64699 40.4599 9.27358 41.0424C9.64614 41.3888 10.1316 41.7123 11.0045 42.1057C11.5827 42.3663 12.0249 42.4406 12.3891 42.5725C12.4862 42.6076 12.6065 42.5873 12.6803 42.5441C12.7541 42.5008 12.7829 42.4144 12.7834 42.3122C12.7854 41.8461 12.2625 41.3385 11.8096 40.6394C11.5361 40.2171 11.0398 39.7368 10.6744 39.3286C10.4285 39.0679 10.2224 38.833 10.1063 38.6588C10.0478 38.571 9.99013 38.4845 9.93074 38.3955" stroke="#0012D4" stroke-linecap="round"/>
</svg>
