<svg width="28" height="47" viewBox="0 0 28 47" fill="none" xmlns="http://www.w3.org/2000/svg">
<path d="M12.5661 14.3121C12.4643 14.2442 12.3624 14.1763 12.3439 14.345C12.2108 15.5576 13.0435 16.2977 13.5245 16.6604C14.2412 17.2008 15.6485 16.6455 16.2339 16.3538C16.8929 16.0254 16.8872 14.7607 16.7678 14.0919C16.5535 12.891 15.0373 12.0158 14.3691 11.6727C13.6434 11.3 12.3974 11.6022 11.6772 12.0297C10.9127 12.4835 10.3727 13.3491 10.0466 14.3085C9.86709 14.8365 9.89123 15.8142 10.2837 16.915C10.5345 17.6183 11.1217 18.3204 11.6556 18.735C12.0925 19.0742 12.632 19.1805 13.6253 19.5066C14.3169 19.7336 15.0312 19.6619 15.6335 19.5596C16.0631 19.3883 16.5415 19.1146 17.2447 18.1912C17.4005 17.949 17.5024 17.7792 17.6073 17.3985" stroke="#0012D4" stroke-linecap="round"/>
<path d="M10.3028 9.37381C9.65358 9.44171 8.35625 10.1907 7.3902 11.0858C6.77571 11.6551 6.15665 12.9335 5.89636 13.5904C5.73098 14.0078 5.77599 15.9417 6.01467 17.4973C6.22394 18.8612 7.14225 20.2339 7.54143 21.1007C7.75248 21.559 8.24308 21.8554 8.74051 22.1985C9.14755 22.4792 9.75132 22.4397 10.2153 22.3034C10.5104 22.2167 10.6793 21.9263 10.8161 21.8229C11.1578 21.5648 11.1587 22.8142 11.7236 23.6198C12.2148 24.3204 13.2822 24.3595 14.9252 24.3266C16.7008 24.291 17.8748 23.2669 18.5147 22.9207C18.9954 22.6607 19.3543 21.7586 19.7154 19.9094C19.8605 19.1659 19.7339 18.737 19.8352 18.5827C20.0789 18.2116 20.7267 18.4963 20.9834 18.4109C21.5397 18.2258 21.9942 17.2998 22.2195 16.7319C22.4916 16.046 21.7267 14.6989 21.2272 13.7493C20.5933 12.5443 20.2164 12.1537 19.8044 11.6058C18.827 10.3063 17.8851 9.85735 17.2328 9.3414C16.4182 8.69701 15.8954 8.41495 15.346 8.05487C14.8759 7.74673 14.4201 7.76269 13.685 7.64232C12.0071 7.36757 11.3007 7.86351 10.7673 8.24057C10.6464 8.44582 10.5775 8.65261 10.526 8.95971C10.5085 9.16496 10.5085 9.47052 10.5085 9.78533" stroke="#0012D4" stroke-linecap="round"/>
<path d="M8.45091 22.1311C8.24618 22.3358 7.90358 22.8142 7.73125 23.3806C7.54389 23.9963 7.55996 24.5632 7.61037 25.181C7.69858 26.262 8.92828 27.7875 9.46017 28.2335C9.88392 28.5888 10.7431 28.8173 11.8208 28.9717C14.1492 29.3051 15.9592 28.4418 16.6444 28.2021C17.4555 27.9183 18.3254 27.3801 19.1644 26.7973C19.6945 26.429 19.9715 25.8718 20.2812 25.2546C20.6959 24.4279 20.5909 23.4068 20.4885 22.7499C20.3172 22.3379 20.0775 22.0292 19.8892 21.824C19.8028 21.7206 19.7349 21.6187 19.4592 21.4109" stroke="#0012D4" stroke-linecap="round"/>
<path d="M20.488 12.2545C20.7606 12.2205 22.3954 12.1516 23.3671 12.254C23.8312 12.3029 24.2926 12.5281 24.7895 12.8018C25.6944 13.3002 26.0765 13.8985 26.3512 14.396C26.6037 14.8532 26.6609 15.4068 26.8317 16.45C27.1232 18.2308 26.6959 18.8697 26.3713 19.505C25.8403 20.5442 25.1197 20.9973 24.7591 21.4094C24.1726 22.0796 23.3028 22.5076 22.8388 22.645C22.3069 22.7823 21.6917 22.9192 21.1758 23.0395C21.0384 23.057 20.8687 23.057 20.6938 23.057" stroke="#0012D4" stroke-linecap="round"/>
<path d="M16.6814 8.8594C17.1269 7.9345 17.2637 7.524 17.3157 7.07801C17.4504 5.92164 17.3337 4.26678 16.9232 3.22203C16.6973 2.64711 16.2719 2.20916 15.2966 1.24979C14.6042 0.568714 13.7699 0.561003 13.1171 0.509048C12.4628 0.456972 11.167 0.626847 10.0152 1.03889C9.04456 1.38613 8.38505 1.86142 7.85264 2.42727C7.43531 2.87081 7.04553 3.30176 6.66899 4.15773C6.42959 4.70195 6.49615 6.85116 6.59852 8.22308C6.63448 8.70514 6.87269 9.16599 7.11241 9.57803C7.18134 9.68142 7.24924 9.78327 7.30119 9.88667C7.35315 9.99007 7.3871 10.0919 7.52496 10.4026" stroke="#0012D4" stroke-linecap="round"/>
<path d="M6.49616 7.72771C5.64019 7.488 5.16076 7.35117 4.30479 7.35014C3.68429 7.34939 3.03729 7.96434 2.39994 8.44634C1.84863 8.86327 1.35416 9.61044 1.02751 10.1094C0.701331 10.6077 0.564028 11.0179 0.546023 12.1984C0.53715 12.7803 0.802712 13.1784 1.02545 13.6758C1.21205 14.0925 1.38502 14.5158 1.65971 15.0132C1.9289 15.5007 2.58256 16.1599 3.18493 16.6429C3.61446 16.8492 3.991 17.021 4.45191 17.0724C4.74306 17.0899 5.15047 17.0899 5.77599 16.987" stroke="#0012D4" stroke-linecap="round"/>
<path d="M2.17515 15.4438C1.42206 15.8882 0.874731 16.7072 0.649421 17.7535C0.226428 19.7178 0.802714 20.38 1.12782 20.8775C1.44671 21.3654 2.13811 21.7175 2.60211 21.9587C3.12212 22.2291 3.57845 22.4726 4.02547 22.7304C4.47146 22.9531 5.22249 23.3975 6.14636 23.7576C6.59493 23.8801 7.00234 23.8801 7.31921 23.7772" stroke="#0012D4" stroke-linecap="round"/>
<path d="M17.5045 5.15568C17.6063 4.9849 18.2205 4.71124 18.8733 4.47049C19.9365 4.07838 20.5539 4.6742 22.3841 5.29046C23.2682 5.58815 24.0847 5.94169 24.7555 6.57647C25.2191 7.01515 25.1856 7.69068 25.2375 8.42782C25.3234 9.7092 25.2555 11.4294 25.0842 11.8414C25.0158 11.9448 24.914 12.0467 24.6033 12.2545" stroke="#0012D4" stroke-linecap="round"/>
<path d="M14.0065 29.4356C14.0065 29.2319 14.0065 29.5684 13.9895 30.3559C13.9769 30.9419 13.9036 32.6785 13.8357 35.2814C13.7888 37.0804 13.4921 38.1425 13.4751 38.8272C13.4318 40.5731 13.4571 42.7732 13.5091 43.4079C13.5751 44.2144 13.6629 45.3102 13.8002 45.963C13.8347 46.1014 13.8686 46.2032 13.9031 46.1538C13.9376 46.1045 13.9715 45.9008 14.0065 45.6909" stroke="#0012D4" stroke-linecap="round"/>
<path d="M13.595 37.3575C13.4581 37.2557 13.3892 36.8452 13.0137 35.733C12.748 34.9461 12.1567 34.0365 11.847 33.3642C11.586 32.7975 10.7863 32.0468 10.0996 31.4778C9.43068 30.9237 8.59288 30.3307 8.04092 30.0365C7.58661 29.7943 6.57229 29.4377 5.62424 29.2474C4.96377 29.1148 4.13195 29.0241 3.17619 28.9387C2.599 28.8872 1.57844 28.9212 1.05375 28.9891C0.529051 29.057 0.529051 29.1929 0.563002 29.4156C0.753409 30.6648 1.38502 31.5941 1.86445 32.484C2.3755 33.4327 3.09697 34.3698 5.23638 35.9629C5.95097 36.4951 6.4941 36.6024 7.21324 37.0129C7.87469 37.3904 8.41387 37.3225 8.94628 37.3915C9.40507 37.4509 9.92211 37.6312 10.4041 37.7685C10.8218 37.8875 11.4303 37.9748 12.2025 38.0602C12.4919 38.0922 12.9345 38.0777 13.077 37.9419C13.7308 37.3188 11.953 36.4357 11.5214 35.9357C11.164 35.5216 10.5106 35.3698 10.0132 34.822C9.79042 34.5818 9.48177 34.375 9.1222 34.2037C8.96634 34.1342 8.86449 34.1003 8.96531 33.9624" stroke="#0012D4" stroke-linecap="round"/>
</svg>
