<svg width="27" height="48" viewBox="0 0 27 48" fill="none" xmlns="http://www.w3.org/2000/svg">
<path d="M12.3447 9.15797C11.4208 9.3627 10.6678 9.8411 10.2197 10.4075C9.83161 10.898 9.97846 11.8267 10.2516 12.7048C10.416 13.2331 10.9702 13.7506 11.5191 14.0268C12.618 14.5799 14.2233 13.9625 15.1714 13.3951C15.7359 13.0573 15.8756 12.3493 15.9286 11.1688C15.945 10.8029 15.7748 10.5654 15.621 10.3257C15.3501 9.90353 14.8159 9.74233 14.3185 9.58698C13.8734 9.44797 13.3756 9.39871 12.9466 9.27834C12.8262 9.26085 12.6904 9.26085 12.5525 9.2269C12.4147 9.19295 12.2789 9.12504 11.9332 9.05508" stroke="#0012D4" stroke-linecap="round"/>
<path d="M11.213 9.46661C11.0433 9.46661 10.8735 9.46661 10.7521 9.39871C10.2283 9.10571 10.0484 8.16825 9.96148 7.51392C9.86166 6.76255 10.0114 5.79992 10.4908 5.09673C10.9796 4.37978 11.9311 4.21967 12.4281 4.13428C12.8816 4.05633 13.5073 4.45629 14.0387 5.02163C14.55 5.56558 14.5052 7.66824 14.3175 8.76187C14.2953 8.89109 14.2316 9.01805 14.2311 9.00313C14.2145 8.52228 14.7768 7.588 15.2408 6.70836C15.5697 6.08486 16.4209 5.93573 17.228 5.69498C17.9302 5.48551 18.6524 5.82976 19.0804 6.17184C19.8114 6.75615 20.2645 7.47483 20.5402 8.07463C20.8178 8.67839 20.5413 9.25982 20.4219 9.51599C20.0781 10.254 19.5485 10.5962 18.2146 11.3329C17.1023 11.9472 16.0495 11.6611 15.8442 11.7125C15.519 11.794 17.9641 11.8658 18.6863 11.9697C19.1695 12.0392 19.5793 12.2773 19.819 12.551C20.032 12.7941 20.0608 13.2362 20.0269 13.7326C19.9782 14.4437 19.5135 14.8823 19.2218 15.3463C18.8075 16.0054 18.1081 16.4276 17.6791 16.6673C16.5775 17.2828 14.3715 16.7383 13.8895 16.4466C13.3809 16.1388 13.067 15.4708 12.7912 15.0237C12.7339 14.9308 12.7563 14.8185 12.7393 14.7151C12.6795 14.3508 12.962 17.0057 12.621 17.7804C12.3202 18.4636 10.6081 18.3144 9.39821 18.0927C8.73208 17.9706 8.4373 17.3555 8.1446 16.8761C7.83011 16.361 7.78503 15.5407 7.74902 14.4944C7.72671 13.846 8.53401 13.4131 9.10191 13.0685C9.42958 12.8696 9.77167 12.8617 9.70531 12.9126C9.20677 13.2952 8.4373 13.1703 8.07773 13.1364C7.4515 13.0773 6.96198 12.4522 6.6019 11.9208C6.22685 11.3674 6.03605 10.8411 6.00004 9.31846C5.97673 8.33247 6.6842 7.82257 7.11322 7.51289C7.36939 7.37606 7.61116 7.27215 8.08802 7.22071C8.46302 7.20322 9.10808 7.20322 9.7727 7.20322" stroke="#0012D4" stroke-linecap="round"/>
<path d="M12.3447 4.21966C12.4126 3.77728 12.6184 2.88427 13.0459 2.14764C13.3632 1.60079 14.0567 1.23817 14.5546 0.979935C15.3648 0.559765 16.8612 0.41306 17.8463 0.549377C18.6842 0.665324 19.1658 1.36985 19.5284 1.85185C19.8009 2.21402 19.923 2.67439 20.0773 3.1034C20.1966 3.35958 20.2666 4.14456 20.2496 5.17286C20.2326 5.55609 20.1987 5.65794 19.9579 5.96865" stroke="#0012D4" stroke-linecap="round"/>
<path d="M20.9867 8.3349C21.2943 8.19807 22.0444 8.12914 22.8021 8.43624C23.3428 8.65539 23.6246 9.46248 23.9353 10.5078C24.3517 11.9085 23.6287 12.4481 23.3715 12.945C22.8182 14.014 21.9168 14.8123 21.3998 15.2439C21.2964 15.3298 21.1946 15.4316 20.9384 15.4841C20.6822 15.5366 20.2748 15.5366 19.855 15.4337" stroke="#0012D4" stroke-linecap="round"/>
<path d="M12.0361 18.2115C11.9332 18.9626 12.0011 19.9235 12.4286 20.8998C12.7229 21.572 13.5073 21.8103 14.1765 22.3931C14.9682 23.0826 15.7707 22.8412 16.7136 22.5341C17.4902 22.2811 17.9661 21.6436 18.3962 21.1966C18.8586 20.716 18.9291 19.656 19.0145 18.9178C19.1468 17.7746 18.7933 17.2877 18.6894 16.7902C18.6637 16.6673 18.5876 16.5675 18.4847 16.498C18.3818 16.4286 18.246 16.3946 18.1421 16.4281C18.0382 16.4615 17.9703 16.5634 17.9003 16.6683" stroke="#0012D4" stroke-linecap="round"/>
<path d="M8.12657 17.4913C8.05867 17.4913 7.92184 17.5592 7.73356 17.713C7.17012 18.1733 7.09776 19.7815 7.25105 20.5243C7.45273 21.5015 8.63892 21.8453 9.13583 22.1369C9.56422 22.3884 10.1811 22.4296 10.712 22.4127C11.3828 22.1909 11.8632 21.8473 12.1029 21.6935C12.2068 21.6076 12.2747 21.5058 12.3447 21.4008" stroke="#0012D4" stroke-linecap="round"/>
<path d="M6.17183 8.02627C5.9671 7.82154 5.4887 7.47894 4.99075 7.2382C4.35417 6.93043 3.67182 7.10034 3.0535 7.25363C2.0656 7.49855 1.47633 8.60652 1.13168 9.05354C0.811853 9.46836 0.651223 9.97895 0.530852 10.6122C0.41313 11.2315 0.649166 11.8308 0.990731 12.2753C1.73204 13.2399 2.29527 13.2043 2.48405 13.3066C2.63466 13.3883 2.2644 13.7177 1.9717 14.2825C1.67108 14.8626 1.74794 15.7382 2.03755 16.5793C2.40145 17.6361 3.4249 17.9337 3.92387 18.3303C4.45577 18.657 4.9352 18.7938 6.09878 18.7779C6.34261 18.7269 6.41051 18.6251 6.48047 18.5202" stroke="#0012D4" stroke-linecap="round"/>
<path d="M4.31998 6.99746C4.21709 5.9419 4.285 4.08592 4.40485 3.53602C4.70283 2.16889 6.44344 1.34105 6.97585 1.04835C7.4144 0.807256 8.86938 0.721705 9.77114 0.824071C10.2348 0.876708 10.6966 1.09825 11.1086 1.42335C11.5051 1.73624 11.9311 1.9213 12.3432 2.16101C12.4466 2.22994 12.5484 2.29784 12.6348 2.38375C12.7213 2.46966 12.7892 2.57151 12.8591 2.67645" stroke="#0012D4" stroke-linecap="round"/>
<path d="M15.6369 23.1498C15.6369 23.2177 15.6369 23.7959 15.7048 25.247C15.7474 26.1565 15.9085 27.4112 15.9785 28.4148C16.0979 30.1286 16.0824 31.0696 16.1338 32.1931C16.2504 34.7399 16.1853 36.5912 16.2367 37.2728C16.3391 38.6297 16.2202 39.7456 16.1688 40.8696C15.9802 44.9896 15.9805 45.473 15.8432 45.885C15.7058 46.2971 15.6369 46.6397 15.6199 46.7945C15.603 46.8135 15.569 46.7117 15.534 46.6067" stroke="#0012D4" stroke-linecap="round"/>
<path d="M16.46 40.1252C16.5618 39.8526 16.9044 39.1684 18.5793 36.7224C19.2359 35.7636 19.853 35.3947 20.265 34.9143C20.3684 34.8104 20.4703 34.7425 20.5906 34.6396C20.711 34.5367 20.8468 34.4009 20.9867 34.261" stroke="#0012D4" stroke-linecap="round"/>
<path d="M16.7686 39.5079C16.6657 39.0666 16.8694 37.4915 17.0937 36.3397C17.3299 35.1266 18.2048 33.582 18.9764 32.1077C20.4567 29.2794 21.4991 28.8782 21.979 28.4672C23.0317 27.5658 24.7193 26.8906 25.3062 26.5629C25.5005 26.4544 25.8201 26.3741 26.1457 26.3731C26.458 26.3721 26.3705 28.3134 26.405 30.6442C26.4214 31.7531 26.0989 32.5408 25.637 33.5506C24.872 35.2228 23.7686 36.3145 23.2007 36.9678C22.5869 37.6739 21.9168 37.9626 21.4682 38.3577C21.0324 38.7415 20.5094 39.0943 19.7208 39.5918C19.2111 39.9133 18.7604 40.1581 18.2964 40.3305C17.7984 40.4678 17.32 40.5367 16.873 40.6221C16.7696 40.6396 16.6678 40.6396 16.5628 40.5367" stroke="#0012D4" stroke-linecap="round"/>
<path d="M16.0484 40.5367C15.8777 40.332 15.4003 39.8536 14.8159 39.4236C13.9598 38.7935 12.7933 37.761 12.2609 37.2975C11.8956 36.9795 11.285 36.5964 10.6153 36.1144C10.0685 35.7209 9.67186 35.224 9.17443 34.6916C8.95169 34.4688 8.7449 34.2281 8.53965 33.9714C8.43625 33.8505 8.3344 33.7486 8.43522 33.6437" stroke="#0012D4" stroke-linecap="round"/>
<path d="M13.9908 38.6849C13.9908 37.8299 13.7871 36.8042 13.1703 35.654C12.7211 34.8162 12.2789 34.333 11.4219 33.2363C10.8002 32.4407 10.1513 31.5881 9.63791 31.0058C8.87881 30.1448 8.43729 29.7013 7.85446 29.2388C7.36663 28.8517 6.35085 28.2301 4.87348 27.5413C4.21158 27.2327 3.70475 27.0943 3.19034 26.8715C2.6277 26.6279 1.99075 26.477 1.45834 26.425C1.33684 26.4132 1.2356 26.3741 1.14918 26.5094C0.897741 26.903 0.924899 27.5367 0.95885 28.101C0.995295 28.7067 1.63992 30.2363 2.46246 32.2749C3.28469 34.3127 4.14508 35.7651 5.00054 36.5717C7.08838 38.5403 7.81588 38.4441 8.33029 38.8032C8.89897 39.2001 9.32412 39.5408 10.1117 39.6962C11.4178 39.6797 12.5073 39.6108 13.5078 39.4915C13.7141 39.44 13.9517 39.3721 14.2995 39.0964" stroke="#0012D4" stroke-linecap="round"/>
</svg>
