<svg width="30" height="49" viewBox="0 0 30 49" fill="none" xmlns="http://www.w3.org/2000/svg">
<path d="M14.3227 12.1366C14.3219 12.0565 15.1785 11.3601 15.8579 10.9108C16.3014 10.6175 17.0937 10.0644 17.8115 9.68426C18.8322 9.14372 19.8728 9.09059 20.4005 9.04975C20.658 9.02982 21.0067 8.98221 21.3703 8.96887C21.6037 8.9603 22.7772 8.90133 24.5153 8.92802C25.3231 8.94043 25.591 9.08978 25.7661 9.17026C26.29 9.41101 25.7819 10.705 25.5659 11.1106C25.3276 11.5583 24.6544 13.1201 23.8828 14.6394C23.1501 16.0822 22.4124 16.6092 21.5247 17.7533C21.002 18.4271 20.2319 18.793 19.3406 19.1853C18.9057 19.3767 17.9163 19.7369 16.6768 20.1142C15.7444 20.398 14.3324 20.3864 13.169 20.4535C10.6078 20.6013 10.0652 20.1987 9.71377 20.0499C9.26464 19.8597 8.7436 19.4983 8.3392 19.1072C7.90595 18.6883 7.5029 18.2851 7.04552 17.7735C6.39144 17.0419 5.8594 16.1838 5.58845 15.724C5.22907 15.1141 5.15736 14.5112 4.91472 13.8245C4.65266 13.0829 4.16253 12.0913 3.67482 10.9941C3.33109 10.2209 3.43137 9.79264 3.41722 8.04562C3.41034 7.19664 3.69989 6.50403 3.92838 6.09882C4.05841 5.86823 4.64053 5.90875 5.52658 6.04221C6.83364 6.23907 8.0359 7.01116 8.87099 7.52272C9.64398 7.99625 9.95358 8.46781 11.0827 9.96006C11.8056 10.9156 12.2991 11.0301 12.7436 11.3128C13.0788 11.6205 13.3514 11.8664 13.5127 11.974C13.594 12.0282 13.6741 12.0816 13.9183 12.2983" stroke="#0012D4" stroke-linecap="round"/>
<path d="M10.2787 8.49693C10.1978 8.23003 10.3046 7.31446 10.614 6.80046C10.9019 6.32215 11.3827 6.07132 11.625 5.93666C12.1507 5.64437 12.947 5.88126 13.0816 5.9221C13.3708 6.00979 13.2972 5.26333 13.5265 4.92606C13.8073 4.51302 14.3729 4.26526 14.9678 4.14313C15.4445 4.04526 15.8304 4.37041 16.2085 4.65389C16.6904 5.01519 16.7217 5.42185 16.8834 5.93342C16.933 6.09025 16.9109 6.28242 16.9643 6.36532C17.1978 6.7279 17.8799 6.44742 18.2038 6.63587C18.5354 6.82882 18.7696 7.25461 18.9325 7.68651C18.9596 7.79489 18.9863 7.90165 19.0001 8.05007C19.0138 8.19848 19.0138 8.38532 19.0947 8.65869" stroke="#0012D4" stroke-linecap="round"/>
<path d="M7.60966 6.63668C7.25945 5.99206 7.20526 4.86378 7.29908 4.21188C7.36359 3.76364 7.76981 3.53734 8.16086 3.10665C8.46363 2.7732 8.9814 2.59427 9.45455 2.44464C10.0865 2.24478 10.4922 2.35001 11.2865 2.48428C11.8894 2.58619 12.2182 2.64604 12.5288 2.7807C12.6083 2.81517 12.6501 2.91456 12.7043 2.91577C13.0324 2.92312 13.0012 2.16399 13.2163 1.57033C13.4373 0.960582 14.8533 0.627259 16.6088 0.503107C17.2485 0.457873 17.7181 0.920046 18.0954 1.16269C18.7066 1.55572 19.0397 1.91649 19.3094 2.26792C19.6107 2.66046 19.7142 3.42573 19.8089 3.84469C19.8358 3.96378 19.8226 4.12615 19.8627 4.1953C20.0056 4.44219 20.6282 3.94174 21.5838 3.68535C22.4257 3.45947 23.1371 3.69748 23.4198 3.83175C23.912 4.06552 24.1611 4.66643 24.432 5.0312C24.6986 5.3901 24.9165 5.90552 25.0123 6.37908C25.0799 7.01035 25.0265 7.92915 24.838 8.25308C24.7838 8.33436 24.7305 8.41444 24.6755 8.49693" stroke="#0012D4" stroke-linecap="round"/>
<path d="M13.6757 20.7099C13.649 20.8159 13.5948 21.4354 13.5014 22.5734C13.4276 23.473 13.2212 25.0192 13.1249 26.0035C12.9367 27.9281 12.9478 28.7397 12.8806 29.7908C12.8294 30.5936 12.8402 31.2761 12.7998 32.0134C12.7258 33.3625 12.8127 34.4572 12.8531 34.9946C12.9525 36.3146 13.0287 37.1804 13.1091 37.6523C13.2402 38.4209 13.3522 39.8155 13.4193 41.0061C13.5227 42.8404 13.5139 43.9145 13.6616 44.7965C13.7465 45.3043 13.8908 45.7262 14.2136 46.6556C14.4303 47.1837 14.5112 47.5072 14.5783 47.709C14.6188 47.8041 14.6722 47.8841 14.7272 47.724" stroke="#0012D4" stroke-linecap="round"/>
<path d="M13.2713 38.5036C13.3789 38.3427 13.5932 38.0733 14.6151 37.1327C15.3193 36.4845 16.4709 35.3849 17.2195 34.5692C17.7055 34.0396 18.4169 32.7142 18.8237 31.9009C19.4381 30.6729 20.4681 29.6893 20.845 29.1781C21.6948 28.0255 22.7279 27.1059 23.2321 26.5345C23.5957 26.1038 24.0268 25.5643 24.3912 25.039C24.4595 24.9165 24.4862 24.8364 24.5137 24.7539" stroke="#0012D4" stroke-linecap="round"/>
<path d="M18.3668 31.7097C18.3668 30.9057 18.4736 29.1296 18.6758 28.2617C19.0381 26.7067 19.525 25.5643 19.8611 24.7855C20.6101 23.0494 21.1151 22.5734 21.5729 21.9931C21.9578 21.5051 22.3283 21.035 22.8379 20.5922C24.2881 19.3319 24.8615 19.1214 25.3076 18.8371C25.6653 18.6091 25.9679 18.366 26.359 18.1225C26.7186 17.8987 27.1003 17.7448 27.4913 17.5026C27.8304 17.2926 28.1525 17.2053 28.2872 17.2316C28.7054 17.3133 28.4769 18.332 28.544 19.4093C28.647 21.0626 28.4777 22.5127 28.2095 23.3988C27.8189 24.6896 27.3453 25.5344 27.2107 25.79C27.0974 26.0049 26.8083 26.6627 26.2433 27.6583C25.4027 29.1398 24.7855 29.7928 24.2998 30.3598C23.8235 30.9157 22.8443 31.3311 22.4262 31.5604C21.6861 31.9663 20.9841 31.9523 20.4992 32.0194C19.9375 32.0332 19.4465 32.0065 19.191 31.966C19.0688 31.9523 18.9621 31.9523 18.933 31.9523" stroke="#0012D4" stroke-linecap="round"/>
<path d="M13.3522 39.7168C13.0837 39.6901 12.3865 39.1555 11.7766 38.5994C11.4506 38.3022 11.17 37.8857 10.6718 37.3199C10.0477 36.6112 9.92932 36.1597 9.10919 35.2987C8.71444 34.8843 8.34082 34.3011 7.9344 33.9351C7.50903 33.552 7.23438 32.9795 6.81582 32.4663C6.47814 32.0882 6.15543 31.6579 5.97911 31.1588C5.93867 31.0367 5.88529 30.93 5.83029 30.7391" stroke="#0012D4" stroke-linecap="round"/>
<path d="M10.8449 37.4522C10.9258 36.78 10.9792 36.1872 10.9132 33.8097C10.8798 32.604 10.3071 31.6603 10.0648 30.9061C9.76535 29.9737 9.28229 28.9904 9.053 28.5165C8.77678 27.9455 8.47349 27.533 8.12408 27.0348C7.25237 25.7917 6.45309 25.4301 5.88653 24.9177C5.24179 24.3346 4.6996 24.1344 4.33564 23.8521C3.81718 23.45 3.43301 23.1913 3.06824 22.8682C2.60129 22.4546 2.30069 21.8988 2.01639 21.3723C1.77606 20.9272 1.51776 20.4705 1.34225 20.0236C1.30723 19.9345 1.16836 19.9286 1.10002 19.9549C0.778945 20.0784 0.602196 21.1078 0.505544 23.1157C0.461771 24.025 0.679842 25.1519 0.788221 26.0173C1.00969 27.7858 1.2735 28.6346 1.46155 29.4135C1.69792 30.3925 2.00143 31.2486 2.20242 31.9733C2.78136 34.0608 3.6158 34.9141 4.11686 35.3481C4.61362 35.7783 5.20753 36.5334 5.5998 36.8848C6.06997 37.306 6.77176 37.5055 7.7674 37.8687C8.44437 37.9641 9.35509 38.0183 10.2225 37.8574C10.3588 37.8032 10.4389 37.7498 10.4405 37.6948" stroke="#0012D4" stroke-linecap="round"/>
</svg>
