<svg width="29" height="48" viewBox="0 0 29 48" fill="none" xmlns="http://www.w3.org/2000/svg">
<path d="M17.7191 7.0674C16.7834 7.0674 15.9385 7.1872 15.3767 7.48941C14.4916 7.96555 13.911 8.69736 13.6356 9.15341C13.4227 9.50578 13.3937 10.0895 13.3479 10.5901C13.2883 11.2402 13.3919 12.3276 13.7245 13.0999C14.0587 13.8759 15.0854 14.2062 15.6748 14.478C16.5975 14.9035 18.4415 14.4803 19.1235 14.3133C19.6301 14.1892 20.3764 13.6653 20.9695 13.0895C21.3334 12.7361 21.4092 12.1533 21.5154 11.2621C21.6414 10.204 21.4709 9.42794 21.3502 9.23191C21.0576 8.75667 20.5652 8.33979 20.0955 7.91596C19.7305 7.58653 19.2637 7.46128 18.584 7.08419C18.2963 6.8877 18.083 6.76518 17.872 6.74976C17.7508 6.76428 17.6011 6.82418 17.4468 6.88589" stroke="#0012D4" stroke-linecap="round"/>
<path d="M16.0855 9.69928C16.0256 9.75918 15.9657 9.81908 15.9348 9.92481C15.904 10.0305 15.904 10.1803 15.9489 10.1975C15.9938 10.2148 16.0837 10.095 15.9947 9.88079" stroke="#0012D4" stroke-linecap="round"/>
<path d="M18.6266 9.60852C18.4469 9.96791 18.3544 10.3327 18.3693 10.5301C18.3843 10.5478 18.4143 10.3981 18.4297 10.2311C18.4451 10.0641 18.4451 9.88442 18.4451 9.69928" stroke="#0012D4" stroke-linecap="round"/>
<path d="M15.8132 12.0589C16.1127 12.1787 16.3569 12.2704 16.6877 12.3158C16.9286 12.3312 17.318 12.3312 17.5485 12.2863C17.779 12.2413 17.8389 12.1515 17.9914 12.0589" stroke="#0012D4" stroke-linecap="round"/>
<path d="M20.6233 8.06569C20.5933 8.09564 20.5634 8.12559 20.533 8.09609C20.5026 8.0666 20.4726 7.97675 20.5171 7.85559C20.8882 6.84447 22.6471 6.46295 23.2379 6.28144C23.7195 6.13351 24.5203 6.15983 25.1592 6.26511C25.7687 6.36553 26.6385 6.8532 27.1713 7.1722C27.7581 7.52364 28.0035 8.51583 28.0802 9.06218C28.1607 9.63601 28.0361 10.4816 27.6886 11.0887C27.2715 11.8173 26.6766 12.4492 26.2514 13.025C25.9329 13.4564 25.4351 13.6308 24.9664 13.7828C24.257 14.0128 23.1989 13.7542 22.5613 13.5269C22.167 13.3603 21.8947 13.1189 21.7137 12.8925C21.6225 12.7859 21.5326 12.696 21.3493 12.6034" stroke="#0012D4" stroke-linecap="round"/>
<path d="M16.8115 14.7816C16.5093 15.2344 16.4485 16.0158 16.5688 16.6852C16.728 17.5715 17.053 17.9562 17.3397 18.395C17.5872 18.7736 17.9896 19.0452 18.368 19.2431C18.8061 19.4721 19.2892 19.6515 21.5521 19.6674C22.5367 19.6743 23.3114 19.2304 23.964 18.7766C24.4341 18.1722 24.7363 17.4461 24.8733 16.6625C24.8888 16.1819 24.8888 15.3134 24.7072 14.4185" stroke="#0012D4" stroke-linecap="round"/>
<path d="M12.9091 11.2421C12.3364 11.2421 11.6712 11.302 10.9156 11.4382C10.08 11.5887 9.37324 11.9664 8.76654 12.4955C8.30022 12.9021 8.22065 13.4184 8.00919 13.9471C7.59393 14.9852 8.00646 16.4388 8.42984 17.2596C8.91088 18.1923 9.85061 18.4699 10.2758 18.7589C10.6129 18.9881 11.0921 18.9255 12.4798 18.9413C13.2781 18.9505 14.0526 18.655 14.888 18.4127C15.4792 18.1404 15.9022 17.8382 16.1753 17.5056C16.2361 17.4144 16.296 17.3245 16.3578 17.232" stroke="#0012D4" stroke-linecap="round"/>
<path d="M15.541 7.15815C15.541 6.8877 15.4811 6.28327 15.1943 5.81361C14.8806 5.29993 14.2123 4.80033 13.6523 4.13555C13.2295 3.63353 12.5497 3.46805 12.0188 3.36186C11.2613 3.21037 10.524 3.61689 9.93093 3.82971C9.47448 3.9935 9.18991 4.49358 8.84141 4.81258C8.50833 5.11748 8.13171 5.70244 7.85763 6.57913C7.43247 7.93908 8.09722 8.6066 8.3704 9.06265C8.61625 9.47309 8.94488 9.87899 9.27749 10.2275C9.70087 10.5751 10.1247 10.9091 10.3511 10.9694C10.4578 10.9998 10.5476 11.0298 10.7309 11.0606" stroke="#0012D4" stroke-linecap="round"/>
<path d="M16.1762 6.88588C15.7234 6.25241 15.4811 5.70788 15.3749 4.99817C15.2692 4.29216 15.3286 3.50253 15.4947 2.83457C15.6959 2.02512 16.0837 1.65475 16.6128 1.26042C17.0615 0.926013 17.5049 0.776244 18.0195 0.624229C18.6124 0.449078 19.5868 0.442265 20.7861 0.713169C21.3495 0.840413 21.6796 1.4079 22.1343 1.87756C22.5175 2.27336 22.8304 2.85998 22.9824 3.28426C23.0736 4.09879 23.0137 5.06896 22.8926 5.44741C22.8622 5.55359 22.8322 5.67339 22.7106 5.88757" stroke="#0012D4" stroke-linecap="round"/>
<path d="M16.1763 17.7765C16.0256 17.9571 15.7243 18.5588 15.2555 19.646C14.709 20.9137 14.8149 22.3097 14.8 23.0503C14.7916 23.4638 14.7242 24.2736 14.7092 25.4222C14.689 26.9681 14.5735 28.6036 14.4374 29.4199C14.265 30.4539 14.1796 31.7147 14.0893 32.5219C14.0062 33.2648 13.9382 33.8075 13.8175 34.8316C13.4729 37.7559 13.303 38.3452 13.2571 38.9805C13.2129 39.5934 13.0307 40.2511 12.9849 40.9916C12.933 41.829 12.8183 43.3295 12.743 44.439C12.7575 46.1819 12.8183 46.6039 12.7884 46.8921C12.7584 46.9406 12.6985 46.7909 12.6368 46.6366" stroke="#0012D4" stroke-linecap="round"/>
<path d="M13.2721 41.5543C13.2421 41.5843 13.2122 41.6142 13.2267 41.5847C13.4948 41.0402 14.3593 40.4072 15.5664 39.3953C15.9709 39.0561 17.0738 38.1737 18.8708 36.8596C20.9854 35.4447 21.3175 34.9918 21.5893 34.6293C21.7114 34.4763 21.8013 34.3865 21.8031 34.2939" stroke="#0012D4" stroke-linecap="round"/>
<path d="M14.7242 39.7392C14.7242 39.6803 14.844 39.0168 15.1616 38.2749C15.6021 37.2461 16.1146 36.2016 16.5974 35.643C17.5201 34.5755 18.0803 33.8728 18.4438 33.5538C19.0143 33.0531 19.8047 32.3899 20.2435 32.0868C20.7628 31.728 21.2259 31.27 21.7405 30.8321C22.3392 30.3226 22.8885 29.8506 23.8115 29.1835C24.7377 28.5141 26.0359 27.6398 26.5809 27.412C26.6942 27.3646 26.7928 27.5454 26.8541 27.7269C27.2039 28.7635 26.7365 30.9233 26.4325 32.0682C26.3664 32.3169 26.2201 32.5079 26.01 33.0488C25.558 34.2127 24.6519 35.6181 23.7906 36.7516C23.0205 37.7652 22.471 38.1946 22.0617 38.6184C21.6274 39.0681 20.8683 39.4343 20.3678 39.7234C19.9855 39.9441 19.536 40.0714 18.9466 40.3432C18.4463 40.5739 16.8533 40.556 15.7701 40.3001C15.6326 40.2239 15.5428 40.164 15.4216 40.0882C15.3005 40.0124 15.1507 39.9226 14.8149 39.7392" stroke="#0012D4" stroke-linecap="round"/>
<path d="M4.28732 24.3109C4.34722 24.5214 4.58863 24.9443 4.96617 25.654C5.37028 26.4137 5.82834 26.8484 6.4178 27.711C6.80585 28.2789 6.94826 28.7252 7.34033 29.4639C7.96916 30.6488 8.46024 31.7201 8.85231 32.2928C9.34812 33.017 9.61102 33.6568 9.82157 34.1537C10.5499 35.8725 11.3027 37.2235 11.6376 37.8919C11.8564 38.3287 12.1812 38.9188 12.4544 39.4048C12.6368 39.9498 12.6967 40.3128 12.8024 40.5542C12.8483 40.6758 12.8782 40.7956 12.9091 40.7375" stroke="#0012D4" stroke-linecap="round"/>
<path d="M1.38317 18.321C1.20347 18.6205 1.051 18.9545 0.885374 19.661C0.561606 21.0421 0.475614 22.7598 0.505563 24.1048C0.522953 24.8858 0.956616 25.8165 1.47029 26.965C1.77569 27.6478 2.01754 27.9701 2.49809 28.526C4.30051 30.6109 4.91899 30.9033 5.39 31.147C5.90083 31.4113 6.46182 31.8417 6.93284 32.0096C7.15882 32.025 7.3721 32.055 7.61305 32.1004C7.76416 32.1158 7.9738 32.1158 8.1898 32.025" stroke="#0012D4" stroke-linecap="round"/>
<path d="M1.65543 17.958C1.53473 18.2285 1.47392 19.0126 1.5792 19.5898C1.68611 20.176 2.59021 20.4973 3.16605 20.8608C3.63849 21.159 4.13305 21.5864 4.72341 22.0701C5.5908 22.7808 6.31117 23.1891 6.84163 23.6887C7.40337 24.2178 7.73421 24.732 7.99241 25.2166C8.30467 25.8027 8.43121 26.8175 8.47704 27.5753C8.58277 28.3023 8.64358 29.8651 8.7189 30.813C8.73433 30.9641 8.73433 31.1738 8.82509 31.3898" stroke="#0012D4" stroke-linecap="round"/>
</svg>
