<svg width="34" height="44" viewBox="0 0 34 44" fill="none" xmlns="http://www.w3.org/2000/svg">
<path d="M10.4903 7.90722C10.1348 7.12332 9.56504 6.62428 8.54982 5.99994C7.19927 5.16938 6.53009 5.48055 5.53254 5.46181C4.51411 5.44268 3.46088 6.01386 2.64003 6.74422C1.89431 7.40772 1.03206 8.40412 0.603698 10.1486C0.270435 11.5058 0.815738 12.4007 1.04759 13.0454C1.30139 13.7511 1.77741 14.8981 2.17151 15.9529C2.55786 16.9871 3.38163 17.5775 4.96764 18.3636C6.13311 18.9412 7.30971 18.8305 8.1809 18.6891C10.3033 18.3447 10.5953 17.5111 11.0954 17.0297C11.5637 16.5789 11.9874 15.8705 12.5229 15.4052C12.7917 15.1716 13.4128 14.9056 14.3033 14.5849C15.1096 14.2944 16.5838 14.2256 18.3315 14.2786C19.8262 14.3239 20.3405 15.1872 20.7694 15.7939C21.1347 16.3106 21.7669 16.8279 22.5337 17.2755C24.2678 18.2879 24.8726 18.3657 25.445 18.491C26.5253 18.7275 27.6227 18.2243 28.7798 17.9395C29.9964 17.64 30.7261 17.0485 31.4244 16.3165C31.9007 15.8172 32.3346 15.0502 32.6217 14.1576C32.8419 13.4726 32.7652 11.7411 32.4278 9.55588C32.2407 8.34382 31.268 7.83868 30.5553 7.1426C29.6258 6.23468 28.7 6.05241 27.7003 5.58871C26.3542 4.96434 24.9497 5.40773 24.2365 5.65725C23.4829 5.92089 22.7372 6.44222 22.3608 6.83471C22.2639 6.9357 22.1653 7.04836 22.1107 6.76724C21.7491 4.90614 21.4885 3.73711 21.2176 2.9832C21.121 2.71457 21.0933 2.41133 20.8267 2.09113C20.0864 1.20214 18.4943 0.877795 17.1363 0.643266C14.7746 0.235356 14.0993 0.802831 13.3855 1.05182C11.5317 1.69851 10.6359 2.72832 10.2595 3.22897C9.84103 3.78558 9.7064 4.33468 9.50935 4.90654C9.27697 5.44307 9.20522 5.79968 9.18755 6.10221C9.16988 6.26338 9.13454 6.44008 9.09813 6.62214" stroke="#0012D4" stroke-linecap="round"/>
<path d="M12.2038 15.6178C12.4169 15.6884 12.8442 16.1147 13.8599 17.2022C14.3265 17.7017 14.6283 18.6463 14.8982 19.4527C15.0021 19.7633 15.1659 20.1841 15.2907 20.7008C15.3893 21.1094 15.4165 22.8485 15.3635 25.4165C15.3141 27.809 14.8104 29.2847 14.6674 30.3036C14.5782 30.9395 14.4527 33.0564 14.3638 34.5326C14.3 35.5927 14.3102 36.5336 14.2567 37.3679C14.0883 39.9916 14.5576 40.9211 14.88 41.621C15.1553 42.2187 15.7003 42.7459 16.1094 42.9601C16.3251 43.0731 16.6245 43.033 16.9115 42.9093C17.9996 42.4403 18.128 41.6086 18.414 41.0362C18.8933 40.0766 18.8434 39.0021 18.9499 38.306C19.0674 37.5385 19.0929 37.0734 19.1465 35.8691C19.1921 34.8424 19.1647 32.9686 19.1293 31.827C19.0672 29.8195 18.8091 28.7621 18.7186 27.9176C18.6395 27.1794 18.5221 26.4018 18.4332 24.9459C18.3685 23.8859 18.415 21.8697 18.4504 20.779C18.5015 19.2006 19.0918 18.5113 19.3778 17.7981C19.6637 17.1192 19.8779 16.4766 20.1451 16.0654C20.2345 15.9754 20.3405 15.9048 20.5568 15.7248" stroke="#0012D4" stroke-linecap="round"/>
<path d="M19.3788 30.8246C19.5202 30.4348 21.0794 28.3765 22.2489 27.1691C23.6614 25.7207 24.1594 25.3651 24.6247 25.1493C24.7323 25.1135 24.8383 25.0781 24.8405 25.0417" stroke="#0012D4" stroke-linecap="round"/>
<path d="M29.017 17.9738C29.1584 17.902 29.7988 18.0444 30.3894 18.294C30.9507 18.5311 31.5486 19.2546 31.9074 19.8816C32.2323 20.4494 32.4075 21.3257 32.4262 23.0359C32.4365 23.978 32.2297 24.4677 32.0166 25.1108C31.8255 25.6875 31.2338 26.5003 30.8745 27.1455C30.3971 28.0028 29.7709 28.8906 29.2505 29.5379C28.8901 29.9862 28.201 30.7839 27.5557 31.3049C26.7615 31.9462 25.9863 32.2147 25.1114 32.5017C24.4142 32.6088 23.6303 32.7523 22.5985 32.8411C21.9608 32.8593 20.7946 32.8593 19.593 32.7523" stroke="#0012D4" stroke-linecap="round"/>
<path d="M5.45706 18.6163C4.92375 18.6516 4.06917 18.8647 3.40681 19.4345C2.55721 20.1652 2.42426 21.0044 2.33376 21.7016C2.21178 22.6414 2.31502 24.0029 2.45799 24.5223C2.67475 25.3098 3.24243 26.4296 3.7238 27.341C4.07394 28.0039 4.91518 28.8906 5.65143 29.7157C6.09768 30.2158 6.7036 30.679 7.34668 31.0377C7.82362 31.3038 8.30996 31.6792 8.88182 31.9839C9.3861 32.2525 10.199 32.6066 10.81 32.8588C11.2903 33.0571 12.0217 33.0735 12.5234 33.1801C12.6311 33.216 12.7371 33.2513 13.0037 33.2695C13.2704 33.2877 13.6945 33.2877 14.1314 33.2877" stroke="#0012D4" stroke-linecap="round"/>
<path d="M14.1314 31.7884C13.989 31.6824 13.6345 31.1138 12.9561 30.3636C12.2736 29.6089 11.8847 29.2911 11.3497 28.7219C10.2281 27.5284 9.95702 26.8301 9.38569 26.1506C9.27699 26.0066 9.24165 25.9006 9.17044 25.8283C9.09922 25.756 8.9932 25.7207 8.88397 25.6843" stroke="#0012D4" stroke-linecap="round"/>
</svg>
