<svg width="25" height="47" viewBox="0 0 25 47" fill="none" xmlns="http://www.w3.org/2000/svg">
<path d="M3.37509 2.15452C3.37509 2.24805 3.43808 2.82068 3.48628 5.15129C3.50989 6.29314 3.66141 7.68041 3.74062 9.24179C3.86826 11.7576 3.85228 12.647 3.9315 13.3504C4.02442 14.1755 4.20159 15.1933 4.34475 15.8003C4.49385 16.4325 4.83721 17.104 5.06006 17.5659C5.439 18.3514 6.04546 18.6959 7.15637 19.521C7.98126 20.1337 9.06705 20.2879 9.92266 20.3671C12.5252 20.608 13.043 20.2249 13.5059 20.1132C14.0183 19.9896 14.5395 19.9386 15.46 19.7162C16.3133 19.51 16.9236 18.7341 17.5611 17.7311C18.3461 16.496 18.6128 15.995 19.0728 15.2802C19.5715 14.5053 20.2028 13.5461 21.1066 12.0711C22.0064 10.6027 22.3636 9.73234 22.6847 9.07573C22.9914 8.44863 23.2569 7.82166 23.7336 6.75514C23.9912 6.1788 24.1483 5.59222 24.2919 5.08305C24.3185 4.98874 24.1826 4.95469 24.0552 4.96996C23.7619 5.00511 23.0097 5.27059 21.5676 5.7139C18.3472 6.70389 17.9791 7.2433 17.4862 7.60883C16.8331 8.09308 16.3567 8.51646 16.0059 8.58088C15.5454 8.66547 15.4653 7.34447 15.1947 6.81669C14.8827 6.20819 14.1005 5.12075 13.6042 4.35151C13.4462 4.10661 13.3017 3.87337 13.0798 3.74595C12.5306 3.4306 11.9665 4.38014 11.2359 5.07828C10.5828 5.70239 10.0596 6.44544 9.56429 7.01998C9.45343 7.14856 9.32665 7.27384 9.19876 7.30725C8.68266 7.44205 8.18138 6.76993 7.92513 6.3395C7.60245 5.7975 7.19455 5.24291 6.57467 4.60633C6.03205 4.04909 5.34876 3.39713 5.01473 2.96765C4.71219 2.31485 4.2684 1.87011 3.85372 1.59859C3.7578 1.55039 3.66332 1.51889 3.47053 1.39101" stroke="#0012D4" stroke-linecap="round"/>
<path d="M7.0972 1.391C7.31766 1.32897 8.2062 0.757292 8.95539 0.548281C9.39784 0.424846 9.76853 0.563551 9.99042 0.690007C10.5005 1.19917 10.6914 1.48549 10.8498 1.62865C10.9453 1.67732 11.0713 1.67732 11.2011 1.67732" stroke="#0012D4" stroke-linecap="round"/>
<path d="M15.973 2.63171C15.9415 2.63171 15.91 2.63171 15.9253 2.58447C16.0497 2.19951 17.0801 1.96555 18.0855 1.88395C18.5489 2.02663 18.8982 2.31199 19.1525 2.59783C19.2494 2.7262 19.2809 2.82068 19.4088 3.01347" stroke="#0012D4" stroke-linecap="round"/>
<path d="M11.2965 20.4787C10.9787 21.2728 10.7887 21.7805 10.5186 22.6528C9.91004 24.6184 9.54804 25.0254 9.37243 25.4716C9.15568 26.0223 8.75399 26.9609 8.45002 27.9043C8.2637 28.4826 8.11646 29.5683 8.03581 30.8777C8.01403 31.2314 7.95612 31.5477 7.94037 31.9128C7.92585 32.2493 7.86068 33.6998 7.87643 35.7351C7.88341 36.6377 7.95612 36.9247 7.97187 37.2258C7.99268 37.6237 8.05156 39.0454 8.06731 40.9217C8.147 42.1089 8.20999 42.9984 8.32165 44.1098C8.33788 44.5856 8.33788 45.31 8.33788 45.77" stroke="#0012D4" stroke-linecap="round"/>
<path d="M8.05158 33.363C8.02008 33.4259 7.98859 33.4889 7.98811 33.4584C7.98102 33.0046 8.33599 32.191 8.54404 31.5673C8.87333 30.5802 9.89354 28.9136 10.8747 27.8991C12.3339 26.3902 13.6815 25.8243 14.1554 25.4606C15.1549 24.6936 16.5074 24.0443 17.5091 23.6311C18.5903 23.185 20.1036 22.5803 20.743 22.3088C21.2583 22.0899 21.6983 22.0697 21.8573 22.1165C22.5484 22.3199 21.7642 24.0348 21.4621 24.9138C20.9681 26.3513 19.0327 27.6004 18.2816 28.2708C17.6359 28.8472 16.9617 29.7019 16.3891 30.0846C15.369 30.7664 14.4479 31.103 13.9077 31.3578C13.0692 31.7533 12.3177 31.8035 11.8391 31.9309C11.242 32.0898 10.7258 32.1852 10.1694 32.3127C9.64349 32.4401 9.19875 32.567 8.57888 32.8686C8.43429 32.9488 8.3398 33.0117 8.05158 33.0766" stroke="#0012D4" stroke-linecap="round"/>
<path d="M8.05157 32.7903C6.94162 32.7273 6.04926 32.5365 5.58782 32.3141C5.02668 32.0437 4.39627 31.2977 3.80741 30.9154C2.56938 30.1118 2.29662 29.2629 1.91295 28.6092C1.55175 27.9937 1.21243 27.5431 1.00581 27.1136C0.67305 26.422 0.639802 25.4778 0.528139 24.0353C0.463494 23.2001 0.511915 21.7175 0.653641 21.018C0.795367 20.3184 1.07882 20.4444 1.28783 20.525C2.57745 21.0226 4.51652 22.5097 4.9961 23.2126C5.3409 23.7179 5.63315 24.2619 5.93474 24.7716C6.21465 25.2446 6.52264 26.0085 6.88912 26.8703C7.2455 27.7083 7.44649 28.7456 7.5739 29.4318C7.70131 29.9577 7.76525 30.5914 7.84447 31.0867C7.86069 31.1984 7.86069 31.3244 7.86069 31.4542" stroke="#0012D4" stroke-linecap="round"/>
</svg>
