<svg width="27" height="48" viewBox="0 0 27 48" fill="none" xmlns="http://www.w3.org/2000/svg">
<path d="M10.4201 12.4129C10.4201 12.1888 10.3458 11.7395 10.3633 10.1673C10.3767 8.95564 10.981 8.47358 11.3943 8.00397C11.7025 7.65381 12.3684 7.57039 13.0244 7.58897C13.8153 7.61138 14.3955 8.13123 14.9046 8.58226C15.3414 8.96931 15.4496 9.59525 15.6749 10.5508C15.8528 11.3058 15.8258 11.9962 15.8815 12.4478C16.0099 13.4877 17.5871 10.575 18.095 10.2929C18.7795 9.9127 19.8012 9.63579 20.5343 9.41056C21.1671 9.21615 22.7585 9.25965 23.7073 9.35312C24.1596 9.39769 24.6077 9.55921 25.3019 10.2512C25.875 10.8225 25.6235 11.994 25.5114 12.6551C25.4129 13.2363 24.8374 13.7238 24.2929 14.288C23.8692 14.7271 23.2608 14.9265 22.5862 15.2458C21.2981 15.8554 19.9228 15.7149 18.7578 15.81C18.4148 15.838 17.2256 15.9041 15.5369 15.8855C14.8124 15.8775 12.8414 15.7914 9.97024 15.7729C7.98543 15.76 6.25556 15.6045 5.50553 15.5476C4.81808 15.4955 4.15412 15.118 3.57133 14.779C2.99982 14.4466 2.42658 13.8792 1.95696 13.4659C1.26027 12.8527 0.962555 11.8183 0.642159 10.9517C0.326575 10.0981 0.584161 9.14928 0.958613 8.455C1.29004 7.84049 2.30946 7.79563 3.11411 7.70215C5.03728 7.47875 6.02357 8.0569 6.58947 8.339C7.21244 8.64956 8.12726 9.14478 8.71005 9.57723C9.18414 9.92902 9.55524 10.3836 10.0429 10.9281C10.1566 11.0604 10.2309 11.1719 10.2878 11.2851C10.3447 11.3982 10.3819 11.5097 10.5328 11.6246" stroke="#0012D4" stroke-linecap="round"/>
<path d="M8.05519 8.9218C7.83108 8.73486 7.30741 8.21231 6.7432 7.3857C6.37221 6.84218 6.40422 6.1852 6.4031 4.31182C6.40251 3.34103 7.22408 2.17378 8.12727 1.26609C8.86899 0.520662 10.785 0.362896 11.6758 0.605586C12.3972 0.802117 12.7829 1.59943 13.1218 2.29315C13.3218 2.70243 13.3482 3.54771 13.3668 4.3929C13.3723 4.6441 13.4225 4.53198 13.4603 4.40022C13.6384 3.77807 13.9473 3.18058 14.5093 2.48686C15.171 1.67001 15.7109 1.52736 16.1619 1.28354C16.8305 0.922155 17.9632 1.29987 18.47 1.54425C19.3194 1.95385 19.8395 2.98462 20.1047 3.66427C20.5013 4.68058 20.0692 6.17845 19.8806 6.76124C19.6375 7.51205 19.0556 8.54341 18.7549 9.03273C18.6795 9.14591 18.6052 9.2574 18.5297 9.37058C18.4543 9.48376 18.3799 9.59525 18.0781 9.93535" stroke="#0012D4" stroke-linecap="round"/>
<path d="M7.15428 15.5662C6.96733 15.752 6.66777 16.3523 6.21787 17.1766C5.6213 18.2697 5.46502 19.9087 5.70771 20.839C5.77487 21.0964 6.25109 21.1588 6.68185 21.2714C7.57428 21.5047 8.50343 20.8232 8.99163 20.3919C9.62111 19.8357 10.6004 18.9515 11.2068 18.1964C11.3569 18.0096 11.6162 17.7487 11.7688 17.6705C12.3599 17.3673 13.0059 19.3907 14.5217 20.1244C16.396 21.0316 18.336 20.8592 19.1238 20.8221C19.4303 20.8076 19.5399 20.7106 19.6159 20.5794C19.9661 19.9749 19.0962 18.8389 18.3619 17.9526C18.0038 17.3692 17.6299 16.9942 17.3095 16.488C17.2527 16.3557 17.2155 16.2442 16.952 16.3545" stroke="#0012D4" stroke-linecap="round"/>
<path d="M11.7716 18.1564C11.7716 18.8659 11.6972 19.9177 11.5846 21.2641C11.4375 23.0227 11.2085 24.4967 11.1713 25.2828C11.0997 26.7985 10.9089 27.5374 10.8521 28.7565C10.83 29.2294 10.758 29.7154 10.7394 30.2588C10.7246 30.694 10.6454 32.443 10.664 34.8823C10.675 36.3257 10.9067 37.4455 11.0576 39.115C11.2308 41.031 11.8459 42.252 11.9028 43.3973C11.9968 44.9863 12.0711 47.322 12.1094 47.7178C12.1094 47.7015 12.1094 47.5157 12.1094 47.3242" stroke="#0012D4" stroke-linecap="round"/>
<path d="M11.9968 42.4817C11.9968 42.1833 12.0711 41.4344 12.128 40.9068C12.186 40.3684 12.3347 39.7812 12.5402 39.293C12.8008 38.6739 12.9721 38.2045 13.2153 37.3244C13.5897 35.97 14.1343 35.3913 14.6974 34.5642C15.2964 33.6842 15.7853 32.9881 16.1997 32.4233C16.7065 31.7326 17.2493 31.1479 17.7572 30.5651C17.8889 30.4328 18.0376 30.3213 18.1699 30.2081C18.3022 30.095 18.4137 29.9835 18.6412 29.756" stroke="#0012D4" stroke-linecap="round"/>
<path d="M14.6996 34.2607C14.6996 33.9994 14.8483 33.1773 14.9434 31.7318C14.9859 31.0876 15.337 30.5105 15.7301 29.4975C16.1657 28.3749 16.6862 27.7334 17.5494 26.8122C18.0521 26.2757 18.7876 25.8166 19.5011 25.4782C20.9743 24.7794 21.567 24.6139 22.4105 24.3701C23.2318 24.1327 24.1572 24.1634 24.4968 24.1623C25.1045 24.1603 23.5603 25.436 23.1848 26.86C22.9866 27.6115 22.772 28.7357 22.4899 29.7154C22.3039 30.3614 22.058 30.8799 21.7585 31.5173C21.251 32.5971 20.7449 33.3192 20.3885 33.8457C19.9041 34.5612 19.3192 34.6728 18.0663 35.085C16.7425 35.1616 15.8269 35.1244 15.6023 35.031C15.4891 34.9747 15.3776 34.9003 15.1501 34.7111" stroke="#0012D4" stroke-linecap="round"/>
</svg>
