<svg width="30" height="49" viewBox="0 0 30 49" fill="none" xmlns="http://www.w3.org/2000/svg">
<path d="M5.98214 31.1883C5.98214 31.1272 5.82931 31.1263 5.55188 31.2337C5.27772 31.3399 5.17998 31.6505 5.07207 31.8353C4.6043 32.6364 5.0855 34.2432 5.4097 34.768C5.65876 35.1711 6.07292 35.3863 6.75096 35.5261C7.54062 35.689 8.53685 35.6345 9.54512 35.5576C10.051 35.5191 10.5497 35.5113 13.1664 35.465C15.5689 35.4225 20.1544 35.4493 22.5775 35.4034C25.0007 35.3575 25.123 35.2658 25.2318 35.1728C25.7048 34.7682 26.0511 34.1858 26.2517 33.6606C26.6379 32.6491 26.2382 31.2217 25.9909 30.8192C25.773 30.4646 25.0378 30.3862 23.6201 30.2778C22.0614 30.1586 20.8973 30.2926 20.5124 30.3542C19.4278 30.5278 18.1202 30.5084 16.4247 30.5552C15.4655 30.6325 14.4438 30.6631 12.8367 30.7094C11.3824 30.7252 8.63133 30.7252 5.79689 30.7252" stroke="#0012D4" stroke-linecap="round"/>
<path d="M23.9522 35.7271C23.9827 35.6966 24.0133 35.666 24.0138 35.7114C24.0184 36.1673 23.7984 36.6516 23.69 37.2838C23.5929 37.8503 23.5816 38.2874 23.4895 38.7204C23.3658 39.3016 23.2741 40.0455 23.1958 40.6346C23.1259 41.1609 23.0574 41.6535 22.9184 42.2241C22.754 42.8992 22.4719 43.5043 22.1931 44.2921C21.8723 45.1986 21.9458 45.9126 21.8222 46.3781C21.7067 46.8125 21.6364 47.2428 21.5753 47.4739C21.437 47.9966 20.712 47.9227 20.1873 48.0463C19.727 48.1548 19.2299 48.2005 18.4745 48.2473C17.6863 48.2961 16.3306 48.3858 15.1103 48.4326C14.1976 48.4676 12.9015 48.4488 11.8372 48.402C11.2234 48.375 10.8007 48.1709 10.4297 47.8634C9.80126 47.3424 9.90405 46.7518 9.78039 46.1048C9.55241 44.9119 9.44091 44.036 9.16348 43.0332C8.98894 42.4024 8.88513 41.9055 8.74665 41.1959C8.45291 39.6909 7.99034 39.2804 7.8199 38.7857C7.6367 38.2541 7.4957 37.7668 7.29516 37.3958C7.15575 37.0249 7.03256 36.6553 6.9089 36.2843C6.87787 36.1912 6.8473 36.0995 6.63055 35.9124" stroke="#0012D4" stroke-linecap="round"/>
<path d="M15.245 30.5399C15.3682 30.3871 15.4609 29.9851 15.5072 28.9138C15.5495 27.9351 15.5229 26.0696 15.5076 25.0327C15.4842 23.4391 15.2469 21.9662 15.1371 20.9551C15.088 20.5024 14.9375 19.769 14.844 19.0868C14.78 18.6202 14.5355 18.0999 14.4887 17.589C14.45 17.1664 14.3502 16.7401 14.2419 16.2C14.1956 15.7202 14.1335 13.2109 14.2104 11.6154C14.2261 11.4 14.2261 11.0638 14.3187 10.7173" stroke="#0012D4" stroke-linecap="round"/>
<path d="M13.2072 3.86279C12.9302 3.80165 12.6218 3.49412 12.2207 3.10786C12.0207 2.91522 11.9725 2.65954 11.9261 2.45946C11.825 2.02244 12.1864 1.58041 12.5574 1.11634C12.8627 0.734498 13.3906 0.652268 14.0529 0.543892C15.138 0.366333 15.5211 0.774538 15.9073 0.928765C16.4472 1.14433 16.6641 1.7916 16.804 2.2705C17.0164 2.99795 16.6048 3.39779 16.4339 3.69235C16.2646 3.98417 17.0958 3.33851 17.928 3.33758C18.4411 3.33701 18.7631 3.7998 19.0266 4.21617C19.2619 4.58792 19.2892 5.18738 19.3054 6.48233C19.3134 7.11906 18.9206 7.5346 18.3972 8.19782C17.5772 9.23701 17.0383 9.45016 16.7127 9.77436C16.3862 10.0996 15.9879 10.3765 15.6169 10.7007C15.4321 10.8396 15.246 10.9637 15.0612 11.0869C14.9681 11.149 14.8764 11.2101 14.5966 11.4584" stroke="#0012D4" stroke-linecap="round"/>
<path d="M13.2072 3.95542C12.8376 3.89429 12.4069 3.58676 11.5742 3.18475C11.3701 3.08623 11.1731 3.12176 11.0175 3.16761C10.72 3.25525 10.5219 3.49135 10.3371 3.722C9.83613 4.34726 9.87256 6.16555 9.96473 7.14927C10.0311 7.85779 10.3653 8.46089 10.6127 8.87865C10.9221 9.40126 11.199 9.97445 11.4769 10.4376C11.8033 10.9816 12.2179 11.2713 12.5574 11.5501C12.7422 11.6733 12.9284 11.7974 13.2202 11.89C13.4203 11.9215 13.7259 11.9215 14.0409 11.9215" stroke="#0012D4" stroke-linecap="round"/>
<path d="M15.245 21.277C15.3367 20.8167 15.6452 20.0747 15.8925 19.55C16.2102 18.8759 16.9402 17.7923 17.7432 16.911C18.1499 16.4646 18.8224 15.8471 19.4115 15.427C19.6579 15.258 19.9673 15.0718 20.291 14.9023C20.4313 14.8245 20.523 14.7634 20.7101 14.6077" stroke="#0012D4" stroke-linecap="round"/>
<path d="M20.7101 14.7004C20.5869 14.5781 20.5249 13.2294 20.7708 12.1554C20.9135 11.5322 21.4178 10.6284 21.8356 10.2245C22.2685 9.80601 22.7758 9.51501 23.3019 9.32836C23.7545 9.16779 24.808 9.14264 25.5255 9.2348C25.9133 9.28463 26.266 9.5428 26.5601 9.88228C26.7241 10.0716 26.8848 10.2533 26.9469 10.4381C27.0833 10.8445 26.3012 11.2398 26.0831 11.6575C25.9726 11.8691 25.99 12.3504 26.0206 12.9057C26.0518 13.4737 26.7903 13.7111 27.1928 13.9584C27.382 14.0747 27.5332 14.2363 27.6258 14.5434C27.7854 15.0723 27.535 15.5637 27.3039 15.7795C26.9555 16.1049 26.5476 16.2436 26.0076 16.3519C25.535 16.4468 24.9136 16.5215 24.0939 16.6298C23.5547 16.7011 22.6313 16.7382 22.0083 16.646C21.6109 16.5872 21.2066 16.3066 20.8194 15.9833C20.6805 15.7526 20.5869 15.535 20.5406 15.3349C20.5249 15.2265 20.5249 15.1042 20.5249 14.9783" stroke="#0012D4" stroke-linecap="round"/>
<path d="M27.1942 10.7173C27.4091 10.7785 28.0241 11.2694 28.459 11.8886C28.6142 12.2911 28.6762 13.0886 28.3997 13.6648C28.3066 13.7426 28.2149 13.8037 27.9352 14.052" stroke="#0012D4" stroke-linecap="round"/>
<path d="M15.5229 26.3716C15.6443 26.2188 16.2621 25.7251 16.8165 25.4009C18.1933 24.5957 18.7612 24.0892 19.2114 23.8706C19.3966 23.7807 19.4133 24.2708 19.4592 24.4866C19.5022 24.6891 19.8746 24.796 20.2289 24.9349C20.9332 25.2111 21.7272 24.7358 22.3284 24.4588C23.3385 23.9934 23.7039 23.2241 23.9359 22.8378C24.0612 22.6293 24.0448 22.2367 24.0142 21.805C23.9751 21.2521 23.3371 21.001 22.6271 20.6606C21.8963 20.3102 20.6509 20.7194 20.1715 21.0288C19.6646 21.356 19.4152 21.9847 19.2285 22.3872C19.1049 22.7887 19.0123 23.1287 18.9659 23.3288C18.9502 23.4371 18.9502 23.5594 18.9502 23.6854" stroke="#0012D4" stroke-linecap="round"/>
<path d="M15.245 26.4642C15.1218 26.2799 14.9986 25.9103 14.6601 25.4625C14.2872 24.9692 13.7037 24.9525 12.9168 24.8743C12.4566 24.8285 12.0364 24.6432 11.6798 24.6265C11.1347 24.601 11.3565 25.5972 10.9702 25.9228C10.5143 26.3071 9.99854 26.5865 8.59706 26.6189C7.98728 26.633 7.61983 26.4031 7.38872 26.2493C6.93795 25.9494 7.00106 24.6524 7.17011 23.8415C7.28492 23.2907 7.74024 23.0073 8.21867 22.6678C8.73778 22.2995 9.34458 22.2663 10.1166 22.2797C10.8719 22.2929 10.9211 23.2815 11.1532 23.684C11.1999 23.7771 11.2305 23.8688 11.2462 24.0077C11.262 24.1467 11.262 24.3301 11.3546 24.519" stroke="#0012D4" stroke-linecap="round"/>
<path d="M15.1524 21.1844C14.9681 21.0927 14.3539 20.234 13.857 19.5805C13.4159 19.0005 12.8089 18.5 12.4365 18.0832C11.9137 17.4979 11.4806 17.018 10.986 16.6623C10.4974 16.311 9.96704 16.1213 9.5039 15.8902C9.23653 15.7568 9.03983 15.5655 8.87032 15.4271C8.78535 15.3576 8.73137 15.258 8.76101 15.1496C8.91581 14.5837 9.34643 14.2391 9.4863 13.5152C9.59994 12.927 9.41034 12.4476 9.22555 12.2012C8.81748 11.6572 7.93291 11.1212 7.3424 10.9031C6.83584 10.7159 6.2026 10.5951 5.49121 10.4552C5.24895 10.4076 4.87801 10.4394 4.64319 10.5006C4.40838 10.5617 4.31668 10.684 4.23887 10.854C3.90036 11.5934 4.22034 12.6255 4.37642 13.2938C4.47103 13.6989 3.85353 13.989 3.48255 14.1594C3.09915 14.3356 2.68085 14.667 2.47799 15.1154C2.34495 15.4094 2.58452 15.7795 2.83091 16.0722C3.23342 16.5504 3.7257 16.7364 5.35829 16.8156C6.27716 16.8601 7.18447 16.2454 7.6013 15.9828C7.74024 15.9055 7.92365 15.8138 8.07926 15.7207C8.23488 15.6276 8.35715 15.5359 8.66838 15.3488" stroke="#0012D4" stroke-linecap="round"/>
<path d="M2.36962 14.7004C1.75549 14.517 0.828272 13.8389 0.548532 13.298C0.455497 13.1181 0.517039 12.7922 0.56289 12.6042C0.630316 12.3277 0.917196 12.1698 1.1483 11.9692C1.34885 11.8604 1.62673 11.7983 2.27143 11.752C2.73272 11.7363 3.46634 11.7363 4.2222 11.7363" stroke="#0012D4" stroke-linecap="round"/>
</svg>
