<svg width="28" height="49" viewBox="0 0 28 49" fill="none" xmlns="http://www.w3.org/2000/svg">
<path d="M14.5885 8.43584C13.8234 8.43584 12.1524 8.55812 11.642 8.89714C10.7943 9.46023 10.7611 10.0087 10.3906 11.5936C10.2038 12.3924 10.3887 13.0951 10.5883 13.7416C10.8215 14.497 11.4669 14.9801 12.1746 15.2117C13.5883 15.6743 14.092 15.1978 15.0632 15.0134C15.7518 14.8827 16.2225 14.6123 16.9478 14.0885C17.5793 13.6324 17.7675 12.9469 17.9074 12.0993C18.0696 11.1167 17.8926 10.3514 17.8157 10.1203C17.6761 9.70068 17.1228 9.45662 16.7204 9.1778C16.3539 8.9239 15.9798 8.74523 15.6088 8.54468C15.5157 8.49791 15.424 8.46734 15.3004 8.43631C15.1767 8.40528 15.0239 8.37471 14.5885 8.34322" stroke="#0012D4" stroke-linecap="round"/>
<path d="M13.6622 15.4756C13.6011 15.8128 13.3547 17.104 13.2148 18.0817C13.1029 18.8639 13.1064 19.731 13.0296 20.6906C12.9824 21.2788 12.9212 21.8337 12.8443 22.8633C12.6059 26.0561 12.9212 26.8023 12.9981 27.346C13.0697 27.8526 13.1064 29.3885 13.0296 30.4639C12.9887 31.0359 12.9212 32.1414 12.9981 32.9649C13.0225 33.2264 13.0444 33.4753 13.0907 34.226C13.199 35.9823 13.137 37.3036 13.2139 37.6269C13.5031 38.843 13.7549 40.4521 13.847 41.1621C13.9404 41.8817 14.1254 43.2273 14.2022 43.834C14.2627 44.3113 14.3718 44.9891 14.557 46.0395C14.6496 46.7203 14.7738 47.4604 14.8354 47.9411C14.8358 47.9587 14.8053 47.8365 14.7738 47.7105" stroke="#0012D4" stroke-linecap="round"/>
<path d="M13.1064 37.4287C13.1981 37.1527 13.5677 36.5969 14.3227 35.5502C14.8219 34.858 15.5102 33.9755 16.2813 33.1275C17.1624 32.1585 17.7972 31.38 18.2302 30.8849C18.7963 30.2378 19.1255 29.7738 19.6192 29.1717C20.1678 28.5027 20.576 28.0454 21.0554 27.4424C21.2559 27.1802 21.4421 26.9931 21.6575 26.8546C21.7811 26.7773 21.934 26.6856 22.0915 26.4985" stroke="#0012D4" stroke-linecap="round"/>
<path d="M17.46 31.9636C17.46 31.2892 17.5211 29.9906 17.5679 29.4029C17.6057 28.9284 18.0436 27.8342 18.585 26.3799C18.9502 25.399 19.3107 24.9571 19.6349 24.3713C20.0585 23.6059 21.0355 22.4914 22.1299 21.3654C23.245 20.2183 23.8496 20.1701 24.3433 19.8922C25.0316 19.5048 25.7003 19.1215 26.8577 18.5958C27.088 18.4912 27.1842 18.4713 27.2467 18.5319C27.4139 18.6941 27.4019 20.095 27.4023 22.1153C27.4027 23.9209 26.9711 24.7015 26.7391 25.3851C26.571 25.8804 26.1393 26.5559 25.7823 27.2066C25.5424 27.6436 25.3038 27.9787 24.7337 28.5956C24.0887 29.2935 23.2975 30.048 22.9265 30.2337C22.2925 30.5511 20.865 31.4337 19.9786 31.7779C19.7164 31.8395 19.4988 31.9015 19.1 31.9478C18.7929 31.9636 18.2733 31.9636 17.7379 31.9636" stroke="#0012D4" stroke-linecap="round"/>
<path d="M12.8286 30.4815C12.3358 30.5121 11.843 30.6353 11.3178 30.8358C10.2778 31.2329 8.7251 30.8835 8.23 30.7752C7.56384 30.6293 6.99664 30.4834 6.53118 30.2815C6.10594 30.097 5.57572 29.7423 4.57301 29.0486C3.68965 28.4374 2.88948 27.3673 2.4092 26.7935C2.03843 26.3505 1.52968 25.6982 1.25087 25.2188C1.02798 24.8356 0.788653 24.2791 0.540407 23.3996C0.452052 23.0865 0.508914 22.6173 0.707603 22.4117C1.8121 21.2686 4.2678 23.0694 5.10748 23.2713C5.8696 23.4546 6.95959 23.8419 7.39263 24.0892C7.98112 24.4253 8.59542 24.9219 9.18315 25.6004C9.55624 26.0312 10.0163 26.3725 10.6495 27.0209C11.1025 27.4849 11.315 27.8861 11.6383 28.3029C12.125 28.9305 12.4877 29.3681 12.735 29.816C12.7956 29.9257 12.8582 30.0165 12.7827 30.0485C12.0789 30.3464 11.2872 29.6794 10.1775 29.4019C9.58563 29.254 9.15675 29.0013 8.72371 28.7841C8.16747 28.3835 7.79696 27.8592 7.58113 27.4739C7.48758 27.3025 7.42644 27.1802 7.36345 26.9616" stroke="#0012D4" stroke-linecap="round"/>
<path d="M11.6159 8.86698C11.5484 8.75373 11.3212 8.52724 11.0487 8.17523C10.5807 7.57071 10.5476 7.14101 10.5132 6.73101C10.4651 6.15922 10.388 4.62641 10.5804 3.34422C10.6591 2.81927 10.8874 2.47884 11.2731 1.93342C11.757 1.24936 12.863 0.886586 13.6145 0.635877C14.1491 0.457495 15.4267 0.407681 16.5138 0.781186C16.9721 0.938656 17.0504 1.47464 17.2772 1.95218C17.5302 2.48483 17.7776 3.11193 17.9031 3.61198C18.041 4.16109 18.1419 4.56774 18.233 4.97672C18.445 5.92897 18.2565 7.36477 18.1767 7.77375C18.0931 8.20221 17.9836 8.61456 17.8925 8.93418C17.8697 9.00274 17.8472 9.07027 17.8243 9.13884C17.8015 9.2074 17.779 9.27494 17.7558 9.34452" stroke="#0012D4" stroke-linecap="round"/>
<path d="M17.824 10.2314C17.9822 9.82343 18.2551 9.27903 18.5164 8.37034C18.7293 7.62993 19.232 7.32248 20.049 6.98069C20.8813 6.63247 21.8899 6.95545 22.5632 7.2853C22.9997 7.49913 23.122 7.95556 23.2696 8.27449C23.473 8.71358 23.3948 9.29677 23.3955 10.6806C23.396 11.7105 22.4425 12.5713 21.8964 12.9817C21.5542 13.2388 21.0099 13.3463 20.679 13.4374C19.8985 13.506 18.7797 13.4834 18.6324 13.4381C18.5526 13.4152 18.4625 13.3927 18.2333 13.3013" stroke="#0012D4" stroke-linecap="round"/>
<path d="M11.3431 8.9352C10.9119 8.75373 10.4139 8.57227 9.59492 8.27687C9.17175 8.12424 8.37003 8.04834 7.79732 7.99171C7.1628 7.92898 6.61677 8.18341 6.11433 8.55862C5.75824 8.82454 5.22917 9.56692 4.97642 10.2177C4.63676 11.0923 4.88398 12.0474 5.02076 12.6058C5.14769 13.1239 5.72445 13.4132 6.19074 13.6417C6.629 13.8565 7.36037 14.0285 7.86213 14.1196C8.403 14.2178 9.04404 14.0981 9.36365 13.9838C9.63484 13.8869 9.84154 13.8245 9.89884 13.7904C10.1438 13.6446 9.29782 14.0503 8.95672 14.3461C8.57757 14.6748 8.41096 15.2306 8.17151 16.2866C7.83629 17.765 8.34001 18.617 8.647 19.3592C8.89959 19.9699 9.43153 20.0087 9.89714 20.1796C10.3254 20.3368 10.9296 20.328 11.3533 20.2601C11.706 20.169 12.1139 20.0333 12.411 19.8965C12.4571 19.8511 12.4796 19.7836 12.5028 19.714" stroke="#0012D4" stroke-linecap="round"/>
<path d="M14.3447 15.8254C14.254 15.938 14.1183 16.3917 14.0944 18.0811C14.0811 19.0213 14.4348 19.5967 14.6057 20.0537C14.7332 20.3947 14.9123 20.7127 15.2412 21.0883C15.5246 21.4119 16.0482 21.442 16.4452 21.4649C17.3258 21.5155 18.1173 20.6936 18.3916 20.4085C18.877 19.9037 19.6195 19.1928 19.8242 18.8063C20.2651 17.9738 20.2799 16.5172 20.1554 15.7698C20.1009 15.4425 19.8488 15.1446 19.6553 14.8714C19.5308 14.7353 19.2361 14.4406 18.8838 14.0657C18.7565 13.916 18.734 13.8484 18.7108 13.7106" stroke="#0012D4" stroke-linecap="round"/>
</svg>
