<svg width="30" height="48" viewBox="0 0 30 48" fill="none" xmlns="http://www.w3.org/2000/svg">
<path d="M18.8869 7.7558C18.479 8.25312 18.0246 9.45516 17.673 10.8039C17.4811 11.5397 17.3438 12.4002 17.2063 12.9985C16.9943 13.9215 16.7953 14.4393 16.7046 14.8139C16.6627 14.9867 16.6138 15.1208 16.3768 16.3836C16.1397 17.6464 15.712 20.0327 15.4916 21.3296C15.2489 22.7579 15.2488 23.1033 15.2147 23.5566C15.1739 24.0986 15.1805 24.6041 15.1352 25.9805C15.0965 27.1538 15.0898 29.2929 15.112 30.6085C15.1414 32.3539 15.2713 32.9277 15.305 33.38C15.4143 34.8437 15.521 35.4723 15.5554 36.3595C15.582 37.0452 15.6574 37.6785 15.6693 39.5505C15.6743 40.3207 15.5674 40.7716 15.5329 42.3826C15.5255 42.729 15.4991 42.8414 15.4875 43.5635C15.4759 44.2856 15.4759 45.6139 15.4647 46.2193C15.4534 46.8248 15.4309 46.6672 15.4077 46.5048" stroke="#0012D4" stroke-linecap="round"/>
<path d="M15.6806 37.2951C15.6581 37.3176 15.6356 37.3401 15.6127 37.318C15.2399 36.9562 15.7938 35.9321 15.9187 35.3423C16.1045 34.4647 16.4529 34.0901 16.6575 33.6699C16.927 33.1165 17.3165 32.7039 17.4765 32.3955C17.7019 31.9611 18.3848 31.566 18.6813 31.304C19.0401 30.9869 19.6578 30.5659 20.1019 30.1562C20.5469 29.7458 21.3388 29.1796 21.9207 28.7464C22.499 28.3159 22.6384 28.1086 22.7745 28.0854C23.1393 28.0232 23.2517 28.5848 23.6948 28.8689C23.9826 29.0535 24.275 29.1537 24.729 29.2902C25.4267 29.4999 25.9573 29.0869 26.3103 28.9613C26.6128 28.8538 26.9124 28.6775 27.2988 28.4279C28.049 27.9432 28.1417 27.5642 28.5046 26.5433C28.7795 25.77 28.3477 24.905 27.8825 23.8595C27.6724 23.3875 27.1907 22.8133 26.7565 22.4695C26.3012 22.109 25.915 22.1734 25.2341 22.1728C24.6866 22.1722 23.7592 22.8284 23.2428 23.3311C22.813 23.7495 22.6854 24.3756 22.5146 24.9452C22.2788 25.7311 22.4794 26.7196 22.593 27.0945C22.7059 27.3773 22.798 27.6297 22.8434 27.7999C22.8662 27.8801 22.8887 27.9476 22.8437 28.0854" stroke="#0012D4" stroke-linecap="round"/>
<path d="M15.8171 19.6943C15.7939 19.536 15.9303 19.2181 16.87 17.7906C17.3762 17.0217 17.8841 16.445 18.304 16.0135C18.9898 15.3087 19.8175 14.9653 20.1252 14.7831C20.4407 14.5963 20.7726 14.4427 21.2382 14.2377C22.1522 13.8353 22.433 13.5327 22.7175 13.4184C22.8807 13.3529 23.0477 13.3273 23.15 13.3382C23.4772 13.3731 23.1166 14.1658 23.2524 14.5652C23.3773 14.9327 23.7742 15.2586 24.0591 15.5319C24.4636 15.9199 24.934 15.8958 25.4794 16.078C25.9377 16.231 26.5685 16.2833 27.525 16.023C28.0335 15.8847 28.435 15.3992 28.8798 14.8186C29.279 14.2977 29.3246 13.2625 29.2342 12.7038C29.1171 11.9799 28.3955 11.3974 27.9616 11.0314C27.6236 10.7462 27.0993 10.5992 25.8614 10.5866C25.1755 10.5796 24.5752 11.119 24.0393 11.6198C23.6149 12.0163 23.4359 12.5981 23.3216 12.9845C23.2988 13.0763 23.2762 13.1438 23.2534 13.2124C23.2305 13.2809 23.208 13.3485 23.1848 13.4181" stroke="#0012D4" stroke-linecap="round"/>
<path d="M18.7505 7.55113C18.7505 7.59615 18.5929 7.59684 18.3091 7.52896C17.8695 7.42381 17.7054 6.91668 17.3083 6.28053C16.8092 5.48078 16.7503 4.71317 16.7152 3.67759C16.6951 3.08647 16.9986 2.64201 17.5655 1.94821C18.0257 1.38501 18.9729 1.25304 20.3148 1.22917C20.9653 1.21759 21.4084 1.38812 21.8075 1.47919C22.3888 1.61186 22.796 1.93252 23.1497 2.35344C23.4567 2.71882 23.2981 3.32012 23.2988 4.82744C23.2992 5.72566 22.8451 6.25358 22.6285 6.54932C22.3339 6.95153 21.9364 7.32191 21.2658 7.70906C20.821 7.84652 19.9171 7.89223 19.3655 7.76773C19.297 7.73328 19.2294 7.71076 19.0916 7.61935" stroke="#0012D4" stroke-linecap="round"/>
<path d="M10.7688 7.07359C11.041 7.48155 11.2681 7.89087 11.5519 8.39024C12.1088 9.37014 12.6557 10.4368 12.7581 10.8465C12.9383 11.5681 13.0418 12.2529 13.1674 12.8024C13.3534 13.6166 13.4744 14.5287 13.5542 14.9858C13.6133 15.3241 13.679 15.6898 13.7135 16.0885C13.7501 16.5121 13.8155 16.9178 13.8499 17.339C13.8938 17.8754 13.9969 18.4623 14.1566 19.4289C14.2999 20.297 14.248 20.7149 14.3159 21.1935C14.3993 21.782 14.4294 22.4668 14.6904 23.2728C14.8388 23.6729 14.9752 23.9908 15.0775 24.2753C15.1116 24.3551 15.1567 24.4452 15.2031 24.7426" stroke="#0012D4" stroke-linecap="round"/>
<path d="M10.6323 6.93715C9.97398 7.02788 9.47529 7.20866 9.06495 7.35738C8.14054 7.69242 6.8611 7.30281 6.40436 7.06336C5.71211 6.70043 5.60858 5.58093 5.45917 4.71215C5.1966 3.18526 5.62904 2.8453 5.81051 2.49295C6.06678 1.99534 6.64962 1.50546 7.02687 1.19608C7.36643 0.917619 7.7425 0.707285 8.06143 0.593017C8.83128 0.317189 10.3772 0.704557 11.2323 1.10296C11.6604 1.30239 11.8371 1.75105 11.9848 2.05804C12.1824 2.4688 12.1332 3.67486 12.0765 4.54774C12.0357 5.17668 11.6106 5.84426 11.4291 6.12874C11.1105 6.43641 10.9059 6.57285 10.7698 6.65233C10.7012 6.68678 10.6337 6.70929 10.4959 6.80071" stroke="#0012D4" stroke-linecap="round"/>
<path d="M7.28952 14.5778C7.56035 14.5778 8.19685 14.6228 8.8446 14.8722C9.48521 15.1188 9.83413 15.5083 10.1991 15.8047C10.4889 16.0401 10.6992 16.4634 10.9724 16.941C11.2078 17.3525 11.5178 17.6914 12.1986 18.803C12.5502 19.3771 12.814 19.6698 13.0647 20.0228C13.3059 20.3625 13.5644 20.8977 13.8264 21.2054C14.0746 21.4969 14.2016 21.8528 14.3725 22.2737C14.5458 22.7006 14.6341 23.2172 14.7252 23.5702C14.7705 23.7179 14.8162 23.8551 14.8504 24.07C14.862 24.2173 14.862 24.4424 14.862 24.5379" stroke="#0012D4" stroke-linecap="round"/>
<path d="M7.22131 14.7142C7.08555 14.8043 6.7233 15.5725 6.06395 16.3949C5.82063 16.6983 5.40392 16.6694 4.48466 16.6814C4.03525 16.6872 3.58517 16.5794 3.01656 16.4429C2.52482 16.325 2.06114 16.1482 1.71935 15.875C1.45239 15.6616 1.37757 15.3296 1.2865 15.0564C1.19293 14.7757 0.901394 14.4209 0.729479 14.1013C0.543654 13.7558 0.490709 13.1029 0.501283 12.0915C0.507336 11.5126 0.988716 11.2364 1.47717 10.8953C2.1139 10.4506 3.05306 10.5528 3.70626 10.4962C4.26199 10.448 4.89773 10.6879 5.31012 10.882C5.60922 11.0227 5.92376 11.2569 6.14036 11.5181C6.41231 11.8462 6.60596 12.2338 6.8113 12.5868C6.98543 12.8862 7.1067 13.212 7.22097 13.5419C7.26633 13.6896 7.31204 13.8267 7.34615 13.9966C7.35775 14.0989 7.35775 14.234 7.35775 14.3731" stroke="#0012D4" stroke-linecap="round"/>
<path d="M8.17638 27.6761C7.81413 28.0608 7.26905 28.6066 6.89282 29.1295C6.60413 29.5308 6.17753 29.926 5.79004 30.0522C5.39955 30.1794 4.92637 29.7923 4.6187 29.6323C4.16757 29.3977 3.63019 29.2001 3.05066 28.9054C2.6118 28.6822 2.49228 28.1782 2.29888 27.8139C2.10328 27.4455 1.83327 27.1999 1.68455 26.9267C1.37583 26.3595 1.78415 24.9746 2.06966 24.5165C2.34652 24.0722 2.71741 23.9253 2.99063 23.7313C3.41639 23.4288 4.24008 23.1967 5.46565 23.1848C6.04004 23.1792 6.46951 23.763 6.78776 24.1269C7.36585 24.788 7.53921 25.287 7.64154 25.6506C7.81399 26.2634 7.94853 26.8561 8.0396 27.1859C8.08072 27.3349 8.10816 27.4933 8.15319 27.6297C8.298 28.0685 9.3334 27.9026 9.77785 28.1185C10.3995 28.4205 10.8124 28.7662 11.2221 29.1073C11.5569 29.3861 11.7006 29.6981 11.905 30.1757C12.075 30.573 12.3583 31.1294 12.7686 31.552C13.0478 31.8395 13.4948 32.6057 13.8601 33.1207C14.3182 33.7665 14.6791 34.2239 15.1556 35.0179C15.4302 35.4525 15.4985 35.6572 15.5438 35.7933C15.5667 35.8618 15.5892 35.9294 15.4759 35.9989" stroke="#0012D4" stroke-linecap="round"/>
</svg>
