<svg width="28" height="49" viewBox="0 0 28 49" fill="none" xmlns="http://www.w3.org/2000/svg">
<path d="M14.2581 10.0046C13.4468 9.74263 12.1675 9.91554 11.5531 10.2793C10.6388 10.8206 10.6497 11.4002 10.5178 12.0246C10.2548 13.27 11.2854 14.3956 11.898 14.9663C12.1516 15.2025 12.5098 15.2732 12.8871 15.3025C13.7421 15.3688 14.7751 14.5213 15.334 13.9222C16.1286 13.0706 15.5978 11.87 15.4668 11.4905C15.3242 11.0774 14.9585 10.7626 14.6957 10.4426C14.4337 10.1216 14.2005 9.91816 14.0555 9.78717C13.9682 9.74263 13.8529 9.74263 13.7342 9.74263" stroke="#0012D4" stroke-linecap="round"/>
<path d="M13.9962 9.74263C13.9962 9.5112 14.2267 8.64227 15.2869 7.11399C16.2975 5.65721 17.4876 5.11588 18.4317 4.49059C18.9507 4.14677 19.4945 3.89325 20.0202 3.70287C20.6646 3.46951 21.5904 3.2802 22.0436 3.20771C22.5199 3.13155 23.6811 3.10553 24.4015 3.20684C25.0138 3.29293 25.7822 3.97534 26.2647 4.63163C26.5318 4.99493 26.9472 6.23894 27.0813 7.97638C27.1269 8.568 26.2853 9.2431 24.8447 10.3212C24.235 10.7775 23.4331 11.3111 22.6733 11.7211C22.154 12.0013 20.9616 12.3887 19.7634 12.6822C19.2488 12.8082 17.7356 12.7992 16.7776 12.7123C16.3196 12.6707 16.0056 12.5957 15.9323 12.5376C15.8218 12.4502 17.2745 12.4499 19.1644 12.5219C21.0984 12.5956 21.6201 13.4087 22.3043 13.9323C22.9725 14.4435 23.4243 15.0942 23.8487 16.0418C24.0812 16.5608 24.3867 17.0749 24.7657 18.3106C25.02 19.1398 24.9124 20.1559 24.7242 20.8322C24.5887 21.3192 23.4645 21.8483 22.1803 22.2156C21.3328 22.4579 20.5494 22.2029 20.0818 21.9553C19.4752 21.6342 18.8604 21.0694 18.4225 20.4576C17.806 19.5965 16.796 18.28 16.1812 17.4443C15.7717 16.8876 15.3655 16.4112 15.2048 16.0317C15.0344 15.6293 14.8118 15.2462 14.6228 14.882C14.5715 14.7832 14.5498 14.6646 14.5782 14.8069C14.8414 16.1267 15.2467 17.0469 15.5236 18.6852C15.954 21.2324 15.3358 21.9654 15.1467 22.4042C14.9793 22.7928 14.1481 23.5932 13.2281 24.2665C12.3118 24.9371 11.0654 24.8507 10.1121 24.7639C9.68181 24.7246 9.10916 24.5032 7.98915 23.6028C7.18919 22.9597 6.9818 22.0597 6.74863 21.1715C6.55493 20.4338 6.80364 19.1516 7.11061 18.5211C7.39944 17.9278 7.85161 17.4888 8.21665 17.0797C8.54058 16.7166 8.81399 16.2941 9.10436 15.9444C9.43359 15.5478 10.0628 15.0733 10.5016 14.7357C10.766 14.5324 9.02009 15.7667 8.51139 16.0872C7.69261 16.603 7.15821 16.757 6.32944 16.8889C5.16333 17.0744 4.22042 16.7011 3.50475 16.4535C2.50308 16.107 1.9184 15.8854 1.46559 15.5226C1.11431 15.2411 0.898379 14.3764 0.59185 12.8638C0.290203 11.3753 0.77961 10.7644 1.35992 9.76097C1.68828 9.1932 2.4057 8.90077 2.91833 8.62262C3.11992 8.51324 4.37849 8.52 6.15347 8.56323C7.21255 8.58903 7.64725 9.04224 8.0564 9.23262C8.44468 9.4133 8.81224 9.82821 9.46722 10.2505C9.88409 10.5192 10.2392 10.8185 10.4593 11.0521C11.0638 11.6939 8.70046 9.8614 8.23411 9.55443C7.7881 9.26085 7.33287 8.84313 6.99621 8.41958C6.59214 7.91122 6.39843 7.18385 6.32595 6.42845C6.15323 4.62845 6.22377 3.29067 6.42638 2.26367C6.56286 1.57187 7.32763 1.12838 7.72149 0.893898C8.17021 0.626754 8.69522 0.515322 10.8584 0.500039C11.71 0.494022 12.4487 1.18078 13.0194 1.54713C13.507 1.86015 13.9944 2.37545 14.1848 2.7549C14.3632 3.11046 14.5481 3.51075 14.6219 4.10765C14.6753 4.53954 14.7821 6.09048 14.6952 7.07731C14.5787 7.70347 14.4625 8.22658 14.2734 8.67851C14.2293 8.78112 14.2005 8.86758 14.1708 9.04399" stroke="#0012D4" stroke-linecap="round"/>
<path d="M13.6468 24.0648C13.618 24.1224 13.5892 24.1801 13.5744 25.1608C13.5595 26.1415 13.5595 28.0435 13.5019 29.3116C13.3826 31.9363 13.1526 32.562 13.1085 33.1738C13.031 34.248 13.0932 35.4736 13.1373 36.3168C13.148 36.5226 13.1805 36.6665 13.1953 38.3114C13.2102 39.9562 13.2102 43.0975 13.2246 44.759C13.239 46.4204 13.2678 46.5069 13.2827 46.7532C13.2975 46.9994 13.2975 47.4029 13.3849 47.6439" stroke="#0012D4" stroke-linecap="round"/>
<path d="M13.2975 36.815C13.2399 36.815 13.2102 36.4403 13.4263 35.4404C13.7696 33.8522 14.6066 32.9445 14.8241 32.6113C15.1603 32.0962 15.6519 31.3752 16.2336 30.7643C17.0293 29.9286 18.2998 28.8714 19.1155 28.361C20.7209 27.3563 21.0682 27.1807 21.6493 26.8899C22.5395 26.4445 22.9597 26.1904 23.6435 25.8564C23.8031 25.7784 23.9204 25.7537 24.023 25.7821C24.1256 25.8105 24.212 25.897 24.271 26.028C24.7315 27.0514 24.2155 29.3535 23.9671 30.1761C23.8967 30.4092 23.2593 31.363 22.2847 32.6869C21.6173 33.5934 20.8708 34.3069 20.2857 34.7907C19.7572 35.2277 18.7749 35.7932 18.1614 36.1294C17.1755 36.6697 16.8798 36.9303 16.53 37.0909C16.1686 37.257 15.7742 37.3966 15.2502 37.4988C14.845 37.5136 14.521 37.5424 14.2027 37.5861C13.9708 37.601 13.5962 37.601 13.2102 37.601" stroke="#0012D4" stroke-linecap="round"/>
<path d="M12.9482 33.8458C12.6591 33.8746 12.0766 33.9907 10.12 33.9195C8.54126 33.8621 7.50666 33.265 7.05691 32.9746C6.12166 32.3708 5.6439 31.9262 5.00421 31.0852C3.77979 29.4755 3.92525 28.8697 3.76456 28.5199C3.68042 28.3368 3.57505 28.1125 3.50257 27.851C3.4691 27.7302 3.40127 27.6471 3.54449 27.6602C4.92503 27.7864 6.1347 27.9649 6.71632 28.0671C7.26333 28.1632 7.85161 28.1693 8.73801 28.43C9.6041 28.6847 10.0925 29.1858 10.8497 29.9421C11.2687 30.3606 11.5195 30.9604 11.812 31.5442C12.0166 31.9523 12.1902 32.3594 12.4089 32.7816C12.4819 32.9707 12.5692 33.1462 12.6853 33.3205C12.7438 33.4082 12.8015 33.4947 12.8609 33.5838" stroke="#0012D4" stroke-linecap="round"/>
</svg>
