<svg width="30" height="48" viewBox="0 0 30 48" fill="none" xmlns="http://www.w3.org/2000/svg">
<path d="M10.1906 9.40243C9.93975 9.04493 9.86761 7.26389 10.0819 5.70898C10.1723 5.05269 10.6903 4.31129 11.2475 3.48268C11.7428 2.74622 12.6975 1.97677 13.5977 1.27469C14.1646 0.832523 14.7111 0.538152 15.9645 0.500464C16.6831 0.478856 17.5775 1.21439 18.6226 2.16629C19.2918 2.77582 19.6622 4.00978 20.2211 5.0026C20.753 5.94747 21.0298 6.95808 21.1197 8.16034C21.1526 8.59978 22.5309 7.36081 23.4682 7.01623C24.372 6.68399 26.2566 6.71041 27.328 6.83532C27.6218 6.86958 27.9203 7.06899 28.225 7.17613C28.946 7.42963 28.2832 9.39597 28.0484 10.2434C27.8831 10.8403 27.4928 11.4441 26.9555 12.4493C26.3068 13.6628 25.7699 14.317 25.2859 14.9458C24.8665 15.4907 23.836 16.182 22.8641 16.8125C22.2747 17.1949 21.8223 17.5496 21.3022 17.8715C19.7789 18.8146 18.1612 19.8109 17.6405 20.0618C17.1481 20.2991 16.5115 20.528 15.7211 20.78C15.1344 20.967 13.4706 20.9243 12.418 20.8349C11.8068 20.783 11.093 20.6378 10.3549 20.5657C9.49527 20.4817 8.93724 20.3148 8.36223 20.0817C7.8298 19.8658 7.32203 19.5266 6.85416 19.1847C6.39144 18.8466 5.92218 18.4498 5.34717 18.0185C4.77645 17.5905 4.37804 16.9078 3.84017 16.2073C2.98057 15.0879 2.29765 14.6099 1.86477 14.0709C1.25896 13.3167 1.07439 12.7427 0.912873 12.2043C0.725024 11.5781 0.60706 10.6645 0.517685 9.71202C0.482583 9.33794 0.499379 8.73266 0.570449 8.38593C0.641518 8.03919 0.783656 7.96813 0.927949 7.91375C2.20307 7.4332 4.80015 7.92936 5.87965 8.30624C6.94662 8.67875 7.81952 9.00617 8.25078 9.18653C8.78864 9.36582 9.43473 9.58118 9.86599 9.72494C9.97421 9.76101 10.0808 9.79654 10.2983 9.83316" stroke="#0012D4" stroke-linecap="round"/>
<path d="M15.3593 5.41824C15.3593 5.77359 15.3593 6.09879 15.3238 6.45629C15.2172 6.95592 15.1084 7.56863 15.0546 8.76388C15.0363 9.63933 15.0363 11.0607 15.0363 12.5252" stroke="#0012D4" stroke-linecap="round"/>
<path d="M6.74487 12.5252C6.77933 12.4897 7.35219 12.4175 7.89113 12.3281C8.91811 12.1578 10.0787 12.5963 10.8879 12.9365C11.5185 13.2017 12.2689 13.7786 13.0237 14.5146C13.4728 14.9525 13.8496 15.5015 14.1738 15.9694C14.4582 16.3799 14.64 16.8303 14.8204 17.2615C14.9958 17.6809 15.0718 18.0158 15.1434 18.1063C15.422 18.4581 15.6092 17.1942 15.9144 16.4405C16.2139 15.7009 16.8992 15.0406 17.332 14.5372C17.8958 13.8816 19.0485 13.0334 19.7904 12.6156C20.3165 12.3194 21.3464 12.0966 22.3548 11.8441C22.6418 11.7725 23.0327 11.6659 23.3229 11.611C23.6131 11.5561 23.7907 11.5561 23.8661 11.4484" stroke="#0012D4" stroke-linecap="round"/>
<path d="M14.9286 20.9243C14.9286 21.2796 14.9286 21.9246 14.9108 22.7667C14.8968 23.4331 14.8209 25.2164 14.8565 27.5666C14.879 29.0549 15.3227 29.9652 15.4487 30.5951C15.6287 31.4952 15.5747 32.5818 15.7534 34.8733C15.8451 36.0483 15.7901 38.0412 15.7723 39.1374C15.7522 40.3767 15.6824 41.0907 15.6646 42.0055C15.5747 43.7408 15.6458 46.3348 15.6646 46.9992C15.6468 47.0563 15.6113 46.9141 15.5747 46.7677" stroke="#0012D4" stroke-linecap="round"/>
<path d="M15.6824 35.9996C15.5392 35.893 15.3959 35.3212 15.145 34.7273C14.9445 34.2526 14.5367 33.706 13.89 32.844C13.4771 32.2936 12.7793 31.8388 12.2382 31.4958C11.609 31.097 10.5525 30.7598 9.81646 30.7055C9.21853 30.6613 8.5776 30.5445 7.66393 30.4901C7.24828 30.4654 6.28615 30.4002 5.10166 30.4713C4.69345 30.4957 4.69894 30.6845 4.73447 30.8643C4.88867 31.6446 5.76928 32.5473 6.56289 33.2516C7.29584 33.902 7.92505 34.4167 8.91302 34.9928C9.42888 35.2936 9.93653 35.4956 11.0478 35.8548C12.1946 35.9996 13.6343 36.0707 14.7805 36.125C15.0352 36.1428 15.1418 36.1783 15.2517 36.1073" stroke="#0012D4" stroke-linecap="round"/>
<path d="M15.8977 34.8151C15.6824 34.029 15.7534 32.8811 15.8789 31.9303C16.108 30.1939 16.6149 29.7563 17.1334 28.6466C17.7882 27.2451 18.4088 26.8489 19 26.3282C19.5801 25.8173 20.3449 25.3069 20.9205 24.8562C21.7053 24.2417 22.2487 24.0836 22.7333 23.7972C23.4421 23.3782 23.935 23.1511 24.4207 22.953C24.9638 22.7314 25.3715 22.4684 25.8205 22.3247C25.9453 22.2847 26.0886 22.2531 26.2507 22.2347C26.4128 22.2164 26.5904 22.2164 26.6642 22.5007C27.0702 24.0655 26.5581 24.762 26.3794 25.6052C26.215 26.3804 25.7699 27.1676 25.2681 28.099C24.7708 29.0222 24.1568 29.9996 23.3126 30.9714C22.8188 31.5399 21.9688 32.2631 21.2306 32.8031C20.3891 33.4187 19.8841 33.7017 19.4528 33.9526C19.0048 34.2132 18.5208 34.4554 18.0352 34.5992C17.5168 34.7526 17.0844 34.8862 16.6531 35.0299C16.5449 35.066 16.4383 35.1015 16.3301 35.1376C16.2218 35.1737 16.1152 35.2092 16.0054 35.2458" stroke="#0012D4" stroke-linecap="round"/>
</svg>
