<svg width="21" height="38" viewBox="0 0 21 38" fill="none" xmlns="http://www.w3.org/2000/svg">
<path d="M15.8758 4.46501C15.6765 4.44294 14.922 4.39812 14.35 4.45364C13.9817 4.4894 13.5814 4.53191 13.146 4.58743C12.8007 4.63145 12.4884 4.66569 12.0536 4.74328C11.1746 4.90015 9.99203 5.40016 9.57864 5.5791C8.78251 5.9237 8.18595 6.42494 7.60567 6.86041C7.18056 7.17942 6.75982 7.69455 6.32302 8.07583C5.67532 8.64121 5.33101 9.19025 4.55172 10.2137C4.32511 10.5113 4.21526 10.7294 3.98214 11.0622C3.60838 11.5958 3.16907 12.597 2.72357 13.7105C2.42401 14.4591 2.23125 15.252 2.0085 16.0319C1.77741 16.8411 1.53959 17.7738 1.39477 18.6842C1.12346 20.3897 0.892074 21.6549 0.869999 21.9438C0.814974 22.6642 0.669993 23.5907 0.613469 24.7516C0.597044 25.089 0.557615 25.356 0.546577 25.6784C0.534737 26.0243 0.490723 27.0878 0.50176 28.525C0.509972 29.5943 0.601763 30.2143 0.646581 31.4288C0.682698 32.4074 0.802439 33.1134 0.836219 33.5506C0.882887 34.1545 1.20379 35.1215 1.28205 35.6122C1.33757 36.2379 1.55965 36.9463 1.63892 37.4754C1.64996 37.4881 1.67203 37.3998 1.69477 37.3089" stroke="#0012D4" stroke-linecap="round"/>
<path d="M0.624517 25.2015C0.5797 25.0911 0.624517 24.7346 0.978375 23.9248C1.57731 22.5543 2.31822 21.6796 2.49615 21.4682C2.83704 21.0633 3.16507 20.7652 3.38849 20.52C3.66568 20.2159 4.01192 19.9852 4.4243 19.7398C5.08729 19.3451 5.61598 19.1157 5.99693 18.9253C6.39755 18.7252 6.86552 18.5578 7.22306 18.3792C7.7468 18.1176 8.18195 18.0226 8.50537 17.8996C8.84566 17.7701 9.22948 17.5544 9.53116 17.4313C9.70129 17.3619 9.87699 17.2862 10.0439 17.2417C10.1229 17.2206 10.1887 17.1972 10.2228 17.3072C10.4276 17.9677 10.19 18.3103 10.0459 19.0886C9.96569 19.5216 9.72314 20.3124 9.48935 21.2816C9.28473 22.13 8.78799 23.0328 8.0087 24.1155C6.87679 25.688 6.17787 26.0028 5.69926 26.3704C5.1345 26.8041 4.86278 27.029 4.57214 27.2076C4.30778 27.37 3.99319 27.4972 3.56943 27.7203C3.19985 27.9148 2.90018 27.9654 2.62124 28.044C2.26009 28.1458 1.98643 28.3226 1.68475 28.4119C1.34227 28.5133 1.09343 28.5461 0.993091 28.5129C0.770786 28.4396 1.33491 27.6149 1.75967 26.8326C2.18707 26.0455 2.76305 25.4042 3.11925 25.0148C3.38715 24.6476 3.65538 24.3111 3.94469 24.0439C4.07948 23.9312 4.18985 23.865 4.37046 23.663" stroke="#0012D4" stroke-linecap="round"/>
<path d="M6.57788 7.54203C6.57788 7.36477 6.66618 6.78749 7.32138 5.3637C7.83807 4.24092 8.47092 3.35327 8.86056 2.84088C9.24993 2.32886 9.65356 2.19203 10.2984 1.71342C11.2719 0.990835 12.261 0.875596 12.7413 0.741812C13.3773 0.564637 14.2009 0.585286 14.7026 0.529765C15.8016 0.408136 16.1193 0.673583 16.7431 0.841147C17.2708 0.982912 17.9254 1.29835 18.2271 1.45421C18.5556 1.62392 18.9943 2.03149 19.8639 3.20075C20.3222 3.81692 20.4686 4.2844 20.4583 5.13025C20.448 5.96325 20.0686 6.24701 19.8124 6.57076C19.4723 7.00053 19.0679 7.56076 18.6308 8.05342C18.3008 8.42531 17.7729 8.78889 17.2602 9.19058C16.8838 9.48543 15.5521 9.83642 14.1962 9.96117C13.3165 10.0421 12.5553 9.97288 12.1761 9.9391C11.662 9.89331 10.9968 9.79495 10.5924 9.69394C10.3059 9.62239 9.9907 9.54878 9.3676 9.37119C8.85668 9.22556 8.45219 9.05914 8.15118 8.92502C7.91572 8.82011 7.69364 8.65779 7.54882 8.49089C7.47022 8.34607 7.44747 8.21162 7.41436 8.07817C7.38125 8.01094 7.31503 7.94472 7.2468 7.74271" stroke="#0012D4" stroke-linecap="round"/>
</svg>
