<svg width="31" height="44" viewBox="0 0 31 44" fill="none" xmlns="http://www.w3.org/2000/svg">
<path d="M25.1331 7.22383C25.7549 6.5063 26.0992 5.99316 26.1235 5.71593C26.1351 5.58272 26.0999 5.46262 26.0039 5.35318C25.5352 4.81903 24.056 4.64073 23.2019 4.5302C22.7903 4.47694 22.2122 4.56535 21.8607 4.78278C21.2582 5.15549 20.8583 6.1816 20.7242 6.83462C20.5296 7.78279 21.1207 8.76615 21.6759 9.54021C22.3253 10.4457 23.6299 10.7013 24.8747 10.7513C25.4459 10.7743 26.0956 10.4868 26.8308 10.1856C27.5146 9.90558 28.0061 9.47281 28.5232 8.39325C28.9222 7.56024 29.3034 6.02215 29.5375 5.06653C29.8552 3.76981 29.7477 3.19118 29.6277 2.78168C29.4794 2.27517 28.9048 1.81483 28.4101 1.38033C28.1038 1.11127 27.4574 0.895814 26.6007 0.630184C26.0666 0.464556 25.3795 0.483417 24.4155 0.543211C22.7 0.649625 21.9716 1.32706 21.1504 1.95399C20.4887 2.45915 19.8937 3.28177 19.291 4.12505C18.6807 4.97909 18.3694 5.74746 18.1886 6.27763C17.878 7.1882 17.7172 7.82394 17.2834 9.04193C16.6467 10.8297 16.7257 11.4014 16.6053 12.041C16.473 12.7445 16.4357 13.6236 16.3756 14.1788C16.2427 15.405 16.2908 15.9922 16.2549 16.5205C16.2287 16.9062 16.1473 17.5272 16.0984 20.2393C16.0494 22.9515 16.0255 27.735 15.9893 30.3308C15.953 32.9265 15.9052 33.1896 15.8686 33.5763C15.7846 34.4633 15.7356 35.1741 15.6273 35.9543C15.5458 36.5406 15.495 37.5238 15.3384 38.6867C15.1819 39.8496 14.9427 41.1651 14.8195 41.8906C14.6963 42.6161 14.6963 42.7117 14.6843 42.6534C14.6724 42.595 14.6485 42.3798 14.6238 42.158" stroke="#0012D4" stroke-linecap="round"/>
<path d="M15.8559 30.779C15.7841 30.3703 15.5428 29.8383 15.013 28.8029C14.3912 27.588 13.8773 27.3262 13.4779 26.9754C12.8655 26.4375 12.3784 26.2622 11.824 26.0086C10.8908 25.5816 9.69966 25.9941 9.00967 26.4039C7.67916 27.1943 7.52243 28.6004 7.38835 29.2903C7.18758 30.3235 7.54417 30.9211 8.12254 31.8267C8.50717 32.4289 9.45033 32.6142 10.8256 32.8439C11.2351 32.9123 11.5058 32.833 11.7711 32.7247C12.2617 32.5243 12.7365 31.7024 13.0046 30.7341C13.1987 30.0335 12.909 29.6208 12.4513 28.9095C12.31 28.6899 12.2327 28.533 12.0882 28.4003C11.9548 28.278 11.75 28.2423 11.4971 28.2662C11.2124 28.2932 11.0006 28.4351 10.88 28.5435C10.831 28.604 10.8071 28.6757 10.8068 28.7725C10.8064 28.8693 10.8303 28.9888 10.9999 29.257" stroke="#0012D4" stroke-linecap="round"/>
<path d="M16.2183 25.8506C16.2183 25.2968 16.4096 24.2387 16.8804 23.1729C17.1981 22.4536 17.9541 21.8194 18.7369 21.1685C20.2332 19.9244 21.0728 19.8596 21.5073 19.7509C21.7549 19.6889 22.3021 19.6175 23.0022 19.6295C23.9148 19.645 24.7446 20.9438 25.2881 22.077C25.5181 22.5564 25.4954 23.1892 25.4595 23.8527C25.402 24.9172 24.314 25.7998 23.5903 26.3075C23.0187 26.7086 22.3571 26.7928 21.8991 26.721C21.4414 26.6493 21.22 26.2862 21.0634 26.0818C20.606 25.4846 20.6162 24.862 20.555 24.3064C20.512 23.9167 20.5423 23.4371 20.651 23.0975C20.8207 22.5675 21.5802 22.131 21.8705 21.9495C22.0033 21.8663 22.2325 21.8643 22.4858 21.9002C22.6673 22.0078 22.7891 22.1774 22.8855 22.3582C22.9341 22.4434 22.9819 22.5151 23.0312 22.8065" stroke="#0012D4" stroke-linecap="round"/>
<path d="M16.2908 13.7468C16.2669 13.5308 16.2183 12.9525 15.9545 11.9646C15.6294 10.7473 15.1079 9.88303 14.9152 9.52173C14.5176 8.77673 14.1904 8.38492 13.7204 7.95114C13.1527 7.42726 12.5495 6.7433 11.9345 6.24901C11.1147 5.59007 10.2099 5.00602 9.62393 4.56717C9.3213 4.34052 8.37333 4.01307 7.69168 3.81775C7.33601 3.71583 6.79912 3.64924 6.00187 3.61191C5.51024 3.58889 5.13069 3.79274 4.78026 3.94966C4.4098 4.11554 3.82754 4.39576 3.42747 4.57767C2.7358 4.89218 2.18375 5.5554 1.70033 6.02614C1.38676 6.33147 1.16762 6.64256 0.890752 7.3282C0.506631 8.27945 0.490676 9.5134 0.502635 10.4306C0.513157 11.2376 0.683466 11.7624 0.84038 12.2954C1.10797 13.2045 1.79382 14.3977 2.14425 14.8684C2.28754 15.0609 2.73386 15.3631 3.42094 15.7613C3.98954 16.0909 4.78642 16.0661 5.69022 16.0183C7.16002 15.9405 8.09357 15.2007 8.75167 14.7745C9.26384 14.4429 9.76635 13.7251 10.0207 12.701C10.3914 11.209 9.88956 10.4404 9.60002 9.73916C9.22353 8.82741 8.37043 8.07327 7.71669 7.59963C6.96982 7.05852 5.61774 7.56013 5.11837 7.86308C4.58881 8.18435 4.09136 8.81689 3.92176 9.21515C4.06454 9.92724 4.47622 10.4607 4.62081 10.5571C4.69365 10.6056 4.7654 10.6535 4.98428 10.7028" stroke="#0012D4" stroke-linecap="round"/>
</svg>
