<svg width="30" height="49" viewBox="0 0 30 49" fill="none" xmlns="http://www.w3.org/2000/svg">
<path d="M16.217 12.4093C16.0249 12.4811 15.6386 12.7703 15.2287 13.3599C15.0135 13.6695 14.7254 14.2343 14.2423 15.4146C13.7592 16.5949 13.1135 18.3887 12.5775 20.4489C12.0415 22.5091 11.6349 24.7813 11.4255 26.0474C11.216 27.3136 11.216 27.505 11.1921 27.747C11.1682 27.9891 11.1203 28.2761 11.1077 29.7992C11.095 31.3224 11.1189 34.0729 11.2149 36.0399C11.311 38.007 11.4784 39.1072 11.6125 39.8892C11.821 41.1056 12.0365 41.8323 12.2292 42.4825C12.6335 43.8455 12.7612 44.585 12.9428 45.1072C13.1037 45.5699 13.3642 46.7304 13.5951 47.5591C13.6317 47.6805 13.6556 47.8001 13.6799 47.778C13.7042 47.7559 13.7281 47.5885 13.7527 47.416" stroke="#0012D4" stroke-linecap="round"/>
<path d="M16.5794 12.1194C16.1967 12.1194 15.5451 11.9998 14.737 11.7589C14.1237 11.576 13.5868 11.1794 12.8406 10.5423C11.749 9.61033 11.1689 8.69052 10.8921 8.102C10.0504 6.31292 10.2985 5.7675 10.2858 5.28444C10.2671 4.57181 10.6594 4.0034 11.3458 3.31631C11.9813 2.68015 12.6859 2.48137 13.2197 2.33533C13.6041 2.23014 14.2325 2.19001 14.8732 2.30996C16.0972 2.53911 17.0331 3.84974 17.4484 4.54372C17.6104 4.81445 17.6419 5.13622 17.7383 5.47288C17.886 5.98887 17.884 7.2301 17.872 8.64305C17.8651 9.46455 17.5955 10.0393 17.4375 10.4992C17.3231 10.8321 17.136 11.1511 16.8943 11.6103C16.8333 11.7261 16.8214 11.8513 16.8211 11.865C16.8134 12.1553 17.9724 11.0845 19.3531 10.6228C19.8698 10.45 20.5613 10.4524 21.5843 10.5481C22.9429 10.6752 23.8974 11.1279 24.2953 11.3446C24.9519 11.7022 25.2027 12.118 25.5293 12.4083C25.9442 12.7771 26.0493 13.7835 26.062 15.1102C26.0675 15.6848 25.4492 16.3913 25.0484 16.8294C24.5501 17.374 23.1806 17.7234 21.971 17.7607C21.26 17.7827 20.067 17.1247 19.3473 16.687C18.231 16.008 17.5723 14.2503 17.3411 13.6915C17.0628 13.1834 16.9186 12.7978 16.8091 12.4351C16.7968 12.3144 16.7968 12.147 16.7968 11.9745" stroke="#0012D4" stroke-linecap="round"/>
<path d="M17.5941 11.0323C18.1732 10.2118 18.4623 9.77841 18.8128 9.33086C19.0217 9.064 19.4741 8.37959 20.2938 7.55915C21.2981 6.55402 22.108 6.58795 22.6776 6.40639C22.9476 6.32034 23.485 6.20164 24.2921 5.98457C25.1563 5.75212 26.3805 5.74141 27.5876 5.76533C28.2246 5.77795 28.6085 6.00595 28.9825 6.22302C29.2467 6.37641 29.3833 6.60969 29.4557 6.93475C29.6269 7.70227 29.0962 8.3477 28.781 8.73582C28.402 9.20232 27.6496 9.60301 26.8614 10.173C26.4536 10.468 25.9304 10.6452 25.4358 10.6818C24.4145 10.7574 22.911 10.6945 22.3558 10.646C21.6935 10.588 21.2208 10.4293 20.7244 10.368C20.3235 10.3186 19.9394 10.2597 19.0831 10.2231C18.8994 10.2111 18.8276 10.1872 18.7069 10.1749C18.5863 10.1625 18.4188 10.1625 18.2464 10.1625" stroke="#0012D4" stroke-linecap="round"/>
<path d="M18.3913 9.22034C18.3188 9.00436 18.271 8.52166 18.2344 6.71516C18.217 5.85918 18.0535 5.09492 17.9687 4.3908C17.8847 3.69296 17.8839 2.96843 17.9919 2.42122C18.1483 1.62903 19.4712 0.914415 20.4533 0.547679C20.7143 0.450187 21.1135 0.523036 21.3705 0.58283C21.6274 0.642624 21.747 0.762212 21.8325 0.90753C22.1608 1.46535 22.3036 2.42485 22.3895 3.09418C22.4926 3.89762 22.2587 5.10797 22.0278 5.65553C21.8663 6.03862 21.5093 6.46475 21.1588 6.93549C20.7845 7.33448 20.3257 7.79326 20.0362 8.05889C19.914 8.1571 19.8423 8.18101 19.7684 8.20566" stroke="#0012D4" stroke-linecap="round"/>
<path d="M22.2326 1.68268C22.7131 1.51453 23.4865 1.27245 24.2221 1.18765C24.8782 1.11203 25.3723 1.22317 25.5651 1.34348C25.9716 1.59717 26.0493 1.97114 26.2421 2.23749C26.4893 2.57905 27.0154 2.38281 27.148 2.50312C27.4736 2.79847 27.2582 3.34821 27.2575 3.77075C27.3785 4.38536 27.3307 5.0884 27.2223 5.23299C27.1618 5.30583 27.0901 5.37758 26.9436 5.52399" stroke="#0012D4" stroke-linecap="round"/>
<path d="M11.216 35.1673C11.2631 35.1673 12.5105 34.7368 13.5197 34.1791C15.0149 33.3528 15.298 32.9219 15.6473 32.5121C16.043 32.0087 16.5765 31.2579 17.0353 30.5577C17.207 30.2881 17.2549 30.1924 17.3041 30.0214" stroke="#0012D4" stroke-linecap="round"/>
<path d="M13.2454 34.2251C13.2454 34.1773 13.2454 33.4829 13.2932 32.2291C13.3341 31.1577 13.7027 30.0279 14.0521 28.8581C14.3326 27.9186 14.7421 27.4376 14.9472 27.2085C15.1104 27.0263 15.7995 26.2352 16.862 25.1966C17.6038 24.4715 18.8189 23.8159 19.8245 23.2832C21.5288 22.3803 22.3283 22.3388 22.4972 22.3866C22.6778 22.4378 22.7631 22.9396 22.9081 23.7216C23.1075 24.7974 22.8856 25.8619 22.741 26.5378C22.6542 26.9434 22.2594 27.6956 21.8249 28.7338C21.4599 29.6059 21.0266 30.2127 20.4471 30.9727C19.8806 31.7157 19.0233 32.6509 18.5623 33.1361C17.8388 33.8978 17.1157 34.2222 16.5569 34.4422C16.0975 34.623 15.64 34.5875 15.0359 34.6476C14.508 34.66 14.0919 34.636 13.9111 34.5878C13.8259 34.5636 13.7542 34.5396 13.5353 34.4425" stroke="#0012D4" stroke-linecap="round"/>
<path d="M10.9261 35.9646C10.7819 35.9167 10.4927 35.7718 10.1184 35.471C9.48816 34.9646 9.40554 34.2512 8.65794 33.0339C8.17674 32.2504 7.49793 31.0636 7.23049 30.5545C7.03931 30.1905 6.22233 28.7052 5.63635 27.8362C5.49176 27.6557 5.36999 27.4854 5.2736 27.3408C5.22504 27.268 5.1772 27.1962 5.2004 27.0498" stroke="#0012D4" stroke-linecap="round"/>
<path d="M8.82427 32.7755C8.91994 32.2015 9.01706 31.571 9.08954 30.5255C9.21313 28.7427 9.06635 27.4622 8.96995 27.1488C8.76127 26.4701 8.51117 25.651 8.35389 25.1556C8.09209 24.331 7.61969 23.7202 7.21926 23.1262C6.65355 22.2872 6.12086 22.075 5.08407 21.5919C4.07066 21.1197 3.63198 20.7457 2.49916 20.1308C1.81782 19.7609 1.43446 19.1063 1.21449 18.6435C1.18153 18.5742 1.16629 18.4989 1.13006 18.4978C1.02028 18.4945 0.948862 18.762 0.81659 19.2422C0.556326 20.187 0.489354 21.2951 0.501313 22.0916C0.512296 22.8232 0.657502 23.4941 0.77854 24.4236C0.833651 24.8468 0.993798 25.5379 1.27102 26.4693C1.54825 27.4006 1.95485 28.5487 2.30782 29.3314C3.09602 31.0794 3.60444 31.2042 3.95487 31.5181C4.26859 31.799 5.00181 32.2175 5.48922 32.473C5.78147 32.6261 6.06868 32.8234 6.43106 32.9803C6.62385 33.0408 6.91376 33.1133 7.25151 33.1977C7.39791 33.2343 7.49358 33.2582 7.80959 33.2829" stroke="#0012D4" stroke-linecap="round"/>
</svg>
