<svg width="33" height="47" viewBox="0 0 33 47" fill="none" xmlns="http://www.w3.org/2000/svg">
<path d="M1.72291 12.3712C1.5385 12.3712 1.99674 12.2175 3.54193 11.8617C4.52843 11.6346 5.94772 11.4137 7.52131 11.2717C9.0949 11.1297 10.7854 11.0989 11.7484 11.1138C12.8983 11.1316 13.2703 11.2843 13.6266 11.3616C13.9618 11.4343 14.7559 11.9018 16.0259 12.7833C17.4009 13.7379 17.9282 14.7602 18.2216 15.1929C18.6975 15.8946 19.262 16.6519 19.7263 17.6257C20.0079 18.2162 20.2521 19.0605 20.5329 20.1949C20.8137 21.3293 21.0903 22.7432 21.2636 23.5638C21.4368 24.3843 21.4983 24.5687 21.6682 25.3707C22.1369 27.5819 22.3999 29.2276 22.4306 29.676C22.4722 30.2838 22.5861 30.8724 22.6783 31.9519C22.8711 34.2081 23.145 35.8712 23.1603 36.3048C23.1758 36.7405 23.2381 37.1751 23.2688 37.7624C23.3159 38.6605 23.4244 40.1174 23.4398 41.6067C23.4475 42.3597 23.5175 43.8085 23.5329 45.764C23.5483 46.4593 23.579 46.5515 23.6256 46.4453C23.6721 46.3391 23.7336 46.0318 23.7969 45.7151" stroke="#0012D4" stroke-linecap="round"/>
<path d="M23.3312 36.2149C23.5473 35.752 23.9814 35.0059 24.3232 34.4634C24.9458 33.4752 25.5647 32.8339 26.4016 31.6557C26.9003 30.8761 27.2114 30.5343 27.3199 30.3485C27.367 30.2549 27.3977 30.1627 27.4294 30.0677" stroke="#0012D4" stroke-linecap="round"/>
<path d="M23.3312 35.5629C23.3312 35.5014 23.3312 34.9165 23.4849 33.4789C23.7117 31.3575 24.2934 29.9457 24.3707 29.5582C24.4844 28.9883 24.9425 28.0261 25.6881 26.6569C25.9032 26.2619 26.4933 25.7255 27.5914 24.8123C29.8793 22.9096 30.5942 22.6799 30.998 22.277C31.1387 22.1366 31.276 21.9068 31.3706 21.7499C31.4651 21.5929 31.4958 21.5007 31.5117 21.945C31.5625 23.372 31.6197 24.9087 31.7594 25.7926C31.9614 27.0704 31.9932 29.2499 31.8852 30.2516C31.8119 30.9307 31.1289 32.1391 30.6287 33.1073C30.1456 34.0424 29.5436 34.6576 28.8917 35.3273C27.7786 36.4705 27.0903 36.7719 26.6395 36.9903C26.0386 37.2814 25.5386 37.394 24.964 37.503C24.7321 37.5188 24.3632 37.5188 24.1271 37.5035C23.891 37.4881 23.7988 37.4574 23.7038 37.2394" stroke="#0012D4" stroke-linecap="round"/>
<path d="M23.1449 36.6806C22.4008 35.0674 22.0291 34.5104 20.8984 33.5329C20.331 33.0424 19.8869 32.5526 18.8186 31.8094C17.9941 31.2357 17.5585 31.0941 17.0928 30.7211C16.5683 30.301 15.9751 30.0993 15.5094 29.8823C15.0426 29.6648 14.6711 29.479 14.2366 29.3077C13.518 29.0242 12.8102 28.9202 11.1365 28.8722C10.286 28.8479 9.55219 29.289 8.44802 30.0491C7.79583 30.498 7.90176 31.2133 7.90083 32.1135C7.90026 32.6581 8.73629 33.0761 9.17265 33.3271C9.34242 33.4248 9.66861 33.4207 10.0407 33.4053C10.2939 33.3949 10.4771 33.2046 10.5707 33.1105C10.9521 32.7272 10.2302 33.9777 10.3062 34.8755C10.3696 35.6255 11.1579 36.1199 11.6697 36.4147C12.1991 36.7196 12.9276 36.6806 13.5958 36.5725C13.8497 36.5315 14.0778 36.2782 14.3722 35.9536C15.1765 35.0665 14.8854 33.6424 15.1955 33.0193C15.5679 32.2711 16.1576 32.2416 16.5307 32.0399C16.9037 31.8997 17.5212 31.7759 18.1904 31.6669C18.392 31.651 18.6687 31.651 18.9537 31.651" stroke="#0012D4" stroke-linecap="round"/>
<path d="M16.8115 13.3026C16.5637 12.931 16.316 12.3749 16.2219 11.6452C16.0478 10.2946 16.0049 9.73536 15.9579 8.94368C15.9347 8.55417 15.8801 7.19824 15.9108 5.33639C15.9307 4.13519 16.2508 3.58816 16.4846 3.13644C16.7874 2.55119 17.4299 2.1594 18.5914 1.41476C19.8486 0.60867 20.7829 0.728784 21.8666 0.574172C23.4991 0.341259 24.2589 0.697116 25.2061 1.08411C26.0403 1.42493 26.4346 2.55804 26.6526 3.31806C26.7598 3.69175 26.6535 3.98773 26.5762 4.17354C26.4937 4.37199 26.2819 4.5773 26.0034 4.79432C25.1555 5.45508 23.7057 4.95172 23.1627 4.81201C23.0192 4.7751 22.8991 4.70397 22.8972 4.68767C22.8834 4.56652 23.2679 4.85672 23.4849 5.11984C23.6965 5.37634 23.7345 5.69498 23.7811 5.95809C23.8324 6.24787 23.7047 6.62544 23.4574 7.059C22.9775 7.90054 22.4017 7.93032 21.5965 8.14827C20.515 8.441 19.9186 7.93218 19.3593 7.71517C18.8918 7.53378 18.3669 7.15726 17.9459 6.86155C17.5667 6.59517 17.3405 6.13273 17.1538 5.69777C16.9996 5.54223 16.8124 5.38668 16.6266 5.21624C16.533 5.138 16.4408 5.07653 16.3458 5.0132" stroke="#0012D4" stroke-linecap="round"/>
<path d="M2.56117 12.0918C1.97253 12.1225 1.23114 12.4308 0.730515 12.8355C0.371494 13.1257 0.512103 14.4426 0.620145 15.1794C0.695919 15.6961 1.19202 16.4637 1.62838 17.1348C1.81791 17.4263 2.15508 17.8329 2.63522 18.2669C3.43037 18.9857 4.54504 18.6432 5.04287 18.4574C5.85849 18.153 6.25321 17.5274 6.56523 17.1073C6.72201 16.8963 6.75244 16.5951 6.75244 16.4544C6.75244 15.9738 6.90705 17.4287 7.06213 17.927C7.20797 18.3956 8.20728 18.3936 9.18617 18.4099C9.74937 18.4193 10.1651 17.9614 10.7709 17.3565C11.1015 17.0264 11.1598 16.3184 11.1924 14.9996C11.2133 14.153 10.6978 13.5541 10.1385 12.9785C9.78904 12.6188 9.36221 12.3731 8.97382 12.17C8.52302 11.9372 8.21287 11.7816 7.98048 11.7043C7.87105 11.6578 7.77884 11.5963 7.49756 11.5329" stroke="#0012D4" stroke-linecap="round"/>
</svg>
