<svg width="32" height="49" viewBox="0 0 32 49" fill="none" xmlns="http://www.w3.org/2000/svg">
<path d="M14.66 10.6688C14.4448 10.5757 13.7621 10.6371 13.3421 10.8695C12.8596 11.1364 12.7357 11.5983 12.6268 12.0021C12.4885 12.5144 12.3948 12.9638 11.5277 13.9096C11.2653 14.1958 11.1524 14.4549 11.0592 14.8875C10.9163 15.5516 11.1198 16.1622 11.3056 16.4723C11.5992 16.9624 12.2048 17.373 12.6868 17.7926C13.0175 18.0805 13.5088 18.1814 13.9908 18.2285C14.4758 18.2758 15.0922 18.2448 15.5122 18.0277C15.9696 17.7914 16.2732 17.4698 16.6918 17.1895C17.1307 16.8956 17.8547 16.8477 18.8629 16.2753C19.3039 16.025 19.4408 15.6993 19.5181 15.452C19.7913 14.5782 19.5666 13.7443 19.3179 13.2786C19.054 12.7843 19.0692 12.254 18.8215 11.7883C18.5315 11.2434 17.1841 11.3208 16.431 11.1354C16.058 10.8867 15.7479 10.7312 15.4233 10.6846C15.2216 10.6688 14.945 10.6688 14.4737 10.8551" stroke="#0012D4" stroke-linecap="round"/>
<path d="M17.7336 11.3208C17.6405 11.0116 17.7634 10.5161 17.9963 10.0038C18.239 9.46973 19.0012 8.56385 19.8851 7.57099C20.7455 6.60455 21.5505 6.22978 21.9542 6.01276C22.4829 5.72858 23.9926 5.73241 25.2281 5.9485C26.2419 6.12582 26.6414 6.9097 27.0308 7.5463C27.2818 7.95677 27.3884 8.39993 27.6208 8.78925C27.8881 9.23702 28.6905 9.30152 29.0025 9.65824C29.3322 10.0351 29.3444 10.6651 29.4533 11.5336C29.6625 13.2004 29.3145 13.7089 29.0975 14.1909C28.9111 14.6051 28.4465 14.8582 28.0427 15.0766C27.5167 15.3612 26.7122 15.5419 25.8242 15.6825C25.0698 15.802 23.1524 15.7915 21.9887 15.6988C21.4294 15.5437 21.0568 15.3882 20.8091 15.2955C20.6843 15.2336 20.5613 15.1414 20.3415 14.9532" stroke="#0012D4" stroke-linecap="round"/>
<path d="M16.6159 17.5611C16.5852 17.8079 16.5228 18.9191 16.6155 19.6242C16.708 20.3285 17.2977 21.0986 17.6237 21.7035C17.8718 22.164 18.136 22.5888 18.4773 23.3483C18.72 23.8882 19.1903 24.3268 19.6723 24.7161C20.0253 25.0012 20.4942 25.1352 21.5789 25.1678C22.4104 25.1928 22.8227 24.7347 23.2121 24.2844C23.5088 23.9412 23.5082 23.0321 23.7243 22.4365C23.955 21.8007 25.3673 22.002 26.1133 21.7226C26.825 21.4561 26.9842 20.8545 27.1248 20.3418C27.2694 19.8149 27.2338 19.0569 27.1411 18.4785C27.0611 17.979 26.7383 17.563 26.3662 17.1592C25.7762 16.6614 25.2797 16.4136 24.9067 16.2576C24.8131 16.2264 24.7209 16.1957 24.6259 16.164" stroke="#0012D4" stroke-linecap="round"/>
<path d="M11.8658 17.468C11.3079 17.4987 10.8748 17.6841 10.1609 18.18C9.56292 18.5954 8.79593 19.327 8.20449 19.8412C7.3347 20.5973 6.745 21.7487 6.46465 22.2474C6.17842 22.7566 5.84527 23.6394 5.73397 25.2707C5.70713 25.6642 5.96542 26.0033 6.32121 26.468C7.03662 27.4026 8.41406 27.2476 9.06976 27.1549C9.55664 27.0861 10.031 26.5677 10.5134 26.3013C11.117 25.9681 11.7391 26.1914 12.3292 26.3931C13.099 26.6561 14.0676 26.441 14.4723 26.2394C14.8763 26.0381 15.3716 25.6661 15.8536 25.3084C16.2076 25.0457 16.4278 24.5801 16.6927 24.0981C16.8329 23.7092 17.0183 23.2761 17.097 22.7634C17.1123 22.6232 17.1431 22.4696 17.1747 22.3112" stroke="#0012D4" stroke-linecap="round"/>
<path d="M8.60594 19.4239C7.9549 19.4854 7.21444 19.8561 6.21971 20.06C4.72631 20.3663 3.58387 20.169 2.91047 20.061C2.42268 19.9827 1.90363 19.4891 1.23489 18.6513C0.533912 17.7731 0.595956 17.0675 0.518651 16.3536C0.407995 15.3317 0.81204 14.9551 1.12219 14.5667C1.36293 14.2652 1.68196 14.1159 1.7751 13.9147C1.97779 13.4769 1.55902 12.8147 1.58882 11.4656C1.60731 10.6288 2.36374 10.2981 2.82944 9.90971C3.29614 9.52048 3.79064 9.2121 4.58232 8.91545C5.38865 8.61332 6.3054 8.86748 7.08172 9.09987C7.71559 9.28961 8.29113 9.76535 8.86813 10.109C9.33791 10.3889 9.87636 10.7917 10.2811 10.9631C10.7734 11.1716 11.4895 11.7827 11.9576 12.1427C12.0512 12.1898 12.1434 12.2205 12.2216 12.2824C12.2999 12.3444 12.3613 12.4366 12.4247 12.5316" stroke="#0012D4" stroke-linecap="round"/>
<path d="M8.23339 9.55113C7.79936 8.86935 7.49013 8.43532 6.90056 7.36701C6.37896 6.42187 6.55688 4.53464 6.71102 3.34479C6.83648 2.37641 7.64102 2.13351 8.16912 1.82149C8.80494 1.44583 9.56528 1.57281 11.0066 1.55651C11.7471 1.54814 13.2219 1.72742 14.0374 1.61938C14.6639 1.53636 15.3381 0.829557 16.5801 0.548276C17.1555 0.417967 17.5464 0.57808 17.7476 0.717324C18.3606 1.14159 18.6333 2.06645 18.9123 2.96571C19.1097 3.60199 19.099 4.11551 19.1461 4.93747C19.2546 5.66815 19.317 6.96558 19.3943 7.71768C19.4101 7.84202 19.4101 7.9957 19.4101 8.15404" stroke="#0012D4" stroke-linecap="round"/>
<path d="M13.9149 4.9873C13.7919 5.78644 13.7286 6.62842 13.7593 7.38797C13.8515 7.93237 13.9149 8.33846 13.9302 8.66398C13.9456 8.80509 13.9764 8.8973 14.1012 9.08544" stroke="#0012D4" stroke-linecap="round"/>
<path d="M21.0866 11.5071C21.0857 11.4763 21.4573 11.291 22.1228 10.9962C23.7234 10.5757 24.2524 10.5449 24.5919 10.4984C24.8392 10.4825 25.2388 10.4825 25.6504 10.4825" stroke="#0012D4" stroke-linecap="round"/>
<path d="M19.317 17.6543C19.8441 17.8396 20.3378 18.5186 20.8212 19.2199C21.272 19.7946 21.4899 20.292 21.5518 20.5397C21.583 20.6645 21.6138 20.7875 21.6454 21.0073" stroke="#0012D4" stroke-linecap="round"/>
<path d="M13.356 19.517C12.9872 19.7629 12.5821 20.3506 12.2407 21.0953C12.1145 21.3789 12.0838 21.4711 12.0372 21.6877C11.9906 21.9042 11.9291 22.2423 11.8658 22.7769" stroke="#0012D4" stroke-linecap="round"/>
<path d="M9.72359 15.6052C9.41623 15.5437 9.13495 15.4506 8.8872 15.3421C8.76239 15.295 8.63945 15.2643 8.19192 15.2485C7.74438 15.2326 6.97598 15.2326 6.37057 15.2326" stroke="#0012D4" stroke-linecap="round"/>
<path d="M17.1747 21.9387C17.1747 22.1855 17.3592 23.0508 17.5468 23.8457C17.6544 24.3013 17.7951 24.8539 17.9194 25.5222C18.0228 26.0778 18.7525 27.9164 19.1456 29.1696C19.4402 30.1089 19.4101 30.7534 19.4874 31.2969C19.5418 31.6794 19.534 32.0275 19.5959 32.306C19.6709 32.6433 19.6895 34.2191 19.6588 36.453C19.6367 38.0573 19.4418 38.6088 19.1782 39.8629C19.0265 40.5847 19.0375 41.0919 18.8829 42.3464C18.7511 43.4163 18.6035 44.4728 18.4019 45.5304C18.2765 46.1877 18.1993 46.9261 18.122 47.5343C18.1061 47.7048 18.1061 47.9506 18.1522 47.9083C18.1983 47.8659 18.2906 47.5278 18.3856 47.1794" stroke="#0012D4" stroke-linecap="round"/>
<path d="M19.2238 41.8705C19.6532 41.348 20.9599 39.9798 21.5192 39.4661C21.9166 39.1012 22.2024 38.7671 22.962 38.0238C23.4434 37.5527 23.7858 37.1539 24.2827 36.5173C24.5318 36.0046 24.842 35.4457 25.0287 35.0727C25.0907 34.9791 25.1829 34.8869 25.2779 34.7919" stroke="#0012D4" stroke-linecap="round"/>
<path d="M19.2238 41.2185C19.2546 40.7864 19.4399 39.8568 19.7808 38.4309C20.0355 37.3652 20.5268 36.5336 20.7126 35.9603C20.8717 35.4698 21.4238 34.6429 22.3677 33.3888C23.384 32.0386 24.1593 31.3774 24.4527 31.1306C25.5725 30.1885 26.3005 29.794 26.8435 29.469C27.524 29.0617 28.1317 28.5218 28.9224 27.9797C29.415 27.642 29.8091 27.311 30.0881 27.1093C30.208 27.0226 30.3055 26.9999 30.4145 27.107C30.7157 27.4031 30.896 28.4202 31.0823 29.8602C31.4001 32.3165 30.991 33.0819 30.7121 33.7492C30.5815 34.0617 30.218 34.8785 29.5055 36.0563C28.5372 37.6568 27.8876 37.9885 27.2985 38.5152C26.2988 39.409 25.0003 39.8829 24.3493 40.1772C23.7066 40.4678 23.2623 40.628 22.4558 40.9223C21.9116 41.1209 21.4312 41.3415 20.9176 41.4202C20.5287 41.5287 20.0956 41.6526 19.6136 41.6996C19.5042 41.715 19.412 41.7457 19.2238 41.8705" stroke="#0012D4" stroke-linecap="round"/>
<path d="M18.5719 41.6842C18.448 41.4989 18.3241 40.8814 18.2617 40.3044C18.1945 39.6835 17.3964 38.5547 16.8814 37.9293C16.2596 37.1743 15.4386 36.3771 14.8649 35.8812C13.6323 34.8157 13.0785 34.6373 12.6901 34.4203C12.253 34.176 11.7447 33.9555 11.2311 33.6132C10.746 33.29 10.098 32.9608 9.55549 32.7438C8.73582 32.4159 8.20544 32.4019 7.18184 32.3549C6.0942 32.3049 4.91389 32.2157 4.26192 32.1067C4.1068 32.0808 3.9825 32.0909 3.91917 32.1984C3.56461 32.8007 4.01044 33.7618 4.38207 35.3452C4.55578 36.0853 4.93997 36.8671 5.31393 37.4757C5.56133 37.8784 5.78009 38.3293 6.4139 39.305C6.79582 39.8929 7.8543 40.3151 9.40088 40.9037C11.3686 41.6526 12.8876 41.6842 13.4604 41.7303C14.6223 41.8238 16.1698 42.0568 17.7546 41.9646C18.2107 41.938 17.9255 41.6879 17.7061 41.5622C16.9334 41.1192 16.1838 40.6299 15.5472 40.242C15.0778 39.956 14.5687 39.6668 14.0108 39.311C13.4864 38.9869 13.0776 38.7662 12.8149 38.5966C12.6445 38.4579 12.3986 38.212 12.1452 37.9586" stroke="#0012D4" stroke-linecap="round"/>
</svg>
