<svg width="32" height="47" viewBox="0 0 32 47" fill="none" xmlns="http://www.w3.org/2000/svg">
<path d="M13.9869 10.3487C13.9869 9.94815 14.0484 9.01676 14.5429 7.87021C15.1895 6.37129 15.8478 6.22071 16.3908 5.83279C16.9187 5.45563 18.4166 5.41226 19.2474 5.53567C19.9623 5.64187 20.6259 6.8019 21.0953 7.70629C21.725 8.91954 21.6243 9.63148 21.7016 10.3445C21.9027 12.1988 21.5628 12.7684 21.5004 13.2802C21.3866 14.2138 20.9127 15.3726 20.678 16.0437C20.4825 16.6026 20.136 17.267 19.2991 18.6949C18.8043 19.5392 18.4893 20.0333 18.2876 20.4063C18.1918 20.5835 18.086 20.7486 17.8694 20.8417C17.3524 21.0641 16.1999 20.9665 15.1693 20.7812C14.662 20.69 14.2067 20.3779 13.7866 20.2065C13.2784 19.9992 12.7481 19.6328 11.8172 18.9515C11.1402 18.456 10.7605 18.0196 10.3559 17.6769C9.91482 17.3033 9.64287 16.6542 9.25355 15.8313C9.02409 15.3463 8.83442 14.8529 8.63231 14.1869C8.10295 12.4427 8.21225 11.349 8.62952 10.1815C8.81756 9.65532 9.451 9.35765 10.0727 8.96833C10.9552 8.41569 12.5861 8.88823 13.286 9.04423C13.4271 9.07544 13.5193 9.10617 13.6129 9.15274C13.7065 9.19931 13.7988 9.26078 13.9869 9.23098" stroke="#0012D4" stroke-linecap="round"/>
<path d="M9.42306 9.32411C9.30012 9.32411 9.14457 9.29338 8.9895 9.2007C8.4196 8.86014 8.18244 7.43525 8.13448 5.12586C8.11527 4.20117 8.39666 3.15083 8.63044 2.49607C8.90563 1.72534 9.76022 1.25452 10.3368 1.01981C11.3116 0.622932 12.7388 0.971374 13.5962 1.22006C14.2111 1.39842 14.7283 1.8711 15.2731 2.21292C16.1262 2.74811 16.4383 3.26819 16.8262 3.74926C17.0288 4.29366 17.1844 4.57307 17.2463 4.75889C17.2775 4.85249 17.3082 4.9447 17.5262 5.22598" stroke="#0012D4" stroke-linecap="round"/>
<path d="M14.8252 20.7803C14.7013 20.8725 14.5159 21.3056 14.1438 21.8025C13.8204 22.2344 13.4309 23.2568 12.981 24.497C12.6733 25.3453 12.7137 25.9011 12.791 26.242C12.8573 26.5341 13.0546 26.7095 13.2711 26.818C13.5292 26.9473 13.9841 26.9275 14.4493 26.8967C15.0879 26.8545 15.6299 25.9681 16.0499 25.501C16.6824 24.7977 17.0903 23.7328 17.2463 23.0645C17.3399 22.6132 17.4014 22.2099 17.5099 21.931C17.5569 21.8057 17.5877 21.7135 17.7125 21.5254" stroke="#0012D4" stroke-linecap="round"/>
<path d="M17.6194 20.9665C17.6808 21.245 17.99 21.6167 18.3011 21.9743C18.47 22.1685 18.9205 22.2696 19.5702 22.44C20.3882 22.6546 21.6169 22.6431 22.9344 22.6123C23.9178 22.5894 24.602 22.3338 25.0519 22.0861C25.2389 21.9831 25.2866 21.8383 25.3029 21.6828C25.3192 21.5272 25.2885 21.3428 25.2265 21.2171C25.0128 20.7831 24.4521 20.6257 23.7391 20.3006C22.5612 19.7636 21.9988 19.8805 21.3938 19.7562C20.9118 19.6319 20.2925 19.4465 19.81 19.2286C19.6703 19.1969 19.4859 19.1969 19.2959 19.1969" stroke="#0012D4" stroke-linecap="round"/>
<path d="M17.6194 5.31912C17.6501 4.88603 17.774 4.38959 18.0683 3.78465C18.3199 3.26739 19.2903 2.53053 19.884 2.01407C20.7414 1.26829 22.3322 0.63235 23.3749 0.507077C23.8221 0.453349 24.1997 0.722695 24.494 1.04775C25.0244 1.63353 25.2233 2.27347 25.5353 2.78713C25.6581 2.98939 25.8454 3.32967 26.2161 4.34768C26.9529 6.37092 27.2434 7.92516 27.29 8.60415C27.4454 10.87 26.8737 12.109 26.4997 13.1247C26.2905 13.693 26.1267 14.1953 25.8324 14.8324C25.3242 15.9324 24.575 17.3006 24.311 17.7206C24.0013 18.2132 23.6753 18.6977 23.3949 19.1024C23.3325 19.196 23.2711 19.2882 23.1933 19.3664C23.1155 19.4446 23.0233 19.5061 22.742 19.5694" stroke="#0012D4" stroke-linecap="round"/>
<path d="M8.02597 6.99563C7.46806 6.9649 6.78908 6.90249 5.73521 6.82519C3.98648 6.69691 2.65648 6.84009 2.26995 6.9635C1.17009 7.31466 0.824431 8.0183 0.668423 8.4528C0.290499 9.50534 0.63629 10.9354 0.853305 11.5879C1.10165 12.3345 1.34974 12.9528 1.86107 13.9927C2.21768 14.718 3.1138 15.8346 3.8794 16.8195C4.28403 17.3401 5.19639 17.9209 6.70106 19.053C7.51522 19.6656 8.42647 20.4356 9.03187 20.8715C10.195 21.709 10.7251 21.68 11.1755 21.727C11.5999 21.7714 12.0291 21.8663 12.4021 21.9906C12.4957 22.0218 12.5879 22.0525 12.6815 22.0837C12.7751 22.1149 12.8674 22.1457 12.7761 22.0842" stroke="#0012D4" stroke-linecap="round"/>
<path d="M17.7125 22.1774C17.991 22.8275 18.1782 23.4478 18.7803 24.9026C19.5019 26.6459 19.8845 27.328 20.1025 28.3208C20.2236 28.8728 20.2887 29.377 20.3358 30.2768C20.4151 31.7939 20.3521 33.6614 20.2431 34.4219C20.104 35.3925 20.1341 36.0831 19.9795 37.3232C19.8828 38.0988 19.8547 38.7226 19.7774 39.4519C19.7165 40.0262 19.6684 41.7534 19.5911 42.8059C19.5466 43.4124 19.4821 43.8453 19.4048 44.2807C19.3121 44.8032 19.2344 45.3039 19.1101 45.9102C19.0788 46.0508 19.0481 46.1738 19.0323 46.2986C19.0164 46.4234 19.0164 46.5463 19.0164 46.3936" stroke="#0012D4" stroke-linecap="round"/>
<path d="M20.0409 37.8248C20.6603 37.1439 21.4026 36.2768 22.0569 35.6844C22.547 35.2408 22.9879 34.753 24.3509 33.4523C24.6653 33.1687 24.819 33.0765 24.9442 32.9829C25.0695 32.8893 25.1617 32.7971 25.3499 32.609" stroke="#0012D4" stroke-linecap="round"/>
<path d="M20.5066 37.0797C20.9081 35.5941 21.4063 34.4736 21.8078 33.7313C22.8991 31.7133 23.4852 31.3069 23.9202 30.6866C24.3361 30.0935 25.0965 29.2597 26.0135 28.4522C27.172 27.4319 27.6765 27.3317 28.2037 27.0066C28.9911 26.5211 29.7237 26.309 30.269 26.0124C30.3737 25.9554 30.4707 25.9346 30.5643 25.9495C30.6579 25.9644 30.7501 26.0259 30.813 26.1036C31.2571 26.6531 30.7538 28.1029 30.52 28.7721C30.2102 29.659 29.8839 30.2451 29.1104 31.6096C28.2532 33.1217 27.5889 33.7527 27.0902 34.2994C26.6375 34.7956 26.2831 35.1219 25.5236 35.7268C24.9366 36.1943 24.2657 36.7667 23.4596 37.326C22.9338 37.5435 22.5259 37.6692 22.0322 37.7158C21.6616 37.7316 21.0468 37.7316 20.3203 37.9179" stroke="#0012D4" stroke-linecap="round"/>
</svg>
