<svg width="24" height="49" viewBox="0 0 24 49" fill="none" xmlns="http://www.w3.org/2000/svg">
<path d="M13.4571 11.7025C12.412 11.6411 11.6278 11.7016 11.1938 11.9028C10.5441 12.2039 10.4151 12.8184 10.2289 13.4685C10.0081 14.2391 10.2279 14.8683 10.3821 15.1617C10.6662 15.7026 11.0653 16.0792 11.313 16.2496C11.7888 16.5769 12.8908 16.5458 13.6261 16.4377C14.1332 16.3632 14.6642 15.402 15.0861 14.2378C15.355 13.4956 15.1028 12.9143 15.0255 12.7285C14.762 12.3247 14.2674 11.7677 13.6457 11.5321C13.4897 11.5163 13.336 11.5163 12.9914 11.6094" stroke="#0012D4" stroke-linecap="round"/>
<path d="M10.9423 11.7025C10.5399 11.3309 9.98296 10.8978 9.53123 10.4931C9.08048 10.0893 8.46292 9.0406 8.08711 8.27407C7.64684 7.37608 7.43466 6.46064 7.43373 4.19782C7.43329 3.12185 8.11644 2.48359 8.42567 2.03373C9.01738 1.1729 9.60481 1.05483 10.5809 0.728847C11.934 0.276968 13.3602 0.587275 13.9828 0.866228C14.4402 1.07115 14.7908 1.54847 15.1783 2.02907C15.8846 2.90525 16.1562 3.84157 16.2666 4.59087C16.3933 5.45081 16.2829 6.94869 16.0659 8.05053C15.9035 8.87512 15.5378 9.71307 15.2435 10.2104C14.9703 10.6721 14.7619 10.9872 14.6222 11.0967C14.269 11.3733 15.3757 9.41503 15.9704 8.61496C16.3056 8.16409 16.7765 7.82421 17.4905 7.29564C17.8826 7.00528 18.3599 6.89095 18.888 6.84391C19.5429 6.78558 19.9749 6.82761 20.518 6.96732C21.0245 7.09766 21.4335 7.35478 22.302 7.92806C22.8814 8.31048 23.0187 9.0611 23.205 9.65113C23.3839 10.2178 23.3298 10.922 23.2218 11.4524C23.0984 12.0583 22.2792 12.6302 21.2379 13.2528C20.5558 13.6607 20.1035 13.8131 19.3593 14.1074C18.3737 14.4972 17.5906 14.4967 16.9526 14.574C15.8873 14.7031 15.6002 14.466 15.5834 14.4194C15.3575 13.7918 16.8063 14.4967 18.5881 14.852C19.7885 15.0914 20.3475 15.7988 20.8132 16.1872C21.5323 16.7869 22.024 18.0938 22.2117 18.7942C22.3799 19.422 22.3984 20.357 22.2285 21.1077C22.1187 21.5924 21.441 22.1304 20.6474 22.5984C19.4608 23.2983 17.9929 22.8178 17.4332 22.6008C16.7446 22.3338 16.1302 21.8268 15.4926 21.0039C15.1716 20.5896 14.7945 19.6268 14.4825 18.3354C14.2448 17.3515 14.0476 16.9202 13.9693 16.7162C13.4936 15.476 15.1634 19.5244 15.3347 19.9901C15.5104 20.4673 15.7837 21.0742 15.956 21.8971C16.2971 23.5263 15.7241 23.9951 15.4144 24.5227C15.0684 25.1122 14.4835 25.5486 13.7411 25.9044C11.881 26.796 10.8231 26.5117 10.2763 26.3883C9.59854 26.2353 9.17451 25.2729 8.6003 23.8628C8.16754 22.8 8.61195 21.3015 8.95423 20.4912C9.18791 19.938 9.54334 19.435 9.88516 18.8924C10.4353 18.0192 10.5995 17.5722 10.817 17.1377C11.0161 16.74 11.3139 16.4536 11.3614 16.4368C12.241 16.1264 10.5083 17.7547 9.27091 19.488C8.67559 20.322 8.49086 20.7967 8.05683 21.356C7.67816 21.8439 7.15711 22.0093 6.50513 22.3656C5.9395 22.6747 5.07824 22.5998 4.0076 22.7391C3.21562 22.8421 2.77956 22.4769 2.37487 22.2128C1.94159 21.9301 1.72336 21.3909 1.42764 20.7398C1.13087 20.0865 1.06952 18.7308 1.19293 17.7277C1.27623 17.0506 1.71963 16.7339 2.12339 16.1755C2.57617 15.5494 3.11486 14.9661 4.12402 14.2969C4.71419 13.9056 5.66129 13.9379 6.40547 13.8606C7.95265 13.6998 8.394 13.9379 8.79869 14.0305C8.98961 14.0743 9.17171 14.1549 9.21921 14.1707C9.81418 14.369 7.688 13.8764 7.0635 13.7521C6.20677 13.5815 5.0801 13.5355 4.25489 13.4414C3.20487 13.3217 2.68642 12.6358 2.2971 12.2628C1.94856 11.9288 1.78483 11.2406 1.53615 10.6338C1.06717 9.48942 1.41041 7.97882 1.62742 7.45118C1.97677 6.60181 3.7035 5.92975 4.7448 5.68014C5.42682 5.51665 5.87924 5.86455 6.28393 6.0513C6.72286 6.25384 6.87396 6.82575 7.12265 7.23044C7.18505 7.32405 7.24652 7.41625 7.32429 7.49449C7.40206 7.57273 7.49427 7.6342 7.68241 7.79067" stroke="#0012D4" stroke-linecap="round"/>
<path d="M13.2707 26.4186C13.0845 28.68 12.9923 30.1395 12.7757 31.5142C12.6322 32.4251 12.4977 33.7803 12.4185 34.5999C12.3158 35.6634 12.2164 36.7794 12.0148 38.1448C11.8709 39.1189 11.7805 39.92 11.7032 40.511C11.5581 41.6207 11.5328 42.4963 11.4857 43.5525C11.408 44.5444 11.3772 45.759 11.3307 46.3299C11.3148 46.7472 11.3148 47.4234 11.3148 47.8406" stroke="#0012D4" stroke-linecap="round"/>
<path d="M11.7805 41.0414C12.4623 40.205 12.9578 39.5847 13.5325 38.8555C13.9829 38.2838 14.7554 37.5077 15.4726 36.6206C16.2017 35.7187 16.5288 35.3618 16.7625 34.958C16.8398 34.8337 16.9628 34.68 17.0569 34.5547C17.1509 34.4295 17.2124 34.3373 17.1826 34.3354" stroke="#0012D4" stroke-linecap="round"/>
<path d="M12.0599 40.2032C12.7734 38.0628 12.9597 37.3196 13.2689 36.3272C13.5605 35.3914 14.2916 34.4332 15.1424 33.4427C15.6089 32.8995 16.2084 32.3292 16.878 31.7824C19.0452 30.0132 19.6024 29.928 20.6865 29.2002C20.9398 29.0301 21.0609 28.9352 21.1857 28.8416C21.3105 28.748 21.4335 28.6558 21.5737 28.8388C22.3774 29.8881 22.0873 30.7607 22.0729 32.6356C22.0617 34.0909 21.3757 34.6744 20.8481 35.5429C20.4893 36.1336 20.0103 36.7235 19.5283 37.2828C19.0614 37.8246 18.1177 38.3683 17.3251 38.9439C16.8321 39.3019 16.3779 39.581 15.6183 40.0458C14.5853 40.6779 14.0494 40.7303 13.1809 40.7774C12.9923 40.7928 12.9001 40.8235 12.7911 40.8547C12.6821 40.8859 12.5592 40.9166 12.3394 40.9483" stroke="#0012D4" stroke-linecap="round"/>
<path d="M11.7805 38.5267C11.7805 37.4109 11.6576 36.7291 11.3782 36.2005C10.8331 35.1695 10.0761 34.3075 9.23781 33.6546C8.76006 33.2824 8.42936 33.0016 7.73175 32.3664C7.24945 31.9273 6.69138 31.6977 5.60724 31.001C4.44045 30.2512 3.28248 29.7753 2.4065 29.4926C1.94736 29.3445 1.44391 29.1829 1.07088 28.9343C0.977278 28.8718 0.88507 28.8104 0.791465 28.748C0.69786 28.6856 0.605652 28.6241 0.558151 28.7768C0.402627 29.277 0.572122 29.9858 0.911149 30.8357C1.47433 32.2475 2.37157 33.1842 2.6971 33.6643C3.36371 34.6476 3.89347 35.699 4.37407 36.4282C4.83127 37.122 5.44517 37.8728 6.11112 38.6934C7.1926 40.026 8.05308 40.2945 8.50341 40.4975C9.01521 40.7304 10.0053 40.8552 10.905 40.8398C11.2515 40.8244 11.3744 40.7937 11.408 40.6689" stroke="#0012D4" stroke-linecap="round"/>
<path d="M6.84418 34.708C8.20867 37.0663 8.76657 37.6232 9.40318 38.1988C9.85444 38.5565 10.1963 38.8676 10.3821 39.0068C10.4757 39.0846 10.5679 39.1768 10.756 39.3649" stroke="#0012D4" stroke-linecap="round"/>
</svg>
