<svg width="22" height="48" viewBox="0 0 22 48" fill="none" xmlns="http://www.w3.org/2000/svg">
<path d="M6.06277 10.7107C6.06277 10.3998 6.18639 9.7779 6.66964 7.98586C6.91284 7.084 7.40388 6.31088 7.59165 5.95126C7.68847 5.76583 7.96579 5.68528 8.23036 5.60708C8.88217 5.41442 9.77329 6.1498 10.773 6.83721C11.4702 7.31657 11.8674 7.74377 12.5379 8.41338C12.9718 8.84663 13.024 9.2113 13.1326 9.35178C13.1884 9.42395 13.334 9.39955 13.4595 9.32228C14.1077 8.92315 14.4278 8.27759 14.7556 7.90251C15.0547 7.56026 15.4262 7.1856 16.5163 6.07909C17.118 5.4683 17.5811 5.21702 17.7834 5.13882C17.8867 5.09887 18.0166 5.15334 18.1112 5.26197C18.5334 5.74686 18.704 6.39892 19.0168 7.11723C19.3143 7.80035 19.3924 8.46115 19.4392 9.12842C19.6022 11.4518 19.1442 12.3309 18.8478 13.1424C18.4664 14.1864 17.9267 14.9232 17.5371 15.6396C16.9771 16.6694 16.6774 17.0772 16.1173 17.7164C15.3832 18.5542 13.8734 19.3548 12.374 19.9027C11.5433 20.2062 10.6873 20.1378 9.39259 20.1387C8.351 20.1394 7.87589 19.7332 7.26714 19.5772C6.561 19.3964 6.1583 19.1095 5.78322 18.9371C5.39557 18.759 4.84903 18.4857 4.34752 18.1729C3.57875 17.6934 3.03592 16.8318 2.77041 16.3785C2.39923 15.7448 2.09939 15.2397 1.86479 14.8019C1.6051 14.3172 1.53747 13.8967 1.3497 13.3198C1.10275 12.5611 0.850064 11.9001 0.662759 10.9495C0.375167 9.48997 0.537264 8.22327 0.630449 7.43425C0.653547 7.23866 0.78638 7.05917 0.988202 6.85688C1.28899 6.55539 1.81469 6.49631 2.31292 6.55813C3.31564 6.68252 4.24591 7.42909 5.51256 8.61474C5.71906 8.8676 5.74997 8.99122 5.7968 9.10126C5.84362 9.2113 5.90543 9.30402 6.06277 9.4932" stroke="#0012D4" stroke-linecap="round"/>
<path d="M4.84529 7.80745C4.81438 7.62108 4.75163 6.81473 4.87572 5.78221C5.01974 4.58392 5.46901 3.87778 5.67177 3.32945C5.87246 2.78672 6.62094 1.88111 7.26246 1.26909C7.6996 0.852051 8.24488 0.659878 8.91637 0.518462C9.35744 0.425572 10.0233 0.687974 10.9411 1.18527C13.2091 2.41416 14.0832 3.37206 14.4747 3.87216C14.8238 4.3182 14.9897 5.05593 15.0689 5.79157C15.1471 6.24532 15.178 6.61993 15.2248 6.86905C15.2407 6.99454 15.2407 7.11816 15.3344 7.24553" stroke="#0012D4" stroke-linecap="round"/>
<path d="M14.0232 3.03118C13.9614 2.78394 13.9296 2.50204 13.9914 2.2061C14.0575 1.88947 14.4278 1.69008 14.6769 1.48732C14.8882 1.3154 15.3316 1.34543 15.7994 1.39179C16.5566 1.46683 16.7691 2.74835 17.2369 3.76074C17.332 3.99768 17.3629 4.1213 17.3788 4.29315C17.3947 4.465 17.3947 4.68134 17.3947 4.90423" stroke="#0012D4" stroke-linecap="round"/>
<path d="M5.31355 3.96771C5.09534 3.31307 4.84716 2.75397 4.41027 2.40745C4.11754 2.17528 3.69149 2.43742 3.45782 2.57743C2.98407 2.86131 2.69315 3.46573 2.33352 4.16765C2.25485 4.37135 2.19304 4.58769 2.1612 4.96183C2.12936 5.33597 2.12936 5.86136 2.12936 6.40267" stroke="#0012D4" stroke-linecap="round"/>
<path d="M11.12 20.1696C11.12 20.5414 11.2436 21.5388 11.3851 22.3676C11.5091 23.0945 11.6501 24.0993 11.8215 24.9885C12.115 26.5115 12.212 27.2535 12.2593 27.9091C12.298 28.4453 12.3993 28.8774 12.4157 31.8795C12.4228 33.1878 12.2757 33.871 12.2284 35.8794C12.2129 36.3687 12.182 36.6469 12.1661 38.5363C12.1502 40.4257 12.1502 43.9181 12.1502 47.3289" stroke="#0012D4" stroke-linecap="round"/>
<path d="M12.4311 33.281C12.5866 32.6264 13.1448 31.5728 14.7355 29.2305C15.2852 28.4211 16.2353 27.9765 16.7841 27.7096C17.8688 27.1821 19.7585 26.2908 20.5771 26.0079C20.6994 25.9656 20.8262 25.9761 20.9053 26.0688C21.3795 26.6243 20.6763 28.3998 20.2989 29.3302C20.1146 29.7847 19.4289 30.5594 18.9414 31.2188C18.3193 32.0602 16.8085 32.9345 16.1014 33.2955C15.3179 33.6955 14.7743 33.7174 14.0574 33.8424C13.7142 33.9047 13.4623 33.9675 13.2136 34.0143C13.0577 34.0302 12.8413 34.0302 12.5248 34.1239" stroke="#0012D4" stroke-linecap="round"/>
<path d="M12.1502 29.6285C12.1193 29.4422 11.9329 29.0685 11.6829 28.6625C11.1502 27.7976 10.4045 26.5099 9.99759 26.0557C9.57596 25.5851 9.09337 24.9496 8.60872 24.4636C8.15633 24.0099 7.47131 23.513 6.79888 23.0897C6.03606 22.6095 5.09815 22.4173 4.61443 22.4791C4.33982 22.5142 4.37702 23.1009 4.39248 23.6619C4.42116 24.7033 5.31168 25.6614 6.30861 26.7056C6.82289 27.2443 7.24654 27.6281 7.66891 27.9727C8.17445 28.3852 8.58952 28.7838 8.98005 29.112C9.60485 29.6372 10.4289 30.1886 11.1481 30.3618C11.3972 30.3777 11.7681 30.3777 11.9591 30.4396C12.1502 30.5014 12.1502 30.625 12.1502 30.7524" stroke="#0012D4" stroke-linecap="round"/>
</svg>
