<svg width="26" height="48" viewBox="0 0 26 48" fill="none" xmlns="http://www.w3.org/2000/svg">
<path d="M11.9409 7.35927C10.9117 7.51474 10.538 7.70204 9.58836 8.19934C8.30191 8.87301 8.50761 9.97967 8.49122 11.2875C8.48316 11.9308 8.88035 12.6619 8.97494 13.2575C9.05418 13.7565 9.34861 14.1004 9.53639 14.6464C9.74368 15.2491 10.4706 15.6606 11.1112 16.0521C11.7108 16.4186 12.3436 16.3181 13.2329 16.319C14.0904 16.3199 14.5613 15.8517 15.0759 15.633C16.0358 15.2252 16.7453 14.3551 17.1218 13.7309C17.9473 12.3623 17.4046 11.1091 17.2019 10.4367C17.0015 9.77221 16.8427 9.20423 16.5936 8.75001C16.2903 8.1971 15.6889 8.01671 15.2984 7.7971C14.7362 7.48098 14.1286 7.20381 13.5663 7.15652C13.0975 7.07832 12.5984 7.14013 12.2078 7.26515C12.0983 7.29653 11.9746 7.32743 11.7536 7.35927" stroke="#0012D4" stroke-linecap="round"/>
<path d="M12.9711 7.07832C12.9402 7.14013 12.9093 7.20194 12.8625 7.14107C12.3032 6.41402 12.8138 4.68081 13.1256 3.57103C13.5742 1.97482 14.1549 1.33741 14.795 0.914102C15.3365 0.555991 16.4924 0.428981 17.0904 0.537618C17.5254 0.616654 17.901 1.08268 18.1993 1.45776C18.5359 1.88112 18.2784 2.58206 18.3088 2.69163C18.4454 3.1834 19.244 2.52118 19.8363 2.55115C20.6346 2.59154 20.7742 3.39215 21.0088 3.79907C21.2941 4.29393 20.9953 5.29517 20.5902 5.96713C19.8009 7.2766 18.8731 7.88935 18.2962 8.2162C17.9384 8.44939 17.6547 8.60767 17.4678 8.66995C17.3737 8.70132 17.281 8.73222 16.9982 8.76407" stroke="#0012D4" stroke-linecap="round"/>
<path d="M16.8109 8.95139C16.9345 8.95139 17.3999 8.70414 18.395 8.20591C20.8373 6.98302 22.209 7.57657 22.6314 7.74889C23.1424 7.9574 23.4902 8.3876 23.7248 8.84041C23.7799 8.94676 23.803 9.04317 23.788 9.16819C23.7189 9.74446 23.0575 10.1352 22.8201 10.5266C22.5271 11.0097 23.8947 11.0099 24.3948 11.5559C24.5226 11.6953 24.644 11.8209 24.6922 11.9619C24.9162 12.6166 23.9622 13.3193 23.2612 13.8344C22.4606 14.4227 21.6518 14.7569 21.1076 14.8974C19.5506 15.2994 18.4367 14.6342 18.0143 14.431C17.9047 14.3533 17.7811 14.2296 17.6865 14.1196C17.5919 14.0096 17.5301 13.9168 17.4664 13.8213" stroke="#0012D4" stroke-linecap="round"/>
<path d="M13.814 16.2563C13.7831 16.379 13.6585 17.0036 13.6421 17.7983C13.6347 18.1603 14.1221 18.9966 14.8545 20.2122C15.77 21.7318 16.3407 22.31 17.4463 22.7483C18.0736 22.997 18.4947 22.5628 19.243 22.0183C19.5031 21.829 19.5577 21.5954 19.6045 21.3468C19.7378 20.639 19.3404 20.2843 19.3081 20.1747C19.1033 19.4801 20.6487 20.2215 21.0238 19.9879C21.4654 19.7128 21.5553 19.1614 21.7581 18.7709C22.1412 18.0329 21.6827 16.6346 21.3699 16.164C21.0509 15.6842 20.497 15.5389 20.0901 15.3361C19.7315 15.1574 19.2795 15.0706 18.7172 14.8679C18.312 14.7218 17.9366 14.6024 17.5615 14.4773C17.4674 14.446 17.3747 14.4151 17.2805 14.3682C17.1864 14.3214 17.0937 14.2596 16.9045 14.1959" stroke="#0012D4" stroke-linecap="round"/>
<path d="M9.03769 14.1023C8.63311 14.1023 8.07307 14.2877 7.55658 14.5073C7.09605 14.7031 6.60647 15.316 6.04268 16.0353C5.38133 16.879 4.85516 18.0338 4.73014 18.6421C4.60006 19.2749 4.69783 20.0942 5.08696 20.7024C5.39912 21.1904 5.81979 21.5926 6.28852 21.7659C6.96287 22.0151 7.62916 21.5027 8.03795 21.2358C8.34188 21.0373 7.91386 22.5235 8.19341 23.1543C8.38971 23.5972 9.59399 23.1566 10.1601 22.922C10.6178 22.7323 11.467 21.8811 11.94 21.2995C12.3102 20.8443 12.6564 19.9762 12.7993 19.3332C12.9269 18.7587 12.9711 18.0713 13.0643 17.5534C13.0957 17.4438 13.1266 17.3202 13.127 17.2101C13.1275 17.1001 13.0966 17.0074 13.0648 16.9118" stroke="#0012D4" stroke-linecap="round"/>
<path d="M8.38212 9.23233C7.66568 9.10777 6.91927 8.92141 6.18456 8.82682C4.73696 8.64045 3.7332 8.73223 3.07763 8.77952C2.50579 8.82078 1.9538 9.01319 1.51598 9.16912C0.91997 9.38138 0.672635 9.88603 0.531219 10.3075C0.427416 10.6168 0.608014 10.948 0.825757 11.1817C1.25196 11.6391 1.85453 11.6355 2.41832 11.6828C2.51912 11.6912 2.04652 11.8228 1.71967 11.9782C1.34169 12.158 0.985434 12.7555 0.704477 13.4884C0.591716 13.7825 0.608951 13.9431 0.686214 14.0999C1.00405 14.7452 1.5436 14.8196 2.18278 15.1779C2.76203 15.3507 3.07389 15.4443 3.64751 15.4911C4.09751 15.5071 4.87015 15.5071 5.66619 15.5071" stroke="#0012D4" stroke-linecap="round"/>
<path d="M8.47578 8.76406C7.63478 8.57769 6.88743 8.14221 5.82681 7.02165C4.3436 5.45463 4.63602 4.33429 4.55829 3.80281C4.49096 3.34245 4.63508 2.92763 4.86828 2.64761C5.17052 2.28468 5.47796 2.08382 5.71115 2.03699C6.03106 1.97275 6.32083 2.05198 6.50767 2.12971C6.92676 2.30407 7.00824 2.76936 7.03961 2.81712C7.1672 3.01135 6.97733 2.14844 7.00824 1.72747C7.02889 1.44611 7.35007 1.18007 7.69284 0.868207C7.94299 0.640614 8.41022 0.616281 8.92484 0.647187C9.72033 0.69496 10.6579 1.51909 11.5008 2.39194C12.2134 3.12988 12.3455 3.76676 12.4869 4.26686C12.5337 4.73606 12.6274 5.01702 12.6742 5.21931C12.6901 5.32888 12.6901 5.4525 12.6901 5.57987" stroke="#0012D4" stroke-linecap="round"/>
<path d="M12.8774 10.4498C12.5056 10.2625 11.6937 10.3861 11.3022 10.6516C11.1191 10.7758 11.0671 11.1035 11.0203 11.4772C10.9738 11.8483 11.0662 12.1346 11.2526 12.3678C11.5334 12.7192 11.8463 12.9466 12.095 13.0403C12.7676 13.2936 13.2502 12.8548 13.703 12.4961C13.9452 12.3043 14.0322 12.0429 14.079 11.8251C14.1379 11.5514 14.0022 11.2627 13.8154 11.0445C13.5219 10.7017 13.0666 10.669 12.3029 10.6526C12.0325 10.6468 11.8173 10.8235 11.6145 11.0103C11.4551 11.1573 11.4418 11.4163 11.4104 11.6654C11.3947 11.7899 11.4408 11.9145 11.5031 12.0091C11.6242 12.193 12.0318 12.2292 12.515 12.1674C12.7275 12.1402 12.8437 11.982 12.9229 11.8719C13.002 11.7619 13.0329 11.6692 13.0179 11.5751C13.0029 11.4809 12.9411 11.3882 12.8475 11.3096C12.7538 11.2309 12.6302 11.1691 12.4893 11.1681C12.3483 11.1672 12.1938 11.229 12.0833 11.3227C11.9728 11.4163 11.911 11.5399 11.9718 11.6345C12.0327 11.7291 12.2181 11.7909 12.36 11.8073C12.5935 11.8343 12.7829 11.7301 12.9388 11.6369C13.015 11.5913 13.0329 11.4819 13.0488 11.5114C13.0648 11.5409 13.0648 11.6954 13.1111 11.8059C13.1575 11.9164 13.2502 11.9782 13.533 11.9483" stroke="#0012D4" stroke-linecap="round"/>
<path d="M13.1584 16.8182C13.0029 17.8456 12.8774 19.7701 12.9552 21.6629C13.0574 24.151 13.002 25.9016 13.0488 26.1039C13.1585 26.5778 13.2202 27.2099 13.2675 28.0846C13.2846 28.4004 13.3457 29.3592 13.3612 30.6699C13.3668 31.1463 13.4075 31.2388 13.4234 32.801C13.4394 34.3631 13.4394 37.3918 13.4548 38.9984C13.4736 40.9493 13.5948 41.447 13.6421 41.8998C13.693 42.3871 13.7821 43.069 13.8294 43.9119C13.8758 44.2247 13.9076 45.2483 13.9231 46.6527C13.9385 47.1607 13.9694 47.2534 14.0949 47.2553" stroke="#0012D4" stroke-linecap="round"/>
<path d="M13.7203 37.7027C13.6894 37.7027 13.6585 37.7027 13.658 37.6564C13.6541 37.2661 14.3103 36.7381 15.0755 36.2216C15.5977 35.8691 16.1515 35.5506 16.4358 35.1601C16.7125 34.7799 16.809 34.0859 17.3395 33.4434C17.6726 33.0401 18.1819 32.741 18.7748 32.335C19.7204 31.6874 20.615 31.5853 21.2884 31.5526C21.5688 31.5389 21.8353 31.8635 22.0849 32.1749C22.295 32.437 22.2427 32.9236 22.2118 33.4378C22.1587 34.3214 21.1545 35.2003 19.8906 35.9524C19.042 36.4573 18.2494 36.1425 17.7647 35.9088C17.6547 35.8306 17.562 35.7379 17.4678 35.6592C17.3737 35.5806 17.281 35.5188 16.9982 35.2678" stroke="#0012D4" stroke-linecap="round"/>
<path d="M13.533 30.2105C13.5948 30.0242 13.9676 29.5887 14.4522 28.9486C14.8401 28.4363 15.3724 28.0266 15.6552 27.4356C15.9632 26.7921 15.7488 26.1535 15.8888 25.9198C16.1617 25.4645 16.839 25.2488 17.4486 24.9824C17.9936 24.7442 18.712 24.7787 19.2266 24.8405C19.5753 24.8824 19.6513 25.246 19.7136 25.4792C19.8886 26.1343 19.7459 26.6499 19.5123 27.0872C19.2562 27.5666 18.0976 27.8673 17.2037 27.932C16.8764 27.8393 16.5936 27.7447 16.3445 27.6824C16.219 27.651 16.0954 27.6201 15.8743 27.5883" stroke="#0012D4" stroke-linecap="round"/>
<path d="M13.1584 30.5851C12.7248 30.2452 11.7873 29.3695 11.365 29.0099C10.9325 28.6417 10.5371 28.463 10.3966 28.2766C10.0205 27.7776 10.3807 27.1537 10.1779 26.6691C9.98126 26.199 9.50783 25.7171 8.8841 25.2797C8.37884 24.9254 7.85392 24.5932 7.27608 24.4509C7.13801 24.4169 7.01105 24.5277 6.90101 24.6213C6.67469 24.814 6.60272 25.4296 6.66453 26.2247C6.7483 27.3022 8.09742 27.7737 8.62983 28.071C9.0021 28.242 9.31771 28.3684 9.50455 28.4307C9.59867 28.462 9.69139 28.4929 9.88056 28.5248" stroke="#0012D4" stroke-linecap="round"/>
<path d="M13.2521 38.171C13.0029 37.9537 12.692 37.4555 12.1615 36.9554C11.7263 36.5452 11.4736 36.3607 11.3486 36.2675C11.0396 36.0372 11.5663 35.2715 11.3799 34.3814C11.2478 33.7504 10.6017 33.4284 10.0852 33.1147C9.46601 32.7386 8.20044 32.3346 7.18384 32.1777C6.73303 32.1082 6.32364 32.0836 5.96542 32.1145C5.62648 32.1437 5.41708 32.3636 5.29252 32.5814C4.97289 33.1401 5.38336 34.0765 5.75797 34.7349C6.22205 35.5505 6.94362 35.4851 7.35054 35.6574C7.74336 35.8237 8.22291 35.9852 8.98805 36.1102C9.53592 36.2352 9.97234 36.298 10.2997 36.3134C10.4415 36.3289 10.5343 36.3598 10.8171 36.298" stroke="#0012D4" stroke-linecap="round"/>
</svg>
