<svg width="27" height="46" viewBox="0 0 27 46" fill="none" xmlns="http://www.w3.org/2000/svg">
<path d="M15.2961 13.3093C15.2664 13.0499 16.1904 11.2553 17.0257 10.1099C17.7366 9.13523 18.2636 8.65458 18.6422 8.14414C19.0785 7.55587 19.5439 7.14028 20.0102 6.74642C20.6318 6.22142 21.9542 4.99196 22.6306 4.38807C22.9773 4.07852 23.3288 3.79204 24.113 3.29731C24.5421 3.0266 24.9016 2.9755 25.0758 2.94625C25.1624 2.93171 25.25 2.97463 25.309 3.04711C25.5971 3.40144 25.6587 3.93352 25.9203 4.90506C26.2701 6.20437 25.9801 7.51231 25.8928 8.32535C25.7399 9.74883 25.7758 10.3959 25.4867 11.5566C25.0004 13.5092 24.4955 13.8018 23.6257 14.9782C22.9304 15.9185 22.2581 16.6505 21.6009 17.4548C20.9219 18.2859 20.0766 18.8355 19.3011 19.4206C18.6717 19.8955 18.0645 20.149 17.6554 20.3677C17.2025 20.6099 16.5502 20.8773 15.8668 20.9795C14.9861 21.1112 14.3966 21.1393 12.016 21.1402C11.1326 21.1405 10.6991 20.5594 10.1602 20.1228C9.62382 19.6881 9.21446 19.1622 8.83501 18.7399C8.4414 18.3019 7.76129 17.4767 7.36437 16.9785C7.12465 16.6776 7.02946 16.2226 6.53604 14.9589C6.29738 14.3477 6.09852 13.952 5.95224 13.5726C5.76972 13.0991 5.54659 11.8037 5.41342 11.0404C5.39315 10.9243 5.37019 10.8081 5.34093 9.8986C5.31168 8.98906 5.28286 7.28874 5.2536 6.32636C5.21906 5.19011 5.16583 4.58063 5.22347 3.89684C5.24515 3.63972 5.39639 3.58769 5.499 3.5724C5.97188 3.50198 7.33861 4.42606 8.91579 5.30067C10.1631 5.99235 10.7794 6.69664 11.4514 7.32498C12.0654 7.89911 12.3252 8.38735 12.6893 8.81003C13.3818 9.61374 13.9251 10.8902 14.1604 11.2994C14.3058 11.6491 14.5957 12.0552 14.8586 12.4347C14.9171 12.5224 14.9748 12.6089 15.2088 12.7853" stroke="#0012D4" stroke-linecap="round"/>
<path d="M11.8029 7.54549C11.7156 7.17084 11.8885 5.9491 12.3832 4.84262C12.8392 3.8229 13.0535 3.26806 13.3736 2.70085C13.6234 2.25808 14.7914 1.15118 15.6 0.559077C16.1381 0.165156 16.8628 1.83235 17.6951 2.87027C18.162 3.45257 18.468 3.84618 18.6142 4.22563C18.7567 4.59524 18.847 5.01117 18.8911 5.72335C18.9055 5.88534 18.9343 5.9718 18.9492 6.18925C18.964 6.40671 18.964 6.75253 18.964 7.10884" stroke="#0012D4" stroke-linecap="round"/>
<path d="M20.3613 1.34505C20.3036 1.34505 20.2739 1.48914 20.3028 1.64983C20.3316 1.66642 20.3892 1.55115 20.3757 1.46294C20.3622 1.37474 20.2757 1.3171 20.0993 1.34505" stroke="#0012D4" stroke-linecap="round"/>
<path d="M9.27036 1.08306C9.21272 1.08306 9.15508 1.08306 9.11098 1.15511C9.06688 1.22715 9.03806 1.37125 9.06644 1.48871C9.09482 1.60617 9.18128 1.69262 9.25464 1.67952C9.32799 1.66642 9.38563 1.55115 9.3721 1.44854C9.35856 1.34592 9.2721 1.25947 9.18303 1.17039" stroke="#0012D4" stroke-linecap="round"/>
<path d="M15.8201 21.169C15.8201 21.2266 15.8201 21.2843 15.9066 23.0431C15.993 24.8019 16.1659 28.2602 16.3127 30.3587C16.5041 33.0972 16.6934 34.0615 16.7078 34.5995C16.724 35.2028 16.8384 35.7217 16.8825 36.6085C16.9067 37.0959 17.013 37.5556 17.1152 39.0891C17.1863 40.1558 17.1301 42.1178 17.1012 43.1849C16.9266 44.6302 16.8393 45.0381 16.7812 45.256C16.7519 45.3586 16.7231 45.445 16.6934 45.2721" stroke="#0012D4" stroke-linecap="round"/>
<path d="M16.7808 36.4518C16.7519 36.4518 16.7231 36.4518 16.6939 36.4085C16.4214 36.006 16.4332 34.4816 16.3297 33.5577C16.2521 32.865 15.7939 31.8879 15.1529 30.8513C14.7962 30.2745 14.339 29.6156 13.7552 28.9868C13.4106 28.6157 13.0273 28.3021 12.7212 27.9676C12.3137 27.5223 11.8344 27.4288 11.1798 27.0363C10.467 26.6088 9.47995 26.4402 8.38614 26.0896C7.55142 25.822 6.30637 25.6822 5.46014 25.5071C4.3124 25.2696 2.64374 24.8107 1.63115 24.5753C1.19536 24.474 0.801075 24.1976 0.639514 24.0216C0.185397 23.527 0.944296 25.387 1.4233 26.7673C1.72306 27.631 2.13723 28.4436 2.51493 29.5916C2.62133 29.915 2.86207 30.1588 3.48473 30.9984C4.1074 31.8381 5.14488 33.2503 5.7802 34.0786C6.9863 35.6511 8.01629 35.9854 9.06207 36.4496C10.0175 36.8737 10.5192 37.1487 11.0008 37.339C11.5653 37.5622 13.1897 37.6744 14.201 37.7469C15.6734 37.7329 16.1668 37.6744 16.5742 37.6168C16.7222 37.5591 16.7511 37.4438 16.7808 37.3251" stroke="#0012D4" stroke-linecap="round"/>
<path d="M10.755 31.9979C10.8117 32.2285 11.623 33.2153 12.8177 34.1925C13.4497 34.7095 13.8098 35.1121 14.449 35.547C15.2368 36.2762 15.6437 36.5671 15.9935 36.7858C16.0812 36.8299 16.1677 36.8587 16.5188 36.8884" stroke="#0012D4" stroke-linecap="round"/>
<path d="M16.3441 29.378C16.3441 28.9449 16.4017 27.8969 16.8222 26.7494C17.2157 25.6758 17.6803 24.6369 18.2178 23.9684C18.886 23.1372 19.2242 22.8877 19.7325 22.4811C20.8221 21.6097 21.3481 21.3454 21.8442 21.0101C22.2934 20.7063 23.0633 20.2695 23.6637 20.0197C24.0431 19.8619 24.7226 19.5412 25.3081 19.2486C25.4483 19.1786 25.6552 19.1325 25.8024 19.0739C25.9495 19.0154 26.036 18.9578 26.0805 19.2019C26.3553 20.7075 26.2124 21.9462 26.1111 22.7532C25.902 24.4184 24.5549 26.2027 24.2051 26.611C23.8105 27.0716 23.5069 27.3974 22.8384 28.0218C22.2276 28.5923 21.1839 29.4601 20.2478 29.93C19.4537 30.3285 18.2741 30.3387 16.9786 30.2954C16.5457 30.281 16.5764 30.1657 16.6489 30.0348C17.0727 29.2689 17.7396 28.5659 18.0894 28.1423C18.468 27.7196 18.9902 27.3712 19.7033 26.8332C19.922 26.6725 20.1814 26.4996 20.6233 26.1468" stroke="#0012D4" stroke-linecap="round"/>
</svg>
