<svg width="26" height="48" viewBox="0 0 26 48" fill="none" xmlns="http://www.w3.org/2000/svg">
<path d="M13.2172 9.93543C12.8435 9.71722 12.408 9.65447 11.5352 9.85629C10.5728 10.0788 10.1285 10.6828 9.83118 11.2278C9.2227 12.3432 9.47108 13.2695 9.57972 13.9452C9.66301 14.4632 10.1566 14.8971 10.5776 15.2413C10.9351 15.5336 12.1158 15.5546 13.0266 15.3532C13.8446 15.1724 14.4637 14.4954 14.8224 14.0749C15.3374 13.4711 15.1839 11.9752 14.9821 11.0302C14.6229 10.4664 14.2492 10.3419 13.8433 10.1546C13.7182 10.1227 13.5637 10.1227 13.2172 10.2164" stroke="#0012D4" stroke-linecap="round"/>
<path d="M10.5949 9.93542C10.3149 9.56455 10.1267 6.95727 10.0489 5.3825C9.94102 3.19648 10.3439 2.63239 10.5317 2.21095C10.8105 1.58522 11.155 1.28941 11.5455 0.961623C11.9366 0.633359 12.4343 0.601997 12.9344 0.507876C13.181 0.461458 13.4036 0.631965 13.5749 0.771976C13.9211 1.05472 13.9973 1.41209 14.0596 1.59893C14.091 1.69305 14.1219 1.78577 14.246 1.72536C14.6404 1.53334 15.0256 1.13301 15.4152 0.992528C15.6981 0.890532 16.0867 0.975671 16.5231 1.06885C16.8645 1.14175 17.0251 1.41209 17.1651 1.62983C17.3423 1.90544 17.4934 2.31584 17.587 3.15403C17.7556 4.66308 17.5262 6.09098 17.3548 6.88609C17.1664 7.76002 16.9951 8.30961 16.7147 8.79426C16.4974 9.16967 16.216 9.55894 15.81 10.0427C15.5485 10.3542 15.2785 10.5591 15.1844 10.5755C14.5767 10.6813 16.0867 9.43906 16.4782 9.07803C17.2865 8.33257 18.8026 7.28318 19.5514 6.81538C20.1563 6.43744 21.3575 6.56392 22.1123 6.68801C22.7713 6.79635 23.2043 7.65404 23.5026 8.15415C23.6363 8.37839 23.6126 8.71606 23.5508 9.07428C23.4349 9.74635 22.8644 9.80992 22.8629 9.88812C22.8478 10.7307 24.2663 9.90358 24.6569 10.1527C24.9256 10.3241 25.0792 10.5901 25.1883 10.8078C25.3184 11.0673 25.2984 11.4011 25.2366 11.7279C25.0956 12.4737 24.4574 12.6813 24.0823 12.9936C23.4094 13.554 22.1161 14.0243 20.4837 14.2893C18.3039 14.6433 17.6545 14.2434 16.9507 14.1657C16.3803 14.1027 15.9341 14.1189 16.0408 14.1339C17.7007 14.3668 18.7708 15.1781 19.3646 15.6304C20.2009 16.2676 20.2711 16.7702 20.4434 17.1607C20.7416 17.8365 20.8649 18.7369 20.8813 20.5889C20.8856 21.0804 20.6794 21.3283 20.384 21.6242C20.0519 21.9568 19.5256 22.0166 19.1047 21.9857C18.436 21.9366 17.808 21.3929 17.4484 21.2983C16.7766 21.1216 16.9652 22.7003 16.3883 23.2168C16.0819 23.4911 15.7468 23.546 15.4363 23.5928C14.8846 23.676 14.2502 23.3924 13.7669 23.0028C13.0918 22.4585 12.9063 21.6439 12.5939 20.8338C12.4442 20.4454 12.3753 19.9591 12.2193 19.4604C11.708 17.8251 12.0934 15.5218 12.0779 15.8023C12.0481 16.3431 11.8442 17.1429 10.8183 19.6491C10.1135 21.3708 9.41115 21.6083 8.89559 22.0152C8.40052 22.406 7.54185 22.7621 6.91297 23.0309C6.42244 23.2405 5.946 22.7359 5.39907 22.3149C4.98983 21.9999 4.97576 21.2402 4.92941 20.6933C4.88779 20.2023 3.79199 21.1419 3.15188 21.1583C2.91282 21.1644 2.72904 20.9874 2.55765 20.8005C1.97925 20.17 1.88523 18.5252 2.13341 17.8673C2.76454 16.1942 4.41197 15.2118 4.89569 14.9004C5.60012 14.4469 6.44049 14.1816 7.15834 13.7457C7.57771 13.491 7.90896 13.3697 8.00355 13.3074C8.62842 12.896 6.01156 13.4923 4.13991 13.8211C3.15049 13.9948 2.57451 13.6516 2.15214 13.4638C1.55337 13.1976 0.890635 11.756 0.59001 10.4861C0.276525 9.16184 0.853174 8.44072 1.22825 7.89239C1.31001 7.77287 1.41509 7.68963 1.54012 7.62641C1.80335 7.49332 2.28793 7.65498 2.64803 7.81185C2.85402 7.90158 2.16712 7.40773 2.01119 7.17454C1.82263 6.89254 1.88523 6.28671 1.91613 5.67844C1.94953 5.02104 2.72623 4.6609 3.30313 4.48858C3.66137 4.38157 4.03736 4.31626 4.41104 4.36262C5.16744 4.45646 5.53581 5.06361 6.11271 5.46959C6.77815 5.93789 7.37514 6.52834 7.97077 7.04623C8.48012 7.48911 8.96911 7.87319 9.37603 8.23281C9.47015 8.31148 9.56287 8.37329 9.65699 8.42059C9.75111 8.46788 9.84383 8.49879 9.93935 8.53063" stroke="#0012D4" stroke-linecap="round"/>
<path d="M11.4378 18.5514C11.4687 18.5205 11.4996 18.4896 11.5155 18.5355C11.7689 19.2658 10.8777 20.9789 10.5027 21.8888C10.1258 22.803 9.87941 24.4385 9.73659 25.7285C9.66379 26.3861 9.59658 27.1319 9.54928 27.7739C9.49274 28.5414 9.40927 29.2859 9.36198 29.9279C9.3077 30.6648 9.22197 31.2845 9.17467 33.3406C9.16447 33.7842 9.12832 33.9386 9.1124 35.6562C9.09647 37.3738 9.09647 40.6497 9.11193 42.3837C9.13128 44.5558 9.4074 45.6733 9.56427 46.4576C9.62655 46.769 9.65839 47.1445 9.65839 47.4105C9.65839 47.4601 9.65839 47.3365 9.67384 47.211C9.6893 47.0855 9.7202 46.9619 9.75204 46.8345" stroke="#0012D4" stroke-linecap="round"/>
<path d="M9.37743 37.0947C9.37743 36.7856 9.37743 36.4719 9.47015 35.8515C9.65776 34.596 10.3411 33.106 11.0117 31.9672C11.5239 31.0972 12.6159 30.2955 14.0704 29.4334C15.224 28.7497 16.053 28.7915 17.551 28.7905C18.63 28.7898 19.6137 30.0052 20.177 30.7549C20.4884 31.1694 20.5221 31.7228 20.5998 32.3001C20.7692 33.5584 19.9621 34.7515 19.4474 35.3439C18.5699 36.3539 17.4334 36.7819 16.3742 36.7674C16.0582 36.763 15.9341 36.471 15.7472 36.2691C15.1468 35.6205 15.3094 34.7553 15.3085 33.5874C15.3081 33.1842 15.5267 32.9749 15.6667 32.8035C16.0567 32.5376 16.4932 32.4121 16.8205 32.443C16.9624 32.4739 17.0551 32.5357 17.3379 32.7867" stroke="#0012D4" stroke-linecap="round"/>
</svg>
