<svg width="28" height="48" viewBox="0 0 28 48" fill="none" xmlns="http://www.w3.org/2000/svg">
<path d="M13.449 13.5734C13.0015 13.6685 12.6826 14.1151 12.4252 14.8987C12.3002 15.2796 12.4243 15.6209 12.5357 15.9081C12.6828 16.2874 12.9679 16.5179 13.207 16.614C13.5186 16.7391 13.8322 16.5832 14.0397 16.4238C14.5555 16.0274 14.5054 15.3367 14.5852 14.856C14.6477 14.479 14.5381 14.1189 14.3945 13.8793C14.3143 13.7664 14.2192 13.6714 14.1069 13.6065C13.9945 13.5417 13.8677 13.51 13.5451 13.4774" stroke="#0012D4" stroke-linecap="round"/>
<path d="M14.6015 13.4774C14.6015 13.2546 14.7916 12.6169 15.0961 11.9758C15.7292 10.6427 16.3916 9.96043 16.9674 9.06438C18.172 7.18966 18.3451 6.56641 18.953 5.65357C19.391 4.99584 19.7223 4.38826 20.1059 3.85956C20.5527 3.24392 21.0015 2.85164 21.4188 2.52991C21.6012 2.3893 21.8034 2.30517 22.0109 2.28885C22.6309 2.24005 23.0836 3.00722 23.4836 3.88597C23.892 4.783 23.2488 6.71431 22.4954 7.95129C21.854 9.0043 21.038 9.82597 20.4939 10.5136C20.1069 11.0028 19.4073 11.6488 18.6538 12.1472C17.9455 12.6158 16.6279 13.535 15.4529 14.2121C15.2771 14.3133 15.1796 14.3724 15.4476 14.1991C16.3503 13.6151 17.3828 12.9674 18.1333 12.5679C19.4146 11.8858 21.2166 11.9407 22.5189 11.861C25.1589 11.6994 25.9936 12.0675 26.5089 12.2442C26.7185 12.3161 26.8935 12.4843 27.0534 12.6596C27.5456 13.1991 27.1192 14.2745 26.7682 15.4567C26.3488 16.8691 25.9994 17.2843 25.791 17.7175C25.654 18.0022 25.3588 18.1823 25.1196 18.3422C24.8305 18.5356 23.9874 18.4714 22.6313 18.3921C19.8611 18.2303 18.929 17.8644 18.3009 17.7194C17.6899 17.5783 17.1023 17.5436 16.5242 17.4951C16.0238 17.4532 15.6598 17.0961 15.2901 16.6639C14.7493 16.0319 17.3155 17.4111 18.057 17.7343C18.6441 17.9902 19.1441 18.9458 19.4827 19.6061C19.7414 20.1108 20.0104 21.2815 20.0915 22.0704C20.1695 22.8281 20.3312 23.4616 20.3797 24.1036C20.4192 24.6265 20.6193 25.3823 20.6044 26.5026C20.5963 27.1098 19.7895 27.1783 19.3573 27.402C18.6951 27.7449 17.5537 27.7852 16.892 27.9629C16.1547 28.1609 15.1796 27.3723 14.6994 26.8455C14.0031 26.0816 14.1539 25.3881 14.1054 24.8921C14.0472 24.2965 13.7717 23.3444 13.4817 22.1247C13.3469 21.5578 13.2896 20.9088 13.1455 20.2827C12.9088 19.2536 12.9054 18.5386 12.8728 17.657C12.8618 17.3614 12.6509 19.1667 12.2514 20.6697C11.8758 22.083 11.5936 22.6299 11.3213 23.1115C10.9759 23.7225 10.5371 24.1357 10.1376 24.4565C9.48299 24.9821 8.74696 25.4476 8.24852 25.6897C7.77789 25.9182 7.27373 26.2486 6.79209 26.4421C6.20838 26.6767 5.76688 26.7624 5.57528 26.7629C5.05455 26.7642 4.80745 26.0277 4.48668 25.6599C4.07369 25.1863 3.84706 24.5257 3.52629 23.9797C3.11918 23.2867 2.95006 22.5108 2.91645 21.7549C2.88962 21.1517 3.52245 20.6188 4.49773 19.9144C4.98775 19.5604 6.17312 18.8613 6.91694 18.456C7.36329 18.2128 8.19378 17.7069 9.07637 17.1446C9.60643 16.8069 10.1165 16.5525 10.7417 16.1679C11.0249 15.9936 11.2392 15.8149 11.1772 15.7823C10.6549 15.507 9.2963 16.1655 7.84084 16.2937C6.66464 16.3973 5.77168 15.9436 4.42714 15.5917C2.90392 15.1929 2.43914 15.0793 1.95846 14.855C1.54291 14.6612 1.09459 14.1842 0.694591 13.7208C0.427249 13.4111 0.483786 13.0625 0.578864 12.7436C0.853742 11.8218 1.60168 11.5912 2.32197 10.5842C2.86289 9.82799 3.39568 9.09415 3.92197 8.58179C4.53748 7.98256 5.2838 7.81108 5.61946 7.82692C6.11613 7.85037 6.84924 8.57555 7.33327 9.05814C7.84668 9.57002 8.51647 10.0507 9.14024 10.4661C10.2613 11.2126 10.8214 11.7467 11.5734 12.4502C11.8643 12.7224 12.2303 13.0269 12.5981 13.4106C12.7489 13.5679 12.8075 13.6675 12.5866 13.4313C11.1851 11.9323 10.8252 11.4625 10.6327 10.9189C10.2577 9.86031 9.86485 8.52176 9.60843 7.65405C9.34596 6.7659 9.25597 6.24565 9.23916 4.58417C9.23094 3.77167 9.54216 3.01298 9.78274 2.43483C10.0609 1.76633 10.5026 0.994245 11.0298 0.736861C11.4806 0.516808 11.9739 0.60817 12.4704 0.528457C13.4057 0.378293 14.2461 0.863633 14.7119 1.02354C15.2592 1.21142 15.3371 1.85475 15.4495 2.70037C15.5689 3.59875 15.4975 4.25668 15.5455 4.71767C15.6491 5.71218 15.4034 7.2262 15.1633 8.58611C14.9959 9.53418 14.8896 10.4944 14.794 11.2022C14.6658 11.8754 14.6015 12.3864 14.5856 12.8181C14.5698 12.9962 14.5381 13.0913 14.5054 13.1892" stroke="#0012D4" stroke-linecap="round"/>
<path d="M12.6807 18.3753C12.6807 18.312 12.6807 19.4519 12.6332 21.5139C12.5994 22.9802 12.3926 23.7833 12.3451 24.4205C12.2686 25.4451 12.1045 26.2169 12.0411 26.8215C11.8212 28.919 11.5936 29.7348 11.4966 30.5055C11.4435 30.9274 11.2411 31.7507 11.097 33.6455C10.999 34.9354 11.0481 36.9031 11.0639 38.0105C11.0798 39.1178 11.1114 39.308 11.1278 40.7529C11.1441 42.1978 11.1441 44.8916 11.1441 46.216C11.1441 47.5404 11.1441 47.4136 11.1441 47.283" stroke="#0012D4" stroke-linecap="round"/>
<path d="M11.3362 42.5771C11.5599 41.7137 11.8144 41.2037 12.0238 40.738C12.4318 39.8303 13.4471 38.7375 13.7837 38.2414C14.2298 37.584 14.759 37.1375 15.2243 36.7999C15.7163 36.443 16.1304 34.2352 16.8238 33.0251C17.3871 32.0421 18.3432 31.1523 18.9511 30.5286C19.5614 29.9023 20.8363 29.2623 21.5945 29.1634C21.7108 29.1482 21.8025 29.2584 21.8831 29.3386C22.4345 29.8867 21.6488 31.8765 21.134 32.9535C20.5368 34.2032 19.8529 34.5079 18.9439 35.3862C17.7686 36.5217 17.1004 36.7168 16.6999 36.9262C16.4608 37.0376 16.2351 37.1663 16.0435 37.2306C15.947 37.2316 15.8519 37.1682 15.7539 37.0069" stroke="#0012D4" stroke-linecap="round"/>
<path d="M10.856 42.0009C10.7609 41.8098 10.5045 41.2364 10.201 40.2597C9.90937 39.3211 9.44805 38.1305 8.9693 37.1067C8.6818 36.492 8.3609 36.081 7.91336 35.2825C6.94773 33.5595 6.18466 33.1672 5.76737 32.7187C5.43962 32.3665 4.99954 32.1108 4.59906 31.8217C4.18042 31.5195 3.75104 31.4059 3.35055 31.1811C3.24851 31.1239 3.11142 31.1485 3.04611 31.4496C2.7029 33.0319 3.52054 34.1487 4.35464 35.4506C4.79125 36.132 5.31647 36.7802 5.87445 37.5144C7.36669 39.478 8.03436 40.2664 8.58131 40.847C9.2531 41.295 9.95706 41.7435 10.3902 41.9999C10.5026 42.0643 10.6293 42.1276 10.7599 42.193" stroke="#0012D4" stroke-linecap="round"/>
</svg>
