<svg width="27" height="48" viewBox="0 0 27 48" fill="none" xmlns="http://www.w3.org/2000/svg">
<path d="M12.8361 9.96152C12.5182 9.92886 11.8142 10.1843 11.3172 10.568C11.0369 10.7844 10.948 11.2715 10.8519 11.83C10.741 12.4748 11.0411 13.1913 11.504 13.7354C12.1002 14.4361 13.0243 13.9318 13.8253 13.6288C14.0747 13.5344 14.3036 13.2633 14.4342 13.0698C14.8391 12.4698 14.6608 11.7248 14.5494 11.3075C14.3093 10.8912 13.9271 10.3802 13.4301 9.99465C13.3172 9.92982 13.2222 9.89813 12.8361 9.86548" stroke="#0012D4" stroke-linecap="round"/>
<path d="M12.8361 7.75265C12.039 7.65661 11.2053 7.72 10.7568 7.95961C10.3605 8.17135 10.3717 8.7745 10.2435 9.19179C10.1212 9.58997 9.76476 9.95962 9.38013 10.2487C8.93279 10.5849 8.38757 10.92 8.06728 11.3363C7.70691 11.8048 7.87472 12.424 7.85791 13.7978C7.85314 14.1882 8.00149 14.3784 8.14507 14.5541C8.44054 14.9158 8.99261 14.9229 9.37725 15.0511C9.82543 15.2005 10.1777 15.7219 10.3544 16.1066C10.5371 16.5041 10.9441 17.0012 11.4738 17.3397C11.6615 17.4597 12.0966 17.4526 12.6877 17.3892C13.7295 17.2775 14.0519 16.302 14.2915 15.9491C14.525 15.6052 15.1698 15.5011 15.7153 15.3402C16.2519 15.182 16.8351 14.9575 17.2524 14.6367C18.02 14.0466 17.7321 12.301 18.1168 11.7724C18.5069 11.2362 18.7252 10.8278 18.8385 10.3956C18.9256 10.0635 18.5994 9.80212 18.3919 9.69023C17.84 9.39256 17.1597 9.09911 16.8865 8.69863C16.5951 8.27145 16.6459 7.84965 16.5504 7.6739C16.321 7.25198 15.433 7.36849 14.8707 7.54377C14.4697 7.6883 14.1816 7.81604 13.8949 7.91207C13.7033 7.94473 13.4181 7.94473 12.9321 7.84869" stroke="#0012D4" stroke-linecap="round"/>
<path d="M9.57076 9.86549C9.44399 9.67437 8.86968 9.22779 8.35635 8.57233C7.51566 7.49885 7.52321 6.85948 7.36235 6.09069C7.25398 5.57281 7.10641 5.06547 7.0896 4.12285C7.07677 3.40348 7.80749 2.53773 8.22478 2.07194C8.71536 1.52434 9.37676 1.15862 9.85696 0.950692C10.3546 0.735216 10.8173 0.582383 11.3134 0.533884C12.3797 0.429623 13.9213 0.580463 14.546 0.788867C15.465 1.09543 15.9381 1.38143 16.4356 1.62104C16.7756 1.78481 17.0291 1.98935 17.1569 2.21264C17.4789 2.77562 17.4459 4.72742 17.3662 5.95767C17.3226 6.6312 17.1905 7.07845 17.1098 7.32046C17.0311 7.55672 17.3489 6.76152 17.5564 6.53775C17.9951 6.06453 18.8827 5.96055 19.7955 5.97544C20.5372 5.98754 21.251 6.43883 21.846 6.6794C22.252 6.84359 22.6935 7.17448 23.1425 7.57497C23.7089 8.08018 24.0707 8.67845 24.2801 9.15913C24.5981 9.8894 24.6162 10.63 24.633 12.3399C24.6418 13.2365 24.234 13.8645 23.9458 14.3135C23.5646 14.9076 23.1141 15.1784 22.6498 15.5303C22.1496 15.9095 21.5775 16.1714 21.0656 16.3952C20.4153 16.6795 19.1209 16.6842 18.2959 16.5728C17.8311 16.3644 17.4479 16.2367 17.0791 15.9971C16.9984 15.9169 16.935 15.8218 16.7737 15.5318" stroke="#0012D4" stroke-linecap="round"/>
<path d="M9.76284 15.7238C8.77076 16.4912 8.57964 16.9378 8.43463 17.3868C8.25675 17.9375 8.32226 18.7913 8.41782 19.4036C8.51956 20.0554 8.83319 20.7467 9.04159 21.308C9.31913 22.0556 10.049 22.3813 10.9595 22.6857C11.6496 22.9165 12.3194 22.8307 13.104 22.9104C14.9692 23.0999 15.6827 22.7673 16.4663 22.4322C17.2007 22.1181 17.6034 21.8396 18.2282 21.2485C18.5887 20.9073 18.7252 20.1781 18.9019 19.4876C19.1103 18.9267 19.2063 18.4465 19.2544 18.0004C19.2707 17.7128 19.2707 17.3008 19.0786 16.6842" stroke="#0012D4" stroke-linecap="round"/>
<path d="M7.45791 7.46451C7.13907 7.4962 6.43798 7.68732 4.96763 8.4369C2.66733 9.60959 2.27182 11.3675 2.1124 11.8804C1.89245 12.5879 1.88767 13.6398 1.80795 14.5349C1.64391 16.3769 3.06894 17.6408 3.61444 18.1392C4.09237 18.5759 4.54218 18.7644 5.22982 18.9882C5.78684 19.1159 6.27184 19.2129 6.73378 19.261C7.03726 19.2773 7.48096 19.2773 7.93811 19.2773" stroke="#0012D4" stroke-linecap="round"/>
<path d="M12.74 23.2149C12.74 24.2377 12.7084 24.7813 12.6603 26.1474C12.6201 27.2911 12.644 29.3518 12.6282 30.5398C12.6089 31.9819 12.548 32.5278 12.5163 33.2293C12.4292 35.1562 12.2925 36.2416 12.244 37.3283C12.2253 37.7478 12.1638 39.1131 12.1797 41.0171C12.1908 42.3578 12.3232 43.189 12.3717 44.0039C12.4151 44.733 12.6114 45.3653 12.6757 45.9256C12.7708 46.3237 12.8361 46.8058 12.8202 47.1425C12.8044 47.2255 12.7727 47.1304 12.74 47.0325" stroke="#0012D4" stroke-linecap="round"/>
<path d="M12.548 32.5306C12.6738 32.0543 13.5045 30.9652 14.3857 29.9573C14.9252 29.3401 15.7441 28.5642 16.4832 28.0346C17.5711 27.2548 19.5876 27.1525 20.2128 27.0569C20.3578 27.0247 20.4846 26.993 20.6133 26.9767C20.742 26.9604 20.8688 26.9604 20.7113 26.9604" stroke="#0012D4" stroke-linecap="round"/>
<path d="M17.2539 27.5366C17.4133 26.6098 17.9857 25.6543 18.6762 24.8019C19.0945 24.2856 19.6529 24.1445 20.9763 23.7445C22.9916 23.1354 23.7807 23.8218 24.6138 24.3649C25.2987 24.8114 25.5113 25.516 25.6889 26.2526C26.0275 27.656 25.227 28.6526 24.8428 29.2629C24.2146 30.2611 23.531 30.4485 22.3026 30.753C20.1995 31.2742 19.626 30.6425 19.1127 30.4985C18.3953 30.2971 17.8973 29.8761 17.4474 29.3474C17.2558 29.0444 17.1261 28.7861 17.0623 28.5945C17.0301 28.498 16.9984 28.4029 16.7737 28.3049" stroke="#0012D4" stroke-linecap="round"/>
<path d="M12.1638 34.0673C11.3033 32.983 10.2142 31.8929 9.54196 31.2528C8.32419 30.5465 7.68457 30.291 7.26728 30.1301C7.17076 30.098 7.07568 30.0663 6.97772 30.0336" stroke="#0012D4" stroke-linecap="round"/>
<path d="M9.57076 31.2821C9.41134 30.8989 8.96572 30.072 8.45191 29.2677C8.10416 28.7233 7.84399 28.3068 7.53906 27.9539C7.25716 27.6276 6.78756 27.4732 5.84494 26.9465C5.29501 26.6391 4.67471 26.6089 3.49295 26.5921C2.9338 26.5841 2.56185 26.8951 2.09751 27.1356C1.67129 27.3565 1.09054 27.7902 0.736157 28.2391C0.265228 28.8358 0.606504 29.8704 0.830275 30.352C1.08407 30.8982 1.40555 31.2802 1.71047 31.7445C1.99783 32.1822 2.49271 32.6555 3.10207 33.0737C3.51998 33.3606 5.29896 33.2989 6.49464 33.092C7.48864 32.7237 8.06295 32.3405 8.59261 31.9717C8.70545 31.891 8.80053 31.8276 8.89849 31.7623" stroke="#0012D4" stroke-linecap="round"/>
</svg>
