<svg width="16" height="43" viewBox="0 0 16 43" fill="none" xmlns="http://www.w3.org/2000/svg">
<path d="M8.3168 3.16953C7.86634 3.16953 6.95606 3.22573 6.37489 3.38156C5.73868 3.55214 5.3671 4.07555 5.01116 4.30419C4.52759 4.61481 4.0336 6.16862 3.87479 7.21174C3.79003 7.76848 3.71853 9.28863 3.80326 10.193C3.85664 10.7626 4.17155 11.1995 4.76634 11.853C4.94754 12.0521 5.41819 12.166 6.35062 12.3788C8.73658 12.9236 9.36419 12.2247 10.3422 11.7159C11.3697 11.1813 11.7468 9.96134 12.1197 8.99102C12.325 8.45701 12.2338 7.29434 12.1632 6.56288C12.1206 6.12263 11.9511 5.55722 11.5684 4.83257C11.2931 4.31144 10.5921 3.96656 10.0922 3.69535C9.6801 3.56719 9.22794 3.51014 8.81495 3.43946C8.71532 3.42498 8.60292 3.42498 8.48711 3.42498" stroke="#0012D4" stroke-linecap="round"/>
<path d="M8.3168 12.7918C8.2887 12.8199 8.2606 12.848 8.18992 15.4477C8.11925 18.0475 8.00684 23.218 7.93489 25.9377C7.85994 28.7707 7.74968 29.2792 7.66453 29.9455C7.57212 30.6686 7.55042 31.6328 7.47975 32.4877C7.41406 33.2823 7.38012 34.0188 7.30944 35.2922C7.26727 36.0521 7.29496 37.43 7.28091 38.2096C7.20981 40.1174 7.23791 41.9133 7.29454 41.9989C7.32307 42.0002 7.35117 41.9159 7.38012 41.829" stroke="#0012D4" stroke-linecap="round"/>
<path d="M8.06134 14.1543C7.97704 14.2675 7.58108 14.437 6.92838 14.523C6.43546 14.5879 5.99212 15.1182 5.3671 15.134C5.08215 15.1411 4.91153 14.8363 4.76975 14.6524C4.45441 14.2433 4.51386 13.5326 4.37208 13.0911C4.25752 12.7344 3.46648 12.8208 2.91171 12.679C2.54349 12.5849 2.27178 12.395 2.0738 12.1974C1.75828 11.8826 1.64676 11.5154 1.60418 11.2893C1.4884 10.6745 1.70296 10.3803 1.70339 10.1819C1.70433 9.74082 0.995338 9.52875 0.696451 8.80793C0.157125 7.50725 0.87953 7.00311 1.06389 6.59139C1.2431 6.19117 1.89796 5.58616 2.27008 5.11526C2.56969 4.73612 2.52639 4.22201 2.6818 3.83797C2.76568 3.63066 2.83805 3.42583 2.96536 3.25595C3.24174 2.88712 4.08299 2.77441 4.55474 2.46104C4.95509 2.1951 5.10823 1.72362 5.6464 1.1846C6.06891 0.761419 6.69719 0.81418 7.68837 0.813329C8.38595 0.81273 9.22113 0.843133 9.72013 0.686451C10.3031 0.503395 10.868 0.444616 11.3099 0.557444C11.7894 0.679854 11.9205 1.26549 12.0491 1.74788C12.1797 2.23806 12.1478 2.65775 12.3599 2.81358C12.9741 3.26503 13.7649 3.33812 14.1766 3.69321C14.6051 4.06278 14.8157 4.75507 14.9443 5.29621C15.1285 6.07148 14.7884 6.54498 14.7178 7.084C14.6031 7.95884 14.986 8.53076 15.0865 9.1281C15.1803 9.68596 14.3371 10.0925 14.051 10.6604C13.6543 11.4479 14.3048 12.2196 13.9957 13.1294C13.7771 13.7728 12.6937 13.8954 12.2347 14.3233C11.9458 14.5926 11.8098 14.9479 11.4406 15.1612C10.8215 15.519 9.82401 15.2051 9.41102 15.0773C9.31139 15.0348 9.19899 14.9785 9.09893 14.9355C8.99888 14.8925 8.91458 14.8644 8.65742 14.7503" stroke="#0012D4" stroke-linecap="round"/>
</svg>
