<svg width="27" height="47" viewBox="0 0 27 47" fill="none" xmlns="http://www.w3.org/2000/svg">
<path d="M12.3858 10.4752C12.6826 10.419 13.0266 10.419 13.4762 10.419C13.6482 10.5059 13.7325 10.5902 13.8181 10.6613C13.9879 10.7886 14.1881 10.8737 14.4146 10.9448C14.8403 11.1871 15.2598 11.5338 15.3359 11.953C15.4347 12.4967 15.6571 13.3022 15.3206 14.0265C14.9766 14.7669 14.1845 15.7966 13.3727 15.9548C12.7915 16.0681 12.2386 16.1757 11.8251 15.9084C11.1447 15.4686 10.5841 15.0708 10.409 14.6873C10.1825 14.1913 9.89848 13.4752 10.099 12.828C10.3272 12.0914 11.138 10.7115 12.3858 10.4752Z" stroke="#0012D4" stroke-linecap="round"/>
<path d="M14.498 10.8448C14.5261 10.3917 14.7518 9.93873 15.0502 9.34308C15.691 8.06434 17.022 7.09972 17.9991 6.36315C19.0461 5.57389 19.8882 5.50906 20.5413 5.32471C21.7155 4.99326 23.4365 5.30895 23.9181 5.56313C25.2676 6.27548 25.1132 8.56946 25.1703 9.21024C25.2412 10.0075 25.51 10.6693 25.582 11.4102C25.6562 12.1745 25.5407 13.1422 25.2005 13.7515C24.8092 14.4522 24.3213 14.6187 23.6545 14.8461C23.1467 15.0193 22.6472 15.1586 22.0507 15.343C21.6931 15.4535 20.3284 15.443 18.5266 15.429C17.5034 15.421 17.0543 15.2165 16.3599 14.9615C16.2019 14.904 16.1176 14.8759 16.032 14.8333C15.9465 14.7908 15.8622 14.7345 15.605 14.6766" stroke="#0012D4" stroke-linecap="round"/>
<path d="M12.9653 16.1242C12.9653 16.6863 12.9372 17.1163 12.9086 17.9193C12.8432 19.761 12.9934 21.0904 13.0641 21.4433C13.1846 22.0452 13.5579 23.1562 14.1391 24.3334C14.4498 24.9627 14.7526 25.1215 14.9225 25.2207C15.2998 25.4411 15.9712 25.2084 17.1318 24.7558C18.2725 24.311 19.0094 23.6475 19.4195 23.3222C20.4197 22.5287 21.0514 21.8057 21.5359 21.2211C21.8932 20.7901 21.9626 20.2712 22.1329 19.5759C22.3326 18.7604 21.5981 17.9465 20.7598 17.0494C20.2925 16.5494 19.7792 16.4666 19.2262 16.1536C19.0971 16.0961 19.0128 16.068 18.8851 16.0536C18.7574 16.0391 18.5888 16.0391 18.4151 16.0391" stroke="#0012D4" stroke-linecap="round"/>
<path d="M9.89977 14.2509C9.84357 14.2509 9.61791 14.2509 8.80001 14.3773C5.87894 14.829 5.36111 15.2438 4.93406 15.4422C4.176 15.7944 2.89507 16.8004 2.39309 17.3151C2.07669 17.6396 1.86813 18.1645 1.82427 19.1719C1.79946 19.7418 2.74009 20.9678 3.72276 22.1527C4.45164 23.0316 5.10054 22.9927 5.55526 23.2052C6.04804 23.4354 6.68779 23.9549 7.31494 24.3547C7.75611 24.636 8.50666 24.4131 9.03206 24.1299C9.52853 23.8624 10.1791 23.3657 10.7496 22.9378C11.2043 22.5967 11.6573 22.2008 11.9707 21.8167C12.3122 21.4046 12.4254 21.1491 12.5246 20.9793C12.5676 20.8937 12.5957 20.8094 12.6247 20.5522" stroke="#0012D4" stroke-linecap="round"/>
<path d="M10.8364 11.2705C10.6389 10.8473 9.62385 9.15362 8.66758 8.00874C8.23542 7.49134 7.74538 6.90217 7.31833 6.54581C6.80142 6.11445 6.43913 5.68108 5.51905 5.28256C4.7534 4.95093 4.11019 5.28086 3.91221 5.42221C3.37068 5.80885 3.11645 6.24479 2.84737 6.59988C2.54981 6.99254 1.84427 8.251 1.32866 9.12595C1.10238 9.50994 0.819022 10.2725 0.561859 11.1815C0.384933 11.8069 0.617209 12.432 0.899491 12.9272C1.57212 14.1071 2.45907 14.3054 2.97212 14.5481C3.73807 14.847 4.4755 14.9032 4.88849 15.0028C4.98812 15.0173 5.10052 15.0173 5.30148 15.1024" stroke="#0012D4" stroke-linecap="round"/>
<path d="M11.0067 10.6745C10.724 10.5621 10.3834 10.1652 10.0007 9.57002C9.63201 8.99675 9.44674 8.57628 9.27601 8.20629C9.05688 7.73142 8.65141 7.35519 8.453 6.94347C8.24883 6.51978 8.05534 5.96549 8.01234 5.28384C7.97281 4.6573 7.99743 3.75151 8.19584 3.28189C8.44817 2.68464 9.04652 1.99054 9.31688 1.66355C9.57582 1.35038 10.3766 1.08281 11.0753 0.868225C11.8642 0.625938 12.2823 0.655342 12.9614 0.555713C14.3125 0.357505 14.6666 0.738792 15.0639 0.909524C15.6949 1.18076 16.0291 1.47622 16.2147 1.83131C16.4413 2.26467 16.7103 2.83696 16.8819 3.27891C17.0237 3.69105 17.1659 4.05891 17.2084 4.6801C17.2229 5.10459 17.2229 5.7509 17.1378 6.4168" stroke="#0012D4" stroke-linecap="round"/>
<path d="M11.9434 6.5871C11.9434 6.6433 11.9715 6.78465 12.0141 7.05331C12.0286 7.40627 12.1129 8.00234 12.2547 8.64056C12.3121 8.88538 12.3402 8.96968 12.4543 8.97138" stroke="#0012D4" stroke-linecap="round"/>
<path d="M13.391 6.75742C13.391 6.95412 13.391 7.15082 13.391 7.40671C13.391 7.66259 13.391 7.9717 13.3059 8.37532" stroke="#0012D4" stroke-linecap="round"/>
<path d="M16.8823 11.3557C17.2485 11.2714 18.0438 10.9878 18.7246 10.7605C19.0367 10.6472 19.2939 10.5612 19.5344 10.5186C19.6626 10.5042 19.8031 10.5042 19.9478 10.419" stroke="#0012D4" stroke-linecap="round"/>
<path d="M17.3932 13.1439C17.4494 13.1439 17.8437 13.1439 18.4393 13.1298C18.754 13.0877 19.0375 13.0306 19.3918 12.9881C19.5493 12.9736 19.6617 12.9736 19.7775 12.8884" stroke="#0012D4" stroke-linecap="round"/>
<path d="M14.7535 18.5085C14.6973 18.5085 14.7807 18.7333 14.9792 19.1161C15.1214 19.3584 15.2355 19.5576 15.3487 19.7841C15.4058 19.8982 15.462 20.0106 15.5199 20.2116" stroke="#0012D4" stroke-linecap="round"/>
<path d="M16.2862 17.9125C16.2862 17.9687 16.3705 18.1662 16.5264 18.4638C16.6541 18.6772 16.7682 18.8483 16.8955 19.0041C16.9666 19.0757 17.0509 19.1319 17.1378 19.1898" stroke="#0012D4" stroke-linecap="round"/>
<path d="M7.00455 17.9976C7.06075 17.9976 7.2021 17.9414 7.41456 17.8282C7.59892 17.7149 7.85438 17.5727 8.18009 17.4028C8.33719 17.3172 8.4777 17.2329 8.79276 16.9758" stroke="#0012D4" stroke-linecap="round"/>
<path d="M9.13336 19.7007C9.13251 19.6445 9.47227 19.4742 9.92614 19.2477C10.0683 19.1625 10.2369 19.0501 10.38 18.9781C10.5231 18.9062 10.6355 18.8781 10.8364 18.6788" stroke="#0012D4" stroke-linecap="round"/>
<path d="M5.55695 11.0151C5.83795 11.1275 6.15131 11.2697 6.47703 11.4536C6.77464 11.6656 7.0599 11.8939 7.32898 12.0923C7.45756 12.1783 7.56997 12.2345 7.85608 12.3775" stroke="#0012D4" stroke-linecap="round"/>
<path d="M8.79276 11.1002C8.45556 10.8754 8.16944 10.7034 7.95698 10.5901C7.77263 10.4769 7.54527 10.3347 7.29024 10.1929C7.1757 10.1354 7.0914 10.1073 7.00455 10.0784" stroke="#0012D4" stroke-linecap="round"/>
<path d="M12.795 16.55C12.795 16.5781 12.795 16.6062 12.795 17.6885C12.795 18.7708 12.795 20.9065 12.809 22.0488C12.8266 23.4763 12.9925 24.2649 13.0645 25.3033C13.0774 25.4903 13.1066 25.5745 13.1211 26.742C13.1356 27.9094 13.1356 30.1575 13.1075 31.5123C13.0712 33.2621 12.9653 33.8625 12.9512 34.2729C12.9061 35.5905 12.9925 37.4636 13.0645 38.1202C13.0986 38.4319 13.1356 39.813 13.1637 41.7983C13.1791 42.8876 13.3059 44.1022 13.2918 45.5208C13.2867 46.0404 13.2497 46.1526 13.2211 46.0841C12.9534 45.4408 13.2207 44.9367 13.2914 44.5245C13.4284 43.7258 13.5886 42.7516 14.0556 41.2657C14.654 39.362 15.1775 38.8618 15.6459 38.224C15.9617 37.794 16.3969 37.387 16.7959 36.9174C17.0947 36.5656 16.9964 36.1369 17.0658 34.3836C17.1348 32.641 17.8462 32.2778 18.1443 31.8789C18.3916 31.5478 18.754 31.227 19.3777 30.5884C19.7236 30.2343 20.0313 29.9208 20.457 29.5938C20.9261 29.2335 21.9285 28.8427 22.5999 28.6422C22.863 28.5636 23.4067 28.5566 24.0309 28.669C25.2209 28.8833 24.3196 31.1946 24.2485 31.8461C24.1118 33.0985 23.1581 34.2295 22.505 34.9686C21.7722 35.7979 21.0293 36.2476 20.4609 36.5316C19.8505 36.8366 18.4525 36.9016 17.707 36.8309C17.5929 36.8201 17.4528 36.8165 17.4226 36.7181C17.1883 35.9558 18.6654 35.0896 19.1802 34.6885C19.2657 34.6314 19.35 34.5752 19.4637 34.5041C19.5774 34.433 19.7179 34.3487 19.9478 34.2619" stroke="#0012D4" stroke-linecap="round"/>
<path d="M13.1356 41.0741C13.1356 40.1707 12.7422 38.1329 12.2146 37.1026C11.9485 36.5827 11.6607 36.2221 11.4334 35.867C11.1796 35.4706 10.9795 35.1151 10.4554 34.5901C10.1343 34.2686 9.73116 34.1205 9.36202 33.894C8.45704 33.3387 7.60233 32.2761 7.34559 32.0909C7.07378 31.8948 8.44705 32.8943 9.17383 33.4657C9.56776 33.7754 10.1518 34.2585 10.4809 34.6021C10.8575 34.9952 10.5248 33.1004 10.3971 32.6457C10.2572 32.148 10.0428 31.6528 9.81546 31.2828C9.52288 30.8067 9.07888 30.12 8.77957 29.75C8.45614 29.3502 7.94464 28.6179 7.51675 28.1181C7.18274 27.7279 6.83595 27.3951 6.32546 26.8697C5.80848 26.3377 4.93704 26.1451 4.36694 25.8756C3.57904 25.5031 3.20332 25.3498 2.76265 25.1654C2.41402 25.0195 2.15168 24.924 1.9818 24.8248C1.89909 24.7765 1.81192 24.7537 1.71229 24.95C1.41665 25.5324 1.38445 26.283 1.3985 26.765C1.43576 28.0432 2.26323 29.9446 2.56126 30.3717C2.89218 30.8458 3.05856 31.2798 3.39789 31.9312C3.9156 32.9251 4.56066 33.5193 5.10096 34.1605C5.53498 34.6756 6.17857 35.1117 6.97305 35.4668C7.72336 35.8021 8.25119 36.0501 8.78979 36.1208C9.46548 36.1352 10.0122 36.1071 10.2668 36.0224C10.409 35.9658 10.5776 35.8815 10.8364 35.6243" stroke="#0012D4" stroke-linecap="round"/>
</svg>
