<svg width="23" height="49" viewBox="0 0 23 49" fill="none" xmlns="http://www.w3.org/2000/svg">
<path d="M11.8966 47.8452C12.0099 47.3351 12.1231 46.7706 12.1942 45.9046C12.245 45.2865 12.4356 44.7252 12.4782 44.0052C12.5523 42.7535 12.5208 41.8853 12.5634 40.5493C12.6032 39.2981 12.5779 36.8809 12.5919 35.5236C12.6121 33.5681 12.6068 32.8344 12.5638 32.1651C12.5243 31.5509 12.3803 30.5949 12.3083 29.7808C12.2517 29.1399 12.181 28.5751 12.138 28.0633C12.083 27.4086 12.0107 26.8993 11.9677 26.0635C11.9189 25.1139 11.8404 23.6362 11.5854 21.9936C11.4314 21.0018 11.4147 20.2011 11.3717 18.771C11.3489 18.0131 11.2444 17.2769 11.2014 14.957C11.1864 14.1484 11.0451 13.4195 10.9744 12.5531C10.8669 11.2348 10.8748 10.4392 10.8041 9.89715C10.7194 9.24772 10.7045 8.73439 10.4077 7.36044C10.2221 6.50091 10.2225 5.98054 10.1795 4.33836C10.1084 3.42765 10.0803 2.48841 10.0377 2.14907C10.0233 1.95024 10.0233 1.69734 10.1084 1.43677" stroke="#0012D4" stroke-linecap="round"/>
<path d="M12.4927 39.3299C12.6042 39.358 13.2846 39.3588 14.7577 38.8637C15.212 38.711 16.0895 38.142 17.4503 37.3769C18.894 36.5652 19.1329 36.0668 19.5446 35.6134C20.0242 35.0852 20.7491 33.7183 21.0923 32.4929C21.3302 31.6434 21.4338 30.5642 21.5044 30.0354C21.5667 29.5693 21.6041 28.7198 21.6607 28.1761C21.6696 28.091 21.633 28.0062 21.5623 27.9487C21.4917 27.8913 21.3793 27.8632 21.2511 27.9189C20.6337 28.1876 20.0764 29.4998 19.4769 30.3586C19.1318 30.853 18.3171 31.4634 17.5618 32.0897C16.8904 32.6465 16.4966 32.7441 16.1555 32.8578C16.07 32.8863 15.9857 32.9144 15.9001 32.943C15.8145 32.9715 15.7302 32.9996 15.8136 32.9434" stroke="#0012D4" stroke-linecap="round"/>
<path d="M12.663 39.5853C12.3522 39.4159 11.6173 39.0199 10.4822 38.4949C9.0195 37.8185 8.29465 37.2879 7.52827 36.5935C7.08219 36.1893 6.70399 36.0668 6.12367 35.6708C4.78438 34.757 4.63136 34.3075 4.17792 33.8111C3.74455 33.3366 3.58057 32.7748 3.25486 31.925C3.13714 31.6178 3.09775 31.3834 3.06923 31.1709C2.94419 30.2397 6.07385 31.0121 6.68611 31.2254C6.92709 31.2965 7.1272 31.3536 7.29708 31.4102C7.38266 31.4387 7.46696 31.4668 7.72412 31.5809" stroke="#0012D4" stroke-linecap="round"/>
<path d="M15.3879 33.0286C15.5003 32.8872 15.9533 32.6045 16.3514 32.2635C16.9498 31.7508 17.544 31.1569 18.2235 30.4203C18.7647 29.8337 19.0188 29.2563 19.4595 28.6313C19.796 28.1539 20.0696 27.6946 20.34 27.2399C20.6061 26.7923 20.8649 26.4735 21.0076 26.1043C21.1891 25.6346 21.3197 25.1689 21.7727 23.3002C22.0097 22.3227 22.1133 21.3967 22.2142 20.4148C22.2451 20.1146 22.2853 19.0728 22.215 17.6678C22.1909 17.1856 22.0043 17.1901 21.8757 17.2322C21.333 17.4102 20.8411 18.4044 20.4273 18.977C20.1824 19.3159 19.9589 19.6578 19.7175 19.9708C19.6617 20.0432 19.5621 20.0563 19.5327 20.0146C19.2091 19.5549 19.8721 18.5559 19.887 16.8278C19.8949 15.9126 19.7597 15.2333 19.7026 14.7654C19.6159 14.054 19.419 13.503 19.3054 13.09C19.1496 12.524 19.1074 11.6023 18.9507 11.1033C18.7515 10.469 18.6527 9.89757 18.5109 9.52758C18.3583 9.12945 18.1417 8.93109 18.0144 8.78931C17.9534 8.72128 17.859 8.70373 17.7735 8.71735C17.4002 8.77678 17.1778 9.32535 16.8508 9.78006C16.5645 10.1782 16.3825 10.5464 16.1411 10.8734C16.0812 10.9546 15.9857 11.0012 15.9422 10.6929C15.6963 8.94688 15.7575 8.53512 15.6157 8.12298C15.4171 7.54564 15.0779 7.06027 14.7079 6.49102C14.3124 5.88249 13.5179 4.9042 13.1467 4.31962C12.7955 3.76672 12.3241 3.42594 11.983 3.07C11.6971 2.77159 11.4436 2.4603 11.1315 2.07711C10.9616 1.78078 10.8186 1.52277 10.7053 1.35289C10.6483 1.26731 10.5921 1.183 10.3639 0.925842" stroke="#0012D4" stroke-linecap="round"/>
<path d="M7.72411 31.3255C7.4133 31.3255 6.90323 31.2131 6.23648 30.7737C5.75141 30.454 5.17292 30.135 4.57557 29.6952C3.98401 29.2597 3.46986 28.8015 3.01386 28.3047C2.49367 27.7379 2.36116 27.3812 1.99202 26.8009C1.55331 26.1112 1.39553 25.6509 1.18222 25.2809C0.973741 24.9193 0.884607 24.2612 0.671299 23.6638C0.477211 23.1203 0.515043 22.6416 0.500141 21.8765C0.495075 21.6163 0.627445 21.4205 0.754749 21.2221C0.868505 21.0448 1.19371 21.022 1.54795 21.036C2.03455 21.0553 2.41396 21.3336 2.89678 21.4333C3.03677 21.4621 3.20758 21.4477 3.28039 21.4056C3.3532 21.3634 3.3251 21.2791 3.26847 21.1795C3.01301 20.73 2.67282 20.4276 2.24748 19.4364C1.99394 18.8456 2.0478 18.2426 2.0048 17.1658C1.96401 16.1444 1.87749 14.7223 1.87664 13.2649C1.87611 12.355 2.07505 11.7999 2.21683 11.4009C2.29074 11.193 2.52891 11.088 2.76905 11.0028C3.42554 10.77 3.80536 11.1152 4.1464 11.2711C4.5942 11.4757 5.2206 12.3023 5.83498 12.8179C5.92337 12.8921 6.01934 12.9035 6.02062 12.9039C6.344 13.0117 5.20017 12.367 4.92895 11.9263C4.70294 11.5591 4.63134 10.8359 4.58749 9.17759C4.57028 8.52688 4.79995 8.08039 5.13971 7.10326C5.35296 6.48995 5.76388 5.89536 6.11897 5.44064C6.49668 4.95695 6.87087 4.58911 7.22596 4.1774C7.55452 3.79644 7.97616 3.31352 8.31933 2.81495C8.55859 2.46733 8.88559 2.00727 9.18491 1.5236C9.53957 1.06888 9.85208 0.784472 10.022 0.671219C10.1075 0.614166 10.1918 0.557965 10.2787 0.500061" stroke="#0012D4" stroke-linecap="round"/>
<path d="M12.9185 23.4914C13.4856 22.7259 14.4989 21.6555 15.3291 20.8959C15.8699 20.3416 16.4336 19.777 16.976 19.3202C17.062 19.2346 17.1182 19.1503 17.1761 19.0634" stroke="#0012D4" stroke-linecap="round"/>
<path d="M12.4075 14.2949C12.9448 13.7576 13.5128 13.1334 14.0518 12.396C14.223 12.1116 14.3652 11.8833 14.507 11.6709C14.5645 11.5708 14.5926 11.4865 14.7067 11.2294" stroke="#0012D4" stroke-linecap="round"/>
<path d="M7.5538 14.2097C7.75136 14.6627 8.31677 15.2281 9.02738 15.9388C9.25516 16.1665 9.42632 16.3096 9.61025 16.4369C9.70988 16.508 9.82228 16.5923 10.1084 16.7643" stroke="#0012D4" stroke-linecap="round"/>
<path d="M5.93588 22.3844C6.02018 22.5258 6.47235 22.9209 7.08332 23.3058C7.5665 23.6102 8.06301 23.9734 8.82811 24.4545C9.3122 24.7679 9.82227 25.1076 10.2629 25.4206C10.363 25.478 10.4473 25.5061 10.7045 25.5351" stroke="#0012D4" stroke-linecap="round"/>
</svg>
