<svg width="32" height="47" viewBox="0 0 32 47" fill="none" xmlns="http://www.w3.org/2000/svg">
<path d="M13.9145 6.76537C13.6046 6.90587 12.7547 7.47214 12.1991 7.88513C11.6134 8.32048 11.1624 8.72219 10.7656 9.17605C10.1678 9.85976 9.51721 10.5666 9.0906 11.0073C8.71531 11.3949 8.32507 12.0142 8.03981 12.497C7.71969 13.0388 7.67109 13.6032 7.62724 15.4863C7.61075 16.1944 7.8959 16.6976 8.15136 17.3925C8.40648 18.0864 8.91603 18.542 9.3716 19.1671C9.7021 19.6205 9.99577 20.0476 10.3368 20.346C10.8155 20.765 11.2441 21.2959 11.6282 21.5671C12.2457 22.0032 13.4581 21.5548 13.8421 21.4121C14.2429 21.2633 14.594 21.129 15.0756 21.0004C16.1756 20.7067 17.9031 21.2414 18.9509 21.1567C19.4598 21.1155 20.6876 20.4239 21.7886 19.5554C22.7049 18.8326 23.45 17.6956 23.777 16.9582C24.074 16.2883 24.3304 14.9758 24.3603 12.8896C24.376 11.7843 23.5113 10.7999 23.2677 10.329C23.0546 9.917 22.7721 9.40852 22.4456 8.92443C21.9677 8.21607 21.3824 7.93197 20.7574 7.53302C20.2915 7.23566 19.9621 7.04978 19.4797 6.79475C19.1059 6.5971 18.6286 6.48266 18.1603 6.24125C17.3292 5.81291 16.2494 5.91384 15.308 6.06924C14.7669 6.1974 14.2585 6.42305 13.8587 6.69342C13.8013 6.76452 13.7732 6.84882 13.7442 6.93568" stroke="#0012D4" stroke-linecap="round"/>
<path d="M6.67652 8.63872C6.0532 7.95919 5.76879 7.44828 5.59848 6.24591C5.42066 4.99051 5.76708 4.58202 6.64459 3.27918C7.0757 2.63909 7.80735 2.11428 8.40598 1.74217C8.97943 1.3857 9.82208 1.14694 10.4352 0.876584C11.2587 0.513418 11.8675 0.578122 13.4117 0.577271C14.5763 0.576629 15.4166 1.71066 15.8573 2.30673C16.2114 2.78564 16.5253 3.10206 16.8085 3.45757C17.0884 3.80902 17.7158 2.6235 18.1837 2.12706C19.2541 0.991362 19.9297 0.891486 20.3985 0.705852C21.0163 0.461217 22.8982 0.464017 24.1023 0.562795C24.6445 0.607282 25.2365 1.14184 26.2013 2.53026C26.6512 3.17772 26.9413 4.37255 27.1967 6.07135C27.5952 8.7215 27.0009 9.14793 26.8433 9.68695C26.6255 10.4322 28.6392 10.4797 29.2268 10.9506C29.6786 11.3127 29.8092 11.958 29.9936 12.3837C30.2305 12.931 30.4053 13.6883 30.5049 14.5526C30.6629 15.9231 30.2094 17.0604 29.8394 17.8616C29.5673 18.4511 29.2438 18.8264 28.8321 19.1683C28.5287 19.4203 28.1368 19.5094 27.4432 19.609C26.8147 19.6993 26.3477 19.5954 26.22 19.609C25.8675 19.6466 26.4593 20.4716 26.616 21.083C26.793 21.7738 26.8289 22.4029 26.8016 23.5073C26.7752 24.5788 26.2634 25.0426 25.9083 25.4548C25.4318 26.0079 24.5655 26.5464 23.7663 26.79C23.0379 27.0119 22.1233 27.0318 21.3122 27.1025C19.6816 27.2446 18.6014 26.5226 18.1594 26.2382C17.6945 25.939 17.4365 25.4445 16.8119 24.5658C16.6776 24.3769 16.6684 24.2524 16.5696 24.2928C15.6593 24.6656 15.3638 25.8379 15.0654 26.179C14.576 26.7381 13.4939 27.2276 12.3303 27.6406C10.7191 28.2125 9.52234 27.6875 8.73637 27.2885C8.13359 26.9826 7.36285 26.1275 6.80553 25.7413C6.42501 25.4776 6.30866 24.4261 6.2648 22.7941C6.24568 22.0825 6.67482 21.5292 6.86045 20.9876C6.89994 20.8724 6.95923 20.7611 7.00223 20.6611C7.04523 20.561 7.07333 20.4767 6.82085 20.4754C6.0301 20.4714 5.34387 20.6453 4.83593 20.5751C2.93455 20.3121 2.13786 19.4276 1.41406 18.4782C0.972653 17.8991 0.773706 17.1293 0.603399 16.1262C0.345945 14.6098 0.629797 13.3255 0.799677 12.7163C1.14729 11.4696 2.07655 10.2873 2.81312 9.54985C3.55341 8.80871 4.54599 8.58251 4.97175 8.46884C5.19826 8.41221 5.42647 8.38326 5.66703 8.39731C5.79518 8.41136 5.93569 8.43946 6.33591 8.46841" stroke="#0012D4" stroke-linecap="round"/>
<path d="M12.2115 11.5339C12.2115 11.5901 12.2115 11.9563 12.2396 12.5515C12.3239 12.9781 12.4099 13.2923 12.4665 13.5474C12.495 13.6619 12.5231 13.7462 12.6372 13.9182" stroke="#0012D4" stroke-linecap="round"/>
<path d="M18.5979 13.3221C18.5417 13.3221 18.5128 12.7601 18.5268 11.8664C18.5409 11.5348 18.569 11.4505 18.5835 11.3227C18.5979 11.195 18.5979 11.0264 18.5979 10.8527" stroke="#0012D4" stroke-linecap="round"/>
<path d="M11.8708 15.9619C12.2387 16.1313 12.6917 16.4711 13.3155 16.925C14.2816 17.628 16.3124 17.4946 17.3475 17.4099C17.8969 17.3649 18.5094 17.1268 18.9654 16.942C19.2196 16.7589 19.5329 16.4745 19.8024 16.1769C19.9033 16.0479 19.9314 15.9636 20.0455 15.8767" stroke="#0012D4" stroke-linecap="round"/>
<path d="M16.1285 24.903C16.1285 25.0707 16.0723 25.9214 16.0293 26.5187C16.019 26.6617 15.9872 26.8019 15.9446 27.8156C15.902 28.8294 15.8458 30.7121 15.8028 31.7663C15.7529 32.9901 15.7027 33.4719 15.6887 34.0527C15.6766 34.5507 15.6176 35.427 15.6035 36.5046C15.5857 37.871 15.42 39.2904 15.334 39.958C15.1612 41.2998 15.248 42.7255 15.3617 43.1525C15.4951 43.6536 15.5035 44.0607 15.6031 44.6414C15.6176 45.1353 15.6457 45.5092 15.6883 45.7071C15.7027 45.8208 15.7027 45.9613 15.7027 46.0209" stroke="#0012D4" stroke-linecap="round"/>
<path d="M15.4473 38.7829C15.6448 38.6416 16.0416 38.4151 16.5947 38.117C17.2031 37.7892 18.3936 37.5056 19.3188 37.3362C19.9455 37.2214 20.4679 36.741 20.9098 36.4846C21.4376 36.1785 22.0024 35.8315 22.4136 35.5769C23.3644 34.9883 23.9609 34.1302 24.1465 33.7602C24.3657 33.3232 24.8397 32.4305 25.1964 31.4346C25.3902 30.8937 25.325 30.3 25.2829 29.7179C25.2689 29.5252 25.1564 29.5574 25.0708 29.6281C24.6912 29.9416 24.39 30.2097 24.035 30.3664C23.5408 30.5844 22.7466 30.862 21.54 31.4857C20.8691 31.8325 20.3878 32.2244 19.9761 32.5795C19.5177 32.9749 19.1957 33.5579 18.8828 34.14C18.6836 34.5105 18.4293 35.2014 18.2437 35.7161C18.1073 36.0943 17.8605 36.4531 17.6761 36.8372C17.605 37.0492 17.5199 37.2493 17.4066 37.4192C17.3496 37.5048 17.2934 37.5891 17.2355 37.6759" stroke="#0012D4" stroke-linecap="round"/>
</svg>
