<svg width="27" height="48" viewBox="0 0 27 48" fill="none" xmlns="http://www.w3.org/2000/svg">
<path d="M14.988 11.6862C14.6057 11.4313 14.3132 11.2682 14.041 11.2199C13.1995 11.0707 12.1635 11.9063 11.5945 12.457C11.1897 12.8487 11.0631 13.4855 11.0939 14.4812C11.1263 15.5235 11.7368 15.8988 12.1707 16.5586C12.3464 16.8256 12.6375 16.9944 13.0381 17.1392C13.9633 17.4736 14.5343 16.9645 15.0507 16.6908C15.4637 16.472 15.6946 15.7772 15.7762 15.2593C15.9162 14.3703 15.7293 12.943 15.5677 12.4763C15.5035 12.2673 15.4388 12.0733 15.3746 11.8807C15.3423 11.7837 15.3104 11.6881 15.2776 11.5897" stroke="#0012D4" stroke-linecap="round"/>
<path d="M15.1811 11.5896C15.3722 11.2711 15.6936 10.8203 16.4934 9.93994C17.9132 8.377 19.2006 7.34423 19.6345 7.00685C20.4643 6.36164 21.6139 5.51014 22.3538 5.04342C22.6347 4.86619 22.806 4.73597 23.0145 4.72004C23.5124 4.68201 23.9634 4.89621 24.35 5.20125C24.8074 5.56215 25.4423 6.14918 25.8627 6.66465C26.0361 6.87737 25.9925 7.46682 25.8014 8.22169C25.4509 9.60599 24.2897 9.49686 23.7902 9.81879C23.4143 10.061 22.8746 10.2691 21.4469 11.1027C20.1362 11.8679 19.2045 12.3609 18.7566 12.6331C17.9264 13.0646 17.1464 13.4228 16.6966 13.6153C16.5016 13.7124 16.3742 13.8079 16.1464 14.0994" stroke="#0012D4" stroke-linecap="round"/>
<path d="M12.6713 11.5897C12.5429 11.3985 12.4782 10.6919 11.9975 8.23666C11.8172 7.31574 11.7059 6.6048 11.6258 5.62598C11.4747 3.77913 11.9936 2.55438 12.108 1.85791C12.1427 1.64636 12.3479 1.32747 12.6211 0.941831C13.3089 -0.0291466 16.3317 0.839991 17.062 1.27534C17.7485 1.68462 17.0171 3.79383 16.4861 5.51883C16.266 6.23411 15.9552 6.98321 15.6965 7.61403C15.5393 7.99746 15.2795 8.84818 15.085 9.65662C14.9561 10.2691 14.8915 10.6234 14.8755 10.816C14.8596 10.913 14.8277 11.0085 14.7949 11.107" stroke="#0012D4" stroke-linecap="round"/>
<path d="M12.6713 11.3001C12.5429 11.1727 12.4782 10.7228 12.1418 9.50316C11.9281 8.72854 11.7388 8.0856 11.5781 7.58557C11.3138 6.76352 10.7098 6.12217 10.4042 5.70274C10.006 5.15603 9.48768 4.83445 9.10156 4.28857C8.64621 3.64483 8.32835 3.09593 7.96056 2.95114C6.77572 2.48466 6.23846 3.12586 5.73891 3.47964C5.30076 3.78995 4.50477 4.85569 3.92027 5.76356C3.78744 5.96989 3.79044 6.18298 3.80637 6.37556C3.84379 6.82805 4.4314 7.24386 4.85083 7.64639C5.2709 8.04954 5.62259 8.40222 5.92908 8.78883C6.27616 9.22665 6.68443 9.65712 7.08696 9.99546C7.64502 10.4645 8.03586 10.912 8.48617 11.1702C9.25346 11.6102 9.67688 11.9101 10.0794 12.1037C10.5908 12.3496 10.8362 12.5868 10.8058 12.6032C9.97494 13.0516 9.10542 12.2673 8.42584 11.9927C7.9293 11.792 7.46054 11.6553 7.07393 11.5095C6.70937 11.3721 6.17475 11.3966 5.53137 11.3165C4.0923 11.1373 3.37536 11.5568 2.44239 11.6056C2.14785 11.621 1.73433 11.6862 1.23575 11.7818C-0.321586 12.0803 1.05476 15.6748 1.19907 15.9316C1.27374 16.0645 1.37524 16.1884 1.55189 16.2859C2.89938 17.0296 5.0743 16.449 6.05505 16.4003C6.84875 16.3608 7.42385 16.256 7.84328 16.2072C8.26658 16.158 9.03012 15.9992 9.80478 15.8216C10.6392 15.6303 11.1258 15.6121 11.191 15.5638C11.8398 15.0832 8.97607 16.1247 8.34524 16.4794C7.9183 16.7195 7.33311 17.1537 6.8968 17.5891C6.35091 18.1337 5.85233 19.5303 5.52896 20.2755C5.28813 20.8305 5.07816 21.4648 4.78905 22.1574C4.55052 22.7288 4.24124 23.3008 4.19297 23.6053C4.16513 23.781 4.17656 24.0054 4.51104 24.2159C6.21029 25.285 7.29257 25.6136 7.87513 25.9404C8.43406 26.2539 9.12859 25.1715 9.90131 24.2386C10.1495 23.9389 10.927 22.8616 11.9883 21.3175C12.6974 20.286 13.1848 19.6036 13.4903 18.8811C13.8921 17.931 14.1501 17.5765 14.2799 17.3651C14.8261 16.4759 14.2795 19.567 14.4885 20.2905C14.7027 21.0322 14.8258 21.8161 15.0034 22.4156C15.1489 22.9065 15.5961 23.7139 16.1444 24.6025C16.3671 24.9633 16.6599 25.2314 16.9167 25.4404C17.404 25.837 18.6813 25.3318 20.0346 24.6725C21.3625 24.0256 21.6467 23.5286 21.9054 23.1111C22.3295 22.4267 21.6177 21.7273 21.3764 21.2611C20.9334 20.4051 20.3319 20.2465 19.8169 19.845C18.9354 19.1576 18.465 18.6712 17.854 18.0114C17.4738 17.6009 17.0808 17.2869 16.6469 16.8361C16.5432 16.7284 16.4379 16.6749 16.4364 16.6899C16.3806 17.2667 17.5924 17.4452 18.0591 17.7343C18.4638 17.985 18.9438 18.1209 19.6823 18.4419C20.7298 18.8972 22.0579 18.8295 23.029 18.7493C24.1547 18.6565 24.67 18.6364 25.1063 18.4926C25.7274 18.2879 25.6373 17.063 25.6392 14.5276C25.6396 14 25.4481 13.9083 25.2709 13.8272C24.884 13.6501 24.3544 13.4575 23.7448 13.1844C23.1093 12.8996 21.7867 12.9411 20.2595 12.973C19.0329 12.9985 18.5944 13.1979 17.9829 13.3267C17.1792 13.5193 16.3414 13.7771 16.0025 13.9378C15.9533 14.002 15.9533 14.0975 15.9533 14.196" stroke="#0012D4" stroke-linecap="round"/>
<path d="M14.3123 17.7676C14.0883 18.1827 13.8296 19.0843 13.7495 19.9034C13.6224 21.2028 13.8296 22.042 13.9097 22.8485C14.0023 23.7801 14.0864 24.4881 14.2153 25.0378C14.3437 25.5857 14.4725 26.0982 14.5213 27.2715C14.5478 27.9108 14.6984 29.2451 14.6183 31.2689C14.5703 32.4809 14.6019 34.7435 14.6178 35.9883C14.6411 37.8129 14.8258 39.348 14.9074 40.3375C14.9302 40.6138 14.988 42.2391 15.0039 44.5713C15.0845 45.7605 15.1482 46.1457 15.2448 46.6264C15.2776 46.916 15.2776 47.2983 15.1811 47.4991" stroke="#0012D4" stroke-linecap="round"/>
<path d="M14.6019 39.294C14.347 39.07 13.4474 38.5565 12.0008 37.4961C11.4173 37.0419 10.9685 36.7861 10.1325 35.983C9.9375 35.788 9.81008 35.6605 9.6788 35.5293" stroke="#0012D4" stroke-linecap="round"/>
<path d="M14.3123 39.0044C14.2157 38.3007 14.0883 36.9502 13.735 35.9357C13.1758 34.3297 11.5515 33.5697 10.9192 33.2135C10.4784 32.9652 9.68458 32.892 8.87807 32.7463C7.38642 32.4767 6.85044 32.6333 6.31807 32.5214C5.8039 32.4132 5.4324 32.0551 5.28761 32.0377C4.50635 31.944 5.49515 33.5311 6.0724 35.1846C6.44002 36.2377 6.84465 36.7803 7.7279 37.6655C8.84893 38.789 9.77339 38.8422 11.1214 39.1482C11.7576 39.2926 12.2832 39.294 12.7977 39.3741C13.15 39.3905 13.5062 39.4223 13.8272 39.4547C13.9889 39.4552 14.1482 39.4233 14.4088 39.294" stroke="#0012D4" stroke-linecap="round"/>
</svg>
