<svg width="24" height="46" viewBox="0 0 24 46" fill="none" xmlns="http://www.w3.org/2000/svg">
<path d="M12.391 17.4429C12.391 17.0915 12.5821 16.0644 12.9369 15.4336C13.2259 14.9198 13.7714 14.0045 14.255 13.2148C14.9517 12.0774 15.6383 12.0063 16.3782 11.5241C16.8856 11.1935 17.5689 11.0082 17.9883 10.7992C18.4118 10.5881 19.0806 10.4618 20.5903 10.0438C21.6119 9.76098 22.685 9.43084 23.0712 9.62198C24.2251 10.1932 22.6271 12.1279 22.1102 12.807C21.2036 13.998 19.9571 15.2516 18.7504 15.9761C17.9547 16.4539 17.5419 16.7652 16.6099 17.0558C15.7734 17.3166 14.617 17.4429 13.7941 17.523C12.5906 17.6402 12.0725 17.4429 11.3808 17.523C9.79812 17.7064 8.62824 17.2498 8.16151 17.1379C7.69214 17.0252 7.2131 16.7363 6.69763 16.3984C6.03389 15.9634 5.3462 15.1609 4.76798 14.6141C3.7574 13.6583 3.28816 13.1666 2.61148 12.2819C2.19758 11.7407 2.2881 11.2669 2.3827 10.1751C2.46629 9.21038 4.88285 10.1355 5.88918 10.5559C6.34227 10.7452 6.79029 11.0062 7.52827 11.3914C9.03414 12.1773 9.58775 12.9021 9.91258 13.3872C10.2063 13.8258 10.7461 14.5103 11.3113 15.2845C11.7143 15.8328 11.9721 16.3463 12.085 16.7817C12.1014 16.8946 12.1014 17.022 12.1979 17.1533" stroke="#0012D4" stroke-linecap="round"/>
<path d="M8.91587 12.0372C8.78749 11.5555 8.72281 10.4695 8.91491 9.6741C9.07873 8.99576 9.71515 8.05431 10.1698 7.32502C10.4324 6.90389 10.8446 6.60056 11.3108 6.37468C11.7002 6.186 12.5782 6.53299 13.5267 6.91814C14.5331 7.32687 14.6421 8.36514 14.868 9.07368C15.2113 10.1506 15.061 10.5873 15.174 11.054C15.1904 11.1674 15.1904 11.263 15.2063 11.3759C15.2222 11.4889 15.2541 11.6163 15.2869 11.8441" stroke="#0012D4" stroke-linecap="round"/>
<path d="M11.5222 6.34186C11.5222 6.21444 11.5222 5.79839 11.6019 5.09227C11.6854 4.35152 12.5146 3.48358 13.5098 2.5038C15.1168 0.921741 16.8256 0.551946 17.4733 0.501268C18.2446 0.44092 18.4049 2.98645 18.7451 4.29492C18.9297 5.00461 18.7948 6.0484 18.7461 6.64545C18.6993 7.21886 18.5052 7.78596 18.136 8.92792C17.9261 9.52641 17.733 9.91156 17.6041 10.2982C17.5718 10.3952 17.5399 10.4907 17.4106 10.5892" stroke="#0012D4" stroke-linecap="round"/>
<path d="M11.5222 6.34186C11.2664 5.28582 10.7519 3.73939 9.88505 2.80594C9.11612 1.97792 8.53169 1.87056 7.98484 1.69294C7.34867 1.48631 6.34624 1.09831 5.70045 1.01626C5.53378 0.995087 5.34811 1.19098 5.21779 1.32033C4.98938 1.54706 4.89441 2.24993 4.79788 3.69161C4.65473 5.82957 4.82877 7.30524 4.9253 7.64261C5.07388 8.16187 5.27861 8.7532 5.44029 9.17166C5.60102 9.75133 5.79408 10.2012 6.019 10.6679C6.08367 10.7813 6.14738 10.8769 6.40608 11.0719" stroke="#0012D4" stroke-linecap="round"/>
<path d="M12.1979 17.5394C12.1342 17.6031 12.1014 19.2924 12.1492 22.073C12.1779 23.7445 12.391 24.5196 12.4069 24.9211C12.4192 25.2306 12.4875 26.4096 12.4716 28.1139C12.4655 28.7671 12.4238 28.9899 12.4074 29.9489C12.391 30.908 12.391 32.5963 12.3751 33.5616C12.356 34.7189 12.2945 35.1698 12.2785 35.6833C12.2626 36.1989 12.1979 37.9566 12.182 40.3047C12.1701 42.0543 12.2288 43.79 12.3905 44.4536C12.4547 44.6626 12.4875 44.9204 12.4875 45.0343C12.4875 44.9889 12.4875 44.7341 12.4875 44.4715" stroke="#0012D4" stroke-linecap="round"/>
<path d="M12.4875 31.4398C12.5194 31.3452 12.8389 30.7023 13.3061 30.059C13.8802 29.2684 14.2231 28.7717 14.5779 28.3523C14.8778 27.9977 15.2213 27.5805 15.7194 27.0337C16.2478 26.4536 17.0225 25.6828 17.4733 25.1832C17.6345 24.9742 17.7957 24.7483 17.9883 24.5234C18.0853 24.4259 18.1809 24.3622 18.2794 24.2966" stroke="#0012D4" stroke-linecap="round"/>
<path d="M15.3835 27.096C15.2551 26.873 15.1904 25.9106 15.3024 25.0717C15.3975 24.3587 15.8005 23.7541 16.3941 22.4678C17.0442 21.0593 18.0516 20.7269 18.471 20.3721C19.0514 19.8812 20.3027 19.5029 20.9793 19.262C21.9266 18.9249 22.2362 18.9555 22.4287 18.971C23.1077 19.0254 23.0094 20.3678 23.0895 21.044C23.1768 21.7808 22.882 22.6807 22.2888 24.3376C21.5054 26.526 20.6946 26.7716 19.4107 27.6559C18.808 28.071 18.3141 28.125 17.7986 28.1737C17.0602 28.2543 16.0939 28.0632 15.6904 27.7567C15.6093 27.6761 15.5456 27.5806 15.48 27.3856" stroke="#0012D4" stroke-linecap="round"/>
<path d="M12.1014 31.7294C11.8128 31.6657 11.3639 31.2815 11.1047 30.878C10.8276 30.4467 9.63216 29.7081 8.8213 29.2365C8.35013 28.9625 7.79229 28.7389 7.19669 28.3682C6.66481 28.0304 6.21498 27.6443 5.92394 27.4502C5.92249 27.4493 6.01805 27.513 6.11651 27.5786" stroke="#0012D4" stroke-linecap="round"/>
<path d="M9.49507 29.6058C8.85217 28.513 8.72282 28.0632 8.49887 27.2282C8.13657 25.8774 6.79414 24.6846 6.31148 24.3139C5.87059 23.9753 5.31529 23.7193 4.49478 23.4288C3.72059 23.1546 3.12597 23.1382 2.32283 22.866C1.72655 22.6639 1.29189 22.559 0.954512 22.6546C0.281593 22.8452 0.550531 23.7155 0.565494 24.8704C0.581465 26.1034 1.12778 26.8971 1.33726 27.5284C1.61981 28.38 2.70124 28.8953 3.34703 29.3147C3.95182 29.7075 4.44072 29.8297 5.34087 30.0715C5.91222 30.225 6.6281 30.2487 7.08035 30.2974C7.65809 30.378 8.4313 30.3143 8.8179 30.2496C8.91492 30.2178 9.01048 30.1541 9.302 30.0884" stroke="#0012D4" stroke-linecap="round"/>
</svg>
