<svg width="26" height="48" viewBox="0 0 26 48" fill="none" xmlns="http://www.w3.org/2000/svg">
<path d="M8.80611 20.1404C7.48846 21.0391 6.97396 21.6829 6.60328 22.1656C6.2387 22.6403 6.29631 23.2911 6.37595 23.741C6.41267 23.9484 6.61486 24.0634 6.76062 24.1449C7.54106 24.5817 8.80418 24.2275 9.28683 23.9707C9.85027 23.671 10.0591 23.1348 10.3965 22.8611C10.786 22.5451 11.4742 23.2911 12.1977 23.7907C12.9053 24.2792 13.9473 24.1947 14.7085 23.9707C15.5428 23.7252 16.1405 23.0382 16.4793 22.6043C16.8244 22.1625 16.433 21.5256 16.2245 21.2365C15.881 20.7602 15.1173 20.8161 14.4874 20.736C13.8627 20.6565 13.345 20.5593 10.4746 20.5106C9.57241 20.4952 9.19416 20.2697 8.80756 20.1409C8.38229 19.9991 7.93926 19.7234 6.52702 17.7512C6.1358 17.2049 5.97583 16.8603 5.60756 16.1884C4.94498 14.9796 4.55972 13.9962 4.25565 13.293C3.63671 11.8615 3.36853 10.7141 3.32027 10.0268C3.22079 8.61028 3.43128 7.05081 3.68805 5.97401C3.8529 5.2827 4.13981 4.98602 4.28413 4.79344C4.62399 4.33991 5.90246 4.40587 6.60038 4.51784C7.1196 4.60115 7.51646 5.07965 8.17625 5.69069C8.68752 6.16419 9.22312 6.84809 9.46493 7.17292C9.77869 7.5944 9.70577 5.69938 10.619 4.25142C12.0008 2.06036 12.8913 1.898 13.7248 1.38349C14.9289 0.640276 15.5285 0.67399 16.1082 0.545121C16.2388 0.516084 16.3336 0.480928 16.4147 0.512301C16.8502 0.680824 17.0421 1.50608 17.2839 2.07127C17.4571 2.47601 17.6541 2.85944 17.783 3.40629C17.8977 3.89299 17.9765 4.65878 18.0566 5.67138C18.2233 7.77744 18.1696 8.16863 18.2652 8.39452C18.5952 9.17469 20.1581 7.27283 20.87 6.91663C21.6741 6.51434 23.0174 6.62607 23.9436 6.72212C24.0609 6.73429 24.1526 6.78631 24.2336 6.86643C24.4137 7.0443 24.4759 7.30082 24.5242 7.54118C24.794 8.88491 23.4151 10.7421 23.11 11.4656C22.6128 12.645 21.9053 14.1516 21.5173 14.7486C21.1237 15.3542 20.4902 16.0166 20.0051 16.4872C19.5718 16.9075 18.9129 17.4665 18.3009 17.9984C17.4319 18.7536 17.0131 19.1094 16.6265 19.4473C16.434 19.5921 16.2399 19.7214 15.9996 19.9135C15.8548 20.0419 15.6636 20.233 15.2737 20.3334" stroke="#0012D4" stroke-linecap="round"/>
<path d="M13.9223 7.20526C13.7292 7.29793 13.6655 8.39259 13.6008 9.03645C13.5053 9.57992 13.4078 10.0037 13.3436 10.2122C13.3112 10.3251 13.2794 10.4526 13.15 10.7769" stroke="#0012D4" stroke-linecap="round"/>
<path d="M18.8453 11.6457C18.8453 11.7094 18.3993 12.1245 17.6918 12.7514C17.4302 12.9961 17.3665 13.0917 17.254 13.2206C17.1416 13.3494 16.9823 13.5087 16.8182 13.6728" stroke="#0012D4" stroke-linecap="round"/>
<path d="M7.26162 10.1012C7.22976 10.0693 7.19791 10.0375 7.19743 10.0848C7.19241 10.5767 7.67863 11.5105 7.84032 12.1269C7.87266 12.2239 7.90451 12.3195 7.92092 12.4961C7.93733 12.6728 7.93733 12.9276 7.93733 13.1902" stroke="#0012D4" stroke-linecap="round"/>
<path d="M10.6402 23.0363C10.5437 23.4832 10.5118 24.3858 10.4635 26.2044C10.4204 27.8314 10.4471 30.89 10.4153 32.5928C10.3834 34.2956 10.3197 34.5505 10.2869 35.1914C10.202 36.8499 10.3496 38.4436 10.4944 39.503C10.7221 41.1686 10.6402 42.3347 10.7203 43.8787C10.7686 47.1033 10.8333 47.6169 10.8333 47.8596C10.8333 47.8476 10.8333 47.5609 10.8333 47.2655" stroke="#0012D4" stroke-linecap="round"/>
<path d="M10.5437 39.2535C10.8294 38.905 11.7967 37.6144 12.1191 37.2278C12.513 36.7554 13.0187 36.4232 13.5183 36.0052C13.985 35.6828 14.5632 35.3613 14.9827 35.1996C15.0797 35.1673 15.1752 35.1355 15.2737 35.1026" stroke="#0012D4" stroke-linecap="round"/>
<path d="M10.7367 38.5777C10.6402 37.8711 10.7039 37.2939 11.009 36.441C11.321 35.5685 12.15 34.4617 12.4574 33.9621C12.6954 33.5755 13.1153 33.0465 13.5665 32.5784C14.0974 32.0276 14.596 31.6932 15.3031 31.3553C15.8303 31.1034 16.3973 30.8881 16.8969 30.695C17.4877 30.4667 19.189 30.2143 20.6432 30.0671C20.9689 30.0341 21.1611 29.9865 21.3537 30.0024C21.4517 30.0105 21.5463 30.0502 21.6273 30.1622C22.0218 30.707 21.9343 31.558 21.8542 32.1087C21.7406 32.8892 20.8454 34.6123 20.439 35.3261C20.0045 36.0895 19.2334 36.7089 18.4462 37.4329C18.0334 37.8125 17.5286 37.9966 16.212 38.848C15.1501 39.3162 13.8605 39.7033 11.6784 39.7202C11.2204 39.7043 11.1248 39.6724 10.9298 39.6396" stroke="#0012D4" stroke-linecap="round"/>
<path d="M10.061 37.8055C9.96545 37.6134 9.26174 36.7186 8.58361 36.0221C7.60476 35.0168 6.97589 34.6238 6.4749 34.2189C5.97583 33.8168 5.526 33.4307 5.21952 33.0929C5.13891 33.0118 5.04335 32.9481 4.94489 33.0755" stroke="#0012D4" stroke-linecap="round"/>
<path d="M9.86799 37.2263C9.77146 36.7446 9.70775 36.3594 9.61122 35.606C9.3618 33.6593 8.80808 32.728 8.45333 31.9514C8.1646 31.3193 7.36012 30.6004 6.82968 29.9889C6.24602 29.316 5.46426 29.0888 4.88266 28.7808C4.17558 28.4065 3.66106 28.2181 3.09684 28.0086C2.38739 27.7452 1.92351 27.0288 1.15078 26.3845C1.01565 26.2718 0.892564 26.4129 0.811478 26.5418C0.375791 27.2342 0.40798 28.7239 0.840437 30.864C0.952233 31.4172 1.14741 31.7221 1.49878 32.5055C2.73827 35.2688 3.20544 35.7745 3.84833 36.484C4.25178 36.9292 5.03566 37.4792 5.90733 38.0931C6.83982 38.6086 7.8698 38.931 9.44374 38.9479C9.77049 38.932 9.86606 38.9001 9.96452 38.7708" stroke="#0012D4" stroke-linecap="round"/>
</svg>
