<svg width="27" height="47" viewBox="0 0 27 47" fill="none" xmlns="http://www.w3.org/2000/svg">
<path d="M13.6508 1.52235C13.6833 1.48784 14.1564 1.75788 14.8995 2.5C15.9077 3.50677 16.3208 4.6959 16.6112 5.47964C16.8037 5.9994 16.8995 7.43189 16.933 9.20952C16.9431 9.74853 17.0335 9.54657 17.135 9.32576C17.7474 7.99393 19.1309 6.972 19.5878 6.7517C20.4399 6.34078 21.5634 6.02379 22.5309 5.82075C23.0833 5.70481 23.6303 5.68471 24.4582 5.60045C24.8439 5.5612 25.4821 5.58319 25.7765 5.63344C26.0709 5.6837 26.0039 5.7842 25.9191 5.88623C25.5745 6.30099 25.1917 6.59637 24.7354 7.44052C24.1816 8.46502 23.9735 9.60342 23.8202 10.6897C23.7055 11.5023 23.4313 12.5841 23.3126 13.111C23.1957 13.6295 22.8913 14.578 22.5857 15.3607C22.2816 16.1395 21.9431 16.7485 21.571 17.4078C21.2805 17.9226 20.7938 18.4053 20.2015 18.9987C19.527 19.6743 18.9319 19.7271 18.1051 20.1159C16.7755 20.7411 16.0894 20.6753 15.363 20.7941C14.5744 20.923 13.6244 20.9129 12.4052 20.9971C9.6655 21.1865 8.91791 20.8459 8.18797 20.7103C7.59002 20.5993 6.98698 20.3058 6.46161 19.8657C5.89243 19.3889 5.7667 18.7829 5.37838 18.0393C5.09279 17.4924 4.75352 16.653 4.43018 16.0586C4.19419 15.6248 4.04084 14.9942 3.88856 14.283C3.70005 13.4027 3.63476 12.7932 3.58349 10.3643C3.56459 9.46888 3.12918 8.6004 2.77234 7.97097C2.40215 7.318 2.07946 6.905 1.65611 6.41414C1.20144 5.88696 0.792171 5.4837 0.52111 4.79031C0.287053 4.19158 2.03885 4.93955 3.61141 5.34462C4.36762 5.53941 4.81646 5.81872 5.89665 6.20755C7.03217 6.61629 7.89255 7.74356 8.40421 8.42375C8.61962 8.7101 8.84482 8.93237 8.96309 9.0344C9.60481 9.58799 9.21638 6.50094 9.48744 5.88979C9.72111 5.36294 10.3636 4.44007 10.824 3.74059C11.2064 3.15963 11.9554 2.74264 12.431 2.36955C12.9381 2.09899 13.4468 1.79341 13.6493 1.70915C13.7513 1.65839 13.8518 1.59139 14.0569 1.52235" stroke="#0012D4" stroke-linecap="round"/>
<path d="M17.2041 9.23795C17.2041 8.80141 17.2711 7.9202 17.3223 7.04205C17.3761 6.1213 17.5756 5.38218 17.8964 4.55428C18.1133 3.99465 18.9238 2.95177 19.5543 2.23452C19.9926 1.73585 20.5522 1.42286 20.9588 1.13404C21.3129 0.882494 21.737 0.913227 22.0243 0.96348C22.2111 1.11424 22.3136 1.3183 22.3644 1.55433C22.3816 1.68986 22.3816 1.85737 22.2801 2.13148" stroke="#0012D4" stroke-linecap="round"/>
<path d="M8.67629 8.0197C8.70979 8.02071 8.84482 7.61564 8.9636 6.72226C9.24733 4.58822 8.64381 3.89388 8.47376 3.18324C8.27953 2.37154 7.56159 1.52438 6.85196 1.11779C6.16698 0.725325 5.73421 0.643182 5.29412 0.524402C5.00108 0.44531 4.71799 0.574147 4.54896 0.742672C4.36719 0.923898 4.41241 1.35078 4.47942 1.75636C4.54642 1.92742 4.68043 2.02793 4.84997 2.0797C5.01951 2.13148 5.22052 2.13148 5.3261 2.13148" stroke="#0012D4" stroke-linecap="round"/>
<path d="M12.9402 20.9129C12.9402 21.1809 12.9067 21.4194 12.8726 22.5433C12.8417 23.5661 12.9056 25.5097 12.9061 26.6615C12.907 28.5941 12.7716 29.268 12.7204 30.8218C12.7079 31.1981 12.6701 31.4325 12.6529 32.5751C12.6356 33.7177 12.6356 35.7613 12.6523 36.8811C12.6752 38.4091 12.8711 39.3491 12.9569 41.0084C12.9943 41.7314 13.2102 42.5998 13.2615 43.3972C13.2935 43.8953 13.4132 44.3622 13.532 44.8525C13.5828 45.683 13.6508 46.021 13.6676 46.1738C13.6843 46.1926 13.7178 46.0921 13.7523 45.684" stroke="#0012D4" stroke-linecap="round"/>
<path d="M12.6356 39.1866C12.6021 38.9176 12.4671 38.3765 12.1128 37.5999C11.5999 36.4756 10.5118 35.337 9.86205 34.603C9.34621 34.0202 8.5443 33.471 8.01843 33.0629C7.27332 32.4846 6.54637 32.1492 5.9545 31.8614C5.29124 31.5389 4.8195 31.2345 4.60021 31.1502C4.47964 31.1039 4.34743 31.0325 4.3789 31.4167C4.56353 33.6711 4.95249 34.3766 5.2068 34.9212C5.39602 35.3265 5.66314 35.8669 5.88344 36.477C6.19042 37.3273 7.04992 37.6618 7.87782 38.3212C8.47121 38.813 9.38185 39.2861 10.4783 39.5907C11.0722 39.6942 11.7422 39.6942 12.4326 39.3897" stroke="#0012D4" stroke-linecap="round"/>
<path d="M12.8386 32.3847C12.8721 32.1827 13.0742 31.7776 13.4462 31.2868C13.8313 30.7788 14.7269 29.7188 15.5437 28.9518C16.0069 28.5168 16.5238 28.0214 17.1005 27.6315C17.6228 27.2784 18.1827 26.9716 18.7081 26.6331C19.1918 26.3213 19.8416 26.0579 20.2649 25.8879C20.3795 25.8418 20.5177 25.8204 20.5867 26.3392C20.9556 29.1108 20.3532 30.0091 20.0644 30.6574C19.8458 31.1479 19.137 31.8731 18.071 32.636C17.2855 33.1982 16.1624 33.802 15.4295 34.1268C14.7351 34.3471 14.061 34.4151 13.4016 34.3816C13.1442 34.3481 13.0437 34.2811 12.9402 34.3136" stroke="#0012D4" stroke-linecap="round"/>
</svg>
