<svg width="27" height="47" viewBox="0 0 27 47" fill="none" xmlns="http://www.w3.org/2000/svg">
<path d="M13.7186 10.3586C14.0082 8.85246 14.2443 7.70004 14.6077 6.60818C15.21 4.79838 16.0278 3.42828 16.4509 2.75684C17.1163 1.70072 17.6068 1.37885 18.1181 1.08613C18.3256 0.967294 18.4845 1.02513 18.6026 1.0835C18.8277 1.19484 18.9839 1.34725 19.1735 1.46355C19.7002 1.78665 19.715 2.97802 19.8761 4.69875C19.9637 5.63444 19.8923 6.70912 19.776 7.53635C19.475 9.6776 19.0734 10.0935 18.9852 10.2989C18.8132 10.6995 19.8871 9.07715 21.2321 7.61403C21.8617 6.92921 22.6378 6.44054 23.5418 5.95912C24.5944 5.39859 25.3034 5.1512 25.5074 5.10732C25.6229 5.08248 25.7694 5.09239 25.7426 5.64271C25.7159 6.19303 25.5131 7.29367 25.2928 8.22271C24.8974 9.8903 24.4283 10.9405 24.0057 11.626C23.1174 13.0668 22.3815 13.4867 22.0142 13.9699C21.5995 14.5154 21.0948 14.949 20.7121 15.3746C20.3038 15.8289 19.6325 16.2655 18.5789 16.8224C18.017 17.1194 17.5243 17.4662 16.6769 17.8616C15.9839 18.185 15.2423 18.3158 14.4532 18.4185C13.7825 18.5058 12.4424 18.5212 10.9872 18.2882C10.1654 18.1566 9.53724 17.733 9.01062 17.4254C8.20139 16.9527 7.2008 16.506 6.36304 15.7885C5.61747 15.1499 5.35237 14.4855 4.87051 13.9594C4.14664 13.1689 3.39334 11.7682 2.531 10.3489C2.08442 9.61395 1.58001 8.63655 0.964747 7.94711C0.57777 7.51349 0.465336 6.7925 0.508782 6.29528C0.524783 6.11216 0.63912 6.08771 0.799739 6.08727C1.19311 6.08619 1.69148 6.23253 2.26023 6.48004C2.96083 6.78493 3.79533 7.40075 4.8749 8.05683C6.78492 9.21759 7.30613 10.09 7.8367 10.7369C8.25458 11.2464 8.42256 11.5856 8.64199 11.9231C8.90026 12.3203 8.01531 9.81442 7.9113 8.57686C7.88648 8.28155 7.83801 7.06371 7.82353 5.30919C7.80995 3.66368 7.80817 1.96603 7.93983 1.49514C8.0544 1.08537 8.24702 0.76358 8.37824 0.573558C8.43748 0.487759 8.53842 0.470428 8.74248 0.556882C9.2925 0.789902 10.1437 1.75011 11.2962 3.51297C11.9669 4.53898 12.5355 5.99994 12.8782 6.78899C13.3637 7.90679 13.4254 8.33813 13.5571 8.68965C13.601 8.77786 13.6589 8.86475 13.7032 8.96744C13.7476 9.07013 13.7765 9.18599 13.7186 9.48089" stroke="#0012D4" stroke-linecap="round"/>
<path d="M14.333 18.6089C14.4497 20.0668 14.5375 21.2403 14.5814 22.2132C14.6174 23.0117 14.5963 24.4316 14.5673 25.3944C14.5244 26.8227 14.4208 27.472 14.3773 28.5318C14.341 29.4181 14.247 31.0108 14.1877 31.9039C14.1188 32.9432 14.0697 33.4965 14.0552 34.1688C14.0263 35.5125 13.924 37.39 13.8652 38.1049C13.7577 39.4116 13.6027 40.5743 13.4702 41.5432C13.3945 42.0971 13.3675 42.6263 13.2947 43.0946C13.164 43.9348 13.1341 44.4116 12.944 44.7776C12.8119 45.2313 12.6952 45.5824 12.6219 45.6711C12.6066 45.6439 12.6355 45.4701 12.6654 45.291" stroke="#0012D4" stroke-linecap="round"/>
<path d="M13.8941 31.5989C13.9521 31.4839 14.0697 30.8406 14.1425 30.0379C14.2174 29.2131 14.0126 28.1522 13.7498 27.246C13.4895 26.3489 12.2651 24.9389 11.584 24.1398C11.2213 23.7141 10.4185 22.9448 9.75623 22.3699C9.23622 21.9185 8.63145 21.6528 8.11756 21.5348C7.93029 21.4917 7.75112 21.68 7.5905 21.8696C7.20565 22.3239 7.1657 23.2853 7.16482 24.2666C7.16377 25.4352 8.27511 26.8839 8.77232 27.9819C9.07649 28.6536 9.61974 29.3713 10.0889 29.973C10.6686 30.7165 11.4032 31.0986 11.8741 31.3641C12.2256 31.6279 12.6338 31.7446 13.1025 31.8473C13.2201 31.8622 13.3359 31.8622 13.4553 31.8622" stroke="#0012D4" stroke-linecap="round"/>
</svg>
