<svg width="19" height="47" viewBox="0 0 19 47" fill="none" xmlns="http://www.w3.org/2000/svg">
<path d="M8.17096 7.93765C9.22069 6.04094 10.1001 4.86745 10.6549 4.13809C11.6479 2.83229 12.2066 2.49766 12.6455 2.24796C12.8582 2.12694 13.1142 2.17379 13.3332 2.26112C13.8842 2.48087 14.2815 3.83528 14.6506 4.58571C14.9281 5.15002 15.0749 6.0032 15.1921 7.53698C15.2496 8.28908 15.2224 9.16292 15.1197 9.63292C14.9238 10.5294 14.5501 11.7679 14.2723 12.4692C13.9026 13.4025 13.4407 14.0184 13.0286 14.7376C12.723 15.2711 12.0943 15.9809 11.1587 16.479C10.4133 16.8758 8.93807 16.8024 7.85455 16.8753C5.71906 17.0188 5.30615 16.8024 4.83746 16.7006C4.30526 16.585 3.95976 16.0722 3.47702 15.503C2.94775 14.8789 2.55544 13.9095 2.14555 13.3083C1.39501 12.2074 1.00367 9.95987 0.900975 9.50434C0.768365 8.9161 0.710514 7.73929 0.637665 6.78523C0.569556 5.89325 0.477046 5.13252 0.505132 4.02135C0.511297 3.77747 0.678917 3.66852 0.811011 3.59435C1.06867 3.44968 1.32403 3.43241 1.58602 3.40301C2.02001 3.35431 2.89862 3.80895 4.08088 4.59624C5.29378 5.40394 6.08994 6.61583 6.79078 7.5361C7.11509 7.93501 7.37577 8.19569 7.5535 8.34446C7.73123 8.49323 7.81813 8.52219 7.90765 8.55204" stroke="#0012D4" stroke-linecap="round"/>
<path d="M3.25585 3.63695C3.16808 3.493 3.39979 2.32742 3.72278 1.69284C3.85828 1.42663 4.16163 1.26804 4.42406 1.1219C4.56219 1.04498 4.74442 1.03369 4.92084 1.0767C5.66564 1.25826 6.06273 1.67617 6.55995 1.61912C6.88938 1.58132 6.94131 1.06353 7.13089 0.844545C7.49601 0.4228 8.1973 0.50707 8.69583 0.506192C9.31224 0.505107 9.807 1.23732 10.4069 1.28164C10.8032 1.41286 11.1534 1.70425 11.3737 2.07025C11.4465 2.17294 11.5624 2.2888 11.6818 2.67148" stroke="#0012D4" stroke-linecap="round"/>
<path d="M9.04866 17.0657C9.19436 17.4739 9.48576 18.4051 9.58977 19.17C9.62952 19.4624 9.66305 20.8855 9.67754 22.9323C9.68465 23.9373 9.75082 24.9571 9.73634 26.2144C9.72578 27.1314 9.5472 27.7702 9.05042 30.5125C8.7404 32.224 8.78535 33.8228 8.7125 34.8501C8.63369 35.9616 8.60981 37.0703 8.53696 38.2705C8.44558 39.7762 8.55101 40.9664 8.59489 41.346C8.69952 42.251 8.98898 43.4231 9.20884 44.2714C9.34538 44.7982 9.45767 45.6156 9.56036 46.3493C9.57528 46.4968 9.57528 46.6126 9.57528 46.6144C9.57528 46.6161 9.57528 46.5003 9.57528 46.3809" stroke="#0012D4" stroke-linecap="round"/>
<path d="M8.78535 33.1276C9.54456 32.4852 10.0124 32.0182 10.5096 31.4622C11.2025 30.6873 12.4366 29.0692 13.2155 28.1563C13.6818 27.61 14.1955 27.0733 14.9257 26.4453C15.8775 25.6268 16.6513 25.697 17.2095 25.6962C17.4586 25.6958 17.6782 25.9296 17.9262 26.1482C18.6483 26.7847 18.5278 28.3231 18.0482 30.0048C17.5089 31.8954 16.4249 32.0428 15.7363 32.3952C15.4522 32.5406 15.1065 32.5132 14.7563 32.4698C14.3855 32.4238 14.0823 32.0182 13.8339 31.5078C13.5631 30.9515 13.6127 30.3796 13.6417 30.0289C13.6816 29.5452 14.1376 29.1797 14.5036 28.9445C14.8885 28.6971 15.4822 28.8269 15.9645 28.8704C16.1612 28.8881 16.244 29.0007 16.2888 29.2048C16.3336 29.4088 16.3336 29.7274 16.2322 29.9495C16.1308 30.1715 15.9281 30.2874 15.6314 30.4068" stroke="#0012D4" stroke-linecap="round"/>
<path d="M8.69758 32.7766C8.66862 32.0472 8.60981 30.1873 8.42067 28.2911C8.35904 27.6732 7.82339 26.6985 7.20988 25.5145C6.66699 24.4667 5.74676 24.0329 5.20302 23.7367C5.02846 23.6416 4.6628 23.6485 4.2099 23.7064C3.85905 23.7513 3.69557 24.0575 3.52047 24.2032C3.08367 24.5666 3.0803 26.2974 3.18212 27.3914C3.22162 27.8159 3.54724 28.123 3.8834 28.46C4.06357 28.6407 4.45303 28.6514 4.84755 28.6369C5.10084 28.6276 5.30264 28.5057 5.50714 28.36C5.91267 28.0711 5.80117 27.0487 5.68488 26.4439C5.63532 26.1863 5.3632 25.9612 5.17362 25.7273C5.07093 25.6382 4.95507 25.6093 4.85194 25.6378C4.74881 25.6663 4.66192 25.7532 4.57239 26.106" stroke="#0012D4" stroke-linecap="round"/>
</svg>
