<svg width="30" height="48" viewBox="0 0 30 48" fill="none" xmlns="http://www.w3.org/2000/svg">
<path d="M11.0318 47.4953C11.0318 47.1178 11.0028 46.385 10.93 44.8622C10.8641 43.485 10.8282 40.8774 10.7838 39.4187C10.7395 37.9599 10.7106 37.7282 10.6956 36.5806C10.6807 35.433 10.6807 33.3766 10.7242 32.042C10.808 29.4663 11.002 29.0074 11.2065 28.3934C11.5895 27.2435 11.9376 26.111 12.1864 25.6862C12.494 25.1148 12.9013 24.6487 13.3691 24.1664C13.5473 23.9738 13.6052 23.8869 13.7527 23.7974" stroke="#0012D4" stroke-linecap="round"/>
<path d="M16.6491 14.0549C15.2167 14.1427 14.6339 14.2006 12.43 14.9879C11.2311 15.4162 9.95398 16.6248 9.42429 17.4305C8.58805 18.7026 8.83755 20.6271 8.99773 21.5136C9.08585 22.0013 9.45018 22.4492 9.9474 22.8745C10.2752 23.1548 10.8826 23.0654 11.4685 23.0518C12.0519 23.0382 12.3466 22.5703 12.7126 22.2917C13.2086 21.914 13.5473 21.5162 13.5916 21.4425C13.6759 21.3023 13.3147 21.8647 13.183 22.2294C13.0485 22.602 13.1672 22.9188 13.2691 23.1663C13.6014 23.9741 14.3635 24.3802 15.0955 24.5724C15.8923 24.7816 16.4419 24.2661 17.1581 23.7271C18.007 23.0885 17.9059 22.4246 18.0674 22.0288C18.298 21.4636 18.4045 19.4247 18.2443 18.0366C18.2065 17.7088 18.0832 17.3919 18.0679 17.3169C17.8345 16.1767 18.8117 19.2877 19.8632 20.3998C20.329 20.8924 21.4676 21.2485 22.4968 21.5004C23.7215 21.8002 24.2816 21.4276 24.7516 21.3402C25.2893 21.2403 25.6007 21.0186 25.7324 20.8584C26.0791 20.4365 25.8649 19.6178 25.6319 19.0012C25.4834 18.6083 25.2804 18.3565 25.1492 18.2104C25.0862 18.1402 24.989 18.1222 25.0601 18.1941C25.3341 18.4716 25.6885 18.6479 25.936 18.6918C26.9787 18.8767 28.0276 17.7728 28.38 17.4498C28.7564 17.1048 28.4401 16.4264 28.2211 15.9876C27.9557 15.4557 27.4465 15.052 26.0326 14.0588C24.6908 13.1164 23.7918 13.4405 23.234 13.3677C22.2147 13.2345 21.2166 13.8776 20.7611 14.1273C20.663 14.1811 20.5426 14.2006 20.5408 14.2155C20.503 14.5365 22.4279 13.3598 23.435 12.827C24.162 12.4424 25.1013 11.7465 25.4252 11.2625C25.7234 10.8168 25.8351 10.021 25.836 9.15777C25.8364 8.72546 25.6025 8.3516 25.4129 8.03037C25.0807 7.4675 24.4044 7.41422 23.9507 7.23868C23.2811 6.97965 22.7666 7.47039 22.3554 7.82191C22.2606 7.90297 22.1803 7.99701 22.1211 8.08522C22.0619 8.17343 22.0329 8.26032 22.018 8.07337C21.9662 7.42489 21.9741 6.82967 21.8723 6.53828C21.7242 6.11455 21.4194 5.8054 21.1565 5.64478C20.7591 5.40195 19.7579 5.36567 19.0206 5.55481C18.4776 5.69413 17.9691 6.32763 17.6009 6.79764C17.0976 7.44019 16.8843 8.40602 16.7373 9.06386C16.5794 9.77023 16.5332 10.423 16.4591 10.9812C16.4156 11.2147 16.3858 12.174 16.4002 13.4901C16.4147 13.9663 16.4437 14.0531 16.3858 14.0549" stroke="#0012D4" stroke-linecap="round"/>
<path d="M16.298 13.9671C16.1233 13.7925 15.5414 13.0947 14.4004 11.8356C13.8689 11.2492 13.4033 11.0128 12.469 10.1526C12.0121 9.73198 11.5602 9.55054 11.2087 9.3162C10.8571 9.11081 10.5069 8.93615 10.1554 8.78914C10.0672 8.75973 9.98031 8.73077 9.62748 8.70093" stroke="#0012D4" stroke-linecap="round"/>
<path d="M9.45194 8.70092C9.45194 8.4104 9.50987 7.59326 9.68541 6.58434C9.91422 5.26926 9.48178 4.84079 9.21891 4.27073C9.02619 3.8528 8.63568 3.26269 8.20999 2.66146C7.77815 2.05153 7.25945 1.50553 6.5586 0.993836C5.81226 0.44892 4.97918 0.450539 4.43632 0.552353C3.7995 0.671789 3.45549 1.38441 3.13382 1.86759C2.79223 2.38067 2.78142 3.10821 2.84023 3.87137C2.89352 4.56304 1.4087 4.10704 0.764906 4.69027C0.559263 4.87657 0.558208 5.1594 0.514323 5.4802C0.394125 6.35884 1.05411 7.1193 1.74003 7.82058C2.1306 8.2199 2.60413 8.37792 3.13031 8.59779C3.69093 8.83204 4.29984 8.93438 5.65764 9.2701C7.13393 9.40308 8.71818 9.34515 9.36154 9.19901C9.53795 9.14064 9.71174 9.05375 9.62748 8.96423" stroke="#0012D4" stroke-linecap="round"/>
<path d="M5.59006 9.40308C4.92037 9.31531 3.40458 9.66288 2.30219 10.351C1.19395 11.0428 0.911918 12.0309 0.602529 12.8818C0.489794 13.1919 0.528363 13.4975 0.630176 13.7749C0.737672 14.0677 1.05411 14.2006 1.27309 14.3028C2.00477 14.6445 3.30628 14.2901 3.64376 14.0264C3.69944 13.9828 3.39669 14.1128 3.2071 14.302C2.92456 14.5839 2.86919 15.0765 2.97056 15.529C3.08455 16.0377 3.68633 16.2772 4.05145 16.4672C4.67238 16.7904 6.71702 15.963 7.92825 15.3144C8.47311 15.0226 8.92356 14.5833 9.33301 13.9561C10.1884 12.6461 9.97856 11.98 10.1243 11.1045C10.1541 10.7539 10.1541 10.2615 10.1396 9.94988C10.1251 9.6383 10.0962 9.52244 10.0663 9.31531" stroke="#0012D4" stroke-linecap="round"/>
<path d="M9.80301 8.26208C9.71524 7.18778 9.77317 5.25157 9.87586 4.52001C9.95364 3.96594 10.0365 3.49617 10.1826 3.04152C10.3791 2.43033 10.8247 2.00408 11.5843 1.53451C12.3353 1.07032 12.8434 1.24048 13.2524 1.34186C13.6624 1.44348 13.6649 2.17348 13.6504 2.71414C13.6311 3.43658 12.9066 4.22115 12.4809 4.69204C12.0877 5.12694 14.009 3.87534 14.8621 3.90211C15.1626 3.91154 15.3316 4.28171 15.4633 4.63148C15.846 5.64822 14.8375 6.70855 14.2376 7.19261C13.6708 7.64997 12.9645 8.17256 12.5406 8.3639C11.7647 8.55436 11.3548 8.64213 11.0344 8.68601C10.8299 8.70093 10.5403 8.70093 10.3296 8.70093" stroke="#0012D4" stroke-linecap="round"/>
<path d="M10.8563 42.9312C10.8563 42.8733 10.8852 42.6407 11.2477 41.8266C12.5821 38.83 13.2243 38.5445 13.5174 38.0911C13.8961 37.5055 14.4812 36.9084 15.0236 36.2918C15.3597 35.9097 16.0013 35.3286 16.5012 34.9016C16.7632 34.6545 17.1731 34.3605 17.6115 34.1121C17.7892 34.0085 17.8761 33.9506 17.8779 33.8909" stroke="#0012D4" stroke-linecap="round"/>
<path d="M13.6649 37.9283C13.6649 37.2858 13.8387 36.4134 14.1029 35.605C14.2389 35.1887 14.54 34.249 15.1087 32.964C15.9332 31.1013 16.6772 30.8207 17.4359 29.9737C17.9521 29.3975 18.8117 29.0355 21.3057 29.0047C21.8274 28.9983 21.9135 29.0916 21.9872 29.2084C22.1576 29.478 22.1786 29.7938 22.1641 30.0128C22.1324 30.4925 20.9586 32.1513 20.249 33.3327C19.6773 34.2844 19.0487 35.8762 18.917 36.4345C18.807 36.9009 18.494 37.2823 17.9823 37.8094C17.5249 38.2805 16.3068 38.8025 15.4084 39.0544C14.8906 39.1996 14.3978 39.0404 14.1204 38.953C13.872 38.8078 13.6658 38.5734 13.5486 38.2961C13.5183 38.1635 13.5473 38.0477 13.5771 37.9283" stroke="#0012D4" stroke-linecap="round"/>
<path d="M10.5929 39.6837C10.2129 39.5091 10.0382 39.1589 9.33784 37.9915C8.95003 37.3452 8.51807 36.9945 7.55391 35.6661C7.08303 35.0916 6.6749 34.6826 6.45328 34.4035C6.46688 34.3877 6.55377 34.4456 6.6433 34.5053" stroke="#0012D4" stroke-linecap="round"/>
<path d="M10.4174 39.3327C10.4174 39.0421 10.4753 38.4567 10.578 37.5391C10.8209 35.3684 10.3893 34.9459 10.1695 34.2596C9.89791 33.4118 9.59939 32.5182 9.20486 32.0056C8.78827 31.4644 8.04937 30.9664 7.55215 30.6009C7.09327 30.2635 6.35365 29.8553 5.66598 29.4309C5.01274 29.0278 4.3367 28.7441 3.80701 28.4645C3.3196 28.2073 2.87094 28.1279 2.43209 28.0108C2.19958 27.9487 1.99236 27.8936 1.83174 27.8932C1.37835 27.8919 1.46487 29.0881 1.39202 29.8943C1.27161 31.2267 2.01957 32.5726 2.32633 33.4477C2.80556 34.8148 3.62576 35.785 4.25639 36.5218C5.00444 37.3959 5.50053 37.6633 6.05567 38.3352C6.59042 38.9823 7.13832 39.0676 7.73779 39.4626C8.15996 39.768 8.63041 40.005 9.19872 40.0927C9.53531 40.1226 9.96978 40.1226 10.4174 40.0348" stroke="#0012D4" stroke-linecap="round"/>
</svg>
