<svg width="31" height="56" viewBox="0 0 31 56" fill="none" xmlns="http://www.w3.org/2000/svg">
<path d="M13.1015 13.9582C12.0781 14.4252 11.8446 14.8342 11.6831 15.273C11.5952 15.512 11.5216 15.7417 11.5361 15.9752C11.5838 16.7438 12.5995 17.9324 13.4346 18.4477C13.9521 18.7669 14.562 18.7566 15.0289 18.6693C15.5096 18.5794 15.8794 18.3476 16.1712 18.1435C16.9484 17.6001 16.8756 16.3596 16.9485 15.8475C16.9712 15.6873 16.9634 15.4837 16.891 15.3068C16.6116 14.6244 15.7679 14.283 15.1952 14.0319C14.6533 13.8125 13.7808 13.6949 13.1322 13.8841C13.0436 13.9573 12.9856 14.0442 12.926 14.1338" stroke="#0012D4" stroke-linecap="round"/>
<path d="M14.1547 13.3438C14.1837 13.1691 14.3584 12.761 14.6357 12.1335C15.0473 11.2021 15.7021 10.1016 16.2428 9.18132C16.6182 8.54232 17.1345 7.47112 17.9666 6.06899C18.6255 4.95854 19.5043 4.13235 20.235 3.41615C21.1082 2.56021 22.3138 2.08117 23.0607 1.94863C23.2213 1.92014 23.339 1.93371 23.3987 2.00612C23.7647 2.45023 22.643 3.5952 21.667 4.96573C21.1044 5.75566 20.2565 6.62589 19.5925 7.43601C17.7524 9.68118 17.5216 10.2982 17.1262 10.9415C16.3771 12.1603 15.9996 12.6101 15.721 12.9914C15.6477 13.0796 15.5608 13.1665 15.4726 13.2402C15.3844 13.314 15.2975 13.3719 15.0324 13.5193" stroke="#0012D4" stroke-linecap="round"/>
<path d="M11.6094 17.3812C11.4058 17.4971 10.823 17.964 10.2218 18.5345C9.67497 19.0534 9.47484 19.5439 7.85636 22.0523C7.44193 22.6947 6.96198 23.4602 6.27474 24.4836C5.70645 25.3298 5.64104 26.1275 5.68449 26.3614C5.7166 26.5343 6.16503 26.5093 6.61792 26.4659C6.9509 26.4339 7.19018 26.1591 7.902 25.3323C8.51019 24.6259 9.45377 23.2021 10.0914 22.2542C11.514 20.1394 12.0465 19.2858 12.4564 18.7289C12.545 18.6109 12.603 18.524 12.6907 18.4068C12.7785 18.2896 12.8944 18.1448 13.0137 18.0834" stroke="#0012D4" stroke-linecap="round"/>
<path d="M12.9259 18.4345C12.7802 18.6969 12.3151 19.5105 11.1899 22.4741C10.3647 24.6475 10.2051 25.1893 9.87024 26.504C9.62607 27.4628 9.50292 28.0567 9.56085 28.5394C9.58158 28.7122 9.73463 28.7036 9.88121 28.6456C10.2202 28.5117 10.844 27.7442 11.7345 26.4316C12.683 25.0333 13.0128 24.0237 13.2459 23.6019C13.9896 22.256 14.0073 21.7715 14.4312 20.2983C14.5348 19.5474 14.5936 19.1674 14.5791 19.0059C14.5646 18.9892 14.5356 19.105 14.5058 19.2244" stroke="#0012D4" stroke-linecap="round"/>
<path d="M14.7691 19.0489C14.7112 19.9757 14.5365 21.438 14.3171 23.6107C14.1975 24.795 14.2425 26.16 14.2715 27.0206C14.3112 28.2023 14.5629 29.0204 14.8547 29.9258C15.0963 30.6754 15.4116 31.1883 15.6161 31.4521C16.0945 32.0691 16.2015 29.0301 16.3775 28.1366C16.5781 27.1181 16.6702 26.3092 16.6856 24.5849C16.6908 23.9957 16.3806 22.8326 16.0005 21.3265C15.6767 20.4251 15.5301 20.0161 15.4717 19.7093C15.4423 19.5764 15.4134 19.4895 15.3835 19.3999" stroke="#0012D4" stroke-linecap="round"/>
<path d="M15.4713 18.8733C15.5002 19.3394 15.6749 19.9827 15.9093 20.67C16.0066 20.9556 16.4043 21.6179 17.0318 22.7558C18.1818 24.8411 18.8908 25.8036 19.3753 26.332C19.6351 26.6154 20.0046 26.7428 20.3254 26.8305C20.6918 26.9308 21.0868 26.7735 21.3791 26.5694C21.5157 26.474 21.5555 26.3074 21.5709 26.1459C21.6377 25.4428 21.0605 24.8153 20.2152 23.7494C19.5819 22.9506 18.5775 21.9523 17.759 20.8266C17.052 19.9862 16.8177 19.6352 16.6865 19.4162C16.6132 19.313 16.5263 19.2262 16.2612 19.2244" stroke="#0012D4" stroke-linecap="round"/>
<path d="M15.4713 13.6071C15.4134 13.6071 15.6732 13.3464 16.5754 12.4446C17.2026 11.8177 18.1149 10.7897 18.9255 9.96335C19.736 9.137 20.4022 8.52875 20.9336 8.09956C21.8073 7.39396 22.8089 6.93924 23.8169 6.50083C24.8717 6.04209 25.3577 5.97114 25.8848 5.91277C26.0021 5.89978 26.0897 5.94129 26.1055 6.02863C26.205 6.57869 25.5087 7.08055 24.8083 8.01398C24.4856 8.44395 23.8796 9.0308 22.973 9.80756C22.0663 10.5843 20.8498 11.5112 20.1652 12.0176C19.1553 12.7647 18.6626 13.0208 18.2233 13.2113C17.5786 13.5483 17.3153 13.6361 17.1402 13.6945C17.052 13.7239 16.9651 13.7528 16.7001 13.9582" stroke="#0012D4" stroke-linecap="round"/>
<path d="M16.4368 14.2215C16.4078 14.1925 16.3788 14.1636 17.4356 13.6128C18.4923 13.0621 20.6357 11.9904 21.8702 11.3949C23.3504 10.6808 23.8656 10.5071 24.3181 10.3026C25.5169 9.7607 27.1122 9.39416 27.6239 9.46657C27.8281 9.49547 27.8749 9.6838 27.76 9.90323C27.4581 10.4792 26.5645 11.0293 25.5288 11.6569C24.4408 12.3162 23.5777 12.6408 23.1542 12.8159C21.7692 13.3886 19.8036 14.2794 19.3933 14.4695C18.7793 14.6305 18.2518 14.7481 17.9894 14.7771C17.8428 14.8061 17.669 14.864 17.3145 14.9237" stroke="#0012D4" stroke-linecap="round"/>
<path d="M16.8756 15.2748C16.9915 15.2168 17.3408 15.1291 18.0548 14.9399C19.0507 14.6761 20.5523 14.1364 22.1453 13.727C23.6073 13.3512 24.4501 13.3438 26.141 13.1837C27.7064 13.0354 28.7237 13.1095 28.8843 13.1968C28.9669 13.2417 29.0159 13.3421 28.9879 13.4448C28.8376 13.994 27.3308 14.5094 26.2112 14.9228C24.9452 15.3903 22.9054 15.6539 22.1155 15.8593C21.3749 16.0519 20.3601 16.0647 19.7018 16.1376C19.1927 16.1525 18.7205 16.1814 18.3269 16.2253C18.107 16.2402 17.8463 16.2402 17.5778 16.328" stroke="#0012D4" stroke-linecap="round"/>
<path d="M17.49 16.328C18.0113 16.2701 18.6275 16.1823 20.1968 16.0801C21.4168 16.0006 23.504 16.0068 25.0852 16.0787C27.689 16.1973 28.8404 16.5035 29.0739 16.5325C29.3211 16.5632 29.5136 16.708 29.6163 16.8099C29.6692 16.8623 29.5742 16.9986 29.4864 17.1017C29.3059 17.3138 28.1207 17.613 26.0919 17.964C24.2318 18.2859 23.109 18.1124 22.2809 18.1563C20.4994 18.2507 19.0435 18.1132 18.5323 18.0255C17.9297 17.9667 17.5216 17.9079 17.1402 17.8205C17.052 17.7911 16.9651 17.7622 16.8756 17.6446" stroke="#0012D4" stroke-linecap="round"/>
<path d="M16.9634 17.7323C17.8981 17.7613 18.4239 17.936 19.6636 18.2432C21.2342 18.6323 21.789 18.7259 22.3586 18.9602C23.2954 19.3456 24.1289 19.8371 25.2673 20.48C25.8393 20.803 26.2371 20.8912 26.267 21.0808C26.3587 21.6633 24.8978 21.5942 23.974 21.6671C22.4984 21.7834 20.5725 21.1571 19.7588 20.9658C19.2169 20.8383 18.6626 20.455 18.1649 20.2491C17.5708 20.0034 17.1705 19.8107 16.7747 19.5035C16.672 19.4298 16.5561 19.3719 16.4675 19.2986C16.3788 19.2253 16.3209 19.1384 16.0857 18.8733" stroke="#0012D4" stroke-linecap="round"/>
<path d="M11.6972 14.3971C11.8709 14.3681 12.0447 14.3391 12.0763 14.3097C12.4476 13.9642 10.88 13.6967 9.58805 12.8541C8.51744 12.1558 6.52927 11.0267 5.25397 10.3574C2.92317 9.1343 2.22152 9.33624 1.19724 9.40778C1.01657 9.42039 1.10508 9.7119 1.2363 9.88876C1.90158 10.7854 3.06411 11.1478 4.26129 11.7618C4.62635 11.949 4.90816 11.9974 5.22896 12.1142C5.60138 12.2497 6.71446 12.783 8.30661 13.5725C10.1155 14.1618 10.816 14.5708 11.257 14.7477C11.3452 14.7771 11.4321 14.8061 11.7849 14.8359" stroke="#0012D4" stroke-linecap="round"/>
<path d="M12.3993 13.8704C11.5883 13.3491 10.5623 12.704 9.56831 12.0755C9.02265 11.7306 8.48303 11.3277 7.79623 10.8604C7.33955 10.5496 6.84437 9.86725 6.20145 8.9619C5.34201 7.75163 5.40757 6.85059 5.39221 5.69774C5.38885 5.445 5.43566 5.3585 5.52299 5.32822C5.61032 5.29794 5.75514 5.32691 5.87319 5.42872C6.39285 5.8769 6.60476 6.40823 7.90244 7.41452C9.2807 8.48329 9.90666 9.3889 10.6711 9.91947C11.0461 10.1797 11.2864 10.5913 11.8117 11.3506C12.4283 12.553 12.545 12.8453 12.6473 13.0643C12.6916 13.1674 12.7206 13.2543 12.8382 13.4316" stroke="#0012D4" stroke-linecap="round"/>
<path d="M13.1015 13.5194C12.7539 12.998 12.4011 12.2081 11.9785 11.0995C11.4978 9.83858 10.9669 8.87106 10.7479 8.08376C10.2741 6.38011 10.1182 5.27513 9.98654 3.77426C9.80725 1.73043 10.0287 0.500439 10.2327 0.5C10.519 0.499385 10.8756 1.08148 11.415 2.23126C12.2853 4.08666 12.5161 5.50157 12.6034 5.82237C12.9162 6.97129 13.1893 8.42519 13.335 9.85672C13.4215 10.7066 13.4526 11.2935 13.5254 12.0088C13.5403 12.3152 13.5403 12.7786 13.5548 13.0608C13.5693 13.3429 13.5983 13.4298 13.6281 13.5194" stroke="#0012D4" stroke-linecap="round"/>
<path d="M13.6281 13.3438C13.6571 12.6733 13.7159 11.3339 13.643 9.86901C13.5724 8.44794 13.715 7.00069 13.8467 5.97861C14.0494 4.40448 14.2407 3.28363 14.6067 2.68197C15.0815 1.90159 15.4994 1.32109 15.8939 1.11483C15.9853 1.06705 16.0839 1.17189 16.1576 1.33207C16.754 2.62783 16.2331 4.62125 16.1445 5.4555C16.0181 6.64491 15.882 7.97932 15.6477 9.08347C15.4423 10.271 15.2097 11.3163 15.0329 12.1717C15.0035 12.2897 14.9745 12.3766 14.9447 12.6417" stroke="#0012D4" stroke-linecap="round"/>
<path d="M11.6972 15.0992C10.9441 14.9834 9.97688 14.8947 8.80954 14.8074C7.63648 14.7196 6.81365 14.5726 6.34672 14.5581C5.87799 14.5436 5.11969 14.4848 4.0546 14.5428C2.06444 14.651 0.936576 15.5925 0.521424 16.1507C0.451236 16.2451 0.578475 16.3842 0.709691 16.4728C1.0119 16.677 1.48426 16.8239 1.96568 17.0723C2.44141 17.3178 3.4977 17.2066 5.52212 16.9012C6.79768 16.7087 8.56028 16.335 9.5139 16.1415C10.4675 15.948 10.5544 15.919 10.6571 15.9041C10.7598 15.8892 10.8756 15.8892 10.995 15.8892" stroke="#0012D4" stroke-linecap="round"/>
<path d="M11.1706 15.8892C10.8809 15.8892 10.5 15.8892 9.72893 15.9616C8.33874 16.0921 7.33939 16.3859 6.46827 16.6475C4.45392 17.2523 2.92193 17.6147 2.60069 17.7315C2.32998 17.8298 2.16008 17.9948 2.05783 18.1699C1.96211 18.3338 1.9547 18.5793 1.99815 18.8422C2.10423 19.484 3.26774 19.7212 3.86809 19.8239C5.09493 20.0337 6.24753 19.4614 7.89585 18.8053C9.68899 18.0044 10.8467 17.4989 11.1973 17.3821C11.3452 17.3233 11.4321 17.2654 11.6094 17.2057" stroke="#0012D4" stroke-linecap="round"/>
<path d="M11.6094 17.469C11.4944 17.3523 10.8511 17.4093 9.47176 18.0338C8.32824 18.5515 6.26771 19.4403 5.1504 19.9463C3.5562 20.6683 2.98161 21.5608 2.61385 22.5561C2.5404 22.7549 2.56909 22.8791 2.61253 22.9678C2.69885 23.1439 2.91929 23.203 3.10887 23.2469C3.32228 23.2963 3.79436 23.117 4.52372 22.7817C5.33542 22.4086 6.22119 21.7153 7.0831 21.0285C8.0556 20.2536 9.49238 19.2613 10.5096 18.3493C10.7001 18.1729 10.9318 17.9991 11.1091 17.8806C11.2864 17.7621 11.4023 17.7042 11.6972 17.469" stroke="#0012D4" stroke-linecap="round"/>
<path d="M15.7346 31.1611C15.7346 31.3349 15.6767 32.9016 15.6034 35.1977C15.5735 36.132 15.6758 36.4835 15.7197 37.2835C15.8 38.7476 15.7056 39.7907 15.6473 40.0676C15.5713 40.4281 15.5301 41.0458 15.4427 41.9643C15.3357 43.0899 15.208 44.5232 15.179 45.9548C15.1582 46.9843 15.0324 48.1227 15.0035 49.3791C14.9734 50.6821 14.741 51.6045 14.6669 52.3264C14.5646 52.8394 14.4768 53.2476 14.433 53.729C14.418 53.9787 14.418 54.2394 14.2425 54.5957" stroke="#0012D4" stroke-linecap="round"/>
<path d="M15.2957 41.4302C15.15 41.3144 14.9166 40.6736 14.5949 39.8969C14.3659 39.3439 14.009 39.0622 13.7317 38.4921C13.6196 38.2617 13.048 37.7193 12.3309 36.9592C11.8634 36.4637 12.3116 35.4671 12.0641 34.4995C11.8869 33.8067 10.651 32.6602 9.62317 31.851C8.95998 31.3288 8.56905 31.0751 7.91209 30.7675C6.56068 30.1347 5.5603 30.1957 4.88183 30.4577C4.66881 30.5399 4.67558 31.3305 4.70454 32.339C4.73717 33.475 6.0167 34.521 6.9102 35.1964C7.74807 35.8297 8.24255 35.9288 8.91443 36.1193C10.1735 36.4273 10.8756 36.4853 11.8837 36.5586C12.0772 36.602 12.1062 36.6889 12.136 36.7784" stroke="#0012D4" stroke-linecap="round"/>
</svg>
