<svg width="27" height="49" viewBox="0 0 27 49" fill="none" xmlns="http://www.w3.org/2000/svg">
<path d="M7.24197 7.82624C7.36236 7.54812 7.20344 6.66561 7.02164 5.62477C6.80917 4.40834 7.0409 3.41367 7.18056 2.99348C7.34702 2.49266 7.80181 2.20849 8.16241 2.10796C8.89553 1.90357 9.64751 3.32819 10.4096 3.95125C10.685 4.17637 10.8527 4.41417 11.1127 4.59417C11.255 4.69266 11.4125 4.81389 11.6335 4.67664C12.9189 3.87808 13.5364 2.37464 14.2232 1.7877C14.691 1.38796 15.1063 1.28504 15.4266 1.22484C15.5864 1.1948 15.7468 1.20438 15.8883 1.40303C16.5775 2.37082 16.3512 3.08739 16.412 3.83025C16.4796 4.65592 16.592 5.6952 16.6528 6.65899C16.7336 7.93961 16.5944 10.1884 15.9533 12.0534C15.619 13.026 14.9113 13.7618 14.2274 14.3259C13.5739 14.8649 12.7032 15.0886 11.5606 15.51C10.0583 16.0641 7.56704 15.693 6.86392 15.5925C5.35602 15.3769 4.23684 14.0917 3.49218 13.4867C2.83008 12.9488 2.30807 12.4447 1.74582 11.762C1.185 11.0811 0.904237 10.0006 0.720631 9.23309C0.523305 8.4082 0.580368 7.70705 0.520169 7.46685C0.119294 5.86736 5.75385 7.18332 6.27698 7.24412C6.39798 7.26398 6.51717 7.30372 6.6779 7.32418C6.83863 7.34465 7.03729 7.34465 7.24197 7.46505" stroke="#0012D4" stroke-linecap="round"/>
<path d="M3.63004 6.50187C3.55058 6.22255 3.38924 5.18472 3.6487 4.45692C4.11043 4.01446 4.59081 3.85312 5.39146 3.75319C5.75145 3.73273 6.30768 3.73273 6.88077 3.73273" stroke="#0012D4" stroke-linecap="round"/>
<path d="M12.0579 15.5317C12.3372 15.6509 12.8982 16.1313 14.1383 18.3279C15.5252 20.7845 15.9106 22.6339 15.9503 22.9536C16.0776 23.9777 16.3512 24.6795 16.412 25.3212C16.4922 26.1674 16.6715 26.9646 16.8533 27.7695C16.9693 28.2831 17.0736 28.9319 17.1543 29.5755C17.2156 30.0648 17.3554 31.7709 17.3355 34.0573C17.3207 35.7578 17.1555 36.7192 16.6149 39.5992C16.3451 41.0366 16.3922 41.6941 16.2922 42.2979C16.1738 43.0136 16.1514 43.5819 15.8516 44.8635C15.6848 45.5767 15.5903 46.3896 15.3495 47.2733C15.3086 47.4756 15.3086 47.6345 15.2887 47.776C15.2689 47.9174 15.2291 48.0366 15.0678 48.1594" stroke="#0012D4" stroke-linecap="round"/>
<path d="M16.9942 27.3306C16.9942 27.0513 17.2326 25.6162 17.7743 23.9848C18.2054 22.687 18.9976 22.1174 19.4605 21.274C20.5021 19.3763 23.0116 17.9011 23.7527 17.4201C24.4408 16.9735 25.1391 16.856 25.4997 16.9156C26.2444 17.0387 26.2238 18.3779 26.2449 19.6204C26.2614 20.5898 25.906 21.6286 25.5237 22.3913C25.1389 23.1591 24.6611 23.5959 24.1398 24.178C23.6357 24.7408 22.6986 25.5608 21.913 26.2446C21.1487 26.9099 19.614 27.7665 18.6815 28.2727C18.5605 28.3335 18.4413 28.3733 18.2806 28.3937C18.1199 28.4142 17.9212 28.4142 17.5962 28.5346" stroke="#0012D4" stroke-linecap="round"/>
<path d="M17.1146 36.3605C17.0351 36.2822 16.5559 35.4816 16.0328 34.9374C15.6384 34.5271 14.9908 34.3161 13.9481 33.2343C13.1581 32.4147 12.2216 31.6674 11.5588 31.0852C10.9161 30.5207 9.93646 30.343 8.83302 30.1203C7.52582 29.8564 6.56051 30.219 6.44012 30.4592C6.09534 31.147 7.11916 32.4235 8.12087 33.4673C8.78539 34.1598 9.72697 34.3932 10.6697 35.0132C11.4808 35.5467 12.0555 35.9583 12.637 36.2587C13.6215 36.7673 14.2226 36.9215 15.6042 36.9823C15.9094 37.0022 16.0286 37.0419 16.2489 37.0624C16.4692 37.0828 16.7871 37.0828 17.1146 37.0828" stroke="#0012D4" stroke-linecap="round"/>
<path d="M9.64992 2.28796C9.64992 2.2085 9.68965 1.92917 9.80944 1.50839C10.0465 0.675591 11.3331 0.522931 12.215 0.501862C12.7791 0.681856 13.1402 0.922651 13.3804 1.10265C13.5014 1.20318 13.6206 1.32237 13.9842 1.56557" stroke="#0012D4" stroke-linecap="round"/>
</svg>
