<svg width="31" height="49" viewBox="0 0 31 49" fill="none" xmlns="http://www.w3.org/2000/svg">
<path d="M15.179 11.9542C14.4193 11.8338 13.5368 11.9132 12.6741 12.4135C11.8969 12.8642 11.1312 14.1117 10.7448 15.2609C10.251 16.7289 11.0445 17.3697 11.3052 17.8518C11.5826 18.3651 12.0463 19.0143 12.768 19.4977C13.4245 19.9373 14.4109 19.78 15.0965 19.6602C15.8356 19.5311 16.3806 19.219 17.7621 18.5188C18.6005 18.094 18.8295 16.8953 19.0113 15.7118C19.1416 14.8631 18.992 14.2429 18.8921 14.0027C18.6894 13.5157 17.9915 13.2809 17.3684 12.9186C16.826 12.5971 16.265 12.2768 15.7828 12.0553C15.6618 11.9951 15.5426 11.9156 15.179 11.8338" stroke="#0012D4" stroke-linecap="round"/>
<path d="M16.6238 12.4358C16.6623 12.2769 17.7796 10.8417 18.6272 9.63052C19.7679 8.00044 20.674 7.66323 22.256 6.54052C23.3577 5.7587 24.3268 5.57312 24.9487 5.37326C25.1255 5.31642 25.3285 5.33233 25.4905 5.41179C26.1111 5.71634 25.9739 6.5339 25.9552 7.55547C25.9396 8.41187 25.1359 9.05984 24.5321 9.64437C23.54 10.6048 22.687 11.5906 21.9442 12.2726C21.3446 12.8232 20.6812 13.1967 20.1171 13.6181C19.9961 13.7192 19.8769 13.7987 19.7361 13.8794C19.5952 13.96 19.4363 14.0395 19.2725 14.1214" stroke="#0012D4" stroke-linecap="round"/>
<path d="M10.6039 17.2517C9.28675 17.6887 7.43745 18.8939 6.77345 19.4772C6.31699 19.8782 5.79041 20.2207 5.30822 20.5211C4.5961 20.9647 4.02297 21.704 3.78218 22.2855C3.69644 22.4926 3.74124 22.8237 3.84057 23.047C4.3553 24.2044 6.62838 23.4329 7.13043 23.3721C7.7359 23.2988 8.19354 22.9513 8.91473 22.4715C10.3453 21.5198 11.0831 20.7047 11.5653 20.1834C11.6863 20.0618 11.8055 19.9823 11.9265 19.8818C12.0475 19.7812 12.1667 19.662 12.2895 19.5392" stroke="#0012D4" stroke-linecap="round"/>
<path d="M12.2895 19.5392C11.5707 20.016 10.5268 21.3813 10.0838 22.2439C9.15357 24.0551 9.15913 26.3513 9.39872 27.3428C9.47057 27.6401 9.75991 27.8057 10.0796 27.9261C10.9071 28.2378 11.4443 27.6877 12.1059 27.167C13.0779 26.4019 13.2912 25.8023 13.7926 25.1202C14.1392 24.6489 14.3747 23.7194 14.7564 22.5534C14.8575 21.5872 14.9779 21.1863 15.0381 20.8461C15.0586 20.6649 15.0586 20.4663 15.0586 20.2616" stroke="#0012D4" stroke-linecap="round"/>
<path d="M14.8178 20.1412C14.8178 20.6962 14.8973 22.4649 15.1977 23.2679C15.6455 24.465 15.9399 25.0342 16.2813 25.6169C16.7584 26.4315 17.2234 27.0809 17.7254 27.5041C18.3004 27.9888 18.9089 28.2464 19.5699 28.4282C20.3189 28.6342 20.9569 28.4089 21.2567 28.2692C21.7031 28.0613 22.0405 27.6877 22.2807 27.2284C22.6401 26.5411 22.6437 25.6434 22.6039 24.9023C22.5369 23.6521 21.4036 22.5154 20.8395 21.7888C20.3066 21.1024 19.9564 20.4253 19.3351 19.7024C19.1136 19.4212 18.9125 19.219 18.6724 19.0787C18.5514 19.0179 18.4322 18.9782 18.0686 18.8168" stroke="#0012D4" stroke-linecap="round"/>
<path d="M19.3929 14.3621C20.1093 13.7638 21.6371 12.9583 22.3794 12.5182C23.5396 11.8304 24.2064 11.5545 24.9282 11.3329C25.8201 11.0592 27.4885 10.8706 29.0807 11.4299C29.4448 11.5577 29.4257 11.953 29.4859 12.2925C29.5799 12.8228 29.4666 13.2774 29.2872 13.5771C28.6462 14.6484 27.344 15.1616 26.6391 15.5649C25.8464 16.0184 24.2161 16.4474 23.0687 16.5492C22.2849 16.6497 21.5625 16.7292 20.7414 16.87C20.4404 16.8905 20.0431 16.8905 19.6337 17.0109" stroke="#0012D4" stroke-linecap="round"/>
<path d="M19.0317 16.6497C19.4676 16.7701 20.8353 16.6906 22.516 16.6298C24.4029 16.5616 26.2532 16.6088 26.8353 16.7894C27.4471 16.9791 27.8593 17.6105 28.4607 18.5321C28.7175 18.9257 28.6635 19.6945 28.6039 20.5169C28.5732 20.9405 28.1832 21.1032 27.7244 21.3633C25.9845 22.3497 24.2546 21.6679 23.4889 21.3663C22.8674 21.1215 22.2054 21.0249 21.6823 20.7643C21.2212 20.5345 20.5608 20.264 19.8769 19.8619C19.5567 19.5826 19.2737 19.3394 19.0335 19.1792C18.9125 19.0986 18.7934 19.0191 18.6705 18.9372" stroke="#0012D4" stroke-linecap="round"/>
<path d="M11.2059 13.2785C10.6858 13.2785 10.0453 13.0402 8.14358 11.9187C6.83819 11.1488 6.19254 10.3914 5.56948 9.74969C4.91179 9.0723 4.90669 8.34465 4.60509 7.52294C4.45603 7.1168 4.46363 6.50016 4.60269 5.79884C4.72974 5.15809 5.50507 5.01205 5.98485 4.89165C7.11584 4.60784 7.79142 5.2095 8.31454 5.47196C8.84227 5.73674 9.27712 6.13415 9.85924 6.39481C10.3604 6.6192 11.0012 7.01546 11.7645 7.69691C12.7841 8.60709 13.0094 9.26208 13.2719 9.78521C13.4116 10.0254 13.5332 10.3071 13.6331 10.6075C13.6933 10.749 13.7728 10.8682 13.975 11.1114" stroke="#0012D4" stroke-linecap="round"/>
<path d="M14.3362 10.991C14.016 10.5925 13.6957 9.70997 13.1545 8.04909C12.4048 5.74829 12.8505 3.89236 13.2508 2.72812C13.6851 1.46512 15.0153 0.718684 15.6781 0.536884C16.0449 0.436257 16.3818 0.556148 16.6816 0.73554C17.5838 1.27542 17.7459 2.19717 18.0475 3.44148C18.3143 4.54238 18.2684 5.92949 18.2497 7.77278C18.071 8.65529 17.8687 9.22357 17.7284 9.52396C17.6676 9.66543 17.6279 9.78462 17.4666 10.1482" stroke="#0012D4" stroke-linecap="round"/>
<path d="M11.2059 13.2785C10.4052 13.2388 9.76353 13.1581 7.72279 12.8584C6.52147 12.6819 4.67793 12.6766 3.42339 12.8361C2.27592 12.982 1.14065 14.1936 0.611505 14.9623C0.46795 15.1709 0.490505 15.4445 0.530236 15.7046C0.633682 16.3817 1.76913 16.6882 2.41506 16.9898C3.1158 17.317 4.29988 17.2107 4.82301 17.2715C6.05588 17.4148 8.47046 17.2131 9.17719 17.1114C9.47698 17.0518 9.79965 17.0109 10.1 16.991C10.2415 16.9711 10.3607 16.9314 10.6039 16.7701" stroke="#0012D4" stroke-linecap="round"/>
<path d="M10.1223 15.2049C9.68528 15.2049 9.24823 15.2049 8.82443 15.2049C8.40063 15.2049 8.00332 15.2049 7.71918 15.2248C7.43505 15.2447 7.27612 15.2844 7.11238 15.3253" stroke="#0012D4" stroke-linecap="round"/>
<path d="M11.0855 18.3353C10.8471 18.4545 10.6087 18.5737 10.4462 18.6947C10.2836 18.8157 10.2042 18.9348 10.0838 19.0956C9.96338 19.2563 9.80445 19.455 9.39992 19.9004" stroke="#0012D4" stroke-linecap="round"/>
<path d="M13.373 20.2616C13.373 20.3014 13.373 20.3411 13.1943 20.7589C13.0155 21.1766 12.6579 21.9713 12.4099 22.79" stroke="#0012D4" stroke-linecap="round"/>
<path d="M16.7442 19.4188C16.7839 19.7367 16.8236 20.0545 16.864 20.2779C16.9043 20.5012 16.944 20.6204 17.0042 20.8606C17.0644 21.1008 17.1439 21.4584 17.4666 21.8268" stroke="#0012D4" stroke-linecap="round"/>
<path d="M18.5502 17.9741C18.7091 17.8946 19.3869 18.0126 20.3495 18.2931C20.8353 18.4942 21.1965 18.6158 21.657 18.676C21.8791 18.6965 22.0778 18.6965 22.2825 18.6965" stroke="#0012D4" stroke-linecap="round"/>
<path d="M19.6337 15.5661C19.4748 15.5661 19.6711 15.5264 20.311 15.4066C21.1098 15.2073 21.9177 14.8859 22.5389 14.565C22.8026 14.4428 22.9615 14.4031 23.1253 14.3621" stroke="#0012D4" stroke-linecap="round"/>
<path d="M18.0686 12.9174C18.148 12.679 18.7452 12.1589 19.6476 11.537C19.9937 11.3125 20.1129 11.2727 20.2339 11.2125C20.3549 11.1523 20.4741 11.0729 20.4765 11.1114" stroke="#0012D4" stroke-linecap="round"/>
<path d="M15.9014 11.9542C15.663 11.7158 15.4607 11.1957 15.3403 10.4745C15.2994 9.91224 15.2199 9.38851 15.0995 8.90752C15.0586 8.70465 15.0586 8.58546 14.9382 8.34225" stroke="#0012D4" stroke-linecap="round"/>
<path d="M12.7711 11.8338C12.4532 11.5954 12.1354 11.357 11.6736 11.0355C11.2119 10.7141 10.616 10.3168 10.2493 10.0922C9.88273 9.86769 9.76354 9.82796 9.64073 9.66663" stroke="#0012D4" stroke-linecap="round"/>
<path d="M15.0586 23.0308C14.7781 24.1131 14.6974 24.5935 14.3976 26.3345C14.1812 27.5916 14.0954 29.1229 13.8956 30.8295C13.6777 32.6901 13.7342 34.2952 13.6343 35.3095C13.6107 35.5494 13.5741 35.7917 13.5139 37.204C13.4588 38.496 13.4934 40.9604 13.5133 42.3287C13.5431 44.383 13.9726 46.0556 14.2953 47.2879C14.3759 47.8315 14.4566 48.3913 14.4566 48.8133C14.4566 48.9174 14.4566 48.7982 14.4566 48.6754" stroke="#0012D4" stroke-linecap="round"/>
<path d="M13.6138 41.6924C13.7728 41.2541 14.4927 40.0526 15.0965 39.0274C15.7168 37.9743 16.7779 37.0836 17.345 36.3967C17.4256 36.2757 17.5051 36.1565 17.6056 36.0554C17.7062 35.9542 17.8254 35.8748 17.9482 35.6725" stroke="#0012D4" stroke-linecap="round"/>
<path d="M18.3094 35.5521C17.6279 36.5538 17.3076 37.1149 17.2854 38.7559C17.2798 39.1659 17.4642 39.4 17.6249 39.5427C18.2765 40.1211 19.7469 39.5276 20.4747 39.0653C21.323 38.5264 21.9598 37.0402 22.3415 35.8784C22.7571 34.6131 22.5233 33.6715 22.6232 32.7264C22.7354 31.6651 22.7641 30.4641 22.864 29.5545C22.8796 29.4124 22.8845 29.2938 22.7653 29.3715C21.8626 29.9596 21.3626 30.5339 20.68 30.9752C19.8051 31.5407 18.5574 31.8583 17.1301 32.5596C16.5064 32.8661 15.6269 33.5005 15.0797 34.1055C14.7091 34.5153 14.8178 35.3474 14.9376 35.9115C15.1778 36.354 15.5787 36.7537 16.0399 37.0763C16.1807 37.1173 16.3396 37.1173 16.6238 36.9969" stroke="#0012D4" stroke-linecap="round"/>
</svg>
