<svg width="19" height="50" viewBox="0 0 19 50" fill="none" xmlns="http://www.w3.org/2000/svg">
<path d="M9.15998 9.35547C9.12025 9.35547 9.08052 9.35547 9.02032 15.0172C8.96012 20.6789 8.88066 32.0023 8.81986 37.8951C8.75906 43.788 8.71933 43.9072 8.69886 44.1672C8.60569 45.351 8.55799 46.6281 8.45806 47.8977C8.4376 48.3173 8.4376 48.9928 8.41773 49.2215C8.39787 49.4503 8.35813 49.2119 8.3172 48.9663" stroke="#0012D4" stroke-linecap="round"/>
<path d="M9.40077 9.11466C8.63986 8.99547 7.91988 8.43562 7.41541 7.47304C7.00224 6.68466 7.23361 5.23063 7.13368 4.4011C7.05445 3.74338 7.472 2.62042 7.93433 1.63316C8.14387 1.18568 8.23652 0.808432 8.35632 0.60797C8.41484 0.510041 8.55558 0.48697 8.67658 0.506234C9.89221 0.699767 10.3639 3.21277 10.4837 3.99475C10.6047 5.29324 10.5253 7.30629 10.1448 8.40793C10.0437 8.6716 9.96423 8.83052 9.64156 9.23506" stroke="#0012D4" stroke-linecap="round"/>
<path d="M9.28036 9.35547C9.55969 8.99548 10.2002 8.43563 10.863 7.87277C11.5892 7.25605 12.0062 6.5502 12.5094 5.98614C12.6144 5.86847 12.69 5.74595 12.7906 5.64481C12.8911 5.54368 13.0103 5.46422 13.0916 5.60207C13.8976 6.96945 13.174 8.87147 12.9537 9.55292C12.5916 10.673 11.9315 11.159 11.5294 11.6611C10.9274 12.2438 10.3664 12.6447 9.88416 12.9463C9.76316 13.0071 9.64397 13.0469 9.52116 13.0878" stroke="#0012D4" stroke-linecap="round"/>
<path d="M9.03958 13.449C9.15877 13.2491 9.79809 12.8494 10.5211 12.2679C12.1502 10.9575 13.6917 10.2007 14.2149 9.85813C14.3282 9.78395 14.4551 9.7576 14.5363 9.79673C14.9588 10.0001 14.3804 11.9898 13.8772 13.2058C13.427 14.2934 12.2927 15.6523 11.7106 16.2163C11.2306 16.6815 10.848 17.0994 10.3459 17.4408C9.76956 17.8326 9.40198 18.0229 9.32071 18.1439C8.86202 18.8268 10.9226 17.1043 11.4656 16.6811C12.0769 16.2046 12.808 15.6595 13.392 15.3561C14.0055 15.0373 14.496 14.7746 14.7567 14.6933C15.4652 14.4724 14.8596 16.2157 14.6989 16.9574C14.4346 18.1769 13.4172 19.4255 12.994 19.9685C12.5214 20.5749 11.8521 21.0316 11.229 21.5138C10.7264 21.9165 10.3652 22.0369 10.0852 22.0971C9.9245 22.1176 9.72585 22.1176 9.52117 22.238" stroke="#0012D4" stroke-linecap="round"/>
<path d="M9.28037 8.75347C8.39906 8.67401 7.83801 8.51268 6.8965 8.13342C5.82607 7.70224 5.26993 6.78979 4.78894 6.3684C4.60213 6.20473 4.46687 6.22512 4.40547 6.56284C4.02078 8.67862 5.18444 9.9141 5.76657 10.6172C6.18535 11.1231 6.82907 11.5202 7.3522 11.8627C7.5924 11.9633 7.83439 12.0837 8.07459 12.2041C8.19559 12.245 8.31478 12.245 8.43759 12.3654" stroke="#0012D4" stroke-linecap="round"/>
<path d="M8.55798 12.6062C7.8368 12.3654 7.35641 12.2859 6.57443 12.0054C5.99812 11.7987 5.47098 11.4841 4.94786 11.1825C4.5016 10.9252 4.10447 10.9206 3.90401 10.9802C3.3515 11.1445 3.62168 12.6399 3.8414 13.3467C4.08364 14.1258 4.90271 14.8914 5.70576 15.6733C6.22664 16.1805 6.82907 16.6973 7.37206 17.0796C7.95479 17.4618 8.31598 17.5822 8.55617 17.6623C8.67717 17.7026 8.79636 17.7424 8.91917 17.7833" stroke="#0012D4" stroke-linecap="round"/>
<path d="M8.31721 17.5425C6.47633 17.144 4.63304 15.7847 3.76437 15.0358C3.52419 14.8288 3.26171 14.7336 3.02152 14.6933C2.90219 14.6733 2.78133 14.7324 2.71992 15.1303C2.3648 17.4317 3.33756 18.7417 3.84082 19.3467C4.23409 19.8194 4.62341 20.3092 5.1646 20.6915C5.72209 21.0853 6.30657 21.4747 7.13009 21.6752C8.1932 21.9972 9.03839 22.037 9.27858 22.0972C9.39958 22.1176 9.51877 22.1176 9.64158 22.1176" stroke="#0012D4" stroke-linecap="round"/>
<path d="M9.15997 28.1375C9.23944 27.8979 9.79808 27.2586 10.5403 26.3965C12.6143 23.9878 14.1733 23.2831 14.7362 22.9417C15.452 22.5077 15.901 22.3187 16.1412 22.3379C16.4645 22.3639 16.5837 22.8785 16.7041 23.4769C17.1402 25.6441 16.066 26.9672 15.2232 28.1935C14.4893 29.2614 12.7021 30.4588 11.7106 31.0258C11.1682 31.3473 10.7263 31.5484 10.3471 31.6086C10.087 31.629 9.68972 31.629 9.28037 31.629" stroke="#0012D4" stroke-linecap="round"/>
<path d="M8.79879 28.2579C8.55919 28.0592 8.07881 27.4175 7.41722 26.2563C6.69232 24.9839 5.51193 24.5689 4.42835 23.9458C3.55863 23.4458 2.78132 23.0013 2.17933 22.5811C2.0037 22.4586 1.85907 22.2813 1.69774 22.1995C1.5364 22.1176 1.37748 22.1176 1.25588 22.2765C0.221604 23.6283 1.05241 26.0474 1.2926 26.9498C1.58666 28.0545 2.25638 28.3759 3.25568 29.2975C4.25696 30.221 5.18204 30.4636 5.8665 30.785C6.34508 30.9452 6.79055 31.0668 7.24987 31.127C7.55026 31.1474 7.98731 31.1474 8.43759 31.1474" stroke="#0012D4" stroke-linecap="round"/>
<path d="M8.79877 37.0469C8.79877 36.8073 9.27554 35.9296 10.1201 35.023C10.848 34.2417 12.1217 33.5193 12.9501 33.075C13.7291 32.6572 14.3346 32.4333 15.3364 31.992C16.1447 31.6359 16.8221 31.3088 17.3452 31.148C17.4671 31.1106 17.5854 31.068 17.6865 31.127C17.931 31.2696 17.949 31.9059 17.9093 32.5675C17.85 33.5538 16.7089 34.834 15.765 35.8797C14.9754 36.7543 13.4606 38.0462 12.5738 38.7704C12.0861 39.1687 11.3705 39.2935 10.6475 39.5542C10.1243 39.7354 9.76315 39.8558 9.48323 39.916C9.3225 39.9365 9.12384 39.9365 8.79877 40.0569" stroke="#0012D4" stroke-linecap="round"/>
<path d="M8.67837 36.5653C8.24012 36.0079 7.27694 34.8027 6.29631 34.2007C3.80037 32.6685 2.42251 32.4333 0.777883 32.55C0.430086 32.5747 0.491337 33.146 0.531068 33.45C0.662204 34.4534 1.53157 35.1976 2.31235 36.0783C4.47145 38.5137 5.18443 38.8505 5.64676 39.2327C6.17176 39.6668 6.94946 40.0159 7.77238 40.0767C7.95478 40.0966 8.07398 40.1363 8.23471 40.1568C8.39544 40.1772 8.59409 40.1772 8.67837 40.1772" stroke="#0012D4" stroke-linecap="round"/>
</svg>
