<svg width="22" height="51" viewBox="0 0 22 51" fill="none" xmlns="http://www.w3.org/2000/svg">
<path d="M11.9923 7.08386C11.353 6.96346 10.55 7.04292 9.26834 7.60337C8.62245 7.88581 8.22148 8.36489 7.72002 9.1878C7.37582 9.75266 7.41722 10.6115 7.57675 11.1954C7.77196 11.91 8.29853 12.3789 8.85959 12.9412C9.34278 13.4254 10.0226 13.5035 11.8244 13.5456C12.5581 13.5628 12.9543 13.2253 13.1945 12.9653C13.7723 12.3397 13.9187 11.541 14.1186 10.5995C14.2985 9.75184 13.7598 9.25342 13.4383 8.75136C12.9977 8.08918 12.4751 7.60638 12.2349 7.48598C12.1139 7.44505 11.9947 7.44505 11.8719 7.44505" stroke="#0012D4" stroke-linecap="round"/>
<path d="M8.13962 4.43508C7.98069 4.11723 7.89882 3.71511 7.91869 3.27445C7.95728 2.41835 9.65422 1.27104 11.0653 0.623898C11.8404 0.268398 13.0302 0.741286 14.5147 1.24214C15.9644 1.73125 16.1244 2.62671 16.326 3.12877C16.58 3.76108 16.5674 4.55187 16.627 5.07379C16.6757 5.50005 17.5282 5.07801 18.43 5.05694C19.1183 5.04085 19.6544 5.63665 20.3377 6.3187C20.7458 6.72609 20.661 8.51415 20.481 9.73017C20.3649 10.5144 21.0222 12.4873 20.6628 14.1626C20.436 15.2199 19.5027 16.3448 18.7569 17.2755C18.2844 17.865 17.533 18.2399 16.5512 18.7203C15.8881 19.0447 15.0866 19.1236 14.0445 19.2235C12.1219 19.4079 11.7925 18.884 11.5926 18.763C11.0501 18.4346 10.7498 19.6028 10.249 19.9652C9.5133 20.4975 8.66455 20.3276 8.12156 20.2078C7.18837 20.0019 5.69795 19.2464 4.91115 18.884C4.34895 18.625 3.92811 18.0424 3.26592 17.081C2.66303 16.2058 2.76266 15.4346 2.76146 14.6117C2.76059 14.0171 3.24184 13.6672 3.46277 13.3668C3.55429 13.2423 3.48505 13.1061 3.40498 13.005C3.02626 12.5266 2.48334 11.7842 2.3208 10.7999C2.15693 9.80758 2.04027 9.01501 2.0192 8.39014C1.99639 7.71365 2.3196 6.92731 2.70005 6.36325C3.07515 5.80713 4.15927 5.04189 5.00687 4.57655C5.88818 4.43508 6.81404 4.47481 7.0741 4.53501C7.21496 4.55548 7.37389 4.55548 7.77842 4.67588" stroke="#0012D4" stroke-linecap="round"/>
<path d="M11.3903 19.244C11.2699 20.5166 11.4289 23.6505 11.8105 25.1585C12.0451 26.0854 12.3511 27.3034 12.5738 28.2708C12.8451 29.449 12.9555 30.9996 13.0554 32.1199C13.1863 33.5873 13.1156 34.7729 13.1758 35.7896C13.2993 37.8756 13.1566 39.4286 13.0964 40.7825C13.045 41.9368 13.0759 44.0435 13.056 45.2276C13.026 47.0163 12.876 47.7349 12.8152 48.258C12.675 48.8594 12.5943 49.6612 12.5546 49.9442C12.5149 49.9092 12.4354 49.5119 12.3535 49.1026" stroke="#0012D4" stroke-linecap="round"/>
<path d="M13.5575 38.9892C13.7164 38.7496 14.2775 38.2692 14.8993 37.9267C15.6457 37.5156 16.5241 37.3855 17.9267 36.4446C18.7896 35.8657 19.7339 34.8596 20.4779 33.8759C20.9407 33.2642 21.0221 32.6515 21.222 31.3313C21.3121 30.7365 21.2629 29.8173 20.9054 29.5055C20.0968 28.8004 18.5395 30.276 17.3789 31.2759C15.2207 33.1353 15.0841 33.8892 14.9824 34.4719C14.9625 34.6525 14.9228 34.8909 14.9023 35.4308C14.8819 35.9708 14.8819 36.8052 14.8819 37.6648" stroke="#0012D4" stroke-linecap="round"/>
<path d="M13.1963 40.1932C13.0374 40.1932 12.8363 40.1534 12.616 40.0336C11.817 39.5992 11.3928 38.0693 10.9106 37.3265C10.1021 36.081 7.7447 35.0185 6.75805 34.5561C6.19486 34.2923 5.6546 34.0144 5.01168 33.7928C4.15327 33.497 3.12625 33.2101 2.60313 33.1102C2.48259 33.0871 2.36293 33.0897 2.30153 33.3082C1.95934 34.526 2.36052 35.2135 3.21956 36.9358C3.67254 37.844 4.76366 38.2644 6.60755 39.4262C7.7748 39.832 8.61999 39.8717 9.29723 39.9319C9.85527 39.9524 10.8486 39.9524 11.8719 39.9524" stroke="#0012D4" stroke-linecap="round"/>
<path d="M13.0759 27.9126C13.0759 27.8332 13.0759 27.3949 13.2547 26.2566C13.8089 22.728 15.2816 21.6158 15.8228 21.0518C16.2864 20.5686 16.8058 20.2096 17.3277 19.8273C18.0592 19.2916 18.8526 19.1645 19.3348 19.0839C19.5992 19.0396 20.0951 18.8828 20.7169 18.9623C21.7146 19.0898 20.6248 22.1624 20.1607 23.1148C19.835 23.7831 19.0597 24.2574 17.9761 25.2801C17.2357 25.979 16.2905 26.5449 15.6067 26.9681C14.9637 27.3901 14.4027 27.7104 13.9205 28.0517C13.7995 28.1522 13.6803 28.2714 13.4371 28.635" stroke="#0012D4" stroke-linecap="round"/>
<path d="M12.7147 29.839C12.0778 29.1624 10.7908 27.8741 9.86973 27.1535C8.63929 26.1909 7.70378 25.6299 6.95792 25.1447C6.32608 24.7337 4.77812 23.9853 3.92751 23.6788C3.38286 23.4827 2.72414 23.3785 1.80249 23.3177C1.35819 23.2883 0.997634 23.2171 0.756839 23.3165C-0.00267151 23.6298 1.11322 25.6564 1.63634 26.4859C2.08356 27.1951 2.91918 27.59 3.46217 27.9114C4.15776 28.3232 6.47572 29.1118 7.95601 29.5573C8.82585 29.819 9.34119 29.7186 10.0028 29.8185C10.5018 29.839 10.9473 29.7993 11.3271 29.7391C11.5481 29.7186 11.8262 29.7186 12.1127 29.839" stroke="#0012D4" stroke-linecap="round"/>
</svg>
