<svg width="29" height="50" viewBox="0 0 29 50" fill="none" xmlns="http://www.w3.org/2000/svg">
<path d="M14.539 7.55369C13.7805 7.63315 12.656 7.95341 11.9733 8.19481C11.1419 8.48882 10.2913 9.11404 9.58461 9.81837C8.6878 10.7121 8.88029 13.6723 8.98022 15.1568C9.02784 15.8642 9.4004 16.6606 9.84166 17.0838C10.3261 17.5483 11.5603 18.2233 12.8089 18.7693C14.4194 19.4736 15.9813 19.0324 16.4635 18.9716C17.0113 18.9025 17.5465 18.5508 18.1485 18.2504C18.8282 17.9112 19.1526 17.3083 19.6336 16.607C20.386 15.51 20.3975 14.621 20.5384 13.6994C20.8907 11.3946 20.359 10.7274 19.639 9.30487C19.1697 8.37769 18.1942 7.99675 16.6718 7.29544C15.9452 7.03237 15.265 6.9517 14.6636 7.03117C14.4198 7.11063 14.3006 7.26955 14.1778 7.43329" stroke="#0012D4" stroke-linecap="round"/>
<path d="M15.5022 6.83129C15.5022 5.91145 15.4227 4.86881 15.3619 4.26501C15.3254 3.90255 15.2614 3.22418 15.3408 2.3826C15.4018 1.73688 15.9416 1.33514 16.3618 0.994414C17.2978 0.235451 18.789 0.52968 19.3531 0.710276C19.9682 0.907218 20.2771 1.73125 20.7172 2.33444C21.3755 3.23682 22.9656 2.73657 23.1661 2.99663C23.3634 3.25267 23.328 3.85747 23.2485 4.59852C23.1162 5.83255 22.1264 6.26783 21.4642 6.90895C21.2427 7.19007 21.0417 7.43207 20.8015 7.63253C20.6805 7.7138 20.5613 7.75353 20.3181 8.03526" stroke="#0012D4" stroke-linecap="round"/>
<path d="M20.4385 8.39646C20.3193 8.39646 20.2001 8.39646 20.1585 8.33687C20.117 8.27727 20.1567 8.15808 20.2368 8.05694C20.6031 7.59425 21.3583 7.31529 22.3606 6.85297C23.3144 6.41303 24.3249 6.4701 25.2315 6.60976C25.5954 6.66583 25.8551 6.95049 26.0556 7.19068C26.4547 7.66884 26.1381 8.51445 25.8973 9.01651C25.5235 9.7959 26.3765 10.9224 26.3987 12.4238C26.4067 12.9589 25.819 13.2906 25.338 13.5916C24.8449 13.9002 23.4195 13.8144 22.4672 13.6946C22.1674 13.6145 21.8844 13.5338 21.6045 13.4736C21.4438 13.4532 21.2451 13.4532 21.0404 13.4532" stroke="#0012D4" stroke-linecap="round"/>
<path d="M24.8932 13.5736C25.1327 13.5338 25.7323 13.6121 26.3337 14.0118C26.8886 14.3806 26.8195 15.2158 26.7202 15.757C26.5608 16.6253 25.4975 16.7027 25.0768 16.923C23.8691 17.5554 24.5729 20.435 24.373 20.6752C24.1374 20.9584 23.6916 21.1177 23.2311 21.2381C22.0843 21.5379 20.9224 19.5958 20.66 19.0938C20.5998 18.9529 20.5203 18.794 20.4198 18.6724C20.3193 18.5508 20.2001 18.4713 19.8365 18.3895" stroke="#0012D4" stroke-linecap="round"/>
<path d="M15.0206 19.473C14.7003 19.9125 14.38 20.5542 14.1784 21.456C13.9106 22.6532 14.1368 24.2468 14.3566 24.6272C14.5969 25.0434 15.1385 25.2112 15.6388 25.3316C16.1653 25.4583 16.5845 25.3328 16.8247 25.1931C17.4294 24.8415 17.508 24.2901 17.7277 24.1095C18.2399 23.6885 19.2682 24.2889 19.9551 24.1493C20.2273 24.0939 20.4372 23.8483 20.6377 23.6683C20.8791 23.1668 21.0404 21.7317 20.9206 20.7992C20.8803 20.6782 20.8406 20.559 20.5588 20.1954" stroke="#0012D4" stroke-linecap="round"/>
<path d="M10.4454 17.6671C10.4057 17.6274 10.366 17.5876 10.2859 17.587C9.73003 17.5828 9.16442 18.428 8.64129 18.9289C7.99116 19.5513 7.95803 20.193 7.59744 20.9148C7.24434 21.6216 7.31511 22.359 7.39457 22.9802C7.45613 23.4615 8.03509 23.6858 8.59494 23.8664C9.28149 24.0878 9.84225 23.8483 10.0824 23.7478C10.3047 23.6547 10.4454 24.8404 10.8247 25.6121C10.9746 25.9172 11.5663 25.8541 12.0473 25.8144C12.6597 25.7638 12.9714 25.0932 13.8533 24.9915C14.0562 24.9716 14.1754 24.9319 14.2964 24.8717C14.4174 24.8115 14.5366 24.732 14.539 24.5297" stroke="#0012D4" stroke-linecap="round"/>
<path d="M8.88029 15.4999C8.04112 16.1392 6.91781 16.9423 6.23395 17.165C5.65756 17.3528 4.6736 17.3059 3.08796 16.967C1.88853 16.7106 1.13631 16.0634 0.835923 15.7034C0.508568 15.3111 0.452456 14.8197 0.531919 14.4392C0.616937 14.0322 1.05324 13.8553 1.3133 13.7349C1.95446 13.4381 2.61841 13.5736 2.83874 13.514C2.95205 13.4833 3.01933 13.3352 2.94107 13.2142C2.48158 12.5037 1.57938 12.372 1.13631 11.7104C0.818084 11.2352 0.693252 10.7262 0.732983 10.3656C0.766425 10.0621 1.17243 9.80271 1.59322 9.54205C2.44117 9.01678 3.94158 9.43911 4.72356 9.71963C5.29986 9.92638 5.74754 10.1615 6.3098 10.4619C6.51086 10.6816 6.83112 11.0428 7.23204 11.4636C7.39458 11.646 7.47404 11.7652 7.79671 12.0084" stroke="#0012D4" stroke-linecap="round"/>
<path d="M3.7032 17.3059C3.46482 17.4648 3.30228 17.6659 3.24208 18.0253C3.14327 18.6152 3.30107 19.1106 3.5208 19.331C4.05037 19.862 4.78437 19.6729 5.20697 19.9925C5.65376 20.3305 5.34783 21.037 5.52783 21.2573C5.74755 21.4379 5.98955 21.5993 6.24961 21.7197C6.39048 21.7606 6.5494 21.7606 6.71314 21.7606" stroke="#0012D4" stroke-linecap="round"/>
<path d="M3.22159 8.75766C2.94226 8.559 2.46067 7.59943 2.35894 6.45385C2.2856 5.62806 2.41733 4.58709 2.75866 4.08382C3.0684 3.62713 3.70077 3.54203 4.40269 3.4403C5.02025 3.35079 5.38754 3.66002 5.62773 3.76056C6.11608 3.96495 6.66977 3.13991 7.29283 3.1387C7.86847 3.13759 8.51426 4.53411 8.9796 5.38472C9.27999 6.06557 9.68212 6.94929 10.0427 7.53141C10.124 7.67288 10.1637 7.79207 10.2046 8.03527" stroke="#0012D4" stroke-linecap="round"/>
<path d="M8.27831 4.30295C8.15791 2.90393 8.19764 1.61568 8.3373 1.33515C8.68889 0.628951 9.7616 0.811423 10.062 0.871019C10.658 0.98926 11.1245 1.45194 11.7476 1.59401C12.3182 1.72412 13.0485 0.813831 13.8341 0.591095C14.2139 0.570628 14.5378 0.65009 14.778 0.830084C14.899 0.930616 15.0182 1.04981 15.2614 1.29301" stroke="#0012D4" stroke-linecap="round"/>
<path d="M12.8534 7.19248C12.7739 6.71571 12.6535 6.31117 12.5133 6.01078C12.4525 5.86931 12.4127 5.75012 12.3525 5.58939C12.2924 5.42866 12.2129 5.23 12.0106 5.14572" stroke="#0012D4" stroke-linecap="round"/>
<path d="M9.12109 9.23924C8.8827 9.08032 8.64431 8.92139 8.40231 8.76006C8.16032 8.59873 7.92193 8.4398 7.73953 8.35793C7.55712 8.27606 7.43793 8.27606 7.31512 8.27606" stroke="#0012D4" stroke-linecap="round"/>
<path d="M7.43552 13.6939C7.11767 13.6939 6.79982 13.6939 6.53675 13.6741C6.27368 13.6542 6.07502 13.6145 5.91309 13.594C5.75115 13.5735 5.63196 13.5735 5.50916 13.6939" stroke="#0012D4" stroke-linecap="round"/>
<path d="M11.8902 20.075C11.8107 20.075 11.6903 20.2339 11.5302 20.5343C11.4496 20.6758 11.3701 20.795 11.2894 20.9359C11.2088 21.0767 11.1293 21.2356 11.1678 21.5198" stroke="#0012D4" stroke-linecap="round"/>
<path d="M17.0673 19.9546C17.2262 20.0738 17.3852 20.193 17.4869 20.314C17.5886 20.435 17.6284 20.5542 17.6886 20.6752C17.7488 20.7962 17.8282 20.9154 18.0305 21.0382" stroke="#0012D4" stroke-linecap="round"/>
<path d="M20.6792 16.1019C20.9971 16.1416 21.3149 16.1814 21.5581 16.2217C21.8013 16.262 21.9603 16.3018 22.3648 16.4631" stroke="#0012D4" stroke-linecap="round"/>
<path d="M21.7628 10.4432C22.0012 10.3638 22.2396 10.2843 22.4816 10.2036C22.7236 10.123 22.962 10.0435 23.4484 9.96164" stroke="#0012D4" stroke-linecap="round"/>
<path d="M18.0305 6.59051L18.5121 4.78455" stroke="#0012D4" stroke-linecap="round"/>
<path d="M14.539 24.7705C14.539 24.9295 14.539 27.0376 14.5787 30.3263C14.6124 33.1187 14.9387 35.1175 15.0404 36.0048C15.1328 36.8101 15.2204 37.4484 15.3613 38.4122C15.4548 39.0517 15.5022 40.0153 15.6021 41.0585C15.8398 43.5407 15.8224 44.1907 15.9633 45.1918C15.9837 46.7431 15.944 47.9254 15.8838 48.3053C15.8633 48.5262 15.8633 48.8043 15.7429 48.9704" stroke="#0012D4" stroke-linecap="round"/>
<path d="M15.5021 40.061C15.5021 40.0622 15.6611 39.3435 16.1023 38.6385C16.6126 37.8233 17.1468 36.8127 18.2863 35.631C19.1129 35.085 19.4741 34.9249 19.7142 34.7647C19.8352 34.6841 19.9544 34.6046 19.9568 34.7635" stroke="#0012D4" stroke-linecap="round"/>
<path d="M20.0773 34.8839C19.9978 34.8839 19.8377 34.9237 19.5975 35.0435C19.3182 35.1828 19.155 35.6436 19.0346 36.1246C18.9558 36.4396 19.0731 36.7284 19.2531 37.009C19.6229 37.5852 20.6359 37.5327 21.5786 37.393C22.285 37.2884 22.8825 36.8922 24.9052 35.4522C26.1536 34.5634 26.2151 33.7233 26.8568 32.6018C27.7333 31.07 27.8212 30.4316 28.0229 29.8495C28.0711 29.7105 28.103 29.5889 28.1234 29.4679C28.3217 28.296 24.3345 29.1843 23.6916 29.345C23.0948 29.4943 21.8929 29.7839 20.9628 30.1072C20.0454 30.426 19.5981 30.8289 19.096 31.2702C18.8075 31.5238 18.5928 31.7524 18.4928 32.0125C18.3532 32.3122 18.2713 33.0322 18.311 33.9545C18.3508 34.3205 18.4302 34.4794 18.6325 34.6431" stroke="#0012D4" stroke-linecap="round"/>
<path d="M15.3818 40.1814C15.2614 39.5806 15.1024 38.8619 14.6612 38.1768C14.1695 37.4134 12.6993 36.0566 11.7132 35.0272C10.9225 34.2017 10.1276 34.3638 9.58462 34.1621C9.28483 34.0821 9.00189 33.922 8.80143 33.801C8.72016 33.7991 8.68043 33.9183 8.6395 34.0411" stroke="#0012D4" stroke-linecap="round"/>
<path d="M11.6494 34.6431C11.529 34.4048 11.2906 33.2056 10.8283 32.1184C10.4715 31.2794 10.0072 30.7134 9.08435 30.0301C8.26311 29.4221 6.87686 29.0254 6.15387 28.8647C5.17068 28.6461 3.62613 28.6642 1.54385 28.7425C1.11838 28.7584 1.09537 29.1 1.0749 29.2824C0.982614 30.1049 1.97187 31.7054 2.57807 32.594C2.9651 33.1613 3.06026 33.7979 3.49971 34.4192C4.02829 35.1665 4.82408 35.6051 5.96064 35.7857C9.84225 35.8074 10.2034 35.687 10.4635 35.5871C10.6044 35.5269 10.7633 35.4474 11.0474 35.2451" stroke="#0012D4" stroke-linecap="round"/>
</svg>
