<svg width="30" height="49" viewBox="0 0 30 49" fill="none" xmlns="http://www.w3.org/2000/svg">
<path d="M14.4925 12.9619C14.1747 13.0414 13.9712 13.2015 13.8713 13.4616C13.7526 13.7703 13.6497 14.1635 13.7292 14.6439C13.8167 15.173 14.2902 15.5288 14.6105 15.7895C14.882 16.0105 15.3726 15.9719 15.8536 15.9322C16.0596 15.9151 16.1757 15.813 16.2768 15.6926C16.4907 15.4379 16.579 15.0508 16.6392 14.6307C16.7045 14.1749 16.5802 13.8059 16.3803 13.5657C16.1447 13.2826 15.8181 13.163 15.5779 13.0829C15.3377 13.0029 15.056 12.9619 14.7357 13.101C14.2533 13.3105 14.2517 14.202 14.3312 14.8636C14.3641 15.1376 14.5696 15.2471 14.7905 15.3085C15.0114 15.3699 15.2895 15.3699 15.4725 15.3103C15.7745 15.212 15.8566 14.81 15.9168 14.4495C15.9632 14.1714 15.8975 13.9263 15.7579 13.7259C15.5945 13.4914 15.2161 13.5639 14.9759 13.6434C14.6546 13.7497 14.5732 14.2442 14.5328 14.6246C14.5137 14.8054 14.572 14.9654 14.652 15.0671C14.7321 15.1688 14.8513 15.2086 14.9723 15.229C15.0933 15.2495 15.2125 15.2495 15.3335 15.17C15.6164 14.9843 15.6965 14.4898 15.6568 14.0088C15.6397 13.8028 15.5376 13.6867 15.4172 13.6253C15.2968 13.5639 15.1378 13.5639 15.0361 13.6434C14.8176 13.814 14.8537 14.2442 14.9133 14.5253C14.9344 14.6248 15.0921 14.568 15.1734 14.4681C15.2546 14.3682 15.2944 14.2093 15.2751 14.187C15.2558 14.1647 15.1764 14.2839 15.2149 14.4067" stroke="#0012D4" stroke-linecap="round"/>
<path d="M14.7333 12.8415C14.5744 12.5225 14.0133 11.4834 13.6708 10.0971C13.4702 9.28531 13.4498 8.38923 13.4486 7.28759C13.4484 7.02095 13.5678 6.865 13.6882 6.78313C14.2283 6.41586 14.8525 6.62059 15.0927 6.78012C15.7242 7.19956 15.8939 8.45906 16.0378 11.5262C16.0712 12.2388 15.9373 12.8764 15.9373 13.5796C15.9373 13.9623 16.337 12.4033 16.4586 11.8404C16.6146 11.1185 17.2183 10.5179 17.9798 9.93393C18.7744 9.32465 19.7478 9.4704 20.1283 9.53C20.3173 9.55961 20.469 9.70879 20.5708 9.86952C20.6725 10.0303 20.7122 10.2289 20.6731 10.4107C20.494 11.2429 19.3132 11.835 18.6685 12.3581C17.9936 12.9057 17.1461 13.4796 16.5411 13.9438C16.4162 14.0395 16.3009 14.1635 16.4183 14.1454C17.4563 13.9857 18.4175 13.3255 19.6455 13.1829C20.1465 13.1247 20.6701 13.0823 21.1511 13.1419C21.5166 13.1872 21.6754 13.6024 21.8355 13.9028C21.9794 14.1728 22.0775 14.5247 22.0179 14.9256C21.9737 15.2232 21.5574 15.3289 21.2372 15.4692C20.0226 16.0011 17.9864 15.5312 17.4043 15.2706C17.2638 15.2076 17.1436 15.17 17.0226 15.1297C16.9016 15.0894 16.7825 15.0496 17.019 15.0292C18.8587 14.87 19.908 15.5288 21.2095 16.2699C21.518 16.4455 21.673 16.5715 21.7747 16.7123C21.9688 16.981 21.9571 17.454 21.9373 17.935C21.9086 18.6282 21.1168 19.2202 20.575 19.4231C19.8324 19.7011 19.1519 19.0637 18.5878 18.6423C18.0253 18.2221 17.2255 17.6598 16.6813 17.1578C16.4241 16.9205 16.2997 16.6148 16.1985 16.5739C15.3947 16.2485 17.3002 18.2955 17.5819 19.3785C17.9271 20.7054 16.9029 21.6281 16.5206 22.0905C16.3394 22.3097 16.0191 22.4721 15.6989 22.6329C15.55 22.7076 15.3786 22.6347 15.2372 22.3957C14.5093 21.1661 14.7333 20.2291 14.6334 19.4863C14.5393 18.7869 14.4925 17.6249 14.4528 16.7791C14.3822 15.2777 13.9314 19.2202 13.8706 19.7024C13.8016 20.2501 13.3704 20.7854 12.09 21.7076C11.795 21.92 11.5668 21.8714 11.385 21.7919C11.2032 21.7124 11.0443 21.5535 10.9426 21.3723C10.4919 20.5695 10.8396 19.4273 11.2387 18.6248C12.2175 16.657 13.5221 16.2175 13.9712 15.7515C14.6184 15.08 12.648 16.9326 12.1267 17.4148C11.6878 17.8208 10.9263 18.7338 9.98059 19.3021C9.51348 19.5828 8.95661 18.8638 8.37449 18.4418C7.73781 17.9803 7.79116 17.3781 7.75023 17.0579C7.65303 16.2974 9.19018 16.2945 10.2142 15.8731C11.3379 15.4107 12.2001 15.4518 12.6667 15.2501C13.7528 14.7806 10.1245 15.2495 8.5587 14.99C7.88897 14.8791 7.51064 14.5283 7.31018 14.2682C7.21089 14.1394 7.18918 13.9685 7.18857 13.827C7.18605 13.2343 7.98862 12.803 9.19018 12.3016C9.881 12.0132 10.9528 12.3575 11.7215 12.7001C12.206 12.9159 12.9225 13.2413 13.4486 13.3033C14.5329 13.431 10.9648 12.1625 10.3809 11.8392C10.066 11.6649 9.79819 11.3582 9.59773 11.0578C9.43821 10.8188 9.43579 10.5552 9.47553 10.2355C9.53636 9.74609 9.87525 9.31148 10.2756 9.05082C10.6314 8.81914 11.0395 8.86841 11.3399 8.92801C12.1535 9.08942 12.884 9.99052 14.0464 10.7514C14.33 10.9537 14.5286 11.1126 14.6707 11.2541C14.8128 11.3956 14.8922 11.5148 14.9741 11.758" stroke="#0012D4" stroke-linecap="round"/>
<path d="M9.91739 4.53411C9.91739 4.45465 9.87766 4.25479 9.83733 3.91466C9.72022 2.92711 11.0371 1.9287 11.5012 1.42544C12.0552 0.824754 13.6425 0.522461 15.549 0.500188C16.722 0.486484 17.1388 1.12204 17.621 1.3827C18.1342 1.66013 18.8629 2.28267 19.3072 2.8666C19.7223 3.41222 20.0693 4.1681 20.4106 4.69363C20.6561 5.07162 21.3118 4.13439 21.8349 3.83279C22.3034 3.5627 22.9179 3.61186 23.4398 3.63052C24.3104 3.66165 25.0032 4.5317 25.607 4.8339C26.3868 5.22418 26.6117 5.85607 26.9723 6.53813C27.287 7.1333 27.2546 8.93584 26.6358 10.7888C26.1403 12.2725 25.4896 12.4791 25.3295 12.7392C25.2444 12.8774 25.1694 13.039 25.3271 13.3195C26.1089 14.7101 26.9296 15.0858 27.6333 15.8677C28.6139 16.9574 28.5381 17.814 28.5592 18.9373C28.5776 19.9193 27.9 20.7035 26.8375 21.5475C25.9757 22.232 24.5312 22.1122 23.8251 22.2717C23.6988 22.3002 23.6837 22.4709 23.7228 22.5919C23.908 23.1648 24.4831 23.634 24.586 24.8566C24.6406 25.5052 23.4501 26.5187 20.7839 27.9274C19.7214 28.4887 18.7895 28.0526 18.2886 27.8726C17.8742 27.7236 17.5446 27.3314 17.2039 26.8317C16.7911 26.2265 16.9005 25.446 16.8607 25.0842C16.8111 24.6323 15.7013 26.2394 15.0963 26.8865C14.7151 27.2942 13.5775 27.9659 12.3091 28.6919C11.6526 29.0677 10.8445 29.2951 9.76088 29.3161C9.01421 29.3307 7.44202 27.7034 6.24767 25.2509C5.54705 23.8122 5.984 23.0368 5.76608 22.8556C4.41406 21.7314 2.89821 22.9959 2.19509 22.6961C1.43688 22.3728 1.04891 21.7522 0.888779 21.4524C0.0808833 19.9398 0.726242 17.3396 1.08683 16.5167C1.38237 15.8422 2.04821 15.052 2.61046 14.3899C3.70573 13.0999 4.41763 12.9631 4.67829 12.7229C4.79455 12.6158 4.81976 12.4828 4.70117 12.3618C4.37655 12.0306 3.89872 11.8796 3.67839 11.5599C2.78076 10.2576 3.49539 7.98952 3.77591 7.36586C4.19615 6.4316 4.73789 5.62009 5.17975 5.1379C5.87244 4.38198 7.26142 3.896 8.60867 3.71119C9.03127 3.77079 9.3142 3.85145 9.51466 3.97125C9.59593 4.05131 9.63566 4.17051 9.6766 4.29331" stroke="#0012D4" stroke-linecap="round"/>
<path d="M16.5393 25.4833C16.4995 25.7229 16.3394 26.6006 16.4772 29.7411C16.5315 30.9768 17.0136 32.594 17.1978 34.5456C17.382 36.4972 17.382 38.7222 17.3224 40.1266C17.211 42.7536 16.7825 43.8559 16.4604 45.1629C15.8578 46.9923 15.617 47.7135 15.496 48.038C15.4954 47.9603 15.5351 47.6822 15.5761 47.3956" stroke="#0012D4" stroke-linecap="round"/>
</svg>
