<svg width="25" height="48" viewBox="0 0 25 48" fill="none" xmlns="http://www.w3.org/2000/svg">
<path d="M3.10461 3.77896C3.03094 4.19867 2.78313 5.0887 2.68341 5.98244C2.58379 6.87537 2.4103 7.49906 2.36082 7.80714C2.26101 8.42846 2.26147 8.96209 2.22426 9.74979C2.19288 10.4141 2.21161 11.618 2.23617 12.3975C2.28515 13.9522 2.40956 14.4429 2.44714 15.446C2.47287 16.133 2.55839 16.6754 2.59597 17.2584C2.64203 17.973 2.90517 18.5611 3.21475 19.5877C3.64686 21.0206 4.29379 21.761 4.90066 22.4055C5.3535 22.8864 5.83124 23.3491 6.15458 23.6348C6.52542 23.9626 7.12163 24.193 8.92623 24.6759C9.60522 24.8576 9.99932 24.789 10.7134 24.814C11.3042 24.8346 12.3606 24.7898 13.1256 24.728C14.3392 24.63 14.9599 24.3931 15.3923 24.171C16.0223 23.8473 17.0384 23.0581 18.2521 22.1048C19.6331 21.0202 20.1654 20.0584 20.5918 19.2848C20.9527 18.6301 20.9884 18.0208 21.1994 17.4616C21.6036 16.3901 21.7088 15.4148 21.7706 14.9311C21.8066 14.6488 21.8078 14.3967 21.845 13.0078C21.8795 11.7174 21.8576 9.23669 21.8454 7.92212C21.8307 6.35857 21.7341 6.01295 21.6842 5.20851C21.6543 4.72464 21.3873 4.40109 21.2009 4.06547C21.106 3.89462 21.0643 3.70529 20.9531 3.58139C20.8997 3.52193 20.8173 3.5066 20.6934 3.54306C19.7392 3.82387 18.7604 5.01577 18.4229 5.41502C18.1673 5.71749 17.5712 6.35378 17.0961 6.8907C16.6957 7.34313 16.2518 7.79672 16.1901 7.84696C15.8762 8.10223 15.9787 7.08009 15.6576 5.45967C15.5369 4.85048 15.2107 4.37727 14.9503 3.85524C14.7293 3.41231 14.5901 3.1107 14.3553 2.76355C13.9367 2.14465 13.5989 1.92003 13.338 1.59744C12.9787 1.153 12.6567 0.829084 12.3952 0.567137C11.9761 0.147467 11.3172 1.81734 10.9571 2.23928C10.5174 2.75436 10.2501 3.03331 9.95207 3.5412C9.68724 3.99251 9.35859 4.6422 8.98465 5.30227C8.62833 5.93124 8.48792 6.30765 8.24048 6.64252C7.90988 7.08995 7.76905 7.47301 7.6444 7.80863C7.61287 7.89353 7.59492 7.99393 7.52087 8.01997C6.4701 8.38959 5.26419 6.03826 4.91666 5.65315C4.61403 5.31779 4.19854 4.94582 3.82534 4.74713C3.6032 4.64815 3.40302 4.54843 3.23 4.41262C3.13066 4.32593 3.00787 4.20314 3.03019 3.9278" stroke="#0012D4" stroke-linecap="round"/>
<path d="M2.21162 12.4113C2.18706 12.3867 2.1625 12.3622 2.18669 12.3618C2.61247 12.3553 3.3502 12.584 3.83465 12.8567C4.25924 13.0957 5.0082 13.7955 5.55926 14.3324C5.99555 14.7575 6.37747 15.6083 6.5397 15.9945C6.69256 16.3584 6.84927 16.6516 7.04796 17.1349C7.09484 17.2489 7.14694 17.3213 7.1968 17.3961C7.29577 17.5446 7.34638 16.5891 7.38321 14.879C7.40431 13.8996 7.93799 12.9144 8.56979 11.7743C9.12082 10.78 9.72473 10.405 10.2464 9.94514C11.0179 9.26496 11.3381 8.98962 11.7105 8.81512C11.8314 8.75851 12.0064 8.69196 12.5369 9.26794C13.0675 9.84393 13.9516 11.0718 14.4562 11.8394C15.33 13.1689 15.3328 13.6496 15.5315 14.3927C15.7092 15.0574 15.7793 15.6574 15.8422 16.2419C15.8839 16.6298 15.9534 17.171 16.0528 17.6685C16.0881 17.8457 16.1521 17.9918 16.2139 18.0175C16.7237 18.2294 16.8434 16.7572 17.6375 15.3441C18.4963 13.8156 19.7948 13.0587 20.2194 12.8459C20.5224 12.694 20.8143 12.5363 21.2604 12.3499C21.3851 12.3123 21.5079 12.2878 21.6325 12.2751C21.7572 12.2625 21.88 12.2625 21.9321 12.3369" stroke="#0012D4" stroke-linecap="round"/>
<path d="M11.4393 24.8389C11.4393 24.888 11.4393 25.7237 11.3656 28.3268C11.3149 30.1203 11.1446 32.87 11.0564 34.3605C10.9682 35.8511 10.9437 35.9984 10.9187 37.0198C10.8938 38.0412 10.8693 39.9321 10.8443 41.0045C10.8067 42.6243 10.7204 43.1678 10.7074 44.3316C10.6999 45.0064 10.8187 45.5997 10.8562 46.3301C10.8685 46.4934 10.8931 46.5671 10.918 46.5559C10.9429 46.5448 10.9675 46.4466 10.9928 46.3453" stroke="#0012D4" stroke-linecap="round"/>
<path d="M10.9184 39.8711C10.9429 39.6739 11.1892 38.9826 12.118 37.7175C12.7775 36.8191 13.5959 35.7052 13.8567 35.3826C14.2157 34.9386 14.7106 34.5905 15.0969 34.2906C15.1761 34.229 15.2822 34.1916 15.3573 34.1049C15.9269 33.448 15.5813 31.9606 15.6684 31.3035C15.7551 30.6488 15.8046 30.249 15.9162 29.8881C16.0462 29.4677 16.2258 29.033 16.3504 28.7097C16.4944 28.3362 16.7467 27.8915 16.8836 27.5812C17.0607 27.1799 17.3911 26.8005 17.6892 26.5635C17.9384 26.3653 18.3333 26.3525 18.8664 26.3886C19.4797 26.4301 19.451 27.317 19.5998 27.9983C19.8569 29.1752 19.4763 29.8963 19.4022 30.2948C19.323 30.7213 19.2285 30.9403 19.2527 31.0397C19.3471 31.4276 20.0448 30.892 22.604 30.8912C23.1471 30.8911 23.2448 30.9649 23.3322 31.027C23.4196 31.0892 23.4933 31.1628 23.5313 31.2622C23.7346 31.7944 23.1748 32.6244 22.6531 33.2089C22.377 33.5183 22.0333 33.7183 21.4762 34.0524C20.2706 34.7757 19.0625 34.7363 18.1762 34.6746C17.5604 34.6317 16.8241 34.266 16.3772 34.1291C16.2771 34.0919 16.2034 34.0428 16.1287 33.9806C16.0539 33.9185 15.9802 33.8448 15.9043 33.7689" stroke="#0012D4" stroke-linecap="round"/>
<path d="M19.4019 31.0155C19.4257 30.8436 19.9689 30.1508 20.6275 29.628C21.0629 29.2801 21.3114 29.007 21.4595 28.8585C21.5585 28.7837 21.7058 28.7101 21.8576 28.6342" stroke="#0012D4" stroke-linecap="round"/>
<path d="M10.9184 36.4479C10.7948 36.0275 10.5478 35.5817 10.2497 35.1103C9.80054 34.3998 8.63973 33.5501 8.10468 33.1003C7.64895 32.7171 7.07549 32.3565 6.85038 32.1325C6.72522 32.0079 7.22135 31.8356 7.37018 31.3545C7.85815 29.7771 7.09931 28.9586 6.83885 28.2029C6.61289 27.5473 6.10808 26.677 5.77246 26.242C5.3852 25.7401 4.96652 25.4104 4.59444 25.2981C4.23735 25.1902 3.87557 25.5563 3.49047 25.9042C3.12185 26.2372 3.12992 26.6234 2.98108 27.3159C2.73044 28.482 3.20285 29.0539 3.32749 29.3895C3.39427 29.5693 3.42684 29.7742 3.40265 29.9353C3.33347 30.3962 2.11785 30.3681 1.59284 30.729C1.13545 31.0434 0.922717 31.4352 0.686816 32.0052C0.544363 32.3495 0.673421 32.6519 0.735186 32.8004C0.928169 33.2642 1.54038 33.5948 1.87525 33.7682C2.34638 34.0121 2.82927 33.8686 3.1902 33.6952C3.70122 33.4497 4.21938 32.9518 4.59146 32.6538C4.98885 32.3803 5.33563 32.1824 5.84278 32.07C6.07756 32.0573 6.44593 32.0573 6.82545 31.9829" stroke="#0012D4" stroke-linecap="round"/>
<path d="M3.25345 29.9737C3.17978 29.7757 2.78462 29.3322 2.36194 28.8835C2.0547 28.5573 1.69219 28.4362 1.3201 28.2133C1.12215 28.1385 0.922718 28.1132 0.737048 28.101C0.649608 28.0887 0.575936 28.0641 0.500031 27.9644" stroke="#0012D4" stroke-linecap="round"/>
</svg>
