<svg width="25" height="51" viewBox="0 0 25 51" fill="none" xmlns="http://www.w3.org/2000/svg">
<path d="M11.4474 3.95813C11.5269 4.19652 11.6472 4.43852 11.7875 4.71844C11.8483 4.87917 11.888 5.07783 11.9284 5.23976C11.9687 5.4017 12.0084 5.52089 12.0494 5.6437" stroke="#0012D4" stroke-linecap="round"/>
<path d="M3.62155 9.01483C3.78048 9.09429 4.14047 9.41335 4.62145 9.87447C4.82432 10.0575 4.94352 10.1369 5.14398 10.2772C5.34444 10.4175 5.62256 10.6161 6.1499 10.9412" stroke="#0012D4" stroke-linecap="round"/>
<path d="M18.4305 10.2188C19.3045 9.50365 20.0329 8.93658 20.5338 8.59586C20.9155 8.37432 21.3176 8.13353 21.6192 7.9126C21.6824 7.8506 21.5632 7.89033 21.4404 7.93126" stroke="#0012D4" stroke-linecap="round"/>
<path d="M13.6145 10.4596C12.6935 10.3789 12.0518 10.4596 11.5299 10.6992C10.6909 11.0843 10.2843 12.0224 10.1435 12.6045C9.98615 13.2546 10.7226 14.1486 11.1049 14.632C11.4631 15.085 12.6851 14.9143 13.5116 14.6151C13.9903 14.4419 14.1756 13.9523 14.3159 13.7121C14.6274 13.1787 14.3779 12.3089 13.9775 11.6859C13.5748 11.1832 13.3749 10.9015 13.1348 10.8413C13.0138 10.8208 12.8946 10.8208 12.6514 11.0616" stroke="#0012D4" stroke-linecap="round"/>
<path d="M14.6981 8.65365C15.0978 8.29366 15.8973 7.81328 16.6419 7.33108C17.0192 7.08681 17.5443 6.84889 18.5225 6.44977C20.1914 5.76889 21.7955 5.28252 22.778 5.32225C23.1662 5.33795 23.3234 5.44144 23.4649 5.6413C24.1506 6.61012 23.6894 7.88552 23.3679 8.63138C23.1047 9.24206 22.6468 9.93468 21.6667 10.8762C19.7039 12.7619 18.6351 13.0265 18.0114 13.348C17.6128 13.5535 17.2277 13.59 17.1067 13.59C16.728 13.59 17.867 14.1895 18.4479 14.8908C19.258 15.8688 19.4707 16.7155 19.9535 17.5595C20.6325 18.7465 20.677 19.3257 20.9178 20.5062C21.1926 21.8534 20.8793 23.0183 20.7192 23.4993C20.6056 23.8405 20.2388 24.1031 19.7981 24.3637C18.9218 24.8821 17.5106 24.3872 17.0073 24.1458C16.4813 23.8935 15.748 22.9858 15.161 22.3808C14.6937 21.899 13.942 20.6621 13.3749 19.5526C13.0068 18.8324 12.8921 17.9664 12.8723 17.7846C12.8021 17.1428 12.2926 19.3618 11.7712 20.3087C11.0095 21.6924 9.72809 22.0924 8.60238 23.0177C7.43813 23.9746 6.71575 24.1031 5.43291 24.0856C4.65322 24.075 4.14526 23.3048 3.7648 22.6649C3.32098 21.9184 3.30007 21.0979 3.38013 20.5369C3.5235 19.5322 4.57989 18.1313 5.38415 17.185C6.44371 15.9383 7.47305 15.3165 7.67351 15.1365C7.7697 15.0501 7.79451 14.9167 7.65605 14.8553C6.75322 14.4549 5.71404 14.5146 4.76832 14.3129C4.06466 14.1629 3.14475 13.472 2.50003 13.1698C1.73832 12.8127 1.61571 12.1476 1.19552 11.5059C0.502885 10.4481 0.370795 8.38396 0.609784 7.37202C0.962544 5.87834 3.45297 5.72558 4.72136 5.68344C5.3532 5.66245 5.86574 6.24329 6.38887 6.50576C6.96053 6.79258 7.19252 7.56767 7.49291 8.22925C7.90566 9.13829 8.1557 9.49523 8.25623 9.59636C8.71891 10.0618 7.47666 7.69769 7.23406 6.39198C6.86284 4.39405 7.39238 3.56083 7.51398 2.89684C7.62089 2.31311 8.31222 1.55501 9.49633 0.770019C10.0145 0.426486 10.6816 0.466617 11.2626 0.58581C12.6104 0.86236 12.9307 2.71083 13.3117 3.35315C13.9584 4.44312 14.1346 5.11878 14.5362 5.74184C14.7776 6.2445 15.0184 6.64542 15.1785 6.94581C15.2592 7.08728 15.3386 7.20647 15.5409 7.57007" stroke="#0012D4" stroke-linecap="round"/>
<path d="M8.91903 18.165C8.60118 18.5624 8.31825 18.926 8.03832 19.2661C7.87759 19.4473 7.67894 19.6459 7.517 19.9072C7.35507 20.1685 7.23587 20.4863 7.11307 20.9342" stroke="#0012D4" stroke-linecap="round"/>
<path d="M16.1429 18.5262C16.3018 18.5262 16.5824 18.8044 16.943 19.2854C17.1049 19.4882 17.2241 19.6074 17.3252 19.7284C17.4264 19.8494 17.5058 19.9686 17.7081 20.3322" stroke="#0012D4" stroke-linecap="round"/>
<path d="M12.7718 18.6466C12.6514 19.1258 12.5719 19.9277 12.4112 21.1702C12.2966 22.0559 12.3696 22.9376 12.4304 24.2602C12.4435 24.5453 12.49 24.6641 12.5105 26.3148C12.531 27.9654 12.531 31.1439 12.5111 32.8608C12.4843 35.1805 12.3311 36.3788 12.31 37.605C12.2842 39.1089 12.3311 41.1574 12.2107 43.1692C12.1119 44.821 12.1698 47.7636 12.1499 49.1789C12.13 50.5941 12.0903 50.3955 12.0698 50.2137C12.0494 50.0319 12.0494 49.873 12.0494 49.7092" stroke="#0012D4" stroke-linecap="round"/>
<path d="M12.6514 35.8635C12.7296 35.5456 13.5303 34.5825 15.5933 32.5405C16.462 31.5713 16.9447 31.0488 17.1446 30.8086C17.265 30.6876 17.4239 30.5684 17.8285 30.2048" stroke="#0012D4" stroke-linecap="round"/>
<path d="M14.2165 33.9371C14.3357 31.4521 15.5313 29.1381 16.4017 27.7993C16.8594 27.0954 17.5852 26.9155 19.1065 26.3142C19.9535 25.9793 20.7926 25.9524 21.3988 25.95C22.2145 25.9467 21.4813 27.8739 21.1809 28.8762C20.8782 29.8862 20.5181 30.3228 19.9186 31.1042C19.0613 32.2214 18.2739 32.5694 17.3902 33.1925C16.7461 33.6157 16.3849 33.7361 15.9659 33.7963C15.6661 33.8167 15.1893 33.8167 14.6981 33.8167" stroke="#0012D4" stroke-linecap="round"/>
<path d="M11.929 39.957C11.6496 39.7186 11.2475 38.9962 10.8472 38.5339C10.3001 37.9021 9.44395 36.911 9.04062 36.247C8.6397 35.6648 7.91972 34.8642 7.25813 34.2225C6.99386 33.9781 6.87467 33.8986 6.75186 33.8167" stroke="#0012D4" stroke-linecap="round"/>
<path d="M10.123 37.7899C10.1627 36.9483 10.2434 35.9911 10.0243 35.064C9.72186 33.7845 8.80105 33.3375 8.1798 32.3172C7.09749 30.5396 6.51349 30.1277 5.83204 29.5053C4.81326 28.5747 4.18741 28.081 3.20377 27.1581C2.48634 26.4851 1.89745 25.7934 1.45619 25.3094C1.37466 25.22 1.216 25.466 1.13473 25.6273C0.696407 26.4974 1.13172 28.0328 1.35326 29.1766C1.60103 30.4559 1.97451 31.0042 2.35556 31.7062C3.08101 33.0424 3.37834 33.9708 3.80034 34.7173C4.31832 35.6336 4.98445 36.0609 5.84529 36.9838C6.50398 37.6899 7.35146 37.9488 8.29237 38.2305C8.6337 38.2714 9.07074 38.2714 9.37535 38.2317C9.67995 38.192 9.83888 38.1125 9.76182 37.7899" stroke="#0012D4" stroke-linecap="round"/>
</svg>
