<svg width="32" height="51" viewBox="0 0 32 51" fill="none" xmlns="http://www.w3.org/2000/svg">
<path d="M19.0995 18.2093C15.9672 18.2093 13.965 18.2993 12.2821 18.3908C11.3659 18.4406 10.6402 18.7088 10.2083 18.9128C10.0294 18.9973 10.0015 19.1619 9.97829 19.3216C9.95509 19.4813 9.95509 19.6615 10.0677 19.8443C10.6987 20.8693 12.5428 20.666 13.4777 20.7793C14.2719 20.8755 17.7947 20.9389 20.0065 20.8031C20.7903 20.755 21.7801 20.5759 22.4188 20.1221C22.5538 20.0262 22.5116 19.8498 22.4216 19.7126C21.9166 18.9437 20.7401 18.9381 20.1709 18.7334C20.0113 18.6651 19.8311 18.575 19.6032 18.5286C19.3752 18.4822 19.105 18.4822 18.9631 18.3457" stroke="#0012D4" stroke-linecap="round"/>
<path d="M19.0075 18.3014C18.9671 18.3014 18.9268 18.3014 18.9463 18.3014C19.0467 18.3014 19.5942 17.9986 20.3785 17.4691C20.8808 17.13 21.4302 16.4507 22.1834 15.4538C22.5472 14.9722 22.8153 14.4973 23.183 13.9552C23.9722 12.7918 24.5131 12.0623 24.6351 11.7173C24.822 11.1889 24.8196 10.5549 24.86 9.49063C24.8896 8.70858 24.9811 7.43713 25.0126 6.61029C25.0441 5.78344 25.0239 5.44023 24.9631 4.90001C24.728 2.81431 24.5749 2.45832 24.514 1.99856C24.4932 1.84137 24.4323 1.70214 24.3614 1.57978C24.2921 1.46044 23.6823 1.90159 22.5446 2.91656C21.8455 3.54031 21.0032 4.49683 20.5257 5.01564C19.9801 5.60839 19.6426 6.02143 19.1335 6.63201C18.4384 7.46579 18.0115 8.32301 17.7133 8.91952C17.6836 8.97879 17.6016 8.92135 17.5603 8.86017C17.3654 8.57141 17.3153 8.08686 17.0816 7.26308C16.5981 5.55879 16.5199 5.04745 16.1844 4.3552C16.0616 4.10188 15.6671 3.39988 15.0149 2.41183C14.4581 1.56832 14.2979 1.2335 14.0428 1.04935C13.715 0.812795 13.4408 0.580105 13.3187 0.518925C13.2607 0.489839 13.1967 0.498124 13.1352 0.518314C12.5748 0.702303 11.9939 1.71927 11.6265 2.45282C11.2761 3.1525 11.1569 3.7174 11.0138 4.64458C10.9591 4.99859 10.9728 5.26892 10.9422 5.7654C10.8347 7.5091 10.993 7.87885 10.9627 8.12357C10.9518 8.21144 10.8718 8.20677 10.8002 8.19668C10.455 8.14799 10.0973 7.98286 8.52314 7.17069C7.97021 6.88542 7.31483 6.6418 6.87098 6.42583C6.42712 6.20987 6.20503 6.04835 5.71713 5.80363C4.50221 5.19427 3.63181 4.90307 3.47917 4.94345C3.39946 4.96453 3.34672 5.06458 3.31551 5.19704C3.12637 5.99998 3.62937 7.12144 4.09739 8.1095C4.3227 8.58515 4.68411 9.39366 4.91169 9.95101C5.24996 10.7794 5.54552 11.6071 5.95297 12.4429C6.15561 12.8585 6.52439 13.2205 6.93185 13.7197C7.5867 14.522 8.40139 15.5875 8.6874 15.9445C9.14156 16.5113 9.50262 17.1574 9.81923 17.4847C10.0422 17.7152 10.3799 17.73 10.7265 17.9334C10.8088 17.9949 10.8694 18.0555 10.9309 18.1069C10.9923 18.1583 11.0529 18.1987 11.1765 18.3626" stroke="#0012D4" stroke-linecap="round"/>
<path d="M5.60913 11.9999C4.91658 11.4089 4.55072 11.1654 4.01142 10.8394C3.27397 10.3934 2.31032 9.88128 1.48531 9.5246C1.14927 9.37931 0.963143 9.34962 0.839254 9.33892C0.715365 9.32821 0.654797 9.3484 0.603406 9.42946C0.363085 9.80854 0.550792 10.4252 1.06898 11.6277C1.42681 12.458 1.89613 13.1593 2.17083 13.7191C2.40198 14.1901 2.61071 14.5273 2.88419 15.0644C3.42439 16.1255 3.8753 16.8729 3.97686 17.0864C4.24308 17.6461 4.79177 17.9943 5.31058 18.3504C6.42072 19.1123 6.8107 19.2999 7.94987 19.5954C8.27902 19.6474 8.46317 19.6676 8.80792 19.6982C9.05172 19.7086 9.43532 19.7086 9.76936 19.7086" stroke="#0012D4" stroke-linecap="round"/>
<path d="M24.4525 12.1835C24.937 11.7797 25.2876 11.4909 25.804 11.1667C26.9158 10.4685 27.8565 10.0428 28.1416 9.93082C28.555 9.7685 28.9578 9.59434 29.4469 9.43099C29.876 9.28768 30.3031 9.24683 30.6497 9.27712C30.7774 9.28827 30.7944 9.36797 30.8048 9.46983C30.8525 9.93706 30.6329 10.3456 30.4894 10.7139C30.317 11.1567 29.6773 12.0146 28.9419 13.2391C28.235 14.4162 27.8198 14.9133 27.4313 15.4342C27.2199 15.7178 27.0025 15.9148 26.6076 16.2489C25.0923 17.5306 24.7804 17.79 24.4537 18.005C24.1131 18.2292 23.6596 18.5033 23.3118 18.7493C23.0686 18.8912 22.8624 18.9946 22.7404 19.0353C22.6789 19.0558 22.6183 19.076 22.4948 19.0968" stroke="#0012D4" stroke-linecap="round"/>
<path d="M15.8874 20.9933C15.8672 21.1151 15.7051 21.9851 15.5114 23.3188C15.3685 24.3033 15.3576 24.9272 15.2863 25.3643C15.1457 26.2269 15.1532 26.8018 15.0823 27.7081C15.0023 28.7295 14.9293 29.5971 14.858 30.5493C14.8035 31.2781 14.8069 32.511 14.8571 34.2559C14.9073 36.0007 15.0284 38.2216 15.3129 40.6981C15.5974 43.1747 16.0416 45.8397 16.2704 47.2832C16.5535 49.0692 16.5604 49.5606 16.6111 49.9607C16.6215 50.1736 16.6417 50.359 16.6723 50.3599C16.6827 50.3003 16.6827 50.1186 16.6827 49.9314" stroke="#0012D4" stroke-linecap="round"/>
<path d="M15.0308 38.0625C15.0712 37.9818 15.3141 37.5767 15.9534 36.6223C16.356 36.0213 16.9763 35.2238 17.8133 34.2324C18.6502 33.2409 19.7001 32.0901 20.362 31.3863C21.024 30.6824 21.2663 30.4603 21.6737 30.1844C22.0812 29.9085 22.6465 29.5854 22.968 29.4089C23.2895 29.2324 23.35 29.2123 23.4736 29.0691" stroke="#0012D4" stroke-linecap="round"/>
<path d="M18.3957 33.474C18.3345 31.8442 18.4153 31.2538 18.891 30.2606C19.2497 29.5114 19.9925 28.3386 20.4575 27.624C20.9224 26.9094 21.1243 26.7076 21.7331 26.3007C22.3418 25.8939 23.3513 25.2882 24.0631 24.8954C25.138 24.3023 25.6547 24.1545 25.9187 24.0735C26.7517 23.8177 27.3059 23.6853 27.714 23.8272C28.0461 23.9427 28.1221 24.5589 28.1744 25.4763C28.2143 26.1771 27.9202 26.7002 27.7669 27.171C27.7338 27.2728 27.7158 27.3744 27.3622 27.9917C27.0086 28.609 26.3222 29.7396 25.8272 30.4836C25.0959 31.5828 24.6776 31.9237 24.3231 32.1565C23.5608 32.6571 22.6826 33.2477 21.9392 33.5738C21.0478 33.9648 20.1332 33.6992 19.5294 33.5459C19.4162 33.515 19.3354 33.4948 19.2434 33.4743C19.1513 33.4538 19.0503 33.4337 18.8851 33.4129" stroke="#0012D4" stroke-linecap="round"/>
<path d="M14.725 36.0436C13.7877 35.0047 13.1392 34.2339 12.2297 33.385C11.6678 32.7821 11.0566 32.374 10.6577 32.0274C10.5855 31.9451 10.5452 31.8846 10.4424 31.761" stroke="#0012D4" stroke-linecap="round"/>
<path d="M12.0942 32.8011C12.2961 32.8414 12.5414 32.8219 12.8161 32.7203C13.0895 32.6192 13.256 32.4144 13.3579 32.2113C13.6246 31.6795 13.2982 31.0501 13.0134 30.5096C12.6929 29.9011 12.2398 29.1743 11.7308 28.6142C11.1211 27.9433 10.4864 27.5225 9.68098 26.8792C9.22884 26.518 8.81192 26.398 8.45708 26.2258C7.78517 25.8997 7.12091 25.5219 6.67277 25.3081C5.94403 24.9604 4.79792 24.4831 4.37639 24.4185C4.02363 24.3645 4.10047 25.3335 4.04938 26.1566C3.98714 27.1596 4.14024 27.9856 4.26229 28.464C4.36036 28.8484 4.62845 29.6136 5.00471 30.7029C5.30408 31.5696 5.97257 32.2871 6.59385 32.9595C6.97246 33.3693 7.48187 33.6355 8.14323 33.9106C9.12202 34.3176 9.94803 33.9451 10.4512 33.7701C10.829 33.6374 11.1545 33.5156 11.4497 33.3529C11.5834 33.2709 11.6843 33.1902 11.8495 32.9846" stroke="#0012D4" stroke-linecap="round"/>
</svg>
