<svg width="25" height="48" viewBox="0 0 25 48" fill="none" xmlns="http://www.w3.org/2000/svg">
<path d="M11.5777 5.12601C10.3977 5.01489 9.13535 5.08823 8.65365 5.18101C7.89553 5.32704 7.39523 5.9394 6.82075 6.36443C5.76434 7.14601 5.57956 8.08399 5.35565 8.82737C5.10775 9.65042 5.17064 10.493 5.16953 12.9315C5.16895 14.1891 5.65067 14.68 6.07459 15.2167C7.02843 16.4243 8.20196 16.4957 8.87145 16.8107C10.1726 17.423 12.0556 17.0535 12.6678 16.9607C13.6314 16.8147 14.4602 16.1668 15.7397 15.2056C16.6694 14.5072 17.0581 13.2066 17.2804 12.0976C17.6306 10.35 16.987 9.20407 16.7825 8.59125C16.5954 8.03047 15.8047 7.35283 15.228 6.88669C14.6249 6.39925 13.9135 6.01718 12.8967 5.40603C12.5067 5.20157 12.0622 5.12601 11.5444 5.10768C11.3199 5.08934 11.1733 5.05267 10.911 5.01489" stroke="#0012D4" stroke-linecap="round"/>
<path d="M10.4666 8.23731C9.02312 8.3851 8.57976 8.60622 7.72915 9.27127C6.78069 10.0128 6.91076 11.3797 7.03966 12.2165C7.0914 12.5524 7.31745 12.7921 7.52024 13.0137C8.25633 13.8184 9.83318 13.8666 11.4788 13.886C12.3408 13.8962 12.9823 13.3865 13.4468 13.0171C13.9612 12.6078 14.0957 11.722 14.0968 10.5752C14.0976 9.74536 13.209 9.2396 12.7834 8.8868C12.5067 8.68401 12.0622 8.42399 11.4344 8.20175C11.0999 8.12619 10.7332 8.12619 10.3554 8.12619" stroke="#0012D4" stroke-linecap="round"/>
<path d="M8.79977 11.3487C8.94645 11.2753 9.71873 11.2375 10.8294 11.2559C11.2433 11.2742 11.3533 11.3109 11.465 11.3298C11.5766 11.3487 11.6866 11.3487 11.8 11.3487" stroke="#0012D4" stroke-linecap="round"/>
<path d="M7.91082 5.34823C7.72748 5.05377 7.06188 4.24149 6.92909 2.66861C6.89267 2.23716 7.09521 2.01578 7.26134 1.7941C7.69356 1.21732 8.83089 0.79459 9.79651 0.58902C10.5972 0.418567 11.4244 0.459011 12.6845 1.01183C13.7305 1.47072 13.5779 2.9014 13.6701 3.49311C13.7721 4.14719 13.6157 4.82709 13.5229 5.161C13.4462 5.43702 14.5335 3.94814 15.2613 3.45977C15.7836 3.10936 16.7581 3.23698 17.5198 3.42088C18.5153 3.66122 18.6516 4.45706 19.0027 5.01265C19.3617 5.58078 19.4672 7.15058 19.1538 8.12453C18.971 8.69261 18.2115 9.12404 17.6909 9.53241C17.5851 9.61543 17.4693 9.64408 17.4676 9.6813C17.4488 10.101 18.4649 9.86632 18.9282 10.1252C19.7114 10.5628 20.7228 11.3464 21.2067 11.902C21.6152 12.371 21.4673 13.3799 21.2462 14.1244C21.0327 14.8432 20.0272 15.3467 19.4322 15.6628C18.6081 16.1006 17.5793 15.72 17.4676 15.7739C16.4819 16.2496 17.9115 18.0091 17.7087 18.6808C17.5672 19.1494 17.1359 19.6425 16.4881 20.1809C16.2262 20.3985 15.4358 20.3493 14.4552 20.2576C13.8185 20.1981 13.6157 19.6837 13.4495 19.352C12.9791 18.4127 13.0967 17.9435 13.0228 17.6107C12.9895 17.4604 12.9489 17.3513 12.9301 17.7163C12.8676 18.9232 12.8378 19.9403 12.69 20.2176C12.5572 20.4667 12.3567 20.6448 12.1167 20.7926C11.3233 21.2811 9.95096 20.9426 8.91478 20.8865C8.57577 20.8682 8.28307 20.7571 7.93194 20.6465C7.21943 20.4221 7.09744 19.2425 7.00354 18.5736C6.90546 17.8748 7.09521 17.0557 7.29912 16.6829C7.35176 16.5866 7.09744 17.1613 6.78353 17.6418C6.48966 18.0917 6.02403 18.2747 5.544 18.3302C4.58462 18.4413 4.06167 18.1647 3.5972 17.8691C3.0848 17.543 2.98605 16.8335 2.89215 16.3506C2.84855 16.1264 2.8727 15.9056 2.91049 15.7206C3.02952 15.1377 1.65262 15.7567 1.37538 15.6095C0.721103 15.262 0.763672 14.3888 0.577549 13.8327C0.435422 13.408 0.502543 12.9432 0.66811 12.5554C1.0698 11.6145 1.98153 11.5353 3.18273 11.1831C3.56092 11.0722 4.01278 11.1264 4.12946 11.0714C4.71684 10.7945 2.72825 10.573 2.15321 10.1097C1.63565 9.69262 1.68818 9.12849 1.59595 8.59123C1.48604 7.95095 1.46594 6.76166 1.61317 5.88827C1.75133 5.06872 2.46379 4.79486 2.98216 4.44206C3.74514 3.92277 4.57282 3.94147 5.96125 3.92202C6.35294 3.97703 6.61296 4.05148 6.87187 4.16204C6.9841 4.23593 7.05743 4.34594 7.24411 4.5704" stroke="#0012D4" stroke-linecap="round"/>
<path d="M13.2445 17.2379C13.2445 18.3036 13.1712 20.6026 12.9306 21.7527C12.8759 22.0141 12.8378 22.2338 12.8189 23.5023C12.8 24.7707 12.8 27.0808 12.7817 28.3809C12.7555 30.242 12.5045 30.8278 12.4484 31.6434C12.4355 31.8305 12.3934 31.9767 12.3745 33.244C12.3556 34.5113 12.3556 36.8948 12.3739 38.2877C12.403 40.4991 12.5034 41.0151 12.5589 42.3202C12.5778 45.3487 12.6145 47.4611 12.67 47.4628C12.6889 47.3544 12.6889 47.0244 12.6889 46.6844" stroke="#0012D4" stroke-linecap="round"/>
<path d="M12.4667 33.6835C13.0201 32.7234 13.7601 31.8345 14.3352 31.3333C14.8891 30.8506 15.6469 30.2055 16.2614 29.7032C16.7832 29.2768 17.7937 28.7609 18.4654 28.4431C18.5782 28.3898 18.6871 28.3142 18.6704 28.2765C18.4985 27.8867 17.8026 28.5343 17.0626 28.9037C16.299 29.2849 15.6914 29.8299 15.0802 30.4399C14.5457 30.9735 14.6891 31.6822 14.7441 31.9039C14.9205 32.6151 16.9025 32.4612 18.0365 32.2223C19.9929 31.8101 20.4272 30.9811 21.334 30.1133C22.2499 29.2366 22.6496 28.4654 22.9663 27.7598C23.3709 26.8583 23.763 26.0941 23.9853 25.5552C24.0369 25.43 24.023 25.2785 23.8947 25.1846C23.5666 24.9445 22.3651 25.0162 20.5367 25.2179C17.0089 25.607 16.2469 27.1253 15.6547 27.5331C14.8334 28.0985 14.5802 28.6809 14.264 29.126C14.0601 29.6077 13.9112 30.1255 13.9296 30.5138C13.9479 30.6822 13.9846 30.7922 14.1335 30.6833" stroke="#0012D4" stroke-linecap="round"/>
<path d="M12.2445 34.0169C11.9867 33.3535 11.1755 31.95 10.1376 30.8722C9.36426 30.3188 8.80089 29.9799 8.5792 29.906C8.46753 29.8688 8.35752 29.8321 8.02194 29.6832" stroke="#0012D4" stroke-linecap="round"/>
<path d="M10.2443 31.0167C10.4643 31.0167 10.6877 30.98 10.891 30.8511C11.4019 30.5273 11.2444 29.5032 11.0788 28.8704C10.8343 27.936 9.76651 27.2053 8.9509 26.648C7.99146 25.9925 6.83964 25.4985 5.67623 25.3685C3.51833 25.1274 2.83937 25.4607 2.26433 25.5896C2.12587 25.6207 2.02376 25.7185 1.96709 25.958C1.68108 27.1665 2.16821 27.8653 2.42767 28.4215C2.85813 29.3442 3.79277 30.2322 4.50115 30.7194C5.56871 31.4537 7.49969 31.5345 9.45871 31.5356C10.1288 31.4256 10.4654 31.2767 10.5955 31.2206C10.6155 31.2378 10.5421 31.3478 10.4666 31.4611" stroke="#0012D4" stroke-linecap="round"/>
</svg>
