<svg width="26" height="48" viewBox="0 0 26 48" fill="none" xmlns="http://www.w3.org/2000/svg">
<path d="M13.4075 10.317C12.84 10.0515 11.9307 9.89991 10.8664 9.89877C10.1165 9.89797 9.57425 10.7317 9.19252 11.2833C8.7034 11.9899 8.84953 13.0085 9.00051 13.7332C9.07332 14.0827 9.41814 14.2665 9.77708 14.4556C11.25 15.2318 12.9107 14.7245 13.5192 14.6095C14.2369 14.4737 14.7726 13.7377 15.078 13.2626C15.3992 12.7628 15.2307 11.9168 14.8906 11.2685C14.4342 10.8879 14.0548 10.5836 13.7516 10.4509C13.599 10.3933 13.4485 10.3557 13.2936 10.203" stroke="#0012D4" stroke-linecap="round"/>
<path d="M11.0146 14.9889C10.7491 15.8994 10.4471 16.5796 9.76569 17.4531C7.99438 19.7235 7.06736 19.9617 6.47767 20.4192C6.26277 20.5859 5.85151 20.61 5.32108 20.6294C4.1981 20.6704 3.49617 19.6631 3.021 19.2637C2.69317 18.9882 2.50709 18.5988 2.39314 18.1265C2.04916 16.7007 2.84666 16.1307 2.96232 15.6931C3.12933 15.0613 1.44507 15.3695 0.912929 15.1422C0.270252 14.8676 0.56994 13.9656 0.5688 12.7526C0.568064 11.9688 1.55447 11.5339 1.93563 11.1921C2.3405 10.829 1.52028 9.97967 1.4616 8.53707C1.43129 7.7921 2.08547 7.28134 2.63699 6.89961C3.45445 6.3338 5.11882 6.89619 6.07428 7.31496C6.57371 7.53384 7.02406 7.84653 7.29127 8.30176C7.70731 9.01054 8.12709 9.51704 8.50597 10.0492C8.62049 10.1643 8.7333 10.2395 8.82902 10.3346C8.92474 10.4298 8.99995 10.5426 9.07743 10.7728" stroke="#0012D4" stroke-linecap="round"/>
<path d="M4.86129 6.67058C4.63339 6.0279 4.85901 4.43944 5.29658 3.21733C5.52446 2.58085 6.33808 1.96445 7.13743 1.67616C7.49431 1.54745 7.86045 1.732 8.14475 1.78954C8.72432 1.90685 8.9612 1.01183 9.43637 0.74633C10.3023 0.262477 11.696 0.592497 12.2088 0.876802C12.9306 1.27701 13.7813 1.31494 14.4502 1.12578C15.0577 0.953976 15.9099 0.97309 16.8984 1.18105C17.13 1.22978 17.316 1.2762 17.4505 1.37077C18.0578 1.79796 18.0795 3.73295 17.7581 5.318C17.6138 6.02993 17.1701 6.66602 16.5252 7.52178C15.691 8.62859 14.9299 8.87209 14.4348 9.15753C14.3203 9.21508 14.2075 9.25268 14.1305 9.32846C14.0536 9.40424 14.016 9.51705 13.9773 9.63327" stroke="#0012D4" stroke-linecap="round"/>
<path d="M17.3958 6.10081C17.6977 5.87405 18.8315 5.4946 19.8047 5.32253C20.5735 5.18659 21.2655 5.64273 21.9327 6.17488C22.4917 6.62075 22.9406 7.38844 23.1685 8.03568C23.3585 8.57526 22.9041 8.98602 22.809 9.27033C22.766 9.39869 22.8266 9.51703 22.9212 9.61274C23.3339 10.0304 24.1142 10.2007 24.7626 10.7705C25.3406 11.2784 24.9552 12.2518 24.8031 12.8592C24.5875 13.7197 24.1234 14.9433 23.4944 15.6521C22.9514 16.2639 22.1839 15.9757 21.2359 15.9956C20.5004 16.0111 19.8297 15.6361 19.2406 15.3889C18.2899 14.9898 17.9678 14.4966 17.4356 14.079C17.3206 13.9645 17.2454 13.8517 17.1314 13.756C17.0175 13.6602 16.867 13.585 16.7121 13.5075" stroke="#0012D4" stroke-linecap="round"/>
<path d="M10.4448 16.0145C10.2944 16.656 9.98903 18.3231 10.14 19.278C10.309 20.347 10.634 20.912 10.8995 21.463C11.2453 22.1805 12.5278 22.9996 13.4041 23.628C13.9627 24.0286 14.8091 23.991 15.4353 23.9721C16.1459 23.9508 16.6346 23.1956 16.8442 22.7392C17.0683 22.2516 17.0915 21.7894 17.2237 21.5239C17.5581 20.8524 18.8361 21.4066 19.4252 21.5786C19.9145 21.7215 20.3949 21.5604 20.7168 21.447C21.7044 21.0992 22.2569 20.005 22.409 19.4352C22.5783 18.8013 22.4483 18.1066 22.2962 17.5169C22.258 17.383 22.2204 17.2702 22.1446 17.1369C22.0688 17.0035 21.956 16.8531 21.498 16.6982" stroke="#0012D4" stroke-linecap="round"/>
<path d="M10.9006 15.7866C10.3696 16.3552 9.31445 19.1412 8.77433 21.1564C8.49974 22.1809 8.31853 23.0395 8.09177 23.9448C7.26288 27.2541 7.29298 27.8994 7.23543 28.6031C7.1648 29.4667 7.02634 31.4182 7.21549 33.0465C7.29781 33.7551 7.48213 34.4333 7.59551 35.1176C7.692 35.6999 7.82398 36.3705 7.91856 36.922C8.05065 37.6922 8.05188 38.3828 8.25984 39.389C8.46712 40.3918 8.50768 41.5301 8.60226 42.9579C8.71936 44.7257 8.81079 45.3337 8.86833 46.1513C8.92474 46.4368 8.96348 46.7786 8.96348 47.0265C8.96348 47.0487 8.96348 46.8607 8.96348 46.667" stroke="#0012D4" stroke-linecap="round"/>
<path d="M8.16583 37.0952C8.12823 37.0952 8.09062 37.0952 8.09005 37.0388C8.08221 36.2619 9.1891 35.0486 10.2505 33.5872C10.9567 32.615 11.582 32.0837 12.946 31.1356C13.876 30.4892 14.4308 30.2969 15.1139 30.126C15.8898 29.9319 16.5571 29.7272 17.1092 29.8582C17.7406 30.0081 17.0562 31.6188 16.5998 32.3452C16.1389 33.0789 15.0849 33.9365 14.416 34.5108C13.7117 35.1155 12.954 35.7255 12.0629 36.371C11.2901 36.9309 10.5246 36.9425 9.95313 37.0946C9.61299 37.1704 9.30647 37.2467 8.98513 37.3037C8.7766 37.3231 8.47577 37.3231 8.16583 37.3231" stroke="#0012D4" stroke-linecap="round"/>
<path d="M8.27978 11.9123C8.12937 11.7619 7.93907 11.534 7.69294 11.2873C7.47135 11.0651 6.99101 11.1146 6.53578 11.1334C6.22605 11.1462 6.00192 11.3414 5.79339 11.5687C5.60113 11.7783 5.54498 12.1755 5.60139 12.6495C5.62717 12.8662 5.7706 13.0107 5.92273 13.107C6.2316 13.3025 6.56939 13.3173 6.68391 13.4306C7.12183 13.8642 5.66121 14.4921 5.45041 15.0248C5.39398 15.1674 5.43103 15.3649 5.44984 15.537C5.46864 15.7091 5.50624 15.8595 5.77003 16.0122C6.47226 16.4187 7.25195 16.4327 7.66901 16.3381C8.27864 16.0532 8.65809 15.7501 8.90479 15.4658C9.00108 15.3319 9.03868 15.2191 9.19138 15.1029" stroke="#0012D4" stroke-linecap="round"/>
<path d="M10.4448 9.74721C9.60957 8.83675 9.45802 8.15647 9.3247 7.52747C9.24238 7.13908 9.41814 6.74805 9.66427 6.48255C10.1848 5.92108 10.9371 5.91052 11.2026 5.89229C11.4826 5.87307 11.6584 5.41826 12.0749 5.22853C12.5343 5.01924 13.0634 5.07527 13.4804 5.22568C14.4441 5.57324 14.0912 7.2312 13.959 8.18724C13.8269 8.60316 13.6742 8.98603 13.5414 9.27033C13.4839 9.40422 13.4463 9.51703 13.4075 9.63326" stroke="#0012D4" stroke-linecap="round"/>
<path d="M14.8889 11.1146C14.8889 10.889 15.0769 10.5847 15.4558 10.2435C15.7998 9.93361 16.5548 9.74835 17.4089 9.61503C17.7332 9.56441 17.8493 9.66973 17.9262 9.78368C18.0874 10.0225 18.0419 10.4286 18.0413 10.8081C18.0405 11.3199 18.8748 11.379 19.1614 11.8342C19.2432 11.964 19.1438 12.1743 19.068 12.3088C18.6504 12.7088 18.2709 12.9754 17.7798 13.0324C17.4391 13.0518 16.9126 13.0518 16.1423 12.9378" stroke="#0012D4" stroke-linecap="round"/>
<path d="M13.0657 14.8749C12.4583 16.2777 12.382 17.2633 12.6275 18.2142C12.6811 18.4217 12.8355 18.5191 13.0628 18.5772C13.2902 18.6353 13.6286 18.6353 13.8217 18.5225C14.1754 18.3159 14.1288 17.8388 14.2422 17.6491C14.2976 17.5564 14.4308 17.5345 14.5641 17.5904C14.8877 17.7259 15.1532 17.9892 15.4939 18.0274C15.9089 18.0739 16.2551 17.8764 16.4825 17.6872C16.7505 17.4642 16.8636 17.1551 16.9206 16.8337C17.0902 15.8773 16.6369 15.333 16.3526 14.7633C16.1446 14.4602 15.878 14.23 15.5937 14.0972C15.4598 14.0397 15.347 14.0021 15.1168 13.9633" stroke="#0012D4" stroke-linecap="round"/>
</svg>
