<svg width="26" height="48" viewBox="0 0 26 48" fill="none" xmlns="http://www.w3.org/2000/svg">
<path d="M3.94119 2.20982C4.30674 2.69762 4.71386 3.26612 5.1008 4.01922C5.54525 4.88425 5.65279 6.358 5.67297 7.72239C5.68304 8.40354 5.77505 10.302 5.8154 13.0112C5.8369 14.455 6.46458 15.3256 6.77267 16.023C7.06046 16.6746 7.85098 17.3257 8.84798 17.8367C9.47472 18.158 10.2937 18.3062 12.3079 18.3074C13.5804 18.3082 14.2084 17.9003 15.2255 17.4327C16.0316 17.0621 16.7758 16.5164 17.3669 16.1282C17.9218 15.7638 18.3235 15.0908 18.6316 14.5193C18.9914 13.8519 19.1011 13.1763 19.304 12.2789C19.4671 11.5578 19.5485 10.8118 19.6103 10.2806C19.6818 9.66562 19.7931 8.93641 19.9355 8.22487C20.285 6.47892 20.7295 5.7186 21.0761 5.14582C21.429 4.56272 21.8702 4.08646 22.1153 3.78082C22.1858 3.69297 22.0377 3.6769 21.8947 3.71725C21.2784 3.89105 20.8151 4.20505 20.224 4.43001C19.6353 4.65404 19.1035 4.98016 18.4109 5.4478C17.7988 5.86112 17.0252 6.28343 16.3124 6.79324C15.632 7.27988 15.4334 5.35183 15.2304 4.45446C15.0585 3.69423 14.9859 2.9458 14.4578 2.39504C13.9707 1.88707 13.2767 1.6401 12.7455 1.35524C12.6154 1.28545 12.5016 1.19264 12.2981 1.23176C11.0234 1.47674 10.3817 2.81866 10.1366 3.32847C9.67883 4.28049 9.11756 5.38606 8.914 5.83596C8.57952 6.57524 7.93656 4.29063 7.58996 3.82117C7.19491 3.28608 6.51104 2.98493 6.0214 2.74041C5.49141 2.61816 5.04273 2.41399 4.79883 2.33268C4.67596 2.29173 4.55492 2.25138 4.43022 2.20982" stroke="#0012D4" stroke-linecap="round"/>
<path d="M7.11988 3.18786C7.20057 2.74163 7.60646 2.0093 8.05515 1.41758C8.40992 0.949705 8.8706 0.662031 9.19581 0.539773C9.50269 0.424405 9.84866 0.578896 10.1335 0.76167C10.257 0.863755 10.3377 0.98479 10.3994 1.12783C10.4612 1.27087 10.5015 1.43225 10.7876 1.84303" stroke="#0012D4" stroke-linecap="round"/>
<path d="M14.3331 1.96529C15.0654 1.64008 15.7952 1.31488 16.5918 1.0288C16.8065 0.951672 17.0985 0.98723 17.2843 1.04775C17.9152 1.2532 18.4042 2.16579 18.8553 2.697C19.1414 3.18664 19.3444 3.51306 19.5681 3.71601C19.6708 3.83827 19.7515 3.99965 19.8346 4.16592" stroke="#0012D4" stroke-linecap="round"/>
<path d="M12.0102 18.3477C11.8476 18.5495 11.6446 19.2818 11.3604 20.5979C11.1479 21.5819 10.9954 23.2454 10.8512 25.7315C10.7069 28.2176 10.6262 31.4855 10.6048 33.29C10.5806 35.3365 10.7057 36.6753 10.8273 38.5679C10.9621 40.6645 11.3573 41.5326 11.4191 42.9972C11.4574 43.9074 11.6434 44.6306 11.7449 45.3024C11.7657 45.8092 11.806 46.2212 11.8671 46.4852C11.8879 46.6283 11.8879 46.7897 12.0102 47.0782" stroke="#0012D4" stroke-linecap="round"/>
<path d="M10.5431 31.4293C11.35 30.5001 13.2303 28.5391 14.9578 27.3991C15.8824 26.7889 16.6926 26.2969 17.2654 26.0708C17.3883 26.05 17.5093 26.05 17.6322 25.9895C17.755 25.9289 17.8761 25.8079 18.0008 25.6832" stroke="#0012D4" stroke-linecap="round"/>
<path d="M12.9882 28.6174C13.0286 28.0489 13.3526 27.1552 13.7407 26.4602C14.4106 25.2607 15.1864 24.0963 15.7164 23.5052C16.3133 22.8394 17.1816 22.507 18.5039 21.9366C20.3346 21.147 20.8909 20.8761 21.828 20.6914C22.472 20.5646 23.1331 20.4677 23.7242 20.406C23.9943 20.3778 24.275 20.2232 24.5195 20.1816C25.0023 20.0996 24.319 21.1572 23.8911 22.3774C23.6214 23.1463 22.6539 24.49 21.976 25.5787C21.4724 26.3874 20.4924 26.9816 19.0253 28.0636C17.9578 28.8508 16.9469 28.901 15.8668 29.0856C15.4004 29.1064 14.6338 29.1064 14.1784 29.0862C13.723 29.0661 13.602 29.0257 13.4773 28.9841" stroke="#0012D4" stroke-linecap="round"/>
<path d="M5.53054 23.7271C5.85452 23.8078 6.9096 24.6171 7.6676 25.5371C8.59956 26.6682 9.07355 27.5537 9.7258 28.857C10.0125 29.6345 10.257 30.2043 10.4202 30.6939C10.4612 30.8168 10.5015 30.9378 10.6653 31.307" stroke="#0012D4" stroke-linecap="round"/>
<path d="M8.95374 26.7835C8.95374 26.3788 9.03443 25.5634 9.03565 23.2277C9.03643 21.727 8.26176 21.2844 7.73361 20.7342C7.0381 20.0097 6.39123 19.2085 5.37099 18.3912C4.78227 17.9196 4.06834 17.5751 3.39348 17.2285C2.57338 16.8073 1.90683 16.597 1.07121 16.6349C0.131375 16.6776 0.517992 19.0691 1.04553 21.2141C1.27126 22.1319 1.4936 22.8664 1.84143 23.4807C2.20452 24.122 3.16119 25.5927 3.93875 26.638C4.43111 27.2999 5.11975 27.4339 5.67113 27.5372C5.81417 27.5574 5.97555 27.5977 6.44196 27.6185C6.90837 27.6393 7.67493 27.6393 8.46471 27.6393" stroke="#0012D4" stroke-linecap="round"/>
</svg>
