<svg width="24" height="49" viewBox="0 0 24 49" fill="none" xmlns="http://www.w3.org/2000/svg">
<path d="M2.31406 32.2309C2.31406 32.1905 2.31406 32.1502 2.23337 32.1294C2.15268 32.1086 1.9913 32.1086 1.84765 32.1893C1.25317 32.5232 1.336 34.4975 1.45765 35.7329C1.54708 36.6412 1.74312 36.9977 1.86476 37.2012C1.98619 37.4044 2.75663 37.3657 3.75364 37.3253C4.47781 37.296 6.21162 37.1212 8.51311 37.1413C9.8965 37.1535 10.2999 37.2838 11.8556 37.3449C13.249 37.3996 15.8724 37.3657 17.304 37.3858C18.898 37.4083 20.1526 37.4879 21.8434 37.4274C22.4476 37.4058 22.5256 37.2459 22.5672 36.7599C22.7656 34.4398 22.731 32.9766 22.569 32.0084C22.524 31.739 21.193 31.7418 19.523 31.762C18.7383 31.7715 17.0008 31.8641 14.5563 31.8843C13.2338 31.8952 12.5861 32.067 9.45815 32.1288C8.6717 32.1443 6.93538 32.2309 4.40955 32.2107C3.33613 32.1502 3.04882 32.0683 2.72423 32.0071C2.52067 31.9864 2.23826 31.9864 1.94729 31.9864" stroke="#0012D4" stroke-linecap="round"/>
<path d="M3.29211 37.4879C3.29211 37.7312 3.77625 39.6714 4.2286 41.6196C4.37344 42.2434 4.39243 42.8232 4.59538 43.8208C4.77938 44.7253 4.83989 45.4713 4.98293 46.1456C5.03803 46.4053 5.04406 46.656 5.14553 46.8999C5.3513 47.3945 5.97933 47.4714 6.46897 47.7361C6.58993 47.8015 6.71287 47.8382 7.92505 47.859C9.13723 47.8798 11.4369 47.8798 12.7022 47.8596C14.7011 47.8277 15.8406 47.6768 16.8792 47.6151C17.6796 47.5675 18.4508 47.4727 18.6745 47.351C19.2116 47.059 19.3054 45.9286 19.5517 45.1926C19.7778 44.5172 20.0389 43.4443 20.4069 42.138C20.6107 41.4145 20.8556 40.6299 20.9173 40.0571C21.0597 39.4868 21.182 38.9159 21.2431 38.5503C21.2639 38.3462 21.2639 38.1041 21.2639 37.8547" stroke="#0012D4" stroke-linecap="round"/>
<path d="M11.8501 31.8641C11.7694 31.8641 11.7279 30.7344 11.748 28.9623C11.7567 28.1965 11.8501 26.7024 11.8299 24.4828C11.8159 22.934 11.6056 22.4527 11.1997 20.9282C10.9284 19.9092 10.7914 18.6652 10.7296 17.1376C10.6793 15.8929 10.8696 13.6967 11.4406 12.1043C11.7063 11.363 12.2144 10.7576 12.7041 10.1048C12.948 9.77955 13.1534 9.49224 13.3563 9.22817C13.4786 9.08513 13.64 8.92375 13.8062 8.75748" stroke="#0012D4" stroke-linecap="round"/>
<path d="M17.1072 0.810766C16.8639 0.810766 16.134 1.05283 15.1957 1.68429C13.9844 2.49944 13.4003 3.2119 12.8508 3.86475C12.3689 4.43717 12.2584 5.04575 12.0952 5.80008C12.0201 6.14745 11.9724 6.55441 12.0127 6.9817C12.0886 7.78564 13.1925 8.22689 13.7836 8.67435C14.211 8.9979 15.0239 9.002 15.7795 8.75932C17.3784 8.24575 18.0412 7.04833 18.6128 6.41687C19.3391 5.61442 19.9166 4.72789 20.2033 4.03285C20.4041 3.54622 20.5304 2.65074 20.49 1.67329C20.4691 1.16578 20.1245 0.8939 19.8194 0.629214C18.9863 0.443994 17.9238 0.484339 17.6188 0.585812C17.4752 0.646941 17.3541 0.727631 16.9849 0.810766" stroke="#0012D4" stroke-linecap="round"/>
<path d="M13.684 8.51297C13.684 8.35159 13.7647 8.10708 13.9878 7.72136C14.3319 7.2146 14.8625 6.60087 15.4726 6.03115C15.7599 5.78419 16.002 5.62281 16.3736 5.45654" stroke="#0012D4" stroke-linecap="round"/>
<path d="M11.9724 31.3751C12.2157 30.1574 12.8648 28.2868 14.1681 26.0239C14.7576 25.0002 15.3931 24.6118 15.8828 24.0824C16.3371 23.5913 16.9825 23.267 17.5938 23.0011C17.7453 22.9351 17.919 23.02 18.0223 23.1013C18.4033 23.4011 18.2882 24.0372 18.3096 25.4401C18.3206 26.1643 18.1268 26.7268 18.0651 27.318C18.0048 27.8951 17.6378 28.4384 17.3126 29.2319C16.8223 30.2735 16.6597 30.6403 16.4971 30.8842C16.4152 31.0071 16.3345 31.1281 16.0069 31.4973" stroke="#0012D4" stroke-linecap="round"/>
<path d="M11.7279 31.2528C11.4027 30.3175 11.1581 29.6659 10.3464 28.2636C9.57075 26.9238 8.63476 26.5704 7.12855 25.5715C6.24404 24.985 5.73971 24.5702 5.12842 24.1026C4.97459 23.9849 4.80322 23.959 4.67974 24.0189C4.13542 24.2829 4.27017 25.6608 4.37165 26.483C4.45445 27.1539 4.96215 28.0301 5.24701 28.6628C5.51868 29.2662 5.94021 29.7833 6.81374 30.7803C7.00018 31.0071 7.04052 31.1281 7.10165 31.251C7.16278 31.3739 7.24347 31.4949 7.44886 31.8641" stroke="#0012D4" stroke-linecap="round"/>
<path d="M11.9724 21.839C12.0934 21.3524 12.5812 20.5382 13.1521 19.7839C13.6069 19.183 14.9359 17.8559 16.3088 16.7274C16.9827 16.1736 17.7943 15.6895 18.43 15.2182C18.5463 15.1319 18.6134 14.9951 18.2918 15.2353C16.1636 16.8254 15.5618 17.9635 15.2935 18.5362C14.923 19.327 16.9825 18.8241 17.6341 18.7422C18.4923 18.6344 18.9386 18.2129 20.1789 17.2788C21.1405 16.5547 21.6698 15.7702 21.9149 15.1784C22.0952 14.7432 22.242 14.0194 22.2218 13.2254C22.2107 12.7903 21.9583 12.5083 21.6533 12.2235C21.0935 11.7007 19.924 11.611 18.7417 11.6299C17.7776 11.6454 16.9507 12.3812 16.1316 12.9326C15.3777 13.44 14.8283 15.0219 14.5606 16.11C14.5398 16.3741 14.5398 16.7776 14.5599 17.0661C14.5801 17.3546 14.6205 17.516 14.662 17.6823" stroke="#0012D4" stroke-linecap="round"/>
<path d="M11.9724 23.5506C11.7694 22.9002 11.2828 22.2498 10.8531 21.6171C10.2522 20.7324 9.20447 19.5601 8.75456 19.0289C8.24838 18.4313 7.57356 18.1322 6.88097 17.7446C6.40089 17.476 5.86196 17.1957 5.33197 16.8277C4.68734 16.3801 4.15036 15.9731 3.88445 15.6467C3.54879 15.2346 4.87901 16.2127 5.38882 16.5807C5.92578 16.9683 6.3461 17.3546 6.83574 17.7623C7.0456 17.9371 7.44641 17.9268 7.85353 17.8663C8.02741 17.8404 8.09926 17.6847 8.14083 17.5618C8.32548 17.0161 8.30466 16.0171 8.08154 15.0366C7.91961 14.3251 7.4513 13.6918 6.90114 13.1808C6.19892 12.5285 5.37293 12.4668 4.84294 12.405C4.13942 12.3231 3.66133 12.1 2.54268 12.0988C1.73407 12.0979 1.1355 12.8702 0.746106 13.4014C0.421472 13.8443 0.521764 14.5818 0.500369 15.316C0.482889 15.9158 1.08904 16.5379 1.70032 17.0893C2.31228 17.6413 2.80064 17.8852 3.3508 18.1902C4.12523 18.6196 4.79588 18.741 5.71342 18.7624C6.1407 18.7019 6.46958 18.62 6.81434 18.4782C7.03807 18.3767 7.36083 18.2153 7.81563 17.8045" stroke="#0012D4" stroke-linecap="round"/>
<path d="M10.7498 14.9926C10.7498 14.5879 10.6691 13.6918 10.6074 13.1404C10.5157 12.3213 10.0578 11.2882 9.77296 10.5125C9.50792 9.79074 8.95751 9.1267 8.59135 8.53558C8.26467 8.00821 7.89876 7.4151 7.69398 6.88511C7.43709 6.22027 7.44885 5.66315 7.42868 5.29577C7.41225 4.9965 7.56867 6.63021 7.91649 7.45116C8.20095 8.12257 8.345 8.55209 8.46665 8.83695C8.52471 8.97291 8.66898 9.04112 8.79185 9.02217C9.06978 8.9793 9.24114 8.63645 9.38357 8.39254C9.85982 7.57699 9.60792 5.8282 9.58897 4.56589C9.56005 2.63965 8.75456 2.03578 8.28632 1.46484C7.77517 0.841591 6.71776 1.25823 6.20794 1.46178C5.86847 1.59733 5.57587 2.03089 5.29101 2.5187C4.75682 3.43347 5.16509 4.83792 5.41022 5.80008C5.63072 6.6656 6.22384 7.4909 6.8553 8.06245C7.61023 8.71591 8.09926 8.92008 8.40429 9.00138C8.54795 9.04234 8.66898 9.08268 8.79368 9.12425" stroke="#0012D4" stroke-linecap="round"/>
</svg>
