<svg width="17" height="49" viewBox="0 0 17 49" fill="none" xmlns="http://www.w3.org/2000/svg">
<path d="M7.08996 47.8882C7.86263 47.0752 8.99718 45.294 9.85848 43.5359C10.1913 42.8565 10.3445 41.5162 10.4899 39.9232C10.6354 38.3302 10.6354 36.4743 10.474 34.6105C10.3127 32.7467 9.9899 30.9312 9.76312 29.7538C9.44204 28.087 9.12921 27.1901 8.80401 26.2359C8.39152 25.0256 7.90909 23.2436 7.25746 21.5938C6.96604 20.8559 6.68407 20.142 6.43956 18.2366C6.35642 14.9595 6.39677 12.8017 6.45789 12.356C6.47868 12.0314 6.47868 11.507 6.47868 10.9666" stroke="#0012D4" stroke-linecap="round"/>
<path d="M6.72318 10.5998C6.35763 10.4775 5.78914 10.3969 4.85204 10.112C4.20129 9.91419 3.91249 9.37846 3.70893 9.09421C3.11705 8.26771 4.27559 7.01523 4.78541 6.48585C5.36684 5.8821 7.24155 5.95403 8.39138 6.19732C8.98166 6.32222 9.49108 6.88808 9.779 7.5611C9.93404 7.92353 9.90187 8.31604 9.86152 8.62107C9.78022 9.23579 8.9287 9.82225 8.19271 10.3333C7.5802 10.6402 7.17309 10.7624 6.86806 10.8235C6.7244 10.8443 6.60337 10.8443 6.47867 10.8443" stroke="#0012D4" stroke-linecap="round"/>
<path d="M5.98965 5.70952C5.7867 5.42588 5.38081 4.6141 5.23593 3.99975C5.17825 3.75516 5.13385 3.10666 5.15402 2.25148C5.16477 1.79583 5.45783 1.47331 5.92485 1.0668C6.46408 0.59745 7.12786 0.452461 7.65663 0.512978C8.13695 0.567951 8.43357 0.940267 8.63713 1.20434C9.05101 1.74128 9.12677 2.56751 9.26981 3.32245C9.44089 4.22535 9.16833 4.80971 9.04669 5.34091C8.9893 5.59152 8.88348 5.83055 8.82235 5.95342C8.65956 6.28063 9.24658 4.69723 9.98073 4.0401C10.2123 3.83282 10.875 3.87566 11.6489 3.93618C11.944 3.95926 12.0194 4.11773 12.0811 4.2406C12.1998 4.47685 12.2248 4.89162 12.1844 5.38004C12.1257 6.09144 11.2492 6.48218 10.658 6.80861C10.3861 6.95878 10.1476 7.13504 10.1054 7.19678C9.61528 7.91425 11.7308 6.80983 12.6294 7.17477C12.8201 7.25219 12.8752 7.41867 12.9167 7.60206C13.0112 8.01897 12.8776 8.39795 12.6948 8.62169C12.1856 8.92855 11.6966 9.09115 11.2302 9.21341C10.9252 9.25498 10.4814 9.25498 10.0241 9.13272" stroke="#0012D4" stroke-linecap="round"/>
<path d="M5.98964 5.95404C5.74635 5.3452 5.09717 4.04683 4.40275 3.18492C4.16184 2.88591 3.79024 2.89761 3.54633 2.93796C3.2777 2.98239 3.05669 3.26316 2.87331 3.56758C2.65142 3.93591 2.77061 4.36348 2.72966 4.60738C2.64192 5.12986 3.33911 5.58482 3.80735 5.87152C3.94767 5.95743 4.11177 6.07385 4.13439 6.11603C4.3067 6.43736 3.30243 5.75109 2.81279 5.38493C2.59408 5.22138 2.08108 5.2205 1.47041 5.26084C1.22012 5.27738 1.1018 5.38188 0.999106 5.50413C0.497859 6.10086 0.893964 7.29398 1.22039 7.90832C1.58716 8.39796 2.07497 8.72439 2.70643 8.86743C2.89042 8.88821 3.09215 8.88821 3.29999 9.01047" stroke="#0012D4" stroke-linecap="round"/>
<path d="M6.60093 20.2581C6.47867 20.0149 6.55936 19.5271 7.06734 18.4897C7.49889 17.6084 8.06557 17.1626 8.65668 16.8356C8.91069 16.695 9.1671 17.2408 9.45135 17.5055C9.73837 17.7728 10.2259 17.6907 10.7937 17.5697C12.5253 17.2007 13.0365 16.2261 13.3043 15.6356C13.5301 15.1375 13.2444 14.5549 13.0818 14.1887C12.8102 13.577 11.9436 13.1697 11.1892 12.9435C10.4336 12.7169 9.78084 13.0034 9.5571 13.1862C9.20989 13.655 8.88469 14.2235 8.70008 15.0579C8.6793 15.4033 8.6793 15.9278 8.6793 16.4682" stroke="#0012D4" stroke-linecap="round"/>
<path d="M9.29059 26.9823C9.33093 26.739 9.65491 26.0091 10.3475 25.212C10.491 25.0469 10.633 24.9871 10.7558 24.9253C10.8787 24.8636 10.9997 24.8232 11.0621 24.9235C11.2459 25.219 11.2455 25.6362 11.5499 25.8398C11.918 26.086 12.3458 26.0042 12.5897 25.9841C12.8401 25.9634 13.2811 25.7206 13.8306 25.3752C14.5753 24.9072 14.5061 23.9308 14.5073 23.2149C14.5084 22.5753 13.5329 22.0138 12.94 21.5027C12.6708 21.2707 12.2272 21.2362 11.7999 21.2766C11.4721 21.3075 11.2076 21.5614 10.8824 21.8047C10.4667 22.1157 10.3506 22.5798 10.2894 22.9246C10.2686 23.4711 10.3493 23.9246 10.5321 24.1685C10.6342 24.2914 10.7552 24.4125 11.1244 24.6594" stroke="#0012D4" stroke-linecap="round"/>
<path d="M10.6354 36.6406C10.6758 36.3973 10.9997 35.9902 11.5909 35.5818C12.1274 35.2112 12.5891 36.2322 13.4229 36.3753C14.1221 36.4952 14.8301 36.154 15.3588 35.646C16.3266 34.7163 16.2593 33.2247 16.1174 32.2626C16.0149 31.5669 15.3252 30.9801 14.6925 30.4476C14.4693 30.2598 13.8997 30.2832 13.2279 30.3437C12.4872 30.4105 12.0243 31.3786 11.7363 32.2161C11.5731 32.8897 11.4912 34.0243 11.7143 34.8049C11.7761 34.9278 11.8164 35.0488 12.1025 35.2958" stroke="#0012D4" stroke-linecap="round"/>
<path d="M10.5132 37.2519C9.94467 36.1125 9.29303 35.6234 8.80339 35.4388C8.3042 35.2506 7.70369 35.1344 6.94998 34.6662C6.77704 34.5587 6.76476 34.3617 6.78432 34.2181C6.87985 33.5165 7.08996 32.7308 6.84667 32.0792C6.52061 31.2059 5.75002 30.4104 5.03482 30.0595C4.54384 29.8186 4.03475 30.1194 3.77068 30.3224C3.16313 30.7893 3.09704 31.3811 3.09582 32.1752C3.09553 32.3647 3.21685 32.4814 3.17773 32.5841C3.081 32.838 2.68993 33.012 2.48637 33.317C2.32439 33.5598 2.32193 34.1099 2.38245 34.7615C2.40607 35.0159 2.564 35.0904 2.68687 35.1521C3.78168 35.2958 5.49817 35.1344 6.08929 34.7878C6.23294 34.6857 6.35397 34.5647 6.60093 34.3177" stroke="#0012D4" stroke-linecap="round"/>
<path d="M8.92381 27.1045C8.43601 26.6986 7.86751 26.1289 6.97137 25.5378C6.50808 25.2322 6.11312 25.1081 5.97008 24.9663C5.77882 24.7766 6.1119 24.3757 6.09173 24.0707C6.05003 23.4403 5.46149 22.6666 5.01342 22.2356C4.63642 21.873 3.7939 21.7277 2.06335 21.6433C1.57615 21.6196 1.30475 21.9685 1.01989 22.2326C0.497779 22.7166 0.529636 23.4344 0.508241 24.3299C0.493881 24.931 1.25829 25.4712 2.03401 25.962C2.29664 26.1282 2.64591 26.2072 3.09276 26.3294C4.15334 26.25 4.88688 25.7621 5.25365 25.3349C5.37835 25.1496 5.37836 25.0286 5.37836 24.9039" stroke="#0012D4" stroke-linecap="round"/>
<path d="M6.47867 19.7691C6.03121 19.4036 5.62532 18.8351 5.15585 18.2024C4.79281 17.7131 4.28049 17.4071 3.97301 16.959C3.66268 16.5068 4.27804 15.5366 4.07571 14.8C3.76998 13.687 2.97723 13.1697 2.10186 12.7406C1.46271 12.4272 0.856064 12.7589 0.652506 12.9417C0.462981 13.1118 0.48807 13.7333 0.528415 14.5267C0.585243 15.6444 1.82801 16.3019 2.44235 16.7928C2.97234 16.9572 3.42102 16.9976 3.66492 17.0385C3.78779 17.0391 3.90883 16.9988 4.15578 16.9572" stroke="#0012D4" stroke-linecap="round"/>
</svg>
