<svg width="28" height="48" viewBox="0 0 28 48" fill="none" xmlns="http://www.w3.org/2000/svg">
<path d="M13.5566 46.5652C13.3952 45.5553 13.0676 43.4305 12.9661 41.747C12.8117 39.1854 12.905 37.3164 12.8438 36.0022C12.6984 32.8757 12.8634 30.5923 12.9245 30.2059C13.0302 29.5379 13.0676 28.8012 13.2705 27.4992C13.5538 25.6818 13.515 24.9281 13.5768 24.4183C13.649 23.8222 13.7595 23.3388 13.8213 22.7476C13.9637 22.1162 14.086 21.5037 14.1471 20.7756C14.1679 20.1686 14.1679 19.0793 14.2901 17.957" stroke="#0012D4" stroke-linecap="round"/>
<path d="M12.8231 39.5965C12.9857 36.8677 13.3097 35.8946 14.5701 33.8174C15.4989 32.2868 17.2194 31.7329 18.0166 31.4059C19.1375 30.946 18.244 34.7845 17.4114 36.7968C16.8532 38.1459 15.3954 38.5353 14.6594 38.8214C14.3342 38.863 14.0469 38.9033 13.803 38.9644C13.6801 38.9852 13.5591 38.9852 13.4344 38.9852" stroke="#0012D4" stroke-linecap="round"/>
<path d="M14.0745 17.5357C13.8177 17.2369 13.2997 16.3742 13.0514 15.6849C12.8881 15.2315 12.9105 14.6929 12.9531 14.2089C12.9917 13.7715 13.2972 13.463 13.5552 13.2369C13.7843 13.0362 14.0305 12.9877 14.2345 12.9767C14.7457 12.9491 15.4906 13.6945 15.8741 14.3434C15.9948 14.5477 15.7998 14.9677 15.6384 15.4414C15.1764 16.4518 14.5924 17.7077 14.4634 17.783C14.3984 17.8157 14.3344 17.837 14.2685 17.7297" stroke="#0012D4" stroke-linecap="round"/>
<path d="M14.5918 18.3117C14.7625 17.1735 15.2798 16.0509 15.6782 15.3942C16.1077 14.6861 16.6165 14.1529 17.1736 13.7346C18.1755 12.9821 19.2659 12.6003 19.9219 12.471C20.5044 12.3561 20.9065 12.4697 21.1322 12.577C21.6968 12.8456 22.0271 13.5018 22.2111 14.1704C22.3035 14.5062 22.2871 14.9891 22.2124 15.6445C22.1225 16.4337 21.493 17.2938 20.9223 18.0585C20.3908 18.7706 19.7884 19.129 18.789 19.7104C17.7564 20.311 17.2444 20.2297 16.8997 20.2303C16.4078 20.2312 15.8243 19.9296 15.3797 19.7456C15.3038 19.713 15.2397 19.6916 15.1641 19.6806C15.0884 19.6696 15.0031 19.6696 14.7858 19.5403" stroke="#0012D4" stroke-linecap="round"/>
<path d="M14.3331 12.815C14.2904 12.6009 14.1611 12.0416 14.1818 10.4831C14.2007 9.05992 14.7198 8.5276 15.2575 7.50587C15.7951 6.48438 16.6378 6.26297 17.5409 5.95063C18.4794 5.62605 19.2245 6.11036 19.6022 6.40104C20.0261 6.72734 20.2592 8.0232 20.3044 9.39348C20.0031 10.5484 19.7017 11.5398 19.5071 11.9624C19.4638 12.0383 19.4211 12.1024 19.2478 12.2977" stroke="#0012D4" stroke-linecap="round"/>
<path d="M14.0745 12.4917C14.0745 11.9536 14.1598 11.3108 14.0858 9.51279C14.0544 8.75194 13.4743 7.86282 12.4943 6.78322C11.6615 5.86576 10.8243 5.70425 10.1 5.62569C9.34603 5.54389 9.07573 6.26039 8.78343 6.60571C8.47527 6.96977 8.3631 7.98052 8.3298 9.11445C8.30827 9.84763 8.62048 10.4417 9.08187 11.4095C9.61908 12.5362 10.448 12.9404 11.2482 13.4067C11.7025 13.483 12.0465 13.5903 12.3692 13.7194C12.5212 13.7843 12.6492 13.8484 12.9105 13.9143" stroke="#0012D4" stroke-linecap="round"/>
<path d="M12.5871 13.785C11.9411 13.5696 11.6404 13.5263 10.5867 13.1399C10.0138 12.9299 9.57107 12.7943 8.85068 12.6323C7.93179 12.4257 7.353 12.7917 6.95142 13.0083C6.52322 13.2393 6.16443 13.719 5.79874 14.1817C5.38821 14.7011 5.30178 15.1624 5.29046 15.7551C5.28092 16.2551 5.62382 16.629 5.80715 16.9524C6.02315 17.3333 6.46319 17.6417 6.81983 17.8583C7.10926 18.0341 7.4125 18.203 8.36924 18.5904C8.90506 18.8073 9.56719 18.807 10.3209 18.8396C11.2673 18.8807 12.9053 18.7229 13.3835 18.56C13.5765 18.485 13.7505 18.3983 13.8795 18.323C13.9445 18.2903 14.0085 18.269 14.0744 18.247" stroke="#0012D4" stroke-linecap="round"/>
<path d="M22.4811 15.4663C22.5231 15.3376 22.9532 15.165 24.2759 15.1323C24.6152 15.124 24.7651 15.0783 24.8838 15.1637C25.3558 15.5032 24.9164 16.219 25.2815 16.6827C25.3747 16.8012 25.5605 16.7597 25.6588 16.7277C25.7571 16.6956 25.7998 16.6316 25.8218 16.5133C25.9187 15.9916 25.5217 15.5982 25.2197 15.2733C24.9992 15.036 24.8531 14.6709 24.7554 14.1646C24.6722 13.7333 24.7871 13.3763 24.9371 13.183C25.0305 13.0627 25.2152 12.9469 25.3565 12.8703C25.4978 12.7937 25.6045 12.7723 25.6595 12.9C25.9751 13.6334 25.479 14.3411 25.2731 14.754C25.2406 14.8191 25.2191 14.883 25.2401 14.8947C25.5472 15.0648 26.3986 14.2829 26.9098 14.205C27.0308 14.1866 27.0078 14.495 26.9757 14.6997C26.7497 14.8623 26.2356 15.077 25.6194 15.1323C25.4997 15.1217 25.4144 15.1003 25.4558 15.143" stroke="#0012D4" stroke-linecap="round"/>
<path d="M18.8598 5.76634C18.7951 5.65964 18.8805 5.05889 19.1712 4.16358C19.3522 3.6061 19.8065 3.26762 20.0875 2.99732C20.3502 2.74459 20.8632 3.00637 21.4009 3.15769C21.7529 3.25676 22.2412 3.09432 22.6189 2.93297C22.7345 2.88356 22.6337 2.79297 22.5471 2.74932C21.7963 2.37113 20.4131 2.61966 19.51 2.58701C19.0609 2.57077 18.7317 2.21097 18.2901 1.5656C18.1935 1.42455 18.2131 1.32763 18.2451 1.24097C18.2771 1.15432 18.3412 1.06896 18.4062 1.01432C18.4711 0.959674 18.5352 0.938334 18.6002 0.93801C18.8729 0.936653 19.1598 1.28107 19.3658 1.61572C19.5404 1.89932 19.7645 2.12302 19.8935 2.20903C19.9585 2.25236 20.0225 2.29504 20.0555 2.21032C20.1643 1.93083 20.1311 1.58565 20.2705 1.33862C20.4654 0.993192 20.7558 0.809001 20.9172 0.776344C20.9923 0.76114 21.0572 0.850387 21.0901 0.979397C21.1018 1.56237 20.9731 1.79905 20.8331 1.99272C20.7784 2.0797 20.7571 2.14372 20.7351 2.20968" stroke="#0012D4" stroke-linecap="round"/>
<path d="M9.09512 5.443C9.1378 5.443 9.18048 5.443 9.17045 5.42166C9.0253 5.11262 8.62176 4.79763 8.4491 4.48496C8.26238 4.14684 8.10378 3.80564 8.10345 3.61229C8.10265 3.12976 8.57649 2.96498 8.86749 2.83532C9.30879 2.6387 9.61116 2.51231 9.94483 2.3293C10.0936 2.2477 10.2979 2.06223 10.4185 1.9316C10.5391 1.80098 10.5605 1.71562 10.4648 1.69299C9.74818 1.52352 9.0977 2.18639 8.78342 2.46737C8.52701 2.69661 8.29842 2.98438 8.10442 3.22203C7.86652 3.51346 7.30773 3.35168 6.91941 3.5667C6.47796 3.81113 5.92904 4.27771 5.4324 4.31166C5.31941 4.31938 5.2384 4.21563 5.17309 4.1293C5.03964 3.95291 5.02112 3.69829 5.03179 3.47229C5.03644 3.37385 5.0638 3.3103 5.10681 3.26665C5.2964 3.0742 5.68719 3.05034 6.05417 3.00733C6.72339 2.92891 7.34589 3.17967 7.78821 3.15833C8.02458 3.14693 7.30773 2.57827 6.96241 1.88989C6.64567 1.25848 6.70245 0.680307 6.73446 0.58266C6.85623 0.211212 7.11115 1.21639 7.2408 1.73308C7.28381 1.90574 7.34783 2.11914 7.40215 2.26108C7.45647 2.40302 7.49915 2.46704 7.60779 2.66234" stroke="#0012D4" stroke-linecap="round"/>
<path d="M4.82713 15.2723C4.18629 15.2723 2.88843 15.315 2.62944 15.3373C2.08074 15.3846 2.39179 14.0463 2.41248 13.2276C2.41702 13.0479 2.54052 12.9676 2.60584 12.9557C2.67115 12.9437 2.71383 13.0077 2.73582 13.0941C2.83705 13.4915 2.62847 14.1471 2.5748 14.6774C2.5564 14.8592 2.5638 15.1585 2.51045 15.3338C2.37013 15.7947 1.96111 16.2385 1.93848 16.9188C1.9251 17.3207 2.11049 17.621 2.2395 17.7077C2.29346 17.7439 2.36851 17.6236 2.41216 17.537C2.69503 16.9754 2.41378 15.8789 2.33779 15.317C2.30082 15.0435 1.42567 15.4663 0.852078 15.4127C0.711934 15.3996 0.541032 15.4017 0.506436 15.391C0.471839 15.3803 0.578539 15.359 0.782885 15.348C0.987232 15.337 1.28599 15.337 1.5938 15.337" stroke="#0012D4" stroke-linecap="round"/>
<path d="M11.1645 19.1523C10.7771 19.4963 10.4764 19.7977 9.30464 21.3012C8.49045 22.3459 8.29843 22.9651 8.08309 23.3223C7.85477 23.7012 7.1797 23.5483 6.67239 23.818C6.24196 24.0468 5.8411 24.0456 5.79713 24.024C5.3686 23.8129 6.74255 24.1316 7.10016 24.0673C7.45285 24.0038 7.67181 23.7656 7.79015 23.733C8.05787 23.6591 8.03847 24.345 8.18914 24.7553C8.22264 24.8466 8.27515 24.9063 8.32915 24.9607C8.38314 25.015 8.44716 25.0577 8.50148 25.037C8.5558 25.0163 8.59848 24.9309 8.62047 24.8443C8.64246 24.7576 8.64246 24.6723 8.58911 24.5216C8.53576 24.3709 8.42906 24.1575 8.18979 23.9376" stroke="#0012D4" stroke-linecap="round"/>
<path d="M16.5965 20.381C16.6391 20.3803 16.7685 20.6384 17.1228 21.1334C17.5377 21.7129 18.4032 22.1024 18.8371 22.621C19.1367 22.9791 19.3551 23.3117 19.3664 23.4837C19.398 23.9626 18.6891 24.4718 18.4831 25.2501C18.4154 25.5058 18.4285 25.683 18.4928 25.7587C18.7251 26.0318 19.1172 24.9749 19.2368 24.5429C19.3169 24.2536 19.2691 24.003 19.3548 23.9273C19.6841 23.6365 20.3225 24.3463 20.8515 24.3583C21.0163 24.362 21.2266 24.2623 21.1871 24.1226C20.8489 23.7695 20.3064 23.4643 19.9187 23.3563C19.7658 23.3337 19.7017 23.3763 19.6358 23.4203" stroke="#0012D4" stroke-linecap="round"/>
</svg>
