<svg width="22" height="49" viewBox="0 0 22 49" fill="none" xmlns="http://www.w3.org/2000/svg">
<path d="M9.15691 19.6081C9.6225 19.7638 10.6671 20.0244 11.5138 20.1297C12.466 20.248 13.2995 19.7145 13.8633 19.5174C14.4195 19.3228 14.9193 18.9571 15.6356 18.4238C16.0491 18.116 16.2769 17.7833 16.4201 17.5494C16.5813 17.286 16.5907 16.9234 16.5649 16.6107C16.5538 16.4768 16.4874 16.4014 16.4092 16.3615C16.0557 16.1813 15.4983 16.2434 14.9877 16.3733C14.6711 16.4538 16.0398 15.9585 16.6662 15.4245C17.6469 14.5883 17.9178 13.9256 18.3239 13.3371C18.7008 12.7911 18.8334 12.359 19.0677 11.9541C19.3244 11.5105 19.6159 10.8723 19.6683 9.62338C19.6904 9.09542 19.799 8.75871 19.7602 8.53726C19.743 8.43863 19.644 8.39328 19.5137 8.36668C18.9506 8.25168 18.5235 8.46997 18.0661 8.56152C17.588 8.65721 17.2183 8.83461 16.8141 9.03063C16.3382 9.26143 15.888 9.38237 15.5746 9.51344C15.4981 9.54542 15.4185 9.56547 15.3399 9.52713C15.1504 9.43475 15.0781 9.17579 14.6904 8.36081C14.3474 7.63982 13.6313 6.33217 13.2592 5.615C12.753 4.63942 12.3933 4.16933 11.8585 3.68574C11.6781 3.52262 11.4794 3.4369 11.2841 3.35865C10.8738 3.1942 10.1773 4.03317 9.6804 4.46511C9.11578 4.95593 8.79382 5.41664 8.44092 5.84741C8.02559 6.35436 7.80161 6.85175 7.57977 7.30795C7.37186 7.7355 7.07232 8.18044 6.77144 8.67772C6.70885 8.78117 6.55117 8.78297 6.43301 8.75754C5.96214 8.65619 5.66381 8.23678 5.3109 8.0928C4.87318 7.91422 4.46345 7.68903 4.08511 7.4801C3.73737 7.28807 3.21301 7.14128 2.59952 7.02312C2.15367 6.93725 1.72468 7.11311 1.43829 7.34707C1.15198 7.58097 1.07129 7.92143 1.03217 8.27199C0.973216 8.8002 1.14798 9.53574 1.45981 10.4329C2.08287 12.2255 2.53066 12.6939 2.86949 13.2417C3.14786 13.6917 3.46967 14.0508 4.05537 14.8188C4.34452 15.198 4.51353 15.4601 4.63051 15.6162C4.69183 15.698 4.77332 15.7723 4.54209 15.8122C3.12743 16.0564 2.48371 15.7739 2.08894 15.8905C1.71901 15.9997 2.37416 16.633 2.596 17.0892C2.82345 17.557 3.28656 17.8068 3.66451 18.029C4.47809 18.5074 5.08632 18.8507 5.43845 19.0205C6.10679 19.3428 6.65133 19.6081 7.22451 19.803C7.64276 19.8687 8.36971 19.9211 8.90729 19.9861C9.05049 19.9994 9.25707 19.9994 9.31341 20.1559" stroke="#0012D4" stroke-linecap="round"/>
<path d="M9.39165 19.7646C9.34 19.713 9.3134 20.5385 9.28758 22.0492C9.26877 23.1492 9.1569 24.167 9.13108 25.2731C9.1185 25.8115 9.05361 26.3017 9.027 27.2904C9.0004 28.2791 9.0004 29.751 9.01331 30.6125C9.04103 32.4625 9.13029 33.9765 9.16981 34.5129C9.19381 34.8387 9.23515 35.385 9.27388 36.2168C9.32249 37.2605 9.52155 37.9954 9.69017 38.6304C10.0276 39.9011 10.2258 41.1231 10.3299 41.7745C10.4451 42.4957 10.6171 43.0551 10.7215 43.7327C10.826 44.2813 10.8784 44.8549 11.0733 46.3627C11.1132 46.8346 11.1132 47.2994 10.9567 47.9348" stroke="#0012D4" stroke-linecap="round"/>
<path d="M1.41011 6.93158C1.25439 6.87994 0.890528 6.46521 0.654212 5.86425C0.461076 5.37309 0.419461 3.63255 0.704292 2.49948C0.780781 2.19521 1.09633 2.10666 1.25244 2.0155C1.70842 1.74923 3.33038 2.18179 4.26429 2.52257C4.64974 2.66321 5.36958 2.8876 5.88212 3.09653C6.31525 3.27309 6.80626 3.6435 7.14743 3.96981C7.51286 4.34854 7.74761 4.60911 7.89081 4.81726C7.95654 4.92211 8.00818 5.0254 8.13965 5.21008" stroke="#0012D4" stroke-linecap="round"/>
<path d="M19.0947 8.10535C19.0939 8.0537 19.8193 7.63897 20.5404 7.10296C20.9719 6.78218 21.1543 6.3854 21.2204 5.9425C21.2743 5.58136 21.2857 5.18582 21.2599 4.87321C21.2182 4.36847 20.5048 4.08954 19.6072 3.77653C18.8742 3.52089 17.9538 3.64507 17.077 3.82622C15.4286 4.16679 15.0805 4.89551 14.7009 5.14396C14.348 5.44405 14.1657 5.65298 14.0096 5.75705C13.931 5.80948 13.8535 5.86112 13.7737 5.91433" stroke="#0012D4" stroke-linecap="round"/>
<path d="M7.04413 3.80156C7.61614 2.3954 8.18971 1.71697 8.62048 1.35115C9.19331 0.864696 9.78133 0.619903 10.2888 0.52835C11.3105 0.344016 11.7376 1.11288 12.1159 1.3492C12.4182 1.538 13.0397 1.5057 13.5761 1.6489C14.2726 1.83483 14.503 2.39149 14.8027 2.76944C15.1297 3.43535 15.2338 3.85164 15.3254 4.25659C15.3387 4.34853 15.3387 4.426 15.3387 4.66232" stroke="#0012D4" stroke-linecap="round"/>
<path d="M9.7829 38.936C10.0693 37.9985 10.2774 37.4774 11.6417 35.9429C12.6461 34.8132 13.276 34.5039 13.8633 34.0465C13.9257 33.9979 13.8535 34.0829 13.8523 34.1228C13.8454 34.3567 14.5014 34.0328 15.2315 33.7726C15.8378 33.5565 16.1196 33.3286 16.433 33.0813C16.7312 32.846 16.8771 32.5985 16.9424 32.4424C16.9732 32.3687 16.9303 32.2863 16.8783 32.2334C16.8262 32.1806 16.7487 32.1548 16.6572 32.1544C16.2396 32.1526 15.8363 32.5179 15.1587 33.1689C14.6373 33.6699 14.1657 33.8755 14.0742 33.863C13.7221 33.8149 14.4247 33.1736 15.2182 31.9114C15.3903 31.6337 15.442 31.5304 15.4815 31.4384C15.521 31.3465 15.5468 31.269 15.5734 31.3457" stroke="#0012D4" stroke-linecap="round"/>
<path d="M9.46989 38.0752C9.10603 37.3475 8.7406 36.6683 8.49294 36.1734C8.0395 35.2672 7.25384 34.6338 6.77221 34.1385C6.45447 33.8117 6.20998 33.5383 5.84573 32.9001C5.6194 32.5036 5.27254 32.0265 4.93254 31.6728C4.6609 31.3902 4.28033 31.4239 4.14965 31.4627C3.86956 31.5457 4.56516 31.9701 5.08591 32.5433C5.38882 32.8767 5.71231 33.2738 6.01279 33.6138C6.08066 33.6906 6.13017 33.7699 6.11804 33.8227C5.84533 33.9021 5.3774 33.8497 4.93293 33.7848C4.82808 33.7715 4.72479 33.7715 4.61837 33.8497" stroke="#0012D4" stroke-linecap="round"/>
<path d="M9.39166 35.1017C9.39166 34.8419 9.59824 33.9092 10.2109 32.4854C10.4721 31.8786 11.0044 30.8316 11.747 29.5937C12.1756 28.8792 12.6234 28.427 13.1825 27.7646C13.5075 27.3795 13.8191 26.8181 14.4826 26.1644C16.0225 24.6472 17.2934 23.9385 17.5798 23.8603C17.7092 23.8249 17.8145 23.8337 17.8807 23.8982C18.0341 24.048 17.9992 24.3024 17.9734 24.4972C17.8694 25.2818 16.4937 26.513 15.8227 27.236C15.5076 27.5755 14.8473 28.0044 13.9595 28.4231C13.7494 28.5021 13.5687 28.5537 13.4239 28.6062C13.2791 28.6586 13.1759 28.7102 13.0694 28.7634" stroke="#0012D4" stroke-linecap="round"/>
<path d="M9.15691 34.867C8.92216 33.2511 8.61229 31.8528 8.29694 30.3715C8.15659 29.7122 7.77658 28.8464 7.52774 28.1664C7.30637 27.5614 6.60595 26.3463 5.78471 25.0164C5.13707 23.9677 3.99395 23.5473 3.66765 23.3779C3.48526 23.2832 3.26309 23.2343 3.08077 23.2077C2.89954 23.1812 2.87106 23.5199 2.83193 23.7147C2.6791 24.4759 3.26153 25.4222 3.48259 25.7758C3.54215 25.8712 3.70286 25.8932 3.58862 25.9198C3.12453 26.0279 2.61127 26.0755 2.40273 26.3357C2.30688 26.4553 2.29748 26.5959 2.29709 26.7012C2.2967 26.8064 2.32252 26.8839 2.38747 26.9496C2.67086 27.2364 3.15511 27.2501 5.49597 27.2896C6.12862 27.3283 6.41659 27.3549 6.69007 27.3679C6.80862 27.3808 6.88609 27.4066 7.1224 27.5897" stroke="#0012D4" stroke-linecap="round"/>
</svg>
