<svg width="27" height="53" viewBox="0 0 27 53" fill="none" xmlns="http://www.w3.org/2000/svg">
<path d="M10.7488 21.5331C10.5407 21.3516 10.3325 20.9869 9.20141 18.3491C8.80259 17.419 8.76673 16.5306 8.70179 15.6185C8.62492 14.5392 8.6611 13.503 9.11612 12.746C9.85779 11.512 11.2418 11.3355 11.894 11.1266C12.4615 10.9448 13.1448 10.9177 13.7849 10.9169C14.6029 10.9159 14.9462 11.3073 15.4031 11.724C15.7036 11.998 15.7819 12.4279 15.913 12.8066C16.1234 13.4146 15.785 14.9491 15.3155 16.182C15.0184 16.962 14.1973 18.0056 13.324 18.9833C12.7535 19.6221 12.1871 20.0949 11.8064 20.5276C11.3756 20.9321 11.1667 21.2193 11.0497 21.3754C10.9843 21.4541 10.9069 21.5315 10.7488 21.7679" stroke="#0012D4" stroke-linecap="round"/>
<path d="M15.5221 11.9865C15.8062 11.233 16.796 10.3464 17.6564 9.84992C18.6394 9.28265 19.6921 8.98799 20.5493 8.75402C21.7569 8.42443 22.7704 8.30878 23.4074 8.36042C24.7416 8.46861 25.1704 9.06311 25.4982 9.41602C25.7599 9.69764 25.6164 10.3652 25.4478 11.1101C25.3068 11.7331 25.0436 12.1665 23.9778 14.1302C23.2412 15.4874 22.3612 16.4672 21.6929 17.2919C21.1924 17.9097 20.5599 18.4766 19.8153 19.2615C19.3757 19.7249 18.7069 20.2529 18.0156 20.697C17.4177 21.081 16.4376 21.4282 15.7079 21.5847C14.7928 21.6372 13.5502 21.6896 11.9464 21.6767C11.3756 21.6638 11.2981 21.638 11.0618 21.6113" stroke="#0012D4" stroke-linecap="round"/>
<path d="M10.7488 11.3605C10.6448 10.7878 10.5923 10.3198 9.99528 8.53805C9.72777 7.73973 9.31607 7.16398 9.01637 6.68195C8.35929 5.62514 7.1008 3.95649 6.68099 3.58871C6.50089 3.43094 6.2643 3.17164 5.91296 2.9631C5.61877 2.78849 5.22123 2.83125 4.83076 2.85707C4.21048 2.89809 3.83932 3.55898 3.43399 4.28788C2.98633 5.09288 2.9504 6.01056 2.87215 6.91866C2.81852 7.54097 2.84554 8.49814 2.92301 9.44224C3.07532 11.2984 3.41834 12.557 3.61357 13.156C3.87897 13.9703 4.04434 14.6956 4.4352 15.635C4.62434 16.0895 4.85345 16.4453 5.15237 17.0564C5.81341 18.4079 6.38872 19.5972 6.96504 20.2404C7.37513 20.6981 8.31994 21.0871 8.7781 21.4408C9.11553 21.7013 9.57351 21.7412 9.89982 21.8457C10.0947 21.8977 10.4335 21.9243 10.7856 21.8727C10.9053 21.8211 10.9053 21.7178 10.9053 21.6113" stroke="#0012D4" stroke-linecap="round"/>
<path d="M10.9836 11.1258C10.9319 10.7643 10.9053 9.80338 10.944 8.4876C10.9833 7.15556 11.5047 6.6671 11.7391 6.2109C11.9487 5.80279 12.414 5.00193 13.3929 4.09892C13.8654 3.66305 14.3984 3.48388 14.9462 3.22369C15.5281 2.94726 16.0166 2.67477 16.199 2.7135C16.607 2.80019 16.8242 3.86887 17.1254 5.04419C17.3665 5.98451 17.3218 7.46526 17.1919 8.35888C17.127 8.80548 16.9572 9.16799 16.8527 9.49429C16.8007 9.68913 16.7483 9.89884 16.6962 10.0941C16.67 10.186 16.6442 10.2635 16.6176 10.4216" stroke="#0012D4" stroke-linecap="round"/>
<path d="M16.6959 10.1868C17.5793 9.66723 18.4158 9.09288 19.7551 8.07836C20.8999 7.21113 21.2078 5.72967 21.2215 4.80397C21.2308 4.17339 20.7664 3.51206 20.3232 3.10633C20.0331 2.8408 19.6443 2.93535 19.462 3.01321C19.2928 3.08546 19.2523 3.32582 19.239 3.5727C19.2312 3.71663 19.3032 3.89705 19.3814 4.01599C19.4597 4.13493 19.563 4.18658 19.6807 4.21318C19.9276 4.23979 20.1381 4.18814 20.2942 4.07116C20.3728 4.00582 20.4503 3.92835 20.6084 3.69203" stroke="#0012D4" stroke-linecap="round"/>
<path d="M10.4358 9.63906C10.2535 9.37926 10.2011 8.96297 10.0712 8.28532C9.92603 7.5281 9.55003 6.0724 9.471 5.33763C9.37781 4.47124 9.44361 3.3352 9.65254 2.2084C9.76548 1.59929 10.8208 0.931351 11.5165 0.575703C11.722 0.470601 12.0767 0.483758 12.4676 0.561226C12.6406 0.595517 12.7035 0.79363 12.7434 0.976736C12.8269 1.35948 12.7317 1.65673 12.6147 1.79993C12.5561 1.8717 12.4719 1.91731 12.3933 1.94391C12.3146 1.97052 12.2372 1.97052 12.1585 1.94469C11.8451 1.71072 11.6362 1.29443 11.5967 1.04481C11.5838 1.05655 11.5579 1.15984 11.5313 1.26626" stroke="#0012D4" stroke-linecap="round"/>
<path d="M11.3748 21.9243C11.3232 21.8727 11.2715 21.8211 11.2449 21.8848C11.1502 22.1118 11.1409 22.9353 11.0235 24.4424C10.8663 26.4603 10.9577 27.8432 10.9186 28.3111C10.8968 28.5719 10.9053 28.8824 10.7633 30.2815C10.6213 31.6806 10.3372 34.1596 10.1522 36.2113C9.9671 38.263 9.88963 39.8124 9.86263 40.7138C9.82946 41.8214 9.88806 42.2155 9.91388 42.683C9.9513 43.3605 10.0446 44.1435 10.0575 44.8208C10.079 45.9514 10.3576 47.0928 10.4875 47.9524C10.5856 48.6019 10.6706 49.3887 10.8263 50.0002C11.0869 51.1086 11.2966 51.996 11.3486 52.3242C11.349 52.3129 11.3232 52.1838 11.2966 52.0508" stroke="#0012D4" stroke-linecap="round"/>
<path d="M9.96633 37.4962C9.93972 37.1323 10.1479 36.6894 10.8466 35.8087C11.4178 35.0888 12.5267 33.8951 13.1629 33.2053C14.2607 32.0149 14.8679 31.4725 15.3507 31.0034C15.5722 30.7432 15.8852 30.3777 16.2757 29.974C16.4595 29.8026 16.6145 29.6993 16.7741 29.5929" stroke="#0012D4" stroke-linecap="round"/>
<path d="M13.8788 32.1752C13.8788 32.0719 13.9047 31.8121 14.0729 31.1892C14.3626 30.1168 15.0495 28.9724 15.5706 28.0991C16.0065 27.3687 17.2342 26.3925 18.1803 25.669C18.9042 25.1155 19.6678 24.7946 20.0328 24.6248C20.3535 24.4756 20.6076 24.3243 20.6733 24.3756C21.1928 24.7807 20.0872 25.3658 19.9049 25.6921C19.7972 25.885 19.7218 26.0709 19.7601 26.0849C20.47 26.3457 20.7884 25.1092 21.3627 24.6905C21.7615 24.3998 22.8683 23.7554 24.1911 23.1517C24.8205 22.8645 25.3284 22.8375 25.5108 22.8372C25.5938 22.837 25.6414 22.9401 25.6035 23.1478C25.4158 24.1755 25.1219 24.6084 24.9129 25.0008C24.6769 25.4442 24.4176 25.7571 24.0138 26.2653C23.6451 26.7294 23.0623 27.2438 22.3326 27.6613C21.956 27.8768 21.5756 28.0529 21.4163 28.1711C20.7046 28.6992 22.8503 28.0021 23.033 28.0146C23.3616 28.0371 22.7227 28.6523 22.2536 29.2513C21.6848 29.9776 20.6898 30.5554 19.5176 31.3117C18.72 31.8263 18.0809 31.9138 17.5715 32.0703C17.1808 32.1903 15.821 32.1752 14.9626 32.2401C14.8711 32.2534 14.7678 32.2534 14.6758 32.2663C14.5839 32.2792 14.5064 32.3051 14.2701 32.4099" stroke="#0012D4" stroke-linecap="round"/>
<path d="M10.1228 37.1049C10.0712 37.1049 9.83799 36.511 9.43461 35.4175C8.86128 33.8632 8.24638 33.2472 7.93299 32.8285C7.64542 32.5672 7.07575 31.9451 6.564 31.5632C6.44662 31.4725 6.29168 31.3175 6.0538 31.1579" stroke="#0012D4" stroke-linecap="round"/>
<path d="M9.10556 34.0532C9.26206 32.4678 9.10713 30.5914 8.87159 29.7126C8.73772 29.2131 8.37783 28.4504 8.08909 27.8859C8.0409 27.7916 7.98502 27.7164 7.91968 27.7024C7.60515 27.6346 7.43726 28.1828 7.35823 28.5486C7.30344 28.8023 7.04601 28.0294 6.87621 27.5999C6.47071 26.574 5.84722 26.0732 5.24782 25.617C4.49042 25.0405 3.7861 24.8979 3.39485 24.8329C3.00619 24.7684 2.6906 24.7414 1.97617 24.6764C1.6011 24.6423 0.980042 24.6631 0.699514 24.7406C0.418986 24.818 0.496454 24.973 0.562184 25.0915C0.77528 25.4759 0.940916 25.8869 1.12324 26.2269C1.31152 26.578 1.59196 26.8792 1.82749 27.2309C2.05133 27.5652 2.32282 27.8698 2.54466 28.274C2.80609 28.7503 2.84553 29.7416 2.84592 30.3355C2.8462 30.7523 1.90966 30.2189 1.42568 30.1539C1.30821 30.1382 1.1788 30.1406 1.15102 30.1665C0.948997 30.3543 1.72186 30.6602 2.04894 30.8703C2.38471 31.086 2.60921 31.4959 3.01338 31.7827C3.46555 32.1036 3.78297 32.3567 4.23917 32.6435C4.64766 32.9003 5.31824 33.3192 5.89573 33.7132C6.36523 33.8959 6.93803 34.0532 7.45996 34.1181C7.64228 34.1314 7.90051 34.1314 8.24481 34.2097" stroke="#0012D4" stroke-linecap="round"/>
</svg>
