<svg width="28" height="47" viewBox="0 0 28 47" fill="none" xmlns="http://www.w3.org/2000/svg">
<path d="M14.5159 12.205C14.4619 12.205 14.353 12.178 14.1896 12.083C13.982 11.9623 13.9157 11.7146 13.8883 11.5242C13.8533 11.2809 13.9968 11.0596 14.1868 10.8557C14.8067 10.1903 15.4149 10.1041 16.232 10.1168C16.5569 10.1218 16.7257 10.3489 16.8756 10.4304C17.3333 10.6793 17.3816 11.5206 17.4495 12.0388C17.5667 12.9327 17.2735 13.4856 16.8105 14.1537C16.385 14.7677 15.7211 15.1493 15.159 15.4113C14.6733 15.6377 13.8936 15.6438 12.5148 15.25C12.0265 15.1105 11.8148 14.8259 11.665 14.649C11.3608 14.29 11.4046 13.2498 11.7579 12.1264C11.9244 11.597 12.2217 10.7919 12.4952 10.1332C12.8573 9.26107 13.5006 8.49932 14.2952 7.83981C14.737 7.47316 16.2255 7.10415 17.6497 7.03251C18.8558 6.97184 19.3974 7.72641 20.149 8.31346C21.0888 9.0475 21.554 10.805 21.8569 11.9287C22.0353 12.5905 21.5589 13.1564 21.2445 13.6907C20.9256 14.2325 20.4143 15.0118 18.9835 16.5527C18.506 17.0669 18.0939 17.4156 17.6968 17.7579C17.3487 18.0578 16.8117 18.2082 16.0883 18.3318C15.1581 18.4908 14.7091 18.1558 14.3534 18.0052C13.8444 17.7896 13.4253 17.1193 13.3017 16.6014C13.2878 16.2481 13.3148 15.9451 13.3692 15.7409C13.3966 15.6447 13.4237 15.5636 13.4515 15.3982" stroke="#0012D4" stroke-linecap="round"/>
<path d="M13.4515 15.562C13.0724 15.8854 12.1988 16.9784 11.7206 17.2941C11.3273 17.5537 10.5899 17.527 9.7597 17.4054C8.25083 17.1844 8.13118 16.4364 7.81678 16.0958C7.60633 15.8678 7.53021 15.1575 7.36646 14.0153C7.1582 12.5627 7.39184 11.4166 7.54167 10.8041C7.8436 9.57004 8.12791 8.84975 8.37436 8.45388C8.60096 8.08988 8.86479 7.70348 9.13826 7.36206C9.47057 6.94718 10.1715 6.39674 10.8024 5.86086C11.1517 5.56418 11.7026 5.43715 12.1943 5.24638C12.6273 5.07837 13.1486 4.86401 13.9931 4.76822C14.7746 4.67957 15.3879 4.80834 15.7142 5.0118C16.4531 5.736 16.6709 6.06268 16.808 6.47206C16.8354 6.58178 16.8625 6.68986 16.9722 6.88308" stroke="#0012D4" stroke-linecap="round"/>
<path d="M9.11206 7.45622C8.5946 7.34732 7.34844 7.29246 6.37248 7.42797C4.92051 7.62956 4.31247 8.21767 3.51991 8.64219C3.08026 8.87769 2.78139 9.0921 2.30446 9.62389C1.82036 10.1637 1.47137 11.3552 1.46973 12.8535C1.46876 13.7396 1.79723 14.2781 2.01421 14.631C2.41166 15.2775 3.18504 16.1032 3.908 16.8396C4.53931 17.4828 5.31628 17.9626 5.67203 18.2356C5.99396 18.4827 6.54442 18.4817 7.85157 18.496C8.20978 18.4555 8.40137 18.2655 8.7559 17.9376C8.83859 17.8553 8.89263 17.7743 9.03018 17.527" stroke="#0012D4" stroke-linecap="round"/>
<path d="M7.31078 7.21059C7.2027 7.21059 7.09463 7.21059 7.01193 7.17006C6.58109 6.95891 6.46582 5.68933 6.42365 4.47142C6.40741 4.00227 7.03404 3.25924 7.41886 2.61364C7.73249 2.08747 8.1279 1.86243 8.45582 1.57586C8.79931 1.27568 9.40845 0.853715 9.84771 0.660896C10.2425 0.487623 11.8827 0.414858 12.9991 0.645749C13.4268 0.7342 13.6415 1.15011 14.0095 1.39655C14.5275 1.74343 15.3052 2.26854 15.6474 2.62429C15.934 3.0873 16.2075 3.68827 16.3032 4.11075C16.3172 4.28761 16.3172 4.5578 16.3172 4.83618" stroke="#0012D4" stroke-linecap="round"/>
<path d="M21.3935 9.66688C21.4737 9.55798 22.0731 9.44909 23.1223 9.4888C24.0365 9.52339 24.3394 10.4562 24.5179 10.8119C24.708 11.1908 25.0763 11.6024 25.3772 11.9717C25.7285 12.4028 25.6511 14.0767 25.5696 14.9598C25.5081 15.6264 25.1614 16.4299 24.7791 17.17C24.456 17.7954 23.7155 18.3441 23.2238 18.5906C22.8298 18.7881 22.4055 18.9729 22.0362 19.0822C21.2893 19.3033 20.0589 19.1105 19.3355 18.7838C18.9093 18.5913 18.6113 18.3196 18.2969 18.0195C18.2281 17.9372 18.1741 17.8561 18.1193 17.7739C18.0644 17.6916 18.0104 17.6105 17.9547 17.527" stroke="#0012D4" stroke-linecap="round"/>
<path d="M8.2933 18.4276C8.2933 18.3736 8.2933 18.3196 8.27979 18.3593C8.03842 19.0688 8.26546 20.3616 8.49676 21.0587C8.63328 21.4702 9.21768 21.945 9.91199 22.5444C11.0821 23.5544 12.112 23.504 12.6307 23.5854C13.1613 23.6688 13.6398 23.8315 14.4164 23.8994C15.9002 24.0293 16.5612 23.6415 17.0929 23.4229C17.5677 23.2277 18.4672 22.6344 19.0044 22.1952C19.3575 21.9064 19.6725 21.4047 19.851 20.9674C19.9459 20.7496 20.0827 20.3951 20.2055 19.9051C20.2472 19.6582 20.2472 19.4151 20.2472 19.1645" stroke="#0012D4" stroke-linecap="round"/>
<path d="M16.0715 2.87115C16.0445 2.84413 16.0175 2.81711 16.0441 2.77617C16.2828 2.40901 16.9427 2.18994 17.827 1.99834C19.6564 1.60197 20.4093 2.24234 20.9546 2.46095C21.4651 2.6656 21.9371 3.03326 22.3609 3.40211C22.707 3.70343 23.5714 4.66424 24.2845 5.53008C24.5912 5.90235 24.7766 6.30831 24.9408 6.70377C25.2506 7.4501 25.2138 8.02771 25.2282 9.10316C25.1876 9.41961 25.1328 9.58418 25.0783 9.74752C25.0509 9.82981 25.0239 9.91087 24.9142 10.0763" stroke="#0012D4" stroke-linecap="round"/>
<path d="M15.089 24.2409C15.035 24.2409 15.0071 24.9163 15.0207 26.0073C15.0275 26.5594 15.089 27.8049 15.0755 29.5509C15.0668 30.6816 14.9801 31.2806 14.9392 32.5394C14.9035 33.6357 14.9253 35.6626 14.9118 36.7741C14.8966 38.0212 14.8434 38.2949 14.8299 38.5942C14.8138 38.9494 14.7615 39.9799 14.748 41.3571C14.736 42.5805 14.7337 43.3426 14.843 43.9706C14.9523 44.5994 15.0612 45.1439 15.089 46.8465C15.089 47.113 15.089 46.9779 15.089 46.8387" stroke="#0012D4" stroke-linecap="round"/>
<path d="M14.5978 43.3999C14.5429 43.2648 14.5978 41.8017 14.5028 40.6738C14.4076 39.5434 14.1622 38.5217 13.9571 37.9019C13.7593 37.3043 13.2353 36.4437 12.5807 35.8828C12.0672 35.4429 11.6519 35.322 10.9027 34.8459C10.418 34.5378 9.71794 34.2592 9.1137 34.0799C8.66691 33.9473 8.05094 33.876 7.5036 33.8069C6.8789 33.7279 6.0024 33.6845 3.85356 33.6836C2.76535 33.6832 2.18205 34.0922 1.75834 34.2429C1.3495 34.3882 0.92607 34.5564 0.639913 34.6928C0.517317 34.7512 0.434813 34.7751 0.568681 35.1267C0.702548 35.4784 1.0538 36.1538 1.84268 37.3124C2.63155 38.4709 3.84742 40.0921 4.5143 40.9948C5.61752 42.4881 6.46254 43.2345 6.91327 43.4674C7.51067 43.7762 8.47997 43.9722 9.76994 44.095C11.8883 44.2967 13.3139 44.1098 13.5317 44.0553C13.9944 43.9396 14.4864 43.729 14.7746 43.4691C15.0867 43.1876 14.0279 42.5025 13.4261 41.8872C12.9063 41.3557 12.0629 40.5637 11.1491 39.7597C10.6186 39.3912 10.2321 39.1972 10.0008 39.1562C9.8776 39.1423 9.74251 39.1423 9.68519 39.1423" stroke="#0012D4" stroke-linecap="round"/>
<path d="M15.0071 36.3585C15.0063 36.0605 15.6032 35.0813 16.3282 34.2736C16.7153 33.8423 17.7549 32.9263 19.3621 31.7817C20.6399 30.8717 21.3927 30.6002 21.5965 30.5052C22.6166 30.03 23.9022 29.4269 24.4344 29.2496C24.9792 29.0682 25.7542 28.9635 26.6037 28.8943C26.7687 28.8809 26.9038 28.8538 27.0139 28.8804C27.9983 29.1182 27.1805 31.8242 26.8669 32.6438C26.6061 33.3255 26.2799 33.655 25.8033 34.1184C24.8691 35.027 23.6909 36.2456 23.196 36.6578C22.8862 36.9158 22.4055 37.0676 22.0362 37.2584C21.5478 37.5107 20.9317 37.6948 20.5624 37.8184C20.0799 37.98 19.3499 37.9961 18.6003 38.064C16.8711 38.2208 16.4826 37.942 16.1411 37.8327C15.7496 37.7074 15.4992 37.6415 15.4169 37.5195C15.1095 37.0637 16.0699 36.7155 16.6152 36.3053C17.0463 35.981 17.5158 35.7592 17.9391 35.5136C18.3051 35.3236 18.6089 35.1853 18.8803 35.0633C19.0707 34.9683 19.3679 34.8062 19.756 34.6391" stroke="#0012D4" stroke-linecap="round"/>
</svg>
