<svg width="25" height="50" viewBox="0 0 25 50" fill="none" xmlns="http://www.w3.org/2000/svg">
<path d="M11.5981 21.3791C10.3508 21.3009 8.58078 21.4042 7.46688 21.4703C7.05588 21.4947 6.74815 21.5873 6.34399 21.7567C5.87176 21.9546 5.39286 22.3416 5.12994 22.8897C4.98346 23.1951 5.12915 23.4911 5.21992 23.6472C5.45101 24.0446 6.58226 23.9614 7.70829 23.7278C8.73656 23.5145 9.61368 22.4245 10.0182 22.1108C10.6459 21.624 10.8931 21.484 11.8884 21.4057C12.8039 21.3338 14.5622 21.3791 15.5185 21.392C16.5786 21.4063 16.8135 21.5348 17.0479 21.678C17.2332 21.7913 17.3879 21.9777 17.5052 22.3025C17.6601 22.7309 17.5193 23.1257 17.4027 23.3596C17.0687 24.0299 16.0114 24.0647 15.2262 24.105C14.2594 24.1546 13.0864 23.3886 12.6565 22.9203C12.3321 22.5826 12.0942 22.3189 11.9772 22.1886C11.9119 22.1358 11.8344 22.11 11.7546 22.0834" stroke="#0012D4" stroke-linecap="round"/>
<path d="M11.2851 11.4413C11.2593 11.4155 11.2335 11.3897 11.2331 11.3376C11.2321 11.2056 11.4917 10.8701 11.8692 10.4272C12.1391 10.1107 12.8963 9.36141 13.8736 8.29251C14.3698 7.74986 14.9073 7.37541 15.5709 6.80262C16.1704 6.28515 16.8636 5.96534 17.4497 5.70476C18.3904 5.28651 20.0664 4.68829 20.9209 4.49032C21.0617 4.45768 21.2198 4.47702 21.3254 4.54157C22.1958 5.07347 21.4843 7.10936 21.3798 7.78701C21.3392 8.05038 21.3012 8.30972 21.1979 8.94472C20.9863 10.2452 20.6493 11.2308 20.5715 11.6209C20.3985 12.4877 19.8692 13.4429 19.3468 14.5283C19.2149 14.8025 19.0867 15.1128 18.6845 15.7372C17.6617 17.3252 16.79 18.3782 16.5169 18.6771C15.7928 19.4697 14.941 20.2805 14.4816 20.6608C14.1029 20.9088 13.8681 21.1177 13.6991 21.2089C13.6076 21.2484 13.5043 21.2742 13.3196 21.1444" stroke="#0012D4" stroke-linecap="round"/>
<path d="M11.2851 11.5196C11.1302 11.4679 10.6114 11.0023 9.8946 10.2727C8.99503 9.35689 7.81862 8.54763 7.4262 8.22132C6.97743 7.84817 6.56661 7.58202 5.45976 6.85351C4.90066 6.48551 4.5055 6.33001 4.1655 6.18603C3.39083 5.85798 1.84812 5.18286 1.14073 4.96024C1.00979 4.91903 0.90598 4.8949 0.826947 4.97198C0.620006 5.1738 0.643059 5.82921 0.65597 6.5585C0.665248 7.08257 0.953713 8.12038 1.30584 9.42403C1.46043 9.99636 1.55468 10.8858 1.81486 12.2532C2.10746 13.791 2.54454 14.6433 2.8462 15.4947C3.05952 16.0968 3.66352 17.1192 4.03326 17.8563C4.25414 18.2967 4.50237 18.6388 5.12681 19.6146C5.48346 20.1719 5.80602 20.4902 6.19727 20.7653C6.30213 20.8306 6.40542 20.9081 6.49736 20.9738C6.58931 21.0395 6.66677 21.0912 6.74659 21.3009" stroke="#0012D4" stroke-linecap="round"/>
<path d="M7.37259 7.9983C7.37259 7.66026 7.47588 7.29561 7.93169 6.59253C8.16537 6.23208 8.67311 5.86207 9.13166 5.66409C9.58339 5.46906 10.03 5.20946 10.4619 4.99935C11.0222 4.72681 11.5183 4.84168 12.1044 5.04983C12.6222 5.23371 12.8486 5.64922 13.097 5.97553C13.4229 6.35426 13.7876 6.66648 14.088 6.84998C14.1538 6.90201 14.2054 6.97948 14.1021 7.13755" stroke="#0012D4" stroke-linecap="round"/>
<path d="M5.10333 6.12028C5.4132 5.21179 6.66208 3.75242 7.27948 3.27823C7.92007 2.78621 8.33664 2.39243 8.61012 1.98788C9.07619 1.29844 9.48379 1.11382 10.1078 0.83916C11.4008 0.270095 12.1443 0.591106 12.9773 0.577412C13.4021 0.570429 13.7093 0.746042 14.1397 1.16273C14.5059 1.51731 14.7798 1.97144 15.027 2.29775C15.3128 2.67479 15.3275 3.24849 15.6656 4.01769C15.9083 4.57 16.4215 4.73681 16.7615 4.88079C16.8401 4.91992 16.9176 4.97156 16.9962 5.02399C17.0749 5.07642 17.1523 5.12806 17.2321 5.33778" stroke="#0012D4" stroke-linecap="round"/>
<path d="M11.5981 21.8486C11.5981 21.9003 11.5981 22.2109 11.611 22.7059C11.6199 23.0479 11.6764 24.186 11.6893 25.8151C11.7004 27.2197 11.703 28.262 11.6247 29.3286C11.5312 30.603 11.3634 31.5501 11.3505 31.8494C11.3442 31.9942 11.3117 32.1229 11.2984 33.558C11.2851 34.9931 11.2851 37.7303 11.298 39.1921C11.3119 40.7575 11.3634 41.1475 11.3892 41.7328C11.4374 42.825 11.5715 43.391 11.5723 44.6402C11.5729 45.6701 11.3383 46.5945 11.2202 47.2522C11.181 47.827 11.1286 48.1908 11.0637 48.7769C11.0504 48.9984 11.0504 49.3083 10.8939 49.471" stroke="#0012D4" stroke-linecap="round"/>
<path d="M11.4416 40.707C11.4932 40.5513 11.7014 40.1874 12.1044 39.55C12.6403 38.7024 13.3673 37.5824 14.0841 36.7092C14.6266 36.0482 14.9879 35.7788 15.6902 35.1798C16.2542 34.6987 17.3276 33.6472 18.0913 32.9355C18.5641 32.495 19.0554 32.0494 19.4869 31.6573C19.6563 31.5266 19.8136 31.396 19.8793 31.2915C19.8676 31.2645 19.7643 31.2903 19.6579 31.3169" stroke="#0012D4" stroke-linecap="round"/>
<path d="M14.7281 35.3077C14.5982 35.2044 14.4417 34.8397 14.428 34.0979C14.412 33.2286 14.9879 32.1558 15.2356 31.619C15.437 31.1825 15.8471 30.5641 16.3287 29.926C16.6964 29.4388 17.2807 29.0242 17.88 28.6071C18.7707 27.9874 20.2291 27.744 21.0241 27.406C21.7242 27.1083 22.3153 26.78 22.9683 26.5702C23.0963 26.5291 23.1776 26.5436 23.2562 26.6469C23.6615 27.1792 23.5438 27.7409 23.5833 28.3023C23.6301 28.9671 23.5454 30.0101 23.3368 30.5708C22.808 31.9925 21.7472 32.9836 21.3806 33.4152C20.872 34.0139 20.2072 34.8632 19.9329 35.15C19.5502 35.5502 18.9568 35.7756 18.5507 36.0112C18.1461 36.2458 17.6516 36.2467 17.0009 36.3116C15.7462 36.2991 15.3307 36.1176 14.9007 35.8961C14.7289 35.8038 14.6514 35.7521 14.5716 35.6207" stroke="#0012D4" stroke-linecap="round"/>
<path d="M10.8156 35.9337C10.7115 35.8304 10.4525 35.3108 9.99633 34.5937C9.26067 33.4372 8.67938 33.1449 8.20909 32.7661C7.60891 32.2567 7.13941 31.9961 6.74816 31.6315C6.6433 31.5266 6.54001 31.4233 6.51184 31.3169" stroke="#0012D4" stroke-linecap="round"/>
<path d="M9.5636 33.5079C9.48535 33.119 9.4337 32.4922 9.12187 31.9977C8.53577 31.0682 8.28812 30.3044 7.93442 29.8313C7.48862 29.2351 6.54 28.3982 5.21287 27.6419C4.62936 27.3094 4.32238 27.1446 4.00899 27.0006C3.63266 26.8277 3.17523 26.6485 2.69243 26.4533C2.2187 26.2617 1.32852 25.8676 0.735387 25.8903C0.330949 25.9057 0.564801 27.1892 0.590623 28.2965C0.607505 29.0203 0.824592 29.5665 1.03274 30.2551C1.51164 31.8394 1.78864 32.4875 2.25853 32.9457C2.87845 33.5501 4.0579 34.1324 4.80049 34.5369C5.30466 34.8116 6.0392 34.8116 6.44532 34.8511C7.08261 34.9131 7.91877 34.8648 8.4008 34.6566C8.54478 34.5784 8.69971 34.4751 8.81826 34.3832C8.93681 34.2912 9.01428 34.2137 9.01584 34.1339" stroke="#0012D4" stroke-linecap="round"/>
</svg>
