<svg width="23" height="50" viewBox="0 0 23 50" fill="none" xmlns="http://www.w3.org/2000/svg">
<g opacity="0.8">
<path d="M9.97139 11.7857C9.5817 12.1754 9.1122 12.5933 8.656 13.062C8.14651 13.5855 7.46894 14.1583 7.01313 14.6391C6.04937 15.6558 6.00722 16.6091 5.91567 17.2867C5.83828 17.8595 5.69422 18.642 5.60267 19.2946C5.43919 20.4599 5.84916 20.8862 6.14886 21.2399C6.43958 21.583 7.12464 21.4888 7.57027 21.4109C8.01966 21.3324 8.68808 20.9958 9.14859 20.5388C9.75829 19.9338 9.63178 19.4558 9.76207 19.2328C9.9931 18.8373 10.2828 20.0787 10.6741 20.3792C11.086 20.6956 11.8713 20.7579 13.0447 20.6159C13.9449 20.5069 14.79 19.7203 15.4607 18.6498C15.78 18.1401 15.4755 17.6553 15.3714 17.4863C15.0589 16.9786 13.8667 15.681 13.0642 14.9435C12.4585 14.3868 12.1906 13.8234 11.7078 13.2353C11.3541 12.8045 10.5504 12.2083 10.0508 11.6957C9.645 11.2794 9.19045 10.8999 8.52649 10.2367C8.18526 9.89592 7.91262 9.36308 7.54836 8.69991C7.15101 7.97649 6.79129 7.17285 6.42664 6.39231C5.77169 4.99033 5.90237 4.01545 5.86324 3.28537C5.81934 2.46614 6.57845 1.61629 7.03504 0.898346C7.40861 0.310943 8.53002 0.517658 9.09655 0.621339C9.47383 0.690387 9.47528 1.2986 9.86536 2.157C10.0935 2.6591 10.1537 3.07253 10.2316 3.12613C10.8899 3.57939 10.8556 1.95434 11.3388 1.52357C11.8989 1.02422 12.369 0.935515 13.0075 0.921821C13.7904 0.905031 14.4301 1.68985 14.6656 2.02906C14.9809 2.4831 14.9012 3.63985 14.7584 4.41531C14.6597 4.95111 14.2501 5.54916 13.2231 7.24015C12.5382 8.36783 12.2156 9.07043 11.669 9.95661C11.3745 10.4341 10.9652 10.8702 10.5857 11.3276C10.3848 11.5696 10.2327 11.7849 10.1803 11.8507C9.63626 12.5328 11.6381 9.80598 12.0568 9.23162C12.3475 8.8328 12.6303 8.34583 13.9309 7.01753C14.5293 6.40632 15.0279 6.02336 15.551 5.82616C16.6078 5.4278 17.8183 5.73383 18.7194 5.9811C19.343 6.15222 19.5696 7.14077 19.6091 7.49368C19.6575 7.92629 19.6228 8.44442 19.4276 9.03169C19.2028 9.70777 18.399 10.1409 17.85 10.3635C17.6624 10.4396 19.737 10.8686 20.678 11.3667C21.1924 11.639 20.615 12.8734 20.2367 13.688C20.0225 14.1491 19.183 14.548 18.4913 14.7459C17.6336 14.9914 16.8848 14.7334 16.3793 14.5781C14.4186 13.9756 13.5991 13.7169 13.013 13.3265C11.876 12.569 10.6287 11.9187 10.1291 11.6558C9.85842 11.5134 9.5817 11.2912 8.99561 10.7446C8.39538 10.1848 7.86019 9.41316 7.06673 8.12673C6.33588 6.94179 5.64414 6.49286 5.27754 6.28276C5.10156 6.1819 4.88668 5.97015 4.61319 5.80073C4.12668 5.49936 3.06344 5.83712 2.48713 6.12469C2.0179 6.35882 1.28872 6.93106 0.986286 7.35009C0.676353 7.77951 1.35915 9.11581 1.96207 10.0752C2.20573 10.4629 2.74418 10.5071 3.05875 10.5724C3.44834 10.6534 2.38266 10.9766 1.71871 11.4575C1.02942 11.9567 0.842696 12.8264 0.854825 13.4C0.880979 14.6369 1.57042 15.3821 1.97498 15.7495C2.64118 16.3545 3.81308 15.5949 4.36044 15.4384C5.84127 15.015 6.3703 14.2913 6.6837 14.0428C7.01005 13.7841 7.30931 13.5604 7.6227 13.4294C7.92747 13.3019 8.29996 13.1692 8.66578 12.9473C8.89936 12.8045 9.21314 12.5956 9.55157 12.3354C9.70925 12.2044 9.83836 12.0752 10.1279 11.864" stroke="#0012D4" stroke-linecap="round"/>
<path d="M10.0496 19.8455C10.0496 19.9746 10.0496 20.1037 10.0367 22.1844C10.0238 24.2651 9.998 28.2934 9.92014 32.0988C9.84228 35.9041 9.71316 39.3643 9.68539 41.3792C9.65761 43.3942 9.73507 43.859 9.77498 44.3954C9.91008 46.2113 9.89314 46.6823 9.95809 47.2054C9.99721 47.5712 10.0496 48.0133 10.0626 48.4042C10.0755 48.5626 10.1013 48.6401 10.0496 48.8764" stroke="#0012D4" stroke-linecap="round"/>
<path d="M9.65839 37.3736C10.0223 36.9315 10.491 36.4111 10.9088 36.0187C11.7661 35.2136 12.9699 34.1669 13.1922 33.8535C13.5229 33.3871 13.5177 32.4454 13.9598 31.4575C14.69 29.8259 15.8887 28.874 16.3081 28.3505C16.8289 27.7005 17.5053 27.1791 18.4713 26.408C19.033 25.9596 19.7762 25.611 20.1944 25.3242C20.8874 24.849 21.5509 24.4889 21.9421 24.2416C22.0467 24.1755 22.1503 24.1242 22.1777 24.2138C22.2721 24.5226 21.687 25.7824 21.0352 27.3986C20.7905 28.0054 20.7449 28.1886 20.4342 28.7852C19.5897 30.4073 18.8927 31.4782 18.6979 31.6598C18.0005 32.3095 17.5632 32.9634 17.1329 33.3684C16.8498 33.6347 16.546 33.7991 16.0902 34.0859C14.9841 34.3218 13.9629 34.2444 13.8068 34.127C13.7282 34.0871 13.6507 34.0871 13.5709 34.0871" stroke="#0012D4" stroke-linecap="round"/>
<path d="M9.50187 37.2953C9.42362 36.3853 9.32033 35.5504 9.05937 34.4693C8.93194 33.9415 8.4095 33.386 8.09415 32.9927C7.8585 32.6989 7.62543 32.3671 7.48066 31.8206C7.25296 30.9608 7.28582 30.5157 7.07728 29.9684C6.89813 29.4981 6.19345 28.6424 5.5158 27.509C5.11255 26.8345 4.96413 26.4459 4.61435 26.005C3.93719 25.1513 2.93353 24.3613 2.15181 23.814C1.44754 23.3208 1.05239 23.1586 0.739002 23.1191C0.659933 23.1091 0.582892 23.0804 0.542984 23.1187C0.436875 23.2207 0.528899 23.4701 0.800428 24.0785C1.44352 25.5194 2.14477 26.6251 2.44408 27.0027C2.8923 27.5681 3.42182 27.9804 4.43751 29.4124C5.0827 30.322 5.53458 30.8225 6.16097 31.5158C6.50175 31.817 6.76154 32.026 7.0362 32.1562C7.07611 32.2083 7.07611 32.2858 7.07611 32.3656" stroke="#0012D4" stroke-linecap="round"/>
</g>
</svg>
