<svg width="26" height="51" viewBox="0 0 26 51" fill="none" xmlns="http://www.w3.org/2000/svg">
<path d="M4.01081 14.5503C3.546 15.17 3.25491 15.6184 3.15084 15.9302C3.01535 16.3362 2.94191 17.3853 3.00568 18.9338C3.06636 20.4072 3.82692 21.2516 4.13875 21.6808C4.50078 22.1791 5.05154 22.4528 5.81722 22.5701C7.05965 22.7606 8.28406 22.4551 9.10413 22.13C10.5622 21.5519 11.1566 20.6796 11.3519 20.7575C11.8601 20.9602 12.5104 21.7196 13.3054 22.191C14.9142 23.145 16.0316 22.8448 17.1127 22.5987C18.0356 22.3886 19.1069 21.5192 20.1104 20.7375C21.0281 20.0227 21.2243 18.6521 21.2138 17.3724C21.202 15.9441 20.4966 15.6739 20.5338 15.0225C20.5596 14.5691 21.9466 13.8006 23.42 12.7446C24.1787 12.2009 24.3027 11.7348 24.4209 10.878C24.5905 9.6477 24.4083 8.70886 24.2401 8.2421C23.64 6.57711 23.1055 6.17903 22.6364 5.8136C21.8449 5.19705 19.9535 5.31671 19.0247 5.53737C18.7341 5.60641 18.5662 5.7596 18.4101 5.76039C17.8621 5.76313 18.1225 4.74548 17.9402 4.34014C17.7143 3.83801 17.5231 3.31193 17.2234 2.68436C16.9632 2.13948 16.3259 1.64207 15.8673 1.32672C15.6271 1.16153 15.0997 1.11779 14.2812 0.949161C13.1626 0.718714 11.8687 0.465183 10.7482 0.503917C9.74584 0.538564 9.41165 0.959725 9.08535 1.10371C8.88869 1.19048 8.68079 1.3768 8.49847 1.62407C8.22763 1.99139 8.23633 2.96137 8.12013 4.1093C8.07236 4.58119 7.37714 4.32606 6.27263 4.3511C4.57953 4.38948 3.77919 5.00214 3.29521 5.18564C2.81433 5.36796 2.42232 5.67979 1.44537 6.61723C1.10404 6.94475 0.855751 7.29644 0.673427 7.85554C0.471955 8.47336 0.489539 9.40607 0.515362 10.3959C0.544582 11.516 0.984081 12.1214 1.12806 12.5795C1.26357 13.0107 1.73998 13.3749 2.31316 13.7533C2.7908 14.0685 3.40828 14.2889 3.77488 14.3284C3.85352 14.3413 3.93099 14.3671 3.98381 14.4321C4.03663 14.497 4.06245 14.6003 4.08906 14.7068" stroke="#0012D4" stroke-linecap="round"/>
<path d="M10.9751 21.2016C9.75125 21.9567 9.12524 22.4254 8.65574 22.8429C8.25835 23.1962 7.64083 24.2455 6.9757 25.6258C6.69506 26.2082 6.74956 26.6447 6.86576 26.8575C6.98196 27.0703 7.21437 27.0703 7.48903 27.0058C8.65747 26.7311 9.17376 26.1329 9.51297 25.7416C10.0204 25.1563 10.6605 24.5945 10.961 24.073C11.3138 23.4606 11.2615 22.7697 11.3659 22.3378C11.4882 21.8323 11.5745 21.4645 11.731 21.2278C11.9339 20.9208 12.1457 22.2141 12.7338 22.9207C13.2619 23.5553 13.6857 24.3034 14.9608 25.2929C15.6392 25.8194 16.4229 25.9482 17.2195 25.9232C17.4701 25.9153 17.4957 25.5844 17.5348 25.325C17.4965 24.4889 16.9785 23.7635 16.5449 23.2372C16.4792 23.1586 16.4276 23.0811 16.3744 23.0013" stroke="#0012D4" stroke-linecap="round"/>
<path d="M12.4618 21.6711C12.3585 21.9293 12.3053 22.9403 12.3182 24.3867C12.3233 24.9553 12.357 25.1876 12.3445 27.5797C12.3319 29.9719 12.2803 34.5166 12.2279 37.0516C12.1674 39.975 12.0706 40.5278 12.0577 40.853C12.0437 41.2058 11.9923 42.1648 12.0698 43.8938C12.1127 44.8502 12.3022 45.9584 12.4466 46.7757C12.7874 48.7052 12.9047 49.2121 12.9963 49.6053C13.0096 49.6839 13.0096 49.7614 13.0225 49.8529C13.0354 49.9445 13.0612 50.0478 13.0878 50.1542" stroke="#0012D4" stroke-linecap="round"/>
<path d="M12.0706 40.3729C12.2772 39.8549 13.1098 38.5786 13.994 37.4729C14.932 36.3 15.6169 35.6786 15.9542 35.3934C16.5697 34.8728 16.9996 34.375 17.0524 34.231C17.2145 33.7891 16.2726 35.0487 16.0488 35.4419C15.844 35.8019 15.6451 36.7405 15.6048 37.4365C15.5859 37.7626 15.7218 38.0504 15.8516 38.2586C15.9209 38.3696 16.0332 38.4667 16.1639 38.5199C16.2945 38.5731 16.4495 38.5731 16.5939 38.5473C16.8737 38.4973 17.6201 37.7969 18.6495 36.7288C19.0709 36.2915 19.2399 36.0222 19.6687 35.5147C20.0975 35.0073 20.7689 34.2584 21.5408 33.2916C22.3128 32.3248 23.1649 31.1628 23.6556 30.4738C24.6881 29.0239 24.9037 27.8278 24.8391 27.6455C24.6534 27.1211 23.4216 27.6948 22.2107 28.2022C20.7677 28.8069 19.6883 29.1823 19.2086 29.4159C18.3118 29.8526 17.3947 30.2762 16.8607 30.6929C16.4883 30.9834 16.2452 31.3459 15.8947 32.0334C14.8482 34.0855 14.9142 34.5808 14.9005 35.0499C14.9134 35.181 14.9392 35.3101 14.9784 35.467C15.0175 35.6239 15.0691 35.8046 15.2006 35.9126" stroke="#0012D4" stroke-linecap="round"/>
<path d="M11.7576 39.3557C10.7677 38.3916 10.1441 37.8204 9.64639 37.2315C9.55603 37.1246 9.43824 37.113 9.33339 37.1384C8.86779 37.2513 8.44759 37.5293 7.67878 37.5042C7.19836 37.4886 6.20963 36.3907 4.97132 34.9705C4.30301 34.204 4.16808 33.6199 3.97323 32.7251C3.61875 31.0972 3.54129 29.8889 3.59294 29.6283C3.63586 29.4118 4.73226 30.2442 6.25619 31.6511C7.74073 33.0217 8.20815 33.4321 8.52232 33.9286C8.74098 34.2741 9.01726 34.814 9.17493 35.233C9.27939 35.7546 9.38347 36.2241 9.46172 36.5492C9.48832 36.7194 9.48832 36.9002 9.48832 37.0864" stroke="#0012D4" stroke-linecap="round"/>
</svg>
