<svg width="25" height="46" viewBox="0 0 25 46" fill="none" xmlns="http://www.w3.org/2000/svg">
<path d="M13.4702 4.58603C13.2534 4.58603 12.7468 4.72985 12.1105 5.2196C11.3975 5.7684 11.509 8.20552 11.6174 9.19646C11.6924 9.88181 12.2695 10.4304 12.7239 10.7774C13.1901 11.1335 14.0826 11.0144 14.9199 10.87C15.9636 10.6901 16.4817 9.52823 16.7563 9.05482C17.0299 8.58317 17.2466 8.00286 17.3741 7.13231C17.4684 6.48845 17.3207 5.96758 17.1578 5.71372C16.8586 5.24736 16.3052 5.0589 15.688 4.55171C15.2146 4.29621 14.708 4.0783 14.2166 4.09519C14.0891 4.14912 13.9453 4.25699 13.6881 4.36812" stroke="#0012D4" stroke-linecap="round"/>
<path d="M9.54789 1.42634C9.44111 1.49825 8.64356 2.0038 8.13311 2.69512C7.71825 3.25697 7.40583 3.82117 7.04356 4.4019C6.57839 5.14756 6.53419 5.92618 6.38874 6.47259C6.09882 7.56169 6.49497 9.48247 6.64206 10.213C6.83022 11.1475 7.43852 11.9187 7.74904 12.4292C8.09016 12.9899 8.60216 13.3722 9.36321 14.0085C9.85254 14.4176 10.3084 14.6818 10.7448 15.0081C11.2318 15.3724 12.0517 15.3355 13.3738 15.3366C14.4783 15.3375 15.1743 14.7929 15.7921 14.5745C16.559 14.3033 16.9546 13.9213 17.409 13.7028C17.9684 13.4339 18.443 13.0867 19.0068 12.7767C19.4422 12.5373 19.8964 12.287 20.7125 11.6529C21.4747 11.0606 21.4959 10.2909 21.7138 9.45632C21.9718 8.46811 22.0036 7.56922 22.1681 6.87627C22.3031 6.30771 22.2956 5.57099 22.0788 4.71624C21.8867 3.95874 21.3172 3.35484 21.0617 2.84439C20.8075 2.3366 20.3366 2.0452 19.7019 1.55545C18.843 0.892658 18.2665 0.918609 17.0162 0.863587C16.3653 0.834943 15.5818 0.663654 14.6557 0.573222C12.5009 0.362816 11.9841 0.663654 11.4927 0.754087C10.9654 0.808565 10.5307 0.953475 9.91343 1.02647C9.76689 1.06243 9.65902 1.13434 9.32998 1.42634" stroke="#0012D4" stroke-linecap="round"/>
<path d="M12.2717 15.4815C12.1998 15.6973 12.0909 16.132 11.8561 17.3953C11.6818 18.333 11.4415 19.8811 11.2759 21.2529C11.1103 22.6246 11.0384 23.7752 10.9654 24.6196C10.8486 25.9701 10.7464 27.8163 10.7284 29.9938C10.7214 30.8411 10.6745 31.1645 10.6559 32.1402C10.6067 34.7335 10.6734 36.6885 10.7278 37.5019C10.8775 39.736 10.8553 40.393 10.9458 40.9928C11.0464 41.6603 11.0732 42.2452 11.1816 42.7187C11.2541 42.936 11.3271 43.191 11.3816 43.6066C11.4001 43.8785 11.4001 44.274 11.2911 44.5725" stroke="#0012D4" stroke-linecap="round"/>
<path d="M10.6374 33.0233C10.6733 32.8065 10.8902 32.3717 11.3974 31.6287C12.3495 30.2337 13.1412 29.6108 13.65 29.1211C14.2156 28.5767 15.3159 27.5799 16.065 27.1228C16.3009 26.924 16.5199 26.7409 16.7372 26.614C16.8467 26.559 16.9546 26.523 17.0657 26.486" stroke="#0012D4" stroke-linecap="round"/>
<path d="M13.2523 29.4278C13.2523 29.1031 13.4681 28.0179 14.1572 26.5644C14.8505 25.1022 15.4292 24.673 16.5346 23.5486C17.7659 22.296 20.0054 21.9099 20.5501 21.8194C21.0913 21.7296 21.6026 21.692 22.2569 21.5111C22.7529 21.374 23.2021 21.3651 23.456 21.473C24.1642 21.7739 23.6401 22.8512 23.4042 23.7223C23.1977 24.4849 22.9864 25.1393 22.66 25.902C22.3968 26.5172 21.9709 27.1005 21.3537 27.8272C20.9366 28.3182 20.3736 28.9157 18.9784 29.6974C17.7115 30.4074 16.4883 30.1534 15.9599 30.2809C15.412 30.4131 14.745 30.1185 14.2345 29.9551C14.125 29.9006 14.0172 29.8287 13.9077 29.7557C13.7982 29.6827 13.6903 29.6108 13.4702 29.4278" stroke="#0012D4" stroke-linecap="round"/>
<path d="M10.6374 31.8248C10.4195 31.645 10.3476 31.0643 10.2926 29.8865C10.2608 29.2056 10.1297 28.6324 10.0567 28.104C9.96306 27.4264 9.51299 26.8151 9.2041 26.2703C8.87552 25.6908 8.53239 25.1459 7.93423 24.2197C7.36984 23.4004 6.93511 22.9646 6.31788 22.5832C6.17134 22.4917 6.06347 22.4198 5.84338 22.1278" stroke="#0012D4" stroke-linecap="round"/>
<path d="M8.67623 25.5054C7.95495 25.5054 6.50149 25.3616 5.68269 24.9982C5.1605 24.7665 4.57516 24.2742 3.81248 23.4925C3.10277 22.765 2.25006 22.0929 1.74124 21.3684C1.24391 20.6602 1.05156 19.9879 0.759557 19.2432C0.578016 18.7802 0.613558 18.3165 0.523125 17.5386C0.470996 17.0902 0.504603 16.2965 0.648423 15.925C0.792244 15.5535 1.07989 15.6254 1.29997 15.6984C1.96791 15.9199 2.82317 16.242 3.95085 16.588C4.79999 16.8485 5.2594 17.1878 6.00411 17.6045C6.4806 17.8712 7.21841 18.2751 7.92934 19.0918C8.69519 19.9715 8.67623 20.8182 8.78464 21.2725C8.85709 21.5438 8.93009 21.7998 8.98457 22.4487C9.00309 22.9896 9.00309 23.9604 8.89414 24.9606" stroke="#0012D4" stroke-linecap="round"/>
</svg>
