<svg width="16" height="46" viewBox="0 0 16 46" fill="none" xmlns="http://www.w3.org/2000/svg">
<path d="M7.64057 2.15424C6.787 2.26425 6.34698 2.31966 5.72707 2.51155C5.00503 2.73505 4.74737 3.17323 4.36111 3.55866C4.01892 3.90012 3.94673 5.504 4.00091 6.64582C4.01802 7.00652 4.08403 8.37322 4.09768 10.2061C4.10628 11.3619 4.22133 12.0778 4.3454 12.6423C4.51552 13.4164 4.85489 14.3374 5.10302 14.7386C5.41695 15.2461 5.87388 15.6343 6.35649 15.7873C7.08011 16.0168 7.8308 15.4722 8.23194 15.2919C8.9239 14.9809 9.97961 13.9586 10.5466 13.1861C11.7248 11.5808 11.968 11.0059 12.532 9.85083C12.8176 9.26619 13.0432 8.71812 13.1817 8.33145C13.388 7.75576 13.3194 7.06391 13.3339 5.8671C13.3438 5.05338 12.7967 4.30636 12.4531 3.64551C12.2226 3.20244 11.5858 2.87382 11.1165 2.55497C10.3162 2.26507 9.92998 2.12695 9.49162 2.08559C9.16243 2.07153 8.61654 2.07153 8.05412 2.07153" stroke="#0012D4" stroke-linecap="round"/>
<path d="M4.00132 6.37244C3.89214 6.37244 3.61755 6.31785 3.23212 6.2215C2.95587 6.15243 2.67961 6.09702 2.39054 6.04202C2.26524 6.01431 2.18335 5.98701 2.01628 5.95889" stroke="#0012D4" stroke-linecap="round"/>
<path d="M3.50506 4.71824C3.34129 4.60906 3.17753 4.49988 3.02493 4.3754C2.87233 4.25092 2.73586 4.11445 2.63826 4.00321C2.54066 3.89196 2.48607 3.81008 2.42983 3.64301" stroke="#0012D4" stroke-linecap="round"/>
<path d="M4.33216 3.06405C4.19569 2.87299 4.05922 2.68193 3.97527 2.54256C3.89132 2.40319 3.86402 2.32131 3.82267 2.23819C3.78131 2.15506 3.72672 2.07318 3.67048 1.82339" stroke="#0012D4" stroke-linecap="round"/>
<path d="M11.7761 2.98134C11.9671 2.81758 12.1582 2.65381 12.3658 2.52851C12.5734 2.4032 12.7918 2.32132 12.9452 2.25184C13.0986 2.18236 13.1805 2.12778 13.2649 2.07153" stroke="#0012D4" stroke-linecap="round"/>
<path d="M12.8513 4.3874C13.1242 4.27823 13.3467 4.19469 13.539 4.13969C13.6495 4.11198 13.7859 4.08469 13.8972 4.05698C14.0084 4.02927 14.0903 4.00198 14.2574 3.89114" stroke="#0012D4" stroke-linecap="round"/>
<path d="M13.5957 5.8762C13.7322 5.8762 13.8686 5.8762 14.0618 5.8762C14.2549 5.8762 14.5005 5.8762 14.8363 5.79349" stroke="#0012D4" stroke-linecap="round"/>
<path d="M13.6784 7.36496C13.733 7.47414 13.843 7.55767 14.0353 7.61268C14.1457 7.64038 14.2822 7.66768 14.4071 7.68174C14.532 7.6958 14.6411 7.6958 14.7536 7.6958" stroke="#0012D4" stroke-linecap="round"/>
<path d="M13.4303 8.85376C13.4303 9.01753 13.5395 9.26566 13.7595 9.55473C13.8703 9.68003 13.9795 9.76192 14.063 9.84504C14.1465 9.92816 14.2011 10.01 14.3401 10.0944" stroke="#0012D4" stroke-linecap="round"/>
<path d="M5.57281 15.057C6.06494 15.1397 7.11453 15.0305 7.84403 14.7415C9.15392 14.2224 9.87043 12.5261 10.4643 11.7924C11.1501 10.9452 11.5263 9.90583 11.6793 9.07707C11.7898 8.47869 11.7761 7.53536 11.7074 6.80213C11.657 6.26404 11.5015 5.76867 10.6769 4.53008C10.1982 3.81109 9.70997 3.78197 9.26913 3.64343C8.47767 3.39471 7.50492 3.6149 7.1319 3.80761C6.69266 4.03453 6.31886 4.38575 5.90531 5.10037C5.07399 6.53689 5.84576 8.37734 6.1919 9.11388C6.46653 9.69825 6.89452 9.92733 7.36307 10.2313C7.81177 10.5224 8.71249 10.2334 9.2104 9.99888C9.45179 9.8852 9.67937 9.5725 9.91344 9.21478C10.5699 8.21153 10.0673 6.45599 9.94363 6.29098C9.69122 5.95416 9.24183 5.90431 8.74516 5.88984C8.54782 5.88409 8.27661 6.14996 7.94618 6.52133C7.67426 6.82694 7.64057 7.1979 7.65421 7.48697C7.66417 7.69793 7.77786 7.8877 7.90152 8.08041C8.05246 8.21854 8.2733 8.27478 8.52102 8.26114C8.63226 8.24749 8.71414 8.22019 8.79851 8.19207" stroke="#0012D4" stroke-linecap="round"/>
<path d="M7.47515 15.636C7.31138 16.0727 6.92678 17.5259 6.45823 19.4961C6.14184 20.8264 6.2072 21.4232 6.19314 22.9691C6.18131 24.2693 6.26096 26.6166 6.48014 29.8046C6.69933 32.9927 7.08145 36.9504 7.29194 39.0438C7.51359 41.248 7.58515 41.5499 7.6538 41.9758C7.80807 42.9331 7.8887 43.4795 7.95735 43.8935C7.97141 44.2223 7.9987 44.501 8.04006 44.7206C8.05412 44.8583 8.05412 45.0494 8.05412 45.2462" stroke="#0012D4" stroke-linecap="round"/>
<path d="M6.81346 33.9976C7.22619 33.7503 7.50161 33.4203 7.87339 33.1577C8.29031 32.8632 9.04167 32.2921 9.87126 31.5051C10.2255 31.1691 10.3138 30.8282 10.4246 30.6218C10.6649 30.1744 10.0392 28.9341 10.1215 28.1819C10.149 27.9304 10.2319 27.6579 10.3005 27.4921C10.7326 26.4482 10.5346 30.4973 10.6723 30.291C11.0555 29.7167 11.6371 28.9258 11.8708 28.7468C11.9841 28.6599 12.1317 28.6496 12.2293 28.6901C12.3269 28.7306 12.3815 28.8398 12.3823 28.937C12.3876 29.558 11.3096 30.054 10.9502 30.2062C10.8647 30.2424 10.7852 30.3021 10.8113 30.3439C11.0354 30.7033 11.6636 30.3865 12.2289 30.4543C12.4556 30.4815 12.6023 30.6338 12.6855 30.6888C12.6867 30.7165 12.6048 30.7438 12.3852 30.7579C12.1656 30.7719 11.8108 30.7719 11.4452 30.7719" stroke="#0012D4" stroke-linecap="round"/>
<path d="M6.23449 26.5537C6.23367 26.3627 7.05498 25.1013 7.69433 24.3222C8.20378 23.7014 9.01686 22.9161 9.45812 22.4753C10.1958 21.7383 10.7273 21.3446 10.8522 20.9315C11.0767 20.1887 11.1954 19.6094 11.6499 19.0978C11.7803 18.9511 11.9928 18.8369 12.1185 18.8212C12.2442 18.8054 12.2988 18.9146 12.3269 19.0391C12.4335 19.5107 11.9994 20.0709 11.6119 20.5283C11.4413 20.7296 11.2533 20.9832 11.1289 21.2036C10.9881 21.4529 11.6371 21.5349 11.748 21.6593C12.1026 22.0577 10.5652 21.123 10.2058 21.0126C10.1227 20.9848 10.0408 20.9576 9.95769 20.9162C9.87457 20.8748 9.79268 20.8203 9.70832 20.8467" stroke="#0012D4" stroke-linecap="round"/>
<path d="M6.39991 31.1028C6.17991 30.4973 6.01449 30.1119 5.3557 29.0536C4.61652 27.8662 3.8938 27.6041 3.61589 27.1484C3.19237 26.4539 3.75319 25.4553 3.5063 24.8462C3.41089 24.6107 3.12046 24.5141 2.80451 24.4314C2.62876 24.3854 2.40667 24.4032 2.33513 24.4851C1.99415 24.8754 2.75902 25.366 3.07662 25.6567C3.38418 25.9382 3.44965 26.332 3.42276 26.5111C3.34785 27.0101 2.21313 26.4445 1.45385 26.4156C0.829173 26.3918 0.611035 26.7464 0.514264 26.8424C0.46438 26.8918 0.553965 27.0202 0.623028 27.1037C0.898828 27.4373 1.65401 27.3808 2.1664 27.2162C2.26358 27.1608 2.34547 27.1062 2.44224 27.0508C2.53901 26.9954 2.64818 26.9408 2.92609 26.8845" stroke="#0012D4" stroke-linecap="round"/>
<path d="M5.82094 22.0047C5.51822 21.6747 5.24363 21.4538 4.56913 21.0688C4.15004 20.8296 3.80943 20.5175 3.67089 20.1863C3.63709 20.1054 3.61589 20.0213 3.62913 19.9382C3.6883 19.5665 4.02779 19.1131 4.05674 17.8328C4.06338 17.5388 3.97485 17.3762 3.90579 17.2645C3.83673 17.1529 3.75485 17.0983 3.69902 17.1111C3.03672 17.2632 3.64236 19.0519 3.47942 19.8104C2.40336 19.9096 1.88146 19.8542 1.45385 19.8951C1.32648 19.9361 1.38107 20.018 1.60273 20.1023" stroke="#0012D4" stroke-linecap="round"/>
<path d="M5.65552 2.23695C5.62823 1.9913 5.60094 1.74565 5.58687 1.49628C5.57281 1.24691 5.57281 1.00126 5.57281 0.748169" stroke="#0012D4" stroke-linecap="round"/>
<path d="M8.21954 1.9061C8.11036 1.57857 8.02682 1.32796 7.98547 1.13566C7.97141 1.02524 7.97141 0.888768 7.95776 0.777523C7.94411 0.666278 7.91682 0.584395 7.80599 0.500031" stroke="#0012D4" stroke-linecap="round"/>
<path d="M10.0392 1.9061C10.0665 1.85151 10.0937 1.79692 10.2033 1.70056C10.3129 1.6042 10.504 1.46773 10.6707 1.34284C10.8373 1.21795 10.9738 1.10877 11.2798 0.913574" stroke="#0012D4" stroke-linecap="round"/>
</svg>
