<svg width="21" height="51" viewBox="0 0 21 51" fill="none" xmlns="http://www.w3.org/2000/svg">
<path d="M10.5093 14.843C10.3174 14.843 9.87737 14.9522 9.51799 15.1867C9.3307 15.3089 9.21403 15.5312 9.10403 15.8331C8.94021 16.2826 8.99237 16.771 9.10237 17.1014C9.18042 17.3359 9.45968 17.5435 9.85834 17.7503C10.5584 18.1134 11.4141 17.5195 11.8868 17.2288C12.1917 17.0413 12.2181 16.527 12.3012 16.0031C12.3445 15.7301 12.2189 15.5056 12.1366 15.3405C12.0409 15.1487 11.8335 15.0366 11.6275 14.9539C11.3397 14.9258 11.0891 14.8985 10.8695 14.8844C10.7318 14.8976 10.5407 14.9522 10.2611 15.0085" stroke="#0012D4" stroke-linecap="round"/>
<path d="M9.76489 14.7604C9.60029 14.6512 8.99734 13.6107 8.22358 10.94C7.98812 10.1272 7.92045 9.18239 7.85015 8.18573C7.70695 6.15572 7.75255 4.91951 7.71119 4.49397C7.60298 3.38048 7.94361 2.66153 8.90636 1.36587C9.34078 0.781234 10.0097 0.673176 10.7127 0.548284C11.8959 0.338108 12.5737 0.863409 12.9893 1.22196C13.4941 1.65744 13.4868 2.46137 13.5418 3.4237C13.6059 4.54416 13.405 5.87647 13.2809 7.0187C13.184 7.91102 13.1295 8.99133 12.8959 10.3254C12.5381 12.3683 12.4397 12.8564 12.3293 13.2699C12.2743 13.4899 12.2189 13.7116 12.1775 13.9589C12.1635 14.097 12.1635 14.2608 12.0808 14.3468" stroke="#0012D4" stroke-linecap="round"/>
<path d="M8.52423 17.1589C7.53336 17.5162 6.60039 18.0654 5.92093 18.4947C5.58282 18.7083 4.50783 19.4682 3.11623 20.5017C1.97054 21.3525 0.972798 22.3382 0.681244 22.8916C0.281162 23.6509 0.638649 24.7931 0.844597 25.2079C1.23469 25.9935 2.97273 25.7608 4.59054 25.3766C5.07285 25.2621 5.78901 24.6351 6.7257 23.8365C7.6212 23.0731 8.19008 22.3184 8.5507 21.7787C8.89753 21.2597 9.23885 20.7734 9.57051 20.2353C10.0403 19.4756 10.2595 19.091 10.5084 18.6494C10.5639 18.5385 10.6184 18.4294 10.6747 18.3169" stroke="#0012D4" stroke-linecap="round"/>
<path d="M10.7574 18.2342C10.7574 18.4261 11.2487 19.6303 11.79 21.0285C11.8792 21.2589 11.8872 21.402 12.2015 22.1683C12.5158 22.9346 13.1163 24.3266 13.5212 25.1802C14.0673 26.3316 14.3958 26.6698 14.5745 26.8348C15.0103 27.2373 16.8366 27.2496 17.9375 27.0986C18.3878 27.0369 18.8597 26.5631 19.2617 26.1619C19.6588 25.7656 19.662 24.8278 19.6764 24.2464C19.6967 23.4331 18.8101 22.6476 18.1765 22.1513C17.1925 21.3806 16.2477 20.4988 15.804 20C15.5309 19.6932 14.7341 18.9025 14.1498 18.4004C13.6547 17.9885 12.9922 17.326 12.7032 17.0369C12.5779 16.9116 12.496 16.8297 12.2462 16.8281" stroke="#0012D4" stroke-linecap="round"/>
<path d="M10.8401 18.6477C10.7574 19.115 10.6755 19.9653 10.5515 21.6253C10.4704 22.7099 10.5093 24.2952 10.3592 27.7855C10.209 31.2759 9.90879 36.6256 9.83601 40.0912C9.76322 43.5567 9.92699 44.976 10.0114 45.7891C10.147 47.0961 10.233 47.5946 10.2884 48.0355C10.4266 48.6153 10.4539 48.9461 10.4952 49.1934C10.5093 49.3315 10.5093 49.4953 10.5093 49.5813" stroke="#0012D4" stroke-linecap="round"/>
<path d="M10.013 39.2425C10.013 38.8058 10.0403 38.4717 10.4228 37.6375C10.7594 36.9037 11.4604 35.5752 11.8802 34.777C12.4195 33.7514 12.7135 33.3718 13.316 32.8507C14.4872 31.8379 15.4983 31.3305 15.7866 31.2478C15.9608 31.1978 16.2113 31.2196 16.3651 31.3015C16.6495 31.4529 16.6298 32.2618 16.5616 33.4574C16.4817 34.8568 15.9979 36.1492 15.6125 37.0718C15.2156 38.0218 14.6746 38.3592 13.9583 38.8546C13.4474 39.208 12.1734 39.7901 10.5279 39.9733C10.262 39.9596 10.1801 39.9323 10.1243 39.8773C10.0684 39.8223 10.0411 39.7404 10.013 39.6561" stroke="#0012D4" stroke-linecap="round"/>
</svg>
