<svg width="25" height="49" viewBox="0 0 25 49" fill="none" xmlns="http://www.w3.org/2000/svg">
<path d="M12.2541 8.47873C12.1367 9.5373 12.0775 9.88957 12.0042 11.0311C11.8809 12.9528 11.9601 14.3631 11.9014 15.05C11.8552 15.59 11.8427 16.5235 11.8131 17.0766C11.7835 17.6298 11.7544 17.7754 11.7394 19.8899C11.7244 22.0044 11.7244 26.0833 11.7535 28.3885C11.7826 30.6937 11.8409 31.1016 11.8709 33.1909C11.9009 35.2802 11.9009 39.0387 11.8864 41.0768C11.8703 43.3192 11.8126 43.8786 11.7981 44.5103C11.7544 44.9963 11.7244 46.401 11.7244 48.1235C11.7244 48.6514 11.7244 48.4766 11.7244 48.2965" stroke="#0012D4" stroke-linecap="round"/>
<path d="M11.7244 30.639C12.0757 30.0527 12.6637 29.3464 14.132 27.2628C14.6378 26.545 14.8992 25.1475 15.3865 23.9176C15.8569 22.7305 16.6667 21.842 17.0349 21.4147C17.5556 20.8102 18.0493 20.3111 18.594 19.8109C19.0337 19.4072 19.5202 19.0168 20.1232 18.5458C21.4664 17.4966 22.6367 17.0162 23.215 16.7782C23.3144 16.7374 23.4348 16.7195 23.5386 16.7919C24.0941 17.1796 23.9081 18.4482 23.5712 20.4492C23.4087 21.415 22.9387 22.0698 22.5564 22.837C22.1915 23.5694 21.1482 24.4535 20.0605 25.321C19.0965 26.0898 18.3795 26.2228 17.8034 26.4153C16.8503 26.7234 15.6108 27.0774 15.2294 27.1657C15.0228 27.1957 14.7897 27.1957 14.5496 27.1957" stroke="#0012D4" stroke-linecap="round"/>
<path d="M11.7244 21.2804C12.0766 21.0747 12.6037 20.7825 14.3664 19.4317C15.0497 18.9081 15.3424 18.487 15.9149 17.7971C17.2169 16.228 17.5196 15.1639 17.7129 14.4258C17.8478 13.9107 17.8162 13.1915 17.4794 11.458C17.2644 10.3515 16.4672 9.45695 15.9489 8.8332C15.7689 8.61653 15.0846 8.04258 14.1735 7.07318C13.0554 5.88358 12.9904 5.21384 12.7406 3.80609C12.4873 2.37902 12.6072 1.48104 12.534 0.726176C12.521 0.592647 12.519 0.476322 12.4461 0.503691C11.2819 0.94116 10.5802 3.08964 9.87297 3.94338C9.19504 4.7618 8.34294 5.32685 7.6362 6.18015C7.14279 6.77587 6.25582 8.17501 5.91238 9.12322C5.55067 10.1219 5.80908 11.062 5.96977 12.0354C6.12399 12.9696 6.48537 13.7733 6.63192 14.3309C7.00421 15.7471 8.01274 16.8625 8.42681 17.3499C8.91996 17.9303 9.33883 18.1003 9.76526 18.3952C10.5166 18.8075 11.0445 19.2763 11.4582 19.7045C11.5469 19.8078 11.6343 19.9243 11.8126 20.221" stroke="#0012D4" stroke-linecap="round"/>
<path d="M11.9892 17.3958C12.164 17.2793 12.8368 16.8405 13.7779 16.2083C14.2529 15.8384 14.4604 15.6018 14.6074 15.3815C14.667 15.2778 14.6961 15.1904 14.8144 15.1003" stroke="#0012D4" stroke-linecap="round"/>
<path d="M11.5478 14.5706C9.72817 13.5438 8.4895 12.6601 8.12045 12.2032C8.04629 12.0994 7.98802 12.012 7.958 11.8942C7.92799 11.7763 7.92799 11.6306 7.75141 11.304" stroke="#0012D4" stroke-linecap="round"/>
<path d="M12.1658 12.2751C12.3989 12.1003 12.6646 11.8937 12.929 11.6734C13.1352 11.4823 13.3127 11.3339 13.6345 11.0563C13.8689 10.8369 14.2476 10.4581 14.5496 10.0679" stroke="#0012D4" stroke-linecap="round"/>
<path d="M11.9009 10.5976C10.619 9.60705 9.90034 8.98021 9.79748 8.74536C9.72376 8.51052 9.63547 8.30304 9.51805 8.12691C9.4589 8.03818 9.40063 7.95077 9.34059 7.86072" stroke="#0012D4" stroke-linecap="round"/>
<path d="M11.4595 30.639C11.2547 30.5224 10.7267 30.0527 9.85884 28.8048C9.28538 27.9802 8.95919 27.4341 8.5769 26.9326C8.26406 26.5223 8.30939 25.905 8.35486 24.5961C8.37826 23.9225 8.07631 23.5194 7.958 23.063C7.70662 22.0931 7.22345 21.254 6.81159 20.7088C6.2151 19.9192 5.10984 19.3134 3.78376 18.5321C2.29504 17.6549 1.9562 17.251 1.27948 16.8087C1.13429 16.7138 1.04331 16.6613 0.954577 16.6458C0.865847 16.6304 0.778442 16.6595 0.718848 16.7328C0.259814 17.2972 0.658371 18.6866 0.702956 19.2627C0.772453 20.1606 1.36467 21.2487 1.77477 21.9537C2.22736 22.7317 2.9512 23.455 3.64073 24.0717C4.82219 25.1283 5.36587 25.1351 5.83645 25.4287C6.39606 25.7778 6.83675 25.8997 7.23493 26.1354C7.69137 26.3711 8.01539 26.5186 8.19152 26.5773C8.28025 26.6069 8.36766 26.636 8.45771 26.666" stroke="#0012D4" stroke-linecap="round"/>
<path d="M11.9892 35.9362C12.3388 35.4118 12.8394 34.7338 13.5872 33.8972C15.1513 32.1476 16.2835 31.9933 17.2242 32.007C17.4091 32.0097 17.433 32.1381 17.4481 32.2705C17.5161 32.8707 16.7338 34.2764 15.5997 35.5932C14.4171 36.5136 13.4336 37.2588 13.0222 37.5673C12.8438 37.7011 12.7273 37.7885 12.4307 37.9668" stroke="#0012D4" stroke-linecap="round"/>
<path d="M11.9009 36.1128C9.10839 33.4068 8.22463 32.9362 7.79732 32.568C7.24932 32.0959 6.43239 31.935 5.85455 31.9478C5.61272 31.9532 5.72079 32.6952 5.73536 33.3127C5.75537 34.161 6.92504 34.9633 7.46977 35.4634C7.93971 35.8949 8.30939 36.2876 8.88105 36.8164C9.59663 37.3135 10.3674 37.8468 10.9112 38.2582C11.1346 38.4365 11.2511 38.5531 11.5478 38.7614" stroke="#0012D4" stroke-linecap="round"/>
</svg>
