<svg width="27" height="49" viewBox="0 0 27 49" fill="none" xmlns="http://www.w3.org/2000/svg">
<path d="M13.8447 16.4906C13.5969 16.4201 12.958 15.7833 12.6525 15.0863C12.3449 14.3846 12.3491 13.6445 12.2604 12.6857C12.1498 11.4893 12.5243 9.8402 13.0926 8.27562C13.7544 6.454 14.2699 6.12987 14.8928 5.32969C15.4507 4.61289 16.334 4.20687 17.4552 4.13315C17.8107 4.10978 17.9749 4.41733 18.117 4.63046C18.4263 5.09438 18.4386 7.60204 18.2618 9.34663C18.1231 10.7149 17.4429 11.181 16.8564 12.1419C16.253 13.1305 15.7015 14.0975 15.1636 14.8683C14.8436 15.3849 14.3447 15.8838 14.0958 16.1503C13.9879 16.2758 13.9174 16.3816 13.7379 16.5974" stroke="#0012D4" stroke-linecap="round"/>
<path d="M13.8447 15.9564C13.8447 15.1391 14.0563 13.6531 14.7149 11.5474C14.9131 10.5453 15.0541 9.79957 15.2854 9.15911C15.3757 8.90645 15.4109 8.80068 15.4472 8.69171" stroke="#0012D4" stroke-linecap="round"/>
<path d="M18.5454 7.94388C18.7217 7.34027 19.4321 6.84136 20.1089 6.53849C20.8092 6.22512 22.4865 6.23454 24.355 6.19929C25.2776 6.18188 25.5954 5.95037 25.8085 5.82591C25.9123 5.76531 26.0216 5.7367 25.8822 5.91244C24.9266 7.11706 24.4939 7.83277 24.4036 8.54695C24.3348 9.09162 23.9961 10.0036 23.5858 10.9678C23.3635 11.4903 23.1051 11.9651 22.2525 13.3513C21.7197 14.2176 21.0411 14.5654 20.3819 15.1706C19.7518 15.7491 18.7634 16.0974 18.0139 16.4537C17.2656 16.6326 16.7303 16.7395 16.1118 16.7929C15.599 16.8111 14.6823 16.8111 13.7379 16.8111" stroke="#0012D4" stroke-linecap="round"/>
<path d="M13.8447 6.34139C13.7742 6.34139 13.8084 6.12986 13.9334 5.57807C14.008 5.24886 13.9163 4.91837 13.7748 4.61657C13.4267 3.87439 12.4965 3.60218 11.817 3.35059C11.1836 3.11602 10.4645 2.92272 10.0003 2.71012C9.53281 2.49599 9.28723 2.17596 9.14514 2.08621C8.66198 1.78106 8.75306 3.3821 8.61044 4.14863C8.50108 4.73639 8.36205 5.80081 8.23598 8.94653C8.17726 10.4119 8.78511 11.4609 9.17826 12.3396C9.52764 13.1205 10.597 14.0975 11.2791 14.6733C11.7423 14.9938 12.3106 15.4906 12.8101 15.9014C12.9527 16.0258 13.129 16.2021 13.3106 16.3837" stroke="#0012D4" stroke-linecap="round"/>
<path d="M13.0969 3.7774C13.2743 3.20904 13.911 2.42916 14.8735 1.6434C15.8756 0.825426 16.5134 0.822385 17.3313 0.59109C17.7177 0.481802 18.1512 0.465561 18.6309 0.571326C19.5817 0.78097 19.7184 1.7091 20.1287 2.52798C20.3968 3.09901 20.5037 3.56266 20.5571 4.11072C20.5753 4.55301 20.5753 5.32862 20.5753 6.12773" stroke="#0012D4" stroke-linecap="round"/>
<path d="M13.3106 16.7042C13.098 16.9873 12.8127 17.6273 11.8016 19.5802C11.5246 20.115 11.3555 20.5417 11.0179 21.8525C10.6803 23.1634 10.1868 25.3492 9.9325 26.581C9.67824 27.8128 9.67824 28.0243 9.60773 28.7502C9.53722 29.4762 9.3962 30.7101 9.32355 32.1566C9.25091 33.6031 9.25091 35.2249 9.35667 36.8359C9.46244 38.447 9.67397 39.9982 9.87108 41.0793C10.3148 43.5134 10.7444 44.4745 10.9773 45.4392C11.2444 46.2244 11.5286 47.0043 11.7075 47.7548C11.7433 47.8985 11.7786 48.0043 11.8149 48.2201" stroke="#0012D4" stroke-linecap="round"/>
<path d="M9.46457 37.1094C9.81712 36.1885 10.8149 34.9044 11.7572 33.7848C12.9267 32.3952 14.3362 31.4537 15.0183 31.0028C15.1257 30.9494 15.2314 30.8789 15.3388 30.825C15.4462 30.771 15.5519 30.7357 15.6609 30.5926" stroke="#0012D4" stroke-linecap="round"/>
<path d="M10.4261 34.7591C10.9229 33.3393 11.3513 32.1267 12.4335 30.0135C12.9888 28.9293 13.5221 28.4944 14.0205 28.066C14.7894 27.405 16.2186 26.6461 17.1726 26.1953C17.6988 25.9467 19.2441 25.2915 20.306 24.9309C21.3701 24.5697 22.604 24.8941 22.7819 25.0538C23.1146 25.3525 23.1029 25.9603 23.0687 27.1509C23.0307 28.4746 21.9299 28.9879 21.4321 29.6994C21.0097 30.303 20.6137 30.8383 19.7238 31.7822C19.2618 32.2721 18.8681 32.5861 17.8376 33.1539C16.7115 33.7745 15.631 34.4364 14.7202 34.6517C13.967 34.8298 13.2422 34.8296 11.3593 34.8483C10.9613 34.8307 10.8555 34.7954 10.7482 34.7596C10.6408 34.7238 10.535 34.6886 10.3192 34.6522" stroke="#0012D4" stroke-linecap="round"/>
<path d="M4.01607 25.0372C4.51391 25.6772 4.93911 26.1034 6.41394 28.0916C7.34877 29.3518 8.35564 30.975 8.71621 31.8901C8.85883 32.5145 8.96566 32.8703 9.03671 33.1368C9.0725 33.2623 9.10775 33.3681 9.25091 33.6907" stroke="#0012D4" stroke-linecap="round"/>
<path d="M7.32791 29.8447C7.43368 29.5969 7.78943 28.817 7.80919 25.1943C7.8196 23.2868 6.97322 22.4754 6.67035 21.8702C6.40345 21.3368 5.72968 20.8387 5.29914 20.3205C4.94785 19.8978 4.48187 19.5909 3.89375 19.0033C3.27528 18.3854 2.52254 17.952 2.20097 17.5429C2.11197 17.4296 2.05888 17.2769 1.9168 17.2747C1.53692 17.269 1.27473 17.6999 1.15026 18.037C0.715694 19.2139 0.597402 21.1122 0.50873 21.8659C0.408028 22.7218 1.19994 24.4924 1.62888 25.5335C1.90161 26.1954 2.51827 27.0991 3.14111 27.9896C3.67158 28.748 4.43913 29.2721 4.97597 29.5413C5.40384 29.8084 5.75959 29.9868 6.20242 30.0402C6.50422 30.0584 6.96254 30.0584 7.43474 30.0584" stroke="#0012D4" stroke-linecap="round"/>
</svg>
