<svg width="21" height="48" viewBox="0 0 21 48" fill="none" xmlns="http://www.w3.org/2000/svg">
<path d="M7.06157 7.38616C6.95474 6.60627 7.02525 5.67896 7.15024 4.68434C7.30673 3.43912 7.55942 2.72395 8.02094 1.86981C8.4425 1.08963 9.08927 0.76462 9.53477 0.566444C10.7259 0.0365612 11.6533 2.86069 11.9919 3.48353C12.699 4.78396 12.9716 5.31786 13.2392 5.79968C13.3053 5.9187 13.3284 6.0657 13.4171 6.05021C14.1839 5.91624 14.6083 4.71959 15.1964 4.00541C15.7224 3.36668 16.3539 3.07863 17.5617 2.40345C18.1325 2.08437 18.5269 1.9024 18.723 1.90186C19.0887 1.90087 18.4222 2.82437 18.2972 3.60853C18.2069 4.17542 18.1723 5.24094 18.2609 6.59559C18.3762 8.3568 18.2438 9.62859 18.0847 10.1414C17.4429 12.2086 16.9629 12.9735 16.6248 13.5446C16.1106 14.4128 15.6104 14.7919 15.2536 15.1834C14.8109 15.6692 14.0463 16.1786 13.2958 16.6438C12.8449 16.9233 12.228 16.9648 11.6752 17.1075C10.8272 17.3262 9.37986 17.1443 8.64912 17.0017C7.91735 16.8589 7.49104 16.6465 7.02792 16.3436C6.29223 15.8625 5.60436 15.1871 5.0515 14.7416C4.4987 14.2962 4.1087 13.621 3.76843 13.0681C3.49604 12.6255 3.35873 12.089 3.2161 11.3951C3.08875 10.7755 3.03822 10.0591 2.96665 9.48971C2.86951 8.717 2.61089 8.17245 2.3796 7.49566C2.16233 6.85992 1.89938 6.35628 1.52546 5.98076C1.08031 5.5337 0.652633 5.1074 0.598148 5.03636C-0.126461 4.09152 3.4271 4.9995 4.03231 5.24842C4.78272 5.55706 5.81162 6.34987 6.29451 6.76172C6.38425 6.85092 6.45476 6.95669 6.54396 7.04643C6.63317 7.13617 6.73894 7.20668 7.06157 7.27932" stroke="#0012D4" stroke-linecap="round"/>
<path d="M10.8007 13.3688C10.6597 12.558 10.5187 11.7471 10.4284 11.2589C10.3381 10.7706 10.3029 10.6296 10.0529 10.2707" stroke="#0012D4" stroke-linecap="round"/>
<path d="M14.0057 11.5527C14.1468 11.2354 14.2878 10.9181 14.3957 10.6665C14.5036 10.4149 14.5741 10.2386 14.7162 10.0421C14.8583 9.84549 15.0698 9.63396 15.3946 9.41602" stroke="#0012D4" stroke-linecap="round"/>
<path d="M7.70257 12.4073C7.42053 11.8433 7.13849 11.2792 6.95794 10.9357C6.77739 10.5922 6.70688 10.4865 6.63423 10.3775" stroke="#0012D4" stroke-linecap="round"/>
<path d="M11.7622 17.6422C11.9385 18.1368 12.3669 19.2767 12.4209 20.2201C12.4774 21.2081 12.6874 22.0523 12.7414 24.9138C12.7526 25.5106 12.7942 25.6867 12.8124 26.7647C12.8306 27.8426 12.8306 29.8169 12.8129 30.9221C12.7772 33.1623 12.6532 35.0176 12.5817 36.1014C12.5569 36.4767 12.4759 36.9342 12.4396 38.5805C12.4032 40.2268 12.4032 43.0472 12.3856 44.553C12.368 46.0588 12.3327 46.1646 12.3146 46.3248C12.2964 46.4851 12.2964 46.6966 12.1896 46.7009" stroke="#0012D4" stroke-linecap="round"/>
<path d="M12.9374 24.8C13.15 24.2327 13.9288 22.815 14.6094 21.9353C15.0803 21.3264 15.8198 20.5651 16.5308 19.9065C17.5403 18.9713 18.309 18.2533 18.9185 17.7501C19.018 17.6679 19.1316 17.608 19.2214 17.7127C19.8109 18.4005 19.7384 19.2767 19.7571 21.6746C19.7651 22.7014 19.5269 23.6184 19.1706 24.7252C18.8297 25.7842 17.7471 27.1461 17.2129 27.9666C16.7451 28.6851 16.0377 29.0712 15.5746 29.3217C14.9331 29.678 14.3647 29.9622 13.9005 30.2298C13.7931 30.2838 13.6874 30.319 13.3647 30.3554" stroke="#0012D4" stroke-linecap="round"/>
<path d="M12.8306 28.7529C12.2975 27.864 11.3776 26.5905 10.3419 25.4805C8.91394 23.9502 8.23887 23.4838 7.54499 23.0389C7.06738 22.7326 6.45903 22.5928 5.99483 22.5383C5.37232 22.4653 5.5659 24.6099 5.76087 25.7588C5.91461 26.6649 6.77098 28.5627 7.36284 29.623C7.70121 30.2292 8.16195 30.9558 8.69772 31.7415C9.21005 32.4929 9.73027 32.9172 10.0871 33.3627C10.6565 33.8798 11.2259 34.165 11.6538 34.3963C11.7612 34.4503 11.8669 34.4855 12.1896 34.6287" stroke="#0012D4" stroke-linecap="round"/>
</svg>
