<svg width="28" height="44" viewBox="0 0 28 44" fill="none" xmlns="http://www.w3.org/2000/svg">
<path d="M17.3921 8.932C15.6913 8.50466 13.1978 8.71619 12.1605 8.91383C11.3154 9.07485 10.0997 9.49821 9.36359 9.80376C8.82608 10.0269 8.27923 10.355 7.65479 10.7466C6.98861 11.1643 6.42674 11.5302 5.94492 11.7978C5.39289 12.1044 4.57638 12.3849 3.89799 12.6701C2.70363 13.1723 1.11925 12.7791 0.870328 12.5307C0.0717555 11.7338 0.760289 9.79094 1.11658 8.98808C1.37571 8.40416 1.7923 7.68845 2.0252 7.22426C2.32646 6.6238 3.14481 5.90861 3.89265 5.10682C4.57206 4.37839 5.45883 3.77194 6.02985 3.32484C6.80196 2.7203 7.45234 2.31046 8.45016 1.7405C9.07811 1.38182 9.69798 1.2058 10.3732 0.902927C11.5772 0.362829 12.3667 0.528476 14.943 0.50978C15.8634 0.5031 16.499 0.669496 17.1224 0.741074C18.602 0.910977 20.627 1.77202 21.5202 2.11121C22.1415 2.34719 23.7167 3.93219 24.5847 4.99518C25.044 5.5577 25.5093 6.36372 25.9725 7.09499C26.5872 8.06576 26.7208 8.60936 26.8821 9.32087C27.0246 9.94921 26.9366 10.6734 26.7764 11.2268C26.4998 12.182 25.4431 12.8827 24.8726 13.169C24.39 13.4112 22.924 13.3122 21.8636 13.2059C21.1986 13.1392 20.2125 12.887 19.087 12.6717C18.4579 12.5514 17.469 12.387 16.2746 12.1557C15.3383 11.9744 14.4051 11.9597 12.8223 11.9586C11.2405 11.9575 9.66806 13.0622 9.11467 13.2935C7.49298 13.9713 4.78791 13.3485 4.25374 13.2945C4.11059 13.2769 3.96957 13.2417 3.84404 13.2059C3.71851 13.1701 3.61274 13.1348 3.50377 13.0985" stroke="#0012D4" stroke-linecap="round"/>
<path d="M25.5115 7.009C25.0852 7.15002 24.6589 7.50685 23.965 7.5608C23.2327 7.61774 22.2381 7.79102 21.8091 8.2002C21.6016 8.3982 21.6655 8.89355 21.7007 9.37376C21.7453 9.98128 22.518 10.1777 23.0345 10.5153C23.5863 10.9597 24.0863 11.6007 24.2289 12.0286C24.2647 12.1359 24.3 12.2417 24.4431 12.4575" stroke="#0012D4" stroke-linecap="round"/>
<path d="M14.1871 0.812653C13.9029 1.13208 13.6893 1.55835 13.6706 2.69559C13.6664 2.94883 13.7235 3.05402 13.7945 3.12613C13.9397 3.27349 14.3976 3.26982 14.896 3.3227C15.1627 3.35101 15.2544 3.69609 15.4675 3.89159C16.0181 4.39664 17.0706 4.08923 17.2837 3.96531C17.8203 3.65331 18.031 3.19931 18.4589 3.05669C18.922 2.94932 19.6314 2.73779 20.3455 2.32755C20.4892 2.23781 20.595 2.1673 20.9176 2.09465" stroke="#0012D4" stroke-linecap="round"/>
<path d="M5.96094 5.40652C5.60518 5.72595 5.46309 6.22272 5.28522 6.66929C5.08066 7.18281 4.25374 7.25687 3.87875 7.77234C3.6779 8.04845 3.85952 8.39678 3.98345 8.60992C4.33822 9.22007 5.21097 9.14569 5.56672 9.0928C6.05483 9.02025 6.03145 8.22265 6.67031 7.52769C7.10233 7.05774 7.77497 7.25901 8.20284 7.08113C8.45854 6.97483 8.63071 6.68959 8.77333 6.45883C8.84184 6.34797 8.77493 6.19281 8.70389 6.08491C8.42526 5.66173 7.81557 5.54967 7.2627 5.40705C7.13717 5.37126 7.03141 5.33601 6.85353 5.31784C6.67565 5.29968 6.42887 5.29968 6.1746 5.29968" stroke="#0012D4" stroke-linecap="round"/>
<path d="M14.0803 11.9233C14.0803 11.9586 14.0803 11.9938 14.0274 14.6209C13.9745 17.2479 13.8687 22.4657 13.7966 25.2946C13.7245 28.1236 13.6893 28.4056 13.6711 29.0797C13.6245 30.811 13.6882 32.1127 13.7416 32.7153C13.896 34.457 13.8666 35.8092 13.9553 36.7413C14.0668 37.914 14.0803 38.7685 14.1689 39.4837C14.2576 40.5878 14.436 41.2652 14.4894 41.7085C14.5076 41.9756 14.5076 42.3281 14.6144 42.5845" stroke="#0012D4" stroke-linecap="round"/>
<path d="M13.8666 28.9099C13.7961 28.9451 13.7256 28.9804 13.7245 28.9457C13.699 28.1173 15.1828 27.3095 16.0877 26.1023C17.3371 24.4355 18.2083 23.643 18.9727 22.6473C20.3485 20.8552 21.3749 20.438 22.1617 20.0438C22.661 19.7936 23.2295 19.5812 24.3849 19.3136C24.9294 19.1874 25.6845 19.188 26.45 19.2585C26.7297 19.2843 26.7571 19.4701 26.7753 19.7014C26.8802 21.0367 26.1546 22.2477 25.7273 22.8887C24.9586 24.0417 23.9474 24.4912 23.1125 25.043C21.2423 26.2791 20.8129 26.4869 20.1014 26.6482C19.4946 26.7016 17.9391 26.7732 16.9664 26.5782C16.859 26.5243 16.7533 26.489 16.4306 26.4527" stroke="#0012D4" stroke-linecap="round"/>
<path d="M13.2256 32.649C12.5857 32.1875 12.2299 31.6192 11.8742 30.6416C11.3611 29.2319 10.0655 28.1001 9.1152 27.309C8.2582 26.5955 7.35192 26.2753 6.74724 26.0264C5.81888 25.6443 5.21525 25.457 2.42903 25.4196C1.57852 25.4082 1.22609 25.6685 0.994791 25.8283C0.890356 25.9004 0.869261 26.0232 0.886355 26.2011C0.979475 27.1701 1.897 28.1919 2.80508 29.1198C4.35232 30.7007 5.42464 31.4012 5.95881 31.6688C6.52804 31.954 7.41602 32.1491 8.16652 32.2393C9.08903 32.3285 10.5163 32.258 11.0158 32.0978C11.1584 32.0444 11.3347 31.9738 11.8368 31.9012" stroke="#0012D4" stroke-linecap="round"/>
</svg>
