<svg width="28" height="46" viewBox="0 0 28 46" fill="none" xmlns="http://www.w3.org/2000/svg">
<path d="M14.0175 10.4667C13.6661 10.2151 13.014 10.1645 12.533 10.2646C11.7056 10.4368 11.0976 11.4461 10.7693 12.1761C10.2435 13.3449 10.5913 14.041 10.968 14.8968C11.0925 15.1795 11.2963 15.3521 11.4471 15.5784C11.749 16.0317 13.2528 15.9831 14.1289 15.8327C14.5519 15.7601 15.3218 15.306 15.9304 14.525C16.3109 14.0369 16.1076 13.3655 16.0581 12.849C16.0219 12.4709 15.7071 11.9312 15.3286 11.4631C15.0865 11.1638 14.7248 10.8718 14.3964 10.6311C14.2457 10.568 14.0689 10.5174 13.8679 10.4796C13.7666 10.4667 13.6669 10.4667 13.5641 10.4667" stroke="#0012D4" stroke-linecap="round"/>
<path d="M14.0175 10.0889C13.917 9.96423 13.8663 9.06273 14.2925 7.23667C14.598 5.92785 15.4019 5.00331 15.7291 4.44866C16.0625 3.88334 16.6351 3.18973 17.0511 2.82323C17.6979 2.25339 19.0003 2.0789 19.7953 2.29162C20.9371 2.59717 21.1706 3.78972 21.3466 4.21818C21.586 4.80077 21.5741 5.72573 21.6236 6.22144C21.7022 7.00916 23.1821 6.71262 24.0648 7.25292C24.7315 7.66109 24.7977 8.87532 24.7736 9.53199C24.7339 10.609 24.3202 10.9186 24.0689 11.2337C23.7409 11.6452 23.164 12.0264 22.7091 12.292C22.1888 12.5958 21.5756 12.8335 20.8218 13.098C20.0666 13.363 19.5867 13.3126 19.1703 13.4134C18.228 13.4894 17.2683 13.4395 16.9657 13.3386C16.8898 13.3133 16.8149 13.2884 16.6623 13.3383" stroke="#0012D4" stroke-linecap="round"/>
<path d="M13.1863 15.9831C12.986 16.107 12.5334 17.1604 12.4805 19.1618C12.447 20.4263 12.9837 20.8919 13.2357 21.4095C13.4195 21.7869 13.688 22.1523 13.9536 22.4806C14.3062 22.9165 15.222 23.3614 15.7162 23.6145C16.21 23.8675 17.2835 23.9175 18.0833 23.8049C18.8381 23.6987 19.1288 23.2888 19.507 22.9869C20.0552 22.5494 20.4134 22.0072 20.5789 21.4261C20.6955 21.0168 20.5419 20.6689 20.566 20.6055C20.906 19.713 23.1791 19.9669 23.9148 19.2728C24.5312 18.6912 24.37 17.777 24.2949 17.1936C24.2439 16.798 23.968 16.3639 23.3148 15.6204C22.9756 15.2344 22.159 14.9025 21.5012 14.5488C20.2705 13.8872 19.4854 13.7418 19.0067 13.6409C18.2779 13.565 17.4693 13.54 17.1811 13.5022C16.9925 13.4894 16.7182 13.4894 16.4356 13.4894" stroke="#0012D4" stroke-linecap="round"/>
<path d="M10.4659 12.9604C10.1152 12.8101 9.36109 12.6582 8.29258 12.5954C6.36515 12.4823 5.80797 12.708 5.09085 12.8089C4.63499 12.873 3.94753 13.2355 3.27688 13.7138C2.34003 14.382 2.25485 14.9236 2.09125 15.2637C1.70308 16.0705 2.1022 17.3659 2.37915 17.8454C2.673 18.3541 3.41101 18.7019 4.17763 19.0299C4.72125 19.2625 5.25029 19.0065 5.45205 18.943C5.73633 18.8536 5.22762 19.6828 5.11352 20.2752C5.03059 20.7058 5.12561 21.0453 5.25067 21.2584C5.65308 21.944 6.13139 22.0526 6.92295 22.2921C8.02273 22.6249 8.72331 22.0299 9.36827 21.5266C9.81304 21.1796 10.0367 20.7453 10.3136 20.4301C10.6168 20.0852 10.8422 19.713 11.1324 19.1965C11.3236 18.8562 11.5722 18.3045 11.8253 17.723C11.9258 17.4717 12.0769 17.1188 12.2281 16.704C12.2795 16.5136 12.2795 16.3639 12.355 16.2853" stroke="#0012D4" stroke-linecap="round"/>
<path d="M10.2392 12.5826C9.83716 12.4572 9.08603 12.2063 7.67484 11.6777C7.00014 11.425 6.33845 11.1982 5.56918 10.6077C5.13811 10.2768 5.0508 9.61285 4.81201 9.03326C4.57943 8.46874 4.57171 7.20229 4.77196 6.08693C4.9205 5.25961 5.52687 5.0275 5.9678 4.72485C6.76679 4.17644 7.89587 4.52196 7.97181 4.48493C8.5847 4.18611 7.87093 2.91315 7.99675 2.52097C8.1309 2.10281 8.57521 1.92928 9.15291 1.57677C10.3564 0.842412 11.7928 0.594785 12.6426 0.504483C13.1155 0.454225 13.4613 0.842642 13.7896 1.12073C14.1475 1.42378 14.3681 2.14994 14.4833 3.04577C14.5751 3.75941 14.4966 4.87183 14.2831 5.53908C13.9012 6.73264 13.8165 7.24007 13.7783 7.97042C13.7152 8.5247 13.6653 9.23049 13.5395 9.62154C13.4893 9.71033 13.4145 9.78514 13.3374 9.86222" stroke="#0012D4" stroke-linecap="round"/>
<path d="M10.8437 8.42646C10.8437 8.37659 10.8437 8.32671 10.8312 8.3509C10.7938 8.47482 10.7681 8.80203 10.7557 9.17948C10.7432 9.3325 10.7183 9.40731 10.6926 9.55995" stroke="#0012D4" stroke-linecap="round"/>
<path d="M16.7379 10.4667C16.762 10.3919 17.1142 10.0904 17.492 9.80025C17.693 9.6869 17.8706 9.56071 18.0213 9.42242C18.0973 9.35895 18.1721 9.30907 18.3247 9.25769" stroke="#0012D4" stroke-linecap="round"/>
<path d="M16.2089 16.2853C16.184 16.2853 16.159 16.2853 16.0714 16.5846C15.9837 16.8838 15.8341 17.4823 15.7445 17.8779C15.655 18.2735 15.6301 18.448 15.6044 18.5523" stroke="#0012D4" stroke-linecap="round"/>
<path d="M10.0125 15.7564C10.0125 15.7314 10.0125 15.7065 9.92518 15.8059C9.8379 15.9052 9.66334 16.1297 9.49861 16.3201C9.33388 16.5105 9.18425 16.6602 8.87897 16.8899" stroke="#0012D4" stroke-linecap="round"/>
<path d="M12.7328 16.8899C12.6323 16.9896 12.3822 17.7407 12.0913 19.8007C11.9682 20.6725 12.0528 21.977 12.0652 22.7447C12.0777 23.5125 12.1026 23.712 12.1155 24.6875C12.1283 25.6631 12.1283 27.4087 12.1158 28.3827C12.0969 29.8613 12.0029 30.6142 11.9647 32.0356C11.9339 33.1817 11.9515 34.6464 12.0524 35.2627C12.1295 35.7338 12.2039 37.0313 12.2666 37.9199C12.3306 38.8268 12.355 39.5794 12.4177 40.1374C12.4882 40.7644 12.556 41.4202 12.6444 42.1139C12.7261 42.7548 13.0079 43.6101 13.2735 44.105C13.4114 44.2932 13.5134 44.4708 13.5637 44.5467C13.589 44.5478 13.6139 44.473 13.6396 44.396" stroke="#0012D4" stroke-linecap="round"/>
<path d="M12.355 36.3104C12.4298 36.16 12.6815 35.8585 13.0336 35.5434C13.4132 35.2037 13.6638 34.9517 14.0783 34.5742C14.8106 33.9073 15.1993 33.5416 15.5526 33.2635C15.989 32.92 16.4326 32.5593 16.912 32.1811C17.7444 31.626 18.1464 31.3744 18.4747 31.1851C18.5507 31.1469 18.6255 31.122 18.7026 31.0207" stroke="#0012D4" stroke-linecap="round"/>
<path d="M14.4709 34.0434C14.3953 33.5688 14.5948 32.1104 14.8854 31.4511C15.2429 30.6398 15.4019 30.2923 15.8167 29.8763C16.2335 29.4584 16.4598 29.1331 16.8244 28.818C17.617 28.1329 18.8522 27.5704 19.6676 27.2065C21.3313 26.4641 21.8749 26.6636 22.3653 26.5752C23.098 26.4431 24.1615 26.4868 25.0713 26.4241C25.4213 26.3999 26.0204 26.4112 26.3163 26.486C26.6121 26.5608 26.5872 26.7104 26.5494 26.8374C26.3375 27.5495 25.9585 28.5497 25.5564 29.3662C25.0311 30.4331 24.2718 31.3449 23.7194 31.9982C23.1234 32.703 22.2338 33.3346 21.4411 33.9009C20.7512 34.3939 20.3167 34.5467 19.9759 34.7227C19.5454 34.9451 18.7827 35.1255 17.1969 35.1644C16.6314 35.1783 16.286 34.9759 15.9335 34.7375C15.6331 34.4499 15.3286 34.2202 15.1022 34.1322C15.0006 34.094 14.9258 34.0691 14.6976 34.0434" stroke="#0012D4" stroke-linecap="round"/>
<path d="M12.1283 39.333C12.1283 38.8834 12.0785 37.8746 11.8775 37.1072C11.6355 36.1837 11.3984 35.7587 11.0353 35.1674C10.1206 33.678 9.28402 33.5416 8.83025 33.2382C8.5107 33.0246 7.47648 32.786 6.40117 32.5578C5.69498 32.4079 5.17927 32.4565 4.5362 32.3938C4.11935 32.3531 3.61807 32.3054 2.76115 32.155C2.17912 32.0529 1.60197 31.7024 1.23547 31.5626C1.05926 31.4953 0.869731 31.5248 0.76885 31.5618C-0.160444 31.9029 1.59743 34.1401 1.85058 34.8346C2.09771 35.5125 2.72941 36.7577 3.19755 37.417C3.47175 37.8032 3.96416 38.1723 4.73267 38.6261C5.21276 38.9096 5.55257 39.1305 5.91793 39.3198C6.22392 39.4783 6.68455 39.6096 7.12699 39.6478C7.50142 39.68 8.24423 39.936 8.8771 40.0758C9.32246 40.1742 10.5807 40.1642 11.6474 39.9262C11.8192 39.8879 11.9243 39.7381 11.9387 39.6617C12.026 39.1977 10.8225 38.8071 10.3914 38.3646C10.0888 38.0741 9.68755 37.7733 9.40871 37.445C9.35808 37.3691 9.3082 37.2942 9.40795 37.1416" stroke="#0012D4" stroke-linecap="round"/>
</svg>
