<svg width="27" height="48" viewBox="0 0 27 48" fill="none" xmlns="http://www.w3.org/2000/svg">
<path d="M14.6274 8.19211C13.8817 8.22737 12.8882 8.51047 11.853 9.39933C11.2807 9.89073 11.3156 10.8929 11.4395 11.8212C11.5509 12.6553 12.4502 13.3864 13.1649 13.8532C13.798 14.2667 15.5035 14.1748 16.9212 13.9622C17.6323 13.8555 18.044 13.0381 18.2416 12.4329C18.596 11.3476 18.0119 10.583 17.443 9.31814C17.1778 8.72835 16.6594 8.54893 16.0542 8.30001C15.8047 8.15792 15.5195 8.05002 15.129 7.99661C14.9148 7.97844 14.668 7.97844 14.2001 8.08528" stroke="#0012D4" stroke-linecap="round"/>
<path d="M13.4523 14.2816C12.3497 15.7046 11.7109 16.4845 11.1927 17.0929C10.6116 17.7753 9.96522 18.5507 9.34131 19.2649C9.14474 19.5143 8.89582 19.7996 8.61111 20.1195C8.50267 20.2632 8.46741 20.369 8.43109 20.5848" stroke="#0012D4" stroke-linecap="round"/>
<path d="M15.0548 14.709C14.9843 15.4141 14.9479 16.7292 14.9832 18.383C15.2321 20.1553 15.4458 20.9373 15.801 22.0399C15.9084 22.3967 16.0141 22.8197 16.1231 23.3625" stroke="#0012D4" stroke-linecap="round"/>
<path d="M17.4051 14.068C17.7576 15.0551 18.045 15.8457 18.2934 16.4493C18.6123 17.1234 18.8997 17.5924 19.3949 18.211C19.7843 18.7238 20.4541 19.6404 21.2511 20.6916" stroke="#0012D4" stroke-linecap="round"/>
<path d="M18.3666 12.5723C19.576 12.9633 20.0738 13.2475 20.6609 13.4617C21.5342 13.7827 22.9498 14.2774 24.4326 14.584C24.877 14.6021 25.5116 14.6021 25.8449 14.6021" stroke="#0012D4" stroke-linecap="round"/>
<path d="M18.6871 10.6493C20.0973 10.2967 20.9648 10.0799 21.8836 9.76204C22.6613 9.47946 24.0715 8.95064 24.9566 8.6077C25.8417 8.26477 26.159 8.12375 26.2723 7.97845" stroke="#0012D4" stroke-linecap="round"/>
<path d="M17.8324 8.72627C18.5375 7.80964 19.4296 6.77336 20.3542 5.61902C21.2864 3.67092 21.499 3.17307 21.6955 2.55023C21.7489 2.38891 21.8195 2.24789 21.6784 2.1026" stroke="#0012D4" stroke-linecap="round"/>
<path d="M15.0548 7.7648C15.1969 6.3781 15.2684 5.032 15.1798 3.86912C15.0911 2.56949 14.8774 1.42957 14.7348 0.911431C14.699 0.786436 14.6638 0.645416 14.6274 0.500122" stroke="#0012D4" stroke-linecap="round"/>
<path d="M13.2386 8.0853C12.3861 5.91765 11.463 4.28203 10.8012 3.47597C10.2695 2.82845 10.1062 2.03425 9.71469 1.49902C9.60733 1.39111 9.50156 1.3206 9.41182 1.35479C9.32208 1.38898 9.25157 1.53 9.17892 1.67529" stroke="#0012D4" stroke-linecap="round"/>
<path d="M11.5293 10.222C9.89258 8.12162 8.90116 7.27337 7.84778 6.46731C7.51019 6.30652 7.01662 6.13025 6.70947 6.02181C6.40233 5.91338 6.29656 5.87812 6.18759 5.8418" stroke="#0012D4" stroke-linecap="round"/>
<path d="M11.4224 11.2903C10.0122 11.1493 8.68643 11.0061 7.53157 10.8993C5.40985 10.9335 3.9473 11.2177 3.39604 11.4313C3.16208 11.504 3.02106 11.504 2.87576 11.504" stroke="#0012D4" stroke-linecap="round"/>
<path d="M11.3156 13.1064C8.93109 14.0316 7.79865 14.7389 7.04388 15.3307C6.51024 15.7399 5.9045 16.2035 5.58453 16.4167C5.44084 16.524 5.33507 16.6298 5.2261 16.7388" stroke="#0012D4" stroke-linecap="round"/>
<path d="M14.2001 14.3885C14.2001 15.132 14.1296 16.414 13.7567 17.5534C13.4163 18.5938 12.886 19.8284 12.3855 20.6719C12.0686 21.206 11.0036 22.6381 9.73446 24.8159C9.23119 25.6795 8.79005 26.9884 8.55609 28.2517C8.43688 28.8954 8.53792 30.0695 8.60843 31.039C8.73341 32.7574 9.00051 34.4283 9.07156 35.9053C9.12608 37.0388 9.31994 38.0286 9.58649 39.8383C9.74869 40.9396 10.1682 42.9087 10.4032 44.0492C10.8519 45.9022 10.9951 46.5784 11.0127 46.8995C11.0303 46.9737 11.0656 46.868 11.1019 46.4385" stroke="#0012D4" stroke-linecap="round"/>
<path d="M9.60626 38.3192C10.2814 37.3235 10.8498 36.6141 11.1724 35.8647C11.5286 35.0374 11.8818 33.5544 12.6302 32.5891C13.6053 31.3315 14.448 30.5225 15.8501 29.2079C16.644 28.4636 17.5077 28.1358 18.4879 27.6022C18.6863 27.4941 18.7918 27.4585 18.8639 27.4932C19.2688 27.6881 18.8666 28.9819 18.7763 29.8232C18.6425 31.0704 18.0119 32.3343 17.2491 33.6655C16.1448 35.5926 14.4223 35.9646 13.6499 36.2712C13.0976 36.3246 12.3177 36.3962 11.7445 36.2899C11.6372 36.2541 11.5314 36.2188 11.3156 36.1825" stroke="#0012D4" stroke-linecap="round"/>
<path d="M9.17891 38.3192C8.29006 37.9645 7.43967 37.1141 7.04278 36.5046C6.78701 36.1118 7.04224 35.1206 6.72335 33.8012C6.50551 32.8999 6.01023 32.5523 5.35374 31.1672C4.86476 30.1355 4.26671 29.8109 3.89226 29.1876C3.25263 28.1227 2.2732 27.4243 1.70271 26.9077C1.4311 26.6618 1.16747 26.497 0.971968 26.4783C-0.0589004 26.3797 0.809581 28.9862 1.57291 30.7094C1.93555 31.5281 2.2326 32.2617 3.2988 33.6131C4.16481 34.7108 5.01027 35.5757 5.7565 36.1088C6.42902 36.4987 6.93434 36.7519 7.11222 36.7524C7.18433 36.7177 7.21959 36.612 7.25591 36.503" stroke="#0012D4" stroke-linecap="round"/>
</svg>
