<svg width="20" height="47" viewBox="0 0 20 47" fill="none" xmlns="http://www.w3.org/2000/svg">
<path d="M3.37726 10.6237C4.44452 9.20072 5.08232 8.49135 6.06252 7.24514C6.727 6.40031 7.54163 5.56839 9.03195 4.18489C10.824 2.52132 11.3876 2.47022 11.815 2.02579C12.6034 1.20586 13.3106 1.01087 13.8448 0.777974C14.129 0.654069 14.38 0.546146 14.6108 0.510357C15.294 0.40439 15.9815 1.14975 16.303 1.5413C16.6175 1.92425 16.6951 2.53645 16.7491 3.569C16.792 4.3916 16.9088 5.38677 16.9099 8.01274C16.9105 9.67497 16.5541 10.2285 16.5354 12.3427C16.5275 13.2307 16.8019 13.9313 16.8559 14.8228C16.8735 15.1129 16.9451 15.7464 16.8922 16.5829C16.8725 16.8945 16.7336 16.9611 16.5733 17.0327C15.2796 17.6106 13.3149 17.1769 12.2492 17.0877C11.0373 16.9863 10.2189 16.5722 9.61152 16.287C8.56338 15.7947 7.36855 15.5039 6.56784 15.1834C5.69311 14.8333 4.94985 14.4014 4.32273 14.1145C3.70705 13.8329 3.27256 13.3672 2.95099 12.887C2.79995 12.6615 2.73626 12.2647 2.77151 11.7845C2.87728 11.4806 2.98518 11.2658 3.09148 11.0174C3.16252 10.8748 3.26829 10.6985 3.48409 10.4101" stroke="#0012D4" stroke-linecap="round"/>
<path d="M7.22325 15.6449C6.40812 15.6449 4.91565 15.8564 4.09197 16.2133C3.66799 16.3969 3.41357 16.7122 3.35962 16.9429C3.02088 18.3918 7.64631 17.4953 8.41338 17.7452C9.24944 18.0177 10.0693 17.9952 10.745 18.0839C12.3139 18.0668 12.8833 17.9247 13.4885 17.8708C13.6322 17.8531 13.738 17.8179 13.8469 17.6747" stroke="#0012D4" stroke-linecap="round"/>
<path d="M15.8768 8.05972C15.7357 8.41227 15.5573 8.77017 15.3266 9.0725C14.9625 9.5495 13.7486 9.44856 12.9762 9.25359C12.4185 9.1128 12.0318 8.98597 11.8011 8.95018C11.6775 8.93102 11.535 8.9849 11.3919 9.12645C10.7655 9.74585 10.362 10.5831 9.78885 11.0324C9.18471 11.2989 7.69545 11.5852 6.35469 11.2129C6.12073 11.1226 5.97971 11.0874 5.83441 11.0511" stroke="#0012D4" stroke-linecap="round"/>
<path d="M9.46677 18.1021C9.46677 18.7367 9.46677 19.6629 9.51965 20.9059C9.57589 22.2278 9.78727 23.3679 9.82252 24.2739C9.85663 25.1503 10.0009 26.6733 10.0186 28.4174C10.0345 29.993 10.1783 31.5588 10.2322 32.2372C10.3198 33.3388 10.3919 34.5523 10.4459 36.4342C10.4634 37.0457 10.5351 38.565 10.5527 40.7182C10.5661 42.3525 10.7124 43.3468 10.7664 44.2197C10.784 44.4173 10.8193 44.5583 10.8374 44.9483C10.8556 45.3382 10.8556 45.9728 10.9624 46.4129" stroke="#0012D4" stroke-linecap="round"/>
<path d="M10.6419 40.3234C11.6376 39.8972 12.2765 39.3299 12.7065 38.7231C13.1591 38.0844 12.6012 36.9432 12.7593 35.6297C12.9168 34.3217 13.3833 33.4167 13.5077 33.0438C13.9491 31.7217 15.0905 29.3303 15.537 28.2005C15.8557 27.3942 16.6566 26.1552 17.4232 24.9613C17.657 24.597 17.8703 24.4063 18.0476 24.2813C18.1363 24.2188 18.2955 24.3326 18.421 24.4747C18.9337 25.0551 19.0091 25.6488 19.2591 27.1573C19.482 28.5026 19.2249 29.6369 18.9771 30.4349C18.6193 31.5869 17.7688 32.9445 17.0391 34.1543C16.2999 35.3801 15.4174 36.6163 14.9168 37.0992C14.5317 37.4708 13.9559 37.58 13.4393 37.8652C13.3138 37.9368 13.208 38.0073 13.1007 38.0612C12.9933 38.1152 12.8875 38.1504 12.7786 38.1868" stroke="#0012D4" stroke-linecap="round"/>
<path d="M10.2146 37.2253C9.89514 37.19 8.97531 36.7659 8.22266 36.2835C6.6635 35.2843 5.15921 33.8087 4.3601 33.1154C3.31032 32.2046 2.73837 31.4221 1.54824 29.5776C0.432546 27.8485 0.599563 26.6188 0.510891 25.7802C0.475455 25.4451 0.492729 24.8796 1.10969 24.7653C2.94462 24.4253 4.47869 25.543 4.90549 25.8277C5.64701 26.3224 6.68693 26.9671 7.3274 27.5189C7.69839 27.8385 8.18153 28.919 8.71517 30.5188C9.37697 32.5029 9.32358 33.5523 9.46621 34.5865C9.57357 35.2296 9.60883 35.657 9.66224 35.994C9.68041 36.1901 9.68041 36.4368 9.78724 36.6911" stroke="#0012D4" stroke-linecap="round"/>
</svg>
