<svg width="25" height="48" viewBox="0 0 25 48" fill="none" xmlns="http://www.w3.org/2000/svg">
<path d="M13.6277 8.27744C11.9921 8.27744 11.209 8.34795 9.98254 8.84472C9.38229 9.08786 9.14176 9.52311 8.94626 9.68283C8.31314 10.2 8.28603 12.961 8.56914 14.3279C8.73583 15.1328 9.24646 15.6479 9.45959 15.8258C9.89171 16.1864 10.6342 16.1468 12.4451 16.1479C13.633 16.1486 14.4439 15.3306 14.8723 14.8146C15.6706 13.8531 15.8349 12.9097 15.8183 11.045C15.8083 9.91165 14.9118 9.49106 14.4663 9.06213C14.3413 8.99001 14.2003 8.95476 14.0748 8.91897C13.9493 8.88318 13.8435 8.84793 13.7345 8.4911" stroke="#0012D4" stroke-linecap="round"/>
<path d="M9.56803 8.59795C8.96442 8.10331 8.53602 7.03391 8.32235 6.05745C7.83017 3.80817 8.92489 2.97424 9.3346 2.29798C10.0168 1.17191 10.5979 0.871755 11.4873 0.604137C11.9711 0.458556 12.5914 0.478608 13.2666 0.584373C13.9412 0.690053 14.2676 1.22537 14.4631 1.45613C14.8806 1.94893 14.8734 2.96569 14.945 4.33743C15.006 5.50758 15.0529 6.56598 14.9102 7.08252C14.8755 7.20834 14.8392 7.31381 15.0326 7.2449C15.6849 7.01243 16.4727 6.53393 17.2894 6.28501C19.2119 5.69908 20.9244 6.10446 21.8325 6.37101C22.6525 6.61169 23.0974 7.17066 23.615 7.90086C23.786 8.14202 23.7769 8.48898 23.7593 8.87999C23.727 9.59465 23.0312 10.1278 22.4436 10.608C21.9154 11.0397 21.3582 11.694 20.6285 12.1219C19.7281 12.6498 19.0783 12.6213 18.4731 12.6753C18.2191 12.6979 17.7269 12.7645 17.1922 12.7821C16.5486 12.8033 19.0719 14.2195 19.9458 16.2109C20.5668 17.626 20.5356 18.8518 20.5366 20.2369C20.5371 20.8524 20.2877 21.2032 20.128 21.4164C19.756 21.9127 19.0078 22.0226 18.3134 22.0948C17.2691 22.2032 16.5143 21.1338 15.8205 20.6899C15.2638 20.3338 14.5935 19.8539 14.0919 19.3011C13.7594 18.9346 13.5935 18.3583 13.3446 18.0014C13.0861 17.6309 12.6683 18.9565 12.3115 19.4934C11.9488 20.0391 11.2816 20.5248 10.3191 21.4324C10.0322 21.7028 9.8896 21.9511 9.64121 22.1466C9.36076 22.3673 8.75289 22.3795 7.98903 22.3266C6.29071 22.209 5.04897 20.7086 4.49504 19.9608C3.94232 19.2146 4.61737 17.8946 4.84866 17.3781C5.08621 16.8476 5.61305 16.2921 5.95225 15.8819C6.30571 15.4544 6.71771 15.0806 6.73748 14.7788C6.81413 13.6082 5.01479 13.9054 3.52019 13.1774C2.12961 12.5 1.6303 11.2752 1.34239 10.5941C1.02122 9.8344 1.30553 8.77957 1.55445 8.26143C1.81017 7.72913 2.19438 7.24758 2.71092 6.88968C3.17079 6.57106 3.69005 6.39077 5.76689 6.3897C6.82455 6.60337 7.53392 6.88648 8.15943 7.19042C8.28496 7.24437 8.39072 7.27963 8.60653 7.42278" stroke="#0012D4" stroke-linecap="round"/>
<path d="M12.773 18.5334C12.773 19.5911 12.7378 20.4532 12.6315 22.115C12.5455 23.4587 12.4547 25.8216 12.3826 27.109C12.3024 28.5391 12.2036 29.846 12.1326 31.7322C12.0691 33.4165 12.0957 34.7679 12.1497 36.3153C12.1828 37.266 12.3094 38.0455 12.3633 38.882C12.4175 39.7215 12.5936 41.2804 12.6838 43.3653C12.7206 44.215 13.0209 45.3422 13.1822 46.3775C13.2004 46.6627 13.2004 47.0152 13.2004 47.1264C13.2004 47.2375 13.2004 47.0964 13.2004 46.9511" stroke="#0012D4" stroke-linecap="round"/>
<path d="M12.5594 37.3362C13.053 36.4195 13.5893 35.489 14.2458 34.4949C15.6917 32.6013 16.1543 32.1035 16.6329 31.6243C16.9353 31.3567 17.3583 31.0394 17.9011 30.6057" stroke="#0012D4" stroke-linecap="round"/>
<path d="M13.9482 34.5585C14.055 32.8897 14.1255 31.4646 14.445 30.6094C14.9479 29.2628 15.6554 28.6506 17.6062 26.609C19.9097 24.1982 20.6403 24.1614 21.1573 23.9472C21.5377 23.7897 21.8881 23.6262 22.1722 23.5904C22.3143 23.5725 22.4564 23.6251 22.5643 23.7138C23.6612 24.6152 22.6744 27.5395 22.4954 28.1992C22.0827 29.7208 20.8261 32.0586 20.2888 32.8823C19.765 33.6851 18.8326 34.0564 18.1345 34.3619C17.5474 34.5937 16.1297 34.6653 15.1624 34.5766C14.8787 34.5585 14.4204 34.5585 13.8414 34.6653" stroke="#0012D4" stroke-linecap="round"/>
<path d="M12.4525 37.5498C11.9194 36.8031 11.5637 36.3768 11.0135 35.9671C9.83539 35.0898 9.3565 34.738 8.73366 34.2401C8.11219 33.7434 7.64717 33.3491 7.13063 32.9576C7.0051 32.8502 6.89933 32.7445 6.77434 32.6371C6.64934 32.5297 6.50832 32.424 6.2562 32.1013" stroke="#0012D4" stroke-linecap="round"/>
<path d="M9.78171 34.7721C9.81697 34.5243 9.95905 33.8854 9.9425 32.1975C9.92867 30.7886 9.42702 29.9689 9.15941 29.4145C8.89283 28.8621 8.46552 28.2938 7.98531 27.6699C7.65591 27.2419 6.83097 27.0118 5.93891 26.7249C5.1335 26.4659 4.76268 26.0481 4.13984 25.7816C3.54311 25.5262 2.94864 25.3003 2.34129 25.1048C1.49843 24.8335 1.2361 24.5525 1.02297 24.428C0.919206 24.3674 0.809837 24.3388 0.720097 24.4793C0.458998 24.888 0.4872 26.3569 0.522455 28.1714C0.55359 29.7739 1.58545 30.9539 2.14152 31.9379C2.75187 33.0178 3.36957 33.7017 3.85032 34.0409C4.53485 34.5238 5.0789 34.8768 5.45335 35.3047C5.9784 35.9047 7.56385 35.8405 8.37365 35.6103C8.46339 35.5211 8.5339 35.4153 8.58785 35.2903C8.6418 35.1653 8.67705 35.0243 8.71338 34.879" stroke="#0012D4" stroke-linecap="round"/>
</svg>
