<svg width="29" height="47" viewBox="0 0 29 47" fill="none" xmlns="http://www.w3.org/2000/svg">
<path d="M8.8463 16.6258C9.30416 16.7903 11.1495 16.9231 12.4914 17.0053C14.1945 17.1097 15.0503 17.1213 16.0592 17.2035C18.417 17.3958 18.953 17.1213 19.3663 16.99C19.6487 16.9002 19.9114 16.6268 20.3227 16.3309C20.9369 15.8891 22.0193 14.5872 23.274 13.0357C23.9192 12.2378 24.5653 11.2483 25.4404 10.0928C26.2017 9.08748 27.1748 7.58144 27.8398 6.24055C28.0246 5.86795 28.0727 5.49528 28.0236 5.06665C28.0002 4.86235 27.8764 4.70343 27.7278 4.60284C27.4215 4.39563 26.9845 4.40315 26.6381 4.35359C25.6293 4.20927 24.0787 5.45861 22.5946 6.29902C21.7211 6.7937 21.1373 7.34161 20.6745 7.96795C20.2864 8.49315 19.7518 9.18892 19.3202 9.78504C19.1696 9.99312 18.8618 10.2771 18.7266 10.3633C18.5913 10.4495 18.624 10.3187 18.6735 10.2023C18.8676 9.74628 19.1512 8.37825 19.2687 6.35849C19.3343 5.22955 19.2206 4.309 19.1205 3.36601C19.0521 2.72145 18.7588 2.09301 18.3306 1.59847C17.4648 0.598345 16.5121 0.471651 16.2152 0.504355C15.4161 0.592413 14.6301 1.88885 14.1499 2.91211C13.7893 3.68064 13.8352 4.33278 13.637 5.53443C13.2987 7.58571 13.6033 8.89656 13.5706 8.56803C13.4549 7.40495 13.2743 6.09685 12.9443 4.81988C12.6422 3.65089 11.8868 3.34768 11.3105 2.81994C10.2141 1.81586 9.77392 1.53009 9.3106 1.21642C8.97389 0.988465 8.71548 0.703556 8.46821 0.637156C8.35574 0.606954 8.25365 0.701574 8.15405 0.833384C7.53764 1.64912 7.65704 3.69851 7.87061 5.4051C7.9382 5.94518 8.28338 6.70932 8.57971 7.92831C9.09508 10.0484 9.40723 10.4139 9.52269 10.6611C9.57631 10.776 9.60544 10.8757 9.42606 10.6973C8.81949 10.0941 7.99201 8.93522 7.16746 7.84605C6.62984 7.13591 5.32113 6.4893 3.68788 5.63106C2.64894 5.0851 1.91192 5.03048 1.40054 5.06318C1.03985 5.08625 0.819785 5.35951 0.654776 5.63948C0.287929 6.26191 0.652298 7.20682 0.932765 8.27865C1.26078 9.53218 1.77516 10.5447 2.08833 11.0065C2.71333 11.9282 3.9188 13.054 5.32262 14.2591C6.31207 15.1085 7.02475 15.5653 7.81957 16.0296C7.98607 16.1292 8.11689 16.2274 8.24969 16.2943C8.38249 16.3612 8.5133 16.3939 8.64809 16.4276" stroke="#0012D4" stroke-linecap="round"/>
<path d="M14.7926 17.2204C14.7926 17.1877 14.7926 17.155 14.8089 19.64C14.8253 22.1251 14.858 27.1289 14.8421 29.9519C14.8235 33.2664 14.6935 33.9344 14.6608 34.3294C14.5449 35.7287 14.2317 37.1048 13.9512 39.0324C13.8331 39.8437 13.8015 40.5061 13.3903 42.9123C13.2319 43.8388 13.2069 44.3732 13.1247 44.8687C13.1078 45.1323 13.0751 45.3979 13.0255 45.6615C13.0087 45.7943 13.0087 45.9251 13.0087 46.0599" stroke="#0012D4" stroke-linecap="round"/>
<path d="M14.5944 36.7441C14.6925 36.415 15.0879 35.757 16.3069 34.1079C16.8359 33.3923 17.5309 32.6857 18.2885 31.7135C19.9421 30.0079 20.837 29.3122 21.0511 29.1308C21.167 29.0476 21.2979 28.9822 21.4326 28.8157" stroke="#0012D4" stroke-linecap="round"/>
<path d="M14.8917 32.3835C15.188 31.8562 15.4526 31.3944 15.7658 30.9811C15.9398 30.7515 16.7668 29.7492 18.0378 28.3955C19.1391 27.2225 20.6656 26.1775 21.6601 25.3832C22.9082 24.3863 23.9697 23.9635 24.8324 23.515C25.8005 23.0119 26.6485 22.5404 27.2263 22.4076C27.4388 22.3587 27.5098 22.5364 27.5434 22.7837C27.7022 23.9487 27.6762 25.6641 27.5613 26.8475C27.523 27.2413 27.1173 27.9842 26.4265 29.3335C25.4814 31.1797 24.6387 32.3488 24.3419 32.6619C23.8026 33.2309 23.2185 33.8344 21.508 35.3655C19.0011 37.6095 18.0987 37.634 17.6681 37.8501C17.147 38.1115 16.2831 38.2307 15.6538 38.3129C15.4883 38.3298 15.2921 38.3298 15.1419 38.3461C14.9918 38.3625 14.8937 38.3952 14.5944 38.6271" stroke="#0012D4" stroke-linecap="round"/>
<path d="M14.5944 31.8879C14.5944 31.6907 14.529 31.2953 14.4789 30.7834C14.4214 30.1955 13.97 29.5471 13.5389 28.835C12.8242 27.6545 11.8551 26.7384 10.2243 25.2538C8.81834 23.9738 7.85723 23.3669 6.85181 22.6409C6.16612 22.1458 5.38159 22.0448 4.04664 21.8129C3.50956 21.7196 2.71764 21.7792 2.3133 21.8937C1.90895 22.0081 1.90895 22.2371 1.94165 22.5022C1.97436 22.7673 2.03977 23.0616 2.82567 24.734C3.61157 26.4064 5.11598 29.4479 5.97275 31.1129C6.94391 33.0002 7.29233 33.2744 7.71947 33.6683C9.23372 35.0649 9.89879 36.1118 10.4468 36.479C10.9998 36.8494 11.7501 37.0077 12.2144 37.1236C12.644 37.1732 13.1058 37.305 13.5027 37.3714C13.6023 37.4041 13.7005 37.4695 13.9998 37.5369" stroke="#0012D4" stroke-linecap="round"/>
<path d="M13.9997 36.645C13.8689 36.0226 13.08 33.7174 12.3997 32.4855C11.9246 31.6253 11.1634 30.6392 10.5499 29.8919C9.70651 28.8831 9.31009 28.5848 9.06283 28.5025C8.94638 28.4529 8.84826 28.3875 8.64807 28.221" stroke="#0012D4" stroke-linecap="round"/>
</svg>
