<svg width="26" height="45" viewBox="0 0 26 45" fill="none" xmlns="http://www.w3.org/2000/svg">
<path d="M11.3214 10.0322C11.4652 9.81542 12.0498 9.27895 12.4027 8.9629C12.7372 8.66339 13.2177 8.52423 13.6914 8.43884C13.8477 8.41065 14.0424 8.42643 14.1537 8.46256C14.4655 8.56374 14.6293 8.98407 14.7395 9.49463C14.8836 10.1622 14.6307 10.6132 14.1457 11.392C13.8988 11.7885 13.2717 12.0978 12.3473 12.5606C10.9969 13.2365 9.71999 13.0014 9.10907 12.7219C8.58501 12.4821 8.76674 10.9402 8.85141 10.0348C8.91661 9.33756 9.15505 8.81765 9.30139 8.41584C9.47293 7.94486 9.95502 7.0951 10.432 6.42067C10.6815 6.06792 11.3418 5.70391 11.8309 5.49516C12.5046 5.20754 14.1359 5.14189 14.7749 5.21452C14.9967 5.23972 15.3577 5.36013 15.7708 5.50575C16.4529 5.74616 16.9868 7.15495 17.2938 7.82864C17.5466 8.38353 17.5255 10.022 17.4408 10.9789C17.3409 12.1087 16.0686 13.6291 15.6898 14.0696C15.5048 14.2847 15.0716 14.7247 14.4402 15.2594C13.9557 15.6697 13.0067 15.894 11.9371 16.1615C11.0882 16.3738 10.3535 16.3823 9.58423 16.2491C8.95813 16.1407 8.42807 15.921 7.92919 15.5929C7.43871 15.2704 6.89529 14.7298 6.5661 14.2919C6.11124 13.6867 6.04277 12.8832 5.95701 12.092C5.76071 10.281 5.82234 9.20742 5.99241 8.61146C6.28677 7.57991 6.91427 6.26593 7.4876 5.66669C8.04594 5.08311 9.10396 4.43827 9.6408 4.18171C10.1373 3.94443 11.071 3.73173 12.5388 3.58575C13.306 3.50946 14.1271 3.53612 14.7899 3.59634C16.6305 3.76358 17.1343 4.26456 17.4996 4.65323C17.8575 5.03402 18.0116 5.45721 18.2171 6.0247C19.062 8.35842 19.0816 9.03224 19.1433 9.54353C19.2396 10.3419 19.1561 11.3665 18.6711 12.9095C18.3527 13.9224 17.9883 14.8714 17.4186 16.0856C17.0117 16.9528 16.092 17.3779 15.1938 18.022C13.9833 18.8902 12.4425 18.864 11.7506 18.9607C11.1515 19.0444 9.96742 19.1559 8.59376 19.1439C7.54973 19.1347 6.77705 18.9384 6.06832 18.6581C5.4454 18.4118 4.92457 17.8932 4.63188 17.3819C4.04333 16.3538 3.22099 15.0481 2.92866 14.4503C2.6214 13.8219 2.4181 13.0306 2.1984 11.7278C2.05549 10.8803 1.9787 9.8687 2.23307 8.6735C2.30646 8.32867 2.44 7.99068 2.68232 7.32501C3.08366 6.22254 3.38813 5.19371 3.77607 4.55068C4.49978 3.35109 5.06617 3.05147 6.11065 2.17705C6.48518 1.86351 6.74639 1.73619 7.25367 1.53073C9.25871 0.718614 9.8105 0.568359 10.4915 0.531499C10.8091 0.514307 11.7031 0.470553 13.1235 0.530769C15.1209 0.615449 15.7212 1.07783 16.3314 1.45445C16.55 1.58937 17.2036 2.16829 18.1634 3.13979C18.8749 3.8599 19.3473 4.82001 19.8094 5.71961C20.16 6.40225 20.4436 6.9389 20.7725 8.06914C20.9139 8.55519 20.883 9.56215 20.6181 11.4887C20.4565 12.6634 19.8232 14.162 19.3455 15.2929C18.8678 16.4239 18.4583 17.1224 18.1149 17.6147C17.2144 18.9057 16.3124 19.1544 15.788 19.4468C15.1251 19.8163 13.7169 19.7398 12.7345 19.6792C12.3191 19.6536 11.8834 19.5938 11.4203 19.5212C11.3221 19.4968 11.2499 19.4727 10.9958 19.4603C10.7418 19.4479 10.3083 19.4479 9.86159 19.4479" stroke="#0012D4" stroke-linecap="round"/>
<path d="M11.6863 19.3019C11.7104 19.7135 11.7593 20.2975 11.7713 20.6978C11.7776 20.9057 11.8075 21.1222 11.8078 24.2207C11.8082 27.3191 11.7841 33.2925 11.7958 36.4902C11.8075 39.6879 11.8556 39.9288 11.8805 40.6068C11.9053 42.3929 11.8812 43.6308 11.8447 43.8731C11.8323 44.0191 11.8323 44.2118 11.8323 44.4103" stroke="#0012D4" stroke-linecap="round"/>
<path d="M11.9783 32.2211C12.0746 32.0276 12.5111 31.5904 13.6136 30.6211C14.1888 30.1154 15.1942 29.3657 15.8234 28.9084C17.062 28.1103 17.4992 27.8183 17.8164 27.6355C17.8897 27.5986 17.962 27.5745 18.0364 27.5497" stroke="#0012D4" stroke-linecap="round"/>
<path d="M12.3432 31.6371C12.3191 31.6371 12.295 31.6371 12.2947 31.601C12.2936 31.4901 12.5841 31.0569 13.1056 30.2204C13.7453 29.1944 14.1665 28.3789 14.4336 27.9785C14.6987 27.5813 15.0409 26.9213 15.7799 26.0118C16.2041 25.4898 16.8321 24.9338 17.4675 24.4312C18.1028 23.9287 18.7532 23.5192 19.4495 23.1397C20.8453 22.3789 21.7574 22.0273 22.0246 21.9302C22.5174 21.7511 23.0946 21.493 23.4486 21.4065C23.6286 21.3626 24.0427 21.3456 24.5172 21.4901C25.3286 21.7373 24.7515 23.1397 24.6062 24.0072C24.5019 24.6303 23.9019 25.3075 23.4639 25.9775C22.7634 27.0494 22.2961 27.5483 21.7253 28.1424C21.0942 28.7994 20.5692 29.4942 20.0717 29.9066C18.9723 30.818 17.9912 31.2956 17.5149 31.4784C17.0543 31.6552 15.8321 31.951 14.9727 32.0871C14.4877 32.1639 14.0483 32.0999 13.2344 31.7846C13.0498 31.6868 12.9534 31.5904 12.8315 31.5408C12.7096 31.4912 12.5651 31.4912 12.4162 31.4912" stroke="#0012D4" stroke-linecap="round"/>
<path d="M11.4674 32.0751C11.298 32.0028 10.9097 31.7597 10.5565 31.4802C10.3115 31.2864 9.81634 30.862 8.99228 30.1463C7.1617 28.8642 6.94273 28.6694 6.72486 28.488C6.57924 28.3548 6.36246 28.138 6.2851 27.9876" stroke="#0012D4" stroke-linecap="round"/>
<path d="M10.9564 31.5641C10.7864 31.3459 10.5448 30.862 10.3608 30.4704C10.2892 30.3179 9.93749 29.6241 9.41525 28.5427C8.83683 27.3451 8.47624 26.7979 7.97882 26.1786C7.35154 25.3976 6.48508 24.3192 5.57381 23.4561C5.02876 22.9399 4.41509 22.7579 3.73556 22.4791C2.4886 21.9675 1.25756 21.8565 0.617076 22.147C0.428062 22.2327 0.518905 23.3557 0.542992 24.863C0.556349 25.6988 0.809404 26.3534 1.04042 27.034C1.32158 27.8624 1.95096 29.0285 2.40313 29.6405C2.67499 30.0085 4.10708 31.0926 5.09098 31.7214C5.71694 32.1215 6.5245 32.0984 7.64306 32.2692C8.57113 32.3181 9.63386 32.367 10.2984 32.3064C10.3718 32.294 10.444 32.294 10.5185 32.221" stroke="#0012D4" stroke-linecap="round"/>
</svg>
