<svg width="25" height="48" viewBox="0 0 25 48" fill="none" xmlns="http://www.w3.org/2000/svg">
<path d="M10.214 13.7523C8.43115 12.7949 7.77408 12.4659 5.48228 10.9669C4.45652 10.296 4.03981 9.56015 3.49324 9.19446C3.0619 8.90585 2.32331 8.40459 1.70985 8.0052C1.54799 7.89982 1.26685 7.87339 1.09936 7.92145C0.931874 7.96952 0.866465 8.13304 0.832769 8.28269C0.633289 9.16862 1.22721 10.577 1.50817 11.1736C1.87087 11.9438 2.41647 12.9555 2.68108 13.5848C3.17219 14.7528 4.19837 16.7829 4.51452 17.6318C4.79477 18.3842 5.58584 19.4588 6.11556 20.3403C6.65222 21.2334 7.33802 21.3814 8.14622 21.7293C8.62437 21.9351 9.44896 22.0751 10.9192 22.1926C11.732 22.2575 12.656 22.2099 13.5801 22.1599C14.3107 22.1203 15.1673 22.0117 15.5642 21.863C16.0706 21.6734 16.9472 20.9255 17.6449 20.1143C18.1808 19.4913 18.4378 18.7769 18.9992 17.6382C19.3674 16.8915 19.8907 16.2656 20.5517 15.3251C20.9879 14.7045 21.4109 14.0199 21.6597 13.5065C22.1774 12.4382 22.7667 11.0804 23.0799 9.92536C23.4328 8.62368 23.5912 7.55031 23.9554 6.65192C24.0115 6.5137 24.055 6.42051 23.9574 6.38632C23.1581 6.10633 21.85 7.47003 20.4159 8.65582C19.0059 9.82177 18.1464 11.2033 17.4864 12.0616C16.9255 12.7909 16.2971 13.4173 15.5513 13.8346C15.448 13.8923 15.4012 13.6889 15.4007 13.5724C15.3989 13.1534 15.532 12.7632 15.5494 12.2018C15.5641 11.7245 15.3021 11.2112 15.252 10.7643C15.1871 10.1842 15.1039 9.52646 15.0538 8.91498C14.9929 8.17058 15.0365 7.31245 15.1856 6.9973C15.3648 6.61883 13.8889 8.58893 13.1892 9.68552C12.4584 10.8308 12.1644 11.2727 11.7849 11.7682C11.3379 12.2647 11.0089 12.6602 10.6625 13.0065C10.5124 13.1567 10.4142 13.2548 10.1149 13.455" stroke="#0012D4" stroke-linecap="round"/>
<path d="M9.91671 13.455C9.98212 13.1269 10.2457 12.4005 10.3954 11.79C10.715 10.4862 10.1149 10.0864 10.0659 9.93773C9.96625 9.63588 9.52227 9.45906 8.53321 8.50368C7.92443 7.91565 7.63928 7.47696 7.32462 7.09738C6.96582 6.66457 6.28749 6.28968 5.64083 5.94033C5.35626 5.7866 5.02885 5.75848 4.76523 5.67572C4.63745 5.63561 4.50161 5.69108 4.36881 5.78969C4.07034 6.01132 3.8723 6.38383 3.70729 6.697C3.2654 7.53565 3.6394 8.95957 3.77171 9.47244C3.80491 9.58888 3.83761 9.687 3.85446 9.8193C3.87131 9.95161 3.87131 10.1151 3.87131 10.2836" stroke="#0012D4" stroke-linecap="round"/>
<path d="M8.82654 8.30152C8.95736 8.1043 10.0079 7.64346 11.3166 7.49233C12.0662 7.40575 12.656 7.24506 13.0866 7.01415C13.4917 6.7969 14.0751 6.51961 14.5895 6.30356C15.0741 6.09999 15.53 5.82588 15.9938 5.314C16.1037 5.19271 16.0612 5.00132 16.0121 4.85168C15.8276 4.2887 15.2049 3.97658 14.7089 3.61187C13.9704 3.06886 13.1574 3.08265 12.5782 3.0326C11.8983 2.97386 11.0445 3.08067 10.4142 3.42754C10.1491 3.57345 9.88498 3.7744 9.67042 4.03802C9.48849 4.26154 9.52027 4.63265 9.56933 4.94632C9.64807 5.4498 10.7393 5.32837 11.2858 5.42698C11.4023 5.46018 11.5004 5.49288 11.8453 5.50973C12.1902 5.52658 12.7788 5.52658 13.3854 5.52658" stroke="#0012D4" stroke-linecap="round"/>
<path d="M9.42119 4.33731C8.89395 4.73175 8.43212 5.4572 8.21607 6.02011C8.10111 6.28373 8.03372 6.51663 8.01737 6.71434C8.00102 6.81394 7.96831 6.91206 7.83551 7.11225" stroke="#0012D4" stroke-linecap="round"/>
<path d="M16.4576 5.32837C16.7203 5.39378 17.4447 5.91903 18.0577 6.44974C18.7384 7.03914 19.1969 7.77032 19.5126 8.20093C19.5953 8.39864 19.6617 8.59784 19.7276 8.79556C19.7608 8.89516 19.7935 8.99327 19.8272 9.09436" stroke="#0012D4" stroke-linecap="round"/>
<path d="M13.4845 2.85074C14.2734 2.12628 15.2664 1.59607 15.9591 1.48012C16.71 1.35444 17.2485 1.62778 18.139 1.87505C18.7622 2.04812 19.0324 2.68424 19.4779 3.21099C20.5026 4.42263 20.8163 4.89627 21.1968 5.32688C21.5191 5.69148 21.7419 6.11922 21.9079 6.51614C21.9738 6.71385 22.0729 6.94576 22.172 7.20938C22.2057 7.34218 22.2057 7.473 22.2057 7.60778" stroke="#0012D4" stroke-linecap="round"/>
<path d="M12.3943 2.85073C11.9662 2.4553 11.1773 2.05988 10.4474 1.56435C9.92378 1.20887 9.42514 0.83692 8.69721 0.753176C7.8715 0.658183 7.21113 0.735833 6.58231 0.966748C6.04834 1.16283 5.59176 1.7586 5.2107 2.22092C4.93172 2.61486 4.63242 3.24319 4.43421 4.18122C4.36682 4.72679 4.36682 5.41359 4.36682 6.1212" stroke="#0012D4" stroke-linecap="round"/>
<path d="M12.989 22.7708C12.9236 23.0325 12.8572 24.7371 12.7913 27.2301C12.7608 28.3836 12.4954 29.3702 12.1818 30.6571C11.9823 31.4757 11.9325 32.0183 11.6208 33.33C11.3641 34.4103 10.9494 36.3423 10.714 37.4835C10.419 38.9137 10.4123 39.582 10.3959 40.2416C10.3827 40.7724 10.3131 42.02 10.3295 43.6542C10.341 44.8068 10.6739 46.3776 10.8909 47.561C10.9078 47.7433 10.9078 47.9395 10.9078 47.9752C10.9078 48.0109 10.9078 47.8801 10.9078 47.7453" stroke="#0012D4" stroke-linecap="round"/>
<path d="M11.106 36.2491C11.0406 36.2491 10.9752 36.2491 10.9742 36.151C10.9675 35.4934 11.8929 34.375 13.3572 32.4648C14.1783 31.3935 15.3774 30.2929 16.1797 29.5397C17.3717 28.4206 18.5646 27.6646 19.8183 26.9055C21.3555 25.9747 22.6656 25.8114 23.0635 25.7271C23.8931 25.5515 23.1314 28.0848 22.9168 28.896C22.8258 29.2403 22.735 29.5417 22.6195 29.8217C22.4962 30.1207 21.9471 31.4802 20.9085 33.5748C20.1221 35.1606 19.4328 35.9825 18.9719 36.4602C17.9493 37.5202 17.088 37.8328 16.312 38.312C15.5595 38.7766 14.3824 39.3848 13.5207 39.6509C12.5608 39.9814 11.7066 40.1142 10.9266 40.1965C10.777 40.2133 10.6461 40.2133 10.5114 40.2133" stroke="#0012D4" stroke-linecap="round"/>
<path d="M11.2051 36.6455C13.315 35.0618 14.5053 34.4672 15.1504 34.1853C15.3001 34.1352 15.4309 34.1025 15.5801 34.053C15.7292 34.0034 15.8927 33.938 16.0612 33.8706" stroke="#0012D4" stroke-linecap="round"/>
<path d="M10.8086 34.8617C10.7095 33.7408 10.5787 32.8181 9.96873 31.4311C9.75677 30.9492 8.93259 29.9807 7.54859 28.4803C5.61891 26.3882 4.73351 26.4397 4.00608 26.1414C3.1584 25.7938 1.5681 24.7569 0.816882 24.5379C0.327469 24.3952 0.501729 26.1642 0.698948 27.7375C0.768759 28.2944 1.48683 29.6963 2.64041 31.8072C3.56343 33.4963 4.46395 34.265 4.82667 34.6114C5.54411 35.2965 6.37865 36.378 6.97427 36.8423C7.66291 37.3791 8.52527 37.7337 9.10553 37.8512C9.22198 37.8675 9.32009 37.9002 9.4851 37.9171C9.65011 37.9339 9.87904 37.9339 9.9167 37.8348" stroke="#0012D4" stroke-linecap="round"/>
<path d="M10.6104 36.4473C10.0871 35.597 9.52324 34.6684 8.83198 33.6635C7.34095 32.0213 7.07634 31.7904 6.92818 31.5927C6.84543 31.4931 6.74731 31.3949 6.54712 31.2939" stroke="#0012D4" stroke-linecap="round"/>
<path d="M9.81763 0.868637C9.81763 0.835933 9.81763 0.803228 9.86668 0.770028C10.7533 0.170026 12.7888 0.735837 13.268 0.884494C13.7144 1.13226 14.0781 1.29776 14.2759 1.36367C14.3755 1.39687 14.4736 1.42957 14.7729 1.66148" stroke="#0012D4" stroke-linecap="round"/>
</svg>
