<svg width="27" height="45" viewBox="0 0 27 45" fill="none" xmlns="http://www.w3.org/2000/svg">
<path d="M13.4832 3.70681C13.3013 3.48871 12.5034 2.61741 11.4589 1.79104C10.8336 1.29627 9.98044 0.787128 8.61102 0.656159C7.98551 0.596336 7.49476 1.11154 7.03664 1.5313C6.58318 1.94679 6.57852 4.0904 6.81471 5.40393C6.90721 5.91837 7.59998 6.2977 8.1107 7.06489C8.55768 7.73632 8.84281 8.19813 9.00721 8.72803C9.19356 9.32869 9.57274 9.95169 9.88345 10.5906C10.2316 11.3067 10.741 11.9968 11.18 12.564C11.3775 12.8191 11.6551 12.9854 11.9647 13.113C12.8989 13.4983 14.7896 13.0248 16.1097 12.4949C16.7334 12.2445 17.3871 11.6746 18.066 11.234C18.6034 10.8853 18.6693 10.2849 18.9439 9.53687C19.1843 8.88194 19.2546 8.34937 19.51 7.72795C19.8788 6.83043 20.1314 5.86589 20.2596 5.28009C20.4399 4.45664 20.3878 3.34952 20.0788 1.93955C19.9747 1.46462 19.659 1.11483 19.3308 0.804664C18.8489 0.349379 17.7268 0.491214 16.684 0.673694C15.3545 0.906342 14.7282 1.40307 14.143 1.76912C13.9961 1.87872 13.8514 2.02339 13.7046 2.2245C13.5577 2.42561 13.413 2.67879 13.264 3.26842" stroke="#0012D4" stroke-linecap="round"/>
<path d="M6.90734 6.00836C5.59326 6.19029 4.86663 6.55416 4.24247 6.90213C3.90755 7.08885 3.65667 7.32244 3.5109 7.54109C3.36514 7.75973 3.29061 8.01619 3.32678 8.28964C3.36099 8.5483 3.69064 8.81954 4.01889 9.11162C4.23952 9.30794 4.67593 9.29629 5.0239 9.38671C5.72572 9.56908 4.16849 10.2816 4.00409 10.5183C3.9243 10.6332 3.9482 10.7912 4.0567 10.92C4.69269 11.6748 6.09851 11.5978 6.86843 11.4707C7.34463 11.2329 7.85426 10.9425 8.2943 10.5035C8.36827 10.3934 8.40444 10.2849 8.44171 10.0635" stroke="#0012D4" stroke-linecap="round"/>
<path d="M6.1401 11.817C5.84967 11.8532 5.26551 12.0713 4.77177 12.5639C4.58066 12.7546 4.60573 13.0938 4.62381 13.4221C4.6382 13.6833 4.86 13.8983 5.15153 14.0988C5.42726 14.2885 5.95378 14.3378 6.53794 14.392C7.11869 14.446 7.16155 15.322 7.70844 15.6338C8.4783 16.0727 9.67791 15.5455 10.3393 15.1252C10.9613 14.158 11.2178 13.3536 11.2906 12.9705C11.3274 12.8045 11.3635 12.696 11.4008 12.4746" stroke="#0012D4" stroke-linecap="round"/>
<path d="M11.9488 13.0226C11.1104 13.7504 10.6709 14.5548 10.5427 15.2661C10.4491 15.7852 10.5964 16.2722 10.7964 16.6366C11.0261 17.0552 11.4359 17.2235 11.7455 17.2602C12.0907 17.3012 12.3861 17.0427 12.5867 16.8777C12.95 16.5789 14.4213 17.297 15.6176 17.1879C15.787 17.1725 15.8921 17.115 15.9842 17.0421C16.4682 16.659 16.6243 15.802 16.8977 15.3078C17.0615 15.0117 17.2095 14.6326 17.1191 14.1586C17.0287 13.9378 16.8478 13.7569 16.6462 13.6095C16.4445 13.4621 16.2275 13.3536 15.8943 13.2418" stroke="#0012D4" stroke-linecap="round"/>
<path d="M17.0999 13.8994C17.0999 14.1164 17.2084 14.3729 17.4451 14.6463C17.6818 14.9197 17.9756 15.0315 18.3751 15.0863C19.1294 15.1898 19.91 14.9241 20.4026 14.5416C20.815 14.2215 20.8624 13.7909 21.0257 13.6265C21.2714 13.3792 21.7019 13.5344 21.8844 13.4254C22.0666 13.3165 22.0318 12.8067 21.9956 12.2412C21.9475 11.4893 21.0849 11.1967 20.6087 10.9594C20.39 10.8679 20.1336 10.7945 19.842 10.7397C19.6952 10.7211 19.5505 10.7211 19.4015 10.7211" stroke="#0012D4" stroke-linecap="round"/>
<path d="M21.155 11.1595C22.4691 11.0871 22.8341 10.868 23.0533 10.6499C23.3158 10.3886 23.0555 9.91884 23.0363 9.66347C23.014 9.36724 23.6012 9.29742 23.8566 9.06069C24.0976 8.83729 24.1142 8.31323 24.0961 7.76579C24.085 7.43111 23.8961 7.17889 23.6774 6.94161C23.13 6.70324 22.5809 6.48404 22.0729 6.37445C21.6734 6.33718 20.9862 6.33718 20.2782 6.44678" stroke="#0012D4" stroke-linecap="round"/>
<path d="M13.1544 17.4066C13.0448 19.7048 13.0809 20.5827 13.0996 22.0869C13.1155 23.3742 13.0097 25.725 12.9905 27.0807C12.9672 28.7257 13.0448 29.3133 13.0628 29.824C13.1144 31.2814 13.1905 33.4418 13.2453 34.7657C13.2896 35.8358 13.264 37.7172 13.282 38.7403C13.3168 40.7089 13.5182 42.465 13.6837 43.1045C13.7023 43.3056 13.7023 43.5588 13.7204 43.6349C13.7385 43.7111 13.7747 43.6026 13.8119 43.2716" stroke="#0012D4" stroke-linecap="round"/>
<path d="M13.3736 34.6134C14.6877 32.4959 15.1973 31.9129 16.2719 30.7468C16.7634 30.3084 17.523 29.7297 17.9685 29.3592C18.414 28.9888 18.5225 28.8441 18.8535 28.4759" stroke="#0012D4" stroke-linecap="round"/>
<path d="M13.264 32.531C13.1182 32.2044 13.1171 30.9682 13.8273 28.7576C14.2008 27.595 15.1973 26.7246 15.8735 26.0127C16.5328 25.3186 18.4743 23.8465 19.6546 23.0706C20.3681 22.6015 20.8964 22.3406 21.4997 22.0836C22.1624 21.8014 22.7946 21.4639 23.4177 21.134C23.8237 20.919 24.295 20.8052 24.6232 20.695C25.4456 20.4191 25.4644 22.8821 25.6299 24.1035C25.827 25.5584 25.5039 26.9733 25.1581 27.957C24.7768 29.0415 24.1898 29.8974 23.4445 30.7342C22.3093 32.0089 21.1945 32.8576 20.521 33.3311C19.038 34.3737 18.2726 34.8304 17.7591 35.0693C17.2479 35.3433 16.5914 35.5625 15.5716 35.6907C15.0625 35.7094 14.2306 35.7094 13.3736 35.7094" stroke="#0012D4" stroke-linecap="round"/>
<path d="M13.0448 31.1062C12.7905 30.1944 12.2075 29.0326 11.4951 27.5311C10.7542 25.9696 9.24833 25.0805 8.39073 24.2964C7.27937 23.2802 6.00205 22.3077 4.24629 21.5186C3.21697 21.056 1.79788 20.8413 1.04658 20.7131C0.847489 20.6791 0.5923 20.6944 0.534213 20.8391C0.369315 21.2498 0.842183 21.8606 1.06028 22.5521C1.7962 24.8856 2.55848 26.8297 2.77823 27.3048C3.13476 28.0757 3.7246 29.4535 4.3115 30.2459C4.85875 30.9847 5.66229 31.4328 6.13849 31.9079C6.6774 32.4456 7.01473 33.0395 7.7989 33.5886C8.5541 34.1174 9.45876 34.2824 10.1931 34.5213C10.8145 34.7591 11.905 35.1219 12.9686 35.38C13.1533 35.4167 13.2618 35.4529 13.5928 35.2709" stroke="#0012D4" stroke-linecap="round"/>
<path d="M13.264 34.175C12.8267 33.6292 12.1724 32.6099 11.1487 31.4937C10.5074 30.7944 9.87082 30.2689 9.30201 29.9746C9.02911 29.7933 8.62689 29.4645 8.18905 29.0995C8.00437 28.9515 7.89587 28.8792 7.67449 28.8047" stroke="#0012D4" stroke-linecap="round"/>
</svg>
