<svg width="31" height="51" viewBox="0 0 31 51" fill="none" xmlns="http://www.w3.org/2000/svg">
<path d="M12.9488 11.5783C12.6679 11.9098 12.5143 12.2675 12.3608 12.7277C12.1979 13.2161 12.2073 13.6491 12.1686 14.0203C12.0824 14.8453 12.1551 16.1821 12.2066 16.5786C12.27 17.0674 12.869 17.5868 13.4331 18.1521C13.7418 18.4614 14.0218 18.6905 14.3293 18.8567C14.7466 19.0823 15.3774 19.3046 16.8956 19.318C17.6356 19.3245 18.2404 19.0252 19.239 18.527C20.2286 18.0333 20.5707 17.4394 21.0577 16.851C21.4053 16.4312 21.7236 15.981 21.9285 15.6222C22.1953 15.155 22.7183 13.9163 23.322 12.0576C23.5948 11.2178 23.6179 10.6342 23.6816 9.84395C23.7978 8.40363 23.72 7.35743 23.7584 6.83702C23.9252 4.57488 24.0263 3.95635 24.1172 3.6854C24.3083 3.11628 23.033 4.28487 22.5575 4.56695C22.2518 4.74832 21.9308 4.87436 20.0054 5.97044C19.1875 6.43601 18.8606 6.63976 18.4515 6.84393C17.8852 7.12652 17.5557 7.38122 17.0065 7.68786C16.3571 8.05048 16.0973 8.37906 15.5481 8.77473C14.8852 9.25238 14.639 9.63172 14.1404 10.169C13.7858 10.5512 13.5644 10.9366 13.2696 11.2701C13.2052 11.3472 13.1545 11.4232 13.1031 11.5004C13.0516 11.5775 13.001 11.6535 12.7953 11.8853" stroke="#0012D4" stroke-linecap="round"/>
<path d="M24.0017 6.81934C24.6096 6.66736 25.2521 6.51308 26.1309 6.39795C28.307 6.11287 28.657 6.28204 28.8489 6.3327C28.9288 6.35379 28.9141 6.48468 28.8761 6.6002C28.7262 7.05613 28.3776 7.1256 28.2751 7.27873C28.2298 7.34651 28.274 7.43186 28.3377 7.48367C28.6174 7.71112 29.04 7.68822 29.3735 7.90544C30.2187 8.45592 29.5036 10.0661 29.3751 10.5401C29.1671 11.3068 28.9663 12.0879 28.5837 12.9426C27.8841 14.5052 27.2531 15.0292 26.7415 15.6183C26.1216 16.3322 25.6673 16.7439 25.244 17.1035C24.8496 17.4386 24.3364 17.8446 23.5569 18.4076C23.1373 18.7107 22.6984 18.9208 22.0087 19.2781C21.5977 19.491 21.1633 19.5348 20.8179 19.5736C20.3172 19.6297 19.9106 19.6883 18.3279 19.7017C17.7052 19.707 17.0983 19.5363 16.6343 19.4715C16.3015 19.3567 16.0198 19.2285 15.8667 19.1775C15.7896 19.1518 15.7136 19.1265 15.6353 19.0236" stroke="#0012D4" stroke-linecap="round"/>
<path d="M20.9315 5.05396C20.8547 4.97797 20.7534 4.62105 20.4721 4.22422C20.074 3.66269 19.8339 3.13812 19.1173 2.05163C18.8381 1.62821 18.6303 1.04114 18.3229 0.615906C18.264 0.53443 18.1698 0.500772 18.0926 0.500004C17.9316 0.498402 17.6332 0.956705 17.2372 1.46867C17.0599 1.69786 16.4581 1.21921 15.9312 0.947878C15.4703 0.710567 15.0734 1.44488 13.8365 2.72057C13.3314 3.24149 12.9273 4.30328 12.4894 5.09042C12.3178 5.39898 11.9794 6.14851 11.5065 7.19546C10.8918 8.55679 11.056 9.04376 11.0172 9.42754C10.9781 9.81542 10.9025 10.169 10.889 12.2226C10.8819 13.3148 11.1051 14.8987 11.3999 15.606C11.6432 16.0286 11.9494 16.5398 12.0914 16.8733C12.1045 16.9504 12.1045 17.0264 12.1812 17.1815" stroke="#0012D4" stroke-linecap="round"/>
<path d="M14.1769 18.7933C14.1769 18.7427 14.1769 18.692 14.1516 18.7039C13.8649 18.8386 13.6412 19.4043 13.107 20.9287C12.684 22.1356 12.1168 24.2768 11.6896 26.1581C11.2625 28.0394 11.0345 29.6098 10.9171 30.5708C10.7997 31.5318 10.7997 31.8358 10.7237 32.461C10.6477 33.0861 10.4957 34.0233 10.3921 35.8993C10.2885 37.7752 10.2378 40.5614 10.2624 42.3261C10.2961 44.7523 10.5433 45.5798 10.6327 45.9114C10.8735 46.8042 10.7736 47.7029 10.825 48.2655C10.9785 48.8803 11.0806 49.3408 11.1827 49.6218C11.2341 49.7507 11.2848 49.852 11.337 49.8797" stroke="#0012D4" stroke-linecap="round"/>
<path d="M10.4159 34.3749C10.5678 34.0709 11.0261 33.5091 11.6397 32.8443C11.9623 32.495 12.4837 31.8979 13.2631 31.1054C13.7296 30.6311 14.3266 30.1824 15.1302 29.5185C16.4462 28.4313 17.0399 28.3633 18.1003 27.7251C18.397 27.5696 18.6019 27.4929 18.8571 27.3781C18.9857 27.314 19.1124 27.2381 19.3196 27.083" stroke="#0012D4" stroke-linecap="round"/>
<path d="M14.484 29.8463C14.3573 29.897 14.2307 29.9476 14.1401 29.9231C14.0495 29.8985 13.9989 29.7972 13.9728 29.6817C13.8627 29.1946 14.1754 28.6213 14.4955 27.879C14.7664 27.2507 15.0712 26.9564 15.833 26.3719C16.4542 25.8953 17.608 25.1289 18.2711 24.6864C19.4765 23.8821 20.1624 23.4003 21.0428 22.8254C22.0357 22.177 23.2572 22.0433 23.7569 22.0551C24.0022 22.061 24.1545 22.3487 24.3076 22.5782C24.4848 22.8438 24.5391 23.3189 24.4757 23.8935C24.3671 24.8794 23.4675 25.594 22.738 26.6191C22.48 26.9815 21.9079 27.5897 21.1418 28.5092C20.5161 29.2604 19.6827 29.8179 18.8142 30.2781C18.1833 30.6123 17.4813 30.6899 16.6397 30.805C15.6461 30.8441 14.9207 30.7175 14.6014 30.5129C14.4594 30.435 14.3581 30.4097 14.2537 30.4604" stroke="#0012D4" stroke-linecap="round"/>
<path d="M10.1856 39.2873C9.7519 39.0071 9.39345 38.598 8.69189 37.9978C7.90745 37.3266 7.42388 36.5256 6.93878 35.7615C6.25654 34.6868 6.04149 33.7363 5.81238 33.2661C5.34271 32.3024 4.96844 31.181 4.59771 30.4906C4.22544 29.7979 3.91764 29.0802 3.75147 28.7728C3.7127 28.6957 3.68737 28.6197 3.66128 28.5414" stroke="#0012D4" stroke-linecap="round"/>
<path d="M6.34777 34.8354C6.57727 34.0955 6.73155 32.9242 6.85896 31.1964C6.89396 30.7218 6.88506 30.2147 6.82174 29.2445C6.75841 28.2743 6.63177 26.8558 6.51586 25.9098C6.26089 23.8286 5.60784 23.2467 5.30004 22.9013C4.82379 22.3669 4.35517 21.8666 4.09689 21.4683C3.83998 21.072 3.53541 20.6631 3.12553 20.3169C2.74393 19.9946 2.58824 19.5379 1.96229 18.4138C1.82915 18.1747 1.74392 18.1041 1.64145 18.0649C1.53898 18.0258 1.41233 18.0258 1.30909 18.0638C0.909647 18.2108 0.771416 19.0696 0.579525 20.8884C0.441677 22.1949 0.514282 24.3029 0.564941 25.6266C0.6156 26.9502 0.716919 27.4315 0.908426 28.0847C1.62546 30.5304 1.8437 31.0206 2.13768 31.5199C2.76659 32.5881 3.55691 33.6825 4.01783 33.9899C4.38122 34.2323 4.65759 34.4255 5.05404 34.6681C5.52801 34.8861 5.88569 34.9889 6.12978 35.0906C6.1436 35.1417 6.09294 35.2177 6.04074 35.2959" stroke="#0012D4" stroke-linecap="round"/>
</svg>
