<svg width="33" height="51" viewBox="0 0 33 51" fill="none" xmlns="http://www.w3.org/2000/svg">
<path d="M11.9131 0.710322C11.7042 0.710322 10.9596 0.802864 10.4538 0.862104C9.85884 0.931787 8.92373 1.03702 8.61911 1.24699C8.34342 1.43703 7.9885 1.52777 7.56855 1.84185C6.7664 2.4418 6.46997 2.90468 6.15379 3.25627C5.80413 3.64508 5.1183 4.16521 4.55324 4.62336C4.19809 4.91131 3.876 5.19579 3.39752 5.61573C2.47899 6.42188 2.02937 6.76199 1.77208 7.0652C1.28785 7.63585 0.931492 8.34782 0.650011 9.36472C0.438945 10.1272 0.509446 10.5239 0.520313 11.584C0.530114 12.5401 1.7181 13.139 2.38832 13.4576C2.86961 13.6864 3.2885 13.5862 4.87047 13.5407C6.32589 13.4987 7.21521 13.1894 7.82935 13.0969C8.37572 13.0146 9.39205 12.8193 10.2288 12.7239C11.0655 12.6286 11.6902 12.6286 12.3821 12.7095C13.825 12.8784 14.6466 13.1425 14.8674 13.2006C15.6269 13.4008 16.4182 13.6788 17.7275 13.948C18.3939 14.085 19.5001 14.1709 20.3936 14.0896C21.0246 14.0322 21.7464 13.4502 22.7184 12.5266C23.0754 12.1874 23.2228 11.6036 23.2358 10.5068C23.2498 9.32192 22.9676 8.82174 22.8737 8.41231C22.6311 7.35528 21.637 6.55447 21.3085 6.14504C21.0545 5.82835 20.6779 5.45659 20.3971 5.17476C19.9775 4.75358 19.022 4.17222 18.5046 3.84272C18.0025 3.52296 17.7334 2.88505 17.4526 2.66246C17.1608 2.43113 16.9622 2.16014 16.4953 1.89163C16.0827 1.65434 15.8405 1.45907 15.3505 1.33007C14.8309 1.1933 14.5085 1.13097 14.0531 0.933263C13.7209 0.789029 13.4569 0.664051 12.9668 0.582026C12.6871 0.570107 12.4747 0.546972 12.3348 0.511918C12.2643 0.5 12.1949 0.5 12.1234 0.5" stroke="#0012D4" stroke-linecap="round"/>
<path d="M8.82838 12.9791C8.80525 13.1411 8.78211 13.303 8.74706 14.4044C8.712 15.5058 8.66573 17.5417 8.63033 18.6715C8.58983 19.9639 8.54795 20.292 8.52482 20.6646C8.49567 21.1341 8.40774 21.8779 8.3846 22.8106C8.3637 23.6535 8.26752 24.5651 8.20969 25.7874C8.17586 26.5023 8.03617 27.403 7.97658 28.5156C7.91699 29.6282 7.91699 30.9238 7.92856 31.6491C7.945 32.6801 8.03337 32.9583 8.06877 33.4599C8.11424 34.1042 8.17358 34.7096 8.20898 35.3644C8.23323 35.8128 8.3138 36.2295 8.3492 37.3369C8.38323 38.4011 8.45401 39.6634 8.48941 40.1675C8.54742 40.9934 8.50168 42.2588 8.46628 43.3314C8.44834 43.8748 8.36147 44.2456 8.32606 44.5264C8.3145 44.5968 8.29136 44.6662 8.27944 44.8177C8.26752 44.9691 8.26752 45.2005 8.26752 45.4388" stroke="#0012D4" stroke-linecap="round"/>
<path d="M14.2968 13.4698C14.2968 13.5161 14.2968 14.8818 14.3083 16.9959C14.3125 17.7682 14.343 17.9301 14.3434 18.4878C14.3443 19.9942 14.2505 21.3184 14.1804 21.902C14.1046 22.5326 14.0864 23.7434 14.0282 24.9853C13.9707 26.2127 13.9469 27.5095 13.8418 28.3386C13.7512 29.0521 13.7359 30.2171 13.6777 31.4005C13.6225 32.5237 13.6427 33.3789 13.6076 33.6587C13.5728 33.9365 13.5494 34.3128 13.4793 35.4268C13.4238 36.308 13.4555 37.8364 13.4786 38.6808C13.505 39.6431 13.6882 40.1534 13.8284 40.946C14.0492 42.194 13.806 42.4929 13.7478 42.7737C13.6711 43.1436 13.5494 43.6146 13.4674 44.0461C13.4555 44.221 13.4555 44.4755 13.4555 44.5719C13.4555 44.6683 13.4555 44.5989 13.4555 44.5274" stroke="#0012D4" stroke-linecap="round"/>
<path d="M5.1828 46.7007C4.83296 46.095 4.64578 45.5341 4.56375 44.9039C4.52454 44.6026 4.48243 44.064 4.37726 43.1904C4.17671 41.5245 4.24827 41.28 4.16694 41.1282C4.08582 40.9768 3.78205 40.9064 3.5486 40.6964C3.24389 40.4223 3.2899 38.9539 3.42941 38.0323C3.48482 37.6663 3.96573 37.448 4.27035 37.3183C4.3995 37.2633 4.55113 37.3295 4.69099 37.3877C5.03411 37.5304 5.04258 38.4 4.98439 39.1849C4.90307 40.0139 4.66961 40.8103 4.55218 41.0911C4.5287 41.1615 4.50556 41.2309 4.48172 41.3726" stroke="#0012D4" stroke-linecap="round"/>
<path d="M13.5957 43.7562C13.5494 43.8488 13.5024 43.9658 13.4095 44.3371C13.2241 45.171 13.0587 45.858 12.9886 46.1378C12.9647 46.2787 12.9647 46.4175 12.9647 46.5605" stroke="#0012D4" stroke-linecap="round"/>
<path d="M15.5913 47.2151C15.5716 46.921 15.552 46.6269 15.591 46.044C15.6299 45.4612 15.7279 44.5985 15.8078 43.4679C15.8877 42.3373 15.9465 40.9648 16.0063 40.1794C16.066 39.3939 16.1248 39.2371 16.1551 39.1857C16.1854 39.1343 16.1854 39.1931 16.1854 39.2537" stroke="#0012D4" stroke-linecap="round"/>
<path d="M20.2849 49.7699C20.5594 49.2209 20.7988 48.7812 21.3591 48.073C21.8055 47.5088 22.6448 46.5806 23.2651 45.9781C24.7991 44.8588 25.1948 44.7007 25.5207 44.5623C25.6897 44.5023 25.8662 44.4631 26.048 44.4227" stroke="#0012D4" stroke-linecap="round"/>
<path d="M18.3837 48.8787C18.3837 48.8002 18.5405 48.6422 18.9056 48.3953C19.3687 48.1289 20.0039 47.8502 20.6369 47.6423C20.8974 47.5716 21.0347 47.5716 21.2949 47.5121" stroke="#0012D4" stroke-linecap="round"/>
<path d="M24.2656 47.7498C25.089 47.4753 25.8466 47.3143 26.4006 47.2944C26.7193 47.3137 26.9184 47.3339 27.1061 47.3437C27.1958 47.3535 27.2743 47.3731 27.3551 47.3933" stroke="#0012D4" stroke-linecap="round"/>
<path d="M16.423 25.2916C16.246 25.4092 15.8111 25.8049 15.3058 26.6251C15.0481 27.0434 15.116 27.4483 15.0666 27.8939C15 28.4957 15.1944 28.7364 15.4516 29.2209C15.6267 29.5506 15.8277 29.8652 16.0853 30.0539C16.4109 30.2923 16.8366 30.3215 17.993 30.3319C18.3433 30.3351 18.6784 30.2823 19.1035 30.2725C19.4318 30.2649 20.1601 30.2229 21.8552 30.3601C22.9669 30.4501 24.5698 30.7719 25.6725 30.9035C27.3163 31.0996 28.0859 30.9561 28.4417 30.877C28.7234 30.8145 29.0169 30.7184 29.5489 30.5217C31.1478 29.9308 31.3346 29.4125 31.5431 28.9571C31.7682 28.4655 31.7517 27.3948 31.5841 26.7591C31.5287 26.5487 31.435 26.4014 31.2974 26.116C31.0218 25.5438 30.2319 24.7224 29.4203 23.9206C28.8231 23.3306 28.4055 22.9163 27.9118 22.4219C27.5212 22.0309 26.8453 21.7292 26.3858 21.4897C26.2136 21.4 25.9898 21.3507 25.5664 21.223C24.7508 20.9768 23.8146 20.6187 23.053 20.4702C22.2044 20.3047 21.4363 20.617 20.221 21.1499C18.9666 21.7 18.7413 22.0429 18.4247 22.3197C18.0512 22.6463 17.7515 22.8545 17.1779 23.4275C16.7443 23.8606 16.7011 24.1616 16.5722 24.5272C16.5229 24.6755 16.4444 24.8911 16.3844 25.0317C16.3244 25.1722 16.2852 25.231 16.2448 25.2916" stroke="#0012D4" stroke-linecap="round"/>
<path d="M20.4631 30.3417C20.5808 30.9691 20.6806 31.3904 20.7498 32.2447C20.8109 32.9992 20.7994 34.4127 20.7997 35.2086C20.8001 36.1419 20.623 36.9301 20.415 37.979C20.2664 38.7288 20.2849 39.0933 20.2356 39.5392C20.1515 40.2993 19.9878 41.4104 19.8794 41.8563C19.7754 42.2839 19.6516 42.7567 19.5131 43.0847C19.3506 43.4698 18.6475 44.6888 18.0976 45.55C17.8635 45.9167 17.6125 46.2621 17.335 46.7184C17.1366 47.0559 16.9584 47.3719 16.8594 47.639C16.8193 47.7492 16.7997 47.808 16.7201 47.7498" stroke="#0012D4" stroke-linecap="round"/>
<path d="M24.8003 30.9952C24.8003 31.1913 24.8983 31.9981 25.0371 33.4695C25.109 34.2327 25.0582 35.0389 25.0285 35.6001C24.9831 36.4569 24.8603 36.9152 24.683 37.5155C24.5529 37.9558 24.388 38.6845 24.2579 39.3719C24.0103 40.6799 23.9685 41.4116 23.9195 41.6578C23.7373 42.5732 23.4148 43.0942 23.2562 43.3817C23.0542 43.7478 22.8611 44.2408 22.7113 44.6098C22.5861 44.9185 22.425 45.233 22.2954 45.5405C22.2265 45.6691 22.1665 45.7885 22.1368 45.9071C22.1267 45.9668 22.1267 46.0256 22.0079 46.205" stroke="#0012D4" stroke-linecap="round"/>
</svg>
