<svg width="29" height="51" viewBox="0 0 29 51" fill="none" xmlns="http://www.w3.org/2000/svg">
<path d="M13.2584 11.4091C12.5418 11.4091 11.8252 11.6313 11.3513 12.0587C11.0749 12.308 11.1032 12.8436 11.2261 13.7182C11.2852 14.1389 11.5733 14.483 11.9211 14.9544C12.2894 15.4535 13.0537 15.4946 13.6157 15.4953C14.0581 15.4958 14.6916 14.8251 15.3332 13.8708C15.6518 13.3968 15.4366 12.7803 15.2796 12.3759C15.1575 12.0612 14.7644 11.8819 14.4047 11.735C14.0451 11.5889 13.7979 11.5215 13.6635 11.4767C13.5958 11.4542 13.5292 11.432 13.4605 11.4091" stroke="#0012D4" stroke-linecap="round"/>
<path d="M10.6317 9.32117C10.5872 9.34339 10.5428 9.36562 10.5421 9.41041C10.6984 9.65725 11.0116 10.0149 11.3365 10.4739C11.4837 10.7106 11.5948 10.9551 11.7093 11.207" stroke="#0012D4" stroke-linecap="round"/>
<path d="M12.3828 7.03119C12.4495 7.47571 12.5162 7.92023 12.5839 8.41594C12.6516 8.91165 12.7183 9.44507 12.7859 9.79766C12.8536 10.1502 12.9203 10.3058 13.0564 10.6008" stroke="#0012D4" stroke-linecap="round"/>
<path d="M16.3566 10.8029C17.0288 10.4446 17.5662 10.1307 18.9442 9.24607C19.3748 8.96966 20.0111 8.71703 21.2187 8.30281C21.928 8.05952 22.8708 7.86637 23.5184 7.75188C25.0212 7.48617 25.7158 7.90544 26.1768 8.18629C26.7997 8.56574 27.1315 8.80391 27.446 9.11777C27.8364 9.50732 27.9182 10.2398 27.93 11.3821C27.9355 11.9164 27.316 12.7049 26.6412 13.562C26.0697 14.2877 25.0456 14.8433 24.9446 14.9999C24.834 15.1713 24.9991 15.4488 25.1783 15.8287C25.4463 16.3969 25.4491 17.5084 25.4157 18.6861C25.3869 19.7025 24.7998 20.0732 24.3842 20.4328C23.9322 20.8241 23.3409 21.1293 22.8136 21.231C21.8541 21.416 20.7627 20.8854 20.13 20.5588C19.6365 20.3041 19.277 19.9196 18.9173 19.5936C18.4739 19.1918 17.8208 18.4635 17.1672 17.698C16.4536 16.8624 16.1559 16.5291 15.942 16.2594C15.6171 15.8563 15.3019 15.3613 15.2012 15.1932C15.1449 15.1141 15.0783 15.0474 14.9422 15.0461" stroke="#0012D4" stroke-linecap="round"/>
<path d="M13.8646 15.3828C13.909 15.694 14.0653 16.4988 14.2673 17.5421C14.3693 18.0688 14.3805 18.5005 14.4478 19.2717C14.4898 19.7526 14.4707 20.4207 14.4041 21.0754C14.2731 22.3613 14 23.1491 13.8211 23.5071C13.4001 24.3499 12.5014 25.2754 11.9238 25.8887C11.7879 26.033 11.6204 26.1584 11.3968 26.2928C11.1052 26.468 10.5899 26.4958 9.91844 26.3514C9.06278 26.1673 8.67917 25.5536 8.5337 25.397C7.89583 24.7104 7.35437 23.5566 7.20855 23.264C7.14359 23.1336 6.61821 23.2165 5.52139 23.4411C4.31536 23.6881 3.44932 23.4205 2.81318 22.9198C2.305 22.5198 1.6214 21.5967 1.17688 20.9168C0.732355 20.2368 0.598999 19.7701 0.541413 19.2074C0.418457 18.0058 0.595631 17.1137 0.729998 16.7103C0.936677 16.0898 1.64699 15.4987 2.81318 14.947C3.84353 14.4597 4.68118 14.4399 4.89401 14.4288C5.77691 14.3827 7.21697 14.3281 7.65543 14.1264C8.04026 13.9493 8.40775 13.7893 8.67749 13.6212C8.75218 13.5747 8.81186 13.4983 8.82398 13.4306C8.88138 13.1102 8.16393 12.915 7.69247 12.3429C7.36307 11.9431 6.15147 11.013 5.41329 10.2435C5.15483 9.97411 4.79703 9.57036 4.33769 9.11136C3.89834 8.67234 3.67293 8.13375 3.53822 7.46326C3.17055 5.63318 3.71603 4.9231 4.07468 4.32804C4.29279 3.96617 5.16948 3.66631 6.02586 3.47302C7.29881 3.18569 7.68843 3.57337 9.12201 4.23342C9.49558 4.40541 9.64298 4.56074 9.77768 4.63988C10.058 4.80459 9.71167 3.82392 9.711 3.30632C9.71024 2.72277 10.4027 2.02967 11.4807 1.20798C11.9563 0.845421 12.7371 0.678596 13.6336 0.543893C14.7712 0.372955 15.3207 0.721701 16.1734 1.23627C17.1688 1.83698 17.1864 2.35969 17.3103 2.73013C17.692 3.8712 17.3898 5.41207 17.3446 5.87309C17.2813 6.52064 17.1433 7.13897 17.0304 7.59123C16.9289 7.99846 16.6502 8.75406 16.3909 9.58821C16.3344 9.92665 16.267 10.1287 16.2222 10.2631C16.1997 10.3308 16.1774 10.3974 16.0872 10.6008" stroke="#0012D4" stroke-linecap="round"/>
<path d="M10.1602 16.3257C10.1602 16.348 10.1602 16.3702 10.038 16.5706C9.91574 16.7709 9.67125 17.1488 9.55406 17.5381" stroke="#0012D4" stroke-linecap="round"/>
<path d="M18.0404 13.0255C17.9515 13.0255 17.8626 13.0255 17.8612 13.0255C17.9488 13.0255 18.196 13.0477 18.6762 13.0814C19.0008 13.0929 19.4898 13.0929 20.1283 13.1602" stroke="#0012D4" stroke-linecap="round"/>
<path d="M14.134 15.5175C14.8897 17.2956 15.3234 18.3449 15.4797 19.1471C15.6093 19.8127 15.7693 21.0161 15.8609 21.7233C15.9752 22.6057 15.9969 23.0804 16.0643 24.0072C16.1105 24.6437 16.0872 25.623 16.1094 26.2601C16.1316 26.8972 16.1761 27.164 16.199 27.7348C16.2219 28.3056 16.2219 29.1724 16.0996 30.7747C15.9774 32.377 15.7329 34.6885 15.5625 36.3905C15.3921 38.0924 15.3032 39.1148 15.2352 39.7415C15.1451 40.571 15.0324 41.1522 14.9651 42.4026C14.9181 43.2742 14.9422 44.6309 14.9311 45.396C14.9144 46.5443 14.8304 46.9465 14.7853 47.3169C14.672 48.2469 14.6283 49.0573 14.5943 49.3604C14.561 49.5948 14.5381 49.91 14.5159 50.1238C14.4936 50.1598 14.4492 50.0487 14.4034 49.9342" stroke="#0012D4" stroke-linecap="round"/>
</svg>
